<?xml version="1.0" standalone="no"?>
<!DOCTYPE svg PUBLIC "-//W3C//DTD SVG 1.1//EN" "http://www.w3.org/Graphics/SVG/1.1/DTD/svg11.dtd" >
<svg xmlns="http://www.w3.org/2000/svg" xmlns:xlink="http://www.w3.org/1999/xlink" version="1.1">
<metadata>
Created by FontForge 20141024 at Wed Mar 25 15:07:43 2015
 By System Administrator
Copyright (c) Solveware Solution, 2006. All rights reserved.
</metadata>
<defs>
<font id="Parabaik" horiz-adv-x="0" >
  <font-face 
    font-family="Parabaik"
    font-weight="400"
    font-stretch="normal"
    units-per-em="2048"
    panose-1="2 0 5 6 3 0 0 2 0 4"
    ascent="1638"
    descent="-410"
    x-height="1117"
    cap-height="1489"
    bbox="-1900 -1076 4432 2049"
    underline-thickness="100"
    underline-position="-750"
    unicode-range="U+0020-25CC"
  />
<missing-glyph horiz-adv-x="640" 
 />
    <glyph glyph-name="A_TTATTA" unicode="&#x100b;&#x1039;&#x100b;" horiz-adv-x="1304" 
d="M1298 -864l-318 7l-2 562q-184 -78 -356 -74q-259 2 -491 138v255q0 63 29 81q8 7 28 7q24 0 53 -17q148 -114 388 -114q82 0 179 28q119 35 163 80v110q-141 -144 -337 -148q-240 -2 -404 151q-165 154 -166 385q-4 227 154 395q157 168 382 168q150 0 281 -72
q131 -70 204 -196l-110 -65q-115 190 -375 190q-180 0 -284 -119t-104 -301q0 -184 119 -291q120 -107 303 -103q239 3 346 213l117 -68v-323q-77 -85 -215 -132q-129 -43 -253 -43q-227 0 -355 80v-71l125 -52q91 -28 230 -28q163 0 361 88q31 22 49 22q73 0 73 -78v-534
l175 -2zM814 -748q-85 -90 -197 -91q-104 -3 -165 66q-61 68 -61 173q0 85 68 150q70 65 153 65q148 0 189 -98l-81 -52q-46 40 -108 40q-39 0 -72 -34q-32 -35 -32 -73q0 -131 104 -131l47 8q44 11 73 44zM904 -1076l-192 10l-3 114q-81 -23 -94 -23q-175 0 -226 86
q0 70 55 70q67 -58 150 -58q116 0 180 55q6 0 16 -16q11 -17 16 -17v-120l90 -2z" />
    <glyph glyph-name="A_TTATTHA" unicode="&#x100b;&#x1039;&#x100c;" horiz-adv-x="1145" 
d="M1080 340q-69 -119 -195 -201q-127 -82 -260 -86q-232 -3 -398 148q-167 152 -167 385q0 231 151 397q152 167 380 167q149 0 282 -71q132 -70 205 -196l-101 -72q-117 197 -389 197q-164 0 -279 -130q-116 -130 -116 -294q0 -172 127 -287q126 -115 303 -113
q187 3 354 218zM1085 -473q0 -104 -64 -198q-75 -104 -173 -104h-511q-258 0 -261 199q-2 189 223 189q5 0 13.5 -0.5t21.5 -1.5h32l2 -109q-184 0 -183 -76q3 -74 158 -74h458q74 0 119 66q46 64 46 144v372q-144 -101 -346 -94q-311 4 -516 198q-44 30 -44 79q0 41 42 49
q39 0 59 -15q158 -183 459 -184q244 -3 396 155q7 10 25 10q44 0 44 -51v-554z" />
    <glyph glyph-name="A_DDADDA" unicode="&#x100d;&#x1039;&#x100d;" horiz-adv-x="1259" 
d="M1268 -828l-296 8l-9 756q-205 -98 -385 -98q-119 0 -257 56q-136 55 -210 143v307l97 54q133 -196 367 -199q181 -2 303 105q122 108 122 287q0 183 -109 301q-108 118 -289 118q-265 0 -380 -211l-97 85q59 119 197 193q137 73 280 73q224 0 382 -165
q158 -164 155 -394t-167 -383q-164 -152 -397 -149q-180 3 -329 129v-83q129 -120 332 -120q213 0 388 112q20 17 47 17q29 0 55 -22q27 -23 27 -50v-739l164 -2zM966 -971l-249 8l-3 104q-81 -27 -136 -27q-63 0 -217 84v209l99 58q31 -63 118 -63q120 0 120 123
q0 109 -117 121q-83 0 -111 -55l-112 46q66 133 220 140q112 -7 181 -75q70 -67 73 -177q2 -98 -76 -174q-77 -78 -175 -78q-66 4 -111 33v-50q42 -27 111 -27q139 0 204 69q31 0 41 -34l3 -123l129 -3z" />
    <glyph glyph-name="A_DDA2" unicode="&#x100d;&#x1039;&#x100e;" horiz-adv-x="1216" 
d="M847 594q0 -91 -73 -160q-73 -68 -165 -68q-131 2 -199 128l90 57q34 -55 116 -55q38 0 72 31t34 72q0 111 -106 124q-16 -5 -30.5 -10t-28.5 -9q-42 -10 -48 -31l-107 39q65 126 207 122q136 -2 197 -96q41 -64 41 -144zM1156 588q-16 -189 -101 -304
q-81 -113 -259 -193v-64l130 -4l6 -133l-260 5l-4 167q0 3 4 0q-7 0 -15.5 -0.5t-19.5 -1.5l-23 -6q-258 0 -417 187q-131 155 -131 312q0 153 65 232q26 30 116 80q66 34 66 98q0 54 -42 54q-79 0 -140 -78l-71 111q64 62 80 74q43 26 101 26q211 0 211 -169
q0 -109 -128 -204q-127 -93 -127 -221q0 -115 91 -221q121 -139 331 -139q43 0 69 3v53q-8 -7 -72 -17q-2 0 -12 3h-13q-75 0 -181 56l3 110q102 -78 201 -78q88 9 144 48q6 0 18 -15t20 -15q0 -19 -0.5 -44.5t-1.5 -58.5q229 91 229 353q-21 164 -77 250q-28 44 -78.5 87
t-123.5 88l29 131q327 -184 381 -506q1 -8 1.5 -22t0.5 -34z" />
    <glyph glyph-name="A_DDA1" unicode="&#x100f;&#x1039;&#x100d;" horiz-adv-x="2402" 
d="M1923 -195h-672q53 -101 53 -209q0 -78 -28 -158q-30 -90 -80 -137h-240l-41 92q108 61 108 210q0 97 -67 170q-65 73 -164 71q-89 -1 -160 -71q-70 -69 -70 -160q3 -111 100 -201l-50 -103q-76 39 -126 131q-47 89 -47 176q0 143 107 244q106 99 251 99q149 0 246 -106
q97 -105 95 -257q-1 -119 -68 -199l64 3q56 59 56 196q0 131 -75 254q-13 19 -13 30q0 34 47 34h674l3 129h97v-238zM2342 593q0 -103 -42 -195t-130 -174q-166 -163 -371 -163v122q158 0 283 124q63 63 94.5 133.5t29.5 149.5q-7 163 -124 296q-60 67 -129 101t-151 34
q-95 0 -174 -31t-135.5 -87.5t-88 -135.5t-31.5 -174q0 -32 9.5 -73.5t26.5 -93.5q19 -51 29 -93t10 -74q0 -46 -20 -84t-54.5 -65t-79.5 -42t-96 -15q-254 0 -254 206q0 75 44 175q23 50 34 88.5t9 67.5q-2 82 -34 155.5t-94 140.5q-121 135 -287 135q-179 0 -304 -125
q-122 -120 -122 -301q0 -168 132 -293q133 -122 304 -122l3 -127q-231 0 -401 149q-84 78 -126 175t-42 218t39.5 220t117.5 178q81 78 181.5 117.5t222.5 39.5q85 0 168 -30.5t170 -90.5q11 23 35 45.5t64 39.5q36 18 72 27t68 9q33 0 67 -8t71 -26q42 -17 66.5 -39
t35.5 -46q77 59 168 89t196 30q226 0 381 -167q159 -170 159 -390zM1317 280q0 13 -10 43t-31 78q-20 50 -29.5 97t-9.5 95q0 63 31 174q36 109 36 150q0 102 -106 102q-117 0 -117 -90q0 -37 39 -154q20 -60 30 -105.5t10 -76.5q0 -94 -40 -192q-39 -95 -39 -126
q-2 -48 28 -70t89 -22q119 0 119 97z" />
    <glyph glyph-name="S_KAS_DOT" unicode="&#x1039;&#x1000;" horiz-adv-x="1489" 
d="M1429 -343q0 -158 -105 -278q-110 -123 -264 -123q-8 0 -19 0.5t-23 1t-23.5 1t-19.5 0.5l-5 97q147 8 238 81q92 74 92 213q0 99 -73 171q-74 72 -169 72q-186 0 -238 -108q26 -66 26 -135q0 -234 -279 -391l-39 109q49 35 79 57.5t43 32.5q68 80 68 187q0 115 -76 185
t-189 70q-109 0 -185 -70t-76 -180q0 -178 171 -278l-32 -113q-271 130 -269 398q0 164 114 269q115 104 285 104q181 0 289 -137q107 137 310 137q155 0 262 -111q107 -113 107 -262zM473 969q0 38 34 54q12 6 26 6q38 0 54 -34q6 -12 6 -26q0 -38 -34 -54q-12 -6 -26 -6
q-38 0 -54 34q-6 12 -6 26zM316 813q0 38 34 54q12 6 26 6q38 0 54 -34q6 -12 6 -26q0 -38 -34 -54q-12 -6 -26 -6q-38 0 -54 34q-6 12 -6 26zM258 600q0 38 34 54q13 6 26 6q38 0 54 -34q6 -12 6 -26q0 -38 -33 -54q-14 -6 -27 -6q-38 0 -54 34q-6 12 -6 26zM316 387
q0 38 34 54q12 6 26 6q38 0 54 -34q6 -14 6 -26q0 -38 -34 -54q-12 -6 -26 -6q-38 0 -54 33q-6 13 -6 27zM473 231q0 38 34 54q12 6 26 6q38 0 54 -34q6 -14 6 -26q0 -38 -34 -54q-12 -6 -26 -6q-38 0 -54 33q-6 13 -6 27zM687 174q0 38 34 54q12 6 26 6q38 0 54 -34
q6 -14 6 -26q0 -38 -34 -54q-12 -6 -26 -6q-38 0 -54 33q-6 13 -6 27zM901 231q0 38 34 54q12 6 26 6q38 0 54 -34q6 -14 6 -26q0 -38 -34 -54q-12 -6 -26 -6q-38 0 -54 33q-6 13 -6 27zM1058 387q0 38 34 54q12 6 26 6q38 0 54 -34q6 -14 6 -26q0 -38 -34 -54
q-12 -6 -26 -6q-38 0 -54 33q-6 13 -6 27zM1116 600q0 37 33 54q13 6 27 6q38 0 54 -34q6 -12 6 -26q0 -38 -34 -54q-14 -6 -26 -6q-38 0 -54 34q-6 12 -6 26zM1058 813q0 38 34 54q12 6 26 6q38 0 54 -34q6 -12 6 -26q0 -38 -34 -54q-12 -6 -26 -6q-38 0 -54 34
q-6 12 -6 26zM901 969q0 38 34 54q12 6 26 6q38 0 54 -34q6 -12 6 -26q0 -38 -34 -54q-12 -6 -26 -6q-38 0 -54 34q-6 12 -6 26zM687 1026q0 38 34 54q12 6 26 6q38 0 54 -34q6 -12 6 -26q0 -38 -34 -54q-12 -6 -26 -6q-38 0 -54 34q-6 12 -6 26z" />
    <glyph glyph-name="S_KHA_DOT" unicode="&#x1039;&#x1001;" horiz-adv-x="1098" 
d="M930 -348q0 -158 -110 -277q-111 -119 -270 -119q-261 0 -366 247q66 111 218 111q240 0 318 -188q112 75 112 224q0 122 -90 199q-91 76 -213 76q-127 0 -262 -153l-90 43q49 94 147 153q95 58 205 58q165 0 284 -105q117 -107 117 -269zM642 -627q-71 128 -240 128
q-50 0 -89 -17q84 -125 240 -125q47 0 89 14zM275 968q0 38 34 54q12 6 26 6q38 0 54 -34q6 -12 6 -26q0 -38 -34 -54q-12 -6 -26 -6q-38 0 -54 34q-6 12 -6 26zM118 812q0 38 34 54q12 6 26 6q38 0 54 -34q6 -12 6 -26q0 -38 -34 -54q-12 -6 -26 -6q-38 0 -54 34
q-6 12 -6 26zM60 599q0 38 34 54q13 6 26 6q38 0 54 -34q6 -12 6 -26q0 -38 -33 -54q-14 -6 -27 -6q-38 0 -54 34q-6 12 -6 26zM118 386q0 38 34 54q12 6 26 6q38 0 54 -34q6 -14 6 -26q0 -38 -34 -54q-12 -6 -26 -6q-38 0 -54 33q-6 13 -6 27zM275 230q0 38 34 54
q12 6 26 6q38 0 54 -34q6 -14 6 -26q0 -38 -34 -54q-12 -6 -26 -6q-38 0 -54 33q-6 13 -6 27zM489 173q0 38 34 54q12 6 26 6q38 0 54 -34q6 -14 6 -26q0 -38 -34 -54q-12 -6 -26 -6q-38 0 -54 33q-6 13 -6 27zM703 230q0 38 34 54q12 6 26 6q38 0 54 -34q6 -14 6 -26
q0 -38 -34 -54q-12 -6 -26 -6q-38 0 -54 33q-6 13 -6 27zM860 386q0 38 34 54q12 6 26 6q38 0 54 -34q6 -14 6 -26q0 -38 -34 -54q-12 -6 -26 -6q-38 0 -54 33q-6 13 -6 27zM918 599q0 37 33 54q13 6 27 6q38 0 54 -34q6 -12 6 -26q0 -38 -34 -54q-14 -6 -26 -6
q-38 0 -54 34q-6 12 -6 26zM860 812q0 38 34 54q12 6 26 6q38 0 54 -34q6 -12 6 -26q0 -38 -34 -54q-12 -6 -26 -6q-38 0 -54 34q-6 12 -6 26zM703 968q0 38 34 54q12 6 26 6q38 0 54 -34q6 -12 6 -26q0 -38 -34 -54q-12 -6 -26 -6q-38 0 -54 34q-6 12 -6 26zM489 1025
q0 38 34 54q12 6 26 6q38 0 54 -34q6 -12 6 -26q0 -38 -34 -54q-12 -6 -26 -6q-38 0 -54 34q-6 12 -6 26z" />
    <glyph glyph-name="S_GA_DOT" unicode="&#x1039;&#x1002;" horiz-adv-x="1098" 
d="M947 -354q0 -279 -265 -391l-44 115q183 88 183 278q0 98 -87 173t-187 75t-179 -77q-79 -76 -79 -176q0 -184 155 -273l-40 -117q-250 97 -250 397q0 145 123 262q122 116 270 116q164 0 282 -109t118 -273zM275 969q0 38 34 54q12 6 26 6q38 0 54 -34q6 -12 6 -26
q0 -38 -34 -54q-12 -6 -26 -6q-38 0 -54 34q-6 12 -6 26zM118 813q0 38 34 54q12 6 26 6q38 0 54 -34q6 -12 6 -26q0 -38 -34 -54q-12 -6 -26 -6q-38 0 -54 34q-6 12 -6 26zM60 600q0 38 34 54q13 6 26 6q38 0 54 -34q6 -12 6 -26q0 -38 -33 -54q-14 -6 -27 -6q-38 0 -54 34
q-6 12 -6 26zM118 387q0 38 34 54q12 6 26 6q38 0 54 -34q6 -14 6 -26q0 -38 -34 -54q-12 -6 -26 -6q-38 0 -54 33q-6 13 -6 27zM275 231q0 38 34 54q12 6 26 6q38 0 54 -34q6 -14 6 -26q0 -38 -34 -54q-12 -6 -26 -6q-38 0 -54 33q-6 13 -6 27zM489 174q0 38 34 54
q12 6 26 6q38 0 54 -34q6 -14 6 -26q0 -38 -34 -54q-12 -6 -26 -6q-38 0 -54 33q-6 13 -6 27zM703 231q0 38 34 54q12 6 26 6q38 0 54 -34q6 -14 6 -26q0 -38 -34 -54q-12 -6 -26 -6q-38 0 -54 33q-6 13 -6 27zM860 387q0 38 34 54q12 6 26 6q38 0 54 -34q6 -14 6 -26
q0 -38 -34 -54q-12 -6 -26 -6q-38 0 -54 33q-6 13 -6 27zM918 600q0 37 33 54q13 6 27 6q38 0 54 -34q6 -12 6 -26q0 -38 -34 -54q-14 -6 -26 -6q-38 0 -54 34q-6 12 -6 26zM860 813q0 38 34 54q12 6 26 6q38 0 54 -34q6 -12 6 -26q0 -38 -34 -54q-12 -6 -26 -6
q-38 0 -54 34q-6 12 -6 26zM703 969q0 38 34 54q12 6 26 6q38 0 54 -34q6 -12 6 -26q0 -38 -34 -54q-12 -6 -26 -6q-38 0 -54 34q-6 12 -6 26zM489 1026q0 38 34 54q12 6 26 6q38 0 54 -34q6 -12 6 -26q0 -38 -34 -54q-12 -6 -26 -6q-38 0 -54 34q-6 12 -6 26z" />
    <glyph glyph-name="S_GHAS_DOT" unicode="&#x1039;&#x1003;" horiz-adv-x="1483" 
d="M1423 -367q0 -161 -115 -266q-116 -107 -279 -108q-191 -5 -285 135q-108 -138 -312 -138q-137 0 -252 108t-115 246q0 109 55 161q26 26 106 55q56 22 64 60q-17 29 -76 29q-37 0 -82 -67l-72 93q60 87 184 87q67 0 114 -42q46 -42 46 -110q0 -81 -106 -141
q-107 -62 -107 -130q0 -96 79 -159q80 -64 174 -65q107 -3 195 67q87 70 84 173q-2 92 -56 184q-54 91 -134 112l25 113q124 -52 201 -164q77 -113 77 -247q0 -55 -21 -115q68 -120 214 -121q107 0 189 74q81 73 81 179q0 125 -83 202q-85 77 -204 77v115q175 0 293 -109
t118 -288zM448 971q0 38 34 54q12 6 26 6q38 0 54 -34q6 -12 6 -26q0 -38 -34 -54q-12 -6 -26 -6q-38 0 -54 34q-6 12 -6 26zM291 815q0 38 34 54q12 6 26 6q38 0 54 -34q6 -12 6 -26q0 -38 -34 -54q-12 -6 -26 -6q-38 0 -54 34q-6 12 -6 26zM233 602q0 38 34 54q13 6 26 6
q38 0 54 -34q6 -12 6 -26q0 -38 -33 -54q-14 -6 -27 -6q-38 0 -54 34q-6 12 -6 26zM291 389q0 38 34 54q12 6 26 6q38 0 54 -34q6 -14 6 -26q0 -38 -34 -54q-12 -6 -26 -6q-38 0 -54 33q-6 13 -6 27zM448 233q0 38 34 54q12 6 26 6q38 0 54 -34q6 -14 6 -26q0 -38 -34 -54
q-12 -6 -26 -6q-38 0 -54 33q-6 13 -6 27zM662 176q0 38 34 54q12 6 26 6q38 0 54 -34q6 -14 6 -26q0 -38 -34 -54q-12 -6 -26 -6q-38 0 -54 33q-6 13 -6 27zM876 233q0 38 34 54q12 6 26 6q38 0 54 -34q6 -14 6 -26q0 -38 -34 -54q-12 -6 -26 -6q-38 0 -54 33q-6 13 -6 27z
M1033 389q0 38 34 54q12 6 26 6q38 0 54 -34q6 -14 6 -26q0 -38 -34 -54q-12 -6 -26 -6q-38 0 -54 33q-6 13 -6 27zM1091 602q0 37 33 54q13 6 27 6q38 0 54 -34q6 -12 6 -26q0 -38 -34 -54q-14 -6 -26 -6q-38 0 -54 34q-6 12 -6 26zM1033 815q0 38 34 54q12 6 26 6
q38 0 54 -34q6 -12 6 -26q0 -38 -34 -54q-12 -6 -26 -6q-38 0 -54 34q-6 12 -6 26zM876 971q0 38 34 54q12 6 26 6q38 0 54 -34q6 -12 6 -26q0 -38 -34 -54q-12 -6 -26 -6q-38 0 -54 34q-6 12 -6 26zM662 1028q0 38 34 54q12 6 26 6q38 0 54 -34q6 -12 6 -26q0 -38 -34 -54
q-12 -6 -26 -6q-38 0 -54 34q-6 12 -6 26z" />
    <glyph glyph-name="K_KINZI_DOT" unicode="&#x1004;&#x103a;&#x1039;" horiz-adv-x="1098" 
d="M745 1310q-62 -107 -184 -107q-86 0 -147 61t-61 148q0 102 81 165q-81 63 -81 167q0 86 61 146q61 61 147 61q114 0 176 -96l-78 -46q-36 51 -98 51q-49 0 -84 -35q-34 -34 -34 -85q0 -50 34 -84q35 -35 84 -35q114 0 176 -98l-71 -53q-36 59 -105 59q-25 0 -46.5 -9
t-37.5 -25t-25 -38t-9 -48t9 -47.5t25 -37.5t37.5 -25t46.5 -9q75 0 108 66zM275 971q0 38 34 54q12 6 26 6q38 0 54 -34q6 -12 6 -26q0 -38 -34 -54q-12 -6 -26 -6q-38 0 -54 34q-6 12 -6 26zM118 815q0 38 34 54q12 6 26 6q38 0 54 -34q6 -12 6 -26q0 -38 -34 -54
q-12 -6 -26 -6q-38 0 -54 34q-6 12 -6 26zM60 602q0 38 34 54q13 6 26 6q38 0 54 -34q6 -12 6 -26q0 -38 -33 -54q-14 -6 -27 -6q-38 0 -54 34q-6 12 -6 26zM118 389q0 38 34 54q12 6 26 6q38 0 54 -34q6 -14 6 -26q0 -38 -34 -54q-12 -6 -26 -6q-38 0 -54 33q-6 13 -6 27z
M275 233q0 38 34 54q12 6 26 6q38 0 54 -34q6 -14 6 -26q0 -38 -34 -54q-12 -6 -26 -6q-38 0 -54 33q-6 13 -6 27zM489 176q0 38 34 54q12 6 26 6q38 0 54 -34q6 -14 6 -26q0 -38 -34 -54q-12 -6 -26 -6q-38 0 -54 33q-6 13 -6 27zM703 233q0 38 34 54q12 6 26 6
q38 0 54 -34q6 -14 6 -26q0 -38 -34 -54q-12 -6 -26 -6q-38 0 -54 33q-6 13 -6 27zM860 389q0 38 34 54q12 6 26 6q38 0 54 -34q6 -14 6 -26q0 -38 -34 -54q-12 -6 -26 -6q-38 0 -54 33q-6 13 -6 27zM918 602q0 37 33 54q13 6 27 6q38 0 54 -34q6 -12 6 -26q0 -38 -34 -54
q-14 -6 -26 -6q-38 0 -54 34q-6 12 -6 26zM860 815q0 38 34 54q12 6 26 6q38 0 54 -34q6 -12 6 -26q0 -38 -34 -54q-12 -6 -26 -6q-38 0 -54 34q-6 12 -6 26zM703 971q0 38 34 54q12 6 26 6q38 0 54 -34q6 -12 6 -26q0 -38 -34 -54q-12 -6 -26 -6q-38 0 -54 34q-6 12 -6 26z
M489 1028q0 38 34 54q12 6 26 6q38 0 54 -34q6 -12 6 -26q0 -38 -34 -54q-12 -6 -26 -6q-38 0 -54 34q-6 12 -6 26z" />
    <glyph glyph-name="S_CA_DOT" unicode="&#x1039;&#x1005;" horiz-adv-x="1098" 
d="M936 -348q0 -167 -106 -282q-107 -117 -274 -117q-188 0 -299 137q-92 115 -92 244q0 210 182 336q94 60 209 60q149 0 265 -113q115 -112 115 -265zM815 -351q0 106 -75 180q-76 74 -179 74q-57 0 -111 -23q92 -95 92 -224q0 -151 -94 -249q47 -22 106 -22q115 1 189 75
q72 72 72 189zM424 -344q0 63 -75 155q-63 -56 -60 -172q2 -107 60 -155q75 82 75 172zM275 971q0 38 34 54q12 6 26 6q38 0 54 -34q6 -12 6 -26q0 -38 -34 -54q-12 -6 -26 -6q-38 0 -54 34q-6 12 -6 26zM118 815q0 38 34 54q12 6 26 6q38 0 54 -34q6 -12 6 -26
q0 -38 -34 -54q-12 -6 -26 -6q-38 0 -54 34q-6 12 -6 26zM60 602q0 38 34 54q13 6 26 6q38 0 54 -34q6 -12 6 -26q0 -38 -33 -54q-14 -6 -27 -6q-38 0 -54 34q-6 12 -6 26zM118 389q0 38 34 54q12 6 26 6q38 0 54 -34q6 -14 6 -26q0 -38 -34 -54q-12 -6 -26 -6q-38 0 -54 33
q-6 13 -6 27zM275 233q0 38 34 54q12 6 26 6q38 0 54 -34q6 -14 6 -26q0 -38 -34 -54q-12 -6 -26 -6q-38 0 -54 33q-6 13 -6 27zM489 176q0 38 34 54q12 6 26 6q38 0 54 -34q6 -14 6 -26q0 -38 -34 -54q-12 -6 -26 -6q-38 0 -54 33q-6 13 -6 27zM703 233q0 38 34 54
q12 6 26 6q38 0 54 -34q6 -14 6 -26q0 -38 -34 -54q-12 -6 -26 -6q-38 0 -54 33q-6 13 -6 27zM860 389q0 38 34 54q12 6 26 6q38 0 54 -34q6 -14 6 -26q0 -38 -34 -54q-12 -6 -26 -6q-38 0 -54 33q-6 13 -6 27zM918 602q0 37 33 54q13 6 27 6q38 0 54 -34q6 -12 6 -26
q0 -38 -34 -54q-14 -6 -26 -6q-38 0 -54 34q-6 12 -6 26zM860 815q0 38 34 54q12 6 26 6q38 0 54 -34q6 -12 6 -26q0 -38 -34 -54q-12 -6 -26 -6q-38 0 -54 34q-6 12 -6 26zM703 971q0 38 34 54q12 6 26 6q38 0 54 -34q6 -12 6 -26q0 -38 -34 -54q-12 -6 -26 -6
q-38 0 -54 34q-6 12 -6 26zM489 1028q0 38 34 54q12 6 26 6q38 0 54 -34q6 -12 6 -26q0 -38 -34 -54q-12 -6 -26 -6q-38 0 -54 34q-6 12 -6 26z" />
    <glyph glyph-name="S_CHAS_DOT" unicode="&#x1039;&#x1006;" horiz-adv-x="1464" 
d="M1404 -362q0 -162 -120 -274q-121 -113 -282 -113q-153 0 -286 133q-145 -133 -292 -133q-247 0 -364 245q69 106 216 106q194 0 315 -145q91 67 90 196q-3 111 -85 178t-199 67q-96 0 -148 -42q-16 -13 -36.5 -38t-45.5 -63l-107 41q43 105 135 169q94 65 202 65
q191 0 317 -132q81 73 106 84q78 48 180 48q168 0 287 -108q117 -110 117 -284zM1261 -362q0 112 -76 187q-77 75 -185 75q-153 0 -220 -112q33 -71 31 -135q-3 -53 -42 -155q110 -122 231 -119q106 0 184 79q77 79 77 180zM475 -599q-51 61 -145 79q-15 5 -58 5
q-37 0 -55 -9q51 -58 88 -76q35 -19 111 -19zM439 971q0 38 34 54q12 6 26 6q38 0 54 -34q6 -12 6 -26q0 -38 -34 -54q-12 -6 -26 -6q-38 0 -54 34q-6 12 -6 26zM282 815q0 38 34 54q12 6 26 6q38 0 54 -34q6 -12 6 -26q0 -38 -34 -54q-12 -6 -26 -6q-38 0 -54 34
q-6 12 -6 26zM224 602q0 38 34 54q13 6 26 6q38 0 54 -34q6 -12 6 -26q0 -38 -33 -54q-14 -6 -27 -6q-38 0 -54 34q-6 12 -6 26zM282 389q0 38 34 54q12 6 26 6q38 0 54 -34q6 -14 6 -26q0 -38 -34 -54q-12 -6 -26 -6q-38 0 -54 33q-6 13 -6 27zM439 233q0 38 34 54
q12 6 26 6q38 0 54 -34q6 -14 6 -26q0 -38 -34 -54q-12 -6 -26 -6q-38 0 -54 33q-6 13 -6 27zM653 176q0 38 34 54q12 6 26 6q38 0 54 -34q6 -14 6 -26q0 -38 -34 -54q-12 -6 -26 -6q-38 0 -54 33q-6 13 -6 27zM867 233q0 38 34 54q12 6 26 6q38 0 54 -34q6 -14 6 -26
q0 -38 -34 -54q-12 -6 -26 -6q-38 0 -54 33q-6 13 -6 27zM1024 389q0 38 34 54q12 6 26 6q38 0 54 -34q6 -14 6 -26q0 -38 -34 -54q-12 -6 -26 -6q-38 0 -54 33q-6 13 -6 27zM1082 602q0 37 33 54q13 6 27 6q38 0 54 -34q6 -12 6 -26q0 -38 -34 -54q-14 -6 -26 -6
q-38 0 -54 34q-6 12 -6 26zM1024 815q0 38 34 54q12 6 26 6q38 0 54 -34q6 -12 6 -26q0 -38 -34 -54q-12 -6 -26 -6q-38 0 -54 34q-6 12 -6 26zM867 971q0 38 34 54q12 6 26 6q38 0 54 -34q6 -12 6 -26q0 -38 -34 -54q-12 -6 -26 -6q-38 0 -54 34q-6 12 -6 26zM653 1028
q0 38 34 54q12 6 26 6q38 0 54 -34q6 -12 6 -26q0 -38 -34 -54q-12 -6 -26 -6q-38 0 -54 34q-6 12 -6 26z" />
    <glyph glyph-name="S_JA_DOT" unicode="&#x1039;&#x1007;" horiz-adv-x="1098" 
d="M904 -556q-152 21 -166 152q-18 -8 -30 -8q-69 0 -115 46t-46 108q0 117 81 141q-50 24 -101 24q-117 0 -190 -69q-75 -69 -75 -186q0 -124 78 -194q78 -71 205 -78q40 0 115 35l58 -97q-103 -65 -171 -65q-171 0 -289 111q-119 111 -119 275q0 173 109 282
q108 109 274 109q239 0 331 -191q19 -34 19 -72q0 -53 -35 -118q13 -84 134 -131zM759 -258q1 49 -55 49q-53 0 -49 -49q3 -44 56 -44q40 0 48 44zM275 971q0 38 34 54q12 6 26 6q38 0 54 -34q6 -12 6 -26q0 -38 -34 -54q-12 -6 -26 -6q-38 0 -54 34q-6 12 -6 26zM118 815
q0 38 34 54q12 6 26 6q38 0 54 -34q6 -12 6 -26q0 -38 -34 -54q-12 -6 -26 -6q-38 0 -54 34q-6 12 -6 26zM60 602q0 38 34 54q13 6 26 6q38 0 54 -34q6 -12 6 -26q0 -38 -33 -54q-14 -6 -27 -6q-38 0 -54 34q-6 12 -6 26zM118 389q0 38 34 54q12 6 26 6q38 0 54 -34
q6 -14 6 -26q0 -38 -34 -54q-12 -6 -26 -6q-38 0 -54 33q-6 13 -6 27zM275 233q0 38 34 54q12 6 26 6q38 0 54 -34q6 -14 6 -26q0 -38 -34 -54q-12 -6 -26 -6q-38 0 -54 33q-6 13 -6 27zM489 176q0 38 34 54q12 6 26 6q38 0 54 -34q6 -14 6 -26q0 -38 -34 -54q-12 -6 -26 -6
q-38 0 -54 33q-6 13 -6 27zM703 233q0 38 34 54q12 6 26 6q38 0 54 -34q6 -14 6 -26q0 -38 -34 -54q-12 -6 -26 -6q-38 0 -54 33q-6 13 -6 27zM860 389q0 38 34 54q12 6 26 6q38 0 54 -34q6 -14 6 -26q0 -38 -34 -54q-12 -6 -26 -6q-38 0 -54 33q-6 13 -6 27zM918 602
q0 37 33 54q13 6 27 6q38 0 54 -34q6 -12 6 -26q0 -38 -34 -54q-14 -6 -26 -6q-38 0 -54 34q-6 12 -6 26zM860 815q0 38 34 54q12 6 26 6q38 0 54 -34q6 -12 6 -26q0 -38 -34 -54q-12 -6 -26 -6q-38 0 -54 34q-6 12 -6 26zM703 971q0 38 34 54q12 6 26 6q38 0 54 -34
q6 -12 6 -26q0 -38 -34 -54q-12 -6 -26 -6q-38 0 -54 34q-6 12 -6 26zM489 1028q0 38 34 54q12 6 26 6q38 0 54 -34q6 -12 6 -26q0 -38 -34 -54q-12 -6 -26 -6q-38 0 -54 34q-6 12 -6 26z" />
    <glyph glyph-name="S_JHA_DOT" unicode="&#x1039;&#x1008;" horiz-adv-x="1317" 
d="M275 971q0 38 34 54q12 6 26 6q38 0 54 -34q6 -12 6 -26q0 -38 -34 -54q-12 -6 -26 -6q-38 0 -54 34q-6 12 -6 26zM118 815q0 38 34 54q12 6 26 6q38 0 54 -34q6 -12 6 -26q0 -38 -34 -54q-12 -6 -26 -6q-38 0 -54 34q-6 12 -6 26zM60 602q0 38 34 54q13 6 26 6
q38 0 54 -34q6 -12 6 -26q0 -38 -33 -54q-14 -6 -27 -6q-38 0 -54 34q-6 12 -6 26zM118 389q0 38 34 54q12 6 26 6q38 0 54 -34q6 -14 6 -26q0 -38 -34 -54q-12 -6 -26 -6q-38 0 -54 33q-6 13 -6 27zM275 233q0 38 34 54q12 6 26 6q38 0 54 -34q6 -14 6 -26q0 -38 -34 -54
q-12 -6 -26 -6q-38 0 -54 33q-6 13 -6 27zM489 176q0 38 34 54q12 6 26 6q38 0 54 -34q6 -14 6 -26q0 -38 -34 -54q-12 -6 -26 -6q-38 0 -54 33q-6 13 -6 27zM703 233q0 38 34 54q12 6 26 6q38 0 54 -34q6 -14 6 -26q0 -38 -34 -54q-12 -6 -26 -6q-38 0 -54 33q-6 13 -6 27z
M860 389q0 38 34 54q12 6 26 6q38 0 54 -34q6 -14 6 -26q0 -38 -34 -54q-12 -6 -26 -6q-38 0 -54 33q-6 13 -6 27zM918 602q0 37 33 54q13 6 27 6q38 0 54 -34q6 -12 6 -26q0 -38 -34 -54q-14 -6 -26 -6q-38 0 -54 34q-6 12 -6 26zM860 815q0 38 34 54q12 6 26 6
q38 0 54 -34q6 -12 6 -26q0 -38 -34 -54q-12 -6 -26 -6q-38 0 -54 34q-6 12 -6 26zM703 971q0 38 34 54q12 6 26 6q38 0 54 -34q6 -12 6 -26q0 -38 -34 -54q-12 -6 -26 -6q-38 0 -54 34q-6 12 -6 26zM489 1028q0 38 34 54q12 6 26 6q38 0 54 -34q6 -12 6 -26q0 -38 -34 -54
q-12 -6 -26 -6q-38 0 -54 34q-6 12 -6 26zM1256 -641l-93 -63l-280 179q-24 -49 -59 -87.5t-81 -69.5q-92 -61 -199 -61q-170 0 -275 123q-107 120 -104 290q1 141 118 247q118 103 261 103q160 0 270 -115q109 -117 109 -275q0 -5 -1 -10t-3 -11l191 -120v1628h147z
M799 -366q0 109 -74 185q-74 75 -183 75q-29 0 -49.5 -4.5t-37.5 -12.5q67 -94 67 -232q0 -107 -89 -233q27 -23 109 -33q106 0 181 75q76 76 76 180zM410 -344q0 95 -53 169q-70 -60 -73 -162q-3 -132 59 -194q67 101 67 187z" />
    <glyph glyph-name="S_TTA_DOT" unicode="&#x1039;&#x100b;" horiz-adv-x="1098" 
d="M686 -299q-101 -102 -184 -102q-91 0 -155 61q-65 60 -65 153q0 89 61 153t147 64q66 0 102 -14q24 -11 90 -61l-52 -83q-62 45 -65 48q-21 10 -77 10q-24 0 -43 -9t-32.5 -25t-20.5 -36.5t-7 -43.5q0 -24 9 -44.5t25 -35t36.5 -22.5t43.5 -8q54 0 85 19q4 5 16.5 19.5
t34.5 39.5zM828 -687h-210l-2 181q-48 -22 -117 -22q-75 0 -171 46q-40 13 -40 56q0 49 58 49q61 -49 153 -49q98 0 166 54q4 1 8 1.5t9 0.5q32 0 32 -51v-169h114v-97zM275 971q0 38 34 54q12 6 26 6q38 0 54 -34q6 -12 6 -26q0 -38 -34 -54q-12 -6 -26 -6q-38 0 -54 34
q-6 12 -6 26zM118 815q0 38 34 54q12 6 26 6q38 0 54 -34q6 -12 6 -26q0 -38 -34 -54q-12 -6 -26 -6q-38 0 -54 34q-6 12 -6 26zM60 602q0 38 34 54q13 6 26 6q38 0 54 -34q6 -12 6 -26q0 -38 -33 -54q-14 -6 -27 -6q-38 0 -54 34q-6 12 -6 26zM118 389q0 38 34 54
q12 6 26 6q38 0 54 -34q6 -14 6 -26q0 -38 -34 -54q-12 -6 -26 -6q-38 0 -54 33q-6 13 -6 27zM275 233q0 38 34 54q12 6 26 6q38 0 54 -34q6 -14 6 -26q0 -38 -34 -54q-12 -6 -26 -6q-38 0 -54 33q-6 13 -6 27zM489 176q0 38 34 54q12 6 26 6q38 0 54 -34q6 -14 6 -26
q0 -38 -34 -54q-12 -6 -26 -6q-38 0 -54 33q-6 13 -6 27zM703 233q0 38 34 54q12 6 26 6q38 0 54 -34q6 -14 6 -26q0 -38 -34 -54q-12 -6 -26 -6q-38 0 -54 33q-6 13 -6 27zM860 389q0 38 34 54q12 6 26 6q38 0 54 -34q6 -14 6 -26q0 -38 -34 -54q-12 -6 -26 -6
q-38 0 -54 33q-6 13 -6 27zM918 602q0 37 33 54q13 6 27 6q38 0 54 -34q6 -12 6 -26q0 -38 -34 -54q-14 -6 -26 -6q-38 0 -54 34q-6 12 -6 26zM860 815q0 38 34 54q12 6 26 6q38 0 54 -34q6 -12 6 -26q0 -38 -34 -54q-12 -6 -26 -6q-38 0 -54 34q-6 12 -6 26zM703 971
q0 38 34 54q12 6 26 6q38 0 54 -34q6 -12 6 -26q0 -38 -34 -54q-12 -6 -26 -6q-38 0 -54 34q-6 12 -6 26zM489 1028q0 38 34 54q12 6 26 6q38 0 54 -34q6 -12 6 -26q0 -38 -34 -54q-12 -6 -26 -6q-38 0 -54 34q-6 12 -6 26z" />
    <glyph glyph-name="S_TTHA_DOT" unicode="&#x1039;&#x100c;" horiz-adv-x="1622" 
d="M1562 -376q0 -108 -67 -208q-34 -51 -77 -89.5t-95 -64.5l-60 106q70 41 121 114q51 70 48 147q-1 119 -76 197q-75 77 -195 77q-107 0 -185 -84q-78 -86 -78 -192q0 -169 179 -276l-35 -97l-753 -3q-99 0 -161 65q-61 64 -61 164q0 11 -1.5 50.5t-3.5 108.5l-2 165
q0 226 179 226q190 0 190 -179v-105l-104 5l-3 84q-3 78 -73 78q-62 0 -65 -130l-2 -253q0 -86 30 -120t113 -34h539q-96 117 -96 248q0 170 115 286q114 117 283 117q180 0 288 -111q108 -113 108 -292zM531 971q0 38 34 54q12 6 26 6q38 0 54 -34q6 -12 6 -26
q0 -38 -34 -54q-12 -6 -26 -6q-38 0 -54 34q-6 12 -6 26zM374 815q0 38 34 54q12 6 26 6q38 0 54 -34q6 -12 6 -26q0 -38 -34 -54q-12 -6 -26 -6q-38 0 -54 34q-6 12 -6 26zM316 602q0 38 34 54q13 6 26 6q38 0 54 -34q6 -12 6 -26q0 -38 -33 -54q-14 -6 -27 -6
q-38 0 -54 34q-6 12 -6 26zM374 389q0 38 34 54q12 6 26 6q38 0 54 -34q6 -14 6 -26q0 -38 -34 -54q-12 -6 -26 -6q-38 0 -54 33q-6 13 -6 27zM531 233q0 38 34 54q12 6 26 6q38 0 54 -34q6 -14 6 -26q0 -38 -34 -54q-12 -6 -26 -6q-38 0 -54 33q-6 13 -6 27zM745 176
q0 38 34 54q12 6 26 6q38 0 54 -34q6 -14 6 -26q0 -38 -34 -54q-12 -6 -26 -6q-38 0 -54 33q-6 13 -6 27zM959 233q0 38 34 54q12 6 26 6q38 0 54 -34q6 -14 6 -26q0 -38 -34 -54q-12 -6 -26 -6q-38 0 -54 33q-6 13 -6 27zM1116 389q0 38 34 54q12 6 26 6q38 0 54 -34
q6 -14 6 -26q0 -38 -34 -54q-12 -6 -26 -6q-38 0 -54 33q-6 13 -6 27zM1174 602q0 37 33 54q13 6 27 6q38 0 54 -34q6 -12 6 -26q0 -38 -34 -54q-14 -6 -26 -6q-38 0 -54 34q-6 12 -6 26zM1116 815q0 38 34 54q12 6 26 6q38 0 54 -34q6 -12 6 -26q0 -38 -34 -54
q-12 -6 -26 -6q-38 0 -54 34q-6 12 -6 26zM959 971q0 38 34 54q12 6 26 6q38 0 54 -34q6 -12 6 -26q0 -38 -34 -54q-12 -6 -26 -6q-38 0 -54 34q-6 12 -6 26zM745 1028q0 38 34 54q12 6 26 6q38 0 54 -34q6 -12 6 -26q0 -38 -34 -54q-12 -6 -26 -6q-38 0 -54 34q-6 12 -6 26
z" />
    <glyph glyph-name="S_NNAS_DOT" unicode="&#x1039;&#x100f;" horiz-adv-x="1735" 
d="M1675 -366q0 -151 -115 -260q-113 -109 -263 -109v116q102 0 176 75q74 76 74 175q0 115 -73 192q-72 78 -181 78q-124 0 -196 -72q-73 -72 -73 -198q0 -52 26 -116q25 -62 25 -93q0 -161 -202 -160q-206 3 -206 154q0 32 25 101q25 68 25 122q0 106 -72 189
q-72 82 -171 84q-130 3 -206 -69q-77 -72 -77 -202q0 -115 81 -190q80 -76 202 -76l5 -115q-176 0 -298 104q-121 103 -121 275q0 176 117 284q118 107 295 107q113 0 231 -85q25 85 170 85q141 0 166 -85q104 85 262 85q159 0 266 -116q108 -116 108 -280zM956 -113
q0 51 -83 51q-84 0 -82 -51q0 -22 29 -97q28 -72 28 -128q0 -36 -27 -108t-27 -104q0 -50 74 -52q85 -1 85 57q0 35 -25 103q-25 66 -25 104q0 48 27 120q26 73 26 105zM598 971q0 38 34 54q12 6 26 6q38 0 54 -34q6 -12 6 -26q0 -38 -34 -54q-12 -6 -26 -6q-38 0 -54 34
q-6 12 -6 26zM441 815q0 38 34 54q12 6 26 6q38 0 54 -34q6 -12 6 -26q0 -38 -34 -54q-12 -6 -26 -6q-38 0 -54 34q-6 12 -6 26zM383 602q0 38 34 54q13 6 26 6q38 0 54 -34q6 -12 6 -26q0 -38 -33 -54q-14 -6 -27 -6q-38 0 -54 34q-6 12 -6 26zM441 389q0 38 34 54
q12 6 26 6q38 0 54 -34q6 -14 6 -26q0 -38 -34 -54q-12 -6 -26 -6q-38 0 -54 33q-6 13 -6 27zM598 233q0 38 34 54q12 6 26 6q38 0 54 -34q6 -14 6 -26q0 -38 -34 -54q-12 -6 -26 -6q-38 0 -54 33q-6 13 -6 27zM812 176q0 38 34 54q12 6 26 6q38 0 54 -34q6 -14 6 -26
q0 -38 -34 -54q-12 -6 -26 -6q-38 0 -54 33q-6 13 -6 27zM1026 233q0 38 34 54q12 6 26 6q38 0 54 -34q6 -14 6 -26q0 -38 -34 -54q-12 -6 -26 -6q-38 0 -54 33q-6 13 -6 27zM1183 389q0 38 34 54q12 6 26 6q38 0 54 -34q6 -14 6 -26q0 -38 -34 -54q-12 -6 -26 -6
q-38 0 -54 33q-6 13 -6 27zM1241 602q0 37 33 54q13 6 27 6q38 0 54 -34q6 -12 6 -26q0 -38 -34 -54q-14 -6 -26 -6q-38 0 -54 34q-6 12 -6 26zM1183 815q0 38 34 54q12 6 26 6q38 0 54 -34q6 -12 6 -26q0 -38 -34 -54q-12 -6 -26 -6q-38 0 -54 34q-6 12 -6 26zM1026 971
q0 38 34 54q12 6 26 6q38 0 54 -34q6 -12 6 -26q0 -38 -34 -54q-12 -6 -26 -6q-38 0 -54 34q-6 12 -6 26zM812 1028q0 38 34 54q12 6 26 6q38 0 54 -34q6 -12 6 -26q0 -38 -34 -54q-12 -6 -26 -6q-38 0 -54 34q-6 12 -6 26z" />
    <glyph glyph-name="S_TAS_DOT" unicode="&#x1039;&#x1010;" horiz-adv-x="1551" 
d="M1491 -359q0 -156 -114 -271t-272 -115q-79 0 -160 35l41 106q66 -29 122 -29q115 0 195 80q79 79 79 194q0 118 -79 197q-80 80 -195 80q-113 0 -195 -80q-81 -80 -81 -197q0 -156 -112 -271t-271 -115q-160 0 -274 114q-115 114 -115 272q0 161 115 275
q114 114 274 114q216 0 328 -187q115 187 328 187q161 0 274 -114q112 -113 112 -275zM723 -359q0 117 -80 197t-194 80q-116 0 -194 -80t-78 -197q0 -115 78 -194q78 -80 194 -80q114 0 194 80t80 194zM507 971q0 38 34 54q12 6 26 6q38 0 54 -34q6 -12 6 -26
q0 -38 -34 -54q-12 -6 -26 -6q-38 0 -54 34q-6 12 -6 26zM350 815q0 38 34 54q12 6 26 6q38 0 54 -34q6 -12 6 -26q0 -38 -34 -54q-12 -6 -26 -6q-38 0 -54 34q-6 12 -6 26zM292 602q0 38 34 54q13 6 26 6q38 0 54 -34q6 -12 6 -26q0 -38 -33 -54q-14 -6 -27 -6
q-38 0 -54 34q-6 12 -6 26zM350 389q0 38 34 54q12 6 26 6q38 0 54 -34q6 -14 6 -26q0 -38 -34 -54q-12 -6 -26 -6q-38 0 -54 33q-6 13 -6 27zM507 233q0 38 34 54q12 6 26 6q38 0 54 -34q6 -14 6 -26q0 -38 -34 -54q-12 -6 -26 -6q-38 0 -54 33q-6 13 -6 27zM721 176
q0 38 34 54q12 6 26 6q38 0 54 -34q6 -14 6 -26q0 -38 -34 -54q-12 -6 -26 -6q-38 0 -54 33q-6 13 -6 27zM935 233q0 38 34 54q12 6 26 6q38 0 54 -34q6 -14 6 -26q0 -38 -34 -54q-12 -6 -26 -6q-38 0 -54 33q-6 13 -6 27zM1092 389q0 38 34 54q12 6 26 6q38 0 54 -34
q6 -14 6 -26q0 -38 -34 -54q-12 -6 -26 -6q-38 0 -54 33q-6 13 -6 27zM1150 602q0 37 33 54q13 6 27 6q38 0 54 -34q6 -12 6 -26q0 -38 -34 -54q-14 -6 -26 -6q-38 0 -54 34q-6 12 -6 26zM1092 815q0 38 34 54q12 6 26 6q38 0 54 -34q6 -12 6 -26q0 -38 -34 -54
q-12 -6 -26 -6q-38 0 -54 34q-6 12 -6 26zM935 971q0 38 34 54q12 6 26 6q38 0 54 -34q6 -12 6 -26q0 -38 -34 -54q-12 -6 -26 -6q-38 0 -54 34q-6 12 -6 26zM721 1028q0 38 34 54q12 6 26 6q38 0 54 -34q6 -12 6 -26q0 -38 -34 -54q-12 -6 -26 -6q-38 0 -54 34q-6 12 -6 26
z" />
    <glyph glyph-name="S_THAS_DOT" unicode="&#x1039;&#x1011;" horiz-adv-x="1537" 
d="M1477 -353q0 -161 -113 -274t-274 -113q-210 0 -324 178q-112 -178 -325 -178q-161 0 -270 112q-111 111 -111 275q0 158 112 270q113 113 269 113q216 0 325 -181q114 181 324 181q163 0 275 -112t112 -271zM1360 -353q0 108 -77 187q-79 77 -188 77q-112 0 -189 -77
q-78 -78 -78 -187q0 -114 78 -190q76 -78 189 -78q110 0 188 78q77 77 77 190zM711 -353q0 108 -77 187q-79 77 -191 77q-109 0 -186 -77q-78 -78 -78 -187q0 -114 78 -190q76 -78 186 -78q113 0 191 78q77 77 77 190zM492 971q0 38 34 54q12 6 26 6q38 0 54 -34
q6 -12 6 -26q0 -38 -34 -54q-12 -6 -26 -6q-38 0 -54 34q-6 12 -6 26zM335 815q0 38 34 54q12 6 26 6q38 0 54 -34q6 -12 6 -26q0 -38 -34 -54q-12 -6 -26 -6q-38 0 -54 34q-6 12 -6 26zM277 602q0 38 34 54q13 6 26 6q38 0 54 -34q6 -12 6 -26q0 -38 -33 -54q-14 -6 -27 -6
q-38 0 -54 34q-6 12 -6 26zM335 389q0 38 34 54q12 6 26 6q38 0 54 -34q6 -14 6 -26q0 -38 -34 -54q-12 -6 -26 -6q-38 0 -54 33q-6 13 -6 27zM492 233q0 38 34 54q12 6 26 6q38 0 54 -34q6 -14 6 -26q0 -38 -34 -54q-12 -6 -26 -6q-38 0 -54 33q-6 13 -6 27zM706 176
q0 38 34 54q12 6 26 6q38 0 54 -34q6 -14 6 -26q0 -38 -34 -54q-12 -6 -26 -6q-38 0 -54 33q-6 13 -6 27zM920 233q0 38 34 54q12 6 26 6q38 0 54 -34q6 -14 6 -26q0 -38 -34 -54q-12 -6 -26 -6q-38 0 -54 33q-6 13 -6 27zM1077 389q0 38 34 54q12 6 26 6q38 0 54 -34
q6 -14 6 -26q0 -38 -34 -54q-12 -6 -26 -6q-38 0 -54 33q-6 13 -6 27zM1135 602q0 37 33 54q13 6 27 6q38 0 54 -34q6 -12 6 -26q0 -38 -34 -54q-14 -6 -26 -6q-38 0 -54 34q-6 12 -6 26zM1077 815q0 38 34 54q12 6 26 6q38 0 54 -34q6 -12 6 -26q0 -38 -34 -54
q-12 -6 -26 -6q-38 0 -54 34q-6 12 -6 26zM920 971q0 38 34 54q12 6 26 6q38 0 54 -34q6 -12 6 -26q0 -38 -34 -54q-12 -6 -26 -6q-38 0 -54 34q-6 12 -6 26zM706 1028q0 38 34 54q12 6 26 6q38 0 54 -34q6 -12 6 -26q0 -38 -34 -54q-12 -6 -26 -6q-38 0 -54 34q-6 12 -6 26
z" />
    <glyph glyph-name="S_DA_DOT" unicode="&#x1039;&#x1012;" horiz-adv-x="1098" 
d="M906 -477q0 -51 -70 -121q-57 -63 -114 -94q-90 -51 -181 -51q-236 0 -343 224l113 39q80 -137 228 -137q120 0 201 84q30 13 30 34q0 9 -33 32q-17 11 -29 19.5t-20 13.5t-23 13.5t-38 21.5q-33 16 -33 50q0 50 92 82q34 24 75 66q-13 42 -97 79q-71 34 -123 36
q-108 3 -191 -89q-25 -25 -25 -36q0 -16 71 -66l-58 -79q-135 84 -135 145q0 46 43 102q142 139 295 139q179 0 292 -137q54 -66 54 -97q0 -32 -39 -63q-48 -36 -58 -49t-10 -30q0 -9 8 -17q11 -14 74 -57q44 -26 44 -57zM275 971q0 38 34 54q12 6 26 6q38 0 54 -34
q6 -12 6 -26q0 -38 -34 -54q-12 -6 -26 -6q-38 0 -54 34q-6 12 -6 26zM118 815q0 38 34 54q12 6 26 6q38 0 54 -34q6 -12 6 -26q0 -38 -34 -54q-12 -6 -26 -6q-38 0 -54 34q-6 12 -6 26zM60 602q0 38 34 54q13 6 26 6q38 0 54 -34q6 -12 6 -26q0 -38 -33 -54q-14 -6 -27 -6
q-38 0 -54 34q-6 12 -6 26zM118 389q0 38 34 54q12 6 26 6q38 0 54 -34q6 -14 6 -26q0 -38 -34 -54q-12 -6 -26 -6q-38 0 -54 33q-6 13 -6 27zM275 233q0 38 34 54q12 6 26 6q38 0 54 -34q6 -14 6 -26q0 -38 -34 -54q-12 -6 -26 -6q-38 0 -54 33q-6 13 -6 27zM489 176
q0 38 34 54q12 6 26 6q38 0 54 -34q6 -14 6 -26q0 -38 -34 -54q-12 -6 -26 -6q-38 0 -54 33q-6 13 -6 27zM703 233q0 38 34 54q12 6 26 6q38 0 54 -34q6 -14 6 -26q0 -38 -34 -54q-12 -6 -26 -6q-38 0 -54 33q-6 13 -6 27zM860 389q0 38 34 54q12 6 26 6q38 0 54 -34
q6 -14 6 -26q0 -38 -34 -54q-12 -6 -26 -6q-38 0 -54 33q-6 13 -6 27zM918 602q0 37 33 54q13 6 27 6q38 0 54 -34q6 -12 6 -26q0 -38 -34 -54q-14 -6 -26 -6q-38 0 -54 34q-6 12 -6 26zM860 815q0 38 34 54q12 6 26 6q38 0 54 -34q6 -12 6 -26q0 -38 -34 -54q-12 -6 -26 -6
q-38 0 -54 34q-6 12 -6 26zM703 971q0 38 34 54q12 6 26 6q38 0 54 -34q6 -12 6 -26q0 -38 -34 -54q-12 -6 -26 -6q-38 0 -54 34q-6 12 -6 26zM489 1028q0 38 34 54q12 6 26 6q38 0 54 -34q6 -12 6 -26q0 -38 -34 -54q-12 -6 -26 -6q-38 0 -54 34q-6 12 -6 26z" />
    <glyph glyph-name="S_DHA_DOT" unicode="&#x1039;&#x1013;" horiz-adv-x="1098" 
d="M939 -352q4 -167 -112 -283q-117 -117 -286 -117q-191 0 -320 182q-64 91 -64 218q0 154 116 268q115 114 268 114q167 0 280 -107q114 -109 118 -275zM811 -349q0 106 -80 180q-79 73 -190 73q-104 0 -183 -74q-78 -74 -78 -179q0 -51 21 -100q106 96 238 97
q139 3 257 -94q15 34 15 97zM729 -550q-101 72 -190 72q-92 0 -164 -81q67 -67 166 -67q134 0 188 76zM275 971q0 38 34 54q12 6 26 6q38 0 54 -34q6 -12 6 -26q0 -38 -34 -54q-12 -6 -26 -6q-38 0 -54 34q-6 12 -6 26zM118 815q0 38 34 54q12 6 26 6q38 0 54 -34
q6 -12 6 -26q0 -38 -34 -54q-12 -6 -26 -6q-38 0 -54 34q-6 12 -6 26zM60 602q0 38 34 54q13 6 26 6q38 0 54 -34q6 -12 6 -26q0 -38 -33 -54q-14 -6 -27 -6q-38 0 -54 34q-6 12 -6 26zM118 389q0 38 34 54q12 6 26 6q38 0 54 -34q6 -14 6 -26q0 -38 -34 -54q-12 -6 -26 -6
q-38 0 -54 33q-6 13 -6 27zM275 233q0 38 34 54q12 6 26 6q38 0 54 -34q6 -14 6 -26q0 -38 -34 -54q-12 -6 -26 -6q-38 0 -54 33q-6 13 -6 27zM489 176q0 38 34 54q12 6 26 6q38 0 54 -34q6 -14 6 -26q0 -38 -34 -54q-12 -6 -26 -6q-38 0 -54 33q-6 13 -6 27zM703 233
q0 38 34 54q12 6 26 6q38 0 54 -34q6 -14 6 -26q0 -38 -34 -54q-12 -6 -26 -6q-38 0 -54 33q-6 13 -6 27zM860 389q0 38 34 54q12 6 26 6q38 0 54 -34q6 -14 6 -26q0 -38 -34 -54q-12 -6 -26 -6q-38 0 -54 33q-6 13 -6 27zM918 602q0 37 33 54q13 6 27 6q38 0 54 -34
q6 -12 6 -26q0 -38 -34 -54q-14 -6 -26 -6q-38 0 -54 34q-6 12 -6 26zM860 815q0 38 34 54q12 6 26 6q38 0 54 -34q6 -12 6 -26q0 -38 -34 -54q-12 -6 -26 -6q-38 0 -54 34q-6 12 -6 26zM703 971q0 38 34 54q12 6 26 6q38 0 54 -34q6 -12 6 -26q0 -38 -34 -54q-12 -6 -26 -6
q-38 0 -54 34q-6 12 -6 26zM489 1028q0 38 34 54q12 6 26 6q38 0 54 -34q6 -12 6 -26q0 -38 -34 -54q-12 -6 -26 -6q-38 0 -54 34q-6 12 -6 26z" />
    <glyph glyph-name="S_NA1_DOT" unicode="&#x1039;&#x1014;" horiz-adv-x="1098" 
d="M883 -427q0 -117 -123 -187q62 -62 62 -85l-95 -43q-18 28 -36.5 50.5t-37.5 40.5q-30 -11 -40 -11h-64q-99 0 -204 52q-125 63 -125 155q0 47 35 100q33 37 92 37q32 0 107 -21q143 -40 246 -178q76 22 76 92q-14 85 -126 119q-59 10 -177 33q-100 24 -116 121
q-10 19 -10 43q0 73 77 111q57 28 142 28q107 0 192 -61l-62 -88q-53 33 -130 33q-66 0 -97 -14q-15 -5 -15 -40q10 -32 78 -36q102 -8 159 -30q175 -73 192 -221zM584 -543q-54 65 -142 102q-5 2 -22 7t-46 12q-50 0 -50 -35q0 -53 197 -88q23 0 39 0.5t24 1.5zM275 971
q0 38 34 54q12 6 26 6q38 0 54 -34q6 -12 6 -26q0 -38 -34 -54q-12 -6 -26 -6q-38 0 -54 34q-6 12 -6 26zM118 815q0 38 34 54q12 6 26 6q38 0 54 -34q6 -12 6 -26q0 -38 -34 -54q-12 -6 -26 -6q-38 0 -54 34q-6 12 -6 26zM60 602q0 38 34 54q13 6 26 6q38 0 54 -34
q6 -12 6 -26q0 -38 -33 -54q-14 -6 -27 -6q-38 0 -54 34q-6 12 -6 26zM118 389q0 38 34 54q12 6 26 6q38 0 54 -34q6 -14 6 -26q0 -38 -34 -54q-12 -6 -26 -6q-38 0 -54 33q-6 13 -6 27zM275 233q0 38 34 54q12 6 26 6q38 0 54 -34q6 -14 6 -26q0 -38 -34 -54q-12 -6 -26 -6
q-38 0 -54 33q-6 13 -6 27zM489 176q0 38 34 54q12 6 26 6q38 0 54 -34q6 -14 6 -26q0 -38 -34 -54q-12 -6 -26 -6q-38 0 -54 33q-6 13 -6 27zM703 233q0 38 34 54q12 6 26 6q38 0 54 -34q6 -14 6 -26q0 -38 -34 -54q-12 -6 -26 -6q-38 0 -54 33q-6 13 -6 27zM860 389
q0 38 34 54q12 6 26 6q38 0 54 -34q6 -14 6 -26q0 -38 -34 -54q-12 -6 -26 -6q-38 0 -54 33q-6 13 -6 27zM918 602q0 37 33 54q13 6 27 6q38 0 54 -34q6 -12 6 -26q0 -38 -34 -54q-14 -6 -26 -6q-38 0 -54 34q-6 12 -6 26zM860 815q0 38 34 54q12 6 26 6q38 0 54 -34
q6 -12 6 -26q0 -38 -34 -54q-12 -6 -26 -6q-38 0 -54 34q-6 12 -6 26zM703 971q0 38 34 54q12 6 26 6q38 0 54 -34q6 -12 6 -26q0 -38 -34 -54q-12 -6 -26 -6q-38 0 -54 34q-6 12 -6 26zM489 1028q0 38 34 54q12 6 26 6q38 0 54 -34q6 -12 6 -26q0 -38 -34 -54
q-12 -6 -26 -6q-38 0 -54 34q-6 12 -6 26z" />
    <glyph glyph-name="S_PA_DOT" unicode="&#x1039;&#x1015;" horiz-adv-x="1098" 
d="M948 -367q0 -146 -125 -262q-126 -117 -270 -117q-171 0 -286 109q-115 108 -115 276q0 280 260 388l44 -112q-178 -90 -178 -279q0 -103 85 -176q85 -75 190 -75q100 0 180 77t80 179q0 181 -163 274l45 115q253 -97 253 -397zM275 971q0 38 34 54q12 6 26 6
q38 0 54 -34q6 -12 6 -26q0 -38 -34 -54q-12 -6 -26 -6q-38 0 -54 34q-6 12 -6 26zM118 815q0 38 34 54q12 6 26 6q38 0 54 -34q6 -12 6 -26q0 -38 -34 -54q-12 -6 -26 -6q-38 0 -54 34q-6 12 -6 26zM60 602q0 38 34 54q13 6 26 6q38 0 54 -34q6 -12 6 -26q0 -38 -33 -54
q-14 -6 -27 -6q-38 0 -54 34q-6 12 -6 26zM118 389q0 38 34 54q12 6 26 6q38 0 54 -34q6 -14 6 -26q0 -38 -34 -54q-12 -6 -26 -6q-38 0 -54 33q-6 13 -6 27zM275 233q0 38 34 54q12 6 26 6q38 0 54 -34q6 -14 6 -26q0 -38 -34 -54q-12 -6 -26 -6q-38 0 -54 33q-6 13 -6 27z
M489 176q0 38 34 54q12 6 26 6q38 0 54 -34q6 -14 6 -26q0 -38 -34 -54q-12 -6 -26 -6q-38 0 -54 33q-6 13 -6 27zM703 233q0 38 34 54q12 6 26 6q38 0 54 -34q6 -14 6 -26q0 -38 -34 -54q-12 -6 -26 -6q-38 0 -54 33q-6 13 -6 27zM860 389q0 38 34 54q12 6 26 6
q38 0 54 -34q6 -14 6 -26q0 -38 -34 -54q-12 -6 -26 -6q-38 0 -54 33q-6 13 -6 27zM918 602q0 37 33 54q13 6 27 6q38 0 54 -34q6 -12 6 -26q0 -38 -34 -54q-14 -6 -26 -6q-38 0 -54 34q-6 12 -6 26zM860 815q0 38 34 54q12 6 26 6q38 0 54 -34q6 -12 6 -26q0 -38 -34 -54
q-12 -6 -26 -6q-38 0 -54 34q-6 12 -6 26zM703 971q0 38 34 54q12 6 26 6q38 0 54 -34q6 -12 6 -26q0 -38 -34 -54q-12 -6 -26 -6q-38 0 -54 34q-6 12 -6 26zM489 1028q0 38 34 54q12 6 26 6q38 0 54 -34q6 -12 6 -26q0 -38 -34 -54q-12 -6 -26 -6q-38 0 -54 34q-6 12 -6 26
z" />
    <glyph glyph-name="S_PHA_DOT" unicode="&#x1039;&#x1016;" horiz-adv-x="1098" 
d="M937 -366q0 -163 -118 -269q-119 -108 -280 -108q-147 0 -261 116q-114 115 -114 261q0 275 223 396l40 -127q-141 -89 -141 -261q0 -105 76 -181q75 -77 179 -77q140 0 199 96q-167 70 -178 294q-4 139 127 256q248 -117 248 -396zM815 -355q0 157 -109 236
q-19 -51 -19 -104q0 -140 109 -206q19 38 19 74zM275 971q0 38 34 54q12 6 26 6q38 0 54 -34q6 -12 6 -26q0 -38 -34 -54q-12 -6 -26 -6q-38 0 -54 34q-6 12 -6 26zM118 815q0 38 34 54q12 6 26 6q38 0 54 -34q6 -12 6 -26q0 -38 -34 -54q-12 -6 -26 -6q-38 0 -54 34
q-6 12 -6 26zM60 602q0 38 34 54q13 6 26 6q38 0 54 -34q6 -12 6 -26q0 -38 -33 -54q-14 -6 -27 -6q-38 0 -54 34q-6 12 -6 26zM118 389q0 38 34 54q12 6 26 6q38 0 54 -34q6 -14 6 -26q0 -38 -34 -54q-12 -6 -26 -6q-38 0 -54 33q-6 13 -6 27zM275 233q0 38 34 54
q12 6 26 6q38 0 54 -34q6 -14 6 -26q0 -38 -34 -54q-12 -6 -26 -6q-38 0 -54 33q-6 13 -6 27zM489 176q0 38 34 54q12 6 26 6q38 0 54 -34q6 -14 6 -26q0 -38 -34 -54q-12 -6 -26 -6q-38 0 -54 33q-6 13 -6 27zM703 233q0 38 34 54q12 6 26 6q38 0 54 -34q6 -14 6 -26
q0 -38 -34 -54q-12 -6 -26 -6q-38 0 -54 33q-6 13 -6 27zM860 389q0 38 34 54q12 6 26 6q38 0 54 -34q6 -14 6 -26q0 -38 -34 -54q-12 -6 -26 -6q-38 0 -54 33q-6 13 -6 27zM918 602q0 37 33 54q13 6 27 6q38 0 54 -34q6 -12 6 -26q0 -38 -34 -54q-14 -6 -26 -6
q-38 0 -54 34q-6 12 -6 26zM860 815q0 38 34 54q12 6 26 6q38 0 54 -34q6 -12 6 -26q0 -38 -34 -54q-12 -6 -26 -6q-38 0 -54 34q-6 12 -6 26zM703 971q0 38 34 54q12 6 26 6q38 0 54 -34q6 -12 6 -26q0 -38 -34 -54q-12 -6 -26 -6q-38 0 -54 34q-6 12 -6 26zM489 1028
q0 38 34 54q12 6 26 6q38 0 54 -34q6 -12 6 -26q0 -38 -34 -54q-12 -6 -26 -6q-38 0 -54 34q-6 12 -6 26z" />
    <glyph glyph-name="S_BA_DOT" unicode="&#x1039;&#x1017;" horiz-adv-x="1098" 
d="M933 -358q0 -128 -93 -245q-109 -139 -284 -137q-171 3 -279 118q-109 113 -109 285q0 100 54 210q54 109 133 157q104 -113 196 -113q58 0 108 45q7 4 60 68q91 -59 153 -168q61 -110 61 -220zM811 -360q-3 130 -89 219q-80 -63 -171 -63q-87 0 -178 68
q-81 -80 -81 -203q0 -125 70 -202q69 -78 191 -78q108 0 183 76q75 75 75 183zM275 971q0 38 34 54q12 6 26 6q38 0 54 -34q6 -12 6 -26q0 -38 -34 -54q-12 -6 -26 -6q-38 0 -54 34q-6 12 -6 26zM118 815q0 38 34 54q12 6 26 6q38 0 54 -34q6 -12 6 -26q0 -38 -34 -54
q-12 -6 -26 -6q-38 0 -54 34q-6 12 -6 26zM60 602q0 38 34 54q13 6 26 6q38 0 54 -34q6 -12 6 -26q0 -38 -33 -54q-14 -6 -27 -6q-38 0 -54 34q-6 12 -6 26zM118 389q0 38 34 54q12 6 26 6q38 0 54 -34q6 -14 6 -26q0 -38 -34 -54q-12 -6 -26 -6q-38 0 -54 33q-6 13 -6 27z
M275 233q0 38 34 54q12 6 26 6q38 0 54 -34q6 -14 6 -26q0 -38 -34 -54q-12 -6 -26 -6q-38 0 -54 33q-6 13 -6 27zM489 176q0 38 34 54q12 6 26 6q38 0 54 -34q6 -14 6 -26q0 -38 -34 -54q-12 -6 -26 -6q-38 0 -54 33q-6 13 -6 27zM703 233q0 38 34 54q12 6 26 6
q38 0 54 -34q6 -14 6 -26q0 -38 -34 -54q-12 -6 -26 -6q-38 0 -54 33q-6 13 -6 27zM860 389q0 38 34 54q12 6 26 6q38 0 54 -34q6 -14 6 -26q0 -38 -34 -54q-12 -6 -26 -6q-38 0 -54 33q-6 13 -6 27zM918 602q0 37 33 54q13 6 27 6q38 0 54 -34q6 -12 6 -26q0 -38 -34 -54
q-14 -6 -26 -6q-38 0 -54 34q-6 12 -6 26zM860 815q0 38 34 54q12 6 26 6q38 0 54 -34q6 -12 6 -26q0 -38 -34 -54q-12 -6 -26 -6q-38 0 -54 34q-6 12 -6 26zM703 971q0 38 34 54q12 6 26 6q38 0 54 -34q6 -12 6 -26q0 -38 -34 -54q-12 -6 -26 -6q-38 0 -54 34q-6 12 -6 26z
M489 1028q0 38 34 54q12 6 26 6q38 0 54 -34q6 -12 6 -26q0 -38 -34 -54q-12 -6 -26 -6q-38 0 -54 34q-6 12 -6 26z" />
    <glyph glyph-name="S_BHAS_DOT" unicode="&#x1039;&#x1018;" horiz-adv-x="1523" 
d="M1463 -356q0 -159 -113 -272q-115 -113 -273 -113q-94 0 -186 47l48 104q70 -39 141 -39q112 0 193 81q81 79 81 192q0 112 -81 193t-193 81q-115 0 -194 -79q-80 -80 -80 -195q0 -160 -112 -272q-113 -113 -271 -113q-225 0 -340 201l94 65q84 -154 246 -154
q115 0 195 80q79 79 79 193q0 116 -79 195t-195 79q-183 0 -256 -180l-107 39q105 253 363 253q213 0 326 -185q114 185 328 185q162 0 274 -112t112 -274zM480 971q0 38 34 54q12 6 26 6q38 0 54 -34q6 -12 6 -26q0 -38 -34 -54q-12 -6 -26 -6q-38 0 -54 34q-6 12 -6 26z
M323 815q0 38 34 54q12 6 26 6q38 0 54 -34q6 -12 6 -26q0 -38 -34 -54q-12 -6 -26 -6q-38 0 -54 34q-6 12 -6 26zM265 602q0 38 34 54q13 6 26 6q38 0 54 -34q6 -12 6 -26q0 -38 -33 -54q-14 -6 -27 -6q-38 0 -54 34q-6 12 -6 26zM323 389q0 38 34 54q12 6 26 6
q38 0 54 -34q6 -14 6 -26q0 -38 -34 -54q-12 -6 -26 -6q-38 0 -54 33q-6 13 -6 27zM480 233q0 38 34 54q12 6 26 6q38 0 54 -34q6 -14 6 -26q0 -38 -34 -54q-12 -6 -26 -6q-38 0 -54 33q-6 13 -6 27zM694 176q0 38 34 54q12 6 26 6q38 0 54 -34q6 -14 6 -26q0 -38 -34 -54
q-12 -6 -26 -6q-38 0 -54 33q-6 13 -6 27zM908 233q0 38 34 54q12 6 26 6q38 0 54 -34q6 -14 6 -26q0 -38 -34 -54q-12 -6 -26 -6q-38 0 -54 33q-6 13 -6 27zM1065 389q0 38 34 54q12 6 26 6q38 0 54 -34q6 -14 6 -26q0 -38 -34 -54q-12 -6 -26 -6q-38 0 -54 33q-6 13 -6 27
zM1123 602q0 37 33 54q13 6 27 6q38 0 54 -34q6 -12 6 -26q0 -38 -34 -54q-14 -6 -26 -6q-38 0 -54 34q-6 12 -6 26zM1065 815q0 38 34 54q12 6 26 6q38 0 54 -34q6 -12 6 -26q0 -38 -34 -54q-12 -6 -26 -6q-38 0 -54 34q-6 12 -6 26zM908 971q0 38 34 54q12 6 26 6
q38 0 54 -34q6 -12 6 -26q0 -38 -34 -54q-12 -6 -26 -6q-38 0 -54 34q-6 12 -6 26zM694 1028q0 38 34 54q12 6 26 6q38 0 54 -34q6 -12 6 -26q0 -38 -34 -54q-12 -6 -26 -6q-38 0 -54 34q-6 12 -6 26z" />
    <glyph glyph-name="S_MA_DOT" unicode="&#x1039;&#x1019;" horiz-adv-x="1098" 
d="M964 -347q0 -166 -122 -279q-124 -113 -292 -113q-167 0 -289 113t-122 277q0 132 79 232q81 102 203 145l50 -111q-209 -68 -209 -264q0 -85 55 -156q73 132 253 132q154 0 230 -115q43 64 43 139q0 196 -209 264l41 113q127 -43 208 -144t81 -233zM719 -571
q-47 89 -149 89q-124 0 -163 -98q67 -41 147 -41q89 0 165 50zM275 971q0 38 34 54q12 6 26 6q38 0 54 -34q6 -12 6 -26q0 -38 -34 -54q-12 -6 -26 -6q-38 0 -54 34q-6 12 -6 26zM118 815q0 38 34 54q12 6 26 6q38 0 54 -34q6 -12 6 -26q0 -38 -34 -54q-12 -6 -26 -6
q-38 0 -54 34q-6 12 -6 26zM60 602q0 38 34 54q13 6 26 6q38 0 54 -34q6 -12 6 -26q0 -38 -33 -54q-14 -6 -27 -6q-38 0 -54 34q-6 12 -6 26zM118 389q0 38 34 54q12 6 26 6q38 0 54 -34q6 -14 6 -26q0 -38 -34 -54q-12 -6 -26 -6q-38 0 -54 33q-6 13 -6 27zM275 233
q0 38 34 54q12 6 26 6q38 0 54 -34q6 -14 6 -26q0 -38 -34 -54q-12 -6 -26 -6q-38 0 -54 33q-6 13 -6 27zM489 176q0 38 34 54q12 6 26 6q38 0 54 -34q6 -14 6 -26q0 -38 -34 -54q-12 -6 -26 -6q-38 0 -54 33q-6 13 -6 27zM703 233q0 38 34 54q12 6 26 6q38 0 54 -34
q6 -14 6 -26q0 -38 -34 -54q-12 -6 -26 -6q-38 0 -54 33q-6 13 -6 27zM860 389q0 38 34 54q12 6 26 6q38 0 54 -34q6 -14 6 -26q0 -38 -34 -54q-12 -6 -26 -6q-38 0 -54 33q-6 13 -6 27zM918 602q0 37 33 54q13 6 27 6q38 0 54 -34q6 -12 6 -26q0 -38 -34 -54q-14 -6 -26 -6
q-38 0 -54 34q-6 12 -6 26zM860 815q0 38 34 54q12 6 26 6q38 0 54 -34q6 -12 6 -26q0 -38 -34 -54q-12 -6 -26 -6q-38 0 -54 34q-6 12 -6 26zM703 971q0 38 34 54q12 6 26 6q38 0 54 -34q6 -12 6 -26q0 -38 -34 -54q-12 -6 -26 -6q-38 0 -54 34q-6 12 -6 26zM489 1028
q0 38 34 54q12 6 26 6q38 0 54 -34q6 -12 6 -26q0 -38 -34 -54q-12 -6 -26 -6q-38 0 -54 34q-6 12 -6 26z" />
    <glyph glyph-name="S_LAS_DOT" unicode="&#x1039;&#x101c;" horiz-adv-x="1492" 
d="M1432 -368q0 -158 -109 -267q-110 -110 -268 -110q-166 0 -270 104q-103 103 -103 268q0 120 -62 197q-61 76 -180 76q-114 0 -183 -70q-69 -71 -69 -185q0 -263 263 -263q28 0 104 22q0 -20 9 -60q9 -42 9 -61q-74 -28 -119 -28q-169 0 -281 111q-113 110 -113 282
q0 151 116 267q115 115 264 115q222 0 300 -169q13 -51 32.5 -128t47.5 -182q52 -169 232 -169q102 0 175 73q72 73 72 177q0 96 -69 182q-69 85 -165 86q-47 3 -57 0q-5 -1 -9.5 -1.5t-8.5 -0.5l-17 112q0 15 92 15q155 0 261 -118t106 -275zM499 971q0 38 34 54q12 6 26 6
q38 0 54 -34q6 -12 6 -26q0 -38 -34 -54q-12 -6 -26 -6q-38 0 -54 34q-6 12 -6 26zM342 815q0 38 34 54q12 6 26 6q38 0 54 -34q6 -12 6 -26q0 -38 -34 -54q-12 -6 -26 -6q-38 0 -54 34q-6 12 -6 26zM284 602q0 38 34 54q13 6 26 6q38 0 54 -34q6 -12 6 -26q0 -38 -33 -54
q-14 -6 -27 -6q-38 0 -54 34q-6 12 -6 26zM342 389q0 38 34 54q12 6 26 6q38 0 54 -34q6 -14 6 -26q0 -38 -34 -54q-12 -6 -26 -6q-38 0 -54 33q-6 13 -6 27zM499 233q0 38 34 54q12 6 26 6q38 0 54 -34q6 -14 6 -26q0 -38 -34 -54q-12 -6 -26 -6q-38 0 -54 33q-6 13 -6 27z
M713 176q0 38 34 54q12 6 26 6q38 0 54 -34q6 -14 6 -26q0 -38 -34 -54q-12 -6 -26 -6q-38 0 -54 33q-6 13 -6 27zM927 233q0 38 34 54q12 6 26 6q38 0 54 -34q6 -14 6 -26q0 -38 -34 -54q-12 -6 -26 -6q-38 0 -54 33q-6 13 -6 27zM1084 389q0 38 34 54q12 6 26 6
q38 0 54 -34q6 -14 6 -26q0 -38 -34 -54q-12 -6 -26 -6q-38 0 -54 33q-6 13 -6 27zM1142 602q0 37 33 54q13 6 27 6q38 0 54 -34q6 -12 6 -26q0 -38 -34 -54q-14 -6 -26 -6q-38 0 -54 34q-6 12 -6 26zM1084 815q0 38 34 54q12 6 26 6q38 0 54 -34q6 -12 6 -26q0 -38 -34 -54
q-12 -6 -26 -6q-38 0 -54 34q-6 12 -6 26zM927 971q0 38 34 54q12 6 26 6q38 0 54 -34q6 -12 6 -26q0 -38 -34 -54q-12 -6 -26 -6q-38 0 -54 34q-6 12 -6 26zM713 1028q0 38 34 54q12 6 26 6q38 0 54 -34q6 -12 6 -26q0 -38 -34 -54q-12 -6 -26 -6q-38 0 -54 34q-6 12 -6 26
z" />
    <glyph glyph-name="S_SAS_DOT" unicode="&#x1039;&#x101e;" horiz-adv-x="1592" 
d="M1532 -372q0 -164 -116 -283q-115 -118 -283 -118q-237 0 -351 209q-27 -48 -64 -86.5t-82 -66t-97 -42t-109 -14.5q-111 0 -205 58t-148 151l91 47q82 -157 264 -157q126 0 215 87q88 87 88 215q0 132 -88 217q-89 86 -215 86q-93 0 -168 -51q-76 -53 -113 -135l-91 36
q46 114 148 182q100 67 222 67q172 0 287 -115t115 -287q0 -128 89 -215q88 -87 212 -87q127 0 216 87t89 215q0 126 -90 215q-89 88 -215 88q-58 0 -106 -19l-33 92q73 26 139 26q168 0 283 -115q116 -116 116 -287zM526 971q0 38 34 54q12 6 26 6q38 0 54 -34q6 -12 6 -26
q0 -38 -34 -54q-12 -6 -26 -6q-38 0 -54 34q-6 12 -6 26zM369 815q0 38 34 54q12 6 26 6q38 0 54 -34q6 -12 6 -26q0 -38 -34 -54q-12 -6 -26 -6q-38 0 -54 34q-6 12 -6 26zM311 602q0 38 34 54q13 6 26 6q38 0 54 -34q6 -12 6 -26q0 -38 -33 -54q-14 -6 -27 -6
q-38 0 -54 34q-6 12 -6 26zM369 389q0 38 34 54q12 6 26 6q38 0 54 -34q6 -14 6 -26q0 -38 -34 -54q-12 -6 -26 -6q-38 0 -54 33q-6 13 -6 27zM526 233q0 38 34 54q12 6 26 6q38 0 54 -34q6 -14 6 -26q0 -38 -34 -54q-12 -6 -26 -6q-38 0 -54 33q-6 13 -6 27zM740 176
q0 38 34 54q12 6 26 6q38 0 54 -34q6 -14 6 -26q0 -38 -34 -54q-12 -6 -26 -6q-38 0 -54 33q-6 13 -6 27zM954 233q0 38 34 54q12 6 26 6q38 0 54 -34q6 -14 6 -26q0 -38 -34 -54q-12 -6 -26 -6q-38 0 -54 33q-6 13 -6 27zM1111 389q0 38 34 54q12 6 26 6q38 0 54 -34
q6 -14 6 -26q0 -38 -34 -54q-12 -6 -26 -6q-38 0 -54 33q-6 13 -6 27zM1169 602q0 37 33 54q13 6 27 6q38 0 54 -34q6 -12 6 -26q0 -38 -34 -54q-14 -6 -26 -6q-38 0 -54 34q-6 12 -6 26zM1111 815q0 38 34 54q12 6 26 6q38 0 54 -34q6 -12 6 -26q0 -38 -34 -54
q-12 -6 -26 -6q-38 0 -54 34q-6 12 -6 26zM954 971q0 38 34 54q12 6 26 6q38 0 54 -34q6 -12 6 -26q0 -38 -34 -54q-12 -6 -26 -6q-38 0 -54 34q-6 12 -6 26zM740 1028q0 38 34 54q12 6 26 6q38 0 54 -34q6 -12 6 -26q0 -38 -34 -54q-12 -6 -26 -6q-38 0 -54 34q-6 12 -6 26
z" />
    <glyph glyph-name="S_AS_DOT" unicode="&#x1039;&#x1021;" horiz-adv-x="1585" 
d="M1525 -357q0 -83 -30.5 -152.5t-93.5 -126.5q-60 -54 -133 -82t-161 -28q-19 0 -38.5 6.5t-36 17t-28.5 24t-16 27.5q54 168 147 248q96 81 292 92q-15 110 -106 187q-88 74 -212 74q-165 0 -257 -104q0 -122 -158 -154v-1q205 -45 205 -179q0 -63 -38 -111t-115 -79
q-60 -23 -130.5 -35.5t-153.5 -12.5q-125 0 -220 34q-81 25 -126 79.5t-56 135.5h111q-18 -89 106 -137q39 -15 88.5 -21.5t109.5 -6.5q48 0 96 8.5t96 25.5q125 46 125 113q0 136 -335 136h-69v82q26 -2 46 -3t32 -1q94 0 172 26q108 34 108 104q0 56 -115 87
q-39 11 -79 16.5t-80 5.5q-54 0 -99.5 -8.5t-80.5 -22.5q-54 -21 -78.5 -52.5t-16.5 -76.5h-109q0 124 98 185t293 61q243 0 338 -105q123 106 290 106q173 0 294 -113q63 -55 93.5 -122.5t30.5 -146.5zM1419 -413q-285 -28 -322 -241q57 0 109 18t100 52q95 68 113 171z
M548 971q0 38 34 54q12 6 26 6q38 0 54 -34q6 -12 6 -26q0 -38 -34 -54q-12 -6 -26 -6q-38 0 -54 34q-6 12 -6 26zM391 815q0 38 34 54q12 6 26 6q38 0 54 -34q6 -12 6 -26q0 -38 -34 -54q-12 -6 -26 -6q-38 0 -54 34q-6 12 -6 26zM333 602q0 38 34 54q13 6 26 6
q38 0 54 -34q6 -12 6 -26q0 -38 -33 -54q-14 -6 -27 -6q-38 0 -54 34q-6 12 -6 26zM391 389q0 38 34 54q12 6 26 6q38 0 54 -34q6 -14 6 -26q0 -38 -34 -54q-12 -6 -26 -6q-38 0 -54 33q-6 13 -6 27zM548 233q0 38 34 54q12 6 26 6q38 0 54 -34q6 -14 6 -26q0 -38 -34 -54
q-12 -6 -26 -6q-38 0 -54 33q-6 13 -6 27zM762 176q0 38 34 54q12 6 26 6q38 0 54 -34q6 -14 6 -26q0 -38 -34 -54q-12 -6 -26 -6q-38 0 -54 33q-6 13 -6 27zM976 233q0 38 34 54q12 6 26 6q38 0 54 -34q6 -14 6 -26q0 -38 -34 -54q-12 -6 -26 -6q-38 0 -54 33q-6 13 -6 27z
M1133 389q0 38 34 54q12 6 26 6q38 0 54 -34q6 -14 6 -26q0 -38 -34 -54q-12 -6 -26 -6q-38 0 -54 33q-6 13 -6 27zM1191 602q0 37 33 54q13 6 27 6q38 0 54 -34q6 -12 6 -26q0 -38 -34 -54q-14 -6 -26 -6q-38 0 -54 34q-6 12 -6 26zM1133 815q0 38 34 54q12 6 26 6
q38 0 54 -34q6 -12 6 -26q0 -38 -34 -54q-12 -6 -26 -6q-38 0 -54 34q-6 12 -6 26zM976 971q0 38 34 54q12 6 26 6q38 0 54 -34q6 -12 6 -26q0 -38 -34 -54q-12 -6 -26 -6q-38 0 -54 34q-6 12 -6 26zM762 1028q0 38 34 54q12 6 26 6q38 0 54 -34q6 -12 6 -26q0 -38 -34 -54
q-12 -6 -26 -6q-38 0 -54 34q-6 12 -6 26z" />
    <glyph glyph-name="M_YSW_DOT" unicode="&#x103b;&#x103d;" horiz-adv-x="1358" 
d="M1298 -708l-110 -73l-230 180q-59 -110 -165 -180q-107 -71 -231 -71q-199 0 -321 125t-122 323q0 191 126 316q125 124 317 124q188 0 314 -133q126 -134 126 -323q0 -8 -1.5 -16.5t-3.5 -18.5l159 -124v1709h139zM853 -406q3 130 -79 215q-83 86 -212 87
q-120 3 -208 -87q-88 -91 -88 -213q0 -135 81 -217q81 -84 215 -81q130 1 210 83q79 81 81 213zM275 969q0 38 34 54q12 6 26 6q38 0 54 -34q6 -12 6 -26q0 -38 -34 -54q-12 -6 -26 -6q-38 0 -54 34q-6 12 -6 26zM118 813q0 38 34 54q12 6 26 6q38 0 54 -34q6 -12 6 -26
q0 -38 -34 -54q-12 -6 -26 -6q-38 0 -54 34q-6 12 -6 26zM60 600q0 38 34 54q13 6 26 6q38 0 54 -34q6 -12 6 -26q0 -38 -33 -54q-14 -6 -27 -6q-38 0 -54 34q-6 12 -6 26zM118 387q0 38 34 54q12 6 26 6q38 0 54 -34q6 -14 6 -26q0 -38 -34 -54q-12 -6 -26 -6q-38 0 -54 33
q-6 13 -6 27zM275 231q0 38 34 54q12 6 26 6q38 0 54 -34q6 -14 6 -26q0 -38 -34 -54q-12 -6 -26 -6q-38 0 -54 33q-6 13 -6 27zM489 174q0 38 34 54q12 6 26 6q38 0 54 -34q6 -14 6 -26q0 -38 -34 -54q-12 -6 -26 -6q-38 0 -54 33q-6 13 -6 27zM703 231q0 38 34 54
q12 6 26 6q38 0 54 -34q6 -14 6 -26q0 -38 -34 -54q-12 -6 -26 -6q-38 0 -54 33q-6 13 -6 27zM860 387q0 38 34 54q12 6 26 6q38 0 54 -34q6 -14 6 -26q0 -38 -34 -54q-12 -6 -26 -6q-38 0 -54 33q-6 13 -6 27zM918 600q0 37 33 54q13 6 27 6q38 0 54 -34q6 -12 6 -26
q0 -38 -34 -54q-14 -6 -26 -6q-38 0 -54 34q-6 12 -6 26zM860 813q0 38 34 54q12 6 26 6q38 0 54 -34q6 -12 6 -26q0 -38 -34 -54q-12 -6 -26 -6q-38 0 -54 34q-6 12 -6 26zM703 969q0 38 34 54q12 6 26 6q38 0 54 -34q6 -12 6 -26q0 -38 -34 -54q-12 -6 -26 -6
q-38 0 -54 34q-6 12 -6 26zM489 1026q0 38 34 54q12 6 26 6q38 0 54 -34q6 -12 6 -26q0 -38 -34 -54q-12 -6 -26 -6q-38 0 -54 34q-6 12 -6 26z" />
    <glyph glyph-name="M_YSH_DOT" unicode="&#x103b;&#x103e;" horiz-adv-x="1355" 
d="M1295 -705l-111 -70l-447 344v203l-272 -547h-86l-255 189l79 145l184 -131l321 606h175v-362l265 -229v1687h144zM275 969q0 38 34 54q12 6 26 6q38 0 54 -34q6 -12 6 -26q0 -38 -34 -54q-12 -6 -26 -6q-38 0 -54 34q-6 12 -6 26zM118 813q0 38 34 54q12 6 26 6
q38 0 54 -34q6 -12 6 -26q0 -38 -34 -54q-12 -6 -26 -6q-38 0 -54 34q-6 12 -6 26zM60 600q0 38 34 54q13 6 26 6q38 0 54 -34q6 -12 6 -26q0 -38 -33 -54q-14 -6 -27 -6q-38 0 -54 34q-6 12 -6 26zM118 387q0 38 34 54q12 6 26 6q38 0 54 -34q6 -14 6 -26q0 -38 -34 -54
q-12 -6 -26 -6q-38 0 -54 33q-6 13 -6 27zM275 231q0 38 34 54q12 6 26 6q38 0 54 -34q6 -14 6 -26q0 -38 -34 -54q-12 -6 -26 -6q-38 0 -54 33q-6 13 -6 27zM489 174q0 38 34 54q12 6 26 6q38 0 54 -34q6 -14 6 -26q0 -38 -34 -54q-12 -6 -26 -6q-38 0 -54 33q-6 13 -6 27z
M703 231q0 38 34 54q12 6 26 6q38 0 54 -34q6 -14 6 -26q0 -38 -34 -54q-12 -6 -26 -6q-38 0 -54 33q-6 13 -6 27zM860 387q0 38 34 54q12 6 26 6q38 0 54 -34q6 -14 6 -26q0 -38 -34 -54q-12 -6 -26 -6q-38 0 -54 33q-6 13 -6 27zM918 600q0 37 33 54q13 6 27 6
q38 0 54 -34q6 -12 6 -26q0 -38 -34 -54q-14 -6 -26 -6q-38 0 -54 34q-6 12 -6 26zM860 813q0 38 34 54q12 6 26 6q38 0 54 -34q6 -12 6 -26q0 -38 -34 -54q-12 -6 -26 -6q-38 0 -54 34q-6 12 -6 26zM703 969q0 38 34 54q12 6 26 6q38 0 54 -34q6 -12 6 -26q0 -38 -34 -54
q-12 -6 -26 -6q-38 0 -54 34q-6 12 -6 26zM489 1026q0 38 34 54q12 6 26 6q38 0 54 -34q6 -12 6 -26q0 -38 -34 -54q-12 -6 -26 -6q-38 0 -54 34q-6 12 -6 26z" />
    <glyph glyph-name="M_RWS_DOT" unicode="&#x103c;&#x103d;" horiz-adv-x="1532" 
d="M1472 1605h-120v67q0 65 -38 120q-38 54 -99 54l-870 3q-68 0 -114 -51q-45 -50 -45 -116v-2164q0 -67 39 -113q40 -48 101 -48h351q-66 67 -66 229q0 181 126 309q128 128 308 128q174 0 300 -129q127 -128 127 -308q0 -148 -99 -275q-121 -153 -328 -154q-86 0 -244 73
h-501q-103 0 -172 72q-68 71 -68 173v2233q0 108 73 187q74 80 183 80l901 -3q102 0 178 -76q77 -75 77 -174v-117zM1335 -419q-2 128 -87 212q-85 83 -206 83q-122 0 -206 -85q-83 -86 -83 -210q0 -116 84 -203q85 -87 205 -87q113 0 205 89q91 88 88 201zM699 969
q0 38 34 54q12 6 26 6q38 0 54 -34q6 -12 6 -26q0 -38 -34 -54q-12 -6 -26 -6q-38 0 -54 34q-6 12 -6 26zM542 813q0 38 34 54q12 6 26 6q38 0 54 -34q6 -12 6 -26q0 -38 -34 -54q-12 -6 -26 -6q-38 0 -54 34q-6 12 -6 26zM484 600q0 38 34 54q13 6 26 6q38 0 54 -34
q6 -12 6 -26q0 -38 -33 -54q-14 -6 -27 -6q-38 0 -54 34q-6 12 -6 26zM542 387q0 38 34 54q12 6 26 6q38 0 54 -34q6 -14 6 -26q0 -38 -34 -54q-12 -6 -26 -6q-38 0 -54 33q-6 13 -6 27zM699 231q0 38 34 54q12 6 26 6q38 0 54 -34q6 -14 6 -26q0 -38 -34 -54q-12 -6 -26 -6
q-38 0 -54 33q-6 13 -6 27zM913 174q0 38 34 54q12 6 26 6q38 0 54 -34q6 -14 6 -26q0 -38 -34 -54q-12 -6 -26 -6q-38 0 -54 33q-6 13 -6 27zM1127 231q0 38 34 54q12 6 26 6q38 0 54 -34q6 -14 6 -26q0 -38 -34 -54q-12 -6 -26 -6q-38 0 -54 33q-6 13 -6 27zM1284 387
q0 38 34 54q12 6 26 6q38 0 54 -34q6 -14 6 -26q0 -38 -34 -54q-12 -6 -26 -6q-38 0 -54 33q-6 13 -6 27zM1342 600q0 37 33 54q13 6 27 6q38 0 54 -34q6 -12 6 -26q0 -38 -34 -54q-14 -6 -26 -6q-38 0 -54 34q-6 12 -6 26zM1284 813q0 38 34 54q12 6 26 6q38 0 54 -34
q6 -12 6 -26q0 -38 -34 -54q-12 -6 -26 -6q-38 0 -54 34q-6 12 -6 26zM1127 969q0 38 34 54q12 6 26 6q38 0 54 -34q6 -12 6 -26q0 -38 -34 -54q-12 -6 -26 -6q-38 0 -54 34q-6 12 -6 26zM913 1026q0 38 34 54q12 6 26 6q38 0 54 -34q6 -12 6 -26q0 -38 -34 -54
q-12 -6 -26 -6q-38 0 -54 34q-6 12 -6 26z" />
    <glyph glyph-name="M_WH_DOT" unicode="&#x103d;&#x103e;" horiz-adv-x="1457" 
d="M1310 -365q-3 -154 -119 -267q-116 -114 -269 -114q-113 0 -225 73q-137 94 -150 240l-112 -161q-8 -3 -45 -29t-41 -26q-17 0 -115 55l-174 142l65 92l211 -152l213 305q105 237 373 237q162 0 278 -117q115 -116 110 -278zM1184 -358q0 105 -79 184t-183 79
q-95 0 -178 -73q-85 -73 -85 -167q0 -112 77 -198t186 -83q105 3 184 77q78 73 78 181zM634 971q0 38 34 54q12 6 26 6q38 0 54 -34q6 -12 6 -26q0 -38 -34 -54q-12 -6 -26 -6q-38 0 -54 34q-6 12 -6 26zM477 815q0 38 34 54q12 6 26 6q38 0 54 -34q6 -12 6 -26
q0 -38 -34 -54q-12 -6 -26 -6q-38 0 -54 34q-6 12 -6 26zM419 602q0 38 34 54q13 6 26 6q38 0 54 -34q6 -12 6 -26q0 -38 -33 -54q-14 -6 -27 -6q-38 0 -54 34q-6 12 -6 26zM477 389q0 38 34 54q12 6 26 6q38 0 54 -34q6 -14 6 -26q0 -38 -34 -54q-12 -6 -26 -6
q-38 0 -54 33q-6 13 -6 27zM634 233q0 38 34 54q12 6 26 6q38 0 54 -34q6 -14 6 -26q0 -38 -34 -54q-12 -6 -26 -6q-38 0 -54 33q-6 13 -6 27zM848 176q0 38 34 54q12 6 26 6q38 0 54 -34q6 -14 6 -26q0 -38 -34 -54q-12 -6 -26 -6q-38 0 -54 33q-6 13 -6 27zM1062 233
q0 38 34 54q12 6 26 6q38 0 54 -34q6 -14 6 -26q0 -38 -34 -54q-12 -6 -26 -6q-38 0 -54 33q-6 13 -6 27zM1219 389q0 38 34 54q12 6 26 6q38 0 54 -34q6 -14 6 -26q0 -38 -34 -54q-12 -6 -26 -6q-38 0 -54 33q-6 13 -6 27zM1277 602q0 37 33 54q13 6 27 6q38 0 54 -34
q6 -12 6 -26q0 -38 -34 -54q-14 -6 -26 -6q-38 0 -54 34q-6 12 -6 26zM1219 815q0 38 34 54q12 6 26 6q38 0 54 -34q6 -12 6 -26q0 -38 -34 -54q-12 -6 -26 -6q-38 0 -54 34q-6 12 -6 26zM1062 971q0 38 34 54q12 6 26 6q38 0 54 -34q6 -12 6 -26q0 -38 -34 -54
q-12 -6 -26 -6q-38 0 -54 34q-6 12 -6 26zM848 1028q0 38 34 54q12 6 26 6q38 0 54 -34q6 -12 6 -26q0 -38 -34 -54q-12 -6 -26 -6q-38 0 -54 34q-6 12 -6 26z" />
    <glyph glyph-name="S_NGA_DOT" unicode="&#x1039;&#x1004;" horiz-adv-x="1098" 
d="M275 971q0 38 34 54q12 6 26 6q38 0 54 -34q6 -12 6 -26q0 -38 -34 -54q-12 -6 -26 -6q-38 0 -54 34q-6 12 -6 26zM118 815q0 38 34 54q12 6 26 6q38 0 54 -34q6 -12 6 -26q0 -38 -34 -54q-12 -6 -26 -6q-38 0 -54 34q-6 12 -6 26zM60 602q0 38 34 54q13 6 26 6
q38 0 54 -34q6 -12 6 -26q0 -38 -33 -54q-14 -6 -27 -6q-38 0 -54 34q-6 12 -6 26zM118 389q0 38 34 54q12 6 26 6q38 0 54 -34q6 -14 6 -26q0 -38 -34 -54q-12 -6 -26 -6q-38 0 -54 33q-6 13 -6 27zM275 233q0 38 34 54q12 6 26 6q38 0 54 -34q6 -14 6 -26q0 -38 -34 -54
q-12 -6 -26 -6q-38 0 -54 33q-6 13 -6 27zM489 176q0 38 34 54q12 6 26 6q38 0 54 -34q6 -14 6 -26q0 -38 -34 -54q-12 -6 -26 -6q-38 0 -54 33q-6 13 -6 27zM703 233q0 38 34 54q12 6 26 6q38 0 54 -34q6 -14 6 -26q0 -38 -34 -54q-12 -6 -26 -6q-38 0 -54 33q-6 13 -6 27z
M860 389q0 38 34 54q12 6 26 6q38 0 54 -34q6 -14 6 -26q0 -38 -34 -54q-12 -6 -26 -6q-38 0 -54 33q-6 13 -6 27zM918 602q0 37 33 54q13 6 27 6q38 0 54 -34q6 -12 6 -26q0 -38 -34 -54q-14 -6 -26 -6q-38 0 -54 34q-6 12 -6 26zM860 815q0 38 34 54q12 6 26 6
q38 0 54 -34q6 -12 6 -26q0 -38 -34 -54q-12 -6 -26 -6q-38 0 -54 34q-6 12 -6 26zM703 971q0 38 34 54q12 6 26 6q38 0 54 -34q6 -12 6 -26q0 -38 -34 -54q-12 -6 -26 -6q-38 0 -54 34q-6 12 -6 26zM489 1028q0 40 34 60h26q38 0 54 -20q6 -26 6 -40q0 -38 -34 -54
q-12 -6 -26 -6q-38 0 -54 34q-6 12 -6 26zM543 42q279 0 391 -265l-115 -44q-88 183 -278 183q-98 0 -173 -87t-75 -187t77 -179q76 -79 176 -79q184 0 273 155l117 -40q-97 -250 -397 -250q-145 0 -262 123q-116 122 -116 270q0 164 109 282t273 118z" />
    <glyph glyph-name="S_HA_DOT" unicode="&#x1039;&#x101f;" horiz-adv-x="1574" 
d="M502 969q0 38 34 54q12 6 26 6q38 0 54 -34q6 -12 6 -26q0 -38 -34 -54q-12 -6 -26 -6q-38 0 -54 34q-6 12 -6 26zM345 813q0 38 34 54q12 6 26 6q38 0 54 -34q6 -12 6 -26q0 -38 -34 -54q-12 -6 -26 -6q-38 0 -54 34q-6 12 -6 26zM287 600q0 38 34 54q13 6 26 6
q38 0 54 -34q6 -12 6 -26q0 -38 -33 -54q-14 -6 -27 -6q-38 0 -54 34q-6 12 -6 26zM345 387q0 38 34 54q12 6 26 6q38 0 54 -34q6 -14 6 -26q0 -38 -34 -54q-12 -6 -26 -6q-38 0 -54 33q-6 13 -6 27zM502 231q0 38 34 54q12 6 26 6q38 0 54 -34q6 -14 6 -26q0 -38 -34 -54
q-12 -6 -26 -6q-38 0 -54 33q-6 13 -6 27zM716 174q0 38 34 54q12 6 26 6q38 0 54 -34q6 -14 6 -26q0 -38 -34 -54q-12 -6 -26 -6q-38 0 -54 33q-6 13 -6 27zM930 231q0 38 34 54q12 6 26 6q38 0 54 -34q6 -14 6 -26q0 -38 -34 -54q-12 -6 -26 -6q-38 0 -54 33q-6 13 -6 27z
M1087 387q0 38 34 54q12 6 26 6q38 0 54 -34q6 -14 6 -26q0 -38 -34 -54q-12 -6 -26 -6q-38 0 -54 33q-6 13 -6 27zM1145 600q0 37 33 54q13 6 27 6q38 0 54 -34q6 -12 6 -26q0 -38 -34 -54q-14 -6 -26 -6q-38 0 -54 34q-6 12 -6 26zM1087 813q0 38 34 54q12 6 26 6
q38 0 54 -34q6 -12 6 -26q0 -38 -34 -54q-12 -6 -26 -6q-38 0 -54 34q-6 12 -6 26zM930 969q0 38 34 54q12 6 26 6q38 0 54 -34q6 -12 6 -26q0 -38 -34 -54q-12 -6 -26 -6q-38 0 -54 34q-6 12 -6 26zM716 1026q0 38 34 54q12 6 26 6q38 0 54 -34q6 -12 6 -26q0 -38 -34 -54
q-12 -6 -26 -6q-38 0 -54 34q-6 12 -6 26zM1514 -348q0 82 -28 151.5t-88 125.5v-1q-59 57 -128 85.5t-154 28.5q-218 0 -329 -175q-74 103 -212 154l-39 -120q42 -17 77 -42.5t60.5 -57.5t39.5 -70t14 -79q0 -110 -79 -188v1q-41 -38 -87 -57t-103 -19q-55 0 -101.5 19
t-88.5 57l1 -1q-77 80 -77 188q0 40 12.5 77t36 68.5t56 57.5t72.5 43l-52 118q-59 -23 -106 -60.5t-81 -86t-52 -104.5t-18 -115q0 -166 116 -279q60 -55 128 -83t151 -28q167 0 283 113q115 116 115 279q0 110 78 185q76 76 188 76q110 0 186 -80q80 -74 80 -181
q0 -108 -80 -188q-77 -75 -186 -75q-34 0 -71 11.5t-76 33.5l-52 -122q100 -52 196 -52q85 0 154 28t128 85q60 59 88 128t28 151z" />
    <glyph glyph-name="S_YA_DOT" unicode="&#x1039;&#x101a;" horiz-adv-x="1558" 
d="M505 969q0 38 34 54q12 6 26 6q38 0 54 -34q6 -12 6 -26q0 -38 -34 -54q-12 -6 -26 -6q-38 0 -54 34q-6 12 -6 26zM348 813q0 38 34 54q12 6 26 6q38 0 54 -34q6 -12 6 -26q0 -38 -34 -54q-12 -6 -26 -6q-38 0 -54 34q-6 12 -6 26zM290 600q0 38 34 54q13 6 26 6
q38 0 54 -34q6 -12 6 -26q0 -38 -33 -54q-14 -6 -27 -6q-38 0 -54 34q-6 12 -6 26zM348 387q0 38 34 54q12 6 26 6q38 0 54 -34q6 -14 6 -26q0 -38 -34 -54q-12 -6 -26 -6q-38 0 -54 33q-6 13 -6 27zM505 231q0 38 34 54q12 6 26 6q38 0 54 -34q6 -14 6 -26q0 -38 -34 -54
q-12 -6 -26 -6q-38 0 -54 33q-6 13 -6 27zM719 174q0 38 34 54q12 6 26 6q38 0 54 -34q6 -14 6 -26q0 -38 -34 -54q-12 -6 -26 -6q-38 0 -54 33q-6 13 -6 27zM933 231q0 38 34 54q12 6 26 6q38 0 54 -34q6 -14 6 -26q0 -38 -34 -54q-12 -6 -26 -6q-38 0 -54 33q-6 13 -6 27z
M1090 387q0 38 34 54q12 6 26 6q38 0 54 -34q6 -14 6 -26q0 -38 -34 -54q-12 -6 -26 -6q-38 0 -54 33q-6 13 -6 27zM1148 600q0 37 33 54q13 6 27 6q38 0 54 -34q6 -12 6 -26q0 -38 -34 -54q-14 -6 -26 -6q-38 0 -54 34q-6 12 -6 26zM1090 813q0 38 34 54q12 6 26 6
q38 0 54 -34q6 -12 6 -26q0 -38 -34 -54q-12 -6 -26 -6q-38 0 -54 34q-6 12 -6 26zM933 969q0 38 34 54q12 6 26 6q38 0 54 -34q6 -12 6 -26q0 -38 -34 -54q-12 -6 -26 -6q-38 0 -54 34q-6 12 -6 26zM719 1026q0 38 34 54q12 6 26 6q38 0 54 -34q6 -12 6 -26q0 -38 -34 -54
q-12 -6 -26 -6q-38 0 -54 34q-6 12 -6 26zM1498 -352q0 81 -28 150t-88 126q-111 112 -278 112q-36 0 -74.5 -8.5t-82.5 -27.5l57 -112q60 20 101 20q114 0 187 -76q40 -39 59.5 -84t19.5 -100q0 -102 -79 -181q-38 -39 -83.5 -57t-103.5 -18q-111 0 -186 75q-38 40 -57 85
t-19 101q0 125 -74 226q-36 49 -90.5 86t-126.5 57l-28 -123q44 -14 79.5 -39t61 -58t39.5 -72.5t14 -81.5q0 -102 -75 -181q-78 -75 -189 -75q-57 0 -102.5 18.5t-87.5 57.5v-1q-75 78 -75 181q0 43 14 82t39.5 71.5t60.5 57.5t77 41l-38 120q-134 -45 -208 -146
q-36 -52 -55 -107.5t-19 -118.5q0 -159 113 -274q118 -112 279 -112q101 0 187 44t139 131q56 -93 136 -134t190 -41q167 0 278 113q60 58 88 125t28 148z" />
    <glyph glyph-name="S_RA_DOT" unicode="&#x1039;&#x101b;" horiz-adv-x="1098" 
d="M275 971q0 38 34 54q12 6 26 6q38 0 54 -34q6 -12 6 -26q0 -38 -34 -54q-12 -6 -26 -6q-38 0 -54 34q-6 12 -6 26zM118 815q0 38 34 54q12 6 26 6q38 0 54 -34q6 -12 6 -26q0 -38 -34 -54q-12 -6 -26 -6q-38 0 -54 34q-6 12 -6 26zM60 602q0 38 34 54q13 6 26 6
q38 0 54 -34q6 -12 6 -26q0 -38 -33 -54q-14 -6 -27 -6q-38 0 -54 34q-6 12 -6 26zM118 389q0 38 34 54q12 6 26 6q38 0 54 -34q6 -14 6 -26q0 -38 -34 -54q-12 -6 -26 -6q-38 0 -54 33q-6 13 -6 27zM275 233q0 38 34 54q12 6 26 6q38 0 54 -34q6 -14 6 -26q0 -38 -34 -54
q-12 -6 -26 -6q-38 0 -54 33q-6 13 -6 27zM489 176q0 38 34 54q12 6 26 6q38 0 54 -34q6 -14 6 -26q0 -38 -34 -54q-12 -6 -26 -6q-38 0 -54 33q-6 13 -6 27zM703 233q0 38 34 54q12 6 26 6q38 0 54 -34q6 -14 6 -26q0 -38 -34 -54q-12 -6 -26 -6q-38 0 -54 33q-6 13 -6 27z
M860 389q0 38 34 54q12 6 26 6q38 0 54 -34q6 -14 6 -26q0 -38 -34 -54q-12 -6 -26 -6q-38 0 -54 33q-6 13 -6 27zM918 602q0 37 33 54q13 6 27 6q38 0 54 -34q6 -12 6 -26q0 -38 -34 -54q-14 -6 -26 -6q-38 0 -54 34q-6 12 -6 26zM860 815q0 38 34 54q12 6 26 6
q38 0 54 -34q6 -12 6 -26q0 -38 -34 -54q-12 -6 -26 -6q-38 0 -54 34q-6 12 -6 26zM703 971q0 38 34 54q12 6 26 6q38 0 54 -34q6 -12 6 -26q0 -38 -34 -54q-12 -6 -26 -6q-38 0 -54 34q-6 12 -6 26zM489 1028q0 38 34 54q12 6 26 6q38 0 54 -34q6 -12 6 -26q0 -38 -34 -54
q-12 -6 -26 -6q-38 0 -54 34q-6 12 -6 26zM836 -747v89h-57v450q0 101 -71 169h1q-69 69 -171 69t-173 -71q-69 -69 -69 -170q0 -96 69 -168q72 -69 173 -69q67 0 134 40q-49 121 -118 168q-32 22 -72.5 33t-97.5 14q2 28 13 50t31 42q45 45 111 45t113 -45q45 -42 45 -107
v-539h139zM577 -360q-5 -2 -13 -2.5t-25 -0.5q-26 0 -49.5 8.5t-44.5 23.5q-35 28 -51 64q133 -3 174 -112z" />
    <glyph glyph-name="S_DDHA_DOT" unicode="&#x1039;&#x100e;" horiz-adv-x="1098" 
d="M275 971q0 38 34 54q12 6 26 6q38 0 54 -34q6 -12 6 -26q0 -38 -34 -54q-12 -6 -26 -6q-38 0 -54 34q-6 12 -6 26zM118 815q0 38 34 54q12 6 26 6q38 0 54 -34q6 -12 6 -26q0 -38 -34 -54q-12 -6 -26 -6q-38 0 -54 34q-6 12 -6 26zM60 602q0 38 34 54q13 6 26 6
q38 0 54 -34q6 -12 6 -26q0 -38 -33 -54q-14 -6 -27 -6q-38 0 -54 34q-6 12 -6 26zM118 389q0 38 34 54q12 6 26 6q38 0 54 -34q6 -14 6 -26q0 -38 -34 -54q-12 -6 -26 -6q-38 0 -54 33q-6 13 -6 27zM275 233q0 38 34 54q12 6 26 6q38 0 54 -34q6 -14 6 -26q0 -38 -34 -54
q-12 -6 -26 -6q-38 0 -54 33q-6 13 -6 27zM489 176q0 38 34 54q12 6 26 6q38 0 54 -34q6 -14 6 -26q0 -38 -34 -54q-12 -6 -26 -6q-38 0 -54 33q-6 13 -6 27zM703 233q0 38 34 54q12 6 26 6q38 0 54 -34q6 -14 6 -26q0 -38 -34 -54q-12 -6 -26 -6q-38 0 -54 33q-6 13 -6 27z
M860 389q0 38 34 54q12 6 26 6q38 0 54 -34q6 -14 6 -26q0 -38 -34 -54q-12 -6 -26 -6q-38 0 -54 33q-6 13 -6 27zM918 602q0 37 33 54q13 6 27 6q38 0 54 -34q6 -12 6 -26q0 -38 -34 -54q-14 -6 -26 -6q-38 0 -54 34q-6 12 -6 26zM860 815q0 38 34 54q12 6 26 6
q38 0 54 -34q6 -12 6 -26q0 -38 -34 -54q-12 -6 -26 -6q-38 0 -54 34q-6 12 -6 26zM703 971q0 38 34 54q12 6 26 6q38 0 54 -34q6 -12 6 -26q0 -38 -34 -54q-12 -6 -26 -6q-38 0 -54 34q-6 12 -6 26zM489 1028q0 40 34 60h26q38 0 54 -20q6 -26 6 -40q0 -38 -34 -54
q-12 -6 -26 -6q-38 0 -54 34q-6 12 -6 26zM955 -349q0 60 -19.5 117.5t-55.5 107t-86 88.5t-110 63l-50 -123q42 -14 77.5 -39.5t61 -59t40 -73t14.5 -81.5q0 -110 -79 -190q-77 -78 -190 -78q-112 0 -191 78q-38 41 -57.5 87t-19.5 103q0 40 43 62q104 51 110 60l-6 -6
q29 23 42.5 51.5t13.5 63.5q0 10 -4 28t-12 40q-22 61 -39 55q-49 28 -107 28q-96 0 -172 -88l79 -99q26 28 49 41t42 13q4 0 15 -6q23 -5 23 -4q0 -9 -22 -32q-46 -22 -77.5 -40t-48.5 -32q-28 -25 -45 -59.5t-17 -76.5q0 -84 28.5 -152.5t88.5 -129.5q115 -115 280 -115
q169 0 284 115q117 120 117 283z" />
    <glyph glyph-name="S_DDA_DOT" unicode="&#x1039;&#x100d;" horiz-adv-x="1098" 
d="M275 971q0 38 34 54q12 6 26 6q38 0 54 -34q6 -12 6 -26q0 -38 -34 -54q-12 -6 -26 -6q-38 0 -54 34q-6 12 -6 26zM118 815q0 38 34 54q12 6 26 6q38 0 54 -34q6 -12 6 -26q0 -38 -34 -54q-12 -6 -26 -6q-38 0 -54 34q-6 12 -6 26zM60 602q0 38 34 54q13 6 26 6
q38 0 54 -34q6 -12 6 -26q0 -38 -33 -54q-14 -6 -27 -6q-38 0 -54 34q-6 12 -6 26zM118 389q0 38 34 54q12 6 26 6q38 0 54 -34q6 -14 6 -26q0 -38 -34 -54q-12 -6 -26 -6q-38 0 -54 33q-6 13 -6 27zM275 233q0 38 34 54q12 6 26 6q38 0 54 -34q6 -14 6 -26q0 -38 -34 -54
q-12 -6 -26 -6q-38 0 -54 33q-6 13 -6 27zM489 176q0 38 34 54q12 6 26 6q38 0 54 -34q6 -14 6 -26q0 -38 -34 -54q-12 -6 -26 -6q-38 0 -54 33q-6 13 -6 27zM703 233q0 38 34 54q12 6 26 6q38 0 54 -34q6 -14 6 -26q0 -38 -34 -54q-12 -6 -26 -6q-38 0 -54 33q-6 13 -6 27z
M860 389q0 38 34 54q12 6 26 6q38 0 54 -34q6 -14 6 -26q0 -38 -34 -54q-12 -6 -26 -6q-38 0 -54 33q-6 13 -6 27zM918 602q0 37 33 54q13 6 27 6q38 0 54 -34q6 -12 6 -26q0 -38 -34 -54q-14 -6 -26 -6q-38 0 -54 34q-6 12 -6 26zM860 815q0 38 34 54q12 6 26 6
q38 0 54 -34q6 -12 6 -26q0 -38 -34 -54q-12 -6 -26 -6q-38 0 -54 34q-6 12 -6 26zM703 971q0 38 34 54q12 6 26 6q38 0 54 -34q6 -12 6 -26q0 -38 -34 -54q-12 -6 -26 -6q-38 0 -54 34q-6 12 -6 26zM489 1028q0 38 34 54q12 6 26 6q38 0 54 -34q6 -12 6 -26q0 -38 -34 -54
q-12 -6 -26 -6q-38 0 -54 34q-6 12 -6 26zM937 -725l-249 8l-3 104q-81 -27 -136 -27q-63 0 -217 84v209l99 58q31 -63 118 -63q120 0 120 123q0 109 -117 121q-83 0 -111 -55l-112 46q66 133 220 140q112 -7 181 -75q70 -67 73 -177q2 -98 -76 -174q-77 -78 -175 -78
q-66 4 -111 33v-50q42 -27 111 -27q139 0 204 69q31 0 41 -34l3 -123l129 -3z" />
    <glyph glyph-name=".notdef" horiz-adv-x="640" 
 />
    <glyph glyph-name="exclam" unicode="!" horiz-adv-x="680" 
d="M452 1489l-28 -1079h-166l-30 1079h224zM442 0h-204v211h204v-211z" />
    <glyph glyph-name="quotedbl" unicode="&#x22;" horiz-adv-x="822" 
d="M708 1556l-43 -579h-132l-43 579h218zM332 1556l-43 -579h-132l-43 579h218z" />
    <glyph glyph-name="numbersign" unicode="#" horiz-adv-x="1490" 
d="M1348 932h-293l-92 -376h268v-135h-303l-105 -421h-129l105 421h-270l-105 -421h-129l105 421h-258v135h293l92 376h-268v135h303l105 422h129l-105 -422h270l105 422h129l-105 -422h258v-135zM929 934h-274l-94 -380h274z" />
    <glyph glyph-name="dollar" unicode="$" horiz-adv-x="1118" 
d="M1024 380q0 -147 -112.5 -252.5t-283.5 -126.5v-362h-114v357q-108 1 -217.5 25t-190.5 64v202h15q79 -59 178 -96t215 -47v432q-25 6 -61 14.5t-61 16.5q-150 41 -214.5 124t-64.5 204q0 142 111 247t290 122v272h114v-270q91 -3 188.5 -25.5t159.5 -49.5v-198h-15
q-70 48 -153.5 84t-179.5 44v-430q33 -7 61.5 -14.5t49.5 -12.5q136 -32 210.5 -111t74.5 -213zM514 746v414q-90 -8 -151 -58.5t-61 -140.5q0 -89 44.5 -137.5t167.5 -77.5zM835 354q0 94 -48 139t-159 68v-415q102 12 154.5 61.5t52.5 146.5z" />
    <glyph glyph-name="percent" unicode="%" horiz-adv-x="2000" 
d="M807 1076q0 -225 -90.5 -333.5t-261.5 -108.5q-174 0 -263.5 110t-89.5 331q0 224 91 333t262 109q174 0 263 -110t89 -331zM1473 1489l-780 -1489h-165l780 1489h165zM1897 413q0 -225 -90.5 -333.5t-261.5 -108.5q-174 0 -263.5 110t-89.5 331q0 224 91 333t262 109
q174 0 263 -110t89 -331zM629 1076q0 152 -35.5 230t-138.5 78t-139 -79t-36 -230q0 -150 34 -229t141 -79q103 0 138.5 79t35.5 230zM1719 413q0 152 -35.5 230t-138.5 78t-139 -79t-36 -230q0 -150 34 -229t141 -79q103 0 138.5 79t35.5 230z" />
    <glyph glyph-name="ampersand" unicode="&#x26;" horiz-adv-x="1380" 
d="M1445 0h-256l-204 213q-102 -130 -209.5 -187t-243.5 -57q-202 0 -333.5 121.5t-131.5 318.5q0 86 24 153t64 121q39 52 90 91.5t98 68.5q-101 68 -151 143t-50 189q0 71 28.5 131.5t74.5 106.5q48 47 124.5 77t167.5 30q166 0 271 -87.5t105 -221.5q0 -49 -12.5 -101.5
t-45.5 -101.5t-86.5 -92t-142.5 -75l352 -362q14 82 17 178.5t3 251.5h195v-96q0 -96 -24.5 -216.5t-80.5 -228.5zM898 301l-460 471q-25 -16 -50 -38t-55 -66q-24 -35 -42.5 -91.5t-18.5 -119.5q0 -142 84.5 -233.5t228.5 -91.5q96 0 173 40.5t140 128.5zM532 912
q56 19 92.5 51t56.5 70q18 35 27 74t9 84q0 97 -56.5 150t-131.5 53q-89 0 -140 -60t-51 -150q0 -40 7.5 -68.5t31.5 -66.5q21 -31 58.5 -66t96.5 -71z" />
    <glyph glyph-name="quotesingle" unicode="'" horiz-adv-x="432" 
d="M327 1556l-43 -579h-136l-43 579h222z" />
    <glyph glyph-name="parenleft" unicode="(" horiz-adv-x="784" 
d="M710 -412h-229q-174 207 -273.5 438t-99.5 546q0 308 98.5 542.5t274.5 441.5h229v-10q-81 -73 -154.5 -168.5t-136.5 -222.5q-60 -123 -97.5 -271t-37.5 -312q0 -171 36.5 -313t98.5 -270q60 -123 137 -222.5t154 -168.5v-10z" />
    <glyph glyph-name="parenright" unicode=")" horiz-adv-x="784" 
d="M676 572q0 -309 -99 -543t-274 -441h-229v10q77 69 155 169.5t136 221.5q62 129 98.5 272.5t36.5 310.5q0 165 -37 312t-98 271t-138 223t-153 168v10h229q174 -207 273.5 -440t99.5 -544z" />
    <glyph glyph-name="asterisk" unicode="*" horiz-adv-x="1118" 
d="M1007 887l-65 -110l-327 217l7 -364h-125l6 364l-325 -218l-66 110l354 207l-354 207l66 110l326 -219l-7 365h125l-8 -365l328 218l65 -110l-354 -205z" />
    <glyph glyph-name="plus" unicode="+" horiz-adv-x="1490" 
d="M1333 572h-505v-505h-166v505h-505v160h505v505h166v-505h505v-160z" />
    <glyph glyph-name="comma" unicode="," horiz-adv-x="620" 
d="M500 285l-280 -655h-146l176 655h250z" />
    <glyph glyph-name="hyphen" unicode="-" horiz-adv-x="744" 
d="M654 561h-564v181h564v-181z" />
    <glyph glyph-name="hyphen" unicode="&#xad;" horiz-adv-x="744" 
d="M654 561h-564v181h564v-181z" />
    <glyph glyph-name="period" unicode="." horiz-adv-x="620" 
d="M429 0h-239v285h239v-285z" />
    <glyph glyph-name="slash" unicode="/" horiz-adv-x="783" 
d="M728 1556l-583 -1880h-169l580 1880h172z" />
    <glyph glyph-name="zero" unicode="0" horiz-adv-x="1118" 
d="M1035 745q0 -401 -116.5 -588.5t-359.5 -187.5q-246 0 -361 191t-115 583q0 403 116.5 589.5t359.5 186.5q246 0 361 -193t115 -581zM779 291q29 74 41 187t12 267q0 153 -12 266t-42 188q-30 76 -82.5 115.5t-136.5 39.5q-83 0 -136.5 -39.5t-84.5 -117.5
q-30 -76 -41 -192t-11 -262q0 -156 9.5 -261t41.5 -188q29 -77 82.5 -118.5t139.5 -41.5q83 0 136.5 39.5t83.5 117.5z" />
    <glyph glyph-name="one" unicode="1" horiz-adv-x="1118" 
d="M952 0h-726v152h270v998h-270v136q153 0 225.5 43.5t81.5 164.5h155v-1342h264v-152z" />
    <glyph glyph-name="two" unicode="2" horiz-adv-x="1118" 
d="M1028 0h-919v209q99 94 187 180t172 179q170 187 232 299.5t62 232.5q0 62 -19.5 109t-53.5 78q-35 30 -81 45t-101 15q-53 0 -107.5 -13.5t-104.5 -33.5q-42 -17 -81 -41t-63 -41h-11v212q62 31 172.5 60.5t209.5 29.5q208 0 326 -110.5t118 -299.5q0 -87 -20.5 -161
t-56.5 -137q-37 -65 -89 -129t-110 -126q-94 -102 -209.5 -212t-184.5 -174h732v-171z" />
    <glyph glyph-name="three" unicode="3" horiz-adv-x="1118" 
d="M511 1347q-54 0 -108 -13t-106 -34q-48 -20 -83.5 -42t-63.5 -41h-12v211q65 35 176.5 63.5t212.5 28.5t176.5 -20.5t136.5 -63.5q66 -48 99.5 -116t33.5 -159q0 -123 -81 -216t-194 -118v-14q47 -9 100.5 -31t99.5 -65t75 -110.5t29 -164.5q0 -101 -34.5 -185.5
t-97.5 -149.5q-65 -68 -157 -103t-209 -35q-112 0 -222 27t-185 65v211h14q63 -46 169 -88t212 -42q61 0 122.5 19.5t102.5 63.5q40 44 61 97t21 134t-23.5 133t-65.5 82t-99.5 41.5t-124.5 11.5h-85v166h66q135 0 219.5 64t84.5 186q0 56 -22 96.5t-56 64.5q-38 26 -84 36
t-98 10z" />
    <glyph glyph-name="four" unicode="4" horiz-adv-x="1118" 
d="M1067 512h-177v-512h-192v512h-658v210l666 767h184v-817h177v-160zM698 672v582l-502 -582h502z" />
    <glyph glyph-name="five" unicode="5" horiz-adv-x="1118" 
d="M1011 474q0 -108 -34.5 -200t-96.5 -159q-63 -68 -156.5 -107t-209.5 -39q-107 0 -210.5 23.5t-179.5 61.5v211h14q23 -17 66 -38.5t95 -40.5q59 -21 108 -32.5t110 -11.5q60 0 117 21.5t98 69.5q37 44 56.5 103t19.5 139q0 79 -21.5 130t-62.5 84q-43 38 -105.5 53.5
t-139.5 15.5q-81 0 -163 -12.5t-131 -23.5v767h817v-175h-624v-396q36 4 71 6t64 2q114 0 193 -19t152 -74q74 -56 113.5 -140t39.5 -219z" />
    <glyph glyph-name="six" unicode="6" horiz-adv-x="1118" 
d="M1051 483q0 -115 -38 -212t-102 -162q-67 -69 -150 -104.5t-183 -35.5q-101 0 -183.5 34t-145.5 101q-77 81 -120.5 216.5t-43.5 333.5q0 194 40 350.5t123 272.5q81 113 209 176.5t296 63.5q50 0 93 -5t76 -16v-191h-9q-27 15 -78 27.5t-109 12.5q-186 0 -300.5 -125.5
t-135.5 -372.5q71 50 146 77t164 27q87 0 152.5 -17.5t136.5 -70.5q82 -62 122 -157t40 -223zM848 475q0 92 -24 154t-78 106q-39 32 -88.5 42t-101.5 10q-70 0 -136 -21t-130 -61q-2 -22 -3 -42.5t-1 -51.5q0 -155 30.5 -250t75.5 -144q43 -47 88.5 -66t98.5 -19
q120 0 194.5 86t74.5 257z" />
    <glyph glyph-name="seven" unicode="7" horiz-adv-x="1118" 
d="M1044 1266l-644 -1266h-213l682 1314h-770v175h945v-223z" />
    <glyph glyph-name="eight" unicode="8" horiz-adv-x="1118" 
d="M811 1142q0 100 -67 167t-186 67q-109 0 -178.5 -60t-69.5 -162q0 -74 35.5 -125t106.5 -92q31 -17 94.5 -47t115.5 -47q87 67 118 137.5t31 161.5zM839 396q0 92 -36 146t-139 110q-34 19 -90.5 41t-127.5 52q-83 -55 -127 -135.5t-44 -183.5q0 -135 81.5 -223
t204.5 -88q126 0 202 75.5t76 205.5zM559 -34q-111 0 -202 33t-155 95q-63 60 -95.5 142.5t-32.5 174.5q0 121 64.5 222.5t187.5 161.5v6q-110 64 -163 140t-53 190q0 168 127 280t322 112q203 0 325.5 -106.5t122.5 -272.5q0 -100 -58.5 -198t-168.5 -153v-6
q130 -61 197 -148t67 -224q0 -191 -138.5 -320t-346.5 -129z" />
    <glyph glyph-name="nine" unicode="9" horiz-adv-x="1118" 
d="M832 877q0 152 -28 247.5t-77 147.5q-44 48 -89 66t-99 18q-123 0 -196 -88t-73 -255q0 -94 24 -155t78 -105q38 -31 86 -41.5t103 -10.5q64 0 138 22.5t129 59.5q1 15 2.5 39.5t1.5 54.5zM67 1005q0 115 37.5 210t102.5 164q62 66 151.5 103t181.5 37q103 0 186.5 -34.5
t144.5 -99.5q77 -82 119.5 -215t42.5 -336q0 -185 -41.5 -350.5t-122.5 -274.5q-86 -116 -206.5 -177t-297.5 -61q-40 0 -85 4.5t-84 16.5v191h10q25 -14 78 -27t108 -13q196 0 308 129t127 369q-80 -54 -152.5 -79t-157.5 -25q-83 0 -151 18t-137 70q-80 61 -121 154.5
t-41 225.5z" />
    <glyph glyph-name="colon" unicode=":" horiz-adv-x="724" 
d="M482 832h-239v285h239v-285zM482 0h-239v285h239v-285z" />
    <glyph glyph-name="semicolon" unicode=";" horiz-adv-x="724" 
d="M482 832h-239v285h239v-285zM548 285l-280 -655h-146l176 655h250z" />
    <glyph glyph-name="less" unicode="&#x3c;" horiz-adv-x="1490" 
d="M1275 79l-1074 513v120l1074 513v-178l-833 -395l833 -395v-178z" />
    <glyph glyph-name="equal" unicode="=" horiz-adv-x="1490" 
d="M1298 782h-1106v160h1106v-160zM1298 362h-1106v160h1106v-160z" />
    <glyph glyph-name="greater" unicode="&#x3e;" horiz-adv-x="1490" 
d="M1289 592l-1074 -513v178l833 395l-833 395v178l1074 -513v-120z" />
    <glyph glyph-name="question" unicode="?" horiz-adv-x="970" 
d="M912 1139q0 -98 -32.5 -174.5t-86.5 -134.5t-122.5 -107t-144.5 -95v-228h-179v305q56 34 130.5 81.5t116.5 88.5q54 51 84 111.5t30 137.5q0 113 -71 168.5t-185 55.5q-100 0 -188.5 -33.5t-143.5 -69.5h-11v204q67 27 169 48.5t193 21.5q205 0 323 -104.5t118 -275.5z
M542 0h-204v211h204v-211z" />
    <glyph glyph-name="at" unicode="@" horiz-adv-x="1862" 
d="M1739 663q0 -139 -38 -268.5t-109 -237.5h-421l-25 116q-67 -57 -123.5 -90.5t-153.5 -33.5q-154 0 -252 123.5t-98 358.5t120.5 366t275.5 131q72 0 124 -18t105 -48v48h159v-842h227q38 71 54.5 184t16.5 205q0 327 -166.5 526.5t-478.5 199.5q-296 0 -488.5 -215.5
t-192.5 -522.5q0 -330 187 -534.5t489 -204.5q81 0 170.5 11t169.5 35v-142q-84 -20 -170.5 -28t-170.5 -8q-354 0 -586 243t-232 630q0 367 239.5 619t583.5 252q368 0 576 -237.5t208 -617.5zM1142 408v518q-56 29 -103 41.5t-98 12.5q-113 0 -182 -84.5t-69 -261.5
q0 -160 52 -245t166 -85q61 0 120.5 29t113.5 75z" />
    <glyph glyph-name="A" unicode="A" horiz-adv-x="1228" 
d="M-10 0l502 1489h244l502 -1489h-209l-135 416h-569l-135 -416h-200zM839 585l-230 702l-229 -702h459z" />
    <glyph glyph-name="B" unicode="B" horiz-adv-x="1207" 
d="M1161 457q0 -111 -42 -196t-113 -140q-84 -66 -180 -93.5t-248 -27.5h-427v1489h395q159 0 238.5 -10.5t152.5 -49.5q80 -43 117 -112.5t37 -163.5q0 -105 -55.5 -188t-153.5 -130v-8q133 -36 206 -131.5t73 -238.5zM885 1125q0 54 -18 93.5t-58 62.5q-48 27 -107 33
t-163 6h-190v-436h225q93 0 137 9.5t91 39.5q45 29 64 76t19 116zM955 449q0 84 -24 138.5t-97 92.5q-47 25 -102.5 32t-157.5 7h-225v-550h161q130 0 205 12t132 51q56 39 82 88.5t26 128.5z" />
    <glyph glyph-name="C" unicode="C" horiz-adv-x="1230" 
d="M733 -27q-146 0 -268.5 49t-211.5 146t-138 242t-49 333q0 187 47.5 326t138.5 242q89 100 211 152.5t273 52.5q75 0 140.5 -11t121.5 -28q48 -15 98.5 -37.5t99.5 -49.5v-239h-16q-26 24 -67 58t-100 67q-57 31 -124 51t-155 20q-95 0 -180 -39t-149 -115
q-63 -76 -98 -191t-35 -259q0 -153 37 -263.5t101 -186.5q62 -74 146 -111.5t178 -37.5q86 0 159 21t130 53q55 31 95 63.5t63 55.5h15v-236q-49 -23 -92.5 -44t-105.5 -41q-65 -21 -120.5 -32t-144.5 -11z" />
    <glyph glyph-name="D" unicode="D" horiz-adv-x="1389" 
d="M1325 743q0 -204 -82.5 -368t-221.5 -256q-113 -71 -229.5 -95t-297.5 -24h-343v1489h339q210 0 329.5 -31.5t203.5 -86.5q144 -95 223 -252.5t79 -375.5zM1119 746q0 172 -57 293.5t-169 189.5q-79 48 -169 69t-224 21h-151v-1149h151q132 0 231 21t181 78
q103 70 155 186.5t52 290.5z" />
    <glyph glyph-name="E" unicode="E" horiz-adv-x="1149" 
d="M151 0v1489h931v-176h-733v-408h683v-176h-683v-553h733v-176h-931z" />
    <glyph glyph-name="F" unicode="F" horiz-adv-x="1068" 
d="M1042 1313h-693v-420h664v-176h-664v-717h-198v1489h891v-176z" />
    <glyph glyph-name="G" unicode="G" horiz-adv-x="1367" 
d="M774 -29q-158 0 -289 48t-225 146q-94 99 -144 245t-50 336q0 180 50.5 322.5t144.5 243.5q91 98 224 151t291 53q75 0 144 -11t132 -30q50 -15 111.5 -41.5t99.5 -45.5v-239h-17q-37 33 -76.5 62.5t-111.5 63.5q-60 30 -138 50t-168 20q-215 0 -347.5 -162t-132.5 -431
q0 -150 35 -262t101 -190q64 -77 154.5 -117.5t203.5 -40.5q84 0 167 12t140 36v385h-344v174h540v-650q-38 -17 -101.5 -43t-118.5 -41q-73 -22 -132 -33t-143 -11z" />
    <glyph glyph-name="H" unicode="H" horiz-adv-x="1383" 
d="M1232 0h-198v729h-685v-729h-198v1489h198v-584h685v584h198v-1489z" />
    <glyph glyph-name="I" unicode="I" horiz-adv-x="764" 
d="M671 0h-578v152h190v1185h-190v152h578v-152h-190v-1185h190v-152z" />
    <glyph glyph-name="J" unicode="J" horiz-adv-x="853" 
d="M712 387q0 -196 -119.5 -302t-320.5 -106q-48 0 -128.5 8.5t-134.5 20.5v189h11q41 -14 101.5 -31t123.5 -17q92 0 146.5 21t80.5 60q27 40 34.5 98t7.5 134v869h-315v158h513v-1102z" />
    <glyph glyph-name="K" unicode="K" horiz-adv-x="1204" 
d="M1236 0h-257l-543 693l-87 -98v-595h-198v1489h198v-685l610 685h241l-616 -665z" />
    <glyph glyph-name="L" unicode="L" horiz-adv-x="1019" 
d="M1014 0h-863v1489h198v-1313h665v-176z" />
    <glyph glyph-name="M" unicode="M" horiz-adv-x="1578" 
d="M1427 0h-198v1283l-388 -873h-120l-385 873v-1283h-185v1489h270l372 -829l359 829h275v-1489z" />
    <glyph glyph-name="N" unicode="N" horiz-adv-x="1367" 
d="M1216 0h-222l-658 1284v-1284h-185v1489h281l599 -1179v1179h185v-1489z" />
    <glyph glyph-name="O" unicode="O" horiz-adv-x="1449" 
d="M1204 1318q85 -98 132 -243t47 -331q0 -181 -46 -327t-133 -245q-91 -104 -212.5 -153.5t-267.5 -49.5q-151 0 -272 51t-208 152q-86 99 -132 244t-46 328q0 188 46.5 330t132.5 244q86 99 207.5 150.5t271.5 51.5q152 0 274 -53t206 -149zM1177 744q0 148 -32 262
t-90 189q-59 77 -142.5 115.5t-187.5 38.5q-108 0 -188.5 -37.5t-142.5 -116.5q-59 -76 -90.5 -191t-31.5 -260q0 -293 123 -448.5t330 -155.5t329.5 155.5t122.5 448.5z" />
    <glyph glyph-name="P" unicode="P" horiz-adv-x="1129" 
d="M1091 1040q0 -97 -34.5 -183.5t-95.5 -147.5q-77 -76 -181 -115t-263 -39h-168v-555h-198v1489h374q132 0 225 -22t164 -71q83 -57 130 -144.5t47 -211.5zM885 1035q0 77 -26.5 134t-80.5 93q-47 31 -109.5 44t-155.5 13h-164v-595h135q120 0 194 19.5t123 69.5
q44 45 64 98t20 124z" />
    <glyph glyph-name="Q" unicode="Q" horiz-adv-x="1449" 
d="M1388 -364q-54 -14 -113.5 -21t-118.5 -7q-167 0 -271.5 94t-114.5 268h-25h-21q-151 0 -272.5 51.5t-207.5 150.5t-132 244t-46 328q0 188 46.5 330t132.5 244q86 99 207.5 150.5t271.5 51.5q152 0 274 -53t206 -149q85 -98 132 -243t47 -331q0 -289 -113 -477
t-309 -255q5 -56 19.5 -100.5t37.5 -70.5q27 -31 65.5 -45.5t105.5 -14.5q40 0 94 12.5t78 22.5h27v-180zM1177 744q0 148 -32 262t-90 189q-59 77 -142.5 115.5t-187.5 38.5q-108 0 -188.5 -37.5t-142.5 -116.5q-59 -76 -90.5 -191t-31.5 -260q0 -293 123 -449t330 -156
t329.5 156t122.5 449z" />
    <glyph glyph-name="R" unicode="R" horiz-adv-x="1271" 
d="M1304 0h-257l-472 592h-226v-592h-198v1489h384q128 0 214.5 -14t164.5 -65q78 -50 123.5 -129t45.5 -196q0 -164 -83 -274t-226 -163zM876 1070q0 65 -23 115.5t-71 82.5q-42 28 -98 39.5t-139 11.5h-196v-562h174q85 0 153 15t116 62q43 42 63.5 100t20.5 136z" />
    <glyph glyph-name="S" unicode="S" horiz-adv-x="1141" 
d="M566 -27q-162 0 -275.5 33.5t-213.5 82.5v248h14q98 -92 222 -142.5t239 -50.5q164 0 248 68.5t84 180.5q0 89 -44 145t-140 83q-69 20 -126 33t-143 35q-77 20 -138 51t-108 81q-46 49 -71.5 115.5t-25.5 153.5q0 181 141 303.5t360 122.5q125 0 236.5 -25t206.5 -71
v-237h-15q-71 65 -182 113.5t-233 48.5q-138 0 -223 -64.5t-85 -169.5q0 -95 50 -151t145 -82q63 -17 154 -38.5t151 -39.5q154 -47 225 -142t71 -234q0 -87 -35.5 -172t-99.5 -144q-72 -65 -162.5 -100t-226.5 -35z" />
    <glyph glyph-name="T" unicode="T" horiz-adv-x="1196" 
d="M499 0v1313h-500v176h1198v-176h-500v-1313h-198z" />
    <glyph glyph-name="U" unicode="U" horiz-adv-x="1343" 
d="M671 -31q-131 0 -229 34.5t-167 102.5q-78 78 -110 186.5t-32 267.5v929h198v-929q0 -103 13 -173.5t51 -126.5q40 -60 108.5 -91t167.5 -31q93 0 165 31t112 91q37 57 50.5 126t13.5 169v934h198v-929q0 -155 -31.5 -266t-110.5 -188q-71 -69 -165.5 -103t-231.5 -34z
" />
    <glyph glyph-name="V" unicode="V" horiz-adv-x="1222" 
d="M1230 1489l-512 -1489h-214l-512 1489h212l412 -1236l412 1236h202z" />
    <glyph glyph-name="W" unicode="W" horiz-adv-x="1847" 
d="M1821 1489l-374 -1489h-223l-303 1236l-296 -1236h-218l-381 1489h203l300 -1238l298 1238h201l301 -1250l298 1250h194z" />
    <glyph glyph-name="X" unicode="X" horiz-adv-x="1189" 
d="M1181 0h-227l-363 596l-369 -596h-214l473 745l-459 744h226l356 -585l361 585h215l-466 -734z" />
    <glyph glyph-name="Y" unicode="Y" horiz-adv-x="1180" 
d="M1193 1489l-503 -830v-659h-198v638l-503 851h220l384 -657l390 657h210z" />
    <glyph glyph-name="Z" unicode="Z" horiz-adv-x="1145" 
d="M1100 0h-1040v184l797 1129h-761v176h984v-179l-806 -1134h826v-176z" />
    <glyph glyph-name="bracketleft" unicode="[" horiz-adv-x="784" 
d="M686 -392h-520v1948h520v-143h-345v-1662h345v-143z" />
    <glyph glyph-name="backslash" unicode="\" horiz-adv-x="783" 
d="M804 -324h-169l-583 1880h172z" />
    <glyph glyph-name="bracketright" unicode="]" horiz-adv-x="784" 
d="M618 -392h-520v143h345v1662h-345v143h520v-1948z" />
    <glyph glyph-name="asciicircum" unicode="^" horiz-adv-x="1490" 
d="M1357 684h-198l-415 625l-414 -627h-197l549 807h126z" />
    <glyph glyph-name="underscore" unicode="_" horiz-adv-x="1118" 
d="M1134 -300h-1150v130h1150v-130z" />
    <glyph glyph-name="grave" unicode="`" horiz-adv-x="1118" 
d="M670 1302h-149l-273 374h243z" />
    <glyph glyph-name="a" unicode="a" horiz-adv-x="1075" 
d="M760 275v310q-67 -6 -169.5 -16.5t-165.5 -29.5q-75 -23 -124 -70.5t-49 -132.5q0 -96 54 -145t158 -49q89 0 161 38.5t135 94.5zM760 119q-23 -17 -61.5 -47.5t-74.5 -48.5q-50 -26 -96.5 -40t-130.5 -14q-69 0 -131 26t-109 73q-45 46 -72 113.5t-27 142.5
q0 116 49 197.5t155 129.5q94 43 222 59.5t276 24.5v36q0 66 -20 106.5t-56 62.5q-36 23 -88 30.5t-107 7.5q-65 0 -153 -19.5t-176 -56.5h-11v191q52 15 149 33t192 18q115 0 194 -18t142 -65q61 -46 91 -119t30 -178v-764h-187v119z" />
    <glyph glyph-name="b" unicode="b" horiz-adv-x="1132" 
d="M879 562q0 200 -61 303.5t-196 103.5q-77 0 -155.5 -36t-142.5 -91v-640q71 -35 126 -49.5t121 -14.5q144 0 226 102t82 322zM1073 577q0 -274 -133 -441t-333 -167q-91 0 -155.5 22.5t-127.5 60.5l-12 -52h-176v1556h188v-556q71 64 154 106t188 42q189 0 298 -151.5
t109 -419.5z" />
    <glyph glyph-name="c" unicode="c" horiz-adv-x="945" 
d="M580 -25q-115 0 -211 35.5t-165 107.5t-107 181.5t-38 257.5q0 147 39.5 254t105.5 180t164.5 112.5t211.5 39.5q92 0 177.5 -26t152.5 -60v-211h-11q-20 17 -51.5 39t-76.5 45q-39 20 -92 35t-102 15q-146 0 -234.5 -110.5t-88.5 -312.5q0 -198 85.5 -308.5
t237.5 -110.5q92 0 175 38t147 98h11v-211q-28 -13 -70 -31.5t-76 -27.5q-48 -14 -86 -21.5t-98 -7.5z" />
    <glyph glyph-name="d" unicode="d" horiz-adv-x="1132" 
d="M996 0h-188v114q-44 -37 -76 -61t-75 -44q-40 -19 -83 -29.5t-100 -10.5q-91 0 -168.5 38t-131.5 111q-55 74 -85 182.5t-30 249.5q0 147 38 254.5t105 187.5q61 73 147.5 114.5t181.5 41.5q84 0 146 -18.5t131 -57.5v484h188v-1556zM808 272v644q-70 34 -125.5 47
t-120.5 13q-145 0 -227 -108.5t-82 -313.5q0 -197 63 -301.5t202 -104.5q74 0 149 33.5t141 90.5z" />
    <glyph glyph-name="e" unicode="e" horiz-adv-x="1078" 
d="M621 -26q-267 0 -414.5 150.5t-147.5 427.5q0 273 143 434.5t374 161.5q104 0 184 -30t140 -94t92 -156.5t32 -226.5v-102h-774q0 -195 98 -298t271 -103q62 0 121.5 14t107.5 36q51 23 86 44.5t58 40.5h11v-205q-33 -13 -82 -32.5t-88 -30.5q-55 -15 -99.5 -23
t-112.5 -8zM841 683q-2 76 -18 131t-46 93q-33 42 -84.5 64t-127.5 22q-75 0 -127.5 -22.5t-95.5 -65.5q-42 -44 -64 -97.5t-28 -124.5h591z" />
    <glyph glyph-name="f" unicode="f" horiz-adv-x="652" 
d="M724 1376h-10q-25 9 -72 17.5t-84 8.5q-119 0 -169.5 -53.5t-50.5 -193.5v-38h311v-156h-305v-961h-188v961h-127v156h127v37q0 202 97 307t278 105q52 0 102 -5.5t91 -12.5v-172z" />
    <glyph glyph-name="g" unicode="g" horiz-adv-x="1132" 
d="M808 303v613q-70 34 -129.5 48.5t-118.5 14.5q-143 0 -225 -105t-82 -301q0 -186 62.5 -283t202.5 -97q73 0 150.5 29t139.5 81zM176 -179q19 -8 56 -21.5t84 -25.5q52 -13 96 -21t96 -8q87 0 147.5 23t94.5 64q32 41 45 95t13 123v98q-76 -66 -149 -97.5t-183 -31.5
q-191 0 -304 142t-113 408q0 139 39 246.5t105 182.5q63 72 149 111t178 39q87 0 150.5 -20.5t127.5 -58.5l11 48h177v-990q0 -284 -124 -417t-379 -133q-82 0 -167.5 13t-159.5 35v196h10z" />
    <glyph glyph-name="h" unicode="h" horiz-adv-x="1142" 
d="M1014 0h-188v636q0 77 -7.5 143.5t-28.5 106.5q-23 42 -64 62.5t-112 20.5q-70 0 -144.5 -37.5t-145.5 -97.5v-834h-188v1556h188v-563q84 75 166 115t173 40q165 0 258 -108.5t93 -314.5v-725z" />
    <glyph glyph-name="i" unicode="i" horiz-adv-x="468" 
d="M328 0h-188v1117h188v-1117zM341 1304h-214v195h214v-195z" />
    <glyph glyph-name="j" unicode="j" horiz-adv-x="577" 
d="M441 -32q0 -191 -102.5 -291t-282.5 -100q-31 0 -69.5 3t-76.5 9v168h11q22 -5 48.5 -9.5t50.5 -4.5q75 0 123.5 18.5t72.5 58.5q22 36 29.5 91t7.5 134v916h-202v156h390v-1149zM442 1304h-214v195h214v-195z" />
    <glyph glyph-name="k" unicode="k" horiz-adv-x="1020" 
d="M1062 0h-247l-417 539l-74 -72v-467h-188v1556h188v-911l442 472h234l-459 -467z" />
    <glyph glyph-name="l" unicode="l" horiz-adv-x="468" 
d="M328 0h-188v1556h188v-1556z" />
    <glyph glyph-name="m" unicode="m" horiz-adv-x="1720" 
d="M1404 0v646q0 77 -6 142.5t-25 102.5q-20 40 -57 59t-100 19q-58 0 -124.5 -35.5t-137.5 -102.5q1 -17 2.5 -40.5t1.5 -55.5v-735h-188v646q0 77 -6 142.5t-25 102.5q-20 40 -57 59t-100 19q-61 0 -128 -38t-130 -97v-834h-188v1117h188v-124q74 74 146.5 114.5
t159.5 40.5q99 0 175.5 -45t116.5 -148q85 95 166 144t176 49q72 0 131 -22.5t103 -72.5q45 -51 69.5 -127t24.5 -191v-735h-188z" />
    <glyph glyph-name="n" unicode="n" horiz-adv-x="1142" 
d="M1014 0h-188v636q0 77 -7.5 143.5t-28.5 106.5q-23 42 -64 62.5t-112 20.5q-70 0 -144.5 -37.5t-145.5 -97.5v-834h-188v1117h188v-124q84 75 166 115t173 40q165 0 258 -108.5t93 -314.5v-725z" />
    <glyph glyph-name="o" unicode="o" horiz-adv-x="1112" 
d="M1055 558q0 -282 -136 -435.5t-362 -153.5q-233 0 -366.5 158.5t-133.5 430.5q0 280 137.5 435t362.5 155q226 0 362 -154.5t136 -435.5zM861 558q0 217 -79 322.5t-225 105.5q-147 0 -226.5 -105.5t-79.5 -322.5q0 -210 79.5 -318.5t226.5 -108.5q145 0 224.5 106.5
t79.5 320.5z" />
    <glyph glyph-name="p" unicode="p" horiz-adv-x="1132" 
d="M1073 588q0 -279 -133.5 -444.5t-337.5 -165.5q-83 0 -147 19t-131 59v-468h-188v1529h188v-117q70 63 155.5 105.5t186.5 42.5q192 0 299.5 -152t107.5 -408zM879 567q0 191 -61 296.5t-198 105.5q-80 0 -154.5 -35.5t-141.5 -91.5v-633q74 -36 126.5 -49t120.5 -13
q146 0 227 107t81 313z" />
    <glyph glyph-name="q" unicode="q" horiz-adv-x="1132" 
d="M996 -412h-188v534q-82 -75 -160 -109.5t-173 -34.5q-190 0 -303 152.5t-113 424.5q0 144 39.5 254.5t104.5 185.5q62 73 148 113t179 40q86 0 149 -20t129 -59l12 48h176v-1529zM808 280v636q-71 35 -127 49t-120 14q-148 0 -228 -107t-80 -308q0 -196 64 -301.5
t199 -105.5q79 0 154 34t138 89z" />
    <glyph glyph-name="r" unicode="r" horiz-adv-x="738" 
d="M728 915h-10q-21 6 -44.5 7.5t-56.5 1.5q-76 0 -151 -33t-142 -98v-793h-188v1117h188v-166q103 91 179.5 128.5t148.5 37.5q29 0 43.5 -1.5t32.5 -4.5v-196z" />
    <glyph glyph-name="s" unicode="s" horiz-adv-x="914" 
d="M438 -27q-112 0 -209.5 30t-161.5 64v211h10q24 -19 56.5 -42t86.5 -48q48 -22 105.5 -39t119.5 -17q45 0 96 10.5t76 26.5q35 23 50.5 49t15.5 78q0 67 -36.5 101t-129.5 57q-36 9 -94 21t-107 26q-128 37 -186 114.5t-58 187.5q0 151 114 246t303 95q93 0 187 -23
t158 -58v-201h-10q-72 57 -160.5 90t-178.5 33q-93 0 -157 -39t-64 -118q0 -70 38 -104.5t122 -56.5q42 -11 93.5 -21.5t108.5 -24.5q124 -31 186.5 -103t62.5 -196q0 -72 -28.5 -136.5t-83.5 -110.5q-60 -50 -135.5 -76t-189.5 -26z" />
    <glyph glyph-name="t" unicode="t" horiz-adv-x="685" 
d="M474 -22q-154 0 -240 87.5t-86 276.5v619h-127v156h127v321h188v-321h346v-156h-346v-531q0 -85 3 -131t23 -86q17 -35 55 -52.5t103 -17.5q46 0 89 13.5t62 22.5h11v-169q-53 -15 -107.5 -23.5t-100.5 -8.5z" />
    <glyph glyph-name="u" unicode="u" horiz-adv-x="1142" 
d="M1006 0h-188v124q-87 -76 -165 -115.5t-174 -39.5q-73 0 -137.5 24t-112.5 76t-74.5 131t-26.5 192v725h188v-636q0 -89 6.5 -147.5t29.5 -102.5q23 -43 62.5 -63t113.5 -20q69 0 147 39t143 96v834h188v-1117z" />
    <glyph glyph-name="v" unicode="v" horiz-adv-x="1020" 
d="M1014 1117l-421 -1117h-169l-418 1117h203l306 -862l303 862h196z" />
    <glyph glyph-name="w" unicode="w" horiz-adv-x="1520" 
d="M1490 1117l-283 -1117h-174l-273 861l-271 -861h-173l-286 1117h196l197 -865l265 865h155l272 -865l186 865h189z" />
    <glyph glyph-name="x" unicode="x" horiz-adv-x="1014" 
d="M1004 0h-231l-271 422l-279 -422h-213l388 554l-384 563h231l269 -418l276 418h214l-386 -550z" />
    <glyph glyph-name="y" unicode="y" horiz-adv-x="1020" 
d="M1014 1117l-601 -1529h-201l200 466l-406 1063h203l305 -827l304 827h196z" />
    <glyph glyph-name="z" unicode="z" horiz-adv-x="910" 
d="M870 0h-821v139l584 823h-560v155h786v-134l-587 -826h598v-157z" />
    <glyph glyph-name="braceleft" unicode="{" horiz-adv-x="984" 
d="M886 -392h-116q-179 0 -280.5 98.5t-101.5 288.5v149q0 69 -13 139t-50 120t-96.5 75.5t-147.5 25.5h-21v156h21q88 0 147.5 25.5t96.5 75.5t50 120t13 139v149q0 190 101.5 288.5t280.5 98.5h116v-138h-80q-59 0 -102 -12t-74 -41q-32 -30 -47.5 -83t-15.5 -130v-175
q0 -82 -19 -138t-56 -105q-33 -44 -86 -80.5t-110 -59.5v-24q57 -23 109.5 -59.5t86.5 -80.5q37 -49 56 -105t19 -138v-175q0 -77 15.5 -130t47.5 -83q30 -29 73.5 -41t102.5 -12h80v-138z" />
    <glyph glyph-name="bar" unicode="|" horiz-adv-x="783" 
d="M475 -392h-167v1948h167v-1948z" />
    <glyph glyph-name="braceright" unicode="}" horiz-adv-x="984" 
d="M924 504h-21q-88 0 -147.5 -25.5t-96.5 -75.5t-50 -120t-13 -139v-149q0 -190 -101.5 -288.5t-280.5 -98.5h-116v138h80q59 0 102 12t74 41q32 30 47.5 83t15.5 130v175q0 82 19 138t56 105q33 44 86 80.5t110 59.5v24q-57 23 -110 59.5t-86 80.5q-37 49 -56 105t-19 138
v175q0 77 -15.5 130t-47.5 83q-31 29 -74 41t-102 12h-80v138h116q179 0 280.5 -98.5t101.5 -288.5v-149q0 -69 13 -139t50 -120t96.5 -75.5t147.5 -25.5h21v-156z" />
    <glyph glyph-name="asciitilde" unicode="~" horiz-adv-x="1490" 
d="M1356 927q-2 -102 -21 -196.5t-60 -169.5q-41 -73 -102 -119t-159 -46q-57 0 -102.5 15.5t-80.5 40.5t-67 60t-57 65q-27 33 -53 67t-51 60q-27 28 -56 45t-66 17q-50 0 -83 -26.5t-55 -78.5q-21 -50 -29.5 -120t-11.5 -146h-168q2 104 21.5 199t58.5 167
q40 76 106 120.5t156 44.5q60 0 105.5 -16t80.5 -41t64.5 -57t57.5 -67q22 -27 52.5 -66t51.5 -61q29 -30 58.5 -46t62.5 -16q50 0 84.5 28t53.5 76q20 50 29.5 117.5t11.5 149.5h168z" />
    <glyph glyph-name="Adieresis" unicode="&#xc4;" horiz-adv-x="1228" 
d="M-10 0l502 1489h244l502 -1489h-209l-135 416h-569l-135 -416h-200zM839 585l-230 702l-229 -702h459zM913 1657h-201v195h201v-195zM500 1657h-201v195h201v-195z" />
    <glyph glyph-name="Aring" unicode="&#xc5;" horiz-adv-x="1228" 
d="M874.5 1532q-45.5 -69 -116.5 -107l480 -1425h-209l-135 416h-569l-135 -416h-200l479 1422q-72 40 -116.5 108.5t-44.5 154.5q0 128 89 214.5t217 86.5q129 0 217.5 -86t88.5 -215q0 -84 -45.5 -153zM839 584l-230 705l-229 -705h459zM773 1683q0 73 -44 121.5
t-115 48.5q-70 0 -114.5 -48.5t-44.5 -121.5q0 -74 45 -122.5t114 -48.5t114 48.5t45 122.5z" />
    <glyph glyph-name="Ccedilla" unicode="&#xc7;" horiz-adv-x="1230" 
d="M733 -27q-146 0 -268.5 49t-211.5 146t-138 242t-49 333q0 187 47.5 326t138.5 242q89 100 211 152.5t273 52.5q75 0 140.5 -11t121.5 -28q48 -15 98.5 -37.5t99.5 -49.5v-239h-16q-26 24 -67 58t-100 67q-57 31 -124 51t-155 20q-95 0 -180 -39t-149 -115
q-63 -76 -98 -191t-35 -259q0 -153 37 -263.5t101 -186.5q62 -74 146 -111.5t178 -37.5q86 0 159 21t130 53q55 31 95 63.5t63 55.5h15v-236q-49 -23 -92.5 -44t-105.5 -41q-8 -3 -23 -7.5t-21 -5.5q1 -15 3 -39t2 -53q0 -149 -82 -241.5t-227 -92.5q-37 0 -87 6t-90 18v160
h9q24 -11 63 -22.5t79 -11.5q94 0 138 39.5t44 126.5q0 18 -0.5 38t-1.5 45q-18 -1 -33.5 -2t-37.5 -1z" />
    <glyph glyph-name="Eacute" unicode="&#xc9;" horiz-adv-x="1149" 
d="M151 0v1489h931v-176h-733v-408h683v-176h-683v-553h733v-176h-931zM920 2049l-273 -374h-149l179 374h243z" />
    <glyph glyph-name="Ntilde" unicode="&#xd1;" horiz-adv-x="1367" 
d="M1216 0h-222l-658 1284v-1284h-185v1489h281l599 -1179v1179h185v-1489zM1110 1985q-10 -156 -74.5 -234t-171.5 -78q-52 0 -96 19t-86 59q-44 41 -76 62.5t-63 21.5q-49 0 -68.5 -45t-23.5 -121h-140q7 154 76 232.5t169 78.5q51 0 94 -19.5t86 -57.5q43 -39 77.5 -59.5
t63.5 -20.5q47 0 68.5 45t24.5 117h140z" />
    <glyph glyph-name="Odieresis" unicode="&#xd6;" horiz-adv-x="1449" 
d="M1204 1318q85 -98 132 -243t47 -331q0 -181 -46 -327t-133 -245q-91 -104 -212.5 -153.5t-267.5 -49.5q-151 0 -272 51t-208 152q-86 99 -132 244t-46 328q0 188 46.5 330t132.5 244q86 99 207.5 150.5t271.5 51.5q152 0 274 -53t206 -149zM1177 744q0 148 -32 262
t-90 189q-59 77 -142.5 115.5t-187.5 38.5q-108 0 -188.5 -37.5t-142.5 -116.5q-59 -76 -90.5 -191t-31.5 -260q0 -293 123 -448.5t330 -155.5t329.5 155.5t122.5 448.5zM1027 1677h-201v195h201v-195zM614 1677h-201v195h201v-195z" />
    <glyph glyph-name="Udieresis" unicode="&#xdc;" horiz-adv-x="1343" 
d="M671 -31q-131 0 -229 34.5t-167 102.5q-78 78 -110 186.5t-32 267.5v929h198v-929q0 -103 13 -173.5t51 -126.5q40 -60 108.5 -91t167.5 -31q93 0 165 31t112 91q37 57 50.5 126t13.5 169v934h198v-929q0 -155 -31.5 -266t-110.5 -188q-71 -69 -165.5 -103t-231.5 -34z
M1004 1677h-201v195h201v-195zM591 1677h-201v195h201v-195z" />
    <glyph glyph-name="aacute" unicode="&#xe1;" horiz-adv-x="1075" 
d="M760 275v310q-67 -6 -169.5 -16.5t-165.5 -29.5q-75 -23 -124 -70.5t-49 -132.5q0 -96 54 -145t158 -49q89 0 161 38.5t135 94.5zM760 119q-23 -17 -61.5 -47.5t-74.5 -48.5q-50 -26 -96.5 -40t-130.5 -14q-69 0 -131 26t-109 73q-45 46 -72 113.5t-27 142.5
q0 116 49 197.5t155 129.5q94 43 222 59.5t276 24.5v36q0 66 -20 106.5t-56 62.5q-36 23 -88 30.5t-107 7.5q-65 0 -153 -19.5t-176 -56.5h-11v191q52 15 149 33t192 18q115 0 194 -18t142 -65q61 -46 91 -119t30 -178v-764h-187v119zM837 1676l-273 -374h-149l179 374h243z
" />
    <glyph glyph-name="agrave" unicode="&#xe0;" horiz-adv-x="1075" 
d="M760 275v310q-67 -6 -169.5 -16.5t-165.5 -29.5q-75 -23 -124 -70.5t-49 -132.5q0 -96 54 -145t158 -49q89 0 161 38.5t135 94.5zM760 119q-23 -17 -61.5 -47.5t-74.5 -48.5q-50 -26 -96.5 -40t-130.5 -14q-69 0 -131 26t-109 73q-45 46 -72 113.5t-27 142.5
q0 116 49 197.5t155 129.5q94 43 222 59.5t276 24.5v36q0 66 -20 106.5t-56 62.5q-36 23 -88 30.5t-107 7.5q-65 0 -153 -19.5t-176 -56.5h-11v191q52 15 149 33t192 18q115 0 194 -18t142 -65q61 -46 91 -119t30 -178v-764h-187v119zM668 1302h-149l-273 374h243z" />
    <glyph glyph-name="acircumflex" unicode="&#xe2;" horiz-adv-x="1075" 
d="M760 275v310q-67 -6 -169.5 -16.5t-165.5 -29.5q-75 -23 -124 -70.5t-49 -132.5q0 -96 54 -145t158 -49q89 0 161 38.5t135 94.5zM760 119q-23 -17 -61.5 -47.5t-74.5 -48.5q-50 -26 -96.5 -40t-130.5 -14q-69 0 -131 26t-109 73q-45 46 -72 113.5t-27 142.5
q0 116 49 197.5t155 129.5q94 43 222 59.5t276 24.5v36q0 66 -20 106.5t-56 62.5q-36 23 -88 30.5t-107 7.5q-65 0 -153 -19.5t-176 -56.5h-11v191q52 15 149 33t192 18q115 0 194 -18t142 -65q61 -46 91 -119t30 -178v-764h-187v119zM876 1297h-159l-185 256l-184 -256
h-155l228 379h227z" />
    <glyph glyph-name="adieresis" unicode="&#xe4;" horiz-adv-x="1075" 
d="M760 275v310q-67 -6 -169.5 -16.5t-165.5 -29.5q-75 -23 -124 -70.5t-49 -132.5q0 -96 54 -145t158 -49q89 0 161 38.5t135 94.5zM760 119q-23 -17 -61.5 -47.5t-74.5 -48.5q-50 -26 -96.5 -40t-130.5 -14q-69 0 -131 26t-109 73q-45 46 -72 113.5t-27 142.5
q0 116 49 197.5t155 129.5q94 43 222 59.5t276 24.5v36q0 66 -20 106.5t-56 62.5q-36 23 -88 30.5t-107 7.5q-65 0 -153 -19.5t-176 -56.5h-11v191q52 15 149 33t192 18q115 0 194 -18t142 -65q61 -46 91 -119t30 -178v-764h-187v119zM835 1304h-201v195h201v-195zM422 1304
h-201v195h201v-195z" />
    <glyph glyph-name="atilde" unicode="&#xe3;" horiz-adv-x="1075" 
d="M760 275v310q-67 -6 -169.5 -16.5t-165.5 -29.5q-75 -23 -124 -70.5t-49 -132.5q0 -96 54 -145t158 -49q89 0 161 38.5t135 94.5zM760 119q-23 -17 -61.5 -47.5t-74.5 -48.5q-50 -26 -96.5 -40t-130.5 -14q-69 0 -131 26t-109 73q-45 46 -72 113.5t-27 142.5
q0 116 49 197.5t155 129.5q94 43 222 59.5t276 24.5v36q0 66 -20 106.5t-56 62.5q-36 23 -88 30.5t-107 7.5q-65 0 -153 -19.5t-176 -56.5h-11v191q52 15 149 33t192 18q115 0 194 -18t142 -65q61 -46 91 -119t30 -178v-764h-187v119zM933 1632q-10 -156 -74.5 -234
t-171.5 -78q-52 0 -96 19t-86 59q-44 41 -76 62.5t-63 21.5q-49 0 -68.5 -45t-23.5 -121h-140q7 154 76 232.5t169 78.5q51 0 94 -19.5t86 -57.5q43 -39 77.5 -59.5t63.5 -20.5q47 0 68.5 45t24.5 117h140z" />
    <glyph glyph-name="aring" unicode="&#xe5;" horiz-adv-x="1075" 
d="M760 275v310q-67 -6 -169.5 -16.5t-165.5 -29.5q-75 -23 -124 -70.5t-49 -132.5q0 -96 54 -145t158 -49q89 0 161 38.5t135 94.5zM760 119q-23 -17 -61.5 -47t-74.5 -49q-50 -26 -96.5 -40t-130.5 -14q-69 0 -131 26t-109 73q-46 46 -72.5 113.5t-26.5 142.5
q0 116 49 197.5t155 129.5q94 43 222 59.5t276 24.5v36q0 66 -20 106.5t-56 62.5q-36 23 -88 30.5t-107 7.5q-52 0 -104.5 -10t-86.5 -19q-46 -12 -82 -25.5t-56 -21.5h-11v191q47 14 117.5 27t159.5 19q-90 36 -148 110t-58 172q0 128 89 214.5t217 86.5q129 0 217.5 -86
t88.5 -215q0 -99 -60.5 -176t-157.5 -111q86 -12 146.5 -39t99.5 -68q43 -46 65 -109.5t22 -153.5v-764h-187v119zM685 1420q0 73 -44 121.5t-115 48.5q-70 0 -114.5 -48.5t-44.5 -121.5q0 -74 45 -123t114 -49t114 49t45 123z" />
    <glyph glyph-name="ccedilla" unicode="&#xe7;" horiz-adv-x="945" 
d="M580 -25q-115 0 -211 35.5t-165 107.5t-107 181.5t-38 257.5q0 147 39.5 254t105.5 180t164.5 112.5t211.5 39.5q92 0 177.5 -26t152.5 -60v-211h-11q-20 17 -51.5 39t-76.5 45q-39 20 -92 35t-102 15q-146 0 -234.5 -110.5t-88.5 -312.5q0 -198 85.5 -308.5
t237.5 -110.5q92 0 175 38t147 98h11v-211q-28 -13 -65 -29t-68 -26q1 -16 3 -42t2 -55q0 -149 -82 -241.5t-227 -92.5q-37 0 -87 6t-90 18v160h9q24 -11 63 -22.5t79 -11.5q94 0 138 39.5t44 126.5q0 18 -0.5 38.5t-1.5 45.5q-13 0 -22.5 -1t-24.5 -1z" />
    <glyph glyph-name="eacute" unicode="&#xe9;" horiz-adv-x="1078" 
d="M621 -26q-267 0 -414.5 150.5t-147.5 427.5q0 273 143 434.5t374 161.5q104 0 184 -30t140 -94t92 -156.5t32 -226.5v-102h-774q0 -195 98 -298t271 -103q62 0 121.5 14t107.5 36q51 23 86 44.5t58 40.5h11v-205q-33 -13 -82 -32.5t-88 -30.5q-55 -15 -99.5 -23
t-112.5 -8zM841 683q-2 76 -18 131t-46 93q-33 42 -84.5 64t-127.5 22q-75 0 -127.5 -22.5t-95.5 -65.5q-42 -44 -64 -97.5t-28 -124.5h591zM889 1676l-273 -374h-149l179 374h243z" />
    <glyph glyph-name="egrave" unicode="&#xe8;" horiz-adv-x="1078" 
d="M621 -26q-267 0 -414.5 150.5t-147.5 427.5q0 273 143 434.5t374 161.5q104 0 184 -30t140 -94t92 -156.5t32 -226.5v-102h-774q0 -195 98 -298t271 -103q62 0 121.5 14t107.5 36q51 23 86 44.5t58 40.5h11v-205q-33 -13 -82 -32.5t-88 -30.5q-55 -15 -99.5 -23
t-112.5 -8zM841 683q-2 76 -18 131t-46 93q-33 42 -84.5 64t-127.5 22q-75 0 -127.5 -22.5t-95.5 -65.5q-42 -44 -64 -97.5t-28 -124.5h591zM685 1302h-149l-273 374h243z" />
    <glyph glyph-name="ecircumflex" unicode="&#xea;" horiz-adv-x="1078" 
d="M621 -26q-267 0 -414.5 150.5t-147.5 427.5q0 273 143 434.5t374 161.5q104 0 184 -30t140 -94t92 -156.5t32 -226.5v-102h-774q0 -195 98 -298t271 -103q62 0 121.5 14t107.5 36q51 23 86 44.5t58 40.5h11v-205q-33 -13 -82 -32.5t-88 -30.5q-55 -15 -99.5 -23
t-112.5 -8zM841 683q-2 76 -18 131t-46 93q-33 42 -84.5 64t-127.5 22q-75 0 -127.5 -22.5t-95.5 -65.5q-42 -44 -64 -97.5t-28 -124.5h591zM915 1297h-159l-185 256l-184 -256h-155l228 379h227z" />
    <glyph glyph-name="edieresis" unicode="&#xeb;" horiz-adv-x="1078" 
d="M621 -26q-267 0 -414.5 150.5t-147.5 427.5q0 273 143 434.5t374 161.5q104 0 184 -30t140 -94t92 -156.5t32 -226.5v-102h-774q0 -195 98 -298t271 -103q62 0 121.5 14t107.5 36q51 23 86 44.5t58 40.5h11v-205q-33 -13 -82 -32.5t-88 -30.5q-55 -15 -99.5 -23
t-112.5 -8zM841 683q-2 76 -18 131t-46 93q-33 42 -84.5 64t-127.5 22q-75 0 -127.5 -22.5t-95.5 -65.5q-42 -44 -64 -97.5t-28 -124.5h591zM880 1304h-201v195h201v-195zM467 1304h-201v195h201v-195z" />
    <glyph glyph-name="iacute" unicode="&#xed;" horiz-adv-x="468" 
d="M328 0h-188v1117h188v-1117zM542 1676l-273 -374h-149l179 374h243z" />
    <glyph glyph-name="igrave" unicode="&#xec;" horiz-adv-x="468" 
d="M328 0h-188v1117h188v-1117zM421 1302h-149l-273 374h243z" />
    <glyph glyph-name="icircumflex" unicode="&#xee;" horiz-adv-x="468" 
d="M328 0h-188v1117h188v-1117zM521 1297h-151l-139 263l-138 -263h-147l174 379h227z" />
    <glyph glyph-name="idieresis" unicode="&#xef;" horiz-adv-x="468" 
d="M328 0h-188v1117h188v-1117zM506 1304h-189v195h189v-195zM151 1304h-189v195h189v-195z" />
    <glyph glyph-name="ntilde" unicode="&#xf1;" horiz-adv-x="1142" 
d="M1014 0h-188v636q0 77 -7.5 143.5t-28.5 106.5q-23 42 -64 62.5t-112 20.5q-70 0 -144.5 -37.5t-145.5 -97.5v-834h-188v1117h188v-124q84 75 166 115t173 40q165 0 258 -108.5t93 -314.5v-725zM978 1632q-10 -156 -74.5 -234t-171.5 -78q-52 0 -96 19t-86 59
q-44 41 -76 62.5t-63 21.5q-49 0 -68.5 -45t-23.5 -121h-140q7 154 76 232.5t169 78.5q51 0 94 -19.5t86 -57.5q43 -39 77.5 -59.5t63.5 -20.5q47 0 68.5 45t24.5 117h140z" />
    <glyph glyph-name="oacute" unicode="&#xf3;" horiz-adv-x="1112" 
d="M1055 558q0 -282 -136 -435.5t-362 -153.5q-233 0 -366.5 158.5t-133.5 430.5q0 280 137.5 435t362.5 155q226 0 362 -154.5t136 -435.5zM861 558q0 217 -79 322.5t-225 105.5q-147 0 -226.5 -105.5t-79.5 -322.5q0 -210 79.5 -318.5t226.5 -108.5q145 0 224.5 106.5
t79.5 320.5zM868 1676l-273 -374h-149l179 374h243z" />
    <glyph glyph-name="ograve" unicode="&#xf2;" horiz-adv-x="1112" 
d="M1055 558q0 -282 -136 -435.5t-362 -153.5q-233 0 -366.5 158.5t-133.5 430.5q0 280 137.5 435t362.5 155q226 0 362 -154.5t136 -435.5zM861 558q0 217 -79 322.5t-225 105.5q-147 0 -226.5 -105.5t-79.5 -322.5q0 -210 79.5 -318.5t226.5 -108.5q145 0 224.5 106.5
t79.5 320.5zM667 1302h-149l-273 374h243z" />
    <glyph glyph-name="ocircumflex" unicode="&#xf4;" horiz-adv-x="1112" 
d="M1055 558q0 -282 -136 -435.5t-362 -153.5q-233 0 -366.5 158.5t-133.5 430.5q0 280 137.5 435t362.5 155q226 0 362 -154.5t136 -435.5zM861 558q0 217 -79 322.5t-225 105.5q-147 0 -226.5 -105.5t-79.5 -322.5q0 -210 79.5 -318.5t226.5 -108.5q145 0 224.5 106.5
t79.5 320.5zM900 1297h-159l-185 256l-184 -256h-155l228 379h227z" />
    <glyph glyph-name="odieresis" unicode="&#xf6;" horiz-adv-x="1112" 
d="M1055 558q0 -282 -136 -435.5t-362 -153.5q-233 0 -366.5 158.5t-133.5 430.5q0 280 137.5 435t362.5 155q226 0 362 -154.5t136 -435.5zM861 558q0 217 -79 322.5t-225 105.5q-147 0 -226.5 -105.5t-79.5 -322.5q0 -210 79.5 -318.5t226.5 -108.5q145 0 224.5 106.5
t79.5 320.5zM864 1304h-201v195h201v-195zM451 1304h-201v195h201v-195z" />
    <glyph glyph-name="otilde" unicode="&#xf5;" horiz-adv-x="1112" 
d="M1055 558q0 -282 -136 -435.5t-362 -153.5q-233 0 -366.5 158.5t-133.5 430.5q0 280 137.5 435t362.5 155q226 0 362 -154.5t136 -435.5zM861 558q0 217 -79 322.5t-225 105.5q-147 0 -226.5 -105.5t-79.5 -322.5q0 -210 79.5 -318.5t226.5 -108.5q145 0 224.5 106.5
t79.5 320.5zM957 1632q-10 -156 -74.5 -234t-171.5 -78q-52 0 -96 19t-86 59q-44 41 -76 62.5t-63 21.5q-49 0 -68.5 -45t-23.5 -121h-140q7 154 76 232.5t169 78.5q51 0 94 -19.5t86 -57.5q43 -39 77.5 -59.5t63.5 -20.5q47 0 68.5 45t24.5 117h140z" />
    <glyph glyph-name="uacute" unicode="&#xfa;" horiz-adv-x="1142" 
d="M1006 0h-188v124q-87 -76 -165 -115.5t-174 -39.5q-73 0 -137.5 24t-112.5 76t-74.5 131t-26.5 192v725h188v-636q0 -89 6.5 -147.5t29.5 -102.5q23 -43 62.5 -63t113.5 -20q69 0 147 39t143 96v834h188v-1117zM868 1676l-273 -374h-149l179 374h243z" />
    <glyph glyph-name="ugrave" unicode="&#xf9;" horiz-adv-x="1142" 
d="M1006 0h-188v124q-87 -76 -165 -115.5t-174 -39.5q-73 0 -137.5 24t-112.5 76t-74.5 131t-26.5 192v725h188v-636q0 -89 6.5 -147.5t29.5 -102.5q23 -43 62.5 -63t113.5 -20q69 0 147 39t143 96v834h188v-1117zM687 1302h-149l-273 374h243z" />
    <glyph glyph-name="ucircumflex" unicode="&#xfb;" horiz-adv-x="1142" 
d="M1006 0h-188v124q-87 -76 -165 -115.5t-174 -39.5q-73 0 -137.5 24t-112.5 76t-74.5 131t-26.5 192v725h188v-636q0 -89 6.5 -147.5t29.5 -102.5q23 -43 62.5 -63t113.5 -20q69 0 147 39t143 96v834h188v-1117zM908 1297h-159l-185 256l-184 -256h-155l228 379h227z" />
    <glyph glyph-name="udieresis" unicode="&#xfc;" horiz-adv-x="1142" 
d="M1006 0h-188v124q-87 -76 -165 -115.5t-174 -39.5q-73 0 -137.5 24t-112.5 76t-74.5 131t-26.5 192v725h188v-636q0 -89 6.5 -147.5t29.5 -102.5q23 -43 62.5 -63t113.5 -20q69 0 147 39t143 96v834h188v-1117zM879 1304h-201v195h201v-195zM466 1304h-201v195h201v-195z
" />
    <glyph glyph-name="dagger" unicode="&#x2020;" horiz-adv-x="1118" 
d="M983 1034l-363 5l5 -904h-132l5 904l-363 -5v129l363 -5l-5 398h132l-5 -398l363 5v-129z" />
    <glyph glyph-name="degree" unicode="&#xb0;" horiz-adv-x="964" 
d="M863 1135q0 -160 -110 -270t-271 -110q-159 0 -270 109t-111 271q0 160 110 270t271 110t271 -110t110 -270zM706 1135q0 96 -64 162t-160 66t-160 -66t-64 -162q0 -98 65.5 -163t158.5 -65q96 0 160 66.5t64 161.5z" />
    <glyph glyph-name="cent" unicode="&#xa2;" horiz-adv-x="1118" 
d="M557 2q-215 25 -329 169t-114 386q0 238 118 386t325 172v360h114v-359q87 -3 167.5 -26.5t136.5 -52.5v-200h-10q-62 51 -132 89t-162 51v-836q49 5 98.5 23t83.5 38q36 21 64 41.5t48 37.5h10v-198q-65 -30 -135.5 -53.5t-168.5 -28.5v-362h-114v363zM557 146v825
q-116 -21 -183 -125.5t-67 -288.5q0 -188 68.5 -289.5t181.5 -121.5z" />
    <glyph glyph-name="sterling" unicode="&#xa3;" horiz-adv-x="1118" 
d="M1031 0h-942v207q111 33 156.5 128t45.5 278h-161v138h161v320q0 201 116 324t301 123q97 0 166 -15.5t127 -32.5v-206h-10q-58 41 -129 64t-135 23q-123 0 -183.5 -77t-60.5 -222v-301h364v-138h-364v-61q0 -117 -58.5 -212.5t-163.5 -157.5v-11h770v-171z" />
    <glyph glyph-name="section" unicode="&#xa7;" horiz-adv-x="1118" 
d="M759 401q24 35 37.5 67.5t13.5 86.5q0 49 -14.5 85t-39.5 59q-24 23 -56 38.5t-74 28.5q-33 10 -77 22.5t-99 30.5q-20 -12 -41.5 -30t-47.5 -51q-20 -26 -36.5 -70t-16.5 -89q0 -81 38 -129t146 -81q34 -10 77.5 -23.5t97.5 -30.5q19 12 44 33t48 53zM182 -133
q26 -13 64.5 -29t74.5 -28q47 -15 87 -22.5t101 -7.5q114 0 190.5 46.5t76.5 137.5q0 54 -18.5 87.5t-59.5 59.5q-42 25 -103.5 42.5t-134.5 38.5q-88 25 -146.5 51t-105.5 69q-45 41 -67 95t-22 126q0 94 49 178.5t150 146.5v7q-91 50 -130.5 121t-39.5 161q0 168 128 270
t352 102q85 0 157 -13t161 -44v-194h-10q-90 45 -167.5 66t-161.5 21q-112 0 -189.5 -45.5t-77.5 -133.5q0 -57 20.5 -93t59.5 -59q39 -24 99.5 -43t137.5 -39q184 -50 262.5 -128.5t78.5 -212.5q0 -108 -54.5 -189t-144.5 -135v-7q87 -46 128.5 -116t41.5 -164
q0 -74 -31.5 -145t-89.5 -119q-62 -53 -148.5 -82t-209.5 -29q-79 0 -157 14t-161 44v194h10z" />
    <glyph glyph-name="bullet" unicode="&#x2022;" horiz-adv-x="931" 
d="M817 662q0 -145 -103.5 -248t-248.5 -103t-248 103t-103 248t103 248t248 103t248.5 -103t103.5 -248z" />
    <glyph glyph-name="paragraph" unicode="&#xb6;" horiz-adv-x="1118" 
d="M982 -363h-140v1722h-187v-1722h-140v956q-206 5 -332 129t-126 328q0 207 130 323t373 116h422v-1852z" />
    <glyph glyph-name="germandbls" unicode="&#xdf;" horiz-adv-x="1123" 
d="M1068 481q0 -218 -135 -361.5t-351 -143.5q-25 0 -62.5 3t-59.5 7v166h10q28 -8 59 -12.5t61 -4.5q77 0 131.5 27.5t87.5 74.5q35 51 49.5 111t14.5 141q0 169 -103 248.5t-304 79.5v157q152 0 233.5 57.5t81.5 190.5q0 33 -10 68.5t-34 63.5q-24 29 -62 46.5t-97 17.5
q-53 0 -96 -14.5t-81 -54.5q-36 -37 -56.5 -103t-20.5 -160v-1086h-188v1080q0 130 34 218t95 150q60 60 142.5 89t174.5 29q168 0 279.5 -85t111.5 -240q0 -112 -71 -201t-184 -121v-9q164 -37 257 -147t93 -282z" />
    <glyph glyph-name="registered" unicode="&#xae;" horiz-adv-x="1902" 
d="M1816 655q0 -358 -253.5 -611.5t-611.5 -253.5t-611.5 253.5t-253.5 611.5t253.5 611t611.5 253t611.5 -253t253.5 -611zM1701 655q0 313 -219.5 533.5t-529.5 220.5t-529.5 -220.5t-219.5 -533.5t219.5 -534t529.5 -221t529.5 221t219.5 534zM1448 215h-227l-283 355
h-123v-355h-165v915h279q94 0 148.5 -7t110.5 -39q60 -34 87 -82t27 -123q0 -100 -55.5 -164t-144.5 -100zM1120 868q0 37 -12 64t-42 46q-25 16 -56 21.5t-80 5.5h-115v-309h98q48 0 90 9.5t68 32.5t37.5 53t11.5 77z" />
    <glyph glyph-name="copyright" unicode="&#xa9;" horiz-adv-x="1902" 
d="M1816 655q0 -358 -253.5 -611.5t-611.5 -253.5t-611.5 253.5t-253.5 611.5t253.5 611t611.5 253t611.5 -253t253.5 -611zM1701 655q0 313 -219.5 533.5t-529.5 220.5t-529.5 -220.5t-219.5 -533.5t219.5 -534t529.5 -221t529.5 221t219.5 534zM1274 255
q-67 -30 -134 -52.5t-158 -22.5q-209 0 -330 123.5t-121 356.5q0 230 125 356.5t326 126.5q83 0 159 -22t133 -51v-181h-16q-43 38 -119 72.5t-153 34.5q-123 0 -196.5 -82t-73.5 -254q0 -162 70 -247.5t200 -85.5q84 0 159 36.5t113 70.5h16v-179z" />
    <glyph glyph-name="trademark" unicode="&#x2122;" horiz-adv-x="1794" 
d="M1634 785h-124v616h-20l-204 -453h-85l-206 460h-25v-623h-123v704h238l161 -382l161 382h227v-704zM692 1372h-229v-587h-127v587h-229v117h585v-117z" />
    <glyph glyph-name="acute" unicode="&#xb4;" horiz-adv-x="1118" 
d="M871 1676l-273 -374h-149l179 374h243z" />
    <glyph glyph-name="dieresis" unicode="&#xa8;" horiz-adv-x="1118" 
d="M867 1304h-201v195h201v-195zM454 1304h-201v195h201v-195z" />
    <glyph glyph-name="AE" unicode="&#xc6;" horiz-adv-x="1870" 
d="M1802 0h-912v557h-505l-217 -557h-207l603 1489h1238v-176h-716v-408h666v-176h-666v-553h716v-176zM890 723v601h-194l-245 -601h439z" />
    <glyph glyph-name="Oslash" unicode="&#xd8;" horiz-adv-x="1449" 
d="M1383 744q0 -368 -180 -571.5t-479 -203.5q-110 0 -204.5 29t-171.5 82l-132 -196h-148l189 278q-90 99 -140.5 245t-50.5 337q0 368 180.5 572t477.5 204q114 0 203.5 -27.5t169.5 -82.5l115 171h148l-171 -251q91 -100 142.5 -243.5t51.5 -342.5zM995 1260
q-52 44 -120 66.5t-150 22.5q-208 0 -331.5 -154t-123.5 -451q0 -135 26 -239.5t73 -180.5zM1179 744q0 138 -27.5 246t-73.5 179l-628 -937q57 -46 120.5 -69t154.5 -23q206 0 330 155.5t124 448.5z" />
    <glyph glyph-name="plusminus" unicode="&#xb1;" horiz-adv-x="1490" 
d="M1328 159h-1166v158h500v422h-500v158h500v505h166v-505h500v-158h-500v-422h500v-158z" />
    <glyph glyph-name="yen" unicode="&#xa5;" horiz-adv-x="1118" 
d="M1059 1489l-408 -811v-100h342v-138h-340v-440h-188v440h-340v138h342v79l-411 832h210l294 -639l298 639h201z" />
    <glyph glyph-name="mu1" unicode="&#xb5;" horiz-adv-x="1163" 
d="M1027 0h-172v116h-6q-60 -63 -120.5 -98t-150.5 -35q-92 0 -145 35t-109 97v-527h-188v1529h188v-842q42 -50 105 -80.5t149 -30.5q90 0 151.5 29t109.5 82v842h188v-1117z" />
    <glyph glyph-name="ordfeminine" unicode="&#xaa;" horiz-adv-x="1010" 
d="M874 566h-166v91q-19 -15 -51 -38.5t-63 -37.5q-41 -19 -80.5 -29.5t-109.5 -10.5q-124 0 -207 83.5t-83 214.5q0 104 43 169.5t123 103.5q75 36 189 51t239 21v19q0 52 -16.5 84t-48.5 50q-29 17 -72 22.5t-89 5.5q-78 0 -158.5 -23.5t-119.5 -37.5h-15v170
q44 13 131.5 29t162.5 16q192 0 291.5 -76.5t99.5 -248.5v-628zM708 802v243q-65 -4 -151 -12t-137 -23q-60 -17 -97 -55.5t-37 -105.5q0 -75 44 -114t131 -39q76 0 136.5 33t110.5 73z" />
    <glyph glyph-name="ordmasculine" unicode="&#xba;" horiz-adv-x="1010" 
d="M926 1030q0 -234 -117 -362t-303 -128q-193 0 -307 131.5t-114 358.5q0 233 117 361.5t304 128.5t303.5 -127t116.5 -363zM746 1030q0 173 -64.5 256.5t-175.5 83.5t-176 -82.5t-65 -257.5q0 -169 64 -254.5t177 -85.5q111 0 175.5 85.5t64.5 254.5z" />
    <glyph glyph-name="ae" unicode="&#xe6;" horiz-adv-x="1802" 
d="M817 298q-19 54 -29 119.5t-10 140.5q-95 -3 -189.5 -8.5t-169.5 -26.5q-74 -20 -121 -66t-47 -127q0 -95 56 -141.5t167 -46.5q91 0 184 44t159 112zM1340 138q65 0 125.5 14.5t106.5 35.5q51 23 86 44.5t58 40.5h11v-205l-82.5 -32.5t-88.5 -30.5q-55 -15 -99.5 -23
t-114.5 -8q-161 0 -276 52t-189 155q-21 -19 -64.5 -59.5t-91.5 -68.5q-65 -38 -134.5 -60t-179.5 -22q-146 0 -247.5 97t-101.5 249q0 129 53 204t150 117q92 39 231.5 52t293.5 16v58q0 65 -21.5 108t-60.5 67q-36 22 -87.5 31.5t-116.5 9.5q-81 0 -176.5 -26.5
t-152.5 -51.5h-15v191q49 14 151.5 33.5t193.5 19.5q160 0 260 -48t153 -136q66 81 165 133.5t217 52.5q224 0 338.5 -134.5t114.5 -372.5v-82h-788q0 -114 30 -195.5t83 -132.5q53 -50 120 -71.5t146 -21.5zM1567 703q-5 59 -20.5 112.5t-47.5 92.5q-31 38 -85 61.5
t-127 23.5q-78 0 -129.5 -21.5t-94.5 -62.5q-40 -38 -64.5 -92.5t-34.5 -113.5h603z" />
    <glyph glyph-name="oslash" unicode="&#xf8;" horiz-adv-x="1112" 
d="M1055 558q0 -282 -136 -435t-362 -153q-79 0 -145 20.5t-124 56.5l-123 -194h-124l168 261q-72 76 -112 187t-40 257q0 280 137.5 434.5t362.5 154.5q75 0 142 -20t124 -57l108 170h125l-152 -236q71 -77 111 -186t40 -260zM735 932q-34 26 -78 40t-100 14
q-147 0 -228 -107.5t-81 -320.5q0 -97 14.5 -169.5t43.5 -126.5zM864 558q0 99 -14.5 173t-42.5 125l-429 -669q38 -29 79.5 -42.5t99.5 -13.5q145 0 226 106.5t81 320.5z" />
    <glyph glyph-name="questiondown" unicode="&#xbf;" horiz-adv-x="970" 
d="M632 1278h-204v211h204v-211zM861 40q-79 -30 -167 -50t-195 -20q-205 0 -323 104.5t-118 275.5q0 94 30 168t89 141q53 59 122.5 106.5t144.5 95.5v228h179v-305q-71 -43 -131.5 -81t-115.5 -89q-51 -48 -82.5 -109t-31.5 -140q0 -113 71 -168.5t185 -55.5
q99 0 191 34.5t141 68.5h11v-204z" />
    <glyph glyph-name="exclamdown" unicode="&#xa1;" horiz-adv-x="680" 
d="M442 1278h-204v211h204v-211zM452 0h-224l28 1079h166z" />
    <glyph glyph-name="logicalnot" unicode="&#xac;" horiz-adv-x="1490" 
d="M1323 57h-171v545h-995v160h1166v-705z" />
    <glyph glyph-name="florin" unicode="&#x192;" horiz-adv-x="1118" 
d="M1087 1320h-10q-27 10 -78.5 23.5t-89.5 13.5q-112 0 -162 -60.5t-72 -213.5l-29 -199h292v-138h-310l-70 -511q-32 -231 -137 -334t-286 -103q-39 0 -86.5 4.5t-97.5 13.5v181h10q28 -10 77.5 -23.5t90.5 -13.5q112 0 163 61t71 213l72 512h-178v138h196l27 198
q17 123 54 206.5t92 136.5q52 49 125.5 71.5t151.5 22.5q50 0 91 -4.5t93 -13.5v-181z" />
    <glyph glyph-name="guillemotleft" unicode="&#xab;" horiz-adv-x="1174" 
d="M1043 191l-488 419v85l488 418v-188l-317 -273l317 -273v-188zM613 162l-510 446v89l510 445v-196l-331 -294l331 -294v-196z" />
    <glyph glyph-name="guillemotright" unicode="&#xbb;" horiz-adv-x="1174" 
d="M1071 608l-510 -446v196l331 294l-331 294v196l510 -445v-89zM619 610l-488 -419v188l317 273l-317 273v188l488 -418v-85z" />
    <glyph glyph-name="ellipsis" unicode="&#x2026;" horiz-adv-x="1674" 
d="M1497 0h-204v223h204v-223zM939 0h-204v223h204v-223zM381 0h-204v223h204v-223z" />
    <glyph glyph-name="Agrave" unicode="&#xc0;" horiz-adv-x="1228" 
d="M-10 0l502 1489h244l502 -1489h-209l-135 416h-569l-135 -416h-200zM839 585l-230 702l-229 -702h459zM769 1675h-149l-273 374h243z" />
    <glyph glyph-name="Atilde" unicode="&#xc3;" horiz-adv-x="1228" 
d="M-10 0l502 1489h244l502 -1489h-209l-135 416h-569l-135 -416h-200zM839 585l-230 702l-229 -702h459zM1010 1965q-10 -156 -74.5 -234t-171.5 -78q-52 0 -96 19t-86 59q-44 41 -76 62.5t-63 21.5q-49 0 -68.5 -45t-23.5 -121h-140q7 154 76 232.5t169 78.5
q51 0 94 -19.5t86 -57.5q43 -39 77.5 -59.5t63.5 -20.5q47 0 68.5 45t24.5 117h140z" />
    <glyph glyph-name="Otilde" unicode="&#xd5;" horiz-adv-x="1449" 
d="M1204 1318q85 -98 132 -243t47 -331q0 -181 -46 -327t-133 -245q-91 -104 -212.5 -153.5t-267.5 -49.5q-151 0 -272 51t-208 152q-86 99 -132 244t-46 328q0 188 46.5 330t132.5 244q86 99 207.5 150.5t271.5 51.5q152 0 274 -53t206 -149zM1177 744q0 148 -32 262
t-90 189q-59 77 -142.5 115.5t-187.5 38.5q-108 0 -188.5 -37.5t-142.5 -116.5q-59 -76 -90.5 -191t-31.5 -260q0 -293 123 -448.5t330 -155.5t329.5 155.5t122.5 448.5zM1110 1985q-10 -156 -74.5 -234t-171.5 -78q-52 0 -96 19t-86 59q-44 41 -76 62.5t-63 21.5
q-49 0 -68.5 -45t-23.5 -121h-140q7 154 76 232.5t169 78.5q51 0 94 -19.5t86 -57.5q43 -39 77.5 -59.5t63.5 -20.5q47 0 68.5 45t24.5 117h140z" />
    <glyph glyph-name="OE" unicode="&#x152;" horiz-adv-x="2000" 
d="M1932 0h-1031q-184 0 -308 26t-225 92q-144 95 -223 253.5t-79 374.5q0 209 84.5 370.5t220.5 252.5q89 60 209.5 90t318.5 30h1033v-176h-723v-408h673v-176h-673v-553h723v-176zM1012 171v1147h-119q-148 0 -241.5 -22.5t-172.5 -75.5q-103 -68 -155 -188t-52 -289
q0 -172 57 -293.5t169 -189.5q83 -50 173.5 -69.5t219.5 -19.5h121z" />
    <glyph glyph-name="oe" unicode="&#x153;" horiz-adv-x="1861" 
d="M1625 683q-4 157 -71 233.5t-202 76.5q-128 0 -214.5 -82t-98.5 -228h586zM856 558q0 217 -78.5 322.5t-223.5 105.5q-148 0 -225.5 -110.5t-77.5 -317.5q0 -210 78.5 -318.5t224.5 -108.5q144 0 223 107.5t79 319.5zM1403 138q62 0 121.5 14t107.5 36q51 23 86 44.5
t58 40.5h11v-205q-33 -13 -82 -32.5t-88 -30.5q-55 -15 -99.5 -23t-112.5 -8q-147 0 -264.5 52.5t-188.5 152.5q-67 -103 -164.5 -156.5t-233.5 -53.5q-231 0 -364 158t-133 431q0 278 135 434t362 156q131 0 234.5 -55t167.5 -156q67 101 172.5 156t234.5 55
q215 0 330 -133t115 -374v-102h-769q0 -193 97 -297t267 -104z" />
    <glyph glyph-name="endash" unicode="&#x2013;" horiz-adv-x="1118" 
d="M1122 572h-1126v160h1126v-160z" />
    <glyph glyph-name="emdash" unicode="&#x2014;" horiz-adv-x="1862" 
d="M1866 572h-1870v160h1870v-160z" />
    <glyph glyph-name="quotedblleft" unicode="&#x201c;" horiz-adv-x="822" 
d="M725 997h-134l-261 559h238zM331 997h-134l-261 559h238z" />
    <glyph glyph-name="quotedblright" unicode="&#x201d;" horiz-adv-x="822" 
d="M896 1556l-261 -559h-134l157 559h238zM502 1556l-261 -559h-134l157 559h238z" />
    <glyph glyph-name="quoteleft" unicode="&#x2018;" horiz-adv-x="432" 
d="M335 997h-138l-261 559h242z" />
    <glyph glyph-name="quoteright" unicode="&#x2019;" horiz-adv-x="432" 
d="M496 1556l-261 -559h-138l157 559h242z" />
    <glyph glyph-name="divide" unicode="&#xf7;" horiz-adv-x="1490" 
d="M864 1012h-238v275h238v-275zM1333 572h-1176v160h1176v-160zM864 17h-238v275h238v-275z" />
    <glyph glyph-name="ydieresis" unicode="&#xff;" horiz-adv-x="1020" 
d="M1014 1117l-601 -1529h-201l200 466l-406 1063h203l305 -827l304 827h196zM829 1304h-201v195h201v-195zM416 1304h-201v195h201v-195z" />
    <glyph glyph-name="Ydieresis" unicode="&#x178;" horiz-adv-x="1180" 
d="M1193 1489l-503 -830v-659h-198v638l-503 851h220l384 -657l390 657h210zM900 1677h-201v195h201v-195zM487 1677h-201v195h201v-195z" />
    <glyph glyph-name="Euro" unicode="&#x20ac;" horiz-adv-x="1118" 
d="M945 662l-27 -138h-620q44 -170 146 -268q116 -112 290 -112q187 0 324 92h14v-193q-170 -70 -339 -70q-274 0 -444 158q-154 143 -203 393h-114l28 138h69q-3 40 -3 81q0 29 1 57h-95l28 138h83q46 262 207 414q174 164 446 164q178 0 336 -71v-195h-16q-141 97 -322 97
q-184 0 -302 -123q-101 -106 -140 -286h709l-27 -138h-700q-2 -28 -2 -57q0 -41 3 -81h670z" />
    <glyph glyph-name="guilsinglleft" unicode="&#x2039;" horiz-adv-x="784" 
d="M633 172l-510 436v89l510 435v-199l-331 -281l331 -281v-199z" />
    <glyph glyph-name="guilsinglright" unicode="&#x203a;" horiz-adv-x="784" 
d="M661 608l-510 -436v199l331 281l-331 281v199l510 -435v-89z" />
    <glyph glyph-name="daggerdbl" unicode="&#x2021;" horiz-adv-x="1118" 
d="M983 507l-363 5l5 -388h-132l5 388l-363 -5v129l363 -5v418l-363 -5v129l363 -5l-5 388h132l-5 -388l363 5v-129l-363 5v-418l363 5v-129z" />
    <glyph glyph-name="quotesinglbase" unicode="&#x201a;" horiz-adv-x="432" 
d="M386 283l-261 -559h-138l157 559h242z" />
    <glyph glyph-name="quotedblbase" unicode="&#x201e;" horiz-adv-x="814" 
d="M781 283l-261 -559h-134l157 559h238zM387 283l-261 -559h-134l157 559h238z" />
    <glyph glyph-name="perthousand" unicode="&#x2030;" horiz-adv-x="2848" 
d="M807 1076q0 -225 -90.5 -333.5t-261.5 -108.5q-174 0 -263.5 110t-89.5 331q0 224 91 333t262 109q174 0 263 -110t89 -331zM1473 1489l-780 -1489h-165l780 1489h165zM1897 413q0 -225 -90.5 -333.5t-261.5 -108.5q-174 0 -263.5 110t-89.5 331q0 224 91 333t262 109
q174 0 263 -110t89 -331zM629 1076q0 152 -35.5 230t-138.5 78t-139 -79t-36 -230q0 -150 34 -229t141 -79q103 0 138.5 79t35.5 230zM1719 413q0 152 -35.5 230t-138.5 78t-139 -79t-36 -230q0 -150 34 -229t141 -79q103 0 138.5 79t35.5 230zM2741 413
q0 -225 -90.5 -333.5t-261.5 -108.5q-174 0 -263.5 110t-89.5 331q0 224 91 333t262 109q174 0 263 -110t89 -331zM2563 413q0 152 -35.5 230t-138.5 78t-139 -79t-36 -230q0 -150 34 -229t141 -79q103 0 138.5 79t35.5 230z" />
    <glyph glyph-name="Acircumflex" unicode="&#xc2;" horiz-adv-x="1228" 
d="M-10 0l502 1489h244l502 -1489h-209l-135 416h-569l-135 -416h-200zM839 585l-230 702l-229 -702h459zM940 1650h-159l-185 256l-184 -256h-155l228 379h227z" />
    <glyph glyph-name="Ecircumflex" unicode="&#xca;" horiz-adv-x="1149" 
d="M151 0v1489h931v-176h-733v-408h683v-176h-683v-553h733v-176h-931zM961 1670h-159l-185 256l-184 -256h-155l228 379h227z" />
    <glyph glyph-name="Aacute" unicode="&#xc1;" horiz-adv-x="1228" 
d="M-10 0l502 1489h244l502 -1489h-209l-135 416h-569l-135 -416h-200zM839 585l-230 702l-229 -702h459zM862 2049l-273 -374h-149l179 374h243z" />
    <glyph glyph-name="Edieresis" unicode="&#xcb;" horiz-adv-x="1149" 
d="M151 0v1489h931v-176h-733v-408h683v-176h-683v-553h733v-176h-931zM966 1677h-201v195h201v-195zM553 1677h-201v195h201v-195z" />
    <glyph glyph-name="Egrave" unicode="&#xc8;" horiz-adv-x="1149" 
d="M151 0v1489h931v-176h-733v-408h683v-176h-683v-553h733v-176h-931zM754 1675h-149l-273 374h243z" />
    <glyph glyph-name="Iacute" unicode="&#xcd;" horiz-adv-x="764" 
d="M671 0h-578v152h190v1185h-190v152h578v-152h-190v-1185h190v-152zM657 2049l-273 -374h-149l179 374h243z" />
    <glyph glyph-name="Icircumflex" unicode="&#xce;" horiz-adv-x="764" 
d="M671 0h-578v152h190v1185h-190v152h578v-152h-190v-1185h190v-152zM725 1670h-159l-185 256l-184 -256h-155l228 379h227z" />
    <glyph glyph-name="Idieresis" unicode="&#xcf;" horiz-adv-x="764" 
d="M671 0h-578v152h190v1185h-190v152h578v-152h-190v-1185h190v-152zM690 1677h-201v195h201v-195zM277 1677h-201v195h201v-195z" />
    <glyph glyph-name="Igrave" unicode="&#xcc;" horiz-adv-x="764" 
d="M671 0h-578v152h190v1185h-190v152h578v-152h-190v-1185h190v-152zM529 1675h-149l-273 374h243z" />
    <glyph glyph-name="Oacute" unicode="&#xd3;" horiz-adv-x="1449" 
d="M1204 1318q85 -98 132 -243t47 -331q0 -181 -46 -327t-133 -245q-91 -104 -212.5 -153.5t-267.5 -49.5q-151 0 -272 51t-208 152q-86 99 -132 244t-46 328q0 188 46.5 330t132.5 244q86 99 207.5 150.5t271.5 51.5q152 0 274 -53t206 -149zM1177 744q0 148 -32 262
t-90 189q-59 77 -142.5 115.5t-187.5 38.5q-108 0 -188.5 -37.5t-142.5 -116.5q-59 -76 -90.5 -191t-31.5 -260q0 -293 123 -448.5t330 -155.5t329.5 155.5t122.5 448.5zM1002 2049l-273 -374h-149l179 374h243z" />
    <glyph glyph-name="Ocircumflex" unicode="&#xd4;" horiz-adv-x="1449" 
d="M1204 1318q85 -98 132 -243t47 -331q0 -181 -46 -327t-133 -245q-91 -104 -212.5 -153.5t-267.5 -49.5q-151 0 -272 51t-208 152q-86 99 -132 244t-46 328q0 188 46.5 330t132.5 244q86 99 207.5 150.5t271.5 51.5q152 0 274 -53t206 -149zM1177 744q0 148 -32 262
t-90 189q-59 77 -142.5 115.5t-187.5 38.5q-108 0 -188.5 -37.5t-142.5 -116.5q-59 -76 -90.5 -191t-31.5 -260q0 -293 123 -448.5t330 -155.5t329.5 155.5t122.5 448.5zM1055 1670h-159l-185 256l-184 -256h-155l228 379h227z" />
    <glyph glyph-name="Ograve" unicode="&#xd2;" horiz-adv-x="1449" 
d="M1204 1318q85 -98 132 -243t47 -331q0 -181 -46 -327t-133 -245q-91 -104 -212.5 -153.5t-267.5 -49.5q-151 0 -272 51t-208 152q-86 99 -132 244t-46 328q0 188 46.5 330t132.5 244q86 99 207.5 150.5t271.5 51.5q152 0 274 -53t206 -149zM1177 744q0 148 -32 262
t-90 189q-59 77 -142.5 115.5t-187.5 38.5q-108 0 -188.5 -37.5t-142.5 -116.5q-59 -76 -90.5 -191t-31.5 -260q0 -293 123 -448.5t330 -155.5t329.5 155.5t122.5 448.5zM851 1675h-149l-273 374h243z" />
    <glyph glyph-name="Uacute" unicode="&#xda;" horiz-adv-x="1343" 
d="M671 -31q-131 0 -229 34.5t-167 102.5q-78 78 -110 186.5t-32 267.5v929h198v-929q0 -103 13 -173.5t51 -126.5q40 -60 108.5 -91t167.5 -31q93 0 165 31t112 91q37 57 50.5 126t13.5 169v934h198v-929q0 -155 -31.5 -266t-110.5 -188q-71 -69 -165.5 -103t-231.5 -34z
M995 2049l-273 -374h-149l179 374h243z" />
    <glyph glyph-name="Ucircumflex" unicode="&#xdb;" horiz-adv-x="1343" 
d="M671 -31q-131 0 -229 34.5t-167 102.5q-78 78 -110 186.5t-32 267.5v929h198v-929q0 -103 13 -173.5t51 -126.5q40 -60 108.5 -91t167.5 -31q93 0 165 31t112 91q37 57 50.5 126t13.5 169v934h198v-929q0 -155 -31.5 -266t-110.5 -188q-71 -69 -165.5 -103t-231.5 -34z
M1006 1670h-159l-185 256l-184 -256h-155l228 379h227z" />
    <glyph glyph-name="Ugrave" unicode="&#xd9;" horiz-adv-x="1343" 
d="M671 -31q-131 0 -229 34.5t-167 102.5q-78 78 -110 186.5t-32 267.5v929h198v-929q0 -103 13 -173.5t51 -126.5q40 -60 108.5 -91t167.5 -31q93 0 165 31t112 91q37 57 50.5 126t13.5 169v934h198v-929q0 -155 -31.5 -266t-110.5 -188q-71 -69 -165.5 -103t-231.5 -34z
M854 1675h-149l-273 374h243z" />
    <glyph glyph-name="circumflex" unicode="&#x2c6;" horiz-adv-x="1118" 
d="M901 1297h-159l-185 256l-184 -256h-155l228 379h227z" />
    <glyph glyph-name="tilde" unicode="&#x2dc;" horiz-adv-x="1118" 
d="M960 1632q-10 -156 -74.5 -234t-171.5 -78q-52 0 -96 19t-86 59q-44 41 -76 62.5t-63 21.5q-49 0 -68.5 -45t-23.5 -121h-140q7 154 76 232.5t169 78.5q51 0 94 -19.5t86 -57.5q43 -39 77.5 -59.5t63.5 -20.5q47 0 68.5 45t24.5 117h140z" />
    <glyph glyph-name="cedilla" unicode="&#xb8;" horiz-adv-x="1118" 
d="M767 20q1 -18 3.5 -45.5t2.5 -63.5q0 -162 -87 -248t-220 -86q-37 0 -87 6t-90 18v160h9q24 -11 63 -22.5t79 -11.5q94 0 134 39.5t40 126.5q0 26 -1 57t-3 70h157z" />
    <glyph glyph-name="Scaron" unicode="&#x160;" horiz-adv-x="1141" 
d="M566 -27q-162 0 -275.5 33.5t-213.5 82.5v248h14q98 -92 222 -142.5t239 -50.5q164 0 248 68.5t84 180.5q0 89 -44 145t-140 83q-69 20 -126 33t-143 35q-77 20 -138 51t-108 81q-46 49 -71.5 115.5t-25.5 153.5q0 181 141 303.5t360 122.5q125 0 236.5 -25t206.5 -71
v-237h-15q-71 65 -182 113.5t-233 48.5q-138 0 -223 -64.5t-85 -169.5q0 -95 50 -151t145 -82q63 -17 154 -38.5t151 -39.5q154 -47 225 -142t71 -234q0 -87 -35.5 -172t-99.5 -144q-72 -65 -162.5 -100t-226.5 -35zM930 2049l-228 -379h-227l-228 379h159l185 -256l184 256
h155z" />
    <glyph glyph-name="scaron" unicode="&#x161;" horiz-adv-x="914" 
d="M438 -27q-112 0 -209.5 30t-161.5 64v211h10q24 -19 56.5 -42t86.5 -48q48 -22 105.5 -39t119.5 -17q45 0 96 10.5t76 26.5q35 23 50.5 49t15.5 78q0 67 -36.5 101t-129.5 57q-36 9 -94 21t-107 26q-128 37 -186 114.5t-58 187.5q0 151 114 246t303 95q93 0 187 -23
t158 -58v-201h-10q-72 57 -160.5 90t-178.5 33q-93 0 -157 -39t-64 -118q0 -70 38 -104.5t122 -56.5q42 -11 93.5 -21.5t108.5 -24.5q124 -31 186.5 -103t62.5 -196q0 -72 -28.5 -136.5t-83.5 -110.5q-60 -50 -135.5 -76t-189.5 -26zM815 1676l-228 -379h-227l-228 379h159
l185 -256l184 256h155z" />
    <glyph glyph-name="Zcaron" unicode="&#x17d;" horiz-adv-x="1145" 
d="M1100 0h-1040v184l797 1129h-761v176h984v-179l-806 -1134h826v-176zM910 2049l-228 -379h-227l-228 379h159l185 -256l184 256h155z" />
    <glyph glyph-name="zcaron" unicode="&#x17e;" horiz-adv-x="910" 
d="M870 0h-821v139l584 823h-560v155h786v-134l-587 -826h598v-157zM800 1676l-228 -379h-227l-228 379h159l185 -256l184 256h155z" />
    <glyph glyph-name="brokenbar" unicode="&#xa6;" horiz-adv-x="783" 
d="M475 758h-167v798h167v-798zM475 -392h-167v798h167v-798z" />
    <glyph glyph-name="Eth" unicode="&#xd0;" horiz-adv-x="1430" 
d="M1366 743q0 -204 -82.5 -368t-221.5 -256q-111 -74 -228.5 -96.5t-298.5 -22.5h-343v740h-168v143h168v606h339q210 0 329.5 -31.5t203.5 -86.5q144 -95 223 -252.5t79 -375.5zM1160 746q0 172 -57 293.5t-169 189.5q-79 48 -169 69t-224 21h-151v-436h327v-143h-327
v-570h151q132 0 231 21.5t181 77.5q103 70 155 186.5t52 290.5z" />
    <glyph glyph-name="eth" unicode="&#xf0;" horiz-adv-x="1118" 
d="M1053 637q0 -323 -136 -495.5t-370 -172.5q-214 0 -352 131t-138 384q0 231 137 360.5t324 129.5q100 0 174 -26.5t157 -79.5q-31 112 -97.5 220.5t-145.5 178.5l-262 -161l-66 97l238 143q-82 68 -156 106.5t-161 82.5v21h296q38 -28 79.5 -59t82.5 -60l212 129l66 -97
l-190 -111q130 -130 219 -305.5t89 -415.5zM769 226q46 59 70.5 143.5t24.5 234.5q0 32 -1.5 59.5t-3.5 57.5q-73 46 -150 67t-157 21q-127 0 -213.5 -80t-86.5 -247q0 -180 80 -267t216 -87q64 0 121.5 22t99.5 76z" />
    <glyph glyph-name="Yacute" unicode="&#xdd;" horiz-adv-x="1180" 
d="M1193 1489l-503 -830v-659h-198v638l-503 851h220l384 -657l390 657h210zM891 2049l-273 -374h-149l179 374h243z" />
    <glyph glyph-name="yacute" unicode="&#xfd;" horiz-adv-x="1020" 
d="M1014 1117l-601 -1529h-201l200 466l-406 1063h203l305 -827l304 827h196zM811 1676l-273 -374h-149l179 374h243z" />
    <glyph glyph-name="Thorn" unicode="&#xde;" horiz-adv-x="1158" 
d="M1095 787q0 -92 -35 -176.5t-95 -141.5q-78 -75 -187.5 -111t-260.5 -36h-168v-322h-198v1489h198v-270h175q133 0 230 -22.5t164 -66.5q83 -53 130 -138t47 -205zM889 782q0 72 -26 125.5t-82 88.5q-48 30 -112 42.5t-154 12.5h-166v-563h137q119 0 195 20.5t123 65.5
q44 41 64.5 92t20.5 116z" />
    <glyph glyph-name="thorn" unicode="&#xfe;" horiz-adv-x="1132" 
d="M1073 588q0 -279 -133.5 -444.5t-337.5 -165.5q-83 0 -147 19t-131 59v-468h-188v1968h188v-556q70 63 155.5 105.5t186.5 42.5q192 0 299.5 -152t107.5 -408zM879 567q0 191 -61 296.5t-198 105.5q-80 0 -154.5 -35.5t-141.5 -91.5v-633q74 -36 126.5 -49t120.5 -13
q146 0 227 107t81 313z" />
    <glyph glyph-name="multiply" unicode="&#xd7;" horiz-adv-x="1490" 
d="M1282 226l-111 -111l-426 430l-426 -430l-111 111l430 426l-430 426l111 111l426 -430l426 430l111 -111l-430 -426z" />
    <glyph glyph-name="onesuperior" unicode="&#xb9;" horiz-adv-x="1010" 
d="M811 566h-555v122h204v568h-212v112q45 0 94 6t74 19q31 16 48.5 38t20.5 62h135v-805h191v-122z" />
    <glyph glyph-name="twosuperior" unicode="&#xb2;" horiz-adv-x="1010" 
d="M866 566h-681v152q77 59 147.5 113.5t114.5 97.5q106 102 139 159.5t33 138.5q0 69 -43 106.5t-119 37.5q-69 0 -139.5 -30t-111.5 -62h-15v179q63 27 139.5 44t150.5 17q156 0 239.5 -78.5t83.5 -201.5q0 -85 -39.5 -163.5t-147.5 -175.5q-52 -46 -121 -97.5t-123 -92.5
h493v-144z" />
    <glyph glyph-name="threesuperior" unicode="&#xb3;" horiz-adv-x="1010" 
d="M837 828q0 -71 -30 -127.5t-78 -89.5q-53 -37 -114.5 -53t-140.5 -16q-82 0 -153.5 15t-136.5 43v175h17q37 -35 114 -64.5t156 -29.5q84 0 139 36.5t55 108.5t-43.5 107t-147.5 35h-140v139h125q87 0 134.5 38t47.5 104q0 60 -41 95.5t-128 35.5q-66 0 -142.5 -31
t-113.5 -66h-17v175q64 27 139 44t154 17q152 0 237 -70t85 -168q0 -87 -48.5 -143.5t-125.5 -82.5v-8q80 -16 138.5 -70.5t58.5 -148.5z" />
    <glyph glyph-name="onehalf" unicode="&#xbd;" horiz-adv-x="2048" 
d="M545 565h-165v681h-209v117q102 0 165 22t72 108h137v-928zM1410 1489l-780 -1489h-165l780 1489h165zM1946 0h-681v143q77 59 147.5 113.5t114.5 97.5q106 102 139 159.5t33 138.5q0 69 -43 106.5t-119 37.5q-69 0 -139.5 -30t-111.5 -62h-15v179q63 27 139.5 44
t150.5 17q156 0 239.5 -78.5t83.5 -201.5q0 -114 -56.5 -193.5t-130.5 -145.5q-56 -49 -122.5 -97.5t-119.5 -88.5h491v-139z" />
    <glyph glyph-name="onequarter" unicode="&#xbc;" horiz-adv-x="2048" 
d="M545 565h-165v681h-209v117q102 0 165 22t72 108h137v-928zM1410 1489l-780 -1489h-165l780 1489h165zM1847 220h-163v-220h-150v220h-455v185l456 539h149v-591h163v-133zM1538 353v400l-343 -400h343z" />
    <glyph glyph-name="threequarters" unicode="&#xbe;" horiz-adv-x="2048" 
d="M793 826q0 -71 -30 -127.5t-78 -89.5q-53 -37 -114.5 -53t-140.5 -16q-82 0 -153.5 15t-136.5 43v175h17q37 -35 114 -64.5t156 -29.5q84 0 139 36.5t55 108.5q0 83 -50 112.5t-141 29.5h-140v139h125q87 0 134.5 38t47.5 104q0 60 -41 95.5t-128 35.5q-66 0 -142.5 -31
t-113.5 -66h-17v175q64 27 139 44t154 17q152 0 237 -70t85 -168q0 -87 -48.5 -143.5t-125.5 -82.5v-8q80 -16 138.5 -70.5t58.5 -148.5zM1500 1489l-780 -1489h-165l780 1489h165zM1903 220h-163v-220h-150v220h-455v185l456 539h149v-591h163v-133zM1594 353v400
l-343 -400h343z" />
    <glyph glyph-name="macron" unicode="&#xaf;" horiz-adv-x="1118" 
d="M1134 1659h-1150v130h1150v-130z" />
    <glyph glyph-name="periodcentered" unicode="&#xb7;" horiz-adv-x="724" 
d="M482 832h-239v285h239v-285z" />
    <glyph glyph-name="currency" unicode="&#xa4;" horiz-adv-x="1118" 
d="M1057 272l-106 -106l-214 212q-45 -27 -84 -39.5t-93 -12.5q-46 0 -92.5 15t-82.5 38l-215 -215l-105 109l212 213q-25 40 -38.5 86.5t-13.5 88.5q0 44 13.5 88.5t39.5 85.5l-213 216l107 106l214 -213q37 24 83 38t91 14q52 0 97.5 -15.5t78.5 -35.5l212 212l109 -105
l-214 -216q27 -43 40 -83t13 -92q0 -45 -14.5 -91.5t-38.5 -83.5zM752 661q0 80 -56.5 138.5t-135.5 58.5q-77 0 -134.5 -57.5t-57.5 -139.5q0 -80 56.5 -138.5t135.5 -58.5q77 0 134.5 57.5t57.5 139.5z" />
    <glyph glyph-name="C_KA" unicode="&#x1000;" horiz-adv-x="2205" 
d="M2145 605q0 -223 -162 -389q-167 -161 -395 -161q-110 0 -221 41l53 129q82 -36 171 -36q171 0 295 121q121 124 121 295q0 170 -121 288q-124 122 -295 122q-172 0 -297 -119q-124 -118 -124 -294t-105 -318q-52 -75 -121.5 -124.5t-163.5 -80.5l-36 130q71 21 127 61
t94.5 92.5t59 114.5t20.5 128q0 172 -125 291q-63 60 -137.5 89.5t-165.5 29.5q-174 0 -298 -119q-118 -118 -118 -291q0 -69 20.5 -132.5t59 -116.5t93.5 -91.5t125 -56.5l-39 -129q-176 48 -287 194q-113 149 -113 329q0 229 164 388q163 160 390 160q76 0 149 -19
t137 -56t114.5 -90t81.5 -120q40 68 93 121t116 89.5t134.5 55.5t148.5 19q229 0 395 -160q162 -161 162 -385z" />
    <glyph glyph-name="C_KHA" unicode="&#x1001;" horiz-adv-x="1178" 
d="M60 406q106 157 305 157q304 0 373 -340q55 27 100 67t77 89.5t49 106t17 116.5q0 173 -118 294q-122 121 -293 121q-66 0 -126 -18.5t-110 -52.5t-89 -82t-63 -107l-114 60q31 76 83 137.5t118 105t143 67t158 23.5q228 0 388 -163q160 -157 160 -385t-160 -388
q-162 -159 -388 -159q-85 0 -163 25t-144.5 71t-118.5 110.5t-84 144.5zM213 390q21 -45 58.5 -82t85.5 -64t103 -42t110 -15q10 0 22 0.5t24 2.5q-35 250 -254 245q-64 0 -149 -45z" />
    <glyph glyph-name="C_GA" unicode="&#x1002;" horiz-adv-x="1241" 
d="M1181 593q0 -93 -27 -178.5t-78 -156t-123.5 -123t-163.5 -80.5l-42 131q70 19 125.5 58t94.5 92.5t60 119t21 137.5q0 177 -125 296q-63 63 -138.5 93t-166.5 30q-172 0 -295 -123q-122 -119 -122 -296q0 -69 20 -132.5t56.5 -116t88.5 -92t117 -61.5l-39 -133
q-88 27 -159 79t-121 122t-77 154t-27 176q0 118 39.5 215t124.5 181q84 82 180 123.5t214 41.5q120 0 217 -39.5t181 -123.5q85 -84 125 -180.5t40 -213.5z" />
    <glyph glyph-name="C_GHA" unicode="&#x1003;" horiz-adv-x="2181" 
d="M2121 602q0 -224 -160 -385q-81 -84 -176.5 -123t-210.5 -39q-168 0 -287.5 71t-195.5 221q-78 -150 -198.5 -221t-285.5 -71q-227 0 -387 160q-160 156 -160 385q0 54 20 98.5t62 76.5q42 43 175 103q26 25 37 41.5t11 27.5q0 30 -54 41q-8 2 -16 2h-17q-69 0 -126 -58
l-80 100q83 98 213 98q85 0 155 -46q9 6 26 -54q22 -63 22 -90q0 -48 -18 -84.5t-49 -65.5q-2 -2 -39 -20t-109 -55q-78 -41 -78 -113q0 -85 31 -157.5t91 -136.5q125 -122 293 -122t295 122q60 64 90.5 136.5t30.5 157.5q0 64 -19.5 123.5t-55 110t-84.5 90.5t-109 64
l49 122q79 -31 143.5 -83t109.5 -119t69.5 -145.5t24.5 -162.5q0 -85 30.5 -157.5t90.5 -136.5q63 -60 137 -91t165 -31q88 0 157.5 31t132.5 91q63 64 93.5 136.5t30.5 157.5q0 86 -30.5 158.5t-93.5 132.5t-132.5 91t-157.5 31q-35 0 -71 -7t-73 -18l-50 122
q48 20 95.5 29t95.5 9q115 0 210.5 -39t176.5 -123q160 -161 160 -386z" />
    <glyph glyph-name="C_NGA" unicode="&#x1004;" horiz-adv-x="1241" 
d="M1050 737q-23 64 -64 115.5t-94.5 87.5t-117.5 55.5t-134 19.5q-183 0 -309 -120q-126 -117 -126 -290q0 -171 126 -295q127 -119 309 -119q62 0 121 16t110 46.5t92.5 74t69.5 97.5l124 -49q-35 -74 -88 -133t-120.5 -101t-147 -64.5t-166.5 -22.5q-238 0 -408 158
q-167 161 -167 388q0 228 167 389q166 160 408 160q182 0 332 -102q75 -51 129 -115.5t85 -146.5z" />
    <glyph glyph-name="C_CA" unicode="&#x1005;" horiz-adv-x="1239" 
d="M1179 603q0 -224 -166 -389q-164 -159 -393 -159q-235 0 -397 159q-84 81 -123.5 177.5t-39.5 211.5q0 114 39.5 209t123.5 176q162 162 397 162q229 0 393 -159q166 -160 166 -388zM1046 603q0 173 -124 291q-127 122 -299 122q-143 0 -253 -86q220 -96 220 -331
q0 -111 -50.5 -192.5t-153.5 -141.5q51 -38 110.5 -56.5t126.5 -18.5q172 0 299 121q124 125 124 292zM471 596q0 170 -194 244q-38 -54 -58 -112.5t-20 -124.5q0 -145 87 -253q185 68 185 246z" />
    <glyph glyph-name="C_CHA" unicode="&#x1006;" horiz-adv-x="2195" 
d="M1018 602q0 174 -127 292q-125 122 -299 122q-62 0 -121 -17t-110.5 -48.5t-93 -77t-67.5 -101.5l-126 55q37 74 91 133.5t120.5 101.5t143 65t159.5 23q76 0 149 -20t138.5 -57t119.5 -89.5t92 -117.5q152 284 484 284q236 0 399 -160q165 -161 165 -388t-165 -387
q-164 -160 -399 -160q-336 0 -487 286q-37 -69 -90.5 -122t-118.5 -89.5t-138.5 -55.5t-148.5 -19q-90 0 -171 24.5t-149.5 69.5t-121.5 109.5t-86 145.5q115 157 321 157q317 0 385 -335q58 27 104.5 67t79.5 89.5t50.5 105t17.5 114.5zM1998 602q0 170 -125 292t-297 122
q-180 0 -305 -122q-124 -118 -124 -292q0 -169 124 -293q127 -121 305 -121q175 0 297 121q125 125 125 293zM645 193q-81 247 -264 247q-45 -7 -83.5 -19t-71.5 -32q120 -201 366 -201q13 0 25 1.5z" />
    <glyph glyph-name="C_JA" unicode="&#x1007;" horiz-adv-x="1238" 
d="M1178 297q-215 -12 -277 221q-44 -33 -95 -33q-47 4 -89.5 24.5t-75.5 54t-53.5 78t-21.5 96.5q-1 34 9.5 69.5t29.5 67.5t45 57.5t56 40.5q-22 10 -55.5 20t-81.5 23q-78 2 -144 -25t-126 -87q-57 -61 -85 -130.5t-28 -156.5q0 -98 30.5 -176.5t84.5 -133.5t128 -85
t162 -30q101 0 184 44l59 -106q-61 -36 -121.5 -55.5t-121.5 -19.5q-230 0 -379 145q-152 173 -152 419q0 112 38 205t114 172q153 154 357 154q149 0 291 -117q163 -124 163 -293q-2 -20 -3 -42.5t-1 -42.5q0 -215 159 -197v-161zM896 745q0 23 -7.5 43.5t-20.5 36
t-30.5 24.5t-37.5 9q-45 0 -71 -32.5t-26 -80.5q0 -21 7.5 -40.5t20.5 -34t30 -23t37 -8.5t37.5 8.5t31 23t21.5 34t8 40.5z" />
    <glyph glyph-name="C_JHA" unicode="&#x1008;" horiz-adv-x="1456" 
d="M1252 -775l-705 333v515h142v-423l564 -266v1766h143v-1851zM1168 612q0 -118 -39.5 -214t-121.5 -177q-159 -166 -394 -159q-118 0 -214 39t-178 117q-161 161 -161 394q0 223 161 381q82 78 178 117.5t214 39.5t215.5 -39.5t178.5 -117.5q161 -155 161 -381zM1043 612
q0 88 -32 159t-96 131q-63 60 -138 87.5t-160 27.5q-73 0 -134.5 -18.5t-115.5 -58.5q223 -94 223 -332q0 -112 -52 -192t-158 -140q54 -40 112 -58.5t125 -18.5q85 0 160 29.5t138 93.5q64 63 96 134t32 156zM466 605q0 172 -190 244q-40 -54 -59 -114t-19 -123
q0 -69 22.5 -133t65.5 -127q180 79 180 253z" />
    <glyph glyph-name="C_NYA" unicode="&#x1009;" horiz-adv-x="2056" 
d="M1996 -469q0 -305 -277 -301h-1372q-91 -4 -182 84t-91 177v908l120 60q43 -99 153 -179q109 -79 216 -79q196 0 315 114q120 115 120 313q0 156 -126 270q-125 115 -279 115q-291 0 -396 -260l-137 34q145 363 538 363q210 0 369 -159t159 -374q0 -238 -158 -401
q-158 -161 -402 -161q-199 0 -353 157v-676q0 -67 51 -116q50 -49 117 -49h1273q108 1 152 25q61 33 61 135h129z" />
    <glyph glyph-name="C_NNYA" unicode="&#x100a;" horiz-adv-x="2128" 
d="M2068 602q0 -230 -159 -389q-158 -159 -386 -159q-323 0 -477 286q-157 -286 -480 -286q-192 0 -338 115v-637q0 -79 60 -119q62 -41 144 -41h1508v194h128v-336h-1696q-101 -5 -194 77q-94 81 -94 180v853l120 66q116 -218 364 -218q175 0 293 121q119 122 119 293
t-121 292q-120 122 -291 122q-126 0 -230 -70q-106 -70 -152 -184l-126 50q66 155 202 246q137 92 304 92q229 0 388 -160q160 -160 160 -388q0 -171 119 -293q118 -121 293 -121q173 0 293 121q121 121 121 293q0 173 -121 293q-120 121 -293 121q-75 0 -147 -26l-48 120
q102 40 192 40q229 0 386 -160q159 -161 159 -388z" />
    <glyph glyph-name="C_TTA" unicode="&#x100b;" horiz-adv-x="1277" 
d="M1064 -775l-2 485q-196 -73 -385 -69q-106 2 -215 21.5t-224 54.5q-126 46 -126 139v171q0 85 98 85q16 0 27 -2.5t19 -6.5q232 -117 421 -117q45 0 94.5 7.5t107.5 21.5q129 40 183 91v94q-169 -141 -380 -145q-132 -2 -238.5 35t-197.5 112q-91 78 -135.5 174.5
t-47.5 217.5q-3 226 168 390q88 85 189 125.5t228 40.5q81 0 159.5 -17.5t147 -51.5t125 -84t94.5 -115l-115 -61q-128 194 -411 194q-166 0 -292 -138q-128 -137 -128 -283q0 -79 34 -149.5t106 -130.5q142 -116 314 -116q63 0 117 14.5t105 43.5q26 20 64.5 56t95.5 90
l119 -61v-311q-75 -84 -225 -133q-150 -51 -281 -51q-103 0 -204 24t-207 72v-86q222 -85 411 -85q184 0 395 92q10 6 22.5 8t25.5 2q65 0 65 -66v-460h212v-122h-333z" />
    <glyph glyph-name="C_TTHA" unicode="&#x100c;" horiz-adv-x="1248" 
d="M1188 -405q0 -75 -17.5 -139.5t-59.5 -118.5q-94 -112 -250 -112h-414q-166 0 -246.5 66t-80.5 205q0 238 255 234l148 -2v-133l-95 -5q-140 -11 -140 -94q0 -67 54 -98t166 -31h286q171 0 224 93q31 52 31 230v495q-60 -69 -149.5 -101.5t-218.5 -32.5
q-132 -2 -238 35.5t-200 112.5q-183 157 -183 381q0 248 160 408q159 162 433 162q79 0 153.5 -17t144.5 -52q79 -35 136.5 -85t89.5 -119l-143 -59q-63 100 -155.5 147.5t-225.5 47.5q-184 0 -308 -136q-63 -69 -94 -140.5t-31 -156.5q0 -158 140 -280q147 -119 326 -115
q115 2 212 56.5t176 166.5l114 -89v-724z" />
    <glyph glyph-name="C_DDA" unicode="&#x100d;" horiz-adv-x="1247" 
d="M982 -775l-7 704q-111 -53 -212.5 -77.5t-195.5 -24.5q-64 0 -132.5 13.5t-145.5 39.5q-75 28 -132.5 62.5t-96.5 73.5v323l121 57q35 -42 78.5 -76t97.5 -66q110 -61 208 -61q182 0 315 113q132 111 132 278q0 92 -28.5 166.5t-88.5 135.5q-60 63 -134.5 92.5
t-168.5 29.5q-242 -3 -398 -193l-115 71q29 57 82 103.5t128 84.5q152 76 303 76q244 0 418 -169q87 -83 128.5 -182t41.5 -215q-3 -229 -185 -381q-181 -152 -430 -148q-103 2 -192.5 32t-168.5 93l-5 -85q142 -126 368 -126q110 0 215.5 29.5t209.5 88.5q18 18 46 18
q77 0 77 -68v-666h192v-146h-325z" />
    <glyph glyph-name="C_DDHA" unicode="&#x100e;" horiz-adv-x="1241" 
d="M1181 614q0 -231 -163 -397q-165 -162 -401 -162q-231 0 -393 162q-84 84 -124 181t-40 214q0 57 21 102t61 78q47 40 182 104q46 46 46 71t-56 35q-13 8 -28 8q-35 0 -69 -15.5t-63 -47.5l-83 101q88 102 218 102q44 0 84 -11.5t76 -36.5q5 11 28 -56q12 -33 17.5 -55.5
t5.5 -35.5q0 -45 -17.5 -82t-54.5 -65q-3 -4 -149 -77q-79 -38 -79 -117q0 -88 30.5 -162t90.5 -138q126 -123 303 -123q178 0 300 123q124 127 124 300q0 66 -20 127.5t-56 113.5t-86.5 91t-111.5 59l51 128q80 -31 145.5 -84t112.5 -121.5t72.5 -148.5t25.5 -165z" />
    <glyph glyph-name="C_NNA" unicode="&#x100f;" horiz-adv-x="2408" 
d="M2348 595q0 -103 -42 -195t-129 -173q-85 -84 -177.5 -124t-195.5 -40v122q157 0 284 124q128 129 125 283q-7 165 -125 299q-60 66 -129 100.5t-152 34.5q-95 0 -174 -31t-136 -88t-88.5 -136.5t-31.5 -175.5q0 -31 9.5 -72.5t26.5 -94.5q38 -103 38 -167q0 -46 -20 -84
t-54 -65t-79.5 -42t-96.5 -15q-254 0 -254 206q0 77 43 175q23 51 34.5 89t9.5 67q-2 84 -34.5 157.5t-93.5 141.5q-61 66 -133 100.5t-154 34.5q-179 0 -307 -125q-60 -61 -91 -137t-31 -167q0 -166 132 -293q67 -60 143.5 -91t163.5 -31l3 -127q-237 0 -403 150
q-85 77 -127 174t-42 218q0 122 40 222t118 178q161 158 406 158q165 0 337 -121q11 24 35 46t66 39q72 36 139 36q33 0 67 -8t72 -26q42 -17 66.5 -38.5t35.5 -46.5q77 59 168 89t197 30q227 0 383 -168q78 -84 118 -181t40 -211zM1321 282q0 28 -41 122q-21 50 -30.5 97
t-9.5 94q0 32 7.5 75.5t24.5 100.5q17 56 26.5 93.5t9.5 56.5q0 103 -107 103q-116 0 -116 -91q0 -19 9.5 -56.5t28.5 -97.5q40 -117 40 -184q0 -93 -40 -191q-38 -97 -38 -127q-3 -92 116 -92q120 0 120 97z" />
    <glyph glyph-name="C_TA" unicode="&#x1010;" horiz-adv-x="2197" 
d="M2137 602q0 -112 -39 -207.5t-123 -179.5q-161 -160 -389 -160q-123 0 -226 48l54 126q79 -36 172 -36q90 0 161 29.5t131 89.5q122 125 122 290q0 172 -122 292q-124 122 -292 122q-175 0 -296 -120q-123 -117 -123 -294q0 -224 -162 -387q-160 -160 -393 -160
q-226 0 -389 160q-84 81 -123.5 178t-39.5 209q0 114 39.5 209.5t123.5 176.5q162 162 389 162q78 0 149.5 -20t134.5 -57.5t115 -90t91 -116.5q155 284 484 284q227 0 389 -159t162 -389zM1035 602q0 176 -121 294q-125 120 -300 120q-171 0 -295 -120q-120 -119 -120 -294
q0 -166 120 -290q127 -119 295 -119q91 0 164 29.5t136 89.5q121 124 121 290z" />
    <glyph glyph-name="C_THA" unicode="&#x1011;" horiz-adv-x="2196" 
d="M2136 602q0 -227 -163 -387q-160 -160 -392 -160q-324 0 -484 280q-83 -140 -202.5 -210t-280.5 -70q-117 0 -214.5 40t-178.5 118q-161 158 -161 389q0 230 161 388q160 160 393 160q163 0 283.5 -71.5t199.5 -214.5q157 286 484 286q115 0 213.5 -39.5t178.5 -120.5
q163 -156 163 -388zM2000 602q0 171 -121 291q-119 123 -295 123q-166 0 -292 -120q-125 -116 -125 -294q0 -85 31 -158t94 -135q63 -59 135 -89t157 -30q89 0 163.5 30t133.5 89q119 124 119 293zM1038 602q0 177 -124 294q-63 60 -136 90t-159 30q-173 0 -298 -120
q-121 -118 -121 -294q0 -169 121 -293q125 -119 298 -119q86 0 159 30t136 89q124 123 124 293z" />
    <glyph glyph-name="C_DA" unicode="&#x1012;" horiz-adv-x="1239" 
d="M1179 399q0 -181 -211 -277q-150 -67 -370 -67q-167 0 -294 48q-216 77 -244 308h171q-5 -22 -5 -41q0 -108 145 -160q52 -17 111 -24.5t129 -7.5q66 0 130 11t127 34q165 60 165 166q0 187 -449 187h-89v114q34 -2 60.5 -2.5t44.5 -0.5q63 0 119.5 9.5t110.5 26.5
q138 49 138 150q0 42 -35.5 72.5t-107.5 54.5q-111 28 -216 28q-141 0 -243 -43q-138 -56 -123 -183h-144q0 348 520 348q91 0 167.5 -13.5t142.5 -42.5q94 -37 139.5 -92t45.5 -134q0 -178 -211 -218v-3q276 -56 276 -248z" />
    <glyph glyph-name="C_DHA" unicode="&#x1013;" horiz-adv-x="1226" 
d="M1164 619q2 -133 -45.5 -239.5t-146.5 -186.5q-162 -138 -347 -138q-125 0 -227.5 38.5t-180.5 116.5t-117.5 179t-39.5 225q0 109 39.5 203.5t117.5 172.5q162 160 382 160q232 0 398 -152q162 -153 167 -379zM1029 616q0 173 -127 287q-63 60 -138.5 88.5t-164.5 28.5
q-85 0 -156.5 -30.5t-131.5 -93.5q-117 -124 -114 -290q2 -57 8 -102.5t20 -77.5q149 149 364 145q229 -3 403 -145q37 75 37 190zM911 322q-111 118 -322 118q-88 0 -156 -30.5t-125 -92.5q111 -124 302 -124q188 0 301 129z" />
    <glyph glyph-name="C_NA" unicode="&#x1014;" horiz-adv-x="1259" 
d="M1199 426q0 -170 -134 -260q-101 -66 -317 -111v-830h-156l-5 827q-78 2 -157 19.5t-160 52.5q-210 97 -210 253q0 49 17 91t48 72.5t74.5 47.5t97.5 17q45 0 87 -5.5t84 -14.5q270 -56 275 -388q295 51 295 227q0 124 -198 193q-93 20 -184 39.5t-185 42.5
q-216 60 -216 220q0 115 136 176q117 55 259 55q178 0 336 -99l-64 -109q-123 65 -272 65q-234 0 -234 -95q27 -71 164 -94q118 -20 191.5 -35.5t102.5 -29.5q79 -26 137 -54t91 -57q49 -43 73 -97.5t24 -118.5zM587 194q0 275 -272 275q-99 0 -99 -92q0 -37 47 -76
q128 -103 324 -107z" />
    <glyph glyph-name="C_PA" unicode="&#x1015;" horiz-adv-x="1236" 
d="M1176 618q0 -116 -40 -215t-123 -184q-82 -81 -181 -122.5t-217 -41.5q-115 0 -212.5 41.5t-179.5 122.5q-83 84 -123 182.5t-40 213.5q0 91 25.5 175t73.5 153.5t115.5 123t151.5 83.5l52 -129q-62 -23 -113 -63t-88 -92.5t-57.5 -115.5t-20.5 -132q0 -172 122 -299
q122 -125 299 -125q174 0 300 125q123 124 123 299q0 68 -20 130.5t-56 114.5t-86.5 92t-111.5 63l46 130q83 -34 149.5 -88t113.5 -123t72.5 -150t25.5 -169z" />
    <glyph glyph-name="C_PHA" unicode="&#x1016;" horiz-adv-x="1234" 
d="M1174 621q0 -234 -161 -400q-160 -166 -402 -166q-230 0 -390 162q-161 167 -161 402q0 89 25 170.5t71 150.5t109.5 122.5t141.5 87.5l56 -130q-62 -22 -110.5 -61t-82.5 -91.5t-52 -115t-18 -131.5q0 -174 119 -302q124 -124 305 -124q65 0 124.5 18.5t109 52.5
t87.5 83t60 109q-330 70 -330 400q0 175 152 292q77 -34 141 -87.5t109.5 -122t71 -149.5t25.5 -170zM1040 621q0 245 -200 364q-47 -77 -47 -150q0 -106 95 -196q73 -63 137 -63q10 0 13 3q2 10 2 20.5v21.5z" />
    <glyph glyph-name="C_BA" unicode="&#x1017;" horiz-adv-x="1238" 
d="M1178 636q0 -121 -40 -223t-123 -189q-165 -169 -394 -169q-232 0 -398 169q-163 167 -163 409q0 164 87 305q86 145 238 212q35 -90 97 -133.5t149 -43.5q156 0 239 170q73 -39 130.5 -93.5t97 -120t60 -140t20.5 -153.5zM1045 636q0 195 -153 330q-113 -120 -261 -120
q-108 0 -196 56q-6 5 -25.5 20.5t-55.5 43.5q-154 -137 -154 -330q0 -187 123 -313q63 -63 137.5 -95.5t162.5 -32.5q87 0 160.5 32.5t137.5 95.5q63 63 93.5 141.5t30.5 171.5z" />
    <glyph glyph-name="C_BHA" unicode="&#x1018;" horiz-adv-x="2192" 
d="M2132 603q0 -224 -165 -389q-83 -80 -181 -119.5t-217 -39.5q-137 0 -262 61l61 122q97 -50 203 -50q179 0 299 121q63 64 94.5 136.5t31.5 157.5q0 163 -126 287q-63 64 -135.5 94.5t-163.5 30.5q-178 0 -301 -123q-125 -118 -125 -289q0 -223 -163 -389
q-84 -80 -182.5 -119.5t-216.5 -39.5q-162 0 -283 68t-202 203l113 80q63 -109 156 -163.5t221 -54.5q88 0 163 29.5t136 91.5q126 126 126 294q0 172 -126 289q-61 63 -136 93t-163 30q-66 0 -126.5 -18.5t-112.5 -52t-93 -81.5t-66 -106l-130 42q33 82 86.5 147t122 110.5
t148.5 69.5t166 24q76 0 149 -19.5t137.5 -56.5t118 -89.5t90.5 -118.5q37 66 88.5 118.5t114.5 89.5t136 56.5t152 19.5q119 0 217 -39.5t181 -120.5q165 -162 165 -387z" />
    <glyph glyph-name="C_MA" unicode="&#x1019;" horiz-adv-x="1238" 
d="M1178 619q0 -115 -40 -214t-123 -184q-164 -166 -394 -166q-235 0 -398 162q-83 84 -123 184t-40 216q0 91 26 174t74 152t116.5 122t152.5 85l55 -129q-65 -20 -117.5 -59.5t-90 -93t-57.5 -117.5t-20 -132q0 -151 95 -273q51 111 135.5 166t208.5 55q225 0 330 -193
q77 114 77 245q0 68 -21 132t-58.5 117.5t-90.5 93t-117 59.5l42 129q85 -29 155 -82t119.5 -122.5t76.5 -153t27 -173.5zM875 282q-67 159 -239 159q-177 0 -242 -180q106 -69 227 -69q72 0 134 23t120 67z" />
    <glyph glyph-name="C_YA" unicode="&#x101a;" horiz-adv-x="2203" 
d="M2143 602q0 -113 -40 -209t-123 -177q-161 -161 -395 -161q-327 0 -485 289q-34 -69 -85 -123t-114 -90.5t-135.5 -56t-149.5 -19.5q-230 0 -396 161q-160 159 -160 386q0 88 26.5 167.5t77.5 151.5q105 144 269 198l41 -126q-61 -22 -112.5 -60.5t-88.5 -89.5
t-57.5 -112.5t-20.5 -128.5q0 -166 121 -290q65 -61 139 -91t164 -30q175 0 299 121q121 126 121 290q0 67 -20.5 129.5t-58 114t-90 89.5t-116.5 58l32 130q174 -49 278 -196q54 -71 79.5 -150.5t25.5 -167.5t30 -161t90 -136q121 -121 298 -121q91 0 164 30t135 91
q124 123 124 290q0 86 -30.5 158.5t-93.5 134.5q-62 61 -135 91.5t-164 30.5q-36 0 -70 -6.5t-67 -17.5l-59 118q48 20 96 29.5t98 9.5q234 0 395 -159q83 -80 123 -177t40 -212z" />
    <glyph glyph-name="C_RA" unicode="&#x101b;" horiz-adv-x="1373" 
d="M1044 -755v1355q0 178 -123 294q-125 119 -300 119t-300 -119q-119 -119 -119 -294q145 -2 252.5 -28.5t183.5 -77.5q154 -105 264 -368q-134 -77 -284 -77q-235 0 -398 160q-160 163 -160 386q0 233 160 393q163 162 398 162q233 0 393 -160q84 -78 123.5 -175
t39.5 -215v-1210h139v-145h-269zM725 194q-116 310 -513 300q36 -126 153 -222q117 -90 256 -90q40 0 65.5 3.5t38.5 8.5z" />
    <glyph glyph-name="C_LA" unicode="&#x101c;" horiz-adv-x="2200" 
d="M2140 604q0 -234 -163 -391q-81 -78 -179 -118t-216 -40q-224 0 -388 158q-163 154 -163 387q0 85 -30.5 158t-88.5 133q-118 121 -291 121q-176 0 -302 -119q-121 -117 -121 -289q0 -171 121 -295q64 -58 138 -88t164 -30q36 0 74 5.5t76 19.5l39 -125
q-49 -17 -96 -26.5t-98 -9.5q-117 0 -215 40t-180 118q-161 158 -161 387q0 226 161 387q163 163 395 163q229 0 391 -161q163 -154 163 -385q0 -171 120 -295q118 -118 295 -118q90 0 163 30t136 88q123 123 123 295q0 168 -123 287q-125 121 -299 121q-82 0 -158 -25
l-49 124q54 20 103.5 29.5t100.5 9.5q231 0 395 -161q84 -78 123.5 -174t39.5 -211z" />
    <glyph glyph-name="C_WA" unicode="&#x101d;" horiz-adv-x="1241" 
d="M1181 602q0 -115 -41.5 -209.5t-123.5 -178.5q-164 -159 -399 -159q-231 0 -394 159q-163 160 -163 388q0 226 163 386q163 162 394 162q120 0 217.5 -39.5t181.5 -120.5q165 -161 165 -388zM1048 602q0 175 -123 294q-128 122 -301 122q-177 0 -305 -122
q-122 -119 -122 -294q0 -166 122 -291q64 -60 139 -90.5t166 -30.5q88 0 162.5 30.5t138.5 90.5q123 124 123 291z" />
    <glyph glyph-name="C_SA" unicode="&#x101e;" horiz-adv-x="2203" 
d="M2143 602q0 -227 -165 -387q-82 -81 -182 -120.5t-218 -39.5q-333 0 -496 283q-38 -65 -91 -117.5t-117 -89.5t-137.5 -56.5t-153.5 -19.5q-79 0 -152 20t-137 57t-117.5 89.5t-92.5 116.5l129 66q118 -214 373 -214q91 0 166.5 30.5t138.5 88.5q63 60 93.5 133.5
t30.5 159.5q0 177 -124 294q-126 120 -305 120q-66 0 -126.5 -18.5t-112 -52t-92.5 -81t-67 -105.5l-128 53q34 75 87.5 137t121.5 107t148 69.5t166 24.5q241 0 404 -161q166 -155 166 -387q0 -173 123 -293q64 -58 138.5 -88.5t163.5 -30.5q91 0 167 30.5t139 88.5
q126 120 126 293q0 85 -31.5 158.5t-94.5 132.5q-63 62 -140 92.5t-166 30.5q-41 0 -78 -8.5t-73 -23.5l-46 127q53 20 102 29.5t95 9.5q236 0 400 -161q165 -156 165 -387z" />
    <glyph glyph-name="C_HA" unicode="&#x101f;" horiz-adv-x="2203" 
d="M2143 604q0 -115 -39.5 -212t-122.5 -178q-82 -80 -179.5 -119.5t-215.5 -39.5q-133 0 -254 62l54 126q47 -27 98 -40t105 -13q86 0 160 30t135 89q125 122 125 295t-125 289q-122 123 -295 123q-174 0 -297 -120q-122 -119 -122 -292q0 -115 -40 -212t-122 -178
q-161 -159 -394 -159q-115 0 -211.5 39.5t-179.5 117.5q-163 160 -163 390q0 82 23.5 159.5t67.5 143t106 117t139 82.5l54 -124q-57 -26 -103.5 -64t-79.5 -86t-51.5 -105t-18.5 -121q0 -171 122 -295q64 -59 137.5 -89t160.5 -30q90 0 164 30t136 89q63 62 93.5 135.5
t30.5 159.5q0 66 -20.5 125t-56.5 108.5t-86.5 88t-110.5 62.5l41 123q191 -68 294 -243q157 282 484 282q118 0 215.5 -40t179.5 -120q83 -78 122.5 -174.5t39.5 -211.5z" />
    <glyph glyph-name="C_LLA" unicode="&#x1020;" horiz-adv-x="1245" 
d="M1185 31q-79 -84 -236 -146q-149 -61 -278 -61q-128 0 -221 25q-96 24 -223 99v-387q0 -192 252 -192h478q79 0 82 56q5 65 -82 68l-86 5v131l112 3q82 3 137 -61q63 -71 63 -146q0 -42 -14 -78.5t-41 -63.5t-65.5 -42.5t-87.5 -15.5h-482q-415 0 -415 302v531
q0 74 69 80q16 0 46 -11q239 -152 478 -152q99 0 202 31q54 17 95.5 38.5t70.5 50.5v112q-81 -75 -170.5 -111.5t-192.5 -38.5q-251 -6 -434 150q-182 155 -182 389q0 238 161 396q81 78 184.5 118t234.5 40q81 0 159 -18t147 -51.5t126.5 -82.5t96.5 -111l-115 -71
q-121 199 -419 199q-176 0 -307 -131t-127 -285q2 -94 36.5 -166t101.5 -126q133 -106 335 -103q224 4 385 203l126 -57v-319z" />
    <glyph glyph-name="IV_A" unicode="&#x1021;" horiz-adv-x="2200" 
d="M2140 607q0 -235 -175 -394q-87 -78 -190.5 -118t-227.5 -40q-27 0 -55 9.5t-51.5 24.5t-40.5 34t-22 39q77 240 207 351q70 60 174 91.5t241 39.5q-20 157 -150 266q-63 52 -137.5 79t-162.5 27q-118 0 -209 -36.5t-157 -111.5q0 -86 -55.5 -141t-166.5 -78v-2
q290 -65 290 -253q0 -90 -54.5 -157.5t-164.5 -111.5q-169 -70 -402 -70q-177 0 -314 49q-228 72 -257 305h158q-26 -128 150 -193q56 -21 126 -30.5t155 -9.5q69 0 137 11.5t136 36.5q177 64 177 160q0 193 -476 193h-97v115q38 -2 65.5 -3.5t44.5 -1.5q67 0 128.5 9.5
t116.5 26.5q152 50 152 148q0 81 -162 123q-57 17 -113.5 24.5t-113.5 7.5q-75 0 -139.5 -12t-115.5 -32q-154 -57 -136 -183h-152q0 349 553 349q347 0 481 -149q174 151 412 151q245 0 418 -161q88 -78 131.5 -174t43.5 -208zM1990 528q-205 -20 -318.5 -104t-140.5 -236
q82 0 155.5 24.5t141.5 71.5q135 97 162 244z" />
    <glyph glyph-name="IV_I" unicode="&#x1023;" horiz-adv-x="2198" 
d="M2138 621q0 -183 -99 -322t-297 -241l-51 114q82 45 140 90t94 93q71 93 71 266q0 151 -129 275q-128 129 -294 125q-133 -3 -254 -61q-138 -91 -138 -235v-454l-145 -3l-5 457q0 63 -34.5 117t-105.5 98q-119 73 -237 79q-225 0 -355 -150q-50 -63 -73 -124t-21 -124
q2 -155 77 -261.5t224 -169.5l-43 -127q-403 164 -403 558q0 185 145 345q159 184 451 184q269 0 448 -225q178 225 478 225q115 0 212 -39.5t179 -117.5q165 -157 165 -372zM1508 -745l-2 202q58 11 106.5 37t83.5 61.5t54.5 77.5t19.5 86q0 235 -308 240q-43 2 -85.5 -9
t-88.5 -34q-98 -39 -101 -108l-3 -243h-130l-2 243q0 75 -101 119q-43 17 -87.5 24.5t-93.5 9.5q-71 0 -127.5 -16.5t-95.5 -48t-60 -76.5t-21 -101q0 -98 92 -180q35 -35 63.5 -53t52.5 -18l-39 -96q-71 0 -179 90q-69 58 -101.5 121.5t-32.5 135.5q0 146 132 247
q67 53 146 78t170 25q136 0 228 -42q27 -18 56.5 -36t61.5 -37q76 58 161 86.5t185 28.5q92 0 172.5 -25t149.5 -78q139 -103 139 -247q0 -134 -99 -227q-30 -28 -74 -57t-106 -61v-20h272l9 -111z" />
    <glyph glyph-name="IV_II" unicode="&#x1024;" horiz-adv-x="2450" 
d="M2249 -775v1379q0 215 -114.5 363t-347.5 239q-269 135 -269 373q0 167 132 281q136 117 313 117q209 0 360 -178l-93 -104q-22 20 -44.5 43t-47.5 46q-77 47 -175 47q-64 0 -113.5 -17t-91.5 -49q-96 -69 -96 -186q0 -94 59.5 -161t177.5 -113q85 -37 161 -86.5
t148 -109.5q97 -112 139.5 -236t33.5 -269v-1379h-132zM2075 -440q0 -116 -64 -213q-36 -61 -79.5 -91.5t-100.5 -30.5h-1429q-72 0 -130.5 25t-110.5 76q-101 95 -101 234q0 141 103 219q89 73 239 86q51 6 80.5 8.5t39.5 2.5q19 0 40 -2.5t41 -8.5l800 -169l-34 -136
l-771 170q-6 2 -17 2h-28q-29 0 -59 -1.5t-60 -6.5q-234 -36 -229 -164q3 -190 229 -190l1295 -2q207 0 207 226v1028q0 81 -30 149.5t-94 125.5q-66 57 -135.5 85.5t-154.5 28.5q-60 0 -117 -17t-115 -50q-109 -64 -149 -164q22 -39 31.5 -77.5t9.5 -80.5q0 -373 -388 -566
l-46 140l169 137q106 115 106 293q0 146 -121 261q-119 120 -276 120q-171 0 -300 -108q-60 -55 -90.5 -121.5t-30.5 -151.5q0 -291 282 -430l-36 -140q-391 171 -391 566q0 97 34 180.5t104 162.5q82 94 189.5 139.5t245.5 45.5q265 0 436 -220q129 220 463 220
q115 0 209.5 -38t172.5 -117t119.5 -170t41.5 -203v-1062z" />
    <glyph glyph-name="IV_U" unicode="&#x1025;" horiz-adv-x="1244" 
d="M1183 620q3 -253 -164 -411q-163 -156 -434 -156q-117 0 -213 36.5t-171 111.5v-662q0 -38 13.5 -70.5t38.5 -56.5t59 -37.5t75 -13.5h424q215 0 219 175h150q0 -66 -20 -122.5t-58 -98.5t-93 -66t-125 -24h-530q-99 0 -197 90q-95 87 -95 175v906l134 51
q47 -105 158 -182q57 -38 116 -57.5t120 -21.5q197 -8 328 117q129 127 129 312q0 78 -32 148t-97 129q-129 122 -299 122q-323 0 -433 -272l-126 41q160 367 559 367q101 0 194 -34.5t178 -103.5q187 -157 192 -392z" />
    <glyph glyph-name="IV_UU" unicode="&#x1026;" horiz-adv-x="1229" 
d="M1168 604q3 -244 -161 -405q-164 -158 -427 -158q-230 0 -382 149v-649q0 -41 14.5 -74.5t39 -57t58.5 -36.5t73 -13h416q217 0 217 178h150q0 -71 -19.5 -128.5t-57 -98.5t-92.5 -63.5t-127 -22.5h-518q-102 0 -196 87q-94 84 -94 178v897l131 47q41 -106 159 -182
q118 -74 228 -77q201 -6 325 121q126 124 126 308q0 167 -126 284q-63 63 -136.5 92t-158.5 29q-317 0 -424 -272l-126 41q154 366 547 366q103 0 195 -36t174 -106q97 -78 143.5 -175.5t48.5 -222.5zM1023 1574q4 -199 -137 -322q-118 -103 -255 -103q-89 0 -162.5 28.5
t-130.5 88.5q-60 59 -88.5 135t-28.5 169q0 170 117 287q118 121 278 121q172 0 288 -116q119 -117 119 -288zM927 1570q0 133 -92 222q-95 87 -219 87t-210 -92q-87 -97 -84 -222q0 -43 4 -75.5t15 -56.5q106 109 265 106q169 0 290 -106q31 56 31 137zM840 1351
q-80 89 -234 89q-63 0 -112.5 -23t-90.5 -68q41 -48 95 -72.5t125 -24.5q133 0 217 99z" />
    <glyph glyph-name="IV_E" unicode="&#x1027;" horiz-adv-x="1239" 
d="M1179 787q-120 -157 -323 -157q-157 0 -271 102q-109 100 -121 249q-62 -24 -109.5 -63t-80.5 -88.5t-50 -107t-17 -119.5q0 -64 16 -122t48.5 -107.5t80.5 -88t112 -62.5q6 72 36 132.5t87 108.5q58 49 124.5 74t144.5 25q201 0 320 -150q-32 -83 -86 -149t-125 -112.5
t-155.5 -71.5t-177.5 -25q-240 0 -406 157q-166 160 -166 389q0 227 166 387q166 162 406 162q94 0 180 -25t157 -72.5t125 -114.5t85 -151zM1023 799q-124 214 -383 214h-24.5t-25.5 -2q0 -98 76 -183q79 -82 190 -82q94 0 167 53zM1011 388q-34 25 -72 38t-83 13
q-54 0 -102 -20t-84 -54.5t-57.5 -79.5t-22.5 -95h50q246 0 371 198z" />
    <glyph glyph-name="IV_O" unicode="&#x1029;" horiz-adv-x="2485" 
d="M2425 -536q0 -43 -15.5 -84.5t-47.5 -77.5q-62 -77 -157 -77h-1891q-55 0 -101.5 18t-80.5 49.5t-53 74t-19 92.5v2268q0 102 77 176q79 75 189 75h1828q104 0 187 -71q84 -69 84 -164v-107h-130v64q0 28 -10 57t-28.5 52.5t-45 38t-59.5 14.5h-1793q-35 0 -65 -14
t-53 -36t-36 -50.5t-13 -56.5v-2208q0 -31 11 -59.5t31 -49.5q20 -22 47.5 -24t60.5 -2h1835q27 0 48.5 15t36.5 28q15 12 23 40.5t8 54.5v902l132 172v-1110zM2411 597q0 -216 -167 -380q-163 -160 -401 -160q-337 0 -496 282q-37 -65 -89.5 -117t-116.5 -89t-137.5 -56.5
t-151.5 -19.5q-81 0 -156.5 19.5t-141 56.5t-117.5 89t-86 117l121 71q122 -221 382 -221q91 0 165 29.5t137 89.5q63 63 93.5 133.5t30.5 155.5q0 182 -124 299q-121 121 -302 121q-69 0 -131 -18.5t-113.5 -52t-91.5 -80.5t-64 -104l-132 54q35 75 89 136.5t122.5 105.5
t149 68t169.5 24q238 0 401 -160q164 -158 164 -393q0 -166 124 -289q131 -119 304 -119q174 0 305 119q63 63 93 133.5t30 155.5q0 176 -126 299q-124 121 -302 121q-79 0 -154 -27l-49 121q106 39 201 39q238 0 401 -160q167 -156 167 -393z" />
    <glyph glyph-name="IV_AU" unicode="&#x102a;" horiz-adv-x="4492" 
d="M3337 -544q0 -46 -15 -88.5t-41.5 -75t-63.5 -52t-82 -19.5h-1639q-50 0 -92.5 17t-73.5 47.5t-48.5 73t-17.5 93.5v2271q0 53 18 98.5t50.5 79t77.5 52.5t99 19h1579q51 0 93.5 -16.5t80.5 -51.5q75 -66 75 -164v-108h-114v65q0 30 -9.5 59t-27 52t-43 37t-57.5 14
h-1551q-33 0 -61.5 -13.5t-49.5 -35t-33 -49.5t-12 -57v-2216q0 -59 38 -97t104 -38h1587q12 0 23 0.5t20.5 3.5t17.5 10.5t15 21.5q18 27 25.5 52t7.5 48v754l120 120v-907zM3419 609q0 -116 -40 -213t-118 -181q-156 -160 -385 -160q-317 0 -474 282q-37 -66 -87.5 -118
t-111.5 -88.5t-130 -56t-143 -19.5q-77 0 -148 19.5t-132.5 56.5t-111.5 89t-86 117l119 71q55 -112 146 -164.5t216 -52.5q86 0 157 30t131 91q59 64 88.5 136.5t29.5 160.5q0 85 -29.5 155.5t-88.5 130.5q-60 60 -131 88.5t-157 28.5q-63 0 -122 -18t-108.5 -51
t-87.5 -79.5t-61 -103.5l-127 49q30 81 81 144t116.5 107t143.5 67t162 23q226 0 380 -160q162 -162 162 -381q0 -88 28.5 -160.5t88.5 -136.5q118 -121 290 -121q173 0 288 121q60 64 88.5 136.5t28.5 160.5q0 81 -28.5 152.5t-88.5 131.5q-118 119 -288 119
q-41 0 -77 -5.5t-69 -14.5l-45 119q53 20 98.5 29.5t89.5 9.5q229 0 385 -160q78 -81 118 -175.5t40 -205.5zM1173 411q-32 -79 -86.5 -144t-125 -112t-154 -73t-172.5 -26q-241 0 -410 160q-165 160 -165 393q0 112 41.5 206t123.5 175q169 160 410 160q87 0 167.5 -23.5
t149 -66.5t122.5 -104t87 -137l-121 -58q-26 57 -67 104t-93 81.5t-113.5 53.5t-128.5 19q-93 0 -170.5 -31t-140.5 -91q-127 -118 -127 -286q0 -62 18 -120t51.5 -107.5t81 -89.5t107.5 -67q37 171 134.5 256t261.5 85q203 0 319 -157zM984 377q-45 26 -84 39.5t-71 13.5
q-239 4 -270 -249q14 -2 28 -2h27q57 0 113 14.5t105 40.5t88.5 62.5t63.5 80.5zM4432 606q0 -233 -159 -392t-394 -159q-53 0 -106 11.5t-104 33.5l50 122q82 -35 162 -35q179 0 300 124q61 63 91.5 135.5t30.5 159.5q0 170 -122 287q-61 60 -135.5 90.5t-164.5 30.5
q-164 0 -290 -123q-64 -61 -95 -132.5t-31 -152.5h-131q0 223 160 382q161 162 385 162q235 0 394 -159q159 -161 159 -385zM4205 1676q-75 182 -278 182q-59 0 -110.5 -22.5t-99.5 -67.5q-45 -44 -68.5 -94.5t-23.5 -110.5t23.5 -110t68.5 -94q48 -45 99.5 -66.5
t110.5 -21.5q27 0 51.5 4t49.5 12l34 -126q-32 -10 -66 -14.5t-69 -4.5q-181 0 -309 125q-63 62 -95 134.5t-32 157.5q0 88 32 161.5t95 135.5q124 123 309 123q278 0 396 -242z" />
    <glyph glyph-name="DV_AA" horiz-adv-x="1018" 
d="M958 605q0 -232 -159 -391q-81 -81 -179.5 -120t-213.5 -39q-54 0 -106.5 11.5t-103.5 33.5l50 122q84 -35 161 -35q177 0 300 124q61 64 91.5 136.5t30.5 157.5q0 169 -122 288q-63 60 -136.5 90.5t-163.5 30.5q-163 0 -290 -123q-126 -122 -126 -286h-131
q0 224 160 383q160 162 386 162q115 0 213.5 -39t179.5 -120q159 -161 159 -386z" />
    <glyph glyph-name="DV_I" 
d="M-120 1565q0 -167 -118 -288q-116 -122 -284 -122q-161 0 -282 124t-118 286q4 172 118 292q115 118 282 118q168 0 284 -120q118 -121 118 -290zM-233 1565q0 64 -21.5 118t-60 93.5t-91.5 61.5t-116 22q-61 0 -113.5 -22t-91 -61.5t-60.5 -93.5t-22 -118
q0 -122 86 -208q42 -45 91.5 -65t109.5 -20q63 0 116 23t91.5 62.5t60 93t21.5 114.5z" />
    <glyph glyph-name="DV_II" 
d="M-121 1571q4 -199 -137 -322q-118 -103 -255 -103q-90 0 -163 28.5t-130 88.5q-60 60 -88.5 135t-28.5 169q0 170 117 287q118 121 278 121q172 0 288 -116q119 -117 119 -288zM-217 1567q0 133 -92 222q-95 87 -219 87t-210 -92q-87 -98 -84 -222q0 -43 4 -75.5
t15 -56.5q106 109 265 106q169 0 290 -106q31 55 31 137zM-304 1348q-80 89 -234 89q-63 0 -112 -23t-91 -68q42 -48 95 -72.5t125 -24.5q133 0 217 99z" />
    <glyph glyph-name="DV_U" horiz-adv-x="26" 
d="M-630 -775v805h143v-663h183v-142h-326z" />
    <glyph glyph-name="DV_UU" horiz-adv-x="12" 
d="M-550 -775v805h142v-662h180v-143h-322zM-780 -775v805h142v-802z" />
    <glyph glyph-name="DV_E" horiz-adv-x="1178" 
d="M1118 406q-32 -80 -84 -144.5t-118.5 -110.5t-144.5 -71t-163 -25q-226 0 -388 159q-160 160 -160 388t160 385q160 163 388 163q81 0 158 -23.5t143 -67t118 -105t83 -137.5l-114 -60q-24 59 -63 107t-89 82t-109.5 52.5t-126.5 18.5q-169 0 -293 -121
q-118 -121 -118 -294q0 -60 17 -116.5t49 -106t77 -89.5t101 -67q67 340 372 340q199 0 305 -157zM965 390q-86 45 -149 45q-218 5 -254 -245q13 -2 25 -2.5t21 -0.5q55 0 110 15t103 42t85.5 64t58.5 82z" />
    <glyph glyph-name="IV_AI" horiz-adv-x="19" 
d="M-184 1146l-676 604l81 100l678 -602z" />
    <glyph glyph-name="VSD_ANU" 
d="M-350 1409q0 -36 -13.5 -66.5t-37.5 -52.5t-55.5 -34.5t-67.5 -12.5q-39 0 -71 11.5t-55.5 33t-36.5 52t-13 69.5q0 36 14 66t38 51.5t56 34t68 12.5q35 0 66.5 -13.5t55.5 -36t38 -52t14 -62.5zM-459 1409q0 56 -67 56q-60 0 -60 -56q0 -63 62 -63q65 0 65 63z" />
    <glyph glyph-name="VSD_DB" 
d="M-350 -255q0 -36 -13.5 -66.5t-37.5 -52.5t-55.5 -34.5t-67.5 -12.5q-39 0 -71 11.5t-55.5 33t-36.5 52t-13 69.5q0 36 14 66t38 51.5t56 34t68 12.5q35 0 66.5 -13.5t55.5 -36t38 -52t14 -62.5zM-459 -255q0 56 -67 56q-60 0 -60 -56q0 -63 62 -63q65 0 65 63z" />
    <glyph glyph-name="VSD_VIS" horiz-adv-x="470" 
d="M410 881q0 -36 -13.5 -66.5t-37.5 -52.5t-55.5 -34.5t-67.5 -12.5q-39 0 -71 11.5t-55.5 33t-36.5 52t-13 69.5q0 36 14 66t38 51.5t56 34t68 12.5q35 0 66.5 -13.5t55.5 -36t38 -52t14 -62.5zM301 881q0 56 -67 56q-60 0 -60 -56q0 -63 62 -63q65 0 65 63zM410 301
q0 -36 -13.5 -66.5t-37.5 -52.5t-55.5 -34.5t-67.5 -12.5q-39 0 -71 11.5t-55.5 33t-36.5 52t-13 69.5q0 36 14 66t38 51.5t56 34t68 12.5q35 0 66.5 -13.5t55.5 -36t38 -52t14 -62.5zM301 301q0 56 -67 56q-60 0 -60 -56q0 -63 62 -63q65 0 65 63z" />
    <glyph glyph-name="S_VIR" horiz-adv-x="27" 
d="M-243 1656q-90 186 -292 186q-65 0 -119.5 -23t-93.5 -63t-60.5 -92.5t-21.5 -112.5q0 -116 91 -204q90 -87 210 -87q22 0 51 8t71 24l50 -121q-123 -40 -206 -40q-404 60 -404 455q0 60 26.5 118t80.5 118q133 154 337 154q176 0 303 -124q97 -100 97 -142z" />
    <glyph glyph-name="D_ZERO" unicode="&#x1040;" horiz-adv-x="1241" 
d="M1181 602q0 -224 -166 -387q-163 -160 -400 -160q-228 0 -391 160q-164 161 -164 387q0 224 164 385q163 163 391 163q121 0 218.5 -39.5t181.5 -121.5q166 -160 166 -387zM1048 602q0 176 -124 294q-128 122 -302 122q-175 0 -303 -122q-121 -120 -121 -294
q0 -166 121 -290q66 -60 141 -91t162 -31q88 0 163 31t139 91q124 124 124 290zM553 602q0 24 18 41t43 17q26 0 45.5 -17t19.5 -41q0 -26 -19.5 -44t-45.5 -18q-25 0 -43 18t-18 44z" />
    <glyph glyph-name="D_ONE" unicode="&#x1041;" horiz-adv-x="1236" 
d="M1176 602q0 -225 -169 -386t-408 -161q-89 0 -172.5 25.5t-154.5 72t-125.5 112t-86.5 145.5l136 46q24 -62 64 -111.5t93 -83.5t116 -52t132 -18q182 0 310 122q63 62 95 134t32 155q0 87 -32 160.5t-95 132.5q-129 121 -310 121q-69 0 -132 -19t-116 -54t-93 -85
t-64 -111l-136 46q34 80 89.5 146t125.5 113t152.5 72.5t171.5 25.5q239 0 408 -161q169 -157 169 -387z" />
    <glyph glyph-name="D_TWO" unicode="&#x1042;" horiz-adv-x="1235" 
d="M1175 -180q0 -253 -167 -423q-165 -172 -414 -172q-204 0 -368 125q-167 121 -226 308l139 54q21 -78 65.5 -139t105 -103.5t133.5 -64.5t151 -21q91 4 168.5 37t140.5 96q126 121 126 303l3 1330h139z" />
    <glyph glyph-name="D_THREE" unicode="&#x1043;" horiz-adv-x="1231" 
d="M1169 615q2 -131 -47.5 -235.5t-146.5 -185.5q-165 -142 -382 -142q-178 0 -264 64l336 -891h-154l-451 1192l127 32q144 -260 406 -260q198 0 316 124q122 127 122 302q0 152 -130 275q-128 128 -299 128q-147 0 -249 -73q-38 -27 -77.5 -74.5t-79.5 -117.5l-133 41
q34 83 87.5 149t123 112t153 70.5t178.5 24.5q247 0 402 -153q156 -152 162 -382z" />
    <glyph glyph-name="D_FOUR" unicode="&#x1044;" horiz-adv-x="1220" 
d="M1031 752q-43 129 -168 195q-126 67 -262 67q-167 0 -277 -131q-114 -132 -114 -295q0 -159 121 -280q60 -60 130.5 -89t151.5 -31q228 -8 416 265l128 -42l-465 -1186h-150l367 917q-137 -88 -298 -88q-114 0 -211 38.5t-178 118.5q-162 157 -162 377q0 222 150 393
q154 169 383 169q416 0 567 -349z" />
    <glyph glyph-name="D_FIVE" unicode="&#x1045;" horiz-adv-x="1304" 
d="M1244 -151q0 -260 -164 -440q-166 -184 -425 -184q-461 0 -595 418l143 37q112 -298 452 -298q191 0 317 135q63 66 93.5 149.5t30.5 182.5v680q0 101 -32 185t-94 151q-125 137 -326 137q-149 0 -205 -45q98 -18 154 -105q22 -38 34 -82.5t12 -98.5q0 -109 -92 -185
q-91 -75 -207 -75q-56 0 -104.5 23t-84.5 62t-56.5 90.5t-20.5 109.5q0 103 48 186t143 150q85 58 181.5 88t208.5 30q246 0 416 -185q88 -94 130.5 -202t42.5 -234v-680zM496 677q0 29 -10.5 55.5t-29 46.5t-43.5 31.5t-54 11.5q-81 0 -120 -57q-20 0 -20 -94q0 -24 10 -46
t27.5 -38.5t39.5 -26.5t46 -10q30 0 57.5 9.5t49 26.5t34.5 40.5t13 50.5z" />
    <glyph glyph-name="D_SIX" unicode="&#x1046;" horiz-adv-x="1188" 
d="M1127 565q-2 -106 -40.5 -195.5t-114.5 -164.5q-150 -150 -364 -150q-224 0 -385 148q-163 147 -163 362v872q0 229 145 384q144 154 382 154q383 0 511 -352l-124 -46q-45 131 -140.5 195.5t-246.5 64.5q-175 0 -281 -120q-52 -60 -79 -133t-27 -161v-858q0 -86 29 -156
t82 -119.5t126.5 -76.5t163.5 -27q78 0 148 28.5t130 84.5q119 114 122 266q0 35 -4.5 51t-16 21.5t-31.5 4.5t-52 -1q-18 0 -46.5 -5t-66.5 -14q-38 -10 -66 -13.5t-48 -3.5q-99 0 -182 80q-40 40 -60.5 83t-20.5 92q0 59 19.5 111.5t54.5 92.5t83.5 63t107.5 23
q161 0 262 -147l-99 -51q-38 73 -163 73q-142 0 -139 -165q0 -28 11 -52t30 -42t44 -28t54 -10q35 0 103 14q32 9 57 13t41 4h27q116 0 166 -35q16 -13 28 -25.5t19.5 -30t11 -42t2.5 -61.5z" />
    <glyph glyph-name="D_SEVEN" unicode="&#x1047;" horiz-adv-x="1237" 
d="M1177 606q0 -108 -44 -213t-133 -207q-109 -108 -325 -313q-175 -172 -178 -321q0 -38 16.5 -72t44 -59.5t63 -40.5t74.5 -15q172 0 222 123l111 -63q-110 -200 -333 -200q-66 0 -125 26.5t-114 77.5q-105 102 -105 223q0 194 183 371q56 50 138 125t193 178
q176 181 181 383q3 178 -124 293q-128 120 -320 120q-172 0 -282 -127q-55 -62 -82 -134.5t-27 -154.5q0 -125 68 -217l-118 -80q-51 93 -76 167.5t-25 129.5q0 223 151 383q155 161 391 161q247 0 410 -157q82 -78 123.5 -173.5t41.5 -213.5z" />
    <glyph glyph-name="D_EIGHT" unicode="&#x1048;" horiz-adv-x="1253" 
d="M1193 591q0 -82 -23.5 -158t-69.5 -152q-89 -165 -235 -222l-60 125q105 45 179 169q37 63 56 121.5t19 118.5q0 87 -29 160t-90 136q-60 64 -132 93.5t-163 29.5q-52 0 -106.5 -11.5t-111.5 -36.5q45 -66 75.5 -123t48.5 -108q17 -52 25 -116t8 -143q0 -95 -32 -193
t-94 -202q-14 -17 -31.5 -21.5t-43.5 6.5q-78 33 -139 89.5t-104 137.5q-80 150 -80 317q0 188 140 350q170 191 445 191q229 0 388 -167q160 -172 160 -391zM453 476q0 226 -138 400q-58 -47 -85.5 -113t-27.5 -155q0 -128 45.5 -221.5t135.5 -149.5q70 129 70 239z" />
    <glyph glyph-name="D_NINE" unicode="&#x1049;" horiz-adv-x="1210" 
d="M1150 664q0 -73 -15.5 -120.5t-47.5 -67.5q-48 -30 -173 -33q-2 0 -7 -1.5t-12 -3.5h-19q-16 0 -42 4.5t-53.5 9.5t-53.5 9.5t-41 4.5q-29 0 -54.5 -12t-44 -31.5t-29.5 -44t-11 -49.5q0 -157 139 -157q114 0 164 78l99 -47q-105 -149 -263 -149q-61 0 -111 22.5
t-85.5 60.5t-55 89t-19.5 108q0 93 82 172q87 79 185 79q40 0 118 -18t111 -18q115 5 112 115q-4 81 -35.5 146.5t-85 111.5t-126 71t-158.5 25q-84 0 -157.5 -25t-133.5 -76q-63 -51 -93 -112t-30 -138v-919q0 -83 28 -154t79 -123t123.5 -81t162.5 -29q310 0 404 248
l119 -35q-138 -349 -523 -349q-234 0 -388 154q-149 152 -149 369v916q0 103 41 188t126 156t181 106.5t210 35.5q115 0 208.5 -35.5t169.5 -106.5q154 -142 154 -344z" />
    <glyph glyph-name="P_LS" unicode="&#x104a;" horiz-adv-x="256" 
d="M60 31v1099h134l2 -1099h-136z" />
    <glyph glyph-name="P_S" unicode="&#x104b;" horiz-adv-x="510" 
d="M60 31v1099h134l2 -1099h-136zM314 31v1099h134l2 -1099h-136z" />
    <glyph glyph-name="VSI_LOCA" unicode="&#x104c;" horiz-adv-x="1243" 
d="M1181 586q-4 -226 -175 -382q-86 -78 -186 -116t-220 -36q-185 3 -350 145l-5 -101q56 -53 169 -92q52 -17 99.5 -26t91.5 -9q97 0 196 30t202 89q29 20 49 20q60 0 60 -68v-480q0 -335 -309 -335h-434q-309 0 -309 238q0 128 72 170q28 17 76.5 25t114.5 8q-13 0 5 -1.5
t67 -3.5h72l8 -127h-152q-35 0 -56.5 -1.5t-31.5 -3.5q-45 -12 -45 -63q0 -35 9.5 -59t30.5 -37q14 -10 37.5 -9.5t60.5 0.5h410q65 0 110.5 10t74 34t41 64.5t12.5 102.5v347q-162 -79 -371 -79q-62 0 -126.5 13.5t-132.5 37.5q-151 54 -223 139v311l130 58
q80 -106 166.5 -158t180.5 -54q88 -2 164.5 25t145.5 86q136 117 139 288q4 179 -121 303q-123 128 -301 128q-252 0 -385 -226l-115 72q35 64 88 117t124 92q143 80 293 75q238 -3 395 -166q78 -82 117 -180.5t37 -214.5zM919 1672q-75 182 -278 182q-59 0 -110.5 -22.5
t-99.5 -67.5q-45 -44 -68.5 -94.5t-23.5 -110.5t23.5 -110t68.5 -94q48 -45 99.5 -66.5t110.5 -21.5q27 0 51.5 4t49.5 12l34 -126q-32 -10 -66 -14.5t-69 -4.5q-181 0 -309 125q-63 62 -95 134.5t-32 157.5q0 88 32 161.5t95 135.5q124 123 309 123q278 0 396 -242z" />
    <glyph glyph-name="VSI_COMP" unicode="&#x104d;" horiz-adv-x="1498" 
d="M1438 -473q0 -57 -21.5 -110.5t-63.5 -98.5q-42 -46 -89.5 -69.5t-103.5 -23.5h-774q-156 0 -219 35q-98 44 -93 184q2 60 17.5 101.5t47.5 62.5q26 19 71.5 27t108.5 10q15 0 37 -1t45 -1.5t43.5 -1.5t33.5 -1l5 -131h-87h-9.5t-19.5 2h-21q-34 0 -56.5 -1.5t-33.5 -6.5
q-48 -22 -48 -72q0 -66 128 -66q40 0 78 0.5t64 1t37.5 1t-0.5 0.5h563q222 0 222 174v1008q0 424 -439 600q-251 120 -251 444q0 86 29.5 155t89.5 120q121 106 296 106q218 0 338 -177l-76 -93l-91 83q-38 25 -79.5 37.5t-91.5 12.5q-59 0 -108.5 -17t-86.5 -48.5
t-57.5 -76.5t-20.5 -102q0 -260 247 -364q76 -30 144.5 -81t132.5 -123q162 -201 162 -476v-1023zM1032 -333v944q0 88 -30 161t-93 133q-124 121 -297 121t-293 -121q-118 -119 -118 -294q282 0 430 -103q75 -51 139 -142t120 -222q-128 -79 -283 -79q-222 0 -386 156
q-161 158 -161 390q0 112 40 207.5t121 174.5q81 81 177.5 121t208.5 40q230 0 393 -158q161 -158 161 -385v-944h-129zM708 186q-54 154 -177.5 226.5t-317.5 61.5q17 -62 53 -114t94 -97q58 -44 119.5 -64.5t127.5 -20.5q77 0 101 8z" />
    <glyph glyph-name="VSI_AFOR" unicode="&#x104e;" horiz-adv-x="1186" 
d="M981 -775v986q-90 -79 -187.5 -119t-203.5 -38q-218 4 -374 159q-81 79 -118.5 171t-37.5 204t36.5 208.5t111.5 181.5q75 87 164.5 128t197.5 41q414 0 556 -346l-123 -55q-43 126 -167 195q-119 70 -254 70q-160 0 -269 -129q-105 -129 -105 -294q0 -78 29 -146.5
t86 -131.5q117 -124 270 -124q229 0 405 260l128 -40v-1181h-145z" />
    <glyph glyph-name="VSI_GENI" unicode="&#x104f;" horiz-adv-x="1807" 
d="M1619 55v895q0 123 -70.5 186t-217.5 65q-169 3 -284 118q-57 61 -86 130t-29 153q0 116 89 229q60 72 137 108t176 36q99 -10 175.5 -50.5t136.5 -110.5l-83 -84q-48 48 -105.5 77.5t-123.5 38.5q-119 0 -199 -76q-83 -72 -77 -168q3 -61 26 -110.5t61.5 -85t90.5 -55
t113 -19.5q70 0 137.5 -21t130.5 -66q66 -45 98 -117t32 -175v-898h-128zM1361 55v788q0 78 -28 120t-82 53q-130 0 -184 -98q20 -30 35.5 -62t28.5 -67q-116 -159 -312 -159q-146 0 -256 101q-108 102 -119 251q-56 -26 -101 -66t-77 -89.5t-49.5 -106.5t-17.5 -117
q0 -63 17 -120.5t48.5 -107t77 -88.5t102.5 -64q11 146 119 241q108 99 256 99q198 0 310 -151q-62 -163 -203 -259q-72 -51 -149.5 -74.5t-165.5 -23.5q-228 0 -391 159q-160 160 -160 389t160 386q164 161 391 161q213 0 371 -137q45 63 111.5 92.5t157.5 29.5
q54 0 97.5 -20.5t74 -55.5t47 -82.5t16.5 -101.5v-820h-125zM982 800q-63 109 -153 162t-216 53q-10 0 -22 -0.5t-25 -2.5q0 -52 20 -99.5t54.5 -84t80.5 -58.5t98 -22q48 0 87 13.5t76 38.5zM974 389q-68 48 -155 48q-51 0 -95.5 -19.5t-78 -52.5t-54.5 -77.5t-25 -95.5
q13 -2 25 -2.5t22 -0.5q235 0 361 200z" />
    <glyph glyph-name="PSL_SHA" unicode="&#x1050;" horiz-adv-x="1291" 
d="M419 55q-34 -2 -62 4.5t-51 25.5q-81 103 -126 171t-56 102q-22 49 -33 92t-13 78q-18 243 138 431q141 156 353 191h168q202 -32 356 -196q60 -78 92.5 -157t39.5 -164q6 -97 -14 -182t-66 -163l-157 -215l-66 -18q-79 -3 -83 24l15 89q27 61 68 103l16 32
q91 98 110 212q36 178 -86 329q-103 111 -260 133q-65 7 -183 -23q-226 -97 -261 -337q-11 -62 21 -181l47 -90l93 -123l28 -55l16 -89q-2 -11 -13.5 -16.5t-30.5 -7.5zM654 433q-49 0 -82 32.5t-33 85.5q0 25 9 46t24.5 36.5t36.5 24.5t45 9q54 0 86 -33t32 -83
q0 -53 -32 -85.5t-86 -32.5z" />
    <glyph glyph-name="PSL_SSA" unicode="&#x1051;" horiz-adv-x="1242" 
d="M545 48q-200 34 -336 191q-149 188 -132 433q2 35 13 77t29 93q21 71 177 275q44 35 110 32q34 -5 41 -25l-14 -90l-27 -56l-90 -119l-46 -95q-15 -60 -20 -104.5t0 -77.5q35 -242 253 -338q111 -31 173 -20q75 14 137 46.5t115 88.5q57 75 78 155t3 170q-9 60 -36 113
t-71 101l-15 34q-22 22 -37 47.5t-29 54.5l-14 90q2 15 23 21t57 4l66 -20l148 -217q45 -77 63 -162t13 -182q-6 -87 -38 -165.5t-89 -153.5q-144 -169 -342 -201h-163zM632 499q-48 0 -80 31.5t-32 85.5q0 24 8.5 45t23.5 37t35.5 25.5t44.5 9.5q25 0 46 -9.5t35.5 -25.5
t22.5 -37t8 -45q0 -54 -30.5 -85.5t-81.5 -31.5z" />
    <glyph glyph-name="PSL_R" unicode="&#x1052;" horiz-adv-x="1235" 
d="M546 54q-201 36 -334 190q-152 185 -135 428q4 67 42 168q24 69 174 273q48 33 111 30q17 -2 28 -9t13 -16l-14 -86l-27 -58l-91 -120l-45 -91q-27 -120 -20 -182q41 -239 252 -332q110 -30 173 -20q294 64 335 344l-32 31q-56 2 -87.5 6t-41.5 14q-32 17 -52 30t-28 23
q-94 89 -86 237q34 199 228 236h64l66 -17l29 -36l28 -48l8 -53l-10 -62q-5 -14 -13.5 -16t-22.5 6l-39 72q-14 7 -31 9t-38 0q-36 -14 -59.5 -38.5t-33.5 -62.5q-4 -103 71 -136q115 -4 166 -29q24 0 65 -49q8 -5 12 -33t4 -84q-8 -87 -40 -166t-89 -153
q-143 -168 -339 -200h-161z" />
    <glyph glyph-name="PSL_RR" unicode="&#x1053;" horiz-adv-x="1276" 
d="M545 55q-103 15 -191 65t-164 135q-60 72 -91 150.5t-37 163.5q-2 57 0.5 87t10.5 32q21 25 38.5 38.5t31.5 13.5q23 12 65.5 18t102.5 8q81 35 78 138q-24 74 -101 99q-22 2 -38 1t-30 -7l-43 -73q-27 -14 -34 8l-13 65l10 52l28 49l32 37l67 15h67q201 -38 237 -236
q4 -75 -19 -133t-72 -103q-6 -11 -27 -23.5t-55 -28.5q-19 -19 -134 -24l-33 -28q20 -152 132 -257l67 -55q47 -28 102 -43.5t115 -12t123 29t126 81.5q108 108 132 233v27l-28 25q-169 8 -226 81q-15 0 -66 83q-34 108 -23 148q42 201 241 236q52 0 85 -4t51 -14l57 -83
l8 -41q-4 -81 -23 -89h-19l-31 42q-29 72 -111 36q-22 -10 -41 -33t-33 -60q-10 -62 34 -112l50 -29q204 0 238 -91q25 -239 -132 -427q-69 -77 -155.5 -125t-192.5 -65h-166z" />
    <glyph glyph-name="PSL_L" unicode="&#x1054;" horiz-adv-x="1245" 
d="M695 67q-249 -15 -438 132q-83 66 -131 147.5t-66 181.5v160q51 219 207 338q149 110 321 122q100 5 188 -12t166 -62l217 -148l22 -63q2 -20 0 -35.5t-7 -29.5q-25 -27 -214 -115q-54 -26 -102.5 -41.5t-93.5 -19.5h-176q-196 36 -319 143l-32 -109q-4 -31 2 -74.5
t23 -98.5q94 -210 342 -248q34 -2 81 2.5t107 17.5l92 46l124 87l59 30l90 11q21 -4 24 -41q4 -61 -29 -107q-106 -75 -175.5 -118t-105.5 -52q-105 -40 -176 -44zM624 785q32 -4 79.5 2t108.5 20q52 17 116 60q3 27 -116 86l-127 34q-118 10 -178 -15q-14 -5 -46 -23
t-85 -47q14 -20 46 -42.5t85 -45.5z" />
    <glyph glyph-name="PSL_LL" unicode="&#x1055;" horiz-adv-x="1677" 
d="M647 67q-232 -15 -406 134q-148 126 -181 328v158q22 110 70 194t121 146q68 54 142 85t155 36q93 6 173 -11.5t152 -60.5l202 -149l20 -62q3 -44 -8 -65q-11 -14 -60 -42t-137 -74q-99 -54 -181 -63h-161q-180 37 -294 145l-32 -110q-5 -63 24 -171q89 -212 316 -251
h131q48 0 83 4t61.5 13t47 23.5t40.5 35.5q42 41 42 90q0 45 17.5 65t63.5 20q41 0 59.5 -20t18.5 -65q0 -33 12.5 -63t35 -53t53.5 -36.5t68 -13.5q34 0 63.5 12t51 34t33.5 52.5t12 67.5q0 45 17 65t62 20q50 0 66.5 -20.5t16.5 -64.5q0 -71 -25 -133.5t-68.5 -108.5
t-102.5 -71t-126 -20q-35 -1 -67 4.5t-62.5 25t-59.5 57t-58 99.5q-32 -57 -62 -92t-68.5 -55t-92 -28t-132.5 -11h-46zM582 786q56 -7 172 22q26 9 51.5 24.5t55.5 37.5q2 11 -24 32t-83 50l-118 34q-105 12 -167 -15q-11 -4 -40 -21t-76 -46q11 -22 40 -45t76 -44z" />
    <glyph glyph-name="PSV_R" horiz-adv-x="1257" 
d="M543 56q-203 30 -355 197q-49 50 -80 103.5t-43 113.5q-11 66 0.5 110.5t40.5 67.5l46 -5q29 -19 51 -56l40 -111q22 -55 66 -104t114 -93q121 -48 149 -48q86 -14 160.5 5t141.5 69q55 45 92.5 106t57.5 142v25l-27 25q-167 8 -224 78q-7 0 -22.5 21.5t-41.5 63.5
q-35 111 -23 148q39 200 236 236q53 0 86 -4t51 -14l58 -85l8 -39q-4 -77 -23 -89h-20l-28 41q-17 36 -44 45.5t-69 -7.5q-22 -10 -41 -32.5t-33 -60.5q-4 -33 4 -61t30 -53l48 -28q206 0 242 -92q9 -121 -24 -227t-111 -200q-137 -154 -344 -188h-169z" />
    <glyph glyph-name="PSV_RR" horiz-adv-x="2207" 
d="M576 56q-88 6 -170.5 41.5t-159.5 103.5q-68 61 -112.5 143.5t-68.5 186.5l-5 72q14 32 32.5 52t41.5 30l32 -8q38 -39 54 -85l20 -73q26 -77 71.5 -137t114.5 -102l121 -42q171 -37 314 58q48 42 77 68.5t35 44.5l57 131q-10 58 0 103q9 22 25 37.5t36 26.5l40 -5
q11 -13 21 -35t18 -54l31 -94q26 -77 72 -137t115 -102q123 -48 153 -48q85 -14 158.5 6t141.5 71q53 42 91 102t59 139v27l-32 26q-81 4 -137 24t-85 55q-5 0 -21.5 21t-42.5 63q-32 109 -20 148q19 103 78.5 161t159.5 75q50 0 85 -4t53 -14l53 -81l8 -42q-4 -82 -26 -90
h-15l-30 41q-14 37 -43.5 46.5t-69.5 -7.5q-21 -11 -40 -34.5t-33 -60.5q-10 -61 35 -111l46 -32q207 0 241 -86q23 -244 -131 -429q-70 -76 -156.5 -124t-189.5 -66h-168l-117 32q-96 38 -165 93t-114 133l-48 -60q-29 -38 -66.5 -69.5t-86.5 -60.5q-160 -87 -337 -68z" />
    <glyph glyph-name="PSV_L" 
d="M-699 28q74 5 142.5 -7t129.5 -43l164 -108l13 -43q5 -29 -8 -46q-7 -9 -47 -29.5t-110 -50.5q-43 -20 -81.5 -31t-71.5 -13h-131q-74 11 -136 37t-110 62l-21 -80q-2 -21 1.5 -51t14.5 -68q38 -74 102.5 -119.5t158.5 -61.5q26 -2 61 2.5t81 15.5l73 33l93 60l45 20
l66 10q20 -5 20 -30q2 -20 -3 -39.5t-17 -33.5q-160 -111 -214 -127q-39 -12 -73 -18t-61 -8q-47 0 -86.5 5t-78.5 15.5t-80 28t-89 42.5q-60 48 -97.5 106t-50.5 130v115q17 78 56 138t97 103q60 38 120.5 59t127.5 25zM-624 -85q-45 4 -80 0.5t-62 -12.5
q-8 -5 -30.5 -16.5t-62.5 -32.5q8 -17 31.5 -30.5t61.5 -29.5l98 -20q23 -4 57.5 -0.5t81.5 13.5q43 14 88 43q2 11 -20.5 25.5t-67.5 34.5z" />
    <glyph glyph-name="PSV_LL" horiz-adv-x="8" 
d="M-727 28q69 5 131.5 -10t117.5 -47l153 -108l18 -47q0 -15 -2 -26t-8 -21q-8 -12 -45.5 -33t-103.5 -55q-74 -38 -141 -44h-120q-69 14 -126 41t-100 65l-25 -81q-2 -24 2 -55.5t15 -73.5q24 -45 51 -74t57.5 -45.5t65.5 -23t76 -6.5h100q42 -4 77 2.5t59.5 19.5t38 29.5
t13.5 32.5q0 87 49 87q26 0 38.5 -21.5t12.5 -68.5q0 -14 7 -28t18 -26t24 -19.5t26 -7.5q20 0 37.5 7t30.5 18.5t20.5 26t7.5 29.5q0 47 11.5 68.5t37.5 21.5q25 0 38 -18.5t13 -71.5q0 -33 -15 -69t-41 -66t-60.5 -48.5t-73.5 -15.5q-27 0 -61.5 34.5t-66.5 118.5
q-18 -35 -37.5 -61.5t-46.5 -45t-65 -30.5t-92 -16h-100q-70 0 -136.5 15t-120 50t-89 93t-43.5 144v118q32 164 143 250q107 80 230 92zM-662 -94q-41 5 -71.5 2t-54.5 -13q-18 -3 -90 -52q17 -33 90 -64l85 -20q24 -6 56 -1.5t77 15.5q17 8 37.5 20t43.5 29q3 16 -81 60z
" />
    <glyph glyph-name="S_KAD" 
d="M-421 -346q0 -159 -105 -280q-109 -124 -266 -124q-15 0 -41.5 1.5t-44.5 1.5l-5 97q146 7 240 83q93 73 93 214q0 100 -74 172q-75 72 -171 72q-186 0 -240 -108q28 -65 28 -136q0 -237 -282 -394l-38 109l78 58.5t43 32.5q68 82 68 189q0 115 -77 186t-189 71
q-110 0 -187 -71t-77 -181q0 -179 173 -280l-31 -114q-274 132 -272 401q0 166 115 271t286 105q184 0 292 -139q106 139 313 139q156 0 264 -112q107 -113 107 -264z" />
    <glyph glyph-name="S_KHA" 
d="M-247 -344q0 -158 -110 -277q-111 -119 -270 -119q-261 0 -366 247q66 111 218 111q240 0 318 -188q112 75 112 224q0 122 -90 199q-91 76 -213 76q-127 0 -262 -153l-90 43q49 94 147 153q95 58 205 58q165 0 284 -105q117 -107 117 -269zM-535 -623q-71 128 -240 128
q-50 0 -89 -17q84 -125 240 -125q47 0 89 14z" />
    <glyph glyph-name="S_GA" 
d="M-207 -352q0 -279 -265 -391l-44 115q183 88 183 278q0 98 -87 173t-187 75t-179 -77q-79 -76 -79 -176q0 -184 155 -273l-40 -117q-250 97 -250 397q0 145 123 262q122 116 270 116q164 0 282 -109t118 -273z" />
    <glyph glyph-name="S_GHAD" 
d="M-411 -365q0 -160 -115 -265q-116 -107 -278 -108q-189 -5 -283 134q-106 -136 -311 -136q-137 0 -251 108q-115 106 -115 243q0 109 55 161q25 26 105 55q58 22 65 59q-17 29 -77 29q-36 0 -81 -66l-73 92q61 87 185 87q66 0 113 -41q45 -42 45 -110q0 -81 -105 -141
t-105 -129q0 -97 78 -158q76 -63 173 -66q106 -2 193 68q88 69 85 172q-1 91 -56 183q-55 91 -133 112l23 112q125 -53 202 -164q76 -110 76 -245q0 -56 -22 -115q67 -118 214 -120q109 0 188 73q80 74 80 178q0 126 -82 202t-203 76v115q174 0 293 -108q117 -110 117 -287z
" />
    <glyph glyph-name="K_KINZI" 
d="M-408 1310q-62 -107 -184 -107q-86 0 -147 61t-61 148q0 102 81 165q-81 63 -81 167q0 86 61 146q61 61 147 61q114 0 176 -96l-78 -46q-36 51 -98 51q-49 0 -84 -35q-34 -34 -34 -85q0 -50 34 -84q35 -35 84 -35q114 0 176 -98l-71 -53q-36 59 -105 59q-25 0 -46.5 -9
t-37.5 -25t-25 -38t-9 -48t9 -47.5t25 -37.5t37.5 -25t46.5 -9q75 0 108 66z" />
    <glyph glyph-name="K_KI" horiz-adv-x="82" 
d="M22 1565q0 -167 -118 -288q-116 -122 -284 -122q-161 0 -282 124t-118 286q5 174 118 292q115 118 282 118q168 0 284 -120q118 -121 118 -290zM-91 1565q0 64 -21.5 118t-60 93.5t-91.5 61.5t-116 22q-61 0 -113.5 -22t-91 -61.5t-60.5 -93.5t-22 -118q0 -122 86 -208
q42 -45 91.5 -65t109.5 -20q63 0 116 23t91.5 62.5t60 93t21.5 114.5zM-808 1310q-62 -107 -184 -107q-86 0 -147 61t-61 148q0 102 81 165q-81 63 -81 167q0 86 61 146q61 61 147 61q114 0 176 -96l-78 -46q-36 51 -98 51q-49 0 -84 -35q-34 -34 -34 -85q0 -50 34 -84
q35 -35 84 -35q114 0 176 -98l-71 -53q-36 59 -105 59q-25 0 -46.5 -9t-37.5 -25t-25 -38t-9 -48t9 -47.5t25 -37.5t37.5 -25t46.5 -9q75 0 108 66z" />
    <glyph glyph-name="K_KII" horiz-adv-x="4" 
d="M-808 1310q-62 -107 -184 -107q-86 0 -147 61t-61 148q0 102 81 165q-81 63 -81 167q0 86 61 146q61 61 147 61q114 0 176 -96l-78 -46q-36 51 -98 51q-49 0 -84 -35q-34 -34 -34 -85q0 -50 34 -84q35 -35 84 -35q114 0 176 -98l-71 -53q-36 59 -105 59q-25 0 -46.5 -9
t-37.5 -25t-25 -38t-9 -48t9 -47.5t25 -37.5t37.5 -25t46.5 -9q75 0 108 66zM19 1571q4 -199 -137 -322q-118 -103 -255 -103q-89 0 -162.5 28.5t-130.5 88.5q-60 59 -88.5 135t-28.5 169q0 170 117 287q118 121 278 121q172 0 288 -116q119 -117 119 -288zM-77 1567
q0 133 -92 222q-95 87 -219 87t-210 -92q-87 -97 -84 -222q0 -43 4 -75.5t15 -56.5q106 109 265 106q169 0 290 -106q31 56 31 137zM-164 1348q-80 89 -234 89q-63 0 -112.5 -23t-90.5 -68q41 -48 95 -72.5t125 -24.5q133 0 217 99z" />
    <glyph glyph-name="K_KAI" 
d="M-628 1310q-62 -107 -184 -107q-86 0 -147 61t-61 148q0 102 81 165q-81 63 -81 167q0 86 61 146q61 61 147 61q114 0 176 -96l-78 -46q-36 51 -98 51q-49 0 -84 -35q-34 -34 -34 -85q0 -50 34 -84q35 -35 84 -35q114 0 176 -98l-71 -53q-36 59 -105 59q-25 0 -46.5 -9
t-37.5 -25t-25 -38t-9 -48t9 -47.5t25 -37.5t37.5 -25t46.5 -9q75 0 108 66zM-138 1205l-542 484l64 80l544 -482z" />
    <glyph glyph-name="K_KANU" horiz-adv-x="107" 
d="M-408 1310q-62 -107 -184 -107q-86 0 -147 61t-61 148q0 102 81 165q-81 63 -81 167q0 86 61 146q61 61 147 61q114 0 176 -96l-78 -46q-36 51 -98 51q-49 0 -84 -35q-34 -34 -34 -85q0 -50 34 -84q35 -35 84 -35q114 0 176 -98l-71 -53q-36 59 -105 59q-25 0 -46.5 -9
t-37.5 -25t-25 -38t-9 -48t9 -47.5t25 -37.5t37.5 -25t46.5 -9q75 0 108 66zM47 1409q0 -36 -13.5 -66.5t-37.5 -52.5t-55.5 -34.5t-67.5 -12.5q-39 0 -71 11.5t-55.5 33t-36.5 52t-13 69.5q0 36 14 66t38 51.5t56 34t68 12.5q35 0 66.5 -13.5t55.5 -36t38 -52t14 -62.5z
M-62 1409q0 56 -67 56q-60 0 -60 -56q0 -63 62 -63q65 0 65 63z" />
    <glyph glyph-name="S_CA" 
d="M-229 -348q0 -167 -106 -282q-107 -117 -274 -117q-188 0 -299 137q-92 115 -92 244q0 210 182 336q94 60 209 60q149 0 265 -113q115 -112 115 -265zM-350 -351q0 106 -75 180q-76 74 -179 74q-57 0 -111 -23q92 -95 92 -224q0 -151 -94 -249q47 -22 106 -22
q115 1 189 75q72 72 72 189zM-741 -344q0 63 -75 155q-63 -56 -60 -172q2 -107 60 -155q75 82 75 172z" />
    <glyph glyph-name="S_CHAD" 
d="M-402 -358q0 -160 -118 -271q-118 -112 -279 -112q-151 0 -282 131q-145 -131 -290 -131q-243 0 -359 242q67 106 213 106q192 0 311 -144q91 65 89 194q-3 110 -84 176t-197 66q-93 0 -146 -41q-31 -25 -81 -100l-105 40q41 104 133 168q91 64 199 64q190 0 315 -131
q80 74 105 83q76 48 177 48q168 0 284 -107q115 -108 115 -281zM-543 -358q0 111 -75 185q-77 74 -183 74q-151 0 -218 -111q35 -71 30 -133q-2 -53 -39 -153q106 -121 227 -118q105 0 182 78q76 76 76 178zM-1321 -592q-50 58 -144 78q-12 5 -57 5q-36 0 -52 -9
q48 -57 86 -76q34 -18 110 -18z" />
    <glyph glyph-name="S_JA" 
d="M-235 -556q-152 21 -166 152q-18 -8 -30 -8q-69 0 -115 46t-46 108q0 117 81 141q-50 24 -101 24q-117 0 -190 -69q-75 -69 -75 -186q0 -124 78 -194q78 -71 205 -78q40 0 115 35l58 -97q-103 -65 -171 -65q-171 0 -289 111q-119 111 -119 275q0 173 109 282
q108 109 274 109q239 0 331 -191q19 -34 19 -72q0 -53 -35 -118q13 -84 134 -131zM-380 -258q1 49 -55 49q-53 0 -49 -49q3 -44 56 -44q40 0 48 44z" />
    <glyph glyph-name="S_JHA" horiz-adv-x="273" 
d="M211 -641l-93 -63l-280 179q-24 -49 -59 -87.5t-81 -69.5q-92 -61 -199 -61q-170 0 -275 123q-107 120 -104 290q1 141 118 247q118 103 261 103q160 0 270 -115q109 -117 109 -275q0 -5 -1 -10t-3 -11l191 -120v1628h147zM-246 -366q0 109 -74 185q-74 75 -183 75
q-29 0 -49.5 -4.5t-37.5 -12.5q67 -94 67 -232q0 -107 -89 -233q27 -23 109 -33q106 0 181 75q76 76 76 180zM-635 -344q0 95 -53 169q-70 -60 -73 -162q-3 -132 59 -194q67 101 67 187z" />
    <glyph glyph-name="A_NYA" horiz-adv-x="1229" 
d="M1109 627q0 -245 -155 -403t-395 -158q-198 0 -352 160v-693q0 -63 51 -112q54 -51 116 -55l642 -3l5 -138h-680q-92 0 -180 86q-87 85 -87 179v916l115 62q41 -98 151 -177q111 -78 217 -78q191 0 306 113q114 112 114 309q0 154 -121 268q-120 114 -274 114
q-285 0 -390 -260l-132 34q140 359 524 359q186 0 345 -138q180 -158 180 -385z" />
    <glyph glyph-name="A_NNYA" horiz-adv-x="2143" 
d="M2083 598q0 -232 -160 -392q-159 -160 -389 -160q-325 0 -481 288q-158 -288 -483 -288q-192 0 -341 116v-628q0 -80 61 -120q62 -41 145 -41h751l129 -143h-941q-102 -5 -195 77q-95 83 -95 182v845l121 66q115 -219 367 -219q175 0 295 122q120 123 120 295t-122 294
q-122 123 -293 123q-126 0 -232 -70q-107 -71 -153 -186l-127 50q66 156 203 248q138 93 307 93q230 0 391 -161t161 -391q0 -172 120 -295q120 -122 295 -122q173 0 295 122q122 124 122 295q0 173 -122 295t-295 122q-76 0 -148 -26l-48 121q102 40 193 40q230 0 389 -161
q160 -160 160 -391z" />
    <glyph glyph-name="S_TTA" 
d="M-426 -299q-101 -102 -184 -102q-91 0 -155 61q-65 60 -65 153q0 89 61 153t147 64q66 0 102 -14q24 -11 90 -61l-52 -83q-62 45 -65 48q-21 10 -77 10q-24 0 -43 -9t-32.5 -25t-20.5 -36.5t-7 -43.5q0 -24 9 -44.5t25 -35t36.5 -22.5t43.5 -8q54 0 85 19q4 5 16.5 19.5
t34.5 39.5zM-284 -687l-210 7l-2 174q-48 -22 -117 -22q-75 0 -171 46q-40 13 -40 56q0 49 58 49q61 -49 153 -49q98 0 166 54q4 1 8 1.5t9 0.5q32 0 32 -51v-169l109 -5z" />
    <glyph glyph-name="S_TTHA" horiz-adv-x="122" 
d="M-298 -376q0 -108 -67 -208q-34 -51 -77 -89.5t-95 -64.5l-60 106q70 41 121 114q51 70 48 147q-1 119 -76 197q-75 77 -195 77q-107 0 -185 -84q-78 -86 -78 -192q0 -169 179 -276l-35 -97l-753 -3q-99 0 -161 65q-61 64 -61 164q0 11 -1.5 50.5t-3.5 108.5l-2 165
q0 226 179 226q190 0 190 -179v-105l-104 5l-3 84q-3 78 -73 78q-62 0 -65 -130l-2 -253q0 -86 30 -120t113 -34h539q-96 117 -96 248q0 170 115 286q114 117 283 117q180 0 288 -111q108 -113 108 -292z" />
    <glyph glyph-name="S_NNAD" 
d="M-274 -369q0 -153 -114 -262q-116 -110 -265 -110v118q102 0 177 75t75 177q0 113 -74 193q-74 78 -182 78q-63 0 -113.5 -18.5t-86 -54t-54 -85.5t-18.5 -113q0 -51 26 -117q25 -63 25 -93q0 -164 -203 -162q-208 1 -208 155q0 29 26 101q25 69 25 123q0 107 -72 191
q-74 84 -172 85q-131 2 -207 -70q-78 -74 -78 -204q0 -115 81 -191q82 -77 204 -77l6 -115q-181 0 -302 105q-122 105 -122 276q0 176 119 286q118 108 296 108q114 0 233 -86q27 86 171 86q139 0 168 -86q107 86 263 86q158 0 268 -117q108 -117 108 -282zM-998 -141
q0 51 -83 51q-84 0 -81 -51q0 -23 29 -98q28 -72 28 -130q0 -35 -27 -107q-28 -72 -28 -105q0 -51 74 -53q85 -3 85 57q0 36 -25 104t-25 104q0 47 27 121q26 75 26 107z" />
    <glyph glyph-name="S_TAD" horiz-adv-x="46" 
d="M-374 -353q0 -159 -114 -273q-114 -115 -272 -115q-76 0 -160 33l43 106q63 -29 122 -29q115 0 194 82q79 80 79 196q0 114 -79 193q-80 80 -194 80t-194 -80q-79 -79 -79 -193q0 -159 -114 -273q-114 -115 -270 -115q-163 0 -275 114q-113 113 -113 274q0 158 113 271
q112 112 275 112q213 0 327 -187q112 187 325 187q164 0 275 -112q111 -113 111 -271zM-1140 -353q0 113 -80 193t-192 80q-117 0 -195 -80t-78 -193q0 -115 78 -196q78 -82 195 -82q113 0 192 82q80 82 80 196z" />
    <glyph glyph-name="S_THAD" horiz-adv-x="42" 
d="M-378 -355q0 -161 -113 -274q-114 -114 -274 -114q-212 0 -326 179q-113 -179 -325 -179q-162 0 -273 113q-111 112 -111 275q0 159 112 272q113 113 272 113q216 0 325 -181q114 181 326 181q163 0 275 -112t112 -273zM-495 -355q0 109 -77 188q-78 78 -188 78
q-113 0 -191 -78t-78 -188q0 -113 78 -191t191 -78q110 0 188 78q77 79 77 191zM-1146 -355q0 110 -78 188t-190 78q-111 0 -189 -78t-78 -188q0 -113 78 -191t189 -78q112 0 190 78t78 191z" />
    <glyph glyph-name="S_DA" 
d="M-222 -477q0 -51 -70 -121q-57 -63 -114 -94q-90 -51 -181 -51q-236 0 -343 224l113 39q80 -137 228 -137q120 0 201 84q30 13 30 34q0 9 -33 32q-17 11 -29 19.5t-20 13.5t-23 13.5t-38 21.5q-33 16 -33 50q0 50 92 82q34 24 75 66q-13 42 -97 79q-71 34 -123 36
q-108 3 -191 -89q-25 -25 -25 -36q0 -16 71 -66l-58 -79q-135 84 -135 145q0 46 43 102q142 139 295 139q179 0 292 -137q54 -66 54 -97q0 -32 -39 -63q-48 -36 -58 -49t-10 -30q0 -9 8 -17q11 -14 74 -57q44 -26 44 -57z" />
    <glyph glyph-name="S_DHA" 
d="M-183 -352q4 -167 -112 -283q-117 -117 -286 -117q-191 0 -320 182q-64 91 -64 218q0 154 116 268q115 114 268 114q167 0 280 -107q114 -109 118 -275zM-311 -349q0 106 -80 180q-79 73 -190 73q-104 0 -183 -74q-78 -74 -78 -179q0 -51 21 -100q106 96 238 97
q139 3 257 -94q15 34 15 97zM-393 -550q-101 72 -190 72q-92 0 -164 -81q67 -67 166 -67q134 0 188 76z" />
    <glyph glyph-name="S_NA1" horiz-adv-x="3" 
d="M-297 -427q0 -117 -123 -187q62 -62 62 -85l-95 -43q-18 28 -36.5 50.5t-37.5 40.5q-30 -11 -40 -11h-64q-99 0 -204 52q-125 63 -125 155q0 47 35 100q33 37 92 37q32 0 107 -21q143 -40 246 -178q76 22 76 92q-14 85 -126 119q-59 10 -177 33q-100 24 -116 121
q-10 19 -10 43q0 73 77 111q57 28 142 28q107 0 192 -61l-62 -88q-53 33 -130 33q-66 0 -97 -14q-15 -5 -15 -40q10 -32 78 -36q102 -8 159 -30q175 -73 192 -221zM-596 -543q-54 65 -142 102q-5 2 -22 7t-46 12q-50 0 -50 -35q0 -53 197 -88q23 0 39 0.5t24 1.5z" />
    <glyph glyph-name="S_PA" 
d="M-194 -367q0 -146 -125 -262q-126 -117 -270 -117q-171 0 -286 109q-115 108 -115 276q0 280 260 388l44 -112q-178 -90 -178 -279q0 -103 85 -176q85 -75 190 -75q100 0 180 77t80 179q0 181 -163 274l45 115q253 -97 253 -397z" />
    <glyph glyph-name="S_PHA" horiz-adv-x="13" 
d="M-227 -366q0 -163 -118 -269q-119 -108 -280 -108q-147 0 -261 116q-114 115 -114 261q0 275 223 396l40 -127q-141 -89 -141 -261q0 -105 76 -181q75 -77 179 -77q140 0 199 96q-167 70 -178 294q-4 139 127 256q248 -117 248 -396zM-349 -355q0 157 -109 236
q-19 -51 -19 -104q0 -140 109 -206q19 38 19 74z" />
    <glyph glyph-name="S_BA" horiz-adv-x="5" 
d="M-235 -358q0 -128 -93 -245q-109 -139 -284 -137q-171 3 -279 118q-109 113 -109 285q0 100 54 210q54 109 133 157q104 -113 196 -113q58 0 108 45q7 4 60 68q91 -59 153 -168q61 -110 61 -220zM-357 -360q-3 130 -89 219q-80 -63 -171 -63q-87 0 -178 68
q-81 -80 -81 -203q0 -125 70 -202q69 -78 191 -78q108 0 183 76q75 75 75 183z" />
    <glyph glyph-name="S_BHAD" horiz-adv-x="22" 
d="M-398 -356q0 -160 -114 -272q-115 -113 -273 -113q-92 0 -184 47l47 104q70 -39 140 -39q113 0 194 81q81 79 81 192q0 112 -81 193t-194 81q-115 0 -194 -79q-80 -80 -80 -195q0 -160 -112 -272q-113 -113 -271 -113q-224 0 -338 201l94 65q82 -154 244 -154
q115 0 195 80q79 79 79 193q0 116 -79 195t-195 79q-182 0 -254 -179l-107 38q103 253 361 253q213 0 326 -185q114 185 328 185q163 0 275 -112t112 -274z" />
    <glyph glyph-name="S_MA" horiz-adv-x="65" 
d="M-175 -347q0 -166 -122 -279q-124 -113 -292 -113q-167 0 -289 113t-122 277q0 132 79 232q81 102 203 145l50 -111q-209 -68 -209 -264q0 -85 55 -156q73 132 253 132q154 0 230 -115q43 64 43 139q0 196 -209 264l41 113q127 -43 208 -144t81 -233zM-420 -571
q-47 89 -149 89q-124 0 -163 -98q67 -41 147 -41q89 0 165 50z" />
    <glyph glyph-name="S_LAD" 
d="M-447 -362q0 -157 -108 -265t-264 -108q-166 0 -266 103q-102 103 -102 265q-14 127 -68 197q-56 72 -170 72t-181 -69q-69 -71 -69 -183q0 -260 260 -260q27 0 103 22q0 -20 9 -60q8 -43 8 -59q-72 -28 -118 -28q-167 0 -276 109q-111 109 -111 279q0 149 114 263
t261 114q218 0 295 -167q13 -51 33 -127t47 -179q51 -167 228 -167q100 0 172 73q71 73 71 175q0 96 -67 179q-68 83 -163 85q-47 3 -57 0q-5 -1 -9 -1.5t-8 -0.5l-17 110q0 15 91 15q150 0 257 -116q105 -117 105 -271z" />
    <glyph glyph-name="S_SAD" 
d="M-328 -372q0 -164 -116 -283q-115 -118 -283 -118q-237 0 -351 209q-27 -48 -64 -86.5t-82 -66t-97 -42t-109 -14.5q-111 0 -205 58t-148 151l91 47q82 -157 264 -157q126 0 215 87q88 87 88 215q0 132 -88 217q-89 86 -215 86q-93 0 -168 -51q-76 -53 -113 -135l-91 36
q46 114 148 182q100 67 222 67q172 0 287 -115t115 -287q0 -128 89 -215q88 -87 212 -87q127 0 216 87t89 215q0 126 -90 215q-89 88 -215 88q-58 0 -106 -19l-33 92q73 26 139 26q168 0 283 -115q116 -116 116 -287z" />
    <glyph glyph-name="S_AD" 
d="M-335 -357q0 -167 -124 -279q-60 -54 -133 -82t-161 -28q-19 0 -38.5 6.5t-36 17t-28.5 24t-16 27.5q54 168 147 248q96 81 292 92q-15 110 -106 187q-88 74 -212 74q-165 0 -257 -104q0 -122 -158 -154v-1q205 -45 205 -179q0 -63 -38 -111t-115 -79
q-60 -23 -130.5 -35.5t-153.5 -12.5q-125 0 -220 34q-81 25 -126 79.5t-56 135.5h111q-18 -89 106 -137q39 -15 88.5 -21.5t109.5 -6.5q48 0 96 8.5t96 25.5q125 46 125 113q0 136 -335 136h-69v82q26 -2 46 -3t32 -1q94 0 172 26q108 34 108 104q0 56 -115 87
q-39 11 -79 16.5t-80 5.5q-54 0 -99.5 -8.5t-80.5 -22.5q-54 -21 -78.5 -52.5t-16.5 -76.5h-109q0 124 98 185t293 61q243 0 338 -105q123 106 290 106q173 0 294 -113q63 -55 93.5 -122.5t30.5 -146.5zM-441 -413q-285 -28 -322 -241q57 0 109 18t100 52q47 33 75.5 75.5
t37.5 95.5z" />
    <glyph glyph-name="A_SA" unicode="&#x103f;" horiz-adv-x="2935" 
d="M2875 585q0 -197 -166 -363q-165 -166 -363 -166q-188 0 -339 109l-127 117q-174 -226 -448 -226q-256 0 -439 229q-166 -229 -409 -229q-324 0 -503 302l113 55q119 -221 385 -216q146 2 274 133q128 133 128 278q0 175 -130 290q-131 117 -304 117q-268 0 -377 -243
l-110 42q144 323 498 323q299 0 454 -231q102 -159 102 -290q0 -97 -45 -212q44 -83 155 -144q112 -61 210 -58q202 7 324 147q95 113 98 233q2 188 -118 308q-119 120 -310 140q-27 0 -120 -25l-49 96q91 49 175 49q241 -3 402 -162t161 -403q0 -66 -47 -172
q0 -42 111 -121q136 -93 285 -90q154 4 273 122q119 117 119 271q0 164 -117 295q-115 130 -280 130q-49 0 -157 -29l-41 112q108 47 203 47q225 0 377 -170t152 -395z" />
    <glyph glyph-name="A_NA" horiz-adv-x="1142" 
d="M1082 119q-8 -29 -20.5 -60t-28.5 -65q-22 -5 -42 -5q-48 0 -127 49q-80 50 -64 50q-114 -31 -231 -31q-173 0 -323 73q-186 91 -186 251q0 235 191 265q56 9 138 -14q133 -31 262 -136q133 -112 173 -239q115 55 115 173q0 146 -191 202q-89 22 -261 63
q-155 39 -222 130q-25 34 -25 100q0 117 127 178q99 47 230 47q158 0 295 -98l-55 -98q-110 73 -240 73q-210 0 -210 -92q-3 -89 162 -113q154 -26 245 -64q283 -112 286 -328q2 -163 -152 -269q35 -47 99 -47q12 0 25.5 1.5t29.5 3.5zM687 200q-54 166 -300 296
q-45 24 -86 24q-116 0 -99 -134q0 -49 65 -102q51 -45 113 -64q32 -10 86 -16.5t131 -8.5q38 -3 90 5z" />
    <glyph glyph-name="A_RA" horiz-adv-x="1234" 
d="M1044 -480v1080q0 178 -123 294q-125 119 -300 119t-300 -119q-119 -119 -119 -294q145 -2 252.5 -28.5t183.5 -77.5q154 -105 264 -368q-134 -77 -284 -77q-235 0 -398 160q-160 163 -160 386q0 233 160 393q163 162 398 162q233 0 393 -160q84 -78 123.5 -175
t39.5 -215v-1080h-130zM725 182q-116 310 -513 300q36 -126 153 -222q117 -90 256 -90q40 0 65.5 3.5t38.5 8.5z" />
    <glyph glyph-name="M_YS" horiz-adv-x="272" 
d="M212 -702l-147 -73l-425 355v450h149v-375l276 -222v1697h147v-1832z" />
    <glyph glyph-name="M_YSW" horiz-adv-x="279" 
d="M219 -708l-110 -73l-230 180q-59 -110 -165 -180q-107 -71 -231 -71q-199 0 -321 125t-122 323q0 191 126 316q125 124 317 124q188 0 314 -133q126 -134 126 -323q0 -8 -1.5 -16.5t-3.5 -18.5l159 -124v1709h139zM-226 -406q3 130 -79 215q-83 86 -212 87
q-120 3 -208 -87q-88 -91 -88 -213q0 -135 81 -217q81 -84 215 -81q130 1 210 83q79 81 81 213z" />
    <glyph glyph-name="M_YSH" horiz-adv-x="271" 
d="M211 -705l-111 -70l-447 344v203l-272 -547h-86l-255 189l79 145l184 -131l321 606h175v-362l265 -229v1687h144z" />
    <glyph glyph-name="M_YSWH" horiz-adv-x="284" 
d="M224 -699l-110 -73l-230 181q-56 -108 -166 -180q-113 -72 -232 -72q-164 0 -285 95q-120 94 -140 250l-112 -170h-100l-139 113l79 110l93 -67l179 266q49 132 166 211q118 80 259 80q187 0 314 -133q128 -134 128 -323q0 -14 -5 -32l167 -130l3 1696h128zM-223 -397
q0 124 -84 208t-207 84q-114 0 -203 -76q-91 -76 -91 -183q0 -146 76 -237q77 -92 218 -92q127 0 209 85t82 211z" />
    <glyph glyph-name="M_RS" horiz-adv-x="339" 
d="M1480 -505q0 -99 -65 -185q-64 -85 -160 -85h-937q-55 0 -100.5 21t-83.5 59q-74 77 -74 187v2197q0 115 78 201q79 85 195 85l874 -3q106 0 189 -81q84 -80 84 -187v-124h-129v71q0 70 -40 128q-41 59 -106 59l-840 2q-70 0 -120 -53q-49 -52 -49 -124v-2128
q0 -69 42 -120q42 -52 109 -52l879 -3q53 0 86 60q33 58 33 115v505l135 139v-684z" />
    </font>
</defs>
</svg>
