<?xml version="1.0" standalone="no"?>
<!DOCTYPE svg PUBLIC "-//W3C//DTD SVG 1.1//EN" "http://www.w3.org/Graphics/SVG/1.1/DTD/svg11.dtd" >
<svg xmlns="http://www.w3.org/2000/svg" xmlns:xlink="http://www.w3.org/1999/xlink" version="1.1">
<metadata>
Created by FontForge 20141024 at Tue Mar 24 10:13:52 2015
 By System Administrator
Copyright 2014 Google Inc. All Rights Reserved.
</metadata>
<defs>
<font id="MyanmarGantgaw" horiz-adv-x="600" >
  <font-face 
    font-family="Myanmar Gantgaw"
    font-weight="400"
    font-stretch="normal"
    units-per-em="1000"
    panose-1="2 0 5 0 0 0 0 0 0 0"
    ascent="750"
    descent="-250"
    bbox="-641 -370 2130 890"
    underline-thickness="150"
    underline-position="-142"
    unicode-range="U+0020-AA7B"
  />
<missing-glyph horiz-adv-x="550" 
d="M50 0v520h450v-520h-450zM77 18h396v484h-396v-484zM173 416q17 10 32 16q28 11 61 11q50 0 80.5 -17.5t30.5 -46.5q0 -17 -12.5 -35t-47.5 -47q-34 -29 -54 -48t-20 -36q0 -14 13 -48h-17q-19 35 -19 53q0 28 44.5 79.5t44.5 78.5q0 21 -18 33t-50 12q-21 0 -38 -7
q-14 -5 -30 -14v16zM208 121l31 21q6 4 11 4t12 -4l30 -22q5 -4 5 -7q0 -4 -5 -8l-31 -23q-7 -5 -11 -5q-6 0 -11 4l-33 26q-4 3 -4 6q0 4 6 8z" />
    <glyph glyph-name="u103E_102F" unicode="&#x103e;&#x102f;" horiz-adv-x="0" 
d="M-377 -250v205q0 25 25 25t25 -25v-205q0 -120 -72 -120h-31q-33 0 -33 50t33 50h31q22 0 22 20zM-201 -270h31q33 0 33 -50t-33 -50h-31q-72 0 -72 120v205q0 25 25 25t25 -25v-205q0 -20 22 -20z" />
    <glyph glyph-name="u1085_1036" unicode="&#x1085;&#x1036;" horiz-adv-x="0" 
d="M-199 815q93 0 93 -100t-93 -100t-93 100t93 100zM-156 715q0 30 -43 30t-43 -30t43 -30t43 30zM-449 715q-44 25 -44 75q0 100 95 100q47 0 79 -3q28 -4 28 -34v-9q-5 -37 -26 -37h-3q-24 3 -78 3q-45 0 -45 -20q0 -40 94 -40q31 0 31 -35t-31 -35q-94 0 -94 -40
q0 -20 45 -20q54 0 78 3h3q21 0 26 -36v-10q0 -30 -28 -33q-32 -4 -79 -4q-95 0 -95 100q0 50 44 75z" />
    <glyph glyph-name="u1085_102D" unicode="&#x1085;&#x102d;" horiz-adv-x="0" 
d="M-197 790q-85 0 -85 -75t85 -75t85 75t-85 75zM-197 890q135 0 135 -175t-135 -175t-135 175t135 175zM-493 715q-44 25 -44 75q0 100 95 100q47 0 79 -3q28 -4 28 -34v-9q-5 -37 -26 -37h-3q-24 3 -78 3q-45 0 -45 -20q0 -40 94 -40q31 0 31 -35t-31 -35q-94 0 -94 -40
q0 -20 45 -20q54 0 78 3h3q21 0 26 -36v-10q0 -30 -28 -33q-32 -4 -79 -4q-95 0 -95 100q0 50 44 75z" />
    <glyph glyph-name="u1085_102E" unicode="&#x1085;&#x102e;" horiz-adv-x="0" 
d="M-493 715q-44 25 -44 75q0 100 95 100q47 0 79 -3q28 -4 28 -34v-9q-5 -37 -26 -37h-3q-24 3 -78 3q-45 0 -45 -20q0 -40 94 -40q31 0 31 -35t-31 -35q-94 0 -94 -40q0 -20 45 -20q54 0 78 3h3q21 0 26 -36v-10q0 -30 -28 -33q-32 -4 -79 -4q-95 0 -95 100q0 50 44 75z
M-112 704v11q0 75 -85 75t-85 -75v-11q40 21 85 21t85 -21zM-268 653q21 -33 71 -33t70 32q-30 23 -70 23q-41 0 -71 -22zM-197 890q135 0 135 -175t-135 -175t-135 175t135 175z" />
    <glyph glyph-name="u102D_1036" unicode="&#x102d;&#x1036;" horiz-adv-x="0" 
d="M-398 790q-85 0 -85 -75t85 -75t85 75t-85 75zM-398 890q135 0 135 -175t-135 -175t-135 175t135 175zM-159 815q93 0 93 -100t-93 -100t-93 100t93 100zM-116 715q0 30 -43 30t-43 -30t43 -30t43 30z" />
    <glyph glyph-name="u100D_1039_100D" unicode="&#x100d;&#x1039;&#x100d;" 
d="M90 132v-74q76 -58 210 -58q146 0 223 69l37 -18v-270q0 -51 50 -51q30 0 30 -50t-30 -50q-100 0 -100 120v246q-83 -46 -210 -46q-170 0 -260 81v202q0 12 24 18q7 2 13 2q13 0 15 -10q24 -83 208 -83q210 0 210 130t-210 130q-184 0 -208 -83q-2 -10 -15 -10
q-6 0 -13 2q-24 6 -24 18v2q24 171 260 171q260 0 260 -230t-260 -230q-145 0 -210 72zM115 -293q29 -16 125 -17q107 0 156 36h19v-53h60q20 0 20 -22q0 -21 -18 -21h-66q-46 0 -46 19v18q-44 -20 -125 -20q-137 1 -165 31l-10 11v102q0 9 25 9q20 0 25 -9q10 -18 125 -18
q125 0 125 47t-125 47q-115 0 -125 -18q-5 -9 -25 -9q-25 0 -25 9q0 81 175 81t175 -110t-175 -110q-81 0 -125 18v-21z" />
    <glyph glyph-name="u100E_1039_100D" unicode="&#x100e;&#x1039;&#x100d;" horiz-adv-x="660" 
d="M295 270q0 -40 75 -40q65 0 75 15q5 8 25 8q25 0 25 -8q0 -68 -125 -68t-125 93q0 92 125 92t125 -68q0 -8 -25 -8q-20 0 -25 8q-10 15 -75 15q-75 0 -75 -39zM445 13q-50 -13 -115 -13q-290 0 -290 260q0 91 110 123q79 23 79 40t-60 17q-41 0 -89 -25q-3 -2 -7 -2
q-13 0 -25 26q-8 15 -8 25q0 11 9 16q77 40 122 40q36 0 72 -24.5t36 -72.5q0 -95 -115 -128q-74 -21 -74 -35q0 -160 240 -160q67 0 115 12v29q-44 -17 -75 -17q-87 1 -115 26q-5 5 -5 10q0 7 5 15t15 8q9 0 21 -7q26 -15 79 -16q57 0 106 31h19v-60q75 40 75 129
q0 148 -144 160q-12 2 -18 13q-2 5 -3 15v5q0 10 3 24q8 33 15 38t18 5h7q172 -27 172 -260q0 -171 -125 -229v-335h60q20 0 20 -33t-18 -33h-66q-46 0 -46 16v367z" />
    <glyph glyph-name="u100F_100D" unicode="&#x100f;&#x1039;&#x100d;" horiz-adv-x="1020" 
d="M573 83q-43 64 -43 177q0 116 45 180q-18 30 -65 30t-65 -30q45 -64 45 -180q0 -113 -43 -177q2 -33 63 -33t63 33zM785 4q-26 -4 -55 -4q-31 0 -31 50t31 50q200 0 200 160h1q0 160 -175 160t-175 -160q0 -102 42 -155v-20q0 -85 -113 -85t-113 85v20q42 53 42 155
q0 160 -175 160t-175 -160h1q0 -160 200 -160q31 0 31 -50t-31 -50q-250 0 -250 260t225 260q89 0 143 -41q30 41 102 41t102 -41q54 41 143 41q225 0 225 -260q0 -196 -142 -244q-2 -109 -104 -131q3 -21 3 -48v-63q0 -144 -108 -144h-159q-28 0 -40 43q-4 16 -4 27
q0 22 17 23q79 4 79 82q0 75 -125 75t-125 -75q0 -78 79 -82q17 -1 17 -23q0 -11 -4 -27q-12 -43 -40 -43h-6q-96 16 -96 175q0 175 175 175t175 -175q0 -43 -7 -75h64q58 0 58 44v63q0 43 -24.5 53t-24.5 50t61 40q76 0 86 24z" />
    <glyph glyph-name="u103E_1030" unicode="&#x103e;&#x1030;" horiz-adv-x="0" 
d="M-300 -20q25 0 25 -27v-295q0 -28 -25 -28t-25 28v295q0 27 25 27zM-435 -250v205q0 25 25 25t25 -25v-205q0 -120 -72 -120h-31q-33 0 -33 50t33 50h31q22 0 22 20zM-143 -270h31q33 0 33 -50t-33 -50h-31q-72 0 -72 120v205q0 25 25 25t25 -25v-205q0 -20 22 -20z" />
    <glyph glyph-name="u102B_103A" unicode="&#x102b;&#x103a;" horiz-adv-x="130" 
d="M40 667q0 83 -95 83t-95 -61q0 -22 -25 -22t-25 22q0 161 145 161q85 0 120 -63q35 63 120 63q145 0 145 -161q0 -22 -25 -22t-25 22q0 61 -95 61t-95 -83v-643q0 -24 -25 -24t-25 24v643z" />
    <glyph glyph-name="u103D_1037" unicode="&#x103d;&#x1037;" horiz-adv-x="0" 
d="M-70 -30q95 0 95 -100t-95 -100t-95 100t95 100zM-25 -130q0 30 -45 30t-45 -30t45 -30t45 30zM-350 -120q-125 0 -125 -75t125 -75t125 75t-125 75zM-350 -20q175 0 175 -175t-175 -175t-175 175t175 175z" />
    <glyph glyph-name=".notdef" horiz-adv-x="550" 
d="M50 0v520h450v-520h-450zM77 18h396v484h-396v-484zM173 416q17 10 32 16q28 11 61 11q50 0 80.5 -17.5t30.5 -46.5q0 -17 -12.5 -35t-47.5 -47q-34 -29 -54 -48t-20 -36q0 -14 13 -48h-17q-19 35 -19 53q0 28 44.5 79.5t44.5 78.5q0 21 -18 33t-50 12q-21 0 -38 -7
q-14 -5 -30 -14v16zM208 121l31 21q6 4 11 4t12 -4l30 -22q5 -4 5 -7q0 -4 -5 -8l-31 -23q-7 -5 -11 -5q-6 0 -11 4l-33 26q-4 3 -4 6q0 4 6 8z" />
    <glyph glyph-name=".null" horiz-adv-x="0" 
 />
    <glyph glyph-name="nonmarkingreturn" horiz-adv-x="508" 
 />
    <glyph glyph-name="space" unicode=" " horiz-adv-x="250" 
 />
    <glyph glyph-name="space" unicode="&#xa0;" horiz-adv-x="250" 
 />
    <glyph glyph-name="u1000" unicode="&#x1000;" horiz-adv-x="1020" 
d="M720 520q260 0 260 -260t-260 -260q-33 0 -45 15q-8 10 -8 28q0 8 1 17q5 30 18 35t34 5q210 0 210 160t-210 160q-123 0 -174 -55q14 -45 14 -105q0 -233 -172 -260h-7q-11 0 -18 5t-15 38q-3 14 -3 24v5q1 10 3 15q6 11 18 13q144 12 144 160q0 160 -210 160t-210 -160
q0 -148 144 -160q12 -2 18 -13q2 -5 3 -15v-5q0 -10 -3 -24q-8 -33 -15 -38t-18 -5h-7q-172 27 -172 260q0 260 260 260q146 0 210 -82q64 82 210 82z" />
    <glyph glyph-name="u1001" unicode="&#x1001;" 
d="M423 120q87 37 87 140q0 160 -210 160q-184 0 -208 -103q-2 -10 -15 -10q-6 0 -13 2q-24 6 -24 18v2q24 191 260 191q260 0 260 -260t-260 -260q-236 0 -260 191q0 27 20 40q19 12 67 12q172 0 296 -123zM369 105q-94 88 -242 88q-25 0 -28 -6q-1 -1 -1 -3
q36 -84 202 -84q38 0 69 5z" />
    <glyph glyph-name="u1002" unicode="&#x1002;" 
d="M300 520q260 0 260 -260q0 -233 -172 -260h-7q-11 0 -18 5t-15 38q-3 14 -3 24v5q1 10 3 15q6 11 18 13q144 12 144 160q0 160 -210 160t-210 -160q0 -148 144 -160q12 -2 18 -13q2 -5 3 -15v-5q0 -10 -3 -24q-8 -33 -15 -38t-18 -5h-7q-172 27 -172 260q0 260 260 260z
" />
    <glyph glyph-name="u1003" unicode="&#x1003;" horiz-adv-x="1020" 
d="M90 260q0 -160 210 -160t210 160q0 148 -144 160q-12 2 -18 13q-2 5 -3 15v5q0 10 3 24q8 33 15 38t18 5h7q172 -27 172 -260q0 -60 -14 -105q51 -55 174 -55q210 0 210 160t-210 160q-21 0 -34 5t-18 35q-1 9 -1 17q0 18 8 28q12 15 45 15q260 0 260 -260t-260 -260
q-146 0 -210 82q-64 -82 -210 -82q-260 0 -260 260q0 91 110 123q79 23 79 40t-60 17q-41 0 -89 -25q-3 -2 -7 -2q-13 0 -25 26q-8 15 -8 25q0 11 9 16q77 40 122 40q36 0 72 -24.5t36 -72.5q0 -95 -115 -128q-74 -21 -74 -35z" />
    <glyph glyph-name="u1004" unicode="&#x1004;" 
d="M300 520q236 0 260 -191v-2q0 -12 -24 -18q-7 -2 -13 -2q-13 0 -15 10q-24 103 -208 103q-210 0 -210 -160t210 -160q184 0 208 103q2 10 15 10q6 0 13 -2q24 -6 24 -18v-2q-24 -191 -260 -191q-260 0 -260 260t260 260z" />
    <glyph glyph-name="u1005" unicode="&#x1005;" 
d="M197 113q43 -13 103 -13q210 0 210 160t-210 160q-60 0 -103 -13q53 -52 53 -147t-53 -147zM145 382q-55 -40 -55 -122t55 -122q55 40 55 122t-55 122zM300 520q260 0 260 -260t-260 -260t-260 260t260 260z" />
    <glyph glyph-name="u1006" unicode="&#x1006;" horiz-adv-x="1020" 
d="M369 105q-94 88 -242 88q-25 0 -28 -6q-1 -1 -1 -3q36 -84 202 -84q38 0 69 5zM546 154q52 -54 174 -54q210 0 210 160t-210 160q-123 0 -174 -54q14 -46 14 -106t-14 -106zM510 438q64 82 210 82q260 0 260 -260t-260 -260q-146 0 -210 82q-64 -82 -210 -82
q-236 0 -260 191q0 27 20 40q19 12 67 12q172 0 296 -123q87 37 87 140q0 160 -210 160q-184 0 -208 -103q-2 -10 -15 -10q-6 0 -13 2q-24 6 -24 18v2q24 191 260 191q146 0 210 -82z" />
    <glyph glyph-name="u1007" unicode="&#x1007;" 
d="M373 415q-2 -9 -2 -21q0 -60 60 -60q42 0 54 29q-34 40 -112 52zM511 310q-27 -26 -80 -26q-110 0 -110 110q0 14 2 26h-23q-210 0 -210 -160t210 -160q184 0 208 103q2 10 15 10q6 0 13 -2q24 -6 24 -18v-2q-24 -191 -260 -191q-260 0 -260 260t260 260q233 0 259 -185
q26 -34 89 -42l-6 -50q-93 12 -129 66q-1 1 -2 1z" />
    <glyph glyph-name="u1008" unicode="&#x1008;" horiz-adv-x="730" 
d="M197 113q43 -13 103 -13q210 0 210 160t-210 160q-60 0 -103 -13q53 -52 53 -147t-53 -147zM145 382q-55 -40 -55 -122t55 -122q55 40 55 122t-55 122zM325 1v-193q0 -78 109 -78h97q109 0 109 78v689q0 23 25 23t25 -23v-689q0 -178 -159 -178h-97q-159 0 -159 178v193
q-235 12 -235 259q0 260 260 260t260 -260q0 -247 -235 -259z" />
    <glyph glyph-name="u1009" unicode="&#x1009;" 
d="M90 72v-264q0 -78 119 -78h353q118 0 118 78v136q0 16 25 16t25 -16v-136q0 -178 -168 -178h-353q-169 0 -169 178v385q0 12 24 18q7 2 13 2q13 0 15 -10q24 -103 208 -103q210 0 210 160t-210 160q-184 0 -208 -103q-2 -10 -15 -10q-6 0 -13 2q-24 6 -24 18v2
q24 191 260 191q260 0 260 -260t-260 -260q-145 0 -210 72z" />
    <glyph glyph-name="u100A" unicode="&#x100a;" horiz-adv-x="1020" 
d="M90 72v-264q0 -78 119 -78h603q118 0 118 78v136q0 16 25 16t25 -16v-136q0 -178 -168 -178h-603q-169 0 -169 178v385q0 12 24 18q7 2 13 2q13 0 15 -10q24 -103 208 -103q210 0 210 160t-210 160q-184 0 -208 -103q-2 -10 -15 -10q-6 0 -13 2q-24 6 -24 18v2
q24 191 260 191q260 0 260 -260q0 -59 -14 -105q51 -55 174 -55q210 0 210 160t-210 160q-21 0 -34 5t-18 35q-1 9 -1 17q0 18 8 28q12 15 45 15q260 0 260 -260t-260 -260q-146 0 -210 82q-64 -82 -210 -82q-145 0 -210 72z" />
    <glyph glyph-name="u100B" unicode="&#x100b;" 
d="M510 -238q-89 -32 -210 -32q-157 0 -260 53v208l37 18q77 -69 223 -69q134 0 210 58v74q-65 -72 -210 -72q-260 0 -260 260t260 260q236 0 260 -191v-2q0 -12 -24 -18q-7 -2 -13 -2q-13 0 -15 10q-24 103 -208 103q-210 0 -210 -160t210 -160q184 0 208 103q2 10 15 10
q6 0 13 -2q24 -6 24 -18v-222q-90 -81 -260 -81q-127 0 -210 46v-69q86 -37 210 -37q162 0 260 64v-113q0 -51 50 -51q30 0 30 -50t-30 -50q-100 0 -100 120v12z" />
    <glyph glyph-name="u100C" unicode="&#x100c;" 
d="M560 -192q0 -178 -168 -178h-183q-169 0 -169 159t169 159h91q32 0 32 -50t-32 -50h-91q-119 0 -119 -59t119 -59h183q118 0 118 78v264q-65 -72 -210 -72q-260 0 -260 260t260 260q236 0 260 -191v-2q0 -12 -24 -18q-7 -2 -13 -2q-13 0 -15 10q-24 103 -208 103
q-210 0 -210 -160t210 -160q184 0 208 103q2 10 15 10q6 0 13 -2q24 -6 24 -18v-385z" />
    <glyph glyph-name="u100D" unicode="&#x100d;" 
d="M90 72v-74q76 -58 210 -58q146 0 223 69l37 -18v-210q0 -51 50 -51q30 0 30 -50t-30 -50q-100 0 -100 120v136q-83 -46 -210 -46q-170 0 -260 81v272q0 12 24 18q7 2 13 2q13 0 15 -10q24 -103 208 -103q210 0 210 160t-210 160q-184 0 -208 -103q-2 -10 -15 -10
q-6 0 -13 2q-24 6 -24 18v2q24 191 260 191q260 0 260 -260t-260 -260q-145 0 -210 72z" />
    <glyph glyph-name="u100E" unicode="&#x100e;" 
d="M90 260q0 -160 210 -160t210 160q0 148 -144 160q-12 2 -18 13q-2 5 -3 15v5q0 10 3 24q8 33 15 38t18 5h7q172 -27 172 -260q0 -260 -260 -260t-260 260q0 91 110 123q79 23 79 40t-60 17q-41 0 -89 -25q-3 -2 -7 -2q-13 0 -25 26q-8 15 -8 25q0 11 9 16q77 40 122 40
q36 0 72 -24.5t36 -72.5q0 -95 -115 -128q-74 -21 -74 -35z" />
    <glyph glyph-name="u100F" unicode="&#x100f;" horiz-adv-x="1020" 
d="M573 83q-43 64 -43 177q0 116 45 180q-18 30 -65 30t-65 -30q45 -64 45 -180q0 -113 -43 -177q2 -33 63 -33t63 33zM89 260h1q0 -160 200 -160q31 0 31 -50t-31 -50q-250 0 -250 260t225 260q89 0 143 -41q30 41 102 41t102 -41q54 41 143 41q225 0 225 -260t-250 -260
q-31 0 -31 50t31 50q200 0 200 160h1q0 160 -175 160t-175 -160q0 -102 42 -155v-20q0 -85 -113 -85t-113 85v20q42 53 42 155q0 160 -175 160t-175 -160z" />
    <glyph glyph-name="u1010" unicode="&#x1010;" horiz-adv-x="1020" 
d="M300 420q-210 0 -210 -160t210 -160t210 160t-210 160zM510 438q64 82 210 82q260 0 260 -260t-260 -260q-33 0 -45 15q-8 10 -8 28q0 8 1 17q5 30 18 35t34 5q210 0 210 160t-210 160q-123 0 -174 -54q14 -46 14 -106q0 -260 -260 -260t-260 260t260 260q146 0 210 -82z
" />
    <glyph glyph-name="u1011" unicode="&#x1011;" horiz-adv-x="1020" 
d="M300 420q-210 0 -210 -160t210 -160t210 160t-210 160zM546 154q52 -54 174 -54q210 0 210 160t-210 160q-123 0 -174 -55q14 -46 14 -105q0 -60 -14 -106zM510 438q64 82 210 82q260 0 260 -260t-260 -260q-146 0 -210 82q-64 -82 -210 -82q-260 0 -260 260t260 260
q146 0 210 -82z" />
    <glyph glyph-name="u1012" unicode="&#x1012;" 
d="M330 305q180 6 180 62q0 53 -210 53t-210 -40q0 -13 -25 -13t-25 13q0 140 260 140t260 -153q0 -72 -87 -107q87 -34 87 -107q0 -153 -260 -153t-260 140q0 13 25 13t25 -13q0 -40 210 -40t210 53q0 56 -180 62q-30 0 -30 45t30 45z" />
    <glyph glyph-name="u1013" unicode="&#x1013;" 
d="M465 146q45 40 45 114q0 160 -210 160t-210 -160q0 -74 45 -114q53 74 165 74t165 -74zM181 119q47 -19 119 -19t119 19q-40 51 -119 51t-119 -51zM300 520q260 0 260 -260t-260 -260t-260 260t260 260z" />
    <glyph glyph-name="u1014" unicode="&#x1014;" 
d="M274 100q-10 100 -124 100q-60 0 -60 -50q0 -47 184 -50zM324 100q186 4 186 60q0 48 -79 69l-135 36q-156 42 -156 115q0 140 150 140q170 0 170 -135q0 -15 -22 -15t-28 10q-20 40 -120 40t-100 -40q0 -34 119 -66l135 -36q116 -32 116 -118q0 -152 -235 -160v-345
q0 -25 -25 -25t-25 25v345q-235 7 -235 150q0 100 110 100q164 0 174 -150z" />
    <glyph glyph-name="u1015" unicode="&#x1015;" 
d="M40 260q0 233 172 260h7q11 0 18 -5t15 -38q3 -14 3 -24v-5q-1 -10 -3 -15q-6 -11 -18 -13q-144 -12 -144 -160q0 -160 210 -160t210 160q0 148 -144 160q-12 2 -18 13q-2 5 -3 15v5q0 10 3 24q8 33 15 38t18 5h7q172 -27 172 -260q0 -260 -260 -260t-260 260z" />
    <glyph glyph-name="u1016" unicode="&#x1016;" 
d="M388 520q172 -27 172 -260q0 -260 -260 -260t-260 260q0 233 172 260h7q11 0 18 -5t15 -38q3 -14 3 -24v-5q-1 -10 -3 -15q-6 -11 -18 -13q-144 -12 -144 -160q0 -160 210 -160q109 0 161 43q-123 114 -123 290q0 48 12.5 67.5t37.5 19.5zM493 181q17 33 17 79
q0 136 -122 157q5 -152 105 -236z" />
    <glyph glyph-name="u1017" unicode="&#x1017;" 
d="M174 407q-84 -34 -84 -147q0 -160 210 -160t210 160q0 113 -84 147q-25 -74 -126 -74t-126 74zM225 419q19 -36 75 -36t75 36q-4 1 -9 1q-12 2 -18 13q-2 5 -3 15v5q0 10 3 24q8 33 15 38t18 5h7q172 -27 172 -260q0 -260 -260 -260t-260 260q0 233 172 260h7q11 0 18 -5
t15 -38q3 -14 3 -24v-5q-1 -10 -3 -15q-6 -11 -18 -13q-5 0 -9 -1z" />
    <glyph glyph-name="u1018" unicode="&#x1018;" horiz-adv-x="1020" 
d="M510 438q64 82 210 82q260 0 260 -260t-260 -260q-33 0 -45 15q-8 10 -8 28q0 8 1 17q5 30 18 35t34 5q210 0 210 160t-210 160q-123 0 -174 -54q14 -46 14 -106q0 -260 -260 -260q-236 0 -260 191v2q0 12 24 18q7 2 13 2q13 0 15 -10q24 -103 208 -103q210 0 210 160
t-210 160q-184 0 -208 -103q-2 -10 -15 -10q-6 0 -13 2q-24 6 -24 18v2q24 191 260 191q146 0 210 -82z" />
    <glyph glyph-name="u1019" unicode="&#x1019;" 
d="M181 119q47 -19 119 -19t119 19q-40 51 -119 51t-119 -51zM40 260q0 233 172 260h7q11 0 18 -5t15 -38q3 -14 3 -24v-5q-1 -10 -3 -15q-6 -11 -18 -13q-144 -12 -144 -160q0 -74 45 -114q53 74 165 74t165 -74q45 40 45 114q0 148 -144 160q-12 2 -18 13q-2 5 -3 15v5
q0 10 3 24q8 33 15 38t18 5h7q172 -27 172 -260q0 -260 -260 -260t-260 260z" />
    <glyph glyph-name="u101A" unicode="&#x101a;" horiz-adv-x="1020" 
d="M510 82q-64 -82 -210 -82q-260 0 -260 260q0 233 172 260h7q11 0 18 -5t15 -38q3 -14 3 -24v-5q-1 -10 -3 -15q-6 -11 -18 -13q-144 -12 -144 -160q0 -160 210 -160t210 160q0 148 -144 160q-12 2 -18 13q-2 5 -3 15v5q0 10 3 24q8 33 15 38t18 5h7q172 -27 172 -260
q0 -60 -14 -105q51 -55 174 -55q210 0 210 160t-210 160q-21 0 -34 5t-18 35q-1 9 -1 17q0 18 8 28q12 15 45 15q260 0 260 -260t-260 -260q-146 0 -210 82z" />
    <glyph glyph-name="u101B" unicode="&#x101b;" 
d="M109 178q44 -78 191 -78q15 0 18 4v2q0 5 -14 20q-18 18 -41 30q-47 24 -118 24q-19 0 -36 -2zM510 260q0 160 -210 160t-210 -160q0 -17 2 -33q25 3 53 3q103 0 165 -41q31 -20 52 -51q21 -30 21 -55q0 -33 -25 -58t-58 -25q-260 0 -260 260t260 260t260 -260v-479
q0 -51 50 -51q30 0 30 -50t-30 -50q-100 0 -100 120v510z" />
    <glyph glyph-name="u101C" unicode="&#x101c;" horiz-adv-x="1020" 
d="M485 260q0 160 -185 160q-210 0 -210 -160t210 -160q21 0 34 -5t18 -35q1 -9 1 -17q0 -18 -8 -28q-12 -15 -45 -15q-260 0 -260 260t260 260q235 0 235 -260q0 -160 185 -160q210 0 210 160t-210 160q-21 0 -34 5t-18 35q-1 9 -1 17q0 18 8 28q12 15 45 15
q260 0 260 -260t-260 -260q-235 0 -235 260z" />
    <glyph glyph-name="u101D" unicode="&#x101d;" 
d="M300 420q-210 0 -210 -160t210 -160t210 160t-210 160zM300 520q260 0 260 -260t-260 -260t-260 260t260 260z" />
    <glyph glyph-name="u101E" unicode="&#x101e;" horiz-adv-x="1020" 
d="M546 155q52 -55 174 -55q210 0 210 160t-210 160q-21 0 -34 5t-18 35q-1 9 -1 17q0 18 8 28q12 15 45 15q260 0 260 -260t-260 -260q-146 0 -210 82q-64 -82 -210 -82q-236 0 -260 191v2q0 12 24 18q7 2 13 2q13 0 15 -10q24 -103 208 -103q210 0 210 160t-210 160
q-184 0 -208 -103q-2 -10 -15 -10q-6 0 -13 2q-24 6 -24 18v2q24 191 260 191q260 0 260 -260q0 -60 -14 -105z" />
    <glyph glyph-name="u101F" unicode="&#x101f;" horiz-adv-x="1020" 
d="M515 444q65 76 205 76q260 0 260 -260t-260 -260q-33 0 -45 15q-8 10 -8 28q0 8 1 17q5 30 18 35t34 5q210 0 210 160t-210 160q-120 0 -172 -53q12 -47 12 -107q0 -260 -260 -260t-260 260q0 233 172 260h7q11 0 18 -5t15 -38q3 -14 3 -24v-5q-1 -10 -3 -15
q-6 -11 -18 -13q-144 -12 -144 -160q0 -160 210 -160t210 160q0 148 -144 160q-12 2 -18 13q-2 5 -3 15v5q0 10 3 24q8 33 15 38t18 5h7q84 -13 127 -76z" />
    <glyph glyph-name="u1020" unicode="&#x1020;" 
d="M560 -79q-90 -81 -260 -81q-127 0 -210 46v-78q0 -78 118 -78h183q119 0 119 34v62q0 22 25 22t25 -22v-62q0 -134 -169 -134h-183q-168 0 -168 178v183l37 18q77 -69 223 -69q134 0 210 58v74q-65 -72 -210 -72q-260 0 -260 260t260 260q236 0 260 -191v-2
q0 -12 -24 -18q-7 -2 -13 -2q-13 0 -15 10q-24 103 -208 103q-210 0 -210 -160t210 -160q184 0 208 103q2 10 15 10q6 0 13 -2q24 -6 24 -18v-272z" />
    <glyph glyph-name="u1021" unicode="&#x1021;" horiz-adv-x="1020" 
d="M875 180q-71 0 -118 -24q-23 -12 -41 -30q-14 -15 -14 -20v-2q3 -4 18 -4q147 0 191 78q-17 2 -36 2zM527 457q65 63 193 63q260 0 260 -260t-260 -260q-33 0 -58 25t-25 58q0 25 21 55q21 31 52 51q62 41 165 41q28 0 53 -3q2 16 2 33q0 160 -210 160q-108 0 -160 -42
v-11q0 -72 -87 -107q87 -34 87 -107q0 -153 -260 -153t-260 140q0 13 25 13t25 -13q0 -40 210 -40t210 53q0 56 -180 62q-30 0 -30 45t30 45q180 6 180 62q0 53 -210 53t-210 -40q0 -13 -25 -13t-25 13q0 140 260 140q167 0 227 -63z" />
    <glyph glyph-name="u1022" unicode="&#x1022;" horiz-adv-x="1020" 
d="M164 225q115 -33 115 -128q0 -48 -36 -72.5t-72 -24.5q-45 0 -122 40q-9 5 -9 16q0 10 8 25q12 26 25 26q4 0 7 -2q48 -25 89 -25q60 0 60 17t-79 40q-110 32 -110 123q0 260 260 260q146 0 210 -82q64 82 210 82q260 0 260 -260t-260 -260q-33 0 -45 15q-8 10 -8 28
q0 8 1 17q5 30 18 35t34 5q210 0 210 160t-210 160q-123 0 -174 -55q14 -45 14 -105q0 -233 -172 -260h-7q-11 0 -18 5t-15 38q-3 14 -3 24v5q1 10 3 15q6 11 18 13q144 12 144 160q0 160 -210 160t-210 -160q0 -14 74 -35z" />
    <glyph glyph-name="u1023" unicode="&#x1023;" horiz-adv-x="1020" 
d="M720 520q260 0 260 -260t-260 -260q-33 0 -45 15q-8 10 -8 28q0 8 1 17q5 30 18 35t34 5q210 0 210 160t-210 160q-123 0 -174 -55q14 -45 14 -105q0 -233 -172 -260h-7q-11 0 -18 5t-15 38q-3 14 -3 24v5q1 10 3 15q6 11 18 13q144 12 144 160q0 160 -210 160t-210 -160
q0 -148 144 -160q12 -2 18 -13q2 -5 3 -15v-5q0 -10 -3 -24q-8 -33 -15 -38t-18 -5h-7q-172 27 -172 260q0 260 260 260q146 0 210 -82q64 82 210 82zM635 -370q-15 0 -30 2q-13 2 -13 36v15q3 47 41 47h2q125 0 125 75t-125 75q-51 0 -82 -13q7 -28 7 -62q0 -159 -96 -175
h-6q-28 0 -40 43q-4 16 -4 27q0 22 17 23q79 4 79 82q0 75 -125 75t-125 -75q0 -78 79 -82q17 -1 17 -23q0 -11 -4 -27q-12 -43 -40 -43h-6q-96 16 -96 175q0 175 175 175q81 0 125 -38q44 38 125 38q175 0 175 -175q0 -43 -10 -75h51q34 0 34 -50t-34 -50h-216z" />
    <glyph glyph-name="u1024" unicode="&#x1024;" horiz-adv-x="1150" 
d="M1110 260v-615q0 -15 -25 -15t-25 15v615q0 280 -127 280q-175 0 -175 175t175 175q144 0 167 -130v-4q0 -16 -22 -21q-7 -2 -13 -2q-13 0 -17 11q-14 46 -115 46q-125 0 -125 -75t125 -75q177 0 177 -380zM980 -192q0 -178 -168 -178h-603q-169 0 -169 159t169 159h557
q36 0 36 -50t-36 -50h-557q-119 0 -119 -59t119 -59h603q118 0 118 78v452q0 160 -210 160q-123 0 -174 -55q14 -45 14 -105q0 -233 -172 -260h-7q-11 0 -18 5t-15 38q-3 14 -3 24v5q1 10 3 15q6 11 18 13q144 12 144 160q0 160 -210 160t-210 -160q0 -148 144 -160
q12 -2 18 -13q2 -5 3 -15v-5q0 -10 -3 -24q-8 -33 -15 -38t-18 -5h-7q-172 27 -172 260q0 260 260 260q146 0 210 -82q64 82 210 82q260 0 260 -260v-452z" />
    <glyph glyph-name="u1025" unicode="&#x1025;" 
d="M90 72v-264q0 -78 118 -78h213q89 0 89 54t-89 54h-111q-42 0 -42 50t42 50h111q139 0 139 -154t-139 -154h-213q-168 0 -168 178v385q0 12 24 18q7 2 13 2q13 0 15 -10q24 -103 208 -103q210 0 210 160t-210 160q-184 0 -208 -103q-2 -10 -15 -10q-6 0 -13 2
q-24 6 -24 18v2q24 191 260 191q260 0 260 -260t-260 -260q-145 0 -210 72z" />
    <glyph glyph-name="u1026" unicode="&#x1026;" 
d="M90 72v-264q0 -78 118 -78h213q89 0 89 54t-89 54h-111q-42 0 -42 50t42 50h111q139 0 139 -154t-139 -154h-213q-168 0 -168 178v385q0 12 24 18q7 2 13 2q13 0 15 -10q24 -103 208 -103q210 0 210 160t-210 160q-184 0 -208 -103q-2 -10 -15 -10q-6 0 -13 2
q-24 6 -24 18v2q24 191 260 191q260 0 260 -260t-260 -260q-145 0 -210 72zM420 681q5 15 5 34q0 75 -125 75t-125 -75q0 -20 5 -35q38 45 120 45q83 0 120 -44zM215 638q31 -18 85 -18t85 18q-24 37 -85 37t-85 -37zM300 890q175 0 175 -175t-175 -175t-175 175t175 175z
" />
    <glyph glyph-name="u1027" unicode="&#x1027;" 
d="M231 415q94 -68 242 -68q25 0 28 6q1 1 1 3q-36 64 -202 64q-38 0 -69 -5zM300 100q166 0 202 64q0 2 -1 3q-3 6 -28 6q-148 0 -242 -68q31 -5 69 -5zM40 260q0 260 260 260q236 0 260 -171q0 -27 -20 -40q-19 -12 -67 -12q-172 0 -296 103q-87 -37 -87 -140t87 -140
q124 103 296 103q48 0 67 -12q20 -13 20 -40q-24 -171 -260 -171q-260 0 -260 260z" />
    <glyph glyph-name="u1028" unicode="&#x1028;" 
d="M404 100q106 0 106 160t-210 160t-210 -160v-370q0 -160 210 -160t210 160q0 15 25 15t25 -15q0 -260 -260 -260t-260 260v370q0 260 260 260t260 -260t-156 -260q-157 0 -157 129v53l40 19q63 28 63 59q0 40 -49 40q-51 0 -51 -48q0 -15 -25 -15t-25 15q0 98 101 98
q99 0 99 -90q0 -57 -86 -95l-17 -8v-28q0 -29 107 -29z" />
    <glyph glyph-name="u1029" unicode="&#x1029;" horiz-adv-x="1150" 
d="M880 1v-193q0 -178 -168 -178h-503q-169 0 -169 178v904q0 178 169 178h547q46 0 46 -50t-46 -50h-547q-119 0 -119 -78v-904q0 -78 119 -78h503q118 0 118 78v192q-130 6 -190 82q-64 -82 -210 -82q-236 0 -260 191v2q0 12 24 18q7 2 13 2q13 0 15 -10q24 -103 208 -103
q210 0 210 160t-210 160q-184 0 -208 -103q-2 -10 -15 -10q-6 0 -13 2q-24 6 -24 18v2q24 191 260 191q260 0 260 -260q0 -60 -14 -105q52 -55 174 -55q210 0 210 160t-210 160q-21 0 -34 5t-18 35q-1 9 -1 17q0 18 8 28q12 15 45 15q260 0 260 -260q0 -245 -230 -259z" />
    <glyph glyph-name="u102A" unicode="&#x102a;" horiz-adv-x="2170" 
d="M300 100q166 0 202 84q0 2 -1 3q-3 6 -28 6q-148 0 -242 -88q31 -5 69 -5zM473 243q48 0 67 -12q20 -13 20 -40q-24 -191 -260 -191q-260 0 -260 260t260 260q236 0 260 -191v-2q0 -12 -24 -18q-7 -2 -13 -2q-13 0 -15 10q-24 103 -208 103q-210 0 -210 -160
q0 -103 87 -140q124 123 296 123zM1800 790q-125 0 -125 -75t124 -97q41 -8 41 -43t-40 -35q-175 0 -175 175t175 175t175 -163q0 -15 -25 -15t-25 15q0 63 -125 63zM1696 368q14 -47 14 -108q0 -245 -230 -259v-193q0 -178 -168 -178h-503q-169 0 -169 178v904
q0 178 169 178h727q46 0 46 -50t-46 -50h-727q-119 0 -119 -78v-904q0 -78 119 -78h503q118 0 118 78v192q-130 6 -190 82q-64 -82 -210 -82q-236 0 -260 191v2q0 12 24 18q7 2 13 2q13 0 15 -10q24 -103 208 -103q210 0 210 160t-210 160q-184 0 -208 -103q-2 -10 -15 -10
q-6 0 -13 2q-24 6 -24 18v2q24 191 260 191q260 0 260 -260q0 -60 -14 -105q52 -55 174 -55q210 0 210 160t-210 160q-21 0 -34 5t-18 35q-1 9 -1 17q0 18 8 28q12 15 45 15q145 0 210 -81q6 7 15 16q65 65 195 65q260 0 260 -260t-260 -260q-33 0 -45 15q-8 10 -8 28
q0 8 1 17q5 30 18 35t34 5q210 0 210 160t-210 160q-105 0 -157 -40q-9 -7 -17 -12z" />
    <glyph glyph-name="u102B" unicode="&#x102b;" horiz-adv-x="130" 
d="M-55 750q-95 0 -95 -61q0 -22 -25 -22t-25 22q0 161 145 161t145 -183v-643q0 -24 -25 -24t-25 24v643q0 83 -95 83z" />
    <glyph glyph-name="u102C" unicode="&#x102c;" horiz-adv-x="420" 
d="M120 520q260 0 260 -260t-260 -260q-33 0 -45 15q-8 10 -8 28q0 8 1 17q5 30 18 35t34 5q210 0 210 160t-210 160q-105 0 -157 -40q-33 -25 -55 -25q-13 0 -23 10q-7 7 -7 17q0 26 47 73q65 65 195 65z" />
    <glyph glyph-name="u102D" unicode="&#x102d;" horiz-adv-x="0" 
d="M-300 790q-125 0 -125 -75t125 -75t125 75t-125 75zM-300 890q175 0 175 -175t-175 -175t-175 175t175 175z" />
    <glyph glyph-name="u102E" unicode="&#x102e;" horiz-adv-x="0" 
d="M-180 681q5 15 5 34q0 75 -125 75t-125 -75q0 -20 5 -35q38 45 120 45q83 0 120 -44zM-385 638q31 -18 85 -18t85 18q-24 37 -85 37t-85 -37zM-300 890q175 0 175 -175t-175 -175t-175 175t175 175z" />
    <glyph glyph-name="u102F" unicode="&#x102f;" horiz-adv-x="0" 
d="M-253 -270h31q33 0 33 -50t-33 -50h-31q-72 0 -72 120v205q0 25 25 25t25 -25v-205q0 -20 22 -20z" />
    <glyph glyph-name="u1030" unicode="&#x1030;" horiz-adv-x="0" 
d="M-355 -20q25 0 25 -27v-295q0 -28 -25 -28t-25 28v295q0 27 25 27zM-198 -270h31q33 0 33 -50t-33 -50h-31q-72 0 -72 120v205q0 25 25 25t25 -25v-205q0 -20 22 -20z" />
    <glyph glyph-name="u1031" unicode="&#x1031;" 
d="M473 243q48 0 67 -12q20 -13 20 -40q-24 -191 -260 -191q-260 0 -260 260t260 260q236 0 260 -191v-2q0 -12 -24 -18q-7 -2 -13 -2q-13 0 -15 10q-24 103 -208 103q-210 0 -210 -160q0 -103 87 -140q124 123 296 123zM300 100q166 0 202 84q0 2 -1 3q-3 6 -28 6
q-148 0 -242 -88q31 -5 69 -5z" />
    <glyph glyph-name="u1032" unicode="&#x1032;" horiz-adv-x="0" 
d="M-450 830q-10 10 -10 19t9 18q8 9 17 9t19 -10l266 -266q10 -10 10 -20q0 -8 -8 -17q-9 -9 -18 -9t-19 10z" />
    <glyph glyph-name="u1033" unicode="&#x1033;" horiz-adv-x="0" 
d="M-300 810q-125 0 -125 -95t125 -95t125 95t-125 95zM-300 890q175 0 175 -175t-175 -175t-175 175t175 175zM-300 780q75 0 75 -65t-75 -65t-75 65t75 65zM-275 715q0 15 -25 15t-25 -15t25 -15t25 15z" />
    <glyph glyph-name="u1034" unicode="&#x1034;" horiz-adv-x="0" 
d="M-415 564q-10 -10 -19 -10t-18 9q-8 9 -8 17q0 10 10 20l266 266q10 10 19 10t17 -9q9 -9 9 -18t-10 -19z" />
    <glyph glyph-name="u1035" unicode="&#x1035;" horiz-adv-x="0" 
d="M-475 715q0 175 175 175t175 -143q0 -15 -25 -15q-18 0 -25 15q-20 43 -125 43q-125 0 -125 -75q0 -21 10 -37q37 47 121 47q55 0 105 -28.5t50 -71.5q0 -85 -161 -85q-175 0 -175 175zM-371 649q29 -9 71 -9q48 0 82 9q-26 26 -76 26q-52 0 -77 -26z" />
    <glyph glyph-name="u1036" unicode="&#x1036;" horiz-adv-x="0" 
d="M-300 740q100 0 100 -100t-100 -100t-100 100t100 100zM-250 640q0 30 -50 30t-50 -30t50 -30t50 30z" />
    <glyph glyph-name="u1037" unicode="&#x1037;" horiz-adv-x="0" 
d="M-300 -50q100 0 100 -100t-100 -100t-100 100t100 100zM-250 -150q0 30 -50 30t-50 -30t50 -30t50 30z" />
    <glyph glyph-name="u1038" unicode="&#x1038;" horiz-adv-x="280" 
d="M140 220q100 0 100 -100t-100 -100t-100 100t100 100zM190 120q0 30 -50 30t-50 -30t50 -30t50 30zM140 500q100 0 100 -100t-100 -100t-100 100t100 100zM190 400q0 30 -50 30t-50 -30t50 -30t50 30z" />
    <glyph glyph-name="u1039" unicode="&#x1039;" horiz-adv-x="0" 
d="M-325 -160h-90v50h90v90h50v-90h90v-50h-90v-90h-50v90z" />
    <glyph glyph-name="u103A" unicode="&#x103a;" horiz-adv-x="0" 
d="M-300 790q-125 0 -125 -75t124 -97q41 -8 41 -43t-40 -35q-175 0 -175 175t175 175t175 -163q0 -15 -25 -15t-25 15q0 63 -125 63z" />
    <glyph glyph-name="u103B" unicode="&#x103b;" horiz-adv-x="130" 
d="M-195 -210v155q0 35 25 35t25 -35v-155q0 -60 93 -60q92 0 92 60v695q0 35 25 35t25 -35v-695q0 -160 -142 -160q-143 0 -143 160z" />
    <glyph glyph-name="u103C" unicode="&#x103c;" horiz-adv-x="130" 
d="M522 -270q118 0 118 78v266q0 26 25 26t25 -26v-266q0 -178 -168 -178h-313q-169 0 -169 178v904q0 178 169 178h313q168 0 168 -178v-86q0 -26 -25 -26t-25 26v86q0 78 -118 78h-313q-119 0 -119 -78v-904q0 -78 119 -78h313z" />
    <glyph glyph-name="u103D" unicode="&#x103d;" horiz-adv-x="0" 
d="M-300 -120q-125 0 -125 -75t125 -75t125 75t-125 75zM-300 -20q175 0 175 -175t-175 -175t-175 175t175 175z" />
    <glyph glyph-name="u103E" unicode="&#x103e;" horiz-adv-x="0" 
d="M-325 -250v205q0 25 25 25t25 -25v-205q0 -120 -72 -120h-31q-33 0 -33 50t33 50h31q22 0 22 20z" />
    <glyph glyph-name="u103F" unicode="&#x103f;" horiz-adv-x="1440" 
d="M966 155q51 -55 174 -55q210 0 210 160t-210 160q-21 0 -34 5t-18 35q-1 9 -1 17q0 18 8 28q12 15 45 15q260 0 260 -260t-260 -260q-146 0 -210 82q-64 -82 -210 -82t-210 82q-64 -82 -210 -82q-236 0 -260 191v2q0 12 24 18q7 2 13 2q13 0 15 -10q24 -103 208 -103
q210 0 210 160t-210 160q-184 0 -208 -103q-2 -10 -15 -10q-6 0 -13 2q-24 6 -24 18v2q24 191 260 191q260 0 260 -260q0 -60 -14 -105q52 -55 174 -55q210 0 210 160t-210 160q-21 0 -34 5t-18 35q-1 9 -1 17q0 18 8 28q12 15 45 15q260 0 260 -260q0 -59 -14 -105z" />
    <glyph glyph-name="u1040" unicode="&#x1040;" 
d="M300 420q-210 0 -210 -160t210 -160t210 160t-210 160zM300 520q260 0 260 -260t-260 -260t-260 260t260 260z" />
    <glyph glyph-name="u1041" unicode="&#x1041;" 
d="M560 260q0 -260 -260 -260q-236 0 -260 191v2q0 12 24 18q7 2 13 2q13 0 15 -10q24 -103 208 -103q210 0 210 160t-210 160q-184 0 -208 -103q-2 -10 -15 -10q-6 0 -13 2q-24 6 -24 18v2q24 191 260 191q260 0 260 -260z" />
    <glyph glyph-name="u1042" unicode="&#x1042;" 
d="M40 -40q0 26 25 26t25 -26q0 -160 210 -160t210 160v532q0 28 25 28t25 -28v-532q0 -260 -260 -260t-260 260z" />
    <glyph glyph-name="u1043" unicode="&#x1043;" 
d="M141 33q-87 46 -101 158v2q0 12 24 18q7 2 13 2q13 0 15 -10q24 -103 208 -103q210 0 210 160t-210 160q-184 0 -208 -103q-2 -10 -15 -10q-6 0 -13 2q-24 6 -24 18v2q24 191 260 191q260 0 260 -260t-260 -260q-34 0 -63 4l214 -214q10 -10 10 -20q0 -8 -8 -17
q-9 -9 -18 -9t-19 10l-266 266q-6 6 -9 13z" />
    <glyph glyph-name="u1044" unicode="&#x1044;" 
d="M450 20l-266 -266q-10 -10 -19 -10t-18 9q-8 9 -8 17q0 10 10 20l214 214q-29 -4 -63 -4q-260 0 -260 260t260 260q236 0 260 -191v-2q0 -12 -24 -18q-7 -2 -13 -2q-13 0 -15 10q-24 103 -208 103q-210 0 -210 -160t210 -160q184 0 208 103q2 10 15 10q6 0 13 -2
q24 -6 24 -18v-2q-14 -112 -101 -158q-3 -7 -9 -13z" />
    <glyph glyph-name="u1045" unicode="&#x1045;" 
d="M190 267q0 30 -50 30t-50 -30t50 -30t50 30zM300 -300q-260 0 -260 260q0 20 25 20t25 -20q0 -160 210 -160t210 160v300q0 160 -210 160q-134 0 -183 -55q11 2 23 2q100 0 100 -100t-100 -100t-100 100v62q24 191 260 191q260 0 260 -260v-300q0 -260 -260 -260z" />
    <glyph glyph-name="u1046" unicode="&#x1046;" 
d="M560 260q0 -260 -260 -260t-260 260v370q0 260 260 260t260 -260q0 -15 -25 -15t-25 15q0 160 -210 160t-210 -160v-370q0 -160 210 -160t210 160v13l-144 33q-86 17 -86 114q0 90 99 90q101 0 101 -108q0 -15 -25 -15t-25 15q0 38 -51 38q-49 0 -49 -20q0 -21 63 -35
l167 -37v-88z" />
    <glyph glyph-name="u1047" unicode="&#x1047;" 
d="M510 260q0 160 -210 160t-210 -160q0 -148 144 -160q12 -2 18 -13q2 -5 3 -15v-5q0 -10 -3 -24q-8 -33 -15 -38t-18 -5h-7q-172 27 -172 260q0 260 260 260t260 -260q0 -134 -149 -239q-161 -114 -161 -191q0 -30 60 -30t60 30v25q0 25 25 25t25 -25v-25
q0 -130 -110 -130t-110 130q0 102 183 231q127 90 127 199z" />
    <glyph glyph-name="u1048" unicode="&#x1048;" 
d="M212 0q-172 27 -172 260q0 260 260 260t260 -260q0 -233 -172 -260h-7q-11 0 -18 5t-15 38q-3 14 -3 24v5q1 10 3 15q6 11 18 13q144 12 144 160q0 160 -210 160q-109 0 -161 -43q123 -114 123 -290q0 -48 -12.5 -67.5t-37.5 -19.5zM107 339q-17 -33 -17 -79
q0 -136 122 -157q-5 152 -105 236z" />
    <glyph glyph-name="u1049" unicode="&#x1049;" 
d="M560 152l-167 -73q-63 -28 -63 -49q0 -30 49 -30q51 0 51 48q0 15 25 15t25 -15q0 -148 -101 -148q-99 0 -99 130q0 97 86 135l144 62v33q0 160 -210 160t-210 -160v-370q0 -160 210 -160t210 160q0 15 25 15t25 -15q0 -260 -260 -260t-260 260v370q0 260 260 260
t260 -260v-108z" />
    <glyph glyph-name="u104A" unicode="&#x104a;" horiz-adv-x="130" 
d="M65 520q25 0 25 -30v-460q0 -30 -25 -30t-25 30v460q0 30 25 30z" />
    <glyph glyph-name="u104B" unicode="&#x104b;" horiz-adv-x="240" 
d="M175 520q25 0 25 -30v-460q0 -30 -25 -30t-25 30v460q0 30 25 30zM65 520q25 0 25 -30v-460q0 -30 -25 -30t-25 30v460q0 30 25 30z" />
    <glyph glyph-name="u104C" unicode="&#x104c;" 
d="M510 -114q-83 -46 -210 -46q-170 0 -260 81v272q0 12 24 18q7 2 13 2q13 0 15 -10q24 -103 208 -103q210 0 210 160t-210 160q-184 0 -208 -103q-2 -10 -15 -10q-6 0 -13 2q-24 6 -24 18v2q24 191 260 191q260 0 260 -260t-260 -260q-145 0 -210 72v-74q76 -58 210 -58
q146 0 223 69l37 -18v-183q0 -178 -168 -178h-183q-169 0 -169 134v27q0 27 25 27t25 -27v-27q0 -34 119 -34h183q118 0 118 78v78zM300 790q-125 0 -125 -75t124 -97q41 -8 41 -43t-40 -35q-175 0 -175 175t175 175t175 -163q0 -15 -25 -15t-25 15q0 63 -125 63z" />
    <glyph glyph-name="u104D" unicode="&#x104d;" horiz-adv-x="730" 
d="M109 178q44 -78 191 -78q15 0 18 4v2q0 5 -14 20q-18 18 -41 30q-47 24 -118 24q-19 0 -36 -2zM510 260q0 160 -210 160t-210 -160q0 -17 2 -33q25 3 53 3q103 0 165 -41q31 -20 52 -51q21 -30 21 -55q0 -33 -25 -58t-58 -25q-260 0 -260 260t260 260t260 -260v-450
q0 -30 -25 -30t-25 30v450zM690 -192q0 -178 -168 -178h-313q-169 0 -169 159t169 159h191q32 0 32 -50t-32 -50h-191q-119 0 -119 -59t119 -59h313q118 0 118 78v452q0 280 -127 280q-175 0 -175 175t175 175q144 0 167 -130v-4q0 -16 -22 -21q-7 -2 -13 -2q-13 0 -17 11
q-14 46 -115 46q-125 0 -125 -75t125 -75q177 0 177 -380v-452z" />
    <glyph glyph-name="u104E" unicode="&#x104e;" 
d="M560 -347q0 -23 -25 -23t-25 23v419q-65 -72 -210 -72q-260 0 -260 260t260 260q236 0 260 -191v-2q0 -12 -24 -18q-7 -2 -13 -2q-13 0 -15 10q-24 103 -208 103q-210 0 -210 -160t210 -160q184 0 208 103q2 10 15 10q6 0 13 -2q24 -6 24 -18v-540z" />
    <glyph glyph-name="u104F" unicode="&#x104f;" horiz-adv-x="860" 
d="M231 415q94 -68 242 -68q25 0 28 6q1 1 1 3q-36 64 -202 64q-38 0 -69 -5zM300 100q166 0 202 64q0 2 -1 3q-3 6 -28 6q-148 0 -242 -68q31 -5 69 -5zM474 483q30 37 96 37q120 0 120 -183v-313q0 -24 -25 -24t-25 24v313q0 83 -70 83q-19 0 -32 -1q16 -31 22 -70
q0 -27 -20 -40q-19 -12 -67 -12q-172 0 -296 103q-87 -37 -87 -140t87 -140q124 103 296 103q48 0 67 -12q20 -13 20 -40q-24 -171 -260 -171q-260 0 -260 260t260 260q110 0 174 -37zM770 340q0 200 -127 200q-175 0 -175 175t175 175q144 0 167 -130v-4q0 -16 -22 -21
q-7 -2 -13 -2q-13 0 -17 11q-14 46 -115 46q-125 0 -125 -75t125 -75q177 0 177 -300v-316q0 -24 -25 -24t-25 24v316z" />
    <glyph glyph-name="u1050" unicode="&#x1050;" 
d="M300 310q50 0 50 -50t-50 -50t-50 50t50 50zM300 520q260 0 260 -260q0 -233 -172 -260h-7q-11 0 -18 5t-15 38q-3 14 -3 24v5q1 10 3 15q6 11 18 13q144 12 144 160q0 160 -210 160t-210 -160q0 -148 144 -160q12 -2 18 -13q2 -5 3 -15v-5q0 -10 -3 -24q-8 -33 -15 -38
t-18 -5h-7q-172 27 -172 260q0 260 260 260z" />
    <glyph glyph-name="u1051" unicode="&#x1051;" 
d="M250 260q0 50 50 50t50 -50t-50 -50t-50 50zM40 260q0 233 172 260h7q11 0 18 -5t15 -38q3 -14 3 -24v-5q-1 -10 -3 -15q-6 -11 -18 -13q-144 -12 -144 -160q0 -160 210 -160t210 160q0 148 -144 160q-12 2 -18 13q-2 5 -3 15v5q0 10 3 24q8 33 15 38t18 5h7
q172 -27 172 -260q0 -260 -260 -260t-260 260z" />
    <glyph glyph-name="u1052" unicode="&#x1052;" 
d="M436 295q-115 33 -115 128q0 48 36 72.5t72 24.5q45 0 122 -40q9 -5 9 -16q0 -10 -8 -25q-12 -26 -25 -26q-4 0 -7 2q-48 25 -89 25q-60 0 -60 -17t79 -40q110 -32 110 -123q0 -260 -260 -260t-260 260q0 233 172 260h7q11 0 18 -5t15 -38q3 -14 3 -24v-5q-1 -10 -3 -15
q-6 -11 -18 -13q-144 -12 -144 -160q0 -160 210 -160t210 160q0 14 -74 35z" />
    <glyph glyph-name="u1053" unicode="&#x1053;" 
d="M300 0q-260 0 -260 260q0 91 100 123q69 23 69 40t-40 17q-41 0 -89 -25q-3 -2 -7 -2q-13 0 -25 26q-8 15 -8 25q0 11 9 16q77 40 122 40q16 0 52 -24.5t36 -72.5q0 -95 -105 -128q-64 -21 -64 -35q0 -160 210 -160t210 160q0 14 -64 35q-105 33 -105 128q0 48 36 72.5
t52 24.5q45 0 122 -40q9 -5 9 -16q0 -10 -8 -25q-12 -26 -25 -26q-4 0 -7 2q-48 25 -89 25q-40 0 -40 -17t69 -40q100 -32 100 -123q0 -260 -260 -260z" />
    <glyph glyph-name="u1054" unicode="&#x1054;" 
d="M177 400q-87 -37 -87 -140q0 -160 210 -160q184 0 208 103q2 10 15 10q6 0 13 -2q24 -6 24 -18v-2q-24 -191 -260 -191q-260 0 -260 260t260 260q236 0 260 -191q0 -27 -20 -40q-19 -12 -67 -12q-172 0 -296 123zM231 415q94 -88 242 -88q25 0 28 6q1 1 1 3
q-36 84 -202 84q-38 0 -69 -5z" />
    <glyph glyph-name="u1055" unicode="&#x1055;" 
d="M231 415q94 -88 242 -88q25 0 28 6q1 1 1 3q-36 84 -202 84q-38 0 -69 -5zM328 179q21 -79 92 -79q64 0 88 103q2 10 15 10q6 0 13 -2q24 -6 24 -18v-2q-24 -191 -140 -191q-82 0 -119 78q-37 -78 -111 -78q-150 0 -150 260t260 260q236 0 260 -191q0 -27 -20 -40
q-19 -12 -67 -12q-172 0 -296 123q-87 -37 -87 -140q0 -160 100 -160q64 0 88 103q2 10 15 10q6 0 13 -2q24 -6 24 -18v-2z" />
    <glyph glyph-name="u1056" unicode="&#x1056;" horiz-adv-x="420" 
d="M120 100q210 0 210 160q0 14 -74 35q-115 33 -115 128q0 48 36 72.5t72 24.5q45 0 122 -40q9 -5 9 -16q0 -10 -8 -25q-12 -26 -25 -26q-4 0 -7 2q-48 25 -89 25q-60 0 -60 -17t79 -40q110 -32 110 -123q0 -260 -260 -260q-170 0 -229 112l31 81q39 -93 198 -93z" />
    <glyph glyph-name="u1057" unicode="&#x1057;" horiz-adv-x="420" 
d="M330 260q0 14 -74 35q-115 33 -115 128q0 48 36 72.5t72 24.5q45 0 122 -40q9 -5 9 -16q0 -10 -8 -25q-12 -26 -25 -26q-4 0 -7 2q-48 25 -89 25q-60 0 -60 -17t79 -40q110 -32 110 -123q0 -260 -140 -260q-64 0 -101 78q-37 -78 -109 -78q-106 0 -130 191v2q0 12 24 18
q7 2 13 2q13 0 15 -10q24 -103 78 -103q61 0 82 79l-2 12v2q0 12 24 18q7 2 13 2q13 0 15 -10q24 -103 78 -103q90 0 90 160z" />
    <glyph glyph-name="u1058" unicode="&#x1058;" horiz-adv-x="0" 
d="M-300 -20q161 0 161 -85q0 -43 -50 -71.5t-105 -28.5q-84 0 -121 47q-10 -16 -10 -37q0 -75 125 -75q105 0 125 43q7 15 25 15q25 0 25 -15q0 -143 -175 -143t-175 175t175 175zM-294 -155q50 0 76 26q-34 9 -82 9q-42 0 -71 -9q25 -26 77 -26z" />
    <glyph glyph-name="u1059" unicode="&#x1059;" horiz-adv-x="0" 
d="M-294 -155q50 0 76 26q-34 9 -82 9q-42 0 -71 -9q25 -26 77 -26zM-265 -258q13 -12 35 -12q35 0 55 23q7 15 25 15q25 0 25 -15q0 -123 -105 -123q-40 0 -65 26q-26 -26 -75 -26q-105 0 -105 175t175 175q161 0 161 -85q0 -43 -50 -71.5t-105 -28.5q-84 0 -121 47
q-10 -16 -10 -37q0 -75 55 -75q35 0 55 23q7 15 25 15q25 0 25 -15v-11z" />
    <glyph glyph-name="u105A" unicode="&#x105a;" 
d="M365 -125q0 25 -65 25t-65 -12q0 -13 -25 -13t-25 13q0 92 115 92t115 -105q0 -63 -65 -95t-65 -51t65 -19q33 0 33 -40t-33 -40q-115 0 -115 99q0 50 65 79t65 67zM300 520q236 0 260 -191v-2q0 -12 -24 -18q-7 -2 -13 -2q-13 0 -15 10q-24 103 -208 103
q-210 0 -210 -160t210 -160q184 0 208 103q2 10 15 10q6 0 13 -2q24 -6 24 -18v-2q-24 -191 -260 -191q-260 0 -260 260t260 260z" />
    <glyph glyph-name="u105B" unicode="&#x105b;" horiz-adv-x="730" 
d="M373 415q-2 -9 -2 -21q0 -60 60 -60q42 0 54 29q-34 40 -112 52zM325 1v-193q0 -78 109 -78h97q109 0 109 78v435q-91 13 -127 66q-1 1 -2 1q-27 -26 -80 -26q-110 0 -110 110q0 14 2 26h-23q-210 0 -210 -160t210 -160q184 0 208 103q2 10 15 10q6 0 13 -2q24 -6 24 -18
v-2q-23 -181 -235 -190zM640 294v200q0 26 25 26t25 -26v-686q0 -178 -159 -178h-97q-159 0 -159 178v193q-235 12 -235 259q0 260 260 260q233 0 259 -185q24 -32 81 -41z" />
    <glyph glyph-name="u105C" unicode="&#x105c;" 
d="M300 420q-210 0 -210 -160t210 -160t210 160t-210 160zM300 520q260 0 260 -260t-260 -260t-260 260t260 260zM300 360q100 0 100 -100t-100 -100t-100 100t100 100zM350 260q0 30 -50 30t-50 -30t50 -30t50 30z" />
    <glyph glyph-name="u105D" unicode="&#x105d;" 
d="M181 119q47 -19 119 -19t119 19q-40 51 -119 51t-119 -51zM510 -88q0 93 -62 118q-56 -30 -148 -30q-260 0 -260 260q0 233 172 260h7q11 0 18 -5t15 -38q3 -14 3 -24v-5q-1 -10 -3 -15q-6 -11 -18 -13q-144 -12 -144 -160q0 -74 45 -114q53 74 165 74t165 -74
q45 40 45 114q0 148 -144 160q-12 2 -18 13q-2 5 -3 15v5q0 10 3 24q8 33 15 38t18 5h7q172 -27 172 -260q0 -130 -65 -195q65 -42 65 -153v-104q0 -178 -168 -178h-183q-169 0 -169 159t169 159h91q32 0 32 -50t-32 -50h-91q-119 0 -119 -59t119 -59h183q118 0 118 78v104z
" />
    <glyph glyph-name="u105E" unicode="&#x105e;" horiz-adv-x="0" 
d="M-90 -152h-301q-119 0 -119 -59t119 -59h183q118 0 118 78v40zM-42 -52h52q32 0 32 -50t-32 -50h-50v-40q0 -178 -168 -178h-183q-169 0 -169 159t169 159h298q-10 62 -59 82l47 35q54 -35 63 -117z" />
    <glyph glyph-name="u105F" unicode="&#x105f;" horiz-adv-x="0" 
d="M-270 -131q-135 0 -135 -62t105 -62t105 49q0 18 25 18t25 -18q0 -149 -155 -149t-155 162q0 124 173 138v55l52 -1v-131z" />
    <glyph glyph-name="u1060" unicode="&#x1060;" horiz-adv-x="0" 
d="M-327 -200h176v-100h-277l-21 41l175 213l39 -31z" />
    <glyph glyph-name="u1061" unicode="&#x1061;" 
d="M109 178q44 -78 191 -78q15 0 18 4v2q0 5 -14 20q-18 18 -41 30q-47 24 -118 24q-19 0 -36 -2zM333 7q-15 -7 -33 -7q-260 0 -260 260t260 260t260 -260v-479q0 -51 50 -51q30 0 30 -50t-30 -50q-100 0 -100 120v510q0 160 -210 160t-210 -160q0 -17 2 -33q25 3 53 3
q103 0 165 -41q31 -20 52 -51q21 -30 21 -55v-333q0 -120 -100 -120q-30 0 -30 50t30 50q50 0 50 51v226z" />
    <glyph glyph-name="u1062" unicode="&#x1062;" horiz-adv-x="130" 
d="M90 0h-50v420h-80v100h130v-520z" />
    <glyph glyph-name="u1063" unicode="&#x1063;" 
d="M40 193q0 12 24 18q7 2 13 2q13 0 15 -10q24 -103 208 -103q210 0 210 160t-210 160q-184 0 -208 -103q-2 -10 -15 -10q-6 0 -13 2q-24 6 -24 18v2q24 191 260 191q260 0 260 -260t-260 -260q-145 0 -210 72v-419q0 -23 -25 -23t-25 23v540z" />
    <glyph glyph-name="u1064" unicode="&#x1064;" horiz-adv-x="130" 
d="M90 50h80v-50h-130v470h-80v50h130v-470z" />
    <glyph glyph-name="u1065" unicode="&#x1065;" 
d="M560 260q0 -260 -260 -260q-236 0 -260 191v2q0 12 24 18q7 2 13 2q13 0 15 -10q24 -103 208 -103q210 0 210 160t-210 160q-184 0 -208 -103q-2 -10 -15 -10q-6 0 -13 2q-24 6 -24 18v2q24 191 260 191q260 0 260 -260z" />
    <glyph glyph-name="u1066" unicode="&#x1066;" 
d="M361 4q-28 -4 -61 -4q-260 0 -260 260q0 233 172 260h7q11 0 18 -5t15 -38q3 -14 3 -24v-5q-1 -10 -3 -15q-6 -11 -18 -13q-144 -12 -144 -160q0 -160 210 -160t210 160q0 148 -144 160q-12 2 -18 13q-2 5 -3 15v5q0 10 3 24q8 33 15 38t18 5h7q172 -27 172 -260
q0 -197 -149 -245v-265q0 -120 -72 -120h-31q-33 0 -33 50t33 50h31q22 0 22 20v254z" />
    <glyph glyph-name="u1067" unicode="&#x1067;" horiz-adv-x="220" 
d="M130 100q0 30 -50 30t-50 -30t50 -30t50 30zM180 100q0 -100 -100 -100t-100 100t100 100q29 0 50 -9v329h50v-420z" />
    <glyph glyph-name="u1068" unicode="&#x1068;" horiz-adv-x="130" 
d="M90 0h-130v100h80v420h50v-520zM65 740q100 0 100 -100t-100 -100t-100 100t100 100zM115 640q0 30 -50 30t-50 -30t50 -30t50 30z" />
    <glyph glyph-name="u1069" unicode="&#x1069;" horiz-adv-x="292" 
d="M90 133q0 -33 117 -33q45 0 45 -50t-45 -50q-167 0 -167 133q0 89 81 137.5t81 115.5q0 34 -117 34q-45 0 -45 50t45 50q167 0 167 -134q0 -89 -81 -137.5t-81 -115.5z" />
    <glyph glyph-name="u106A" unicode="&#x106a;" horiz-adv-x="130" 
d="M-15 100q55 0 55 43v377h50v-377q0 -143 -105 -143t-105 143h50q0 -43 55 -43z" />
    <glyph glyph-name="u106B" unicode="&#x106b;" horiz-adv-x="130" 
d="M-70 377h-50q0 143 105 143t105 -143v-377h-50v377q0 43 -55 43t-55 -43z" />
    <glyph glyph-name="u106C" unicode="&#x106c;" horiz-adv-x="130" 
d="M40 520h50v-377q0 -43 55 -43t55 43h50q0 -143 -105 -143t-105 143v377z" />
    <glyph glyph-name="u106D" unicode="&#x106d;" horiz-adv-x="292" 
d="M40 386q0 134 167 134q45 0 45 -50t-45 -50q-117 0 -117 -34q0 -67 81 -115.5t81 -137.5q0 -133 -167 -133q-45 0 -45 50t45 50q117 0 117 33q0 67 -81 115.5t-81 137.5z" />
    <glyph glyph-name="u106E" unicode="&#x106e;" horiz-adv-x="1180" 
d="M380 513q36 7 80 7q146 0 210 -82q64 82 210 82q260 0 260 -260t-260 -260q-33 0 -45 15q-8 10 -8 28q0 8 1 17q5 30 18 35t34 5q210 0 210 160t-210 160q-123 0 -174 -55q14 -45 14 -105q0 -233 -172 -260h-7q-11 0 -18 5t-8 24v3q0 16 11 18q144 22 144 210
q0 133 -145 155q35 -60 35 -155q0 -233 -172 -260h-7q-11 0 -18 5t-15 38q-3 14 -3 24v5q1 10 3 15q6 11 18 13q144 12 144 160q0 160 -210 160t-210 -160q0 -148 144 -160q12 -2 18 -13q2 -5 3 -15v-5q0 -10 -3 -24q-8 -33 -15 -38t-18 -5h-7q-172 27 -172 260
q0 260 260 260q44 0 80 -7z" />
    <glyph glyph-name="u106F" unicode="&#x106f;" horiz-adv-x="1020" 
d="M705 1q-21 3 -30 14q-8 10 -8 28q0 8 1 17q5 30 18 35t34 5q210 0 210 160t-210 160q-120 0 -172 -53q12 -47 12 -107q0 -260 -260 -260t-260 260q0 233 172 260h7q11 0 18 -5t15 -38q3 -14 3 -24v-5q-1 -10 -3 -15q-6 -11 -18 -13q-144 -12 -144 -160q0 -160 210 -160
t210 160q0 148 -144 160q-12 2 -18 13q-2 5 -3 15v5q0 10 3 24q8 33 15 38t18 5h7q84 -13 127 -76q65 76 205 76q260 0 260 -260q0 -242 -225 -259v-251q0 -120 -72 -120h-31q-33 0 -33 50t33 50h31q22 0 22 20v251z" />
    <glyph glyph-name="u1070" unicode="&#x1070;" horiz-adv-x="1020" 
d="M705 0q-134 4 -195 82q-64 -82 -210 -82q-260 0 -260 260q0 91 110 123q79 23 79 40t-60 17q-41 0 -89 -25q-3 -2 -7 -2q-13 0 -25 26q-8 15 -8 25q0 11 9 16q77 40 122 40q36 0 72 -24.5t36 -72.5q0 -95 -115 -128q-74 -21 -74 -35q0 -160 210 -160t210 160
q0 148 -144 160q-12 2 -18 13q-2 5 -3 15v5q0 10 3 24q8 33 15 38t18 5h7q172 -27 172 -260q0 -60 -14 -105q51 -55 174 -55q210 0 210 160t-210 160q-21 0 -34 5t-18 35q-1 9 -1 17q0 18 8 28q12 15 45 15q260 0 260 -260q0 -242 -225 -259v-251q0 -120 -72 -120h-31
q-33 0 -33 50t33 50h31q22 0 22 20v250z" />
    <glyph glyph-name="u1071" unicode="&#x1071;" horiz-adv-x="0" 
d="M-193 825q93 0 93 -100t-93 -100t-93 100t93 100zM-150 725q0 30 -43 30t-43 -30t43 -30t43 30zM-407 825q93 0 93 -100t-93 -100t-93 100t93 100zM-364 725q0 30 -43 30t-43 -30t43 -30t43 30z" />
    <glyph glyph-name="u1072" unicode="&#x1072;" horiz-adv-x="0" 
d="M-425 715q0 -75 125 -75q115 0 125 28q5 15 25 15q25 0 25 -15q0 -128 -175 -128t-175 175t175 175t175 -128q0 -15 -25 -15q-20 0 -25 15q-10 28 -125 28q-125 0 -125 -75z" />
    <glyph glyph-name="u1073" unicode="&#x1073;" horiz-adv-x="0" 
d="M-300 849l264 -264l-36 -35l-228 228l-229 -228l-35 35z" />
    <glyph glyph-name="u1074" unicode="&#x1074;" horiz-adv-x="0" 
d="M-175 715q0 76 -78 80q-14 1 -14 40v10q2 45 32 45h5q105 -13 105 -175q0 -175 -175 -175t-175 175q0 162 105 175h5q30 0 32 -45v-10q0 -39 -14 -40q-78 -4 -78 -80q0 -75 125 -75t125 75z" />
    <glyph glyph-name="u1075" unicode="&#x1075;" 
d="M164 225q115 -33 115 -128q0 -48 -36 -72.5t-72 -24.5q-45 0 -122 40q-9 5 -9 16q0 10 8 25q12 26 25 26q4 0 7 -2q48 -25 89 -25q60 0 60 17t-79 40q-110 32 -110 123q0 260 260 260t260 -260q0 -233 -172 -260h-7q-11 0 -18 5t-15 38q-3 14 -3 24v5q1 10 3 15
q6 11 18 13q144 12 144 160q0 160 -210 160t-210 -160q0 -14 74 -35z" />
    <glyph glyph-name="u1076" unicode="&#x1076;" 
d="M369 105q-94 88 -242 88q-25 0 -28 -6q-1 -1 -1 -3q36 -84 202 -84q38 0 69 5zM-30 471v25q0 24 25 24t25 -24v-25q0 -58 40 -70q54 119 240 119q260 0 260 -260t-260 -260q-236 0 -260 191q0 27 20 40q19 12 67 12q172 0 296 -123q87 37 87 140q0 160 -210 160
q-184 0 -208 -103q-2 -10 -15 -10q-26 0 -66.5 28.5t-40.5 135.5z" />
    <glyph glyph-name="u1077" unicode="&#x1077;" 
d="M388 103q122 21 122 157q0 46 -17 79q-100 -84 -105 -236zM300 420q-210 0 -210 -160q0 -14 74 -35q115 -33 115 -128q0 -48 -36 -72.5t-72 -24.5q-45 0 -122 40q-9 5 -9 16q0 10 8 25q12 26 25 26q4 0 7 -2q48 -25 89 -25q60 0 60 17t-79 40q-110 32 -110 123
q0 260 260 260t260 -260q0 -233 -172 -260q-25 0 -37.5 19.5t-12.5 67.5q0 176 123 290q-52 43 -161 43z" />
    <glyph glyph-name="u1078" unicode="&#x1078;" horiz-adv-x="1020" 
d="M510 260q0 -160 210 -160t210 160t-210 160t-210 -160zM720 520q260 0 260 -260t-260 -260t-260 260q0 60 14 106q-51 54 -174 54q-210 0 -210 -160t210 -160q21 0 34 -5t18 -35q1 -9 1 -17q0 -18 -8 -28q-12 -15 -45 -15q-260 0 -260 260t260 260q146 0 210 -82
q64 82 210 82z" />
    <glyph glyph-name="u1079" unicode="&#x1079;" horiz-adv-x="1020" 
d="M510 260q0 -160 210 -160t210 160t-210 160t-210 -160zM109 178q44 -78 191 -78q15 0 18 4v2q0 5 -14 20q-18 18 -41 30q-47 24 -118 24q-19 0 -36 -2zM300 520q146 0 210 -82q64 82 210 82q260 0 260 -260t-260 -260t-260 260q0 60 14 106q-51 54 -174 54
q-210 0 -210 -160q0 -17 2 -33q25 3 53 3q103 0 165 -41q31 -20 52 -51q21 -30 21 -55q0 -33 -25 -58t-58 -25q-260 0 -260 260t260 260z" />
    <glyph glyph-name="u107A" unicode="&#x107a;" horiz-adv-x="1020" 
d="M485 260q0 160 -185 160q-210 0 -210 -160t210 -160q21 0 34 -5t18 -35q1 -9 1 -17q0 -18 -8 -28q-12 -15 -45 -15q-260 0 -260 260t260 260q235 0 235 -260q0 -160 185 -160q210 0 210 160t-210 160q-21 0 -34 5t-18 35q-1 9 -1 17q0 18 8 28q12 15 45 15
q260 0 260 -260t-260 -260q-127 0 -185 75v-325q0 -20 22 -20h31q33 0 33 -50t-33 -50h-31q-72 0 -72 120v510z" />
    <glyph glyph-name="u107B" unicode="&#x107b;" horiz-adv-x="1020" 
d="M300 420q-210 0 -210 -160t210 -160t210 160t-210 160zM875 180q-71 0 -118 -24q-23 -12 -41 -30q-14 -15 -14 -20v-2q3 -4 18 -4q147 0 191 78q-17 2 -36 2zM980 260q0 -260 -260 -260q-33 0 -58 25t-25 58q0 25 21 55q21 31 52 51q62 41 165 41q28 0 53 -3q2 16 2 33
q0 160 -210 160q-123 0 -174 -54q14 -46 14 -106q0 -260 -260 -260t-260 260t260 260q146 0 210 -82q64 82 210 82q260 0 260 -260z" />
    <glyph glyph-name="u107C" unicode="&#x107c;" horiz-adv-x="1020" 
d="M720 100q166 0 202 84q0 2 -1 3q-3 6 -28 6q-148 0 -242 -88q31 -5 69 -5zM369 105q-94 88 -242 88q-25 0 -28 -6q-1 -1 -1 -3q36 -84 202 -84q38 0 69 5zM510 438q64 82 210 82q236 0 260 -191v-2q0 -12 -24 -18q-7 -2 -13 -2q-13 0 -15 10q-24 103 -208 103
q-122 0 -174 -54q14 -46 14 -106t-14 -106q20 -21 51 -34q124 123 296 123q48 0 67 -12q20 -13 20 -40q-24 -191 -260 -191q-146 0 -210 82q-64 -82 -210 -82q-236 0 -260 191q0 27 20 40q19 12 67 12q172 0 296 -123q87 37 87 140q0 160 -210 160q-184 0 -208 -103
q-2 -10 -15 -10q-6 0 -13 2q-24 6 -24 18v2q24 191 260 191q146 0 210 -82z" />
    <glyph glyph-name="u107D" unicode="&#x107d;" horiz-adv-x="1020" 
d="M720 100q166 0 202 84q0 2 -1 3q-3 6 -28 6q-148 0 -242 -88q31 -5 69 -5zM510 82q-64 -82 -210 -82q-260 0 -260 260q0 91 110 123q79 23 79 40t-60 17q-41 0 -89 -25q-3 -2 -7 -2q-13 0 -25 26q-8 15 -8 25q0 11 9 16q77 40 122 40q36 0 72 -24.5t36 -72.5
q0 -95 -115 -128q-74 -21 -74 -35q0 -160 210 -160q123 0 174 55q-14 46 -14 105q0 260 260 260q236 0 260 -191v-2q0 -12 -24 -18q-7 -2 -13 -2q-13 0 -15 10q-24 103 -208 103q-210 0 -210 -160q0 -103 87 -140q124 123 296 123q48 0 67 -12q20 -13 20 -40
q-24 -191 -260 -191q-146 0 -210 82z" />
    <glyph glyph-name="u107E" unicode="&#x107e;" horiz-adv-x="1020" 
d="M720 100q166 0 202 84q0 2 -1 3q-3 6 -28 6q-148 0 -242 -88q31 -5 69 -5zM705 0q-134 4 -195 82q-64 -82 -210 -82q-260 0 -260 260q0 91 110 123q79 23 79 40t-60 17q-41 0 -89 -25q-3 -2 -7 -2q-13 0 -25 26q-8 15 -8 25q0 11 9 16q77 40 122 40q36 0 72 -24.5
t36 -72.5q0 -95 -115 -128q-74 -21 -74 -35q0 -160 210 -160q123 0 174 55q-14 46 -14 105q0 260 260 260q236 0 260 -191v-2q0 -12 -24 -18q-7 -2 -13 -2q-13 0 -15 10q-24 103 -208 103q-210 0 -210 -160q0 -103 87 -140q124 123 296 123q48 0 67 -12q20 -13 20 -40
q-22 -176 -225 -190v-251q0 -120 -72 -120h-31q-33 0 -33 50t33 50h31q22 0 22 20v250z" />
    <glyph glyph-name="u107F" unicode="&#x107f;" 
d="M249.5 500.5q12.5 -19.5 12.5 -67.5q0 -176 -123 -290q52 -43 161 -43q210 0 210 160q0 148 -144 160q-12 2 -18 13q-2 5 -3 15v5q0 10 3 24q8 33 15 38t18 5h7q172 -27 172 -260q0 -260 -260 -260t-260 260q0 233 172 260q25 0 37.5 -19.5zM212 417q-122 -21 -122 -157
q0 -46 17 -79q100 84 105 236z" />
    <glyph glyph-name="u1080" unicode="&#x1080;" horiz-adv-x="1020" 
d="M369 105q-94 88 -242 88q-25 0 -28 -6q-1 -1 -1 -3q36 -84 202 -84q38 0 69 5zM546 154q51 -54 174 -54q210 0 210 160t-210 160q-21 0 -34 5t-18 35q-1 9 -1 17q0 18 8 28q12 15 45 15q260 0 260 -260t-260 -260q-146 0 -210 82q-64 -82 -210 -82q-236 0 -260 191
q0 27 20 40q19 12 67 12q172 0 296 -123q87 37 87 140q0 160 -210 160q-184 0 -208 -103q-2 -10 -15 -10q-6 0 -13 2q-24 6 -24 18v2q24 191 260 191q260 0 260 -260q0 -60 -14 -106z" />
    <glyph glyph-name="u1081" unicode="&#x1081;" 
d="M205 1q-165 31 -165 259q0 260 260 260t260 -260q0 -233 -172 -260h-7q-11 0 -18 5t-15 38q-3 14 -3 24v5q1 10 3 15q6 11 18 13q144 12 144 160q0 160 -210 160t-210 -160q0 -148 144 -160q12 -2 18 -13q2 -5 3 -15v-322q0 -120 -72 -120h-31q-33 0 -33 50t33 50h31
q22 0 22 20v251z" />
    <glyph glyph-name="u1082" unicode="&#x1082;" horiz-adv-x="0" 
d="M-300 -120q-125 0 -125 -75t125 -75q115 0 125 28q5 15 25 15q25 0 25 -15q0 -128 -175 -128t-175 175t175 175q86 0 117 -33q19 -21 19 -38q0 -11 -7 -19q-15 -19 -27 -19q-3 0 -6 2q-15 7 -96 7z" />
    <glyph glyph-name="u1083" unicode="&#x1083;" horiz-adv-x="130" 
d="M40 420h-80v100h130v-790h80v-100h-130v790z" />
    <glyph glyph-name="u1084" unicode="&#x1084;" 
d="M300 260q0 -45 -30 -45q-180 -6 -180 -62q0 -53 210 -53t210 40q0 13 25 13t25 -13q0 -140 -260 -140t-260 153q0 73 87 107q-87 35 -87 107q0 153 260 153t260 -140q0 -13 -25 -13t-25 13q0 40 -210 40t-210 -53q0 -56 180 -62q30 0 30 -45z" />
    <glyph glyph-name="u1085" unicode="&#x1085;" horiz-adv-x="0" 
d="M-384 715q-44 25 -44 75q0 100 145 100q47 0 79 -3q28 -4 28 -34v-9q-5 -37 -26 -37h-3q-24 3 -78 3q-95 0 -95 -20q0 -40 94 -40q31 0 31 -35t-31 -35q-94 0 -94 -40q0 -20 95 -20q54 0 78 3h3q21 0 26 -36v-10q0 -30 -28 -33q-32 -4 -79 -4q-145 0 -145 100q0 50 44 75
z" />
    <glyph glyph-name="u1086" unicode="&#x1086;" horiz-adv-x="0" 
d="M-250 760q0 30 -50 30t-50 -30t50 -30t50 30zM-200 728q0 -175 -151 -217l-16 48q87 25 109 107q-18 -6 -42 -6q-100 0 -100 100t100 100t100 -100v-32z" />
    <glyph glyph-name="u1087" unicode="&#x1087;" horiz-adv-x="280" 
d="M190 100q0 30 -50 30t-50 -30t50 -30t50 30zM240 68q0 -175 -151 -217l-16 48q87 25 109 107q-18 -6 -42 -6q-100 0 -100 100t100 100t100 -100v-32z" />
    <glyph glyph-name="u1088" unicode="&#x1088;" horiz-adv-x="280" 
d="M140 520q100 0 100 -100t-100 -100t-100 100t100 100zM190 420q0 30 -50 30t-50 -30t50 -30t50 30zM190 100q0 30 -50 30t-50 -30t50 -30t50 30zM240 68q0 -175 -151 -217l-16 48q87 25 109 107q-18 -6 -42 -6q-100 0 -100 100t100 100t100 -100v-32z" />
    <glyph glyph-name="u1089" unicode="&#x1089;" horiz-adv-x="280" 
d="M140 200q100 0 100 -100t-100 -100t-100 100t100 100zM190 100q0 30 -50 30t-50 -30t50 -30t50 30z" />
    <glyph glyph-name="u108A" unicode="&#x108a;" horiz-adv-x="430" 
d="M191 420q0 30 -50 30t-50 -30t50 -30t50 30zM141 320q-100 0 -100 100t100 100t100 -100q0 -25 -6 -43q82 22 107 110l48 -16q-42 -151 -217 -151h-32zM190 100q0 30 -50 30t-50 -30t50 -30t50 30zM140 0q-100 0 -100 100t100 100t100 -100q0 -25 -6 -43q82 22 107 110
l48 -16q-42 -151 -217 -151h-32z" />
    <glyph glyph-name="u108B" unicode="&#x108b;" horiz-adv-x="280" 
d="M140 360q100 0 100 -100t-100 -100t-100 100t100 100zM190 260q0 30 -50 30t-50 -30t50 -30t50 30z" />
    <glyph glyph-name="u108C" unicode="&#x108c;" horiz-adv-x="520" 
d="M380 360q100 0 100 -100t-100 -100t-100 100t100 100zM430 260q0 30 -50 30t-50 -30t50 -30t50 30zM140 360q100 0 100 -100t-100 -100t-100 100t100 100zM190 260q0 30 -50 30t-50 -30t50 -30t50 30z" />
    <glyph glyph-name="u108D" unicode="&#x108d;" horiz-adv-x="0" 
d="M-75 -106v-50h-450v50h450z" />
    <glyph glyph-name="u108E" unicode="&#x108e;" 
d="M300 300q-112 0 -165 74q-45 -40 -45 -114q0 -160 210 -160t210 160q0 74 -45 114q-53 -74 -165 -74zM300 350q79 0 119 51q-47 19 -119 19t-119 -19q40 -51 119 -51zM40 260q0 260 260 260t260 -260t-260 -260t-260 260z" />
    <glyph glyph-name="u108F" unicode="&#x108f;" horiz-adv-x="280" 
d="M240 420q0 -100 -100 -100t-100 100t100 100t100 -100zM140 390q50 0 50 30t-50 30t-50 -30t50 -30zM140 70q50 0 50 30t-50 30t-50 -30t50 -30zM40 100q0 100 100 100t100 -100t-100 -100q-24 0 -42 6q22 -82 109 -107l-16 -48q-151 42 -151 217v32z" />
    <glyph glyph-name="u1090" unicode="&#x1090;" 
d="M300 420q-210 0 -210 -160t210 -160t210 160t-210 160zM300 520q260 0 260 -260t-260 -260t-260 260t260 260z" />
    <glyph glyph-name="u1091" unicode="&#x1091;" horiz-adv-x="320" 
d="M185 119l69 41l26 -93l-112 -67h-33v401l-69 -41l-26 93l112 67h33v-401z" />
    <glyph glyph-name="u1092" unicode="&#x1092;" 
d="M90 447q64 73 210 73q260 0 260 -260q0 -134 -149 -239q-161 -114 -161 -221h-50q0 132 183 261q127 90 127 199q0 160 -210 160t-210 -130h-50v270h50v-113z" />
    <glyph glyph-name="u1093" unicode="&#x1093;" horiz-adv-x="535" 
d="M319 520h21q155 0 155 -173v-347h-50v347q0 73 -105 73h-64l-190 -420l-46 20l327 731l46 -20z" />
    <glyph glyph-name="u1094" unicode="&#x1094;" horiz-adv-x="448" 
d="M264 520h49v-401l69 41l26 -93l-112 -67h-33v396l-177 -396l-46 20z" />
    <glyph glyph-name="u1095" unicode="&#x1095;" horiz-adv-x="480" 
d="M390 320h-125q-175 0 -175 -110t150 -110t150 160v60zM440 420h50v-100h-50v-60q0 -260 -200 -260t-200 210t225 210h125v280h50v-280z" />
    <glyph glyph-name="u1096" unicode="&#x1096;" horiz-adv-x="480" 
d="M390 260q0 160 -150 160t-150 -110t175 -110h125v60zM440 -180h-50v280h-125q-225 0 -225 210t200 210t200 -260v-60h50v-100h-50v-280z" />
    <glyph glyph-name="u1097" unicode="&#x1097;" horiz-adv-x="480" 
d="M329 420h-289v100h400v-33l-287 -387h287v-100h-400v31z" />
    <glyph glyph-name="u1098" unicode="&#x1098;" 
d="M300 420q-210 0 -210 -160t210 -160t210 160t-210 160zM300 570q210 0 210 160h50q0 -179 -124 -235q124 -56 124 -235q0 -260 -260 -260t-260 260q0 179 124 235q-124 56 -124 235h50q0 -160 210 -160z" />
    <glyph glyph-name="u1099" unicode="&#x1099;" 
d="M510 470q0 160 -210 160t-210 -160t210 -160t210 160zM90 0h-50q0 179 124 235q-124 56 -124 235q0 260 260 260t260 -260q0 -179 -124 -235q124 -56 124 -235h-50q0 160 -210 160t-210 -160z" />
    <glyph glyph-name="u109A" unicode="&#x109a;" horiz-adv-x="280" 
d="M140 520q100 0 100 -100t-100 -100t-100 100t100 100zM190 420q0 30 -50 30t-50 -30t50 -30t50 30z" />
    <glyph glyph-name="u109B" unicode="&#x109b;" horiz-adv-x="280" 
d="M190 420q0 30 -50 30t-50 -30t50 -30t50 30zM240 388q0 -175 -151 -217l-16 48q87 25 109 107q-18 -6 -42 -6q-100 0 -100 100t100 100t100 -100v-32z" />
    <glyph glyph-name="u109C" unicode="&#x109c;" horiz-adv-x="430" 
d="M141 130q-50 0 -50 -30t50 -30t50 30t-50 30zM173 200q175 0 217 -151l-48 -16q-25 88 -107 110q6 -18 6 -43q0 -100 -100 -100t-100 100t100 100h32zM140 450q-50 0 -50 -30t50 -30t50 30t-50 30zM172 520q175 0 217 -151l-48 -16q-25 88 -107 110q6 -18 6 -43
q0 -100 -100 -100t-100 100t100 100h32z" />
    <glyph glyph-name="u109D" unicode="&#x109d;" horiz-adv-x="0" 
d="M-185 640q-95 0 -95 -43h-50q0 143 145 143t145 -183v-157h-50v157q0 83 -95 83z" />
    <glyph glyph-name="u109E" unicode="&#x109e;" horiz-adv-x="130" 
d="M40 420h-80v100h130v-790h80v-100h-130v790zM65 740q100 0 100 -100t-100 -100t-100 100t100 100zM115 640q0 30 -50 30t-50 -30t50 -30t50 30z" />
    <glyph glyph-name="u109F" unicode="&#x109f;" horiz-adv-x="730" 
d="M510 260q0 160 -210 160t-210 -160t210 -160q21 0 34 -5t18 -35q1 -9 1 -17q0 -18 -8 -28q-12 -15 -45 -15q-260 0 -260 260t260 260t260 -260v-502q0 -28 40 -28t40 28v502q0 280 -127 280q-175 0 -175 175t175 175q144 0 167 -130v-4q0 -16 -22 -21q-7 -2 -13 -2
q-13 0 -17 11q-14 46 -115 46q-125 0 -125 -75t125 -75q177 0 177 -380v-502q0 -128 -90 -128t-90 128v502z" />
    <glyph glyph-name="uAA60" unicode="&#xaa60;" horiz-adv-x="1020" 
d="M875 180q-71 0 -118 -24q-23 -12 -41 -30q-14 -15 -14 -20v-2q3 -4 18 -4q147 0 191 78q-17 2 -36 2zM930 260q0 160 -210 160q-123 0 -174 -55q14 -45 14 -105q0 -233 -172 -260h-7q-11 0 -18 5t-15 38q-3 14 -3 24v5q1 10 3 15q6 11 18 13q144 12 144 160
q0 160 -210 160t-210 -160q0 -148 144 -160q12 -2 18 -13q2 -5 3 -15v-5q0 -10 -3 -24q-8 -33 -15 -38t-18 -5h-7q-172 27 -172 260q0 260 260 260q146 0 210 -82q64 82 210 82q260 0 260 -260t-260 -260q-33 0 -58 25t-25 58q0 25 21 55q21 31 52 51q62 41 165 41
q28 0 53 -3q2 16 2 33z" />
    <glyph glyph-name="uAA61" unicode="&#xaa61;" horiz-adv-x="1020" 
d="M548 152q52 -52 172 -52q210 0 210 160t-210 160q-123 0 -174 -55q14 -46 14 -105q0 -61 -12 -108zM510 438q64 82 210 82q260 0 260 -260t-260 -260q-140 0 -205 75q-43 -62 -127 -75h-7q-11 0 -18 5t-15 38q-3 14 -3 24v5q1 10 3 15q6 11 18 13q144 12 144 160
q0 160 -210 160t-210 -160q0 -14 74 -35q115 -33 115 -128q0 -48 -36 -72.5t-72 -24.5q-45 0 -122 40q-9 5 -9 16q0 10 8 25q12 26 25 26q4 0 7 -2q48 -25 89 -25q60 0 60 17t-79 40q-110 32 -110 123q0 260 260 260q146 0 210 -82z" />
    <glyph glyph-name="uAA62" unicode="&#xaa62;" horiz-adv-x="797" 
d="M287 260q0 -160 210 -160t210 160t-210 160q-21 0 -34 5t-18 35q-1 9 -1 17q0 18 8 28q12 15 45 15q260 0 260 -260t-260 -260q-187 0 -240 134l-170 -134h-47v520h50v-394l173 134h24z" />
    <glyph glyph-name="uAA63" unicode="&#xaa63;" horiz-adv-x="1020" 
d="M388 103q122 21 122 157q0 46 -17 79q-100 -84 -105 -236zM548 153q52 -53 172 -53q210 0 210 160t-210 160q-123 0 -174 -54q14 -46 14 -106q0 -61 -12 -107zM510 438q64 82 210 82q260 0 260 -260t-260 -260q-140 0 -205 76q-43 -63 -127 -76q-25 0 -37.5 19.5
t-12.5 67.5q0 176 123 290q-52 43 -161 43q-210 0 -210 -160q0 -14 74 -35q115 -33 115 -128q0 -48 -36 -72.5t-72 -24.5q-45 0 -122 40q-9 5 -9 16q0 10 8 25q12 26 25 26q4 0 7 -2q48 -25 89 -25q60 0 60 17t-79 40q-110 32 -110 123q0 260 260 260q146 0 210 -82z" />
    <glyph glyph-name="uAA64" unicode="&#xaa64;" horiz-adv-x="1020" 
d="M546 155q51 -55 174 -55q210 0 210 160t-210 160q-120 0 -172 -52q12 -47 12 -108q0 -60 -14 -105zM515 445q64 75 205 75q260 0 260 -260t-260 -260q-146 0 -210 82q-64 -82 -210 -82q-260 0 -260 260q0 233 172 260h7q11 0 18 -5t15 -38q3 -14 3 -24v-5q-1 -10 -3 -15
q-6 -11 -18 -13q-144 -12 -144 -160q0 -160 210 -160t210 160q0 148 -144 160q-12 2 -18 13q-2 5 -3 15v5q0 10 3 24q8 33 15 38t18 5h7q84 -13 127 -75z" />
    <glyph glyph-name="uAA65" unicode="&#xaa65;" horiz-adv-x="1020" 
d="M535 -250q0 -120 -72 -120h-31q-33 0 -33 50t33 50h31q22 0 22 20v325q-58 -75 -185 -75q-260 0 -260 260t260 260q33 0 45 -15q8 -10 8 -28q0 -8 -1 -17q-5 -30 -18 -35t-34 -5q-210 0 -210 -160t210 -160q185 0 185 160q0 260 235 260q260 0 260 -260t-260 -260
q-33 0 -45 15q-8 10 -8 28q0 8 1 17q5 30 18 35t34 5q210 0 210 160t-210 160q-185 0 -185 -160v-510z" />
    <glyph glyph-name="uAA66" unicode="&#xaa66;" horiz-adv-x="1020" 
d="M300 420q-210 0 -210 -160t210 -160t210 160t-210 160zM510 438q64 82 210 82q260 0 260 -260t-260 -260q-33 0 -45 15q-8 10 -8 28q0 8 1 17q5 30 18 35t34 5q210 0 210 160t-210 160q-123 0 -174 -54q14 -46 14 -106q0 -260 -260 -260t-260 260t260 260q146 0 210 -82z
M300 295q35 0 35 -35t-35 -35t-35 35t35 35z" />
    <glyph glyph-name="uAA67" unicode="&#xaa67;" horiz-adv-x="1020" 
d="M300 420q-210 0 -210 -160t210 -160t210 160t-210 160zM546 154q52 -54 174 -54q210 0 210 160t-210 160q-123 0 -174 -55q14 -46 14 -105q0 -60 -14 -106zM510 438q64 82 210 82q260 0 260 -260t-260 -260q-146 0 -210 82q-64 -82 -210 -82q-260 0 -260 260t260 260
q146 0 210 -82zM300 295q35 0 35 -35t-35 -35t-35 35t35 35z" />
    <glyph glyph-name="uAA68" unicode="&#xaa68;" horiz-adv-x="1020" 
d="M300 420q-210 0 -210 -160t210 -160t210 160t-210 160zM875 180q-71 0 -118 -24q-23 -12 -41 -30q-14 -15 -14 -20v-2q3 -4 18 -4q147 0 191 78q-17 2 -36 2zM980 260q0 -260 -260 -260q-33 0 -58 25t-25 58q0 25 21 55q21 31 52 51q62 41 165 41q28 0 53 -3q2 16 2 33
q0 160 -210 160q-123 0 -174 -54q14 -46 14 -106q0 -260 -260 -260t-260 260t260 260q146 0 210 -82q64 82 210 82q260 0 260 -260zM300 295q35 0 35 -35t-35 -35t-35 35t35 35z" />
    <glyph glyph-name="uAA69" unicode="&#xaa69;" horiz-adv-x="1020" 
d="M300 295q35 0 35 -35t-35 -35t-35 35t35 35zM300 420q-210 0 -210 -160t210 -160t210 160t-210 160zM759 102q171 14 171 158q0 160 -210 160q-123 0 -174 -55q12 -41 14 -91q179 -8 199 -172zM559 224q-3 -38 -13 -70q49 -51 162 -54q-19 117 -149 124zM510 438
q64 82 210 82q260 0 260 -260t-260 -260q-146 0 -210 82q-64 -82 -210 -82q-260 0 -260 260t260 260q146 0 210 -82z" />
    <glyph glyph-name="uAA6A" unicode="&#xaa6a;" horiz-adv-x="1020" 
d="M300 295q35 0 35 -35t-35 -35t-35 35t35 35zM300 420q-210 0 -210 -160t210 -160t210 160t-210 160zM759 102q171 14 171 158q0 160 -210 160q-123 0 -174 -55q12 -41 14 -91q179 -8 199 -172zM559 224q-3 -38 -13 -70q49 -51 162 -54q-19 117 -149 124zM510 438
q64 82 210 82q260 0 260 -260t-260 -260q-146 0 -210 82q-64 -82 -210 -82q-260 0 -260 260t260 260q146 0 210 -82z" />
    <glyph glyph-name="uAA6B" unicode="&#xaa6b;" 
d="M107 339q-17 -33 -17 -79q0 -136 122 -157q-5 152 -105 236zM56 373q-64 56 -64 147h50q0 -59 37 -98q62 98 221 98q260 0 260 -260q0 -233 -172 -260h-7q-11 0 -18 5t-15 38q-3 14 -3 24v5q1 10 3 15q6 11 18 13q144 12 144 160q0 160 -210 160q-109 0 -161 -43
q123 -114 123 -290q0 -48 -12.5 -67.5t-37.5 -19.5q-172 27 -172 260q0 65 16 113z" />
    <glyph glyph-name="uAA6C" unicode="&#xaa6c;" horiz-adv-x="1020" 
d="M510 470q-61 0 -63 -33q43 -64 43 -177q0 -260 -225 -260t-225 260t250 260q31 0 31 -50t-31 -50q-200 0 -200 -160h-1q0 -160 175 -160t175 160q0 102 -42 155v20q0 85 113 85t113 -85v-20q-42 -53 -42 -155q0 -160 175 -160t175 160h-1q0 160 -200 160q-31 0 -31 50
t31 50q250 0 250 -260t-225 -260t-225 260q0 113 43 177q-2 33 -63 33z" />
    <glyph glyph-name="uAA6D" unicode="&#xaa6d;" horiz-adv-x="680" 
d="M148 420q0 30 -50 30t-50 -30t50 -30t50 30zM590 260q0 160 -210 160t-210 -160v-447q0 -183 -145 -183t-145 183h50q0 -83 95 -83t95 83v447q0 33 4 62q-12 -2 -26 -2q-100 0 -100 100t100 100q76 0 94 -58q65 58 188 58q260 0 260 -260t-260 -260q-33 0 -45 15
q-8 10 -8 28q0 8 1 17q5 30 18 35t34 5q210 0 210 160z" />
    <glyph glyph-name="uAA6E" unicode="&#xaa6e;" horiz-adv-x="1020" 
d="M109 178q44 -78 191 -78q15 0 18 4v2q0 5 -14 20q-18 18 -41 30q-47 24 -118 24q-19 0 -36 -2zM40 260q0 260 260 260q235 0 235 -260q0 -160 185 -160q210 0 210 160t-210 160q-21 0 -34 5t-18 35q-1 9 -1 17q0 18 8 28q12 15 45 15q260 0 260 -260t-260 -260
q-235 0 -235 260q0 160 -185 160q-210 0 -210 -160q0 -17 2 -33q25 3 53 3q103 0 165 -41q31 -20 52 -51q21 -30 21 -55q0 -33 -25 -58t-58 -25q-260 0 -260 260z" />
    <glyph glyph-name="uAA6F" unicode="&#xaa6f;" horiz-adv-x="730" 
d="M430 420q-210 0 -210 -160t210 -160t210 160t-210 160zM172 306l-82 88v-394h-50v520h47l110 -118q58 118 233 118q260 0 260 -260t-260 -260t-260 260q0 24 2 46z" />
    <glyph glyph-name="uAA70" unicode="&#xaa70;" horiz-adv-x="0" 
d="M-299 560q-76 0 -107 -31l-40 65q44 46 147 46q102 0 146 -46l-40 -65q-31 31 -106 31zM-299 700q-76 0 -107 -31l-40 65q44 46 147 46q102 0 146 -46l-40 -65q-31 31 -106 31z" />
    <glyph glyph-name="uAA71" unicode="&#xaa71;" horiz-adv-x="1020" 
d="M107 339q-17 -33 -17 -79q0 -136 122 -157q-5 152 -105 236zM300 520q146 0 210 -82q64 82 210 82q260 0 260 -260t-260 -260q-33 0 -45 15q-8 10 -8 28q0 8 1 17q5 30 18 35t34 5q210 0 210 160t-210 160q-123 0 -174 -55q14 -45 14 -105q0 -233 -172 -260h-7
q-11 0 -18 5t-15 38q-3 14 -3 24v5q1 10 3 15q6 11 18 13q144 12 144 160q0 160 -210 160q-109 0 -161 -43q123 -114 123 -290q0 -48 -12.5 -67.5t-37.5 -19.5q-172 27 -172 260q0 260 260 260z" />
    <glyph glyph-name="uAA72" unicode="&#xaa72;" horiz-adv-x="1020" 
d="M548 152q52 -52 172 -52q210 0 210 160t-210 160q-123 0 -174 -55q14 -46 14 -105q0 -61 -12 -108zM190 100q0 30 -50 30t-50 -30t50 -30t50 30zM71 180q-31 32 -31 80q0 260 260 260q146 0 210 -82q64 82 210 82q260 0 260 -260t-260 -260q-140 0 -205 75
q-43 -62 -127 -75h-7q-11 0 -18 5t-15 38q-3 14 -3 24v5q1 10 3 15q6 11 18 13q144 12 144 160q0 160 -210 160t-210 -160q0 -14 74 -35q76 -21 76 -116v-9q0 -100 -100 -100t-100 100q0 56 31 80z" />
    <glyph glyph-name="uAA73" unicode="&#xaa73;" horiz-adv-x="694" 
d="M90 364v-364h-50v520h48q147 -420 319 -420q197 0 197 160t-210 160q-59 0 -102 -17l-19 98q51 19 121 19q260 0 260 -260t-247 -260q-176 0 -317 364z" />
    <glyph glyph-name="uAA74" unicode="&#xaa74;" horiz-adv-x="730" 
d="M388 109q122 29 122 151q0 136 -122 157v-308zM338 -270q0 30 -50 30t-50 -30t50 -30t50 30zM338 2q-18 -2 -38 -2q-260 0 -260 260q0 233 172 260h7q11 0 18 -5t15 -38q3 -14 3 -24v-5q-1 -10 -3 -15q-6 -11 -18 -13q-144 -12 -144 -160q0 -160 210 -160q20 0 38 1v332
q0 48 12.5 67.5t37.5 19.5q172 -27 172 -260q0 -211 -172 -251v-240q68 -39 169 -39q83 0 83 58v472q0 280 -127 280q-175 0 -175 175t175 175q144 0 167 -130v-4q0 -16 -22 -21q-7 -2 -13 -2q-13 0 -17 11q-14 46 -115 46q-125 0 -125 -75t125 -75q177 0 177 -380v-472
q0 -158 -133 -158q-104 0 -172 66q-16 -66 -97 -66q-100 0 -100 100t100 100q29 0 50 -9v181z" />
    <glyph glyph-name="uAA75" unicode="&#xaa75;" horiz-adv-x="1150" 
d="M758 -270q0 30 -50 30t-50 -30t50 -30t50 30zM758 2q-18 -2 -38 -2q-33 0 -45 15q-8 10 -8 28q0 8 1 17q5 30 18 35t34 5q210 0 210 160t-210 160q-123 0 -174 -55q14 -45 14 -105q0 -233 -172 -260h-7q-11 0 -18 5t-15 38q-3 14 -3 24v5q1 10 3 15q6 11 18 13
q144 12 144 160q0 160 -210 160t-210 -160q0 -14 74 -35q115 -33 115 -128q0 -48 -36 -72.5t-72 -24.5q-45 0 -122 40q-9 5 -9 16q0 10 8 25q12 26 25 26q4 0 7 -2q48 -25 89 -25q60 0 60 17t-79 40q-110 32 -110 123q0 260 260 260q146 0 210 -82q64 82 210 82
q260 0 260 -260q0 -211 -172 -251v-240q68 -39 169 -39q83 0 83 58v472q0 280 -127 280q-175 0 -175 175t175 175q144 0 167 -130v-4q0 -16 -22 -21q-7 -2 -13 -2q-13 0 -17 11q-14 46 -115 46q-125 0 -125 -75t125 -75q177 0 177 -380v-472q0 -158 -133 -158
q-104 0 -172 66q-16 -66 -97 -66q-100 0 -100 100t100 100q29 0 50 -9v181z" />
    <glyph glyph-name="uAA76" unicode="&#xaa76;" horiz-adv-x="810" 
d="M418 -270q0 30 -50 30t-50 -30t50 -30t50 30zM418 2q-18 -2 -38 -2q-33 0 -45 15q-8 10 -8 28q0 8 1 17q5 30 18 35t34 5q210 0 210 160t-210 160t-210 -160v-432q0 -198 -118 -198h-83q-119 0 -119 129t119 129h42q41 0 41 -50t-41 -50h-42q-69 0 -69 -29t69 -29h83
q68 0 68 98v509q0 83 -95 83t-95 -61q0 -22 -25 -22t-25 22q0 161 145 161q106 0 134 -97q62 97 221 97q260 0 260 -260q0 -211 -172 -251v-240q68 -39 169 -39q83 0 83 58v472q0 280 -127 280q-175 0 -175 175t175 175q144 0 167 -130v-4q0 -16 -22 -21q-7 -2 -13 -2
q-13 0 -17 11q-14 46 -115 46q-125 0 -125 -75t125 -75q177 0 177 -380v-472q0 -158 -133 -158q-104 0 -172 66q-16 -66 -97 -66q-100 0 -100 100t100 100q29 0 50 -9v181z" />
    <glyph glyph-name="uAA77" unicode="&#xaa77;" 
d="M434 -15l94 -186q6 -12 16 -12q6 0 13 4l27 14q8 4 15 4q21 0 37 -33q10 -20 10 -34q0 -18 -16 -26l-28 -14q-15 -8 -30 -8q-47 0 -89 82l-93 184l-22 -10h-7q-7 0 -12 2v-202q0 -20 22 -20h31q33 0 33 -50t-33 -50h-31q-72 0 -72 120v205q0 25 25 25q4 0 8 -1
q-2 6 -4 14q-3 14 -3 24v5q1 10 3 15q6 11 18 13q164 12 164 210q0 160 -210 160t-210 -160q0 -14 74 -35q115 -33 115 -128q0 -48 -36 -72.5t-72 -24.5q-45 0 -122 40q-9 5 -9 16q0 10 8 25q12 26 25 26q4 0 7 -2q48 -25 89 -25q60 0 60 17t-79 40q-110 32 -110 123
q0 260 260 260t260 -260q0 -189 -126 -275zM300 790q-125 0 -125 -75t124 -97q41 -8 41 -43t-40 -35q-175 0 -175 175t175 175t175 -163q0 -15 -25 -15t-25 15q0 63 -125 63z" />
    <glyph glyph-name="uAA78" unicode="&#xaa78;" horiz-adv-x="740" 
d="M40 458l40 35q70 -65 70 -200q0 -131 -66 -196l-38 37q54 52 54 159q0 112 -60 165zM507 103l12 -12l-35 -91q-52 60 -164 60q-107 0 -159 -54l-37 88q65 66 196 66q86 0 144 -29l113 348q30 91 97 91q19 0 41 -7q49 -16 65 -53l-47 -26q-7 23 -34 31q-11 4 -20 4
q-36 0 -54 -56zM484 590l35 -90q-65 -70 -199 -70q-131 0 -196 66l37 88q52 -54 159 -54q112 0 164 60z" />
    <glyph glyph-name="uAA79" unicode="&#xaa79;" 
d="M332 -21q-2 6 -4 14q-3 14 -3 24v5q1 10 3 15q6 11 18 13q164 12 164 210q0 160 -210 160t-210 -160q0 -14 74 -35q115 -33 115 -128q0 -48 -36 -72.5t-72 -24.5q-45 0 -122 40q-9 5 -9 16q0 10 8 25q12 26 25 26q4 0 7 -2q48 -25 89 -25q60 0 60 17t-79 40
q-110 32 -110 123q0 260 260 260t260 -260q0 -233 -192 -310h-7q-7 0 -12 2v-202q0 -20 22 -20h31q33 0 33 -50t-33 -50h-31q-72 0 -72 120v205q0 25 25 25q4 0 8 -1z" />
    <glyph glyph-name="uAA7A" unicode="&#xaa7a;" horiz-adv-x="1150" 
d="M665 -192q0 -178 -168 -178h-288q-169 0 -169 178v814q0 178 169 178h313q118 0 118 90h50q0 -190 -168 -190h-313q-119 0 -119 -78v-814q0 -78 119 -78h288q118 0 118 78v452q0 160 -185 160q-210 0 -210 -160t210 -160q21 0 34 -5t18 -35q1 -9 1 -17q0 -18 -8 -28
q-12 -15 -45 -15q-260 0 -260 260t260 260q235 0 235 -260q0 -160 185 -160q210 0 210 160t-210 160q-21 0 -34 5t-18 35q-1 9 -1 17q0 18 8 28q12 15 45 15q260 0 260 -260t-260 -260q-127 0 -185 75v-267z" />
    <glyph glyph-name="uAA7B" unicode="&#xaa7b;" horiz-adv-x="280" 
d="M140 70q50 0 50 30t-50 30t-50 -30t50 -30zM40 100q0 100 100 100t100 -100t-100 -100q-24 0 -42 6q22 -82 109 -107l-16 -48q-151 42 -151 217v32z" />
    <glyph glyph-name="u1039_1000" horiz-adv-x="0" 
d="M-300 -58q44 38 125 38q175 0 175 -175t-175 -175q-15 0 -30 2q-13 2 -13 36v15q3 47 41 47h2q125 0 125 75t-125 75q-51 0 -82 -12q7 -28 7 -63q0 -159 -96 -175h-6q-28 0 -40 43q-4 16 -4 27q0 22 17 23q79 4 79 82q0 75 -125 75t-125 -75q0 -78 79 -82q17 -1 17 -23
q0 -11 -4 -27q-12 -43 -40 -43h-6q-96 16 -96 175q0 175 175 175q81 0 125 -38z" />
    <glyph glyph-name="u1039_1001" horiz-adv-x="0" 
d="M-300 -370q-161 0 -161 85q0 43 50 71.5t105 28.5q84 0 121 -47q10 16 10 37q0 75 -125 75q-105 0 -125 -43q-7 -15 -25 -15q-25 0 -25 15q0 143 175 143t175 -175t-175 -175zM-306 -235q-50 0 -76 -26q34 -9 82 -9q42 0 71 9q-25 26 -77 26z" />
    <glyph glyph-name="u1039_1002" horiz-adv-x="1" 
d="M-300 -20q175 0 175 -175q0 -159 -96 -175h-6q-28 0 -40 43q-4 16 -4 27q0 22 17 23q79 4 79 82q0 75 -125 75t-125 -75q0 -78 79 -82q17 -1 17 -23q0 -11 -4 -27q-12 -43 -40 -43h-6q-96 16 -96 175q0 175 175 175z" />
    <glyph glyph-name="u1039_1003" horiz-adv-x="0" 
d="M-550 -215q0 -55 125 -55t125 75q0 78 -79 82q-17 1 -17 23q0 11 4 27q12 43 40 43h6q96 -16 96 -175q0 -35 -7 -63q31 -12 82 -12q125 0 125 75t-125 75h-2q-38 0 -41 47v15q0 34 13 36q15 2 30 2q175 0 175 -175t-175 -175q-81 0 -125 38q-44 -38 -125 -38
q-175 0 -175 175q0 36 70 58q39 13 39 22q0 15 -30 15t-47 -7q-4 -2 -8 -2q-12 0 -20 18q-4 28 -4 34q0 13 15 23q22 14 62 14t61 -14.5t21 -72.5q0 -65 -75 -88q-34 -11 -34 -20z" />
    <glyph glyph-name="u1039_1004" horiz-adv-x="1" 
d="M-425 -195q0 -75 125 -75q115 0 125 28q5 15 25 15q25 0 25 -15q0 -128 -175 -128t-175 175t175 175t175 -128q0 -15 -25 -15q-20 0 -25 15q-10 28 -125 28q-125 0 -125 -75z" />
    <glyph glyph-name="u1039_1005" horiz-adv-x="1" 
d="M-318 -270h18q125 0 125 75t-125 75h-18q16 -29 16 -75t-16 -75zM-380 -132q-45 -18 -45 -63t45 -63q28 15 28 63t-28 63zM-300 -20q175 0 175 -175t-175 -175t-175 175t175 175z" />
    <glyph glyph-name="u1039_1006" horiz-adv-x="0" 
d="M-431 -235q-50 0 -76 -26q34 -9 82 -9q42 0 71 9q-25 26 -77 26zM-257 -257q31 -13 82 -13q125 0 125 75t-125 75q-52 0 -82 -13q7 -27 7 -62t-7 -62zM-300 -58q44 38 125 38q175 0 175 -175t-175 -175q-81 0 -125 38q-44 -38 -125 -38q-161 0 -161 85q0 43 50 71.5
t105 28.5q84 0 121 -47q10 16 10 37q0 75 -125 75q-105 0 -125 -43q-7 -15 -25 -15q-25 0 -25 15q0 143 175 143q82 0 125 -38z" />
    <glyph glyph-name="u1039_1007" horiz-adv-x="1" 
d="M-273 -120h-27q-125 0 -125 -75t125 -75q115 0 125 28q5 15 25 15q25 0 25 -15q0 -128 -175 -128t-175 175t175 175q168 0 175 -119q26 -26 54 -30q24 -3 24 -23v-5q-3 -22 -26 -22q-4 0 -8 1q-32 4 -69 32q-17 -19 -54 -19q-70 0 -70 70q0 8 1 15zM-179 -135
q0 25 -25 25t-25 -25t25 -25t25 25z" />
    <glyph glyph-name="u1039_1008" horiz-adv-x="130" 
d="M-380 -132q-45 -18 -45 -63t45 -63q28 15 28 63t-28 63zM-130 -249q22 -21 78 -21q92 0 92 60v695q0 35 25 35t25 -35v-695q0 -160 -142 -160q-78 0 -113 47q-44 -47 -135 -47q-175 0 -175 175t175 175t175 -175q0 -29 -5 -54zM-318 -270h18q125 0 125 75t-125 75h-18
q16 -29 16 -75t-16 -75z" />
    <glyph glyph-name="u1039_100B" horiz-adv-x="0" 
d="M-175 -327q-44 -23 -125 -23q-137 1 -165 36q-5 6 -5 14q0 9 5 20q5 12 15 12q9 0 21 -10q26 -21 129 -22q107 0 156 43h19v-63h60q20 0 20 -25t-18 -25h-66q-46 0 -46 22v21zM-425 -148q0 -56 125 -56q115 0 125 21q5 11 25 11q25 0 25 -11q0 -94 -175 -94t-175 129
q0 128 175 128t175 -94q0 -11 -25 -11q-20 0 -25 11q-10 21 -125 21q-125 0 -125 -55z" />
    <glyph glyph-name="u1039_100C" horiz-adv-x="0" 
d="M-489 -370q-108 0 -108 144v63q0 143 99 143t99 -143v-36q0 -17 -25 -17t-25 17v36q0 43 -49 43t-49 -43v-63q0 -44 58 -44h144q-7 32 -7 75q0 175 175 175t175 -175q0 -159 -96 -175h-6q-28 0 -40 43q-4 16 -4 27q0 22 17 23q79 4 79 82q0 75 -125 75t-125 -75
q0 -78 79 -82q17 -1 17 -23q0 -11 -4 -27q-12 -43 -40 -43h-239z" />
    <glyph glyph-name="u1039_100F" horiz-adv-x="0" 
d="M-261 -76q-11 6 -39 6t-39 -6q27 -43 27 -119q0 -70 -22 -113q12 -12 34 -12t34 12q-22 43 -22 113q0 76 27 119zM-554 -195q0 -78 73 -82q16 -1 16 -23q0 -11 -4 -27q-11 -43 -37 -43h-5q-89 16 -89 175q0 175 144 175q50 0 82 -21q22 21 74 21t74 -21q32 21 82 21
q144 0 144 -175q0 -159 -89 -175h-5q-26 0 -37 43q-4 16 -4 27q0 22 16 23q73 4 73 82q0 75 -98 75t-98 -75q0 -45 11 -75q9 -19 21 -32q-6 -30 -24 -46q-24 -22 -66 -22t-66 22q-18 16 -24 46q12 13 21 32q11 30 11 75q0 75 -98 75t-98 -75z" />
    <glyph glyph-name="u1039_1010" horiz-adv-x="0" 
d="M-425 -120q-125 0 -125 -75t125 -75t125 75t-125 75zM-300 -58q44 38 125 38q175 0 175 -175t-175 -175q-15 0 -30 2q-13 2 -13 36v15q3 47 41 47h2q125 0 125 75t-125 75q-52 0 -82 -13q7 -28 7 -62q0 -175 -175 -175t-175 175t175 175q81 0 125 -38z" />
    <glyph glyph-name="u1039_1011" horiz-adv-x="0" 
d="M-425 -120q-125 0 -125 -75t125 -75t125 75t-125 75zM-257 -257q30 -13 82 -13q125 0 125 75t-125 75q-51 0 -82 -13q7 -27 7 -62t-7 -62zM-300 -58q44 38 125 38q175 0 175 -175t-175 -175q-81 0 -125 38q-44 -38 -125 -38q-175 0 -175 175t175 175q81 0 125 -38z" />
    <glyph glyph-name="u1039_1012" horiz-adv-x="0" 
d="M-169 -195q44 -25 44 -55q0 -120 -175 -120t-175 105q0 15 25 15t25 -15t125 -15t125 30t-102 30q-23 0 -23 25t23 25q102 0 102 30t-125 30t-125 -15t-25 -15t-25 15q0 105 175 105t175 -100q0 -50 -44 -75z" />
    <glyph glyph-name="u1039_1013" horiz-adv-x="1" 
d="M-180 -229q5 15 5 34q0 75 -125 75t-125 -75q0 -20 5 -35q38 45 120 45q83 0 120 -44zM-385 -272q31 -18 85 -18t85 18q-24 37 -85 37t-85 -37zM-300 -20q175 0 175 -175t-175 -175t-175 175t175 175z" />
    <glyph glyph-name="u1039_1014" horiz-adv-x="0" 
d="M-333 -280q0 39 -68 39q-24 0 -24 -18q0 -17 92 -21zM-283 -280q108 4 108 18q0 32 -116.5 65.5t-116.5 89.5q0 87 101 87q115 0 115 -92q0 -12 -25 -12t-25 7t-65 7q-41 0 -41 -7q0 -10 111.5 -43.5t111.5 -101.5q0 -108 -175 -108t-175 111q0 67 74 67q118 0 118 -88z
" />
    <glyph glyph-name="u1039_1015" horiz-adv-x="1" 
d="M-475 -195q0 159 96 175h6q28 0 40 -43q4 -16 4 -27q0 -22 -17 -23q-79 -4 -79 -82q0 -75 125 -75t125 75q0 78 -79 82q-17 1 -17 23q0 11 4 27q12 43 40 43h6q96 -16 96 -175q0 -175 -175 -175t-175 175z" />
    <glyph glyph-name="u1039_1016" horiz-adv-x="1" 
d="M-205 -250q30 19 30 55q0 75 -73 82q-2 -15 -2 -32q0 -75 45 -105zM-264 -268q-36 43 -36 123q0 48 19.5 86.5t59.5 38.5q96 -16 96 -175q0 -175 -175 -175t-175 175q0 159 96 175h6q28 0 40 -43q4 -16 4 -27q0 -22 -17 -23q-79 -4 -79 -82q0 -75 125 -75q20 0 36 2z" />
    <glyph glyph-name="u1039_1017" horiz-adv-x="1" 
d="M-371 -117q-54 -13 -54 -78q0 -75 125 -75t125 75q0 64 -54 78q-24 -21 -71 -21q-46 0 -71 21zM-330 -82q12 -6 30 -6t30 6q0 9 3 19q12 43 40 43h6q96 -16 96 -175q0 -175 -175 -175t-175 175q0 159 96 175h6q28 0 40 -43q3 -10 3 -19z" />
    <glyph glyph-name="u1039_1018" horiz-adv-x="0" 
d="M-300 -58q44 38 125 38q175 0 175 -175t-175 -175q-15 0 -30 2q-13 2 -13 36v15q3 47 41 47h2q125 0 125 75t-125 75q-52 0 -82 -13q7 -27 7 -62q0 -175 -175 -175t-175 128q0 15 25 15q20 0 25 -15q10 -28 125 -28q125 0 125 75t-125 75q-115 0 -125 -28q-5 -15 -25 -15
q-25 0 -25 15q0 128 175 128q82 0 125 -38z" />
    <glyph glyph-name="u1039_1019" horiz-adv-x="1" 
d="M-369 -262q28 -8 69 -8t69 8q-9 45 -69 45t-69 -45zM-415 -232q35 65 115 65t115 -65q10 16 10 37q0 78 -79 82q-17 1 -17 23q0 11 4 27q12 43 40 43h6q96 -16 96 -175q0 -175 -175 -175t-175 175q0 159 96 175h6q28 0 40 -43q4 -16 4 -27q0 -22 -17 -23q-79 -4 -79 -82
q0 -21 10 -37z" />
    <glyph glyph-name="u1039_101C" horiz-adv-x="0" 
d="M-323 -195q0 75 -115 75q-116 0 -116 -75t116 -75h1q35 0 38 -47v-15q0 -34 -12 -36q-14 -2 -27 -2q-162 0 -162 175t162 175q161 0 161 -175q0 -75 115 -75q116 0 116 75t-116 75h-1q-35 0 -38 47v15q0 34 12 36q14 2 27 2q162 0 162 -175t-162 -175q-161 0 -161 175z
" />
    <glyph glyph-name="u1039_101D" horiz-adv-x="1" 
d="M-300 -120q-125 0 -125 -75t125 -75t125 75t-125 75zM-300 -20q175 0 175 -175t-175 -175t-175 175t175 175z" />
    <glyph glyph-name="u1039_101D_103E" horiz-adv-x="1" 
d="M-300 -120q-125 0 -125 -75t125 -75t125 75t-125 75zM-475 -200v5q0 175 175 175t175 -175t-175 -175q-121 0 -158 83l-48 -57q-22 -26 -47 -26q-23 0 -47 22l-25 23q-16 13 -16 31q0 12 7 25q9 19 23 19q11 0 26 -13l32 -29z" />
    <glyph glyph-name="u103C_big" horiz-adv-x="130" 
d="M942 890q168 0 168 -178v-86q0 -26 -25 -26t-25 26v86q0 78 -118 78h-733q-119 0 -119 -78v-904q0 -78 119 -78h733q118 0 118 78v266q0 26 25 26t25 -26v-266q0 -178 -168 -178h-733q-169 0 -169 178v904q0 178 169 178h733z" />
    <glyph glyph-name="u102F_long" horiz-adv-x="130" 
d="M65 520q25 0 25 -25v-745q0 -20 22 -20h31q33 0 33 -50t-33 -50h-31q-72 0 -72 120v745q0 25 25 25z" />
    <glyph glyph-name="u1030_long" horiz-adv-x="240" 
d="M175 520q25 0 25 -25v-745q0 -20 22 -20h31q33 0 33 -50t-33 -50h-31q-72 0 -72 120v745q0 25 25 25zM90 -345q0 -25 -25 -25t-25 25v840q0 25 25 25t25 -25v-840z" />
    <glyph glyph-name="u103C_1" horiz-adv-x="130" 
d="M90 -192q0 -78 119 -78v-100q-169 0 -169 178v904q0 178 169 178h313q168 0 168 -178v-86q0 -26 -25 -26t-25 26v86q0 78 -118 78h-313q-119 0 -119 -78v-904z" />
    <glyph glyph-name="u103C_2" horiz-adv-x="130" 
d="M40 712q0 178 169 178v-100q-119 0 -119 -78v-904q0 -78 119 -78h313q118 0 118 78v266q0 26 25 26t25 -26v-266q0 -178 -168 -178h-313q-169 0 -169 178v904z" />
    <glyph glyph-name="u103C_3" horiz-adv-x="130" 
d="M209 -370q-169 0 -169 178v904q0 178 169 178v-100q-119 0 -119 -78v-904q0 -78 119 -78v-100z" />
    <glyph glyph-name="u103C_big_1" horiz-adv-x="130" 
d="M90 -192q0 -78 119 -78h567v-100h-567q-169 0 -169 178v904q0 178 169 178h733q168 0 168 -178v-86q0 -26 -25 -26t-25 26v86q0 78 -118 78h-733q-119 0 -119 -78v-904z" />
    <glyph glyph-name="u103C_big_2" horiz-adv-x="130" 
d="M40 712q0 178 169 178h367v-100h-367q-119 0 -119 -78v-904q0 -78 119 -78h733q118 0 118 78v266q0 26 25 26t25 -26v-266q0 -178 -168 -178h-733q-169 0 -169 178v904z" />
    <glyph glyph-name="u103C_big_3" horiz-adv-x="130" 
d="M576 790h-367q-119 0 -119 -78v-904q0 -78 119 -78h367v-100h-367q-169 0 -169 178v904q0 178 169 178h367v-100z" />
    <glyph glyph-name="u100B_1039_100B" 
d="M510 -68q-89 -32 -210 -32q-157 0 -260 53v158l37 18q77 -69 223 -69q134 0 210 58v74q-65 -72 -210 -72q-260 0 -260 200t260 200q236 0 260 -141v-2q0 -12 -24 -18q-7 -2 -13 -2q-13 0 -15 10q-24 53 -208 53q-210 0 -210 -100t210 -100q184 0 208 53q2 10 15 10
q6 0 13 -2q24 -6 24 -18v-172q-90 -81 -260 -81q-127 0 -210 46v-69q86 -37 210 -37q162 0 260 64v-233q0 -51 50 -51q30 0 30 -50t-30 -50q-100 0 -100 120v182zM365 -339q-44 -17 -125 -17q-137 1 -165 26q-5 5 -5 10q0 7 5 15t15 8q9 0 21 -7q26 -15 129 -16
q107 0 156 31h19v-45h60q20 0 20 -18t-18 -18h-66q-46 0 -46 16v15zM115 -210q0 -40 125 -40q115 0 125 15q5 8 25 8q25 0 25 -8q0 -68 -175 -68t-175 93q0 92 175 92t175 -68q0 -8 -25 -8q-20 0 -25 8q-10 15 -125 15q-125 0 -125 -39z" />
    <glyph glyph-name="u100A_alt" horiz-adv-x="1020" 
d="M90 72v-264q0 -78 119 -78h302v-100h-302q-169 0 -169 178v385q0 12 24 18q7 2 13 2q13 0 15 -10q24 -103 208 -103q210 0 210 160t-210 160q-184 0 -208 -103q-2 -10 -15 -10q-6 0 -13 2q-24 6 -24 18v2q24 191 260 191q260 0 260 -260q0 -59 -14 -105q51 -55 174 -55
q210 0 210 160t-210 160q-21 0 -34 5t-18 35q-1 9 -1 17q0 18 8 28q12 15 45 15q260 0 260 -260t-260 -260q-146 0 -210 82q-64 -82 -210 -82q-145 0 -210 72z" />
    <glyph glyph-name="u1014_alt" 
d="M274 100q-10 100 -124 100q-60 0 -60 -50q0 -47 184 -50zM324 100q186 4 186 60q0 48 -79 69l-135 36q-156 42 -156 115q0 140 150 140q170 0 170 -135q0 -15 -22 -15t-28 10q-20 40 -120 40t-100 -40q0 -34 119 -66l135 -36q116 -32 116 -118q0 -160 -260 -160t-260 150
q0 100 110 100q164 0 174 -150z" />
    <glyph glyph-name="u101B_alt" 
d="M109 178q44 -78 191 -78q15 0 18 4v2q0 5 -14 20q-18 18 -41 30q-47 24 -118 24q-19 0 -36 -2zM510 260q0 160 -210 160t-210 -160q0 -17 2 -33q25 3 53 3q103 0 165 -41q31 -20 52 -51q21 -30 21 -55q0 -33 -25 -58t-58 -25q-260 0 -260 260t260 260t260 -260v-485
q0 -25 -25 -25t-25 25v485z" />
    <glyph glyph-name="u1025_alt" 
d="M90 72v-264q0 -78 118 -78v-100q-168 0 -168 178v385q0 12 24 18q7 2 13 2q13 0 15 -10q24 -103 208 -103q210 0 210 160t-210 160q-184 0 -208 -103q-2 -10 -15 -10q-6 0 -13 2q-24 6 -24 18v2q24 191 260 191q260 0 260 -260t-260 -260q-145 0 -210 72z" />
    <glyph glyph-name="u1037_alt" horiz-adv-x="0" 
d="M-100 -20q100 0 100 -100t-100 -100t-100 100t100 100zM-50 -120q0 30 -50 30t-50 -30t50 -30t50 30z" />
    <glyph glyph-name="u103B_alt" horiz-adv-x="130" 
d="M-195 -210h50q0 -60 93 -60q92 0 92 60v695q0 35 25 35t25 -35v-695q0 -160 -142 -160q-143 0 -143 160z" />
    <glyph glyph-name="u103E_alt" horiz-adv-x="0" 
d="M-325 -205l127 161q8 10 16 11t18 -7t12 -17q0 -8 -7 -18l-127 -161q-47 -59 -86 -63q-24 -3 -45 13l-25 20q-10 7 -11 18q-2 17 16 41q20 24 36 26q11 1 22 -7l24 -20q9 -7 17 -6q7 1 13 9z" />
    <glyph glyph-name="u1037_alt2" horiz-adv-x="0" 
d="M50 -20q100 0 100 -100t-100 -100t-100 100t100 100zM100 -120q0 30 -50 30t-50 -30t50 -30t50 30z" />
    <glyph glyph-name="u100B_1039_100C" 
d="M560 -192q0 -178 -168 -178h-233q-119 0 -119 114q0 94 119 94h141q32 0 32 -25t-32 -25h-141q-49 0 -49 -24q0 -34 49 -34h233q118 0 118 78v128q-83 -46 -210 -46q-170 0 -260 81q0 20 15 31q6 4 13 4q10 0 22 -8q76 -58 210 -58q146 0 223 69l37 -18v-183zM300 520
q236 0 260 -191v-2q0 -12 -24 -18q-7 -2 -13 -2q-13 0 -15 10q-24 103 -208 103q-210 0 -210 -160t210 -160q184 0 208 103q2 10 15 10q6 0 13 -2q24 -6 24 -18v-2q-24 -191 -260 -191q-260 0 -260 260t260 260z" />
    <glyph glyph-name="u25CC" unicode="&#x25cc;" horiz-adv-x="595" 
d="M479 418q0 -24 -24 -24q-25 0 -25 24q0 25 25 25q24 0 24 -25zM406 466q0 -24 -23 -24q-25 0 -25 24q0 25 25 25q23 0 23 -25zM527 346q0 -25 -25 -25q-24 0 -24 25q0 24 25 24q24 0 24 -24zM545 261q0 -24 -24 -24q-25 0 -25 24t25 24q24 0 24 -24zM321 484
q0 -25 -24 -25t-24 25q0 24 24 24t24 -24zM237 466q0 -24 -25 -24q-24 0 -24 24q0 25 24 25q25 0 25 -25zM527 176q0 -24 -25 -24q-24 0 -24 24q0 25 24 25q25 0 25 -25zM165 418q0 -24 -25 -24q-24 0 -24 23q0 26 24 26q25 0 25 -25zM479 103q0 -24 -24 -24q-25 0 -25 24
q0 25 25 25q24 0 24 -25zM406 55q0 -23 -23 -23q-25 0 -25 23q0 25 25 25q23 0 23 -25zM116 346q0 -25 -23 -25q-25 0 -25 25q0 24 24 24t24 -24zM99 261q0 -24 -24 -24q-25 0 -25 24t25 24q24 0 24 -24zM321 39q0 -25 -24 -25t-24 25q0 24 24 24t24 -24zM116 176
q0 -24 -24 -24t-24 24q0 25 24 25t24 -25zM237 57q0 -25 -25 -25q-24 0 -24 23q0 25 24 25q25 0 25 -23zM165 103q0 -24 -25 -24q-24 0 -24 24q0 25 24 25q25 0 25 -25z" />
    <glyph glyph-name="u103E_short" horiz-adv-x="0" 
d="M-325 -130v85q0 25 25 25t25 -25v-85q0 -120 -72 -120h-31q-33 0 -33 50t33 50h31q22 0 22 20z" />
  </font>
</defs>
</svg>
