<?xml version="1.0" standalone="no"?>
<!DOCTYPE svg PUBLIC "-//W3C//DTD SVG 1.1//EN" "http://www.w3.org/Graphics/SVG/1.1/DTD/svg11.dtd" >
<svg xmlns="http://www.w3.org/2000/svg" xmlns:xlink="http://www.w3.org/1999/xlink" version="1.1">
<metadata>
Created by FontForge 20150318 at Sat Mar 21 13:14:37 2015
 By uniteet7
Copyright 2014 Google Inc. All Rights Reserved.
</metadata>
<defs>
<font id="MyanmarSansProRegular" horiz-adv-x="550" >
  <font-face 
    font-family="MyanmarSansProRegular"
    font-weight="400"
    font-stretch="normal"
    units-per-em="1000"
    panose-1="2 0 5 0 0 0 0 0 0 0"
    ascent="750"
    descent="-250"
    bbox="-573 -294 1898 979"
    underline-thickness="150"
    underline-position="-142"
    unicode-range="U+0020-AA7B"
  />
<missing-glyph 
d="M50 0v520h450v-520h-450zM77 18h396v484h-396v-484zM173 416q17 10 32 16q28 11 61 11q50 0 80.5 -17.5t30.5 -46.5q0 -17 -12.5 -35t-47.5 -47q-34 -29 -54 -48t-20 -36q0 -14 13 -48h-17q-19 35 -19 53q0 28 44.5 79.5t44.5 78.5q0 21 -18 33t-50 12q-21 0 -38 -7
q-14 -5 -30 -14v16zM208 121l31 21q6 4 11 4t12 -4l30 -22q5 -4 5 -7q0 -4 -5 -8l-31 -23q-7 -5 -11 -5q-6 0 -11 4l-33 26q-4 3 -4 6q0 4 6 8z" />
    <glyph glyph-name="u103E_102F" unicode="&#x103e;&#x102f;" horiz-adv-x="0" 
d="M-241 -30h82v-177h70v-66h-152v243zM-309 -273h-152v66h70v177h82v-243z" />
    <glyph glyph-name="u1085_1036" unicode="&#x1085;&#x1036;" horiz-adv-x="0" 
d="M-400 671q0 -35 129 -35v-66q-205 0 -205 101q0 50 47 74q-47 24 -47 74q0 101 205 101v-66q-129 0 -129 -35q0 -42 105 -52v-44q-105 -10 -105 -52zM-164 836q91 0 91 -91t-91 -91t-91 91t91 91zM-134 745q0 30 -30 30t-30 -30t30 -30t30 30z" />
    <glyph glyph-name="u1085_102D" unicode="&#x1085;&#x102d;" horiz-adv-x="0" 
d="M-427 671q0 -35 99 -35v-66q-175 0 -175 101q0 50 47 74q-47 24 -47 74q0 101 175 101v-66q-99 0 -99 -35q0 -42 75 -52v-44q-75 -10 -75 -52zM-172 920q125 0 125 -175t-125 -175t-125 175t125 175zM-113 745q0 109 -59 109t-59 -109t59 -109t59 109z" />
    <glyph glyph-name="u1085_102E" unicode="&#x1085;&#x102e;" horiz-adv-x="0" 
d="M-226 690q13 -54 54 -54t53 52q-24 9 -55 9q-29 0 -52 -7zM-113 749q-1 105 -59 105t-59 -104q27 6 57 6q33 0 61 -7zM-427 671q0 -35 99 -35v-66q-175 0 -175 101q0 50 47 74q-47 24 -47 74q0 101 175 101v-66q-99 0 -99 -35q0 -42 75 -52v-44q-75 -10 -75 -52z
M-172 920q125 0 125 -175t-125 -175t-125 175t125 175z" />
    <glyph glyph-name="u102D_1036" unicode="&#x102d;&#x1036;" horiz-adv-x="0" 
d="M-240 745q0 -175 -129.5 -175t-129.5 175t129.5 175t129.5 -175zM-301 745q0 109 -68.5 109t-68.5 -109t68.5 -109t68.5 109zM-133 836q84 0 84 -91t-84 -91t-84 91t84 91zM-105 745q0 30 -28 30t-28 -30t28 -30t28 30z" />
    <glyph glyph-name="u100D_1039_100D" unicode="&#x100d;&#x1039;&#x100d;" 
d="M70 -148l53 20q20 -28 86 -28q94 0 94 46q0 47 -94 47q-66 0 -86 -29l-53 21q30 53 139 53q151 0 151 -92q0 -91 -151 -91q-63 0 -100 18v-23q49 -22 104 -22q91 0 140 46h14v-49q0 -11 22 -11h11v-31h-11q-61 0 -61 32v4q-48 -22 -115 -22q-90 0 -143 38v73zM500 -207
h50v-66h-132v292q-61 -19 -143 -19q-144 0 -225 59v147l78 21q31 -72 137 -72q153 0 153 150q0 149 -153 149q-106 0 -137 -70l-78 20q47 116 215 116q235 0 235 -215q0 -214 -235 -214q-80 0 -133 24v-40q58 -25 143 -25q97 0 158 41l67 -25v-273z" />
    <glyph glyph-name="u100E_1039_100D" unicode="&#x100e;&#x1039;&#x100d;" horiz-adv-x="649" 
d="M439 15q-50 -15 -115 -15q-275 0 -275 260q0 78 111 117q37 14 37 39q0 6 -2 13q-8 23 -30 23q-12 0 -28 -7l-63 -24l-25 60l63 26q33 13 59 13q60 0 85 -67q9 -24 9 -45q0 -62 -81 -94q-53 -20 -53 -54q0 -194 193 -194q70 0 115 26v24q-48 -21 -115 -21q-98 0 -155 43
l9 31q66 -44 146 -44q91 0 140 45h14v-45q39 48 39 135q0 164 -90 196l27 64q145 -42 145 -260q0 -172 -121 -231v-88q0 -11 22 -11h11v-33h-11q-61 0 -61 34v84zM320 287q-66 0 -86 -28l-53 20q30 52 139 52q151 0 151 -90t-151 -90q-109 0 -139 52l53 21q20 -28 86 -28
q94 0 94 45q0 46 -94 46z" />
    <glyph glyph-name="u100F_100D" unicode="&#x100f;&#x1039;&#x100d;" horiz-adv-x="1080" 
d="M580 260q0 96 30 156q-14 38 -70 38t-70 -38q30 -60 30 -156q0 -62 -12 -110q-9 -23 -9 -40q0 -44 61 -44t61 44q0 17 -9 40q-12 48 -12 110zM881 9l-23 55q90 32 90 196q0 194 -143 194t-143 -194q0 -62 4 -87l1 -12q9 -33 9 -58q0 -103 -136 -103t-136 103q0 25 9 58
l2 12q3 25 3 87q0 194 -143 194t-143 -194q0 -164 90 -196l-27 -64q-145 42 -145 260q0 260 225 260q95 0 150 -47q31 47 115 47t115 -47q55 47 150 47q225 0 225 -260q0 -186 -106 -244h23v-86h-186q23 -25 23 -72q0 -83 -71 -129h-167l-25 44q87 18 87 79q0 78 -194 78
t-194 -78q0 -51 87 -69l-25 -54q-128 26 -128 123q0 135 260 135t260 -135q0 -46 -29 -66h48q31 23 31 72q0 55 -50 90l30 39h177v22z" />
    <glyph glyph-name="u103E_1030" unicode="&#x103e;&#x1030;" horiz-adv-x="0" 
d="M-312 -30h74v-243h-74v243zM-430 -30h75v-243h-135v66h60v177zM-120 -207h60v-66h-135v243h75v-177z" />
    <glyph glyph-name="u102B_103A" unicode="&#x102b;&#x103a;" horiz-adv-x="182" 
d="M225 679q-93 0 -93 -109v-570h-82v570q0 109 -93 109q-109 0 -109 -109h-66q0 175 175 175q90 0 134 -47q44 47 134 47q175 0 175 -175h-66q0 109 -109 109z" />
    <glyph glyph-name="u103D_1037" unicode="&#x103d;&#x1037;" horiz-adv-x="0" 
d="M-179 -148q0 -125 -125 -125t-125 125t125 125t125 -125zM-374 -148q0 -70 70 -70t70 70t-70 70t-70 -70zM-83 -48q80 0 80 -80t-80 -80t-80 80t80 80zM-53 -128q0 30 -30 30t-30 -30t30 -30t30 30z" />
    <glyph glyph-name=".notdef" 
d="M50 0v520h450v-520h-450zM77 18h396v484h-396v-484zM173 416q17 10 32 16q28 11 61 11q50 0 80.5 -17.5t30.5 -46.5q0 -17 -12.5 -35t-47.5 -47q-34 -29 -54 -48t-20 -36q0 -14 13 -48h-17q-19 35 -19 53q0 28 44.5 79.5t44.5 78.5q0 21 -18 33t-50 12q-21 0 -38 -7
q-14 -5 -30 -14v16zM208 121l31 21q6 4 11 4t12 -4l30 -22q5 -4 5 -7q0 -4 -5 -8l-31 -23q-7 -5 -11 -5q-6 0 -11 4l-33 26q-4 3 -4 6q0 4 6 8z" />
    <glyph glyph-name=".null" horiz-adv-x="0" 
 />
    <glyph glyph-name="nonmarkingreturn" horiz-adv-x="508" 
 />
    <glyph glyph-name="space" unicode=" " horiz-adv-x="253" 
 />
    <glyph glyph-name="space" unicode="&#xa0;" horiz-adv-x="253" 
 />
    <glyph glyph-name="u1000" unicode="&#x1000;" horiz-adv-x="883" 
d="M485 378q15 -50 15 -118q0 -218 -145 -260l-27 64q90 32 90 196q0 194 -143 194t-143 -194q0 -164 90 -196l-27 -64q-145 42 -145 260q0 260 225 260q110 0 166 -62q57 62 167 62q225 0 225 -260t-225 -260v66q143 0 143 194t-143 194q-89 0 -123 -76z" />
    <glyph glyph-name="u1001" unicode="&#x1001;" 
d="M408 172q10 37 10 88q0 194 -153 194q-106 0 -137 -87l-78 25q47 128 215 128q235 0 235 -260t-235 -260q-173 0 -215 156q56 82 159 82q37 0 81 -11q76 -19 118 -55zM137 135q37 -69 128 -69q65 0 103 35q-26 45 -94 62q-27 7 -51 7q-52 0 -86 -35z" />
    <glyph glyph-name="u1002" unicode="&#x1002;" 
d="M275 520q225 0 225 -260q0 -218 -145 -260l-27 64q90 32 90 196q0 194 -143 194t-143 -194q0 -164 90 -196l-27 -64q-145 42 -145 260q0 260 225 260z" />
    <glyph glyph-name="u1003" unicode="&#x1003;" horiz-adv-x="883" 
d="M113 507q33 13 59 13q60 0 85 -67q9 -24 9 -45q0 -62 -81 -94q-53 -20 -53 -54q0 -194 143 -194t143 194q0 164 -90 196l27 64q145 -42 145 -260q0 -68 -15 -118q34 -76 123 -76q143 0 143 194t-143 194v66q225 0 225 -260t-225 -260q-110 0 -167 62q-56 -62 -166 -62
q-225 0 -225 260q0 78 111 117q37 14 37 39q0 6 -2 13q-8 23 -30 23q-12 0 -28 -7l-63 -24l-25 60z" />
    <glyph glyph-name="u1004" unicode="&#x1004;" 
d="M285 520q168 0 215 -128l-78 -25q-31 87 -137 87q-153 0 -153 -194t153 -194q106 0 137 87l78 -25q-47 -128 -215 -128q-235 0 -235 260t235 260z" />
    <glyph glyph-name="u1005" unicode="&#x1005;" 
d="M213 78q27 -12 62 -12q143 0 143 194t-143 194q-35 0 -62 -12q82 -55 82 -182t-82 -182zM161 396q-29 -48 -29 -136q0 -87 29 -135q68 40 68 135q0 96 -68 136zM275 520q225 0 225 -260t-225 -260t-225 260t225 260z" />
    <glyph glyph-name="u1006" unicode="&#x1006;" horiz-adv-x="883" 
d="M137 135q37 -69 128 -69q65 0 103 35q-26 45 -94 62q-27 7 -51 7q-52 0 -86 -35zM484 143l1 1q33 -78 123 -78q143 0 143 194t-143 194q-89 0 -123 -76q15 -50 15 -118t-16 -117zM418 260q0 194 -153 194q-106 0 -137 -87l-78 25q47 128 215 128q120 0 176 -62
q57 62 167 62q225 0 225 -260t-225 -260q-112 0 -168 64q-59 -64 -175 -64q-173 0 -215 156q56 82 159 82q37 0 81 -11q76 -19 118 -55q10 37 10 88z" />
    <glyph glyph-name="u1007" unicode="&#x1007;" 
d="M285 0q-235 0 -235 260t235 260q168 0 215 -128q4 -18 4 -40q0 -65 -43 -88q30 -28 66 -28q10 0 21 2v-60q-10 -1 -19 -1q-75 0 -136 75q-89 6 -89 100q0 69 48 91q-29 11 -67 11q-153 0 -153 -194t153 -194q84 0 121 54l69 -40q-57 -80 -190 -80zM404 386q-34 0 -34 -34
t34 -34t34 34t-34 34z" />
    <glyph glyph-name="u1008" unicode="&#x1008;" horiz-adv-x="732" 
d="M213 78q27 -12 62 -12q143 0 143 194t-143 194q-35 0 -62 -12q82 -55 82 -182t-82 -182zM161 396q-29 -48 -29 -136q0 -87 29 -135q68 40 68 135q0 96 -68 136zM275 0q-225 0 -225 260t225 260t225 -260q0 -207 -143 -249v-161q0 -57 61 -57h122q60 0 60 57v670h82v-670
q0 -123 -142 -123h-122q-143 0 -143 123v150z" />
    <glyph glyph-name="u1009" unicode="&#x1009;" 
d="M529 -207q71 0 71 67v90h82v-90q0 -133 -153 -133h-325q-154 0 -154 133v268l78 25q31 -87 137 -87q153 0 153 194t-153 194q-106 0 -137 -87l-78 25q47 128 215 128q235 0 235 -260t-235 -260q-80 0 -133 29v-169q0 -67 72 -67h325z" />
    <glyph glyph-name="u100A" unicode="&#x100a;" horiz-adv-x="883" 
d="M680 -207q71 0 71 67v90h82v-90q0 -133 -153 -133h-476q-154 0 -154 133v268l78 25q31 -87 137 -87q153 0 153 194t-153 194q-106 0 -137 -87l-78 25q47 128 215 128q235 0 235 -260q0 -68 -15 -118q34 -76 123 -76q143 0 143 194t-143 194v66q225 0 225 -260t-225 -260
q-110 0 -167 62q-56 -62 -176 -62q-80 0 -133 29v-169q0 -67 72 -67h476z" />
    <glyph glyph-name="u100B" unicode="&#x100b;" 
d="M500 -207h50v-66h-132v89q-65 -16 -143 -16q-133 0 -225 45v125l67 30q61 -40 158 -40q85 0 143 31v38q-53 -29 -133 -29q-235 0 -235 260t235 260q168 0 215 -128l-78 -25q-31 87 -137 87q-153 0 -153 -194t153 -194q106 0 137 87l78 -25v-157q-81 -71 -225 -71
q-82 0 -143 23v-44q63 -19 143 -19q115 0 194 40l31 -12v-95z" />
    <glyph glyph-name="u100C" unicode="&#x100c;" 
d="M418 29q-53 -29 -133 -29q-235 0 -235 260t235 260q168 0 215 -128l-78 -25q-31 87 -137 87q-153 0 -153 -194t153 -194q106 0 137 87l78 -25v-268q0 -133 -154 -133h-146q-150 0 -150 107q0 106 150 106h62v-66h-62q-68 0 -68 -40q0 -41 68 -41h146q72 0 72 67v169z" />
    <glyph glyph-name="u100D" unicode="&#x100d;" 
d="M418 -87q-61 -23 -143 -23q-144 0 -225 71v167l78 25q31 -87 137 -87q153 0 153 194t-153 194q-106 0 -137 -87l-78 25q47 128 215 128q235 0 235 -260t-235 -260q-80 0 -133 29v-48q58 -31 143 -31q97 0 158 50l67 -30v-177h50v-66h-132v186z" />
    <glyph glyph-name="u100E" unicode="&#x100e;" 
d="M132 260q0 -194 143 -194t143 194q0 164 -90 196l27 64q145 -42 145 -260q0 -260 -225 -260t-225 260q0 78 111 117q37 14 37 39q0 6 -2 13q-8 23 -30 23q-12 0 -28 -7l-63 -24l-25 60l63 26q33 13 59 13q60 0 85 -67q9 -24 9 -45q0 -62 -81 -94q-53 -20 -53 -54z" />
    <glyph glyph-name="u100F" unicode="&#x100f;" horiz-adv-x="1080" 
d="M655 473q55 47 150 47q225 0 225 -260q0 -218 -145 -260l-27 64q90 32 90 196q0 194 -143 194t-143 -194q0 -62 4 -87l1 -12q9 -33 9 -58q0 -103 -136 -103t-136 103q0 25 9 58l2 12q3 25 3 87q0 194 -143 194t-143 -194q0 -164 90 -196l-27 -64q-145 42 -145 260
q0 260 225 260q95 0 150 -47q31 47 115 47t115 -47zM580 260q0 96 30 156q-14 38 -70 38t-70 -38q30 -60 30 -156q0 -62 -12 -110q-9 -23 -9 -40q0 -44 61 -44t61 44q0 17 -9 40q-12 48 -12 110z" />
    <glyph glyph-name="u1010" unicode="&#x1010;" horiz-adv-x="883" 
d="M50 260q0 260 225 260q110 0 166 -62q57 62 167 62q225 0 225 -260t-225 -260v66q143 0 143 194t-143 194q-89 0 -123 -76q15 -50 15 -118q0 -260 -225 -260t-225 260zM418 260q0 194 -143 194t-143 -194t143 -194t143 194z" />
    <glyph glyph-name="u1011" unicode="&#x1011;" horiz-adv-x="883" 
d="M275 0q-225 0 -225 260t225 260q110 0 166 -62q57 62 167 62q225 0 225 -260t-225 -260q-110 0 -167 62q-56 -62 -166 -62zM608 66q143 0 143 194t-143 194q-89 0 -123 -76q15 -50 15 -118t-15 -118q34 -76 123 -76zM418 260q0 194 -143 194t-143 -194t143 -194t143 194z
" />
    <glyph glyph-name="u1012" unicode="&#x1012;" 
d="M50 128l78 25q31 -87 147 -87q143 0 143 84q0 77 -112 77v66q112 0 112 77q0 84 -143 84t-143 -84q0 -34 48 -34v-66q-130 0 -130 100q0 150 225 150t225 -150q0 -74 -60 -110q60 -36 60 -110q0 -150 -225 -150q-178 0 -225 128z" />
    <glyph glyph-name="u1013" unicode="&#x1013;" 
d="M416 221q2 18 2 39q0 194 -143 194t-143 -194q0 -21 2 -40q53 40 141 40t141 -39zM158 130q35 -64 117 -64t117 64q-35 64 -117 64t-117 -64zM275 520q225 0 225 -260t-225 -260t-225 260t225 260z" />
    <glyph glyph-name="u1014" unicode="&#x1014;" 
d="M258 66v34q0 64 -83 64q-43 0 -43 -44q0 -51 126 -54zM340 4v-277h-82v273q-208 5 -208 120q0 110 125 110q165 0 165 -130v-28q78 19 78 88q0 75 -132 111q-176 48 -176 139q0 110 165 110q111 0 165 -87l-68 -43q-35 64 -97 64q-83 0 -83 -44q0 -45 111 -75
q197 -54 197 -175q0 -135 -160 -156z" />
    <glyph glyph-name="u1015" unicode="&#x1015;" 
d="M50 260q0 218 145 260l27 -64q-90 -32 -90 -196q0 -194 143 -194t143 194q0 164 -90 196l27 64q145 -42 145 -260q0 -260 -225 -260t-225 260z" />
    <glyph glyph-name="u1016" unicode="&#x1016;" 
d="M355 520q145 -42 145 -260q0 -260 -225 -260t-225 260q0 218 145 260l27 -64q-90 -32 -90 -196q0 -194 143 -194q95 0 127 86q-40 15 -72 49q-56 58 -56 141q0 102 81 178zM370 429q-30 -37 -30 -87q0 -56 37 -95q18 -19 39 -29q2 20 2 42q0 120 -48 169z" />
    <glyph glyph-name="u1017" unicode="&#x1017;" 
d="M334 470l21 50q145 -42 145 -260q0 -260 -225 -260t-225 260q0 218 145 260l21 -50v-25q0 -49 59 -49t59 49v25zM393 397q-23 -67 -118 -67t-118 67q-25 -50 -25 -137q0 -194 143 -194t143 194q0 87 -25 137z" />
    <glyph glyph-name="u1018" unicode="&#x1018;" horiz-adv-x="883" 
d="M500 260q0 -260 -235 -260q-168 0 -215 128l78 25q31 -87 137 -87q153 0 153 194t-152 194q-106 0 -137 -87l-78 25q47 128 215 128q119 0 175 -62q57 62 167 62q225 0 225 -260t-225 -260v66q143 0 143 194t-143 194q-89 0 -123 -76q15 -50 15 -118z" />
    <glyph glyph-name="u1019" unicode="&#x1019;" 
d="M158 130q35 -64 117 -64t117 64q-35 64 -117 64t-117 -64zM50 260q0 218 145 260l27 -64q-90 -32 -90 -196q0 -21 2 -40q53 40 141 40t141 -39q2 18 2 39q0 164 -90 196l27 64q145 -42 145 -260q0 -260 -225 -260t-225 260z" />
    <glyph glyph-name="u101A" unicode="&#x101a;" horiz-adv-x="883" 
d="M608 66q143 0 143 194t-143 194v66q225 0 225 -260t-225 -260q-110 0 -167 62q-56 -62 -166 -62q-225 0 -225 260q0 218 145 260l27 -64q-90 -32 -90 -196q0 -194 143 -194t143 194q0 164 -90 196l27 64q145 -42 145 -260q0 -68 -15 -118q34 -76 123 -76z" />
    <glyph glyph-name="u101B" unicode="&#x101b;" 
d="M275 0q-225 0 -225 260t225 260t225 -260v-467h50v-66h-132v533q0 194 -143 194q-115 0 -138 -126q24 -4 48 -14q74 -31 107 -107q17 -39 17 -81q0 -60 -34 -126zM233 71q9 32 9 59q0 28 -10 50q-22 52 -72 73q-14 6 -28 9v-2q0 -163 101 -189z" />
    <glyph glyph-name="u101C" unicode="&#x101c;" horiz-adv-x="918" 
d="M868 260q0 -260 -225 -260t-225 260q0 194 -143 194t-143 -194t143 -194v-66q-225 0 -225 260t225 260t225 -260q0 -194 143 -194t143 194t-143 194v66q225 0 225 -260z" />
    <glyph glyph-name="u101D" unicode="&#x101d;" 
d="M275 454q-143 0 -143 -194t143 -194t143 194t-143 194zM275 520q225 0 225 -260t-225 -260t-225 260t225 260z" />
    <glyph glyph-name="u101E" unicode="&#x101e;" horiz-adv-x="883" 
d="M485 142q34 -76 123 -76q143 0 143 194t-143 194v66q225 0 225 -260t-225 -260q-110 0 -167 62q-56 -62 -175 -62q-168 0 -215 128l78 25q31 -87 137 -87q152 0 152 194t-153 194q-106 0 -137 -87l-78 25q47 128 215 128q235 0 235 -260q0 -68 -15 -118z" />
    <glyph glyph-name="u101F" unicode="&#x101f;" horiz-adv-x="883" 
d="M445 462q57 58 163 58q225 0 225 -260t-225 -260v66q143 0 143 194t-143 194q-88 0 -122 -74q14 -52 14 -120q0 -260 -225 -260t-225 260q0 218 145 260l27 -64q-90 -32 -90 -196q0 -194 143 -194t143 194q0 164 -90 196l27 64q56 -16 90 -58z" />
    <glyph glyph-name="u1020" unicode="&#x1020;" 
d="M377 -207q41 0 41 37v40h82v-40q0 -103 -123 -103h-195q-132 0 -132 103v140l67 30q61 -50 158 -50q85 0 143 31v48q-53 -29 -133 -29q-235 0 -235 260t235 260q168 0 215 -128l-78 -25q-31 87 -137 87q-153 0 -153 -194t153 -194q106 0 137 87l78 -25v-167
q-81 -71 -225 -71q-82 0 -143 23v-83q0 -37 50 -37h195z" />
    <glyph glyph-name="u1021" unicode="&#x1021;" horiz-adv-x="883" 
d="M751 260v2q-14 -3 -28 -9q-50 -21 -72 -73q-10 -22 -10 -50q0 -27 9 -59q101 26 101 189zM457 473q55 47 151 47q225 0 225 -260t-225 -260q-34 66 -34 126q0 42 17 81q33 76 107 107q24 10 48 14q-23 126 -138 126q-75 0 -111 -53q3 -14 3 -31q0 -74 -60 -110
q60 -36 60 -110q0 -150 -225 -150q-178 0 -225 128l78 25q31 -87 147 -87q143 0 143 84q0 77 -112 77v66q112 0 112 77q0 84 -143 84t-143 -74q0 -24 48 -24v-66q-130 0 -130 90q0 140 225 140q126 0 182 -47z" />
    <glyph glyph-name="u1022" unicode="&#x1022;" horiz-adv-x="883" 
d="M50 39l25 60l63 -24q16 -7 28 -7q22 0 30 23q2 7 2 13q0 25 -37 39q-111 39 -111 117q0 260 225 260q110 0 166 -62q57 62 167 62q225 0 225 -260t-225 -260v66q143 0 143 194t-143 194q-89 0 -123 -76q15 -50 15 -118q0 -218 -145 -260l-27 64q90 32 90 196
q0 194 -143 194t-143 -194q0 -34 53 -54q81 -32 81 -94q0 -21 -9 -45q-25 -67 -85 -67q-26 0 -59 13z" />
    <glyph glyph-name="u1023" unicode="&#x1023;" horiz-adv-x="883" 
d="M485 378q15 -50 15 -118q0 -218 -145 -260l-27 64q90 32 90 196q0 194 -143 194t-143 -194q0 -164 90 -196l-27 -64q-145 42 -145 260q0 260 225 260q110 0 166 -62q57 62 167 62q225 0 225 -260t-225 -260v66q143 0 143 194t-143 194q-89 0 -123 -76zM622 -273v50
q65 0 65 75t-105 75t-105 -75q0 -104 -100 -125l-24 46q54 15 54 79q0 75 -105 75t-105 -75q0 -64 54 -79l-24 -46q-100 21 -100 125q0 125 175 125q97 0 140 -38q43 38 140 38q175 0 175 -125q0 -46 -18 -75h59l2 -50h-178z" />
    <glyph glyph-name="u1024" unicode="&#x1024;" horiz-adv-x="1065" 
d="M200 -273q-150 0 -150 117q0 116 150 116q201 0 402 -60v-66q-201 60 -402 60q-68 0 -68 -50q0 -51 68 -51h491q60 0 60 57v410q0 194 -143 194q-89 0 -123 -76q15 -50 15 -118q0 -218 -145 -260l-27 64q90 32 90 196q0 194 -143 194t-143 -194q0 -164 90 -196l-27 -64
q-145 42 -145 260q0 260 225 260q110 0 166 -62q57 62 167 62q225 0 225 -260v-410q0 -123 -142 -123h-491zM1015 300v-573h-82v573q0 161 -144 230q-145 70 -145 224q0 225 225 225q153 0 196 -111l-53 -30q-34 75 -143 75q-159 0 -159 -159q0 -113 107 -164
q198 -95 198 -290z" />
    <glyph glyph-name="u1025" unicode="&#x1025;" 
d="M204 -273q-154 0 -154 133v268l78 25q31 -87 137 -87q153 0 153 194t-153 194q-106 0 -137 -87l-78 25q47 128 215 128q235 0 235 -260t-235 -260q-80 0 -133 29v-169q0 -67 72 -67h146q68 0 68 41q0 40 -68 40h-62v66h62q150 0 150 -106q0 -107 -150 -107h-146z" />
    <glyph glyph-name="u1026" unicode="&#x1026;" 
d="M204 -273q-154 0 -154 133v268l78 25q31 -87 137 -87q153 0 153 194t-153 194q-106 0 -137 -87l-78 25q47 128 215 128q235 0 235 -260t-235 -260q-80 0 -133 29v-169q0 -67 72 -67h146q68 0 68 41q0 40 -68 40h-62v66h62q150 0 150 -106q0 -107 -150 -107h-146zM384 735
v10q0 109 -109 109t-109 -109v-11q46 26 109 26t109 -25zM185 673q27 -37 90 -37t90 37q-34 28 -90 28t-90 -28zM275 920q175 0 175 -175t-175 -175t-175 175t175 175z" />
    <glyph glyph-name="u1027" unicode="&#x1027;" 
d="M413 385q-37 69 -128 69q-65 0 -103 -35q26 -45 94 -62q27 -7 51 -7q52 0 86 35zM327 170q-24 0 -51 -7q-68 -17 -94 -62q38 -35 103 -35q91 0 128 69q-34 35 -86 35zM142 172q42 36 118 55q44 11 81 11q103 0 159 -82q-42 -156 -215 -156q-235 0 -235 260t235 260
q173 0 215 -156q-56 -82 -159 -82q-37 0 -81 11q-76 19 -118 55q-10 -37 -10 -88t10 -88z" />
    <glyph glyph-name="u1028" unicode="&#x1028;" 
d="M275 -273q-225 0 -225 260v273q0 260 225 260t225 -260v-70q0 -190 -135 -190t-135 100q0 77 49 100q30 14 30 55q0 34 -34 34t-34 -34h-66q0 100 100 100t100 -100q0 -83 -55 -109q-24 -11 -24 -46q0 -34 69 -34q53 0 53 124v70q0 194 -143 194t-143 -194v-273
q0 -194 143 -194q112 0 136 118l79 -22q-38 -162 -215 -162z" />
    <glyph glyph-name="u1029" unicode="&#x1029;" horiz-adv-x="1065" 
d="M751 2q-82 10 -128 60q-56 -62 -175 -62q-168 0 -215 128l78 25q31 -87 137 -87q152 0 152 194t-153 194q-106 0 -137 -87l-78 25q47 128 215 128q235 0 235 -260q0 -68 -15 -118q34 -76 123 -76q143 0 143 194t-143 194v66q225 0 225 -260q0 -234 -182 -257v-143
q0 -133 -153 -133h-476q-154 0 -154 133v900q0 133 154 133h629v-66h-629q-72 0 -72 -67v-900q0 -67 72 -67h476q71 0 71 67v142z" />
    <glyph glyph-name="u102A" unicode="&#x102a;" horiz-adv-x="1948" 
d="M260 227q44 11 81 11q103 0 159 -82q-42 -156 -215 -156q-235 0 -235 260t235 260q168 0 215 -128l-78 -25q-31 87 -137 87q-153 0 -153 -194q0 -51 10 -88q42 36 118 55zM327 170q-24 0 -51 -7q-68 -17 -94 -62q38 -35 103 -35q91 0 128 69q-34 35 -86 35zM1301 2
q-82 10 -128 60q-56 -62 -175 -62q-168 0 -215 128l78 25q31 -87 137 -87q152 0 152 194t-153 194q-106 0 -137 -87l-78 25q47 128 215 128q235 0 235 -260q0 -68 -15 -118q34 -76 123 -76q143 0 143 194t-143 194v66q110 0 166 -62q57 62 167 62q225 0 225 -260t-225 -260
v66q143 0 143 194t-143 194q-89 0 -123 -76q15 -50 15 -118q0 -234 -182 -257v-143q0 -133 -153 -133h-476q-154 0 -154 133v900q0 133 154 133h679v-66h-679q-72 0 -72 -67v-900q0 -67 72 -67h476q71 0 71 67v142zM1675 854q-109 0 -109 -109t109 -109v-66q-175 0 -175 175
t175 175q128 0 162 -93l-62 -28q-23 55 -100 55z" />
    <glyph glyph-name="u102B" unicode="&#x102b;" horiz-adv-x="182" 
d="M132 0h-82v670q0 109 -93 109q-109 0 -109 -109h-66q0 175 175 175t175 -175v-670z" />
    <glyph glyph-name="u102C" unicode="&#x102c;" horiz-adv-x="333" 
d="M-65 378l-44 80q57 62 167 62q225 0 225 -260t-225 -260v66q143 0 143 194t-143 194q-89 0 -123 -76z" />
    <glyph glyph-name="u102D" unicode="&#x102d;" horiz-adv-x="0" 
d="M-275 920q175 0 175 -175t-175 -175t-175 175t175 175zM-166 745q0 109 -109 109t-109 -109t109 -109t109 109z" />
    <glyph glyph-name="u102E" unicode="&#x102e;" horiz-adv-x="0" 
d="M-166 735v10q0 109 -109 109t-109 -109v-11q46 26 109 26t109 -25zM-365 673q27 -37 90 -37t90 37q-34 28 -90 28t-90 -28zM-275 920q175 0 175 -175t-175 -175t-175 175t175 175z" />
    <glyph glyph-name="u102F" unicode="&#x102f;" horiz-adv-x="0" 
d="M-234 -30v-177h70v-66h-152v243h82z" />
    <glyph glyph-name="u1030" unicode="&#x1030;" horiz-adv-x="0" 
d="M-381 -30h82v-243h-82v243zM-169 -207h70v-66h-152v243h82v-177z" />
    <glyph glyph-name="u1031" unicode="&#x1031;" 
d="M260 227q44 11 81 11q103 0 159 -82q-42 -156 -215 -156q-235 0 -235 260t235 260q168 0 215 -128l-78 -25q-31 87 -137 87q-153 0 -153 -194q0 -51 10 -88q42 36 118 55zM327 170q-24 0 -51 -7q-68 -17 -94 -62q38 -35 103 -35q91 0 128 69q-34 35 -86 35z" />
    <glyph glyph-name="u1032" unicode="&#x1032;" horiz-adv-x="0" 
d="M-403 920l303 -303l-47 -47l-303 302z" />
    <glyph glyph-name="u1033" unicode="&#x1033;" horiz-adv-x="0" 
d="M-275 820q75 0 75 -75t-75 -75t-75 75t75 75zM-250 745q0 25 -25 25t-25 -25t25 -25t25 25zM-275 920q175 0 175 -175t-175 -175t-175 175t175 175zM-160 745q0 115 -115 115t-115 -115t115 -115t115 115z" />
    <glyph glyph-name="u1034" unicode="&#x1034;" horiz-adv-x="0" 
d="M-100 872l-303 -302l-47 47l303 303z" />
    <glyph glyph-name="u1035" unicode="&#x1035;" horiz-adv-x="0" 
d="M-100 734q-5 -164 -175 -164q-175 0 -175 175t175 175q96 0 140 -53l-59 -39q-27 26 -81 26q-109 0 -109 -109q0 -39 14 -64q38 81 157 81q62 0 102 -22zM-313 640q17 -4 38 -4q78 0 100 56q-17 4 -38 4q-78 0 -100 -56z" />
    <glyph glyph-name="u1036" unicode="&#x1036;" horiz-adv-x="0" 
d="M-275 732q91 0 91 -91t-91 -91t-91 91t91 91zM-245 641q0 30 -30 30t-30 -30t30 -30t30 30z" />
    <glyph glyph-name="u1037" unicode="&#x1037;" horiz-adv-x="0" 
d="M-275 -30q91 0 91 -91t-91 -91t-91 91t91 91zM-245 -121q0 30 -30 30t-30 -30t30 -30t30 30z" />
    <glyph glyph-name="u1038" unicode="&#x1038;" horiz-adv-x="282" 
d="M141 500q91 0 91 -91t-91 -91t-91 91t91 91zM171 409q0 30 -30 30t-30 -30t30 -30t30 30zM141 202q91 0 91 -91t-91 -91t-91 91t91 91zM171 111q0 30 -30 30t-30 -30t30 -30t30 30z" />
    <glyph glyph-name="u1039" unicode="&#x1039;" horiz-adv-x="0" 
d="M-308 -168h-82v66h82v82h66v-82h82v-66h-82v-82h-66v82z" />
    <glyph glyph-name="u103A" unicode="&#x103a;" horiz-adv-x="0" 
d="M-212 854q-109 0 -109 -109t109 -109v-66q-175 0 -175 175t175 175q128 0 162 -93l-62 -28q-23 55 -100 55z" />
    <glyph glyph-name="u103B" unicode="&#x103b;" horiz-adv-x="182" 
d="M-182 -180v150h82v-111l150 -58v719h82v-793h-77z" />
    <glyph glyph-name="u103C" unicode="&#x103c;" horiz-adv-x="182" 
d="M204 -273q-154 0 -154 133v900q0 133 154 133h325q153 0 153 -133v-110h-82v110q0 67 -71 67h-325q-72 0 -72 -67v-900q0 -67 72 -67h325q71 0 71 67v240h82v-240q0 -133 -153 -133h-325z" />
    <glyph glyph-name="u103D" unicode="&#x103d;" horiz-adv-x="0" 
d="M-129 -148q0 -125 -145 -125t-145 125t145 125t145 -125zM-364 -148q0 -70 90 -70t90 70t-90 70t-90 -70z" />
    <glyph glyph-name="u103E" unicode="&#x103e;" horiz-adv-x="0" 
d="M-234 -273h-152v66h70v177h82v-243z" />
    <glyph glyph-name="u103F" unicode="&#x103f;" horiz-adv-x="1216" 
d="M751 260q0 194 -143 194v66q225 0 225 -260q0 -68 -15 -118q34 -76 123 -76q143 0 143 194t-143 194v66q225 0 225 -260t-225 -260q-110 0 -167 62q-56 -62 -166 -62t-167 62q-56 -62 -175 -62q-168 0 -215 128l78 25q31 -87 137 -87q152 0 152 194t-153 194
q-106 0 -137 -87l-78 25q47 128 215 128q235 0 235 -260q0 -68 -15 -118q34 -76 123 -76q143 0 143 194z" />
    <glyph glyph-name="u1040" unicode="&#x1040;" 
d="M275 454q-143 0 -143 -194t143 -194t143 194t-143 194zM275 520q225 0 225 -260t-225 -260t-225 260t225 260z" />
    <glyph glyph-name="u1041" unicode="&#x1041;" 
d="M500 260q0 -260 -235 -260q-168 0 -215 128l78 25q31 -87 137 -87q153 0 153 194t-153 194q-106 0 -137 -87l-78 25q47 128 215 128q235 0 235 -260z" />
    <glyph glyph-name="u1042" unicode="&#x1042;" horiz-adv-x="410" 
d="M360 -50q0 -175 -175 -175t-175 175h66q0 -109 109 -109q93 0 93 109v570h82v-570z" />
    <glyph glyph-name="u1043" unicode="&#x1043;" 
d="M119 37q-47 32 -69 91l78 25q31 -87 137 -87q153 0 153 194t-153 194q-106 0 -137 -87l-78 25q47 128 215 128q235 0 235 -260t-235 -260q-16 0 -32 1l191 -232l-51 -42z" />
    <glyph glyph-name="u1044" unicode="&#x1044;" 
d="M177 -273l-51 42l191 232q-16 -1 -32 -1q-235 0 -235 260t235 260q168 0 215 -128l-78 -25q-31 87 -137 87q-153 0 -153 -194t153 -194q106 0 137 87l78 -25q-22 -59 -69 -91z" />
    <glyph glyph-name="u1045" unicode="&#x1045;" 
d="M50 320q0 200 225 200t225 -260v-273q0 -260 -225 -260q-177 0 -215 162l79 22q24 -118 136 -118q143 0 143 194v273q0 194 -143 194q-81 0 -116 -43h2q91 0 91 -91t-91 -91q-111 0 -111 91zM191 320q0 30 -30 30t-30 -30t30 -30t30 30z" />
    <glyph glyph-name="u1046" unicode="&#x1046;" 
d="M490 631l-79 -22q-24 118 -136 118q-143 0 -143 -194v-273q0 -194 143 -194t143 194q0 40 -89 63.5t-89 96.5q0 100 100 100t100 -100h-66q0 34 -34 34t-34 -34q0 -31 97 -54.5t97 -105.5q0 -260 -225 -260t-225 260v273q0 260 225 260q177 0 215 -162z" />
    <glyph glyph-name="u1047" unicode="&#x1047;" 
d="M418 300q0 154 -143 154t-143 -184q0 -88 21 -136l-73 -36q-30 63 -30 172q0 250 225 250t225 -220q0 -168 -203 -300q-85 -55 -85 -138q0 -69 63 -69t63 69h82q0 -135 -145 -135t-145 135q0 127 122 207q166 108 166 231z" />
    <glyph glyph-name="u1048" unicode="&#x1048;" 
d="M195 0q-145 42 -145 260q0 260 225 260t225 -260q0 -218 -145 -260l-27 64q90 32 90 196q0 194 -143 194q-95 0 -127 -86q40 -15 72 -49q56 -58 56 -141q0 -102 -81 -178zM180 91q30 37 30 87q0 56 -37 95q-18 19 -39 29q-2 -20 -2 -42q0 -120 48 -169z" />
    <glyph glyph-name="u1049" unicode="&#x1049;" 
d="M275 -273q-225 0 -225 260v273q0 260 225 260t225 -260q0 -82 -97 -105.5t-97 -54.5q0 -34 34 -34t34 34h66q0 -100 -100 -100t-100 100q0 73 89 96.5t89 63.5q0 194 -143 194t-143 -194v-273q0 -194 143 -194q112 0 136 118l79 -22q-38 -162 -215 -162z" />
    <glyph glyph-name="u104A" unicode="&#x104a;" horiz-adv-x="182" 
d="M132 520v-520h-82v520h82z" />
    <glyph glyph-name="u104B" unicode="&#x104b;" horiz-adv-x="332" 
d="M282 520v-520h-82v520h82zM132 520v-520h-82v520h82z" />
    <glyph glyph-name="u104C" unicode="&#x104c;" 
d="M368 -207q50 0 50 37v83q-61 -23 -143 -23q-144 0 -225 71v167l78 25q31 -87 137 -87q153 0 153 194t-153 194q-106 0 -137 -87l-78 25q47 128 215 128q235 0 235 -260t-235 -260q-80 0 -133 29v-48q58 -31 143 -31q97 0 158 50l67 -30v-140q0 -103 -132 -103h-195
q-123 0 -123 103v40h82v-40q0 -37 41 -37h195zM318 854q-109 0 -109 -109t109 -109v-66q-175 0 -175 175t175 175q128 0 162 -93l-62 -28q-23 55 -100 55z" />
    <glyph glyph-name="u104D" unicode="&#x104d;" horiz-adv-x="715" 
d="M233 71q9 32 9 59q0 28 -10 50q-22 52 -72 73q-14 6 -28 9v-2q0 -163 101 -189zM275 0q-225 0 -225 260t225 260t225 -260v-407h-82v407q0 194 -143 194q-115 0 -138 -126q24 -4 48 -14q74 -31 107 -107q17 -39 17 -81q0 -60 -34 -126zM665 -140q0 -133 -154 -133h-311
q-150 0 -150 107q0 106 150 106h62v-66h-62q-68 0 -68 -40q0 -41 68 -41h311q72 0 72 67v440q0 161 -144 230q-145 70 -145 224q0 225 225 225q153 0 196 -111l-53 -30q-34 75 -143 75q-159 0 -159 -159q0 -113 107 -164q198 -95 198 -290v-440z" />
    <glyph glyph-name="u104E" unicode="&#x104e;" 
d="M418 29q-53 -29 -133 -29q-235 0 -235 260t235 260q168 0 215 -128l-78 -25q-31 87 -137 87q-153 0 -153 -194t153 -194q106 0 137 87l78 -25v-401h-82v302z" />
    <glyph glyph-name="u104F" unicode="&#x104f;" horiz-adv-x="875" 
d="M743 345q0 146 -144 215q-145 70 -145 194q0 225 225 225q153 0 196 -111l-53 -30q-34 75 -143 75q-159 0 -159 -159q0 -83 107 -134q198 -95 198 -275v-345h-82v345zM413 385q-37 69 -128 69q-65 0 -103 -35q26 -45 94 -62q27 -7 51 -7q52 0 86 35zM327 170
q-24 0 -51 -7q-68 -17 -94 -62q38 -35 103 -35q91 0 128 69q-34 35 -86 35zM418 486q35 34 99 34q145 0 145 -175v-345h-82v345q0 109 -71 109q-26 0 -43 -15q22 -31 34 -75q-56 -82 -159 -82q-37 0 -81 11q-76 19 -118 55q-10 -37 -10 -88t10 -88q42 36 118 55q44 11 81 11
q103 0 159 -82q-42 -156 -215 -156q-235 0 -235 260t235 260q80 0 133 -34z" />
    <glyph glyph-name="u1050" unicode="&#x1050;" 
d="M275 520q225 0 225 -260q0 -218 -145 -260l-27 64q90 32 90 196q0 194 -143 194t-143 -194q0 -164 90 -196l-27 -64q-145 42 -145 260q0 260 225 260zM275 310q50 0 50 -50t-50 -50t-50 50t50 50z" />
    <glyph glyph-name="u1051" unicode="&#x1051;" 
d="M50 260q0 218 145 260l27 -64q-90 -32 -90 -196q0 -194 143 -194t143 194q0 164 -90 196l27 64q145 -42 145 -260q0 -260 -225 -260t-225 260zM225 260q0 50 50 50t50 -50t-50 -50t-50 50z" />
    <glyph glyph-name="u1052" unicode="&#x1052;" 
d="M365 314q-81 32 -81 94q0 21 9 45q25 67 85 67q26 0 59 -13l63 -26l-25 -60l-63 24q-16 7 -28 7q-22 0 -30 -23q-2 -7 -2 -13q0 -25 37 -39q111 -39 111 -117q0 -260 -225 -260t-225 260q0 218 145 260l27 -64q-90 -32 -90 -196q0 -194 143 -194t143 194q0 34 -53 54z
" />
    <glyph glyph-name="u1053" unicode="&#x1053;" 
d="M418 260q0 41 -33 54q-81 32 -81 94q0 21 9 45q25 67 85 67q26 0 59 -13l43 -18l-24 -61l-44 17q-16 7 -28 7q-22 0 -30 -23q-2 -7 -2 -13q0 -25 37 -39q91 -35 91 -117q0 -260 -225 -260t-225 260q0 82 91 117q37 14 37 39q0 6 -2 13q-8 23 -30 23q-12 0 -28 -7l-44 -17
l-24 61l43 18q33 13 59 13q60 0 85 -67q9 -24 9 -45q0 -62 -81 -94q-33 -13 -33 -54q0 -194 143 -194t143 194z" />
    <glyph glyph-name="u1054" unicode="&#x1054;" 
d="M142 348q-10 -37 -10 -88q0 -194 153 -194q106 0 137 87l78 -25q-47 -128 -215 -128q-235 0 -235 260t235 260q173 0 215 -156q-56 -82 -159 -82q-37 0 -81 11q-76 19 -118 55zM413 385q-37 69 -128 69q-65 0 -103 -35q26 -45 94 -62q27 -7 51 -7q52 0 86 35z" />
    <glyph glyph-name="u1055" unicode="&#x1055;" 
d="M413 385q-37 69 -128 69q-65 0 -103 -35q26 -45 94 -62q27 -7 51 -7q52 0 86 35zM50 260q0 260 235 260q173 0 215 -156q-56 -82 -159 -82q-37 0 -81 11q-76 19 -118 55q-10 -37 -10 -88q0 -194 68 -194q48 0 62 114h70q0 -114 40 -114q39 0 50 127l78 -15
q-27 -178 -128 -178q-53 0 -81 49q-34 -49 -91 -49q-150 0 -150 260z" />
    <glyph glyph-name="u1056" unicode="&#x1056;" horiz-adv-x="368" 
d="M183 314q-81 32 -81 94q0 21 9 45q25 67 85 67q26 0 59 -13l63 -26l-25 -60l-63 24q-16 7 -28 7q-22 0 -30 -23q-2 -7 -2 -13q0 -25 37 -39q111 -39 111 -117q0 -260 -225 -260t-225 260h82q0 -194 143 -194t143 194q0 34 -53 54z" />
    <glyph glyph-name="u1057" unicode="&#x1057;" horiz-adv-x="368" 
d="M236 260q0 34 -53 54q-81 32 -81 94q0 21 9 45q25 67 85 67q26 0 59 -13l63 -26l-25 -60l-63 24q-16 7 -28 7q-22 0 -30 -23q-2 -7 -2 -13q0 -25 37 -39q111 -39 111 -117q0 -260 -150 -260q-57 0 -91 49q-28 -49 -81 -49q-101 0 -128 178l78 15q11 -127 50 -127
q40 0 40 114h70q14 -114 62 -114q68 0 68 194z" />
    <glyph glyph-name="u1058" unicode="&#x1058;" horiz-adv-x="0" 
d="M-251 -160q-84 0 -123 37q-3 -11 -3 -25q0 -75 105 -75q80 0 119 44l41 -32q-37 -62 -160 -62q-175 0 -175 125t175 125q145 0 170 -86q-56 -51 -149 -51zM-332 -82q23 -38 81 -38q41 0 64 24q-26 23 -85 23q-36 0 -60 -9z" />
    <glyph glyph-name="u1059" unicode="&#x1059;" horiz-adv-x="0" 
d="M-332 -82q23 -38 81 -38q41 0 64 24q-26 23 -85 23q-36 0 -60 -9zM-447 -148q0 125 175 125q145 0 170 -86q-56 -51 -149 -51q-84 0 -123 37q-3 -11 -3 -25q0 -75 55 -75q20 0 39 35h46q10 -35 45 -35q40 0 49 44l41 -12q-7 -82 -90 -82q-44 0 -65 39q-22 -39 -65 -39
q-125 0 -125 125z" />
    <glyph glyph-name="u105A" unicode="&#x105a;" 
d="M285 520q168 0 215 -128l-78 -25q-31 87 -137 87q-153 0 -153 -194t153 -194q106 0 137 87l78 -25q-47 -128 -215 -128q-235 0 -235 260t235 260zM308 -92q0 17 -33 17t-33 -17h-82q0 78 115 78t115 -78q0 -39 -49 -66.5t-49 -41.5q0 -17 33 -17h33v-56h-33
q-115 0 -115 73q0 37 49 66t49 42z" />
    <glyph glyph-name="u105B" unicode="&#x105b;" horiz-adv-x="732" 
d="M404 386q-34 0 -34 -34t34 -34t34 34t-34 34zM357 7v-157q0 -57 61 -57h122q60 0 60 57v344q-36 -17 -71 -17q-75 0 -136 75q-89 6 -89 100q0 69 48 91q-29 11 -67 11q-153 0 -153 -194t153 -194q84 0 121 54l69 -40q-40 -56 -118 -73zM275 0q-225 6 -225 260
q0 260 235 260q168 0 215 -128q4 -18 4 -40q0 -65 -43 -88q30 -28 66 -28t73 18v266h82v-670q0 -123 -142 -123h-122q-143 0 -143 123v150z" />
    <glyph glyph-name="u105C" unicode="&#x105c;" 
d="M275 349q-38 0 -38 -89t38 -89t38 89t-38 89zM275 520q225 0 225 -260t-225 -260t-225 260t225 260zM275 454q-143 0 -143 -194t143 -194t143 194t-143 194zM368 260q0 -144 -93 -144t-93 144t93 144t93 -144z" />
    <glyph glyph-name="u105D" unicode="&#x105d;" 
d="M158 130q35 -64 117 -64t117 64q-35 64 -117 64t-117 -64zM330 4q-26 -4 -55 -4q-225 0 -225 260q0 218 145 260l27 -64q-90 -32 -90 -196q0 -21 2 -40q53 40 141 40t141 -39q2 18 2 39q0 164 -90 196l27 64q145 -42 145 -260q0 -174 -101 -232q31 -31 31 -96v-80
q0 -125 -175 -125t-175 110t115 110t115 -95h-60q0 45 -50 45t-50 -60t105 -60t105 75v80q0 61 -30 72z" />
    <glyph glyph-name="u105E" unicode="&#x105e;" horiz-adv-x="0" 
d="M-245 -53h35v53h70v-58q147 -15 170 -80l-50 -20q-27 37 -120 49v-19q0 -145 -155 -145t-155 110t205 110zM-210 -104q-17 1 -35 1q-135 0 -135 -60t85 -60t85 95v24z" />
    <glyph glyph-name="u105F" unicode="&#x105f;" horiz-adv-x="0" 
d="M-275 -103q-85 0 -85 -60t85 -60t85 65h70q0 -115 -155 -115t-155 110q0 94 114 108v55h82v-103h-41z" />
    <glyph glyph-name="u1060" unicode="&#x1060;" horiz-adv-x="0" 
d="M-318 -207h207v-66h-309l-19 60l206 206l60 -56z" />
    <glyph glyph-name="u1061" unicode="&#x1061;" 
d="M233 71q9 32 9 59q0 28 -10 50q-22 52 -72 73q-14 6 -28 9v-2q0 -163 101 -189zM227 3q-177 26 -177 257q0 260 225 260t225 -260v-533h-82v533q0 194 -143 194q-115 0 -138 -126q24 -4 48 -14q74 -31 107 -107q17 -39 17 -81v-399h-182v66h100v210z" />
    <glyph glyph-name="u1062" unicode="&#x1062;" horiz-adv-x="182" 
d="M132 0h-82v454h-93v66h175v-520z" />
    <glyph glyph-name="u1063" unicode="&#x1063;" 
d="M132 -273h-82v401l78 25q31 -87 137 -87q153 0 153 194t-153 194q-106 0 -137 -87l-78 25q47 128 215 128q235 0 235 -260t-235 -260q-80 0 -133 29v-302z" />
    <glyph glyph-name="u1064" unicode="&#x1064;" horiz-adv-x="182" 
d="M132 66h93v-66h-175v454h-93v66h175v-454z" />
    <glyph glyph-name="u1065" unicode="&#x1065;" 
d="M500 260q0 -260 -235 -260q-168 0 -215 128l78 25q31 -87 137 -87q153 0 153 194t-153 194q-106 0 -137 -87l-78 25q47 128 215 128q235 0 235 -260z" />
    <glyph glyph-name="u1066" unicode="&#x1066;" 
d="M334 5q-27 -5 -59 -5q-225 0 -225 260q0 218 145 260l27 -64q-90 -32 -90 -196q0 -194 143 -194t143 194q0 164 -90 196l27 64q145 -42 145 -260q0 -159 -84 -221v-312h-182v66h100v212z" />
    <glyph glyph-name="u1067" unicode="&#x1067;" horiz-adv-x="182" 
d="M71 91q0 30 -30 30t-30 -30t30 -30t30 30zM50 182v338h82v-429q0 -91 -91 -91t-91 91t91 91h9z" />
    <glyph glyph-name="u1068" unicode="&#x1068;" horiz-adv-x="182" 
d="M132 0h-175v66h93v454h82v-520zM91 752q91 0 91 -91t-91 -91t-91 91t91 91zM121 661q0 30 -30 30t-30 -30t30 -30t30 30z" />
    <glyph glyph-name="u1069" unicode="&#x1069;" horiz-adv-x="312" 
d="M132 133q0 -67 65 -67h65v-66h-65q-147 0 -147 133q0 89 86 153q44 33 44 100q0 68 -65 68h-65v66h65q147 0 147 -134q0 -89 -86 -153q-44 -33 -44 -100z" />
    <glyph glyph-name="u106A" unicode="&#x106a;" horiz-adv-x="182" 
d="M132 145q0 -145 -140 -145t-140 145h66q0 -79 66 -79t66 79v375h82v-375z" />
    <glyph glyph-name="u106B" unicode="&#x106b;" horiz-adv-x="182" 
d="M132 0h-82v375q0 79 -66 79t-66 -79h-66q0 145 140 145t140 -145v-375z" />
    <glyph glyph-name="u106C" unicode="&#x106c;" horiz-adv-x="182" 
d="M50 520h82v-375q0 -79 66 -79t66 79h66q0 -145 -140 -145t-140 145v375z" />
    <glyph glyph-name="u106D" unicode="&#x106d;" horiz-adv-x="312" 
d="M136 233q-86 64 -86 153q0 134 147 134h65v-66h-65q-65 0 -65 -68q0 -67 44 -100q86 -64 86 -153q0 -133 -147 -133h-65v66h65q65 0 65 67t-44 100z" />
    <glyph glyph-name="u106E" unicode="&#x106e;" horiz-adv-x="1053" 
d="M360 508q37 12 85 12q110 0 166 -62q57 62 167 62q225 0 225 -260t-225 -260v66q143 0 143 194t-143 194q-89 0 -123 -76q15 -50 15 -118q0 -218 -145 -260l-27 64q90 32 90 196q0 194 -143 194q55 -65 55 -194q0 -218 -145 -260l-27 64q90 32 90 196q0 194 -143 194
t-143 -194q0 -164 90 -196l-27 -64q-145 42 -145 260q0 260 225 260q48 0 85 -12z" />
    <glyph glyph-name="u106F" unicode="&#x106f;" horiz-adv-x="883" 
d="M694 12q-38 -12 -86 -12v66q143 0 143 194t-143 194q-88 0 -122 -74q14 -52 14 -120q0 -260 -225 -260t-225 260q0 218 145 260l27 -64q-90 -32 -90 -196q0 -194 143 -194t143 194q0 164 -90 196l27 64q56 -16 90 -58q57 58 163 58q225 0 225 -260q0 -131 -57 -196v-337
h-182v66h100v219z" />
    <glyph glyph-name="u1070" unicode="&#x1070;" horiz-adv-x="883" 
d="M694 12q-38 -12 -86 -12q-110 0 -167 62q-56 -62 -166 -62q-225 0 -225 260q0 78 111 117q37 14 37 39q0 6 -2 13q-8 23 -30 23q-12 0 -28 -7l-63 -24l-25 60l63 26q33 13 59 13q60 0 85 -67q9 -24 9 -45q0 -62 -81 -94q-53 -20 -53 -54q0 -194 143 -194t143 194
q0 164 -90 196l27 64q145 -42 145 -260q0 -68 -15 -118q34 -76 123 -76q143 0 143 194t-143 194v66q225 0 225 -260q0 -131 -57 -196v-337h-182v66h100v219z" />
    <glyph glyph-name="u1071" unicode="&#x1071;" horiz-adv-x="0" 
d="M-160 836q91 0 91 -91t-91 -91t-91 91t91 91zM-130 745q0 30 -30 30t-30 -30t30 -30t30 30zM-390 836q91 0 91 -91t-91 -91t-91 91t91 91zM-360 745q0 30 -30 30t-30 -30t30 -30t30 30z" />
    <glyph glyph-name="u1072" unicode="&#x1072;" horiz-adv-x="0" 
d="M-380 745q0 -109 109 -109q84 0 103 65l64 -24q-30 -107 -167 -107q-175 0 -175 175t175 175q137 0 167 -107l-64 -24q-19 65 -103 65q-109 0 -109 -109z" />
    <glyph glyph-name="u1073" unicode="&#x1073;" horiz-adv-x="0" 
d="M-275 842l225 -225l-47 -47l-178 177l-178 -177l-47 47z" />
    <glyph glyph-name="u1074" unicode="&#x1074;" horiz-adv-x="0" 
d="M-275 636q109 0 109 109q0 85 -67 104l27 63q106 -31 106 -167q0 -175 -175 -175t-175 175q0 136 106 167l27 -63q-67 -19 -67 -104q0 -109 109 -109z" />
    <glyph glyph-name="u1075" unicode="&#x1075;" 
d="M185 206q81 -32 81 -94q0 -21 -9 -45q-25 -67 -85 -67q-26 0 -59 13l-63 26l25 60l63 -24q16 -7 28 -7q22 0 30 23q2 7 2 13q0 25 -37 39q-111 39 -111 117q0 260 225 260t225 -260q0 -218 -145 -260l-27 64q90 32 90 196q0 194 -143 194t-143 -194q0 -34 53 -54z" />
    <glyph glyph-name="u1076" unicode="&#x1076;" 
d="M137 135q37 -69 128 -69q65 0 103 35q-26 45 -94 62q-27 7 -51 7q-52 0 -86 -35zM52 398q49 122 213 122q235 0 235 -260t-235 -260q-173 0 -215 156q56 82 159 82q37 0 81 -11q76 -19 118 -55q10 37 10 88q0 194 -153 194q-106 0 -137 -87q-11 -30 -11 -47
q-175 0 -175 125v75h82v-75q0 -33 28 -47z" />
    <glyph glyph-name="u1077" unicode="&#x1077;" 
d="M418 260q0 22 -2 42q-21 -10 -41 -39t-20 -85q0 -50 15 -87q48 49 48 169zM275 520q225 0 225 -260q0 -218 -145 -260q-61 76 -61 178q0 83 34 129t74 61q-32 86 -127 86q-143 0 -143 -194q0 -41 33 -54q81 -32 81 -94q0 -21 -9 -45q-25 -67 -85 -67q-26 0 -59 13l-43 18
l24 61l44 -17q16 -7 28 -7q22 0 30 23q2 7 2 13q0 25 -37 39q-91 35 -91 117q0 260 225 260z" />
    <glyph glyph-name="u1078" unicode="&#x1078;" horiz-adv-x="883" 
d="M608 0q-225 0 -225 260q0 68 15 118q-34 76 -123 76q-143 0 -143 -194t143 -194v-66q-225 0 -225 260t225 260q110 0 167 -62q56 62 166 62q225 0 225 -260t-225 -260zM608 66q143 0 143 194t-143 194t-143 -194t143 -194z" />
    <glyph glyph-name="u1079" unicode="&#x1079;" horiz-adv-x="883" 
d="M608 66q143 0 143 194t-143 194t-143 -194t143 -194zM180 91q30 37 30 87q0 56 -37 95q-18 19 -39 29q-2 -20 -2 -42q0 -120 48 -169zM275 520q110 0 167 -62q56 62 166 62q225 0 225 -260t-225 -260t-225 260q0 68 15 118q-34 76 -123 76q-95 0 -127 -86q40 -15 72 -49
q56 -58 56 -141q0 -102 -81 -178q-145 42 -145 260q0 260 225 260z" />
    <glyph glyph-name="u107A" unicode="&#x107a;" horiz-adv-x="918" 
d="M418 260q0 194 -143 194t-143 -194t143 -194v-66q-225 0 -225 260t225 260t225 -260q0 -194 143 -194t143 194t-143 194v66q225 0 225 -260t-225 -260q-89 0 -143 41v-248h93v-66h-175v533z" />
    <glyph glyph-name="u107B" unicode="&#x107b;" horiz-adv-x="883" 
d="M418 260q0 194 -143 194t-143 -194t143 -194t143 194zM751 260q0 22 -2 42q-21 -10 -39 -29q-37 -39 -37 -95q0 -50 30 -87q48 49 48 169zM833 260q0 -218 -145 -260q-81 76 -81 178q0 83 56 141q32 34 72 49q-32 86 -127 86q-89 0 -123 -76q15 -50 15 -118
q0 -260 -225 -260t-225 260t225 260q110 0 166 -62q57 62 167 62q225 0 225 -260z" />
    <glyph glyph-name="u107C" unicode="&#x107c;" horiz-adv-x="918" 
d="M695 170q-24 0 -51 -7q-68 -17 -94 -62q38 -35 103 -35q91 0 128 69q-34 35 -86 35zM137 135q37 -69 128 -69q65 0 103 35q-26 45 -94 62q-27 7 -51 7q-52 0 -86 -35zM500 260q0 -51 10 -88q42 36 118 55q44 11 81 11q103 0 159 -82q-42 -156 -215 -156q-137 0 -194 88
q-57 -88 -194 -88q-173 0 -215 156q56 82 159 82q37 0 81 -11q76 -19 118 -55q10 37 10 88q0 194 -153 194q-106 0 -137 -87l-78 25q47 128 215 128q137 0 194 -88q57 88 194 88q168 0 215 -128l-78 -25q-31 87 -137 87q-153 0 -153 -194z" />
    <glyph glyph-name="u107D" unicode="&#x107d;" horiz-adv-x="918" 
d="M695 170q-24 0 -51 -7q-68 -17 -94 -62q38 -35 103 -35q91 0 128 69q-34 35 -86 35zM500 260q0 -51 10 -88q42 36 118 55q44 11 81 11q103 0 159 -82q-42 -156 -215 -156q-136 0 -193 87q-55 -87 -185 -87q-225 0 -225 260q0 78 111 117q37 14 37 39q0 6 -2 13
q-8 23 -30 23q-12 0 -28 -7l-63 -24l-25 60l63 26q33 13 59 13q60 0 85 -67q9 -24 9 -45q0 -62 -81 -94q-53 -20 -53 -54q0 -194 143 -194t143 194q0 260 235 260q168 0 215 -128l-78 -25q-31 87 -137 87q-153 0 -153 -194z" />
    <glyph glyph-name="u107E" unicode="&#x107e;" horiz-adv-x="918" 
d="M695 170q-24 0 -51 -7q-68 -17 -94 -62q38 -35 103 -35q91 0 128 69q-34 35 -86 35zM612 2q-104 12 -152 85q-55 -87 -185 -87q-225 0 -225 260q0 78 111 117q37 14 37 39q0 6 -2 13q-8 23 -30 23q-12 0 -28 -7l-63 -24l-25 60l63 26q33 13 59 13q60 0 85 -67
q9 -24 9 -45q0 -62 -81 -94q-53 -20 -53 -54q0 -194 143 -194t143 194q0 260 235 260q168 0 215 -128l-78 -25q-31 87 -137 87q-153 0 -153 -194q0 -51 10 -88q42 36 118 55q44 11 81 11q103 0 159 -82q-37 -137 -174 -154v-275h-182v66h100v209z" />
    <glyph glyph-name="u107F" unicode="&#x107f;" 
d="M276 342q0 -83 -56 -141q-32 -34 -72 -49q32 -86 127 -86q143 0 143 194q0 164 -90 196l27 64q145 -42 145 -260q0 -260 -225 -260t-225 260q0 218 145 260q81 -76 81 -178zM132 260q0 -22 2 -42q21 10 39 29q37 39 37 95q0 50 -30 87q-48 -49 -48 -169z" />
    <glyph glyph-name="u1080" unicode="&#x1080;" horiz-adv-x="918" 
d="M137 135q37 -69 128 -69q65 0 103 35q-26 45 -94 62q-27 7 -51 7q-52 0 -86 -35zM458 87q-57 -87 -193 -87q-173 0 -215 156q56 82 159 82q37 0 81 -11q76 -19 118 -55q10 37 10 88q0 194 -153 194q-106 0 -137 -87l-78 25q47 128 215 128q235 0 235 -260
q0 -194 143 -194t143 194t-143 194v66q225 0 225 -260t-225 -260q-130 0 -185 87z" />
    <glyph glyph-name="u1081" unicode="&#x1081;" 
d="M184 4q-134 46 -134 256q0 260 225 260t225 -260q0 -218 -145 -260l-27 64q90 32 90 196q0 194 -143 194t-143 -194q0 -125 52 -173v63h82v-423h-182v66h100v211z" />
    <glyph glyph-name="u1082" unicode="&#x1082;" horiz-adv-x="0" 
d="M-274 -273q-175 0 -175 125t175 125q64 0 104 -16l-28 -51q-26 17 -76 17q-105 0 -105 -75t105 -75q96 0 104 62l69 -10q-15 -102 -173 -102z" />
    <glyph glyph-name="u1083" unicode="&#x1083;" horiz-adv-x="182" 
d="M50 454h-93v66h175l1 -727h93v-66h-175z" />
    <glyph glyph-name="u1084" unicode="&#x1084;" 
d="M132 150q0 -84 143 -84t143 84h82q0 -150 -225 -150t-225 150q0 74 60 110q-60 36 -60 110q0 150 225 150t225 -150h-82q0 84 -143 84t-143 -84q0 -77 112 -77v-66q-112 0 -112 -77z" />
    <glyph glyph-name="u1085" unicode="&#x1085;" horiz-adv-x="0" 
d="M-374 671q0 -35 99 -35q111 0 111 65h64q0 -131 -175 -131t-175 101q0 50 47 74q-47 24 -47 74q0 101 175 101t175 -131h-64q0 65 -111 65q-99 0 -99 -35q0 -42 75 -52v-44q-75 -10 -75 -52z" />
    <glyph glyph-name="u1086" unicode="&#x1086;" horiz-adv-x="0" 
d="M-245 745q0 30 -30 30t-30 -30t30 -30t30 30zM-184 695q0 -149 -125 -199l-23 57q70 28 84 103q-12 -2 -27 -2q-91 0 -91 91t91 91t91 -91v-50z" />
    <glyph glyph-name="u1087" unicode="&#x1087;" horiz-adv-x="282" 
d="M171 91q0 30 -30 30t-30 -30t30 -30t30 30zM232 41q0 -149 -125 -199l-23 57q70 28 84 103q-12 -2 -27 -2q-91 0 -91 91t91 91t91 -91v-50z" />
    <glyph glyph-name="u1088" unicode="&#x1088;" horiz-adv-x="282" 
d="M171 91q0 30 -30 30t-30 -30t30 -30t30 30zM232 41q0 -149 -125 -199l-23 57q70 28 84 103q-12 -2 -27 -2q-91 0 -91 91t91 91t91 -91v-50zM141 520q91 0 91 -91t-91 -91t-91 91t91 91zM171 429q0 30 -30 30t-30 -30t30 -30t30 30z" />
    <glyph glyph-name="u1089" unicode="&#x1089;" horiz-adv-x="282" 
d="M141 182q91 0 91 -91t-91 -91t-91 91t91 91zM171 91q0 30 -30 30t-30 -30t30 -30t30 30z" />
    <glyph glyph-name="u108A" unicode="&#x108a;" horiz-adv-x="440" 
d="M171 429q0 30 -30 30t-30 -30t30 -30t30 30zM141 336q-91 0 -91 93q0 91 91 91t91 -91q0 -15 -2 -27q75 14 103 84l57 -23q-50 -127 -199 -127h-50zM171 93q0 30 -30 30t-30 -30t30 -30t30 30zM141 0q-91 0 -91 93q0 91 91 91t91 -91q0 -15 -2 -27q75 14 103 84l57 -23
q-50 -127 -199 -127h-50z" />
    <glyph glyph-name="u108B" unicode="&#x108b;" horiz-adv-x="282" 
d="M141 351q91 0 91 -91t-91 -91t-91 91t91 91zM171 260q0 30 -30 30t-30 -30t30 -30t30 30z" />
    <glyph glyph-name="u108C" unicode="&#x108c;" horiz-adv-x="532" 
d="M391 351q91 0 91 -91t-91 -91t-91 91t91 91zM421 260q0 30 -30 30t-30 -30t30 -30t30 30zM141 351q91 0 91 -91t-91 -91t-91 91t91 91zM171 260q0 30 -30 30t-30 -30t30 -30t30 30z" />
    <glyph glyph-name="u108D" unicode="&#x108d;" horiz-adv-x="0" 
d="M-50 -83v-66h-450v66h450z" />
    <glyph glyph-name="u108E" unicode="&#x108e;" 
d="M275 260q-88 0 -141 40q-2 -19 -2 -40q0 -194 143 -194t143 194q0 21 -2 39q-53 -39 -141 -39zM275 326q82 0 117 64q-35 64 -117 64t-117 -64q35 -64 117 -64zM50 260q0 260 225 260t225 -260t-225 -260t-225 260z" />
    <glyph glyph-name="u108F" unicode="&#x108f;" horiz-adv-x="282" 
d="M141 61q30 0 30 30t-30 30t-30 -30t30 -30zM50 91q0 91 91 91t91 -91t-91 -91q-15 0 -27 2q14 -75 84 -103l-23 -57q-125 50 -125 199v50zM141 520q91 0 91 -91t-91 -91t-91 91t91 91zM171 429q0 30 -30 30t-30 -30t30 -30t30 30z" />
    <glyph glyph-name="u1090" unicode="&#x1090;" 
d="M275 454q-143 0 -143 -194t143 -194t143 194t-143 194zM275 520q225 0 225 -260t-225 -260t-225 260t225 260z" />
    <glyph glyph-name="u1091" unicode="&#x1091;" horiz-adv-x="310" 
d="M196 83l74 57l40 -52l-114 -88h-82v437l-74 -57l-40 52l114 88h82v-437z" />
    <glyph glyph-name="u1092" unicode="&#x1092;" 
d="M132 485q54 35 143 35q225 0 225 -220q0 -168 -203 -300q-85 -55 -85 -138h-82q0 127 122 207q166 108 166 231q0 154 -143 154t-143 -154h-82v250h82v-65z" />
    <glyph glyph-name="u1093" unicode="&#x1093;" horiz-adv-x="571" 
d="M300 520h46q175 0 175 -175v-345h-82v345q0 109 -93 109h-70l-164 -454l-62 23l255 706l62 -23z" />
    <glyph glyph-name="u1094" unicode="&#x1094;" horiz-adv-x="531" 
d="M285 479l-173 -479l-62 23l255 706l62 -23v-623l74 57l40 -52l-114 -88h-82v479z" />
    <glyph glyph-name="u1095" unicode="&#x1095;" horiz-adv-x="500" 
d="M368 354h-93q-143 0 -143 -144t118 -144t118 194v94zM450 420h50v-66h-50v-94q0 -260 -200 -260t-200 210t225 210h93v280h82v-280z" />
    <glyph glyph-name="u1096" unicode="&#x1096;" horiz-adv-x="500" 
d="M368 260q0 194 -118 194t-118 -144t143 -144h93v94zM450 -180h-82v280h-93q-225 0 -225 210t200 210t200 -260v-94h50v-66h-50v-280z" />
    <glyph glyph-name="u1097" unicode="&#x1097;" horiz-adv-x="470" 
d="M420 520l-242 -454h242v-66h-370l242 454h-242v66h370z" />
    <glyph glyph-name="u1098" unicode="&#x1098;" 
d="M275 454q-143 0 -143 -194t143 -194t143 194t-143 194zM407 487q93 -60 93 -227q0 -260 -225 -260t-225 260q0 167 93 227q-93 60 -93 227h82q0 -194 143 -194t143 194h82q0 -167 -93 -227z" />
    <glyph glyph-name="u1099" unicode="&#x1099;" 
d="M418 454q0 194 -143 194t-143 -194t143 -194t143 194zM500 0h-82q0 194 -143 194t-143 -194h-82q0 167 93 227q-93 60 -93 227q0 260 225 260t225 -260q0 -167 -93 -227q93 -60 93 -227z" />
    <glyph glyph-name="u109A" unicode="&#x109a;" horiz-adv-x="282" 
d="M141 520q91 0 91 -91t-91 -91t-91 91t91 91zM171 429q0 30 -30 30t-30 -30t30 -30t30 30z" />
    <glyph glyph-name="u109B" unicode="&#x109b;" horiz-adv-x="282" 
d="M171 429q0 30 -30 30t-30 -30t30 -30t30 30zM232 379q0 -149 -125 -199l-23 57q70 28 84 103q-12 -2 -27 -2q-91 0 -91 91t91 91t91 -91v-50z" />
    <glyph glyph-name="u109C" unicode="&#x109c;" horiz-adv-x="440" 
d="M141 121q-30 0 -30 -30t30 -30t30 30t-30 30zM191 184q149 0 199 -127l-57 -23q-28 70 -103 84q2 -12 2 -27q0 -91 -91 -91t-91 91q0 93 91 93h50zM141 457q-30 0 -30 -30t30 -30t30 30t-30 30zM191 520q149 0 199 -127l-57 -23q-28 70 -103 84q2 -12 2 -27
q0 -91 -91 -91t-91 91q0 93 91 93h50z" />
    <glyph glyph-name="u109D" unicode="&#x109d;" horiz-adv-x="0" 
d="M-50 400h-82v170q0 109 -126 109t-126 -79h-66q0 145 200 145t200 -175v-170z" />
    <glyph glyph-name="u109E" unicode="&#x109e;" horiz-adv-x="182" 
d="M50 454h-93v66h175l1 -727h93v-66h-175zM92 762q91 0 91 -91t-91 -91t-91 91t91 91zM122 671q0 30 -30 30t-30 -30t30 -30t30 30z" />
    <glyph glyph-name="u109F" unicode="&#x109f;" horiz-adv-x="715" 
d="M500 -156q0 -51 42 -51q41 0 41 51v456q0 161 -144 230q-145 70 -145 224q0 225 225 225q153 0 196 -111l-53 -30q-34 75 -143 75q-159 0 -159 -159q0 -113 107 -164q198 -95 198 -290v-456q0 -117 -123 -117q-124 0 -124 117v416q0 194 -143 194t-143 -194
q0 -164 90 -196l-27 -64q-145 42 -145 260q0 260 225 260t225 -260v-416z" />
    <glyph glyph-name="u25CC" unicode="&#x25cc;" horiz-adv-x="595" 
d="M479 418q0 -24 -24 -24q-25 0 -25 24q0 25 25 25q24 0 24 -25zM406 466q0 -24 -23 -24q-25 0 -25 24q0 25 25 25q23 0 23 -25zM527 346q0 -25 -25 -25q-24 0 -24 25q0 24 25 24q24 0 24 -24zM545 261q0 -24 -24 -24q-25 0 -25 24t25 24q24 0 24 -24zM321 484
q0 -25 -24 -25t-24 25q0 24 24 24t24 -24zM237 466q0 -24 -25 -24q-24 0 -24 24q0 25 24 25q25 0 25 -25zM527 176q0 -24 -25 -24q-24 0 -24 24q0 25 24 25q25 0 25 -25zM165 418q0 -24 -25 -24q-24 0 -24 23q0 26 24 26q25 0 25 -25zM479 103q0 -24 -24 -24q-25 0 -25 24
q0 25 25 25q24 0 24 -25zM406 55q0 -23 -23 -23q-25 0 -25 23q0 25 25 25q23 0 23 -25zM116 346q0 -25 -23 -25q-25 0 -25 25q0 24 24 24t24 -24zM99 261q0 -24 -24 -24q-25 0 -25 24t25 24q24 0 24 -24zM321 39q0 -25 -24 -25t-24 25q0 24 24 24t24 -24zM116 176
q0 -24 -24 -24t-24 24q0 25 24 25t24 -25zM237 57q0 -25 -25 -25q-24 0 -24 23q0 25 24 25q25 0 25 -23zM165 103q0 -24 -25 -24q-24 0 -24 24q0 25 24 25q25 0 25 -25z" />
    <glyph glyph-name="uAA60" unicode="&#xaa60;" horiz-adv-x="883" 
d="M744 338q-25 116 -136 116q-89 0 -123 -76q15 -50 15 -118q0 -218 -145 -260l-27 64q90 32 90 196q0 194 -143 194t-143 -194q0 -164 90 -196l-27 -64q-145 42 -145 260q0 260 225 260q110 0 166 -62q57 62 167 62q225 0 225 -260t-225 -260q-19 56 -19 99q0 51 20 103
q29 78 77 109q30 19 58 27zM751 273q-17 -5 -37 -19q-29 -21 -48 -73q-12 -33 -12 -79q0 -14 1 -30q96 29 96 188v13z" />
    <glyph glyph-name="uAA61" unicode="&#xaa61;" horiz-adv-x="918" 
d="M643 454q-143 0 -143 -194t143 -194t143 194t-143 194zM418 260q0 194 -143 194t-143 -194q0 -34 53 -54q81 -32 81 -94q0 -21 -9 -45q-25 -67 -85 -67q-26 0 -59 13l-63 26l25 60l63 -24q16 -7 28 -7q22 0 30 23q2 7 2 13q0 25 -37 39q-111 39 -111 117q0 260 225 260
q129 0 184 -85q55 85 184 85q225 0 225 -260t-225 -260q-126 0 -182 82q-36 -62 -106 -82l-27 64q90 32 90 196z" />
    <glyph glyph-name="uAA62" unicode="&#xaa62;" horiz-adv-x="763" 
d="M121 0h-71v520h82v-416l139 136l74 -20q8 -154 143 -154q143 0 143 194t-143 194v66q225 0 225 -260t-225 -260q-177 0 -215 149z" />
    <glyph glyph-name="uAA63" unicode="&#xaa63;" horiz-adv-x="981" 
d="M481 273q-17 -5 -37 -19q-29 -21 -48 -73q-12 -33 -12 -79q0 -14 1 -30q96 29 96 188v13zM706 454q-143 0 -143 -194t143 -194t143 194t-143 194zM522 85q-55 -85 -184 -85q-19 56 -19 99q0 51 20 103q29 78 77 109q30 19 58 27q-25 116 -167 116q-175 0 -175 -194
q0 -34 53 -54q81 -32 81 -94q0 -21 -9 -45q-25 -67 -85 -67q-26 0 -59 13l-63 26l25 60l63 -24q16 -7 28 -7q22 0 30 23q2 7 2 13q0 25 -37 39q-111 39 -111 117q0 260 257 260q150 0 212 -90q55 90 187 90q225 0 225 -260t-225 -260q-129 0 -184 85z" />
    <glyph glyph-name="uAA64" unicode="&#xaa64;" horiz-adv-x="918" 
d="M643 454q-143 0 -143 -194t143 -194t143 194t-143 194zM459 85q-55 -85 -184 -85q-225 0 -225 260q0 218 145 260l27 -64q-90 -32 -90 -196q0 -194 143 -194t143 194q0 164 -90 196l27 64q70 -20 106 -82q56 82 182 82q225 0 225 -260t-225 -260q-129 0 -184 85z" />
    <glyph glyph-name="uAA65" unicode="&#xaa65;" horiz-adv-x="918" 
d="M418 41q-54 -41 -143 -41q-225 0 -225 260t225 260v-66q-143 0 -143 -194t143 -194t143 194q0 260 225 260t225 -260t-225 -260v66q143 0 143 194t-143 194t-143 -194v-533h-175v66h93v248z" />
    <glyph glyph-name="uAA66" unicode="&#xaa66;" horiz-adv-x="883" 
d="M275 310q50 0 50 -50t-50 -50t-50 50t50 50zM50 260q0 260 225 260q110 0 166 -62q57 62 167 62q225 0 225 -260t-225 -260v66q143 0 143 194t-143 194q-89 0 -123 -76q15 -50 15 -118q0 -260 -225 -260t-225 260zM418 260q0 194 -143 194t-143 -194t143 -194t143 194z
" />
    <glyph glyph-name="uAA67" unicode="&#xaa67;" horiz-adv-x="883" 
d="M275 0q-225 0 -225 260t225 260q110 0 166 -62q57 62 167 62q225 0 225 -260t-225 -260q-110 0 -167 62q-56 -62 -166 -62zM608 66q143 0 143 194t-143 194q-89 0 -123 -76q15 -50 15 -118t-15 -118q34 -76 123 -76zM418 260q0 194 -143 194t-143 -194t143 -194t143 194z
M275 310q50 0 50 -50t-50 -50t-50 50t50 50z" />
    <glyph glyph-name="uAA68" unicode="&#xaa68;" horiz-adv-x="883" 
d="M765 276v-4l1 4h-1zM751 273q-17 -5 -37 -19q-29 -21 -48 -73q-12 -33 -12 -79q0 -14 1 -30q96 29 96 188v13zM275 520q110 0 166 -62q57 62 167 62q225 0 225 -260t-225 -260q-19 56 -19 99q0 51 20 103q29 78 77 109q30 19 58 27q-25 116 -136 116q-89 0 -123 -76
q15 -50 15 -118q0 -260 -225 -260t-225 260t225 260zM275 66q143 0 143 194t-143 194t-143 -194t143 -194zM275 310q50 0 50 -50t-50 -50t-50 50t50 50z" />
    <glyph glyph-name="uAA69" unicode="&#xaa69;" horiz-adv-x="883" 
d="M275 310q50 0 50 -50t-50 -50t-50 50t50 50zM496 193q-4 -27 -11 -51q34 -76 123 -76q8 0 15 1q-2 15 -7 32q-17 51 -66 78q-27 14 -54 16zM418 260q0 194 -143 194t-143 -194t143 -194t143 194zM687 87q64 43 64 173q0 194 -143 194q-89 0 -123 -76q15 -50 15 -117
q42 -5 81 -26q73 -39 98 -116q5 -16 8 -32zM275 0q-225 0 -225 260t225 260q110 0 166 -62q57 62 167 62q225 0 225 -260t-225 -260q-110 0 -167 62q-56 -62 -166 -62z" />
    <glyph glyph-name="uAA6A" unicode="&#xaa6a;" horiz-adv-x="883" 
d="M496 193q-4 -27 -11 -51q34 -76 123 -76q8 0 15 1q-2 15 -7 32q-17 51 -66 78q-27 14 -54 16zM418 260q0 194 -143 194t-143 -194t143 -194t143 194zM687 87q64 43 64 173q0 194 -143 194q-89 0 -123 -76q15 -50 15 -117q42 -5 81 -26q73 -39 98 -116q5 -16 8 -32zM275 0
q-225 0 -225 260t225 260q110 0 166 -62q57 62 167 62q225 0 225 -260t-225 -260q-110 0 -167 62q-56 -62 -166 -62z" />
    <glyph glyph-name="uAA6B" unicode="&#xaa6b;" 
d="M180 91q30 37 30 87q0 56 -37 95q-18 19 -39 29q-2 -20 -2 -42q0 -120 48 -169zM78 412q52 108 197 108q225 0 225 -260q0 -218 -145 -260l-27 64q90 32 90 196q0 194 -143 194q-95 0 -127 -86q40 -15 72 -49q56 -58 56 -141q0 -102 -81 -178q-145 42 -145 260q0 47 7 86
q-130 85 -130 174h66q0 -50 85 -108z" />
    <glyph glyph-name="uAA6C" unicode="&#xaa6c;" horiz-adv-x="1080" 
d="M580 260q0 62 12 110q9 23 9 40q0 44 -61 44t-61 -44q0 -17 9 -40q12 -48 12 -110q0 -260 -225 -260t-225 260q0 218 145 260l27 -64q-90 -32 -90 -196q0 -194 143 -194t143 194q0 62 -3 87l-2 12q-9 33 -9 58q0 103 136 103t136 -103q0 -25 -9 -58l-1 -12q-4 -25 -4 -87
q0 -194 143 -194t143 194q0 164 -90 196l27 64q145 -42 145 -260q0 -260 -225 -260t-225 260z" />
    <glyph glyph-name="uAA6D" unicode="&#xaa6d;" 
d="M101 429q0 30 -30 30t-30 -30t30 -30t30 30zM146 489q51 31 129 31q225 0 225 -260t-225 -260v66q143 0 143 194t-143 194q-133 0 -133 -194v-358q0 -175 -175 -175t-175 175h66q0 -109 109 -109q93 0 93 109v437q-80 7 -80 90q0 91 91 91q53 0 75 -31z" />
    <glyph glyph-name="uAA6E" unicode="&#xaa6e;" horiz-adv-x="918" 
d="M275 0q-225 0 -225 260t225 260t225 -260q0 -194 143 -194t143 194t-143 194v66q225 0 225 -260t-225 -260t-225 260q0 194 -143 194q-112 0 -136 -118q33 -8 59 -25q48 -31 77 -109q20 -52 20 -103q0 -43 -20 -99zM132 271v-11q0 -160 97 -188q1 16 1 30q0 46 -12 79
q-19 52 -48 73q-17 12 -38 17z" />
    <glyph glyph-name="uAA6F" unicode="&#xaa6f;" horiz-adv-x="732" 
d="M457 454q-143 0 -143 -194t143 -194t143 194t-143 194zM252 392q47 128 205 128q225 0 225 -260t-225 -260t-225 260q0 29 3 55l-103 101v-416h-82v520h71z" />
    <glyph glyph-name="uAA70" unicode="&#xaa70;" horiz-adv-x="0" 
d="M-275 760q91 0 156 -39l-32 -56q-45 29 -124 29t-124 -29l-32 56q64 39 156 39zM-275 650q91 0 156 -39l-32 -56q-45 29 -124 29t-124 -29l-32 56q64 39 156 39z" />
    <glyph glyph-name="uAA71" unicode="&#xaa71;" horiz-adv-x="883" 
d="M180 91q30 37 30 87q0 56 -37 95q-18 19 -39 29q-2 -20 -2 -42q0 -120 48 -169zM275 520q110 0 166 -62q57 62 167 62q225 0 225 -260t-225 -260v66q143 0 143 194t-143 194q-89 0 -123 -76q15 -50 15 -118q0 -218 -145 -260l-27 64q90 32 90 196q0 194 -143 194
q-95 0 -127 -86q40 -15 72 -49q56 -58 56 -141q0 -102 -81 -178q-145 42 -145 260q0 260 225 260z" />
    <glyph glyph-name="uAA72" unicode="&#xaa72;" horiz-adv-x="1028" 
d="M896 260q0 194 -143 194t-143 -194t143 -194t143 194zM160 114v2q0 35 -45 84q-45 -50 -45 -85q0 -65 45 -65t45 64zM160 223v37q0 260 225 260q129 0 184 -85q55 85 184 85q225 0 225 -260t-225 -260q-126 0 -182 82q-36 -62 -106 -82l-27 64q90 32 90 196
q0 194 -143 194t-143 -194v-145q0 -115 -127 -115q-115 0 -115 115q0 65 115 135q25 -14 45 -27z" />
    <glyph glyph-name="uAA73" unicode="&#xaa73;" horiz-adv-x="763" 
d="M279 237q92 -171 209 -171q143 0 143 194t-143 194v66q225 0 225 -260t-225 -260q-157 0 -267 206l-89 165v-371h-82v520h78z" />
    <glyph glyph-name="uAA74" unicode="&#xaa74;" horiz-adv-x="715" 
d="M283 -182q0 30 -30 30t-30 -30t30 -30t30 30zM344 81q74 39 74 179q0 149 -74 189v-368zM344 -121q109 -86 178 -86q61 0 61 51v456q0 161 -144 230q-145 70 -145 224q0 225 225 225q153 0 196 -111l-53 -30q-34 75 -143 75q-159 0 -159 -159q0 -113 107 -164
q198 -95 198 -290v-456q0 -117 -143 -117q-77 0 -179 70q-10 -70 -90 -70q-91 0 -91 91t91 91q14 0 25 -2v93h-3q-225 0 -225 260q0 218 145 260l27 -64q-90 -32 -90 -196q0 -194 143 -194h3v454h77q145 -42 145 -260q0 -216 -156 -253v-128z" />
    <glyph glyph-name="uAA75" unicode="&#xaa75;" horiz-adv-x="1045" 
d="M613 -182q0 30 -30 30t-30 -30t30 -30t30 30zM608 66q143 0 143 194t-143 194q-89 0 -123 -76q15 -50 15 -118q0 -218 -145 -260l-27 64q90 32 90 196q0 194 -143 194t-143 -194q0 -34 53 -54q81 -32 81 -94q0 -21 -9 -45q-25 -67 -85 -67q-26 0 -59 13l-63 26l25 60
l63 -24q16 -7 28 -7q22 0 30 23q2 7 2 13q0 25 -37 39q-111 39 -111 117q0 260 225 260q110 0 166 -62q57 62 167 62q225 0 225 -260q0 -219 -159 -253v-128q109 -86 178 -86q61 0 61 51v456q0 161 -144 230q-145 70 -145 224q0 225 225 225q153 0 196 -111l-53 -30
q-34 75 -143 75q-159 0 -159 -159q0 -113 107 -164q198 -95 198 -290v-456q0 -117 -143 -117q-77 0 -179 70q-10 -70 -90 -70q-91 0 -91 91t91 91q14 0 25 -2v159z" />
    <glyph glyph-name="uAA76" unicode="&#xaa76;" horiz-adv-x="980" 
d="M548 -182q0 30 -30 30t-30 -30t30 -30t30 30zM543 520q225 0 225 -260q0 -219 -159 -253v-128q109 -86 178 -86q61 0 61 51v456q0 161 -144 230q-145 70 -145 224q0 225 225 225q153 0 196 -111l-53 -30q-34 75 -143 75q-159 0 -159 -159q0 -113 107 -164
q198 -95 198 -290v-456q0 -117 -143 -117q-77 0 -179 70q-10 -70 -90 -70q-91 0 -91 91t91 91q14 0 25 -2v159q143 0 143 194t-143 194t-143 -194v-426q0 -107 -173 -107h-92q-150 0 -150 107q0 106 150 106h62v-66h-62q-68 0 -68 -40q0 -41 68 -41h92q91 0 91 41v511
q0 109 -93 109q-109 0 -109 -109h-66q0 175 175 175q107 0 149 -66q56 66 169 66z" />
    <glyph glyph-name="uAA77" unicode="&#xaa77;" 
d="M312 854q-109 0 -109 -109t109 -109v-66q-175 0 -175 175t175 175q128 0 162 -93l-62 -28q-23 55 -100 55zM393 10l125 -205l85 53l34 -57l-155 -95l-151 247q-21 -17 -45 -34v-126h100v-66h-182v221l30 22q184 140 184 290q0 194 -143 194t-143 -194q0 -34 53 -54
q81 -32 81 -94q0 -21 -9 -45q-25 -67 -85 -67q-26 0 -59 13l-63 26l25 60l63 -24q16 -7 28 -7q22 0 30 23q2 7 2 13q0 25 -37 39q-111 39 -111 117q0 260 225 260t225 -260q0 -136 -107 -250z" />
    <glyph glyph-name="uAA78" unicode="&#xaa78;" horiz-adv-x="797" 
d="M50 375l65 44q57 -65 57 -195t-57 -195l-65 44q40 48 40 151t-40 151zM355 310q-139 0 -192 99l71 40q34 -73 121 -73t121 73l71 -40q-53 -99 -192 -99zM476 0q-34 73 -121 73t-121 -73l-71 40q53 99 192 99q98 0 153 -49l57 224q52 206 208 206q34 0 74 -10l-16 -64
q-22 5 -41 5q-105 0 -145 -158l-75 -293h-94z" />
    <glyph glyph-name="uAA79" unicode="&#xaa79;" 
d="M267 -30q151 135 151 290q0 194 -143 194t-143 -194q0 -34 53 -54q81 -32 81 -94q0 -21 -9 -45q-25 -67 -85 -67q-26 0 -59 13l-63 26l25 60l63 -24q16 -7 28 -7q22 0 30 23q2 7 2 13q0 25 -37 39q-111 39 -111 117q0 260 225 260t225 -260q0 -186 -164 -324v-143h100
v-66h-182v232z" />
    <glyph glyph-name="uAA7A" unicode="&#xaa7a;" horiz-adv-x="1100" 
d="M600 260q0 194 -143 194t-143 -194t143 -194v-66q-225 0 -225 260t225 260t225 -260q0 -194 143 -194t143 194t-143 194v66q225 0 225 -260t-225 -260q-89 0 -143 41v-181q0 -133 -153 -133h-325q-154 0 -154 133v800q0 133 154 133h396v179h82v-179q0 -66 -82 -66h-396
q-72 0 -72 -67v-800q0 -67 72 -67h325q71 0 71 67v400z" />
    <glyph glyph-name="uAA7B" unicode="&#xaa7b;" horiz-adv-x="282" 
d="M141 61q30 0 30 30t-30 30t-30 -30t30 -30zM50 91q0 91 91 91t91 -91t-91 -91q-15 0 -27 2q14 -75 84 -103l-23 -57q-125 50 -125 199v50z" />
    <glyph glyph-name="u1039_1000" horiz-adv-x="0" 
d="M-247 -148q0 -102 -70 -125l-25 52q40 12 40 73q0 70 -70 70t-70 -70q0 -61 40 -73l-25 -52q-70 23 -70 125q0 125 125 125q66 0 97 -35q32 35 98 35q125 0 125 -125t-125 -125v55q70 0 70 70t-70 70t-70 -70z" />
    <glyph glyph-name="u1039_1001" horiz-adv-x="0" 
d="M-195 -197q-20 18 -84 18q-62 0 -82 -16q17 -23 84 -23q65 0 82 21zM-415 -197h-3q25 63 139 63q71 0 97 -15v1q0 70 -95 70q-74 0 -89 -32l-51 20q23 67 140 67q148 0 148 -125t-148 -125q-121 0 -142 74z" />
    <glyph glyph-name="u1039_1002" horiz-adv-x="1" 
d="M-129 -148q0 -102 -70 -125l-25 52q40 12 40 73q0 70 -90 70t-90 -70q0 -61 40 -73l-25 -52q-70 23 -70 125q0 125 145 125t145 -125z" />
    <glyph glyph-name="u1039_1003" horiz-adv-x="0" 
d="M-442 -158q0 -60 70 -60t70 70q0 61 -40 73l25 52q70 -23 70 -125q0 -70 70 -70t70 70t-70 70v55q125 0 125 -125t-125 -125q-66 0 -98 35q-31 -35 -97 -35q-125 0 -125 115q0 38 47 56q21 7 21 19q0 3 -1 6q-2 3 -7 3q-13 0 -46 -17l-14 49q15 19 69 19q34 0 49 -32
q5 -12 5 -22q0 -40 -34 -57.5t-34 -23.5z" />
    <glyph glyph-name="u1039_1004" horiz-adv-x="1" 
d="M-363 -148q0 -70 94 -70q66 0 86 34l53 -25q-30 -64 -139 -64q-151 0 -151 125t151 125q109 0 139 -64l-53 -25q-20 34 -86 34q-94 0 -94 -70z" />
    <glyph glyph-name="u1039_1005" horiz-adv-x="1" 
d="M-339 -94q-25 -17 -25 -54t25 -54q25 17 25 54q0 36 -25 54zM-275 -218h1q90 0 90 70t-90 70h-1q16 -28 16 -70t-16 -70zM-129 -148q0 -125 -145 -125t-145 125t145 125t145 -125z" />
    <glyph glyph-name="u1039_1006" horiz-adv-x="0" 
d="M-166 -78q-70 0 -70 -70t70 -70t70 70t-70 70zM-305 -197q-20 18 -74 18q-52 0 -72 -16q17 -23 74 -23q55 0 72 21zM-265 -65q35 42 99 42q125 0 125 -125t-125 -125q-64 0 -99 42q-36 -42 -112 -42q-111 0 -132 74l4 2h-3q25 63 129 63q61 0 87 -15q0 71 -85 71
q-64 0 -79 -32l-51 20q23 67 130 67q76 0 112 -42z" />
    <glyph glyph-name="u1039_1007" horiz-adv-x="1" 
d="M-183 -88q-14 0 -14 -13t14 -13q15 0 15 13t-15 13zM-363 -148q0 -70 94 -70q66 0 86 34l53 -25q-30 -64 -139 -64q-151 0 -151 125t151 125q115 0 142 -60q2 -8 2 -18q0 -24 -13 -32q16 -12 27 -12q6 0 12 1v-38q-6 -1 -11 -1q-24 0 -79 35q-52 3 -52 47q0 12 8 21
q-17 2 -36 2q-94 0 -94 -70z" />
    <glyph glyph-name="u1039_1008" horiz-adv-x="182" 
d="M-289 -94q-25 -17 -25 -54t25 -54q25 17 25 54q0 36 -25 54zM-225 -218h1q90 0 90 70t-90 70h-1q16 -28 16 -70t-16 -70zM-79 -149l129 -50v719h82v-793h-77l-148 58q-32 -58 -131 -58q-145 0 -145 125t145 125t145 -125v-1z" />
    <glyph glyph-name="u1039_100B" horiz-adv-x="0" 
d="M-421 -178q66 -47 146 -47q91 0 140 48h14v-52q0 -11 22 -11h11v-33h-11q-61 0 -61 34v4q-48 -23 -115 -23q-98 0 -155 47zM-363 -100q0 -49 94 -49q66 0 86 30l53 -22q-30 -56 -139 -56q-151 0 -151 97t151 97q109 0 139 -56l-53 -22q-20 30 -86 30q-94 0 -94 -49z" />
    <glyph glyph-name="u1039_100C" horiz-adv-x="0" 
d="M-443 -273q-79 0 -79 85v92q0 73 80 73q79 0 79 -73v-77h-50v77q0 27 -29 27q-31 0 -31 -27v-92q0 -40 30 -40h142q-16 31 -16 80q0 125 145 125t145 -125q0 -102 -70 -125l-25 52q40 12 40 73q0 70 -90 70t-90 -70q0 -61 40 -73l-25 -52h-196z" />
    <glyph glyph-name="u1039_100F" horiz-adv-x="0" 
d="M-350 -148q0 70 -60 70t-60 -70q0 -61 40 -73l-25 -52q-70 23 -70 125q0 125 115 125q33 0 68 -23q9 7 19 12q23 11 48 11t48 -11q10 -5 19 -12q35 23 68 23q115 0 115 -125q0 -102 -70 -125l-25 52q40 12 40 73q0 70 -60 70t-60 -70q0 -34 9 -56q1 -4 1 -9
q0 -18 -29 -41q-25 -19 -56 -19t-56 19q-29 23 -29 41q0 5 2 9q8 22 8 56zM-307 -86q12 -26 12 -62t-9 -62q4 -7 11.5 -11t17.5 -4t17.5 4t11.5 11q-9 26 -9 62t12 62q-4 4 -11 7q-12 6 -21 6t-21 -6q-7 -3 -11 -7z" />
    <glyph glyph-name="u1039_1010" horiz-adv-x="0" 
d="M-372 -78q-70 0 -70 -70t70 -70t70 70t-70 70zM-107 -148q0 70 -70 70t-70 -70q0 -125 -125 -125t-125 125t125 125q62 0 98 -40q35 40 97 40q125 0 125 -125t-125 -125v55q70 0 70 70z" />
    <glyph glyph-name="u1039_1011" horiz-adv-x="0" 
d="M-247 -148q0 -70 70 -70t70 70t-70 70t-70 -70zM-442 -148q0 -70 70 -70t70 70t-70 70t-70 -70zM-274 -58q31 35 97 35q125 0 125 -125t-125 -125q-66 0 -97 35q-32 -35 -98 -35q-125 0 -125 125t125 125q66 0 98 -35z" />
    <glyph glyph-name="u1039_1012" horiz-adv-x="0" 
d="M-130 -188q0 -85 -151 -85q-109 0 -139 64l53 25q20 -34 86 -34q94 0 94 30q0 23 -78 23v45q78 0 78 22q0 30 -94 30q-66 0 -86 -34l-53 25q30 64 139 64q151 0 151 -85q0 -31 -42 -44q42 -14 42 -46z" />
    <glyph glyph-name="u1039_1013" horiz-adv-x="1" 
d="M-184 -149v1q0 70 -90 70t-90 -70q36 18 90 18q55 0 90 -19zM-350 -193q22 -25 76 -25t76 25q-28 20 -76 20t-76 -20zM-129 -148q0 -125 -145 -125t-145 125t145 125t145 -125z" />
    <glyph glyph-name="u1039_1014" horiz-adv-x="0" 
d="M-362 -209q0 -9 62 -12q-6 28 -50 28q-12 0 -12 -16zM-275 -273q-145 0 -145 64q0 58 70 58q92 0 99 -70q63 4 63 28q0 21 -30 29l-64 19q-93 26 -93 69q0 9 4 18q13 35 63 35q39 0 79 -11l-15 -50q-42 12 -60 12q-10 0 -12 -4q-1 -1 -1 -2q0 -11 60 -28l64 -18
q63 -18 63 -69q0 -80 -145 -80z" />
    <glyph glyph-name="u1039_1015" horiz-adv-x="1" 
d="M-274 -273q-145 0 -145 125q0 102 70 125l25 -52q-40 -12 -40 -73q0 -70 90 -70t90 70q0 61 -40 73l25 52q70 -23 70 -125q0 -125 -145 -125z" />
    <glyph glyph-name="u1039_1016" horiz-adv-x="1" 
d="M-254 -217q-9 24 -12 55q-1 13 -1 26q0 77 48 113h20q70 -23 70 -125q0 -125 -145 -125t-145 125q0 102 70 125l25 -52q-40 -12 -40 -73q0 -70 90 -70q11 0 20 1zM-209 -82q-15 -31 -15 -62q0 -7 1 -14q3 -26 11 -46q28 17 28 56q0 49 -25 66z" />
    <glyph glyph-name="u1039_1017" horiz-adv-x="1" 
d="M-199 -23q70 -23 70 -125q0 -125 -145 -125t-145 125q0 102 70 125h8q34 -66 46.5 -70.5t20.5 -4.5q9 0 21.5 4.5t45.5 70.5h8zM-355 -100q-9 -18 -9 -48q0 -70 90 -70t90 70q0 30 -9 48q-2 -3 -3 -6q-12 -22 -33.5 -33.5t-44.5 -11.5t-44.5 11.5t-33.5 33.5q-1 3 -3 6z
" />
    <glyph glyph-name="u1039_1018" horiz-adv-x="0" 
d="M-372 -78q-52 0 -72 -34l-53 25q30 64 125 64q62 0 98 -40q35 40 97 40q125 0 125 -125t-125 -125v55q70 0 70 70t-70 70t-70 -70q0 -125 -125 -125q-95 0 -125 64l53 25q20 -34 72 -34q70 0 70 70t-70 70z" />
    <glyph glyph-name="u1039_1019" horiz-adv-x="1" 
d="M-184 -140q-3 54 -40 65l25 52q70 -23 70 -125q0 -125 -145 -125t-145 125q0 102 70 125l25 -52q-37 -11 -40 -65q36 18 90 18q55 0 90 -18zM-353 -188q20 -30 79 -30t79 30q-28 23 -79 23t-79 -23z" />
    <glyph glyph-name="u1039_101C" horiz-adv-x="0" 
d="M-372 -23q125 0 125 -125q0 -70 70 -70t70 70t-70 70v55q125 0 125 -125t-125 -125t-125 125q0 70 -70 70t-70 -70t70 -70v-55q-125 0 -125 125t125 125z" />
    <glyph glyph-name="u1039_101D" horiz-adv-x="1" 
d="M-129 -148q0 -125 -145 -125t-145 125t145 125t145 -125zM-364 -148q0 -70 90 -70t90 70t-90 70t-90 -70z" />
    <glyph glyph-name="u1039_101D_103E" horiz-adv-x="1" 
d="M-364 -148q0 -70 90 -70t90 70t-90 70t-90 -70zM-406 -211l-32 -62l-135 69l24 47l89 -46l43 85q16 95 143 95q145 0 145 -125t-145 -125q-102 0 -132 62z" />
    <glyph glyph-name="u103C_big" horiz-adv-x="182" 
d="M862 -207q71 0 71 67v240h82v-240q0 -133 -153 -133h-658q-154 0 -154 133v900q0 133 154 133h658q153 0 153 -133v-110h-82v110q0 67 -71 67h-658q-72 0 -72 -67v-900q0 -67 72 -67h658z" />
    <glyph glyph-name="u102F_long" horiz-adv-x="182" 
d="M50 520h82v-727h100v-66h-182v793z" />
    <glyph glyph-name="u1030_long" horiz-adv-x="342" 
d="M50 520h82v-793h-82v793zM210 520h82v-727h100v-66h-182v793z" />
    <glyph glyph-name="u103C_1" horiz-adv-x="182" 
d="M332 -273h-128q-154 0 -154 133v900q0 133 154 133h325q153 0 153 -133v-110h-82v110q0 67 -71 67h-325q-72 0 -72 -67v-900q0 -67 72 -67h128v-66z" />
    <glyph glyph-name="u103C_2" horiz-adv-x="182" 
d="M204 -273q-154 0 -154 133v900q0 133 154 133h128v-66h-128q-72 0 -72 -67v-900q0 -67 72 -67h325q71 0 71 67v240h82v-240q0 -133 -153 -133h-325z" />
    <glyph glyph-name="u103C_3" horiz-adv-x="182" 
d="M204 -273q-154 0 -154 133v900q0 133 154 133h129v-66h-129q-72 0 -72 -67v-900q0 -67 72 -67h129v-66h-129z" />
    <glyph glyph-name="u103C_big_1" horiz-adv-x="182" 
d="M732 -273h-528q-154 0 -154 133v900q0 133 154 133h658q153 0 153 -133v-110h-82v110q0 67 -71 67h-658q-72 0 -72 -67v-900q0 -67 72 -67h528v-66z" />
    <glyph glyph-name="u103C_big_2" horiz-adv-x="182" 
d="M862 -207q71 0 71 67v240h82v-240q0 -133 -153 -133h-658q-154 0 -154 133v900q0 133 154 133h478v-66h-478q-72 0 -72 -67v-900q0 -67 72 -67h658z" />
    <glyph glyph-name="u103C_big_3" horiz-adv-x="182" 
d="M682 -207v-66h-478q-154 0 -154 133v900q0 133 154 133h478v-66h-478q-72 0 -72 -67v-900q0 -67 72 -67h478z" />
    <glyph glyph-name="u100B_1039_100B" 
d="M67 -183q66 -45 146 -45q91 0 140 46h14v-49q0 -11 22 -11h11v-31h-11q-61 0 -61 32v4q-48 -22 -115 -22q-98 0 -155 45zM125 -110q0 -46 94 -46q66 0 86 28l53 -20q-30 -53 -139 -53q-151 0 -151 91q0 92 151 92q109 0 139 -53l-53 -21q-20 29 -86 29q-94 0 -94 -47z
M418 12q-65 -12 -143 -12q-133 0 -225 33v90l67 22q61 -29 158 -29q85 0 143 22v37q-53 -30 -133 -30q-235 0 -235 187q0 188 235 188q168 0 215 -92l-68 -38q-41 64 -147 64q-153 0 -153 -122q0 -130 153 -130q106 0 147 73l68 -38v-113q-81 -52 -225 -52q-82 0 -143 17
v-32q63 -14 143 -14q115 0 194 29l31 -8v-271h50v-66h-132v285z" />
    <glyph glyph-name="u100A_alt" horiz-adv-x="882" 
d="M481 -273h-278q-154 0 -154 133v268l78 25q31 -87 137 -87q153 0 153 194t-153 194q-106 0 -137 -87l-78 25q47 128 215 128q235 0 235 -260q0 -68 -15 -118q34 -76 123 -76q143 0 143 194t-143 194v66q225 0 225 -260t-225 -260q-110 0 -167 62q-56 -62 -176 -62
q-80 0 -133 29v-169q0 -67 72 -67h278v-66z" />
    <glyph glyph-name="u1014_alt" 
d="M258 66v34q0 64 -83 64q-43 0 -43 -44q0 -51 126 -54zM275 0q-225 0 -225 120q0 110 125 110q165 0 165 -130v-28q78 19 78 88q0 75 -132 111q-176 48 -176 139q0 110 165 110q111 0 165 -87l-68 -43q-35 64 -97 64q-83 0 -83 -44q0 -45 111 -75q197 -54 197 -175
q0 -160 -225 -160z" />
    <glyph glyph-name="u101B_alt" 
d="M275 0q-225 0 -225 260t225 260t225 -260v-433h-82v433q0 194 -143 194q-115 0 -138 -126q24 -4 48 -14q74 -31 107 -107q17 -39 17 -81q0 -60 -34 -126zM233 71q9 32 9 59q0 28 -10 50q-22 52 -72 73q-14 6 -28 9v-2q0 -163 101 -189z" />
    <glyph glyph-name="u1025_alt" 
d="M204 -273q-154 0 -154 133v268l78 25q31 -87 137 -87q153 0 153 194t-153 194q-106 0 -137 -87l-78 25q47 128 215 128q235 0 235 -260t-235 -260q-80 0 -133 29v-169q0 -67 72 -67v-66z" />
    <glyph glyph-name="u1037_alt" horiz-adv-x="0" 
d="M-65 -40q91 0 91 -91t-91 -91t-91 91t91 91zM-35 -131q0 30 -30 30t-30 -30t30 -30t30 30z" />
    <glyph glyph-name="u103B_alt" horiz-adv-x="182" 
d="M-152 -130l52 59l150 -108v699h82v-793h-77z" />
    <glyph glyph-name="u103E_alt" horiz-adv-x="0" 
d="M-185 -273l-156 93l34 56l86 -51l90 152l71 -42z" />
    <glyph glyph-name="u1037_alt2" horiz-adv-x="0" 
d="M50 -10q91 0 91 -91t-91 -91t-91 91t91 91zM80 -101q0 30 -30 30t-30 -30t30 -30t30 30z" />
    <glyph glyph-name="u100B_1039_100C" 
d="M285 520q168 0 215 -128l-78 -25q-31 87 -137 87q-153 0 -153 -179t153 -179q106 0 137 87l78 -25q-47 -128 -215 -128q-235 0 -235 245t235 245zM500 -140q0 -133 -154 -133h-146q-150 0 -150 91.5t150 91.5h62v-66h-62q-68 0 -68 -25.5t68 -25.5h146q72 0 72 67v103
q-61 -23 -143 -23q-152 0 -225 70l36 45q92 -55 189 -55q85 0 183 41l42 -30v-151z" />
    <glyph glyph-name="glyph248" horiz-adv-x="0" 
d="M-234 -193h-152v66h70v97h82v-163z" />
  </font>
</defs>
</svg>
