<?xml version="1.0" standalone="no"?>
<!DOCTYPE svg PUBLIC "-//W3C//DTD SVG 1.1//EN" "http://www.w3.org/Graphics/SVG/1.1/DTD/svg11.dtd" >
<svg xmlns="http://www.w3.org/2000/svg" xmlns:xlink="http://www.w3.org/1999/xlink" version="1.1">
<metadata>
Created by FontForge 20141024 at Mon Apr 20 18:16:03 2015
 By System Administrator
Copyright 2015 Google Inc. All Rights Reserved.
</metadata>
<defs>
<font id="MyanmarTagu" horiz-adv-x="600" >
  <font-face 
    font-family="Myanmar Tagu"
    font-weight="400"
    font-stretch="normal"
    units-per-em="1000"
    panose-1="2 0 5 0 0 0 0 0 0 0"
    ascent="750"
    descent="-250"
    bbox="-641 -370 2180 905"
    underline-thickness="150"
    underline-position="-142"
    unicode-range="U+0020-AA7B"
  />
<missing-glyph horiz-adv-x="550" 
d="M50 0v520h450v-520h-450zM77 18h396v484h-396v-484zM173 416q17 10 32 16q28 11 61 11q50 0 80.5 -17.5t30.5 -46.5q0 -17 -12.5 -35t-47.5 -47q-34 -29 -54 -48t-20 -36q0 -14 13 -48h-17q-19 35 -19 53q0 28 44.5 79.5t44.5 78.5q0 21 -18 33t-50 12q-21 0 -38 -7
q-14 -5 -30 -14v16zM208 121l31 21q6 4 11 4t12 -4l30 -22q5 -4 5 -7q0 -4 -5 -8l-31 -23q-7 -5 -11 -5q-6 0 -11 4l-33 26q-4 3 -4 6q0 4 6 8z" />
    <glyph glyph-name="u103E_102F" unicode="&#x103e;&#x102f;" horiz-adv-x="0" 
d="M-427 -250v205q0 25 50 25t50 -25v-205q0 -120 -122 -120h-31q-33 0 -33 50t33 50h31q22 0 22 20zM-151 -270h31q33 0 33 -50t-33 -50h-31q-122 0 -122 120v205q0 25 50 25t50 -25v-205q0 -20 22 -20z" />
    <glyph glyph-name="u1085_1036" unicode="&#x1085;&#x1036;" horiz-adv-x="0" 
d="M-199 815q93 0 93 -100t-93 -100t-93 100t93 100zM-169 715q0 30 -30 30t-30 -30t30 -30t30 30zM-449 715q-44 25 -44 75q0 100 95 100q47 0 79 -3q28 -4 28 -34v-9q-5 -37 -26 -37h-3q-24 3 -78 3q-15 0 -15 -20q0 -40 64 -40q31 0 31 -35t-31 -35q-64 0 -64 -40
q0 -20 15 -20q54 0 78 3h3q21 0 26 -36v-10q0 -30 -28 -33q-32 -4 -79 -4q-95 0 -95 100q0 50 44 75z" />
    <glyph glyph-name="u1085_102D" unicode="&#x1085;&#x102d;" horiz-adv-x="0" 
d="M-197 790q-55 0 -55 -75t55 -75t55 75t-55 75zM-197 890q135 0 135 -175t-135 -175t-135 175t135 175zM-493 715q-44 25 -44 75q0 100 95 100q47 0 79 -3q28 -4 28 -34v-9q-5 -37 -26 -37h-3q-24 3 -78 3q-15 0 -15 -20q0 -40 64 -40q31 0 31 -35t-31 -35q-64 0 -64 -40
q0 -20 15 -20q54 0 78 3h3q21 0 26 -36v-10q0 -30 -28 -33q-32 -4 -79 -4q-95 0 -95 100q0 50 44 75z" />
    <glyph glyph-name="u1085_102E" unicode="&#x1085;&#x102e;" horiz-adv-x="0" 
d="M-493 715q-44 25 -44 75q0 100 95 100q47 0 79 -3q28 -4 28 -34v-9q-5 -37 -26 -37h-3q-24 3 -78 3q-15 0 -15 -20q0 -40 64 -40q31 0 31 -35t-31 -35q-64 0 -64 -40q0 -20 15 -20q54 0 78 3h3q21 0 26 -36v-10q0 -30 -28 -33q-32 -4 -79 -4q-95 0 -95 100q0 50 44 75z
M-142 704v11q0 75 -55 75t-55 -75v-11q26 21 55 21t55 -21zM-243 653q14 -33 46 -33t45 32q-19 23 -45 23q-27 0 -46 -22zM-197 890q135 0 135 -175t-135 -175t-135 175t135 175z" />
    <glyph glyph-name="u102D_1036" unicode="&#x102d;&#x1036;" horiz-adv-x="0" 
d="M-398 790q-55 0 -55 -75t55 -75t55 75t-55 75zM-398 890q135 0 135 -175t-135 -175t-135 175t135 175zM-159 815q93 0 93 -100t-93 -100t-93 100t93 100zM-129 715q0 30 -30 30t-30 -30t30 -30t30 30z" />
    <glyph glyph-name="u100D_1039_100D" unicode="&#x100d;&#x1039;&#x100d;" 
d="M560 -219q0 -51 50 -51q30 0 30 -50t-30 -50q-150 0 -150 120v224q-69 -24 -160 -24q-170 0 -260 81v202q0 12 24 18q7 2 13 2q63 0 65 -10q24 -83 158 -83q160 0 160 130t-160 130q-134 0 -158 -83q-2 -10 -65 -10q-6 0 -13 2q-24 6 -24 18v2q24 171 260 171
q260 0 260 -230t-260 -230q-98 0 -160 33v-64q66 -29 160 -29q146 0 223 69l37 -18v-270zM115 -293q29 -16 125 -17q107 0 156 36h19v-53h10q20 0 20 -22q0 -21 -18 -21h-16q-46 0 -46 19v18q-44 -20 -125 -20q-137 1 -165 31l-10 11v102q0 9 25 9q20 0 25 -9
q10 -18 125 -18q125 0 125 47t-125 47q-115 0 -125 -18q-5 -9 -25 -9q-25 0 -25 9q0 81 175 81t175 -110t-175 -110q-81 0 -125 18v-21z" />
    <glyph glyph-name="u100E_1039_100D" unicode="&#x100e;&#x1039;&#x100d;" horiz-adv-x="660" 
d="M295 270q0 -40 75 -40q65 0 75 15q5 8 25 8q25 0 25 -8q0 -68 -125 -68t-125 93q0 92 125 92t125 -68q0 -8 -25 -8q-20 0 -25 8q-10 15 -75 15q-75 0 -75 -39zM495 31v-305h60q40 0 40 -48t-38 -48h-66q-96 0 -96 76v298q-30 -4 -65 -4q-290 0 -290 240q0 61 69.5 98.5
t69.5 54.5t-10 17q-41 0 -89 -25q-3 -2 -7 -2q-13 0 -25 26q-8 15 -8 41q0 25 9 30q77 40 122 40q36 0 72 -24.5t36 -72.5q0 -95 -69.5 -132t-69.5 -51q0 -140 190 -140q64 0 106 18l9 23q-44 -17 -75 -17q-87 1 -115 26q-5 5 -5 10q0 7 5 15t15 8q9 0 21 -7q26 -15 79 -16
q57 0 106 31h19v-26q25 37 25 95q0 148 -94 160q-12 2 -18 13q-2 5 -3 15v5q0 10 3 24q8 33 15 38t18 5h7q172 -27 172 -260q0 -171 -125 -229z" />
    <glyph glyph-name="u100F_100D" unicode="&#x100f;&#x1039;&#x100d;" horiz-adv-x="1020" 
d="M573 83q-43 64 -43 177q0 116 45 180q-18 30 -65 30t-65 -30q45 -64 45 -180q0 -113 -43 -177q2 -33 63 -33t63 33zM838 10q-5 -104 -104 -125q3 -21 3 -48v-63q0 -144 -108 -144h-159q-28 0 -40 43q-4 16 -4 27q0 22 17 23q39 4 39 82q0 75 -85 75t-85 -75q0 -78 39 -82
q17 -1 17 -23q0 -11 -4 -27q-12 -43 -40 -43h-6q-96 16 -96 175q0 175 175 175t175 -175q0 -43 -7 -75h24q58 0 58 44v63q0 43 -24.5 53t-24.5 50t101 40q71 0 84 21q-11 -1 -23 -1q-31 0 -31 50t31 50q120 0 120 160h1q0 160 -125 160t-125 -160q0 -102 42 -155v-20
q0 -85 -163 -85t-163 85v20q42 53 42 155q0 160 -125 160t-125 -160h1q0 -160 120 -160q31 0 31 -50t-31 -50q-220 0 -220 260t225 260q89 0 143 -41q30 41 102 41t102 -41q54 41 143 41q225 0 225 -260q0 -209 -142 -250z" />
    <glyph glyph-name="u103E_1030" unicode="&#x103e;&#x1030;" horiz-adv-x="0" 
d="M-300 -20q50 0 50 -27v-295q0 -28 -50 -28t-50 28v295q0 27 50 27zM-490 -250v205q0 25 50 25t50 -25v-205q0 -120 -122 -120h-31q-33 0 -33 50t33 50h31q22 0 22 20zM-88 -270h31q33 0 33 -50t-33 -50h-31q-122 0 -122 120v205q0 25 50 25t50 -25v-205q0 -20 22 -20z
" />
    <glyph glyph-name="u102B_103A" unicode="&#x102b;&#x103a;" horiz-adv-x="180" 
d="M40 667q0 83 -70 83t-70 -61q0 -22 -50 -22t-50 22q0 161 170 161q78 0 120 -38q42 38 120 38q170 0 170 -161q0 -22 -50 -22t-50 22q0 61 -70 61t-70 -83v-643q0 -24 -50 -24t-50 24v643z" />
    <glyph glyph-name="u103D_1037" unicode="&#x103d;&#x1037;" horiz-adv-x="0" 
d="M-70 -30q95 0 95 -100t-95 -100t-95 100t95 100zM-40 -130q0 30 -30 30t-30 -30t30 -30t30 30zM-350 -120q-85 0 -85 -75t85 -75t85 75t-85 75zM-350 -20q175 0 175 -175t-175 -175t-175 175t175 175z" />
    <glyph glyph-name=".notdef" horiz-adv-x="550" 
d="M50 0v520h450v-520h-450zM77 18h396v484h-396v-484zM173 416q17 10 32 16q28 11 61 11q50 0 80.5 -17.5t30.5 -46.5q0 -17 -12.5 -35t-47.5 -47q-34 -29 -54 -48t-20 -36q0 -14 13 -48h-17q-19 35 -19 53q0 28 44.5 79.5t44.5 78.5q0 21 -18 33t-50 12q-21 0 -38 -7
q-14 -5 -30 -14v16zM208 121l31 21q6 4 11 4t12 -4l30 -22q5 -4 5 -7q0 -4 -5 -8l-31 -23q-7 -5 -11 -5q-6 0 -11 4l-33 26q-4 3 -4 6q0 4 6 8z" />
    <glyph glyph-name=".null" horiz-adv-x="0" 
 />
    <glyph glyph-name="nonmarkingreturn" horiz-adv-x="508" 
 />
    <glyph glyph-name="space" unicode=" " horiz-adv-x="250" 
 />
    <glyph glyph-name="space" unicode="&#xa0;" horiz-adv-x="250" 
 />
    <glyph glyph-name="u1000" unicode="&#x1000;" horiz-adv-x="1020" 
d="M720 520q260 0 260 -260t-260 -260q-33 0 -45 15q-8 10 -8 28q0 8 1 17q5 30 18 35t34 5q160 0 160 160t-160 160q-123 0 -174 -55q14 -45 14 -105q0 -233 -172 -260h-7q-11 0 -18 5t-15 38q-3 14 -3 24v5q1 10 3 15q6 11 18 13q94 12 94 160q0 160 -160 160t-160 -160
q0 -148 94 -160q12 -2 18 -13q2 -5 3 -15v-5q0 -10 -3 -24q-8 -33 -15 -38t-18 -5h-7q-172 27 -172 260q0 260 260 260q146 0 210 -82q64 82 210 82z" />
    <glyph glyph-name="u1001" unicode="&#x1001;" 
d="M80 150q0 134 169 134q156 0 176 -108q1 -4 1 -7q0 -24 -36 -31q-9 -2 -16 -2q-27 0 -32 24t-93 24q-69 0 -69 -34q0 -50 120 -50q160 0 160 160t-160 160q-134 0 -158 -103q-2 -10 -65 -10q-6 0 -13 2q-24 6 -24 18v2q24 191 260 191q260 0 260 -260t-260 -260
q-220 0 -220 150z" />
    <glyph glyph-name="u1002" unicode="&#x1002;" 
d="M300 520q260 0 260 -260q0 -233 -172 -260h-7q-11 0 -18 5t-15 38q-3 14 -3 24v5q1 10 3 15q6 11 18 13q94 12 94 160q0 160 -160 160t-160 -160q0 -148 94 -160q12 -2 18 -13q2 -5 3 -15v-5q0 -10 -3 -24q-8 -33 -15 -38t-18 -5h-7q-172 27 -172 260q0 260 260 260z" />
    <glyph glyph-name="u1003" unicode="&#x1003;" horiz-adv-x="1020" 
d="M300 100q160 0 160 160q0 148 -94 160q-12 2 -18 13q-2 5 -3 15v5q0 10 3 24q8 33 15 38t18 5h7q172 -27 172 -260q0 -60 -14 -105q51 -55 174 -55q160 0 160 160t-160 160q-21 0 -34 5t-18 35q-1 9 -1 17q0 18 8 28q12 15 45 15q260 0 260 -260t-260 -260
q-146 0 -210 82q-64 -82 -210 -82q-260 0 -260 240q0 61 69.5 98.5t69.5 54.5t-10 17q-41 0 -89 -25q-3 -2 -7 -2q-13 0 -25 26q-8 15 -8 41q0 25 9 30q77 40 122 40q36 0 72 -24.5t36 -72.5q0 -95 -69.5 -132t-69.5 -51q0 -140 160 -140z" />
    <glyph glyph-name="u1004" unicode="&#x1004;" 
d="M300 520q236 0 260 -191v-2q0 -12 -24 -18q-7 -2 -13 -2q-63 0 -65 10q-24 103 -158 103q-160 0 -160 -160t160 -160q134 0 158 103q2 10 65 10q6 0 13 -2q24 -6 24 -18v-2q-24 -191 -260 -191q-260 0 -260 260t260 260z" />
    <glyph glyph-name="u1005" unicode="&#x1005;" 
d="M300 520q260 0 260 -260t-260 -260t-260 260t260 260zM310 260q0 -106 -95 -124q-4 -1 -7 -1q-20 0 -26 33q-2 8 -2 15q0 24 21 29q21 4 21 48t-21 49q-21 4 -21 28q0 7 2 15q6 33 26 33q3 0 7 -1q95 -18 95 -124zM300 420q-160 0 -160 -160t160 -160t160 160t-160 160z
" />
    <glyph glyph-name="u1006" unicode="&#x1006;" horiz-adv-x="1020" 
d="M500 82q-54 -82 -200 -82q-220 0 -220 150q0 134 169 134q156 0 176 -108q1 -4 1 -7q0 -24 -36 -31q-9 -2 -16 -2q-27 0 -32 24t-93 24q-69 0 -69 -34q0 -50 120 -50q160 0 160 160t-160 160q-134 0 -158 -103q-2 -10 -65 -10q-6 0 -13 2q-24 6 -24 18v2q24 191 260 191
q146 0 209 -71q75 71 211 71q260 0 260 -260t-260 -260q-146 0 -220 82zM546 154q52 -54 174 -54q160 0 160 160t-160 160q-123 0 -174 -54q14 -46 14 -106t-14 -106z" />
    <glyph glyph-name="u1007" unicode="&#x1007;" 
d="M393 413q-2 -9 -2 -21q0 -38 40 -38q22 0 34 13q-14 36 -72 46zM511 310q-27 -26 -80 -26q-110 0 -110 110q0 14 2 26h-23q-160 0 -160 -160t160 -160q134 0 158 103q2 10 65 10q6 0 13 -2q24 -6 24 -18v-2q-24 -191 -260 -191q-260 0 -260 260t260 260q233 0 259 -185
q26 -14 89 -22l-6 -100q-93 12 -129 96q-1 1 -2 1z" />
    <glyph glyph-name="u1008" unicode="&#x1008;" horiz-adv-x="780" 
d="M310 260q0 -106 -95 -124q-4 -1 -7 -1q-20 0 -26 33q-2 8 -2 15q0 24 21 29q21 4 21 48t-21 49q-21 4 -21 28q0 7 2 15q6 33 26 33q3 0 7 -1q95 -18 95 -124zM300 420q-160 0 -160 -160t160 -160t160 160t-160 160zM275 1q-235 12 -235 259q0 260 260 260t260 -260
q0 -219 -185 -254v-198q0 -78 59 -78h147q59 0 59 78v689q0 23 50 23t50 -23v-689q0 -178 -159 -178h-147q-159 0 -159 178v193z" />
    <glyph glyph-name="u1009" unicode="&#x1009;" 
d="M140 62v-254q0 -78 69 -78h363q68 0 68 78v136q0 16 50 16t50 -16v-136q0 -178 -168 -178h-363q-169 0 -169 178v385q0 12 24 18q7 2 13 2q63 0 65 -10q44 -103 158 -103q160 0 160 160t-160 160q-134 0 -158 -103q-2 -10 -65 -10q-6 0 -13 2q-24 6 -24 18v2
q24 191 260 191q260 0 260 -260t-260 -260q-115 0 -160 62z" />
    <glyph glyph-name="u100A" unicode="&#x100a;" horiz-adv-x="1020" 
d="M546 152q8 -5 17 -12q52 -40 157 -40q160 0 160 160t-160 160q-21 0 -34 5t-18 35q-1 9 -1 17q0 18 8 28q12 15 45 15q260 0 260 -260t-260 -260q-130 0 -195 65l-16 16q-64 -81 -209 -81q-115 0 -160 62v-254q0 -78 69 -78h603q68 0 68 78v136q0 16 50 16t50 -16v-136
q0 -178 -168 -178h-603q-169 0 -169 178v385q0 12 24 18q7 2 13 2q63 0 65 -10q44 -103 158 -103q160 0 160 160t-160 160q-134 0 -158 -103q-2 -10 -65 -10q-6 0 -13 2q-24 6 -24 18v2q24 191 260 191q260 0 260 -260q0 -61 -14 -108z" />
    <glyph glyph-name="u100B" unicode="&#x100b;" 
d="M460 33q-62 -33 -160 -33q-260 0 -260 260t260 260q236 0 260 -191v-2q0 -12 -24 -18q-7 -2 -13 -2q-63 0 -65 10q-24 103 -158 103q-160 0 -160 -160t160 -160q134 0 158 103q2 10 65 10q6 0 13 -2q24 -6 24 -18v-222q-90 -81 -260 -81q-91 0 -160 24v-65
q70 -19 160 -19q162 0 260 64v-113q0 -51 50 -51q30 0 30 -50t-30 -50q-150 0 -150 110v12q-39 -22 -160 -22q-157 0 -260 53v208l37 18q77 -69 223 -69q94 0 160 29v64z" />
    <glyph glyph-name="u100C" unicode="&#x100c;" 
d="M460 33q-62 -33 -160 -33q-260 0 -260 260t260 260q236 0 260 -191v-2q0 -12 -24 -18q-7 -2 -13 -2q-63 0 -65 10q-24 103 -158 103q-160 0 -160 -160t160 -160q134 0 158 103q2 10 65 10q6 0 13 -2q24 -6 24 -18v-385q0 -178 -168 -178h-183q-169 0 -169 159t169 159h91
q32 0 32 -50t-32 -50h-91q-69 0 -69 -59t69 -59h183q68 0 68 78v225z" />
    <glyph glyph-name="u100D" unicode="&#x100d;" 
d="M560 -219q0 -51 50 -51q30 0 30 -50t-30 -50q-150 0 -150 120v114q-69 -24 -160 -24q-170 0 -260 81v272q0 12 24 18q7 2 13 2q63 0 65 -10q24 -103 158 -103q160 0 160 160t-160 160q-134 0 -158 -103q-2 -10 -65 -10q-6 0 -13 2q-24 6 -24 18v2q24 191 260 191
q260 0 260 -260t-260 -260q-98 0 -160 33v-64q66 -29 160 -29q146 0 223 69l37 -18v-210z" />
    <glyph glyph-name="u100E" unicode="&#x100e;" 
d="M300 100q160 0 160 160q0 148 -94 160q-12 2 -18 13q-2 5 -3 15v5q0 10 3 24q8 33 15 38t18 5h7q172 -27 172 -260q0 -260 -260 -260t-260 240q0 61 69.5 98.5t69.5 54.5t-10 17q-41 0 -89 -25q-3 -2 -7 -2q-13 0 -25 26q-8 15 -8 41q0 25 9 30q77 40 122 40
q36 0 72 -24.5t36 -72.5q0 -95 -69.5 -132t-69.5 -51q0 -140 160 -140z" />
    <glyph glyph-name="u100F" unicode="&#x100f;" horiz-adv-x="1020" 
d="M573 83q-43 64 -43 177q0 116 45 180q-18 30 -65 30t-65 -30q45 -64 45 -180q0 -113 -43 -177q2 -33 63 -33t63 33zM139 260h1q0 -160 120 -160q31 0 31 -50t-31 -50q-220 0 -220 260t225 260q89 0 143 -41q30 41 102 41t102 -41q54 41 143 41q225 0 225 -260t-220 -260
q-31 0 -31 50t31 50q120 0 120 160h1q0 160 -125 160t-125 -160q0 -102 42 -155v-20q0 -85 -163 -85t-163 85v20q42 53 42 155q0 160 -125 160t-125 -160z" />
    <glyph glyph-name="u1010" unicode="&#x1010;" horiz-adv-x="1020" 
d="M300 420q-160 0 -160 -160t160 -160t160 160t-160 160zM510 438q64 82 210 82q260 0 260 -260t-260 -260q-33 0 -45 15q-8 10 -8 28q0 8 1 17q5 30 18 35t34 5q160 0 160 160t-160 160q-123 0 -174 -54q14 -46 14 -106q0 -260 -260 -260t-260 260t260 260q146 0 210 -82z
" />
    <glyph glyph-name="u1011" unicode="&#x1011;" horiz-adv-x="1020" 
d="M300 420q-160 0 -160 -160t160 -160t160 160t-160 160zM546 154q52 -54 174 -54q160 0 160 160t-160 160q-123 0 -174 -55q14 -46 14 -105q0 -60 -14 -106zM510 438q64 82 210 82q260 0 260 -260t-260 -260q-146 0 -210 82q-64 -82 -210 -82q-260 0 -260 260t260 260
q146 0 210 -82z" />
    <glyph glyph-name="u1012" unicode="&#x1012;" 
d="M330 305q130 6 130 62q0 53 -160 53t-160 -40q0 -13 -50 -13t-50 13q0 140 260 140t260 -153q0 -72 -87 -107q87 -34 87 -107q0 -153 -260 -153t-260 140q0 13 50 13t50 -13q0 -40 160 -40t160 53q0 56 -130 62q-30 0 -30 45t30 45z" />
    <glyph glyph-name="u1013" unicode="&#x1013;" 
d="M300 0q-260 0 -260 260t260 260t260 -260t-260 -260zM424 175q1 -4 1 -7q0 -20 -33 -26q-8 -2 -15 -2q-24 0 -28 21q-5 21 -49 21t-48 -21q-5 -21 -29 -21q-7 0 -15 2q-33 6 -33 26q0 3 1 7q18 95 124 95t124 -95zM300 420q-160 0 -160 -160t160 -160t160 160t-160 160z
" />
    <glyph glyph-name="u1014" unicode="&#x1014;" 
d="M249 100q-10 80 -79 80q-30 0 -30 -30q0 -47 109 -50zM349 100q111 4 111 60q0 48 -160 97.5t-160 122.5q0 140 150 140q170 0 170 -135q0 -15 -22 -15t-28 10q-20 40 -120 40q-50 0 -50 -40q0 -34 160 -84t160 -136q0 -152 -210 -160v-345q0 -25 -50 -25t-50 25v345
q-210 7 -210 150q0 100 110 100q164 0 199 -150z" />
    <glyph glyph-name="u1015" unicode="&#x1015;" 
d="M40 260q0 233 172 260h7q11 0 18 -5t15 -38q3 -14 3 -24v-5q-1 -10 -3 -15q-6 -11 -18 -13q-94 -12 -94 -160q0 -160 160 -160t160 160q0 148 -94 160q-12 2 -18 13q-2 5 -3 15v5q0 10 3 24q8 33 15 38t18 5h7q172 -27 172 -260q0 -260 -260 -260t-260 260z" />
    <glyph glyph-name="u1016" unicode="&#x1016;" 
d="M560 260q0 -260 -260 -260t-260 260q0 236 191 260h2q12 0 18 -24q2 -7 2 -13q0 -63 -10 -65q-103 -24 -103 -158q0 -160 160 -160t160 160q0 120 -50 120q-34 0 -34 -69q0 -88 24 -93t24 -32q0 -7 -2 -16q-7 -36 -31 -36q-3 0 -7 1q-108 20 -108 176q0 169 134 169
q150 0 150 -220z" />
    <glyph glyph-name="u1017" unicode="&#x1017;" 
d="M40 260q0 233 172 260h7q11 0 18 -5t15 -38q3 -14 3 -24v-5q-1 -10 -3 -15q-6 -11 -18 -13q-94 -12 -94 -160q0 -160 160 -160t160 160q0 148 -94 160q-12 2 -18 13q-2 5 -3 15v5q0 10 3 24q8 33 15 38t18 5h7q172 -27 172 -260q0 -260 -260 -260t-260 260zM300 270
q-106 0 -124 95q-1 4 -1 7q0 20 33 26q8 2 15 2q24 0 29 -21q4 -21 48 -21t49 21q4 21 28 21q7 0 15 -2q33 -6 33 -26q0 -3 -1 -7q-18 -95 -124 -95z" />
    <glyph glyph-name="u1018" unicode="&#x1018;" horiz-adv-x="1020" 
d="M510 438q64 82 210 82q260 0 260 -260t-260 -260q-33 0 -45 15q-8 10 -8 28q0 8 1 17q5 30 18 35t34 5q160 0 160 160t-160 160q-123 0 -174 -54q14 -46 14 -106q0 -260 -260 -260q-236 0 -260 191v2q0 12 24 18q7 2 13 2q63 0 65 -10q24 -103 158 -103q160 0 160 160
t-160 160q-134 0 -158 -103q-2 -10 -65 -10q-6 0 -13 2q-24 6 -24 18v2q24 191 260 191q146 0 210 -82z" />
    <glyph glyph-name="u1019" unicode="&#x1019;" 
d="M40 260q0 233 172 260h7q11 0 18 -5t15 -38q3 -14 3 -24v-5q-1 -10 -3 -15q-6 -11 -18 -13q-94 -12 -94 -160q0 -160 160 -160t160 160q0 148 -94 160q-12 2 -18 13q-2 5 -3 15v5q0 10 3 24q8 33 15 38t18 5h7q172 -27 172 -260q0 -260 -260 -260t-260 260zM424 175
q1 -4 1 -7q0 -20 -33 -26q-8 -2 -15 -2q-24 0 -28 21q-5 21 -49 21t-48 -21q-5 -21 -29 -21q-7 0 -15 2q-33 6 -33 26q0 3 1 7q18 95 124 95t124 -95z" />
    <glyph glyph-name="u101A" unicode="&#x101a;" horiz-adv-x="1020" 
d="M510 82q-64 -82 -210 -82q-260 0 -260 260q0 233 172 260h7q11 0 18 -5t15 -38q3 -14 3 -24v-5q-1 -10 -3 -15q-6 -11 -18 -13q-94 -12 -94 -160q0 -160 160 -160t160 160q0 148 -94 160q-12 2 -18 13q-2 5 -3 15v5q0 10 3 24q8 33 15 38t18 5h7q172 -27 172 -260
q0 -60 -14 -105q51 -55 174 -55q160 0 160 160t-160 160q-21 0 -34 5t-18 35q-1 9 -1 17q0 18 8 28q12 15 45 15q260 0 260 -260t-260 -260q-146 0 -210 82z" />
    <glyph glyph-name="u101B" unicode="&#x101b;" 
d="M300 420q-160 0 -160 -160t150 -160q30 0 30 30q0 84 -89 84q-28 0 -48 -6q-3 -1 -6 -1q-16 0 -23 31q-2 10 -2 19q0 23 14 37q19 20 65 20q189 0 189 -184q0 -130 -130 -130q-250 0 -250 260t260 260t260 -260v-479q0 -51 50 -51q30 0 30 -50t-30 -50q-150 0 -150 120
v510q0 160 -160 160z" />
    <glyph glyph-name="u101C" unicode="&#x101c;" horiz-adv-x="1020" 
d="M460 260q0 160 -160 160t-160 -160t160 -160q21 0 34 -5t18 -35q1 -9 1 -17q0 -18 -8 -28q-12 -15 -45 -15q-260 0 -260 260t260 260t260 -260q0 -160 160 -160t160 160t-160 160q-21 0 -34 5t-18 35q-1 9 -1 17q0 18 8 28q12 15 45 15q260 0 260 -260t-260 -260
t-260 260z" />
    <glyph glyph-name="u101D" unicode="&#x101d;" 
d="M300 420q-160 0 -160 -160t160 -160t160 160t-160 160zM300 520q260 0 260 -260t-260 -260t-260 260t260 260z" />
    <glyph glyph-name="u101E" unicode="&#x101e;" horiz-adv-x="1020" 
d="M546 155q52 -55 174 -55q160 0 160 160t-160 160q-21 0 -34 5t-18 35q-1 9 -1 17q0 18 8 28q12 15 45 15q260 0 260 -260t-260 -260q-146 0 -210 82q-64 -82 -210 -82q-236 0 -260 191v2q0 12 24 18q7 2 13 2q63 0 65 -10q24 -103 158 -103q160 0 160 160t-160 160
q-134 0 -158 -103q-2 -10 -65 -10q-6 0 -13 2q-24 6 -24 18v2q24 191 260 191q260 0 260 -260q0 -60 -14 -105z" />
    <glyph glyph-name="u101F" unicode="&#x101f;" horiz-adv-x="1020" 
d="M515 444q65 76 205 76q260 0 260 -260t-260 -260q-33 0 -45 15q-8 10 -8 28q0 8 1 17q5 30 18 35t34 5q160 0 160 160t-160 160q-120 0 -172 -53q12 -47 12 -107q0 -260 -260 -260t-260 260q0 233 172 260h7q11 0 18 -5t15 -38q3 -14 3 -24v-5q-1 -10 -3 -15
q-6 -11 -18 -13q-94 -12 -94 -160q0 -160 160 -160t160 160q0 148 -94 160q-12 2 -18 13q-2 5 -3 15v5q0 10 3 24q8 33 15 38t18 5h7q84 -13 127 -76z" />
    <glyph glyph-name="u1020" unicode="&#x1020;" 
d="M460 33q-62 -33 -160 -33q-260 0 -260 260t260 260q236 0 260 -191v-2q0 -12 -24 -18q-7 -2 -13 -2q-63 0 -65 10q-24 103 -158 103q-160 0 -160 -160t160 -160q134 0 158 103q2 10 65 10q6 0 13 -2q24 -6 24 -18v-272q-90 -81 -260 -81q-91 0 -160 24v-56q0 -78 68 -78
h183q69 0 69 34v62q0 22 50 22t50 -22v-62q0 -134 -169 -134h-183q-168 0 -168 178v183l37 18q77 -69 223 -69q94 0 160 29v64z" />
    <glyph glyph-name="u1021" unicode="&#x1021;" horiz-adv-x="1020" 
d="M720 420q-108 0 -160 -42v-11q0 -72 -87 -107q87 -34 87 -107q0 -153 -260 -153t-260 140q0 13 50 13t50 -13q0 -40 160 -40t160 53q0 56 -130 62q-30 0 -30 45t30 45q130 6 130 62q0 53 -160 53t-160 -40q0 -13 -50 -13t-50 13q0 140 260 140q167 0 227 -63
q65 63 193 63q260 0 260 -260t-250 -260q-130 0 -130 130q0 184 189 184q46 0 65 -20q14 -14 14 -37q0 -9 -2 -19q-7 -31 -23 -31q-3 0 -6 1q-20 6 -48 6q-89 0 -89 -84q0 -30 30 -30q150 0 150 160t-160 160z" />
    <glyph glyph-name="u1022" unicode="&#x1022;" horiz-adv-x="1020" 
d="M300 520q146 0 210 -82q64 82 210 82q260 0 260 -260t-260 -260q-33 0 -45 15q-8 10 -8 28q0 8 1 17q5 30 18 35t34 5q160 0 160 160t-160 160q-123 0 -174 -55q14 -45 14 -105q0 -233 -172 -260h-7q-11 0 -18 5t-15 38q-3 14 -3 24v5q1 10 3 15q6 11 18 13q94 12 94 160
q0 160 -160 160t-160 -140q0 -14 69.5 -51t69.5 -132q0 -48 -36 -72.5t-72 -24.5q-45 0 -122 40q-9 5 -9 16q0 40 8 55q12 26 25 26q4 0 7 -2q48 -25 89 -25q10 0 10 17t-69.5 54.5t-69.5 98.5q0 240 260 240z" />
    <glyph glyph-name="u1023" unicode="&#x1023;" horiz-adv-x="1020" 
d="M635 -370q-15 0 -30 2q-13 2 -13 36v15q3 47 41 47h2q95 0 95 75t-95 75q-51 0 -82 -13q7 -28 7 -62q0 -159 -96 -175h-6q-28 0 -40 43q-4 16 -4 27q0 22 17 23q49 4 49 82q0 75 -95 75t-95 -75q0 -78 49 -82q17 -1 17 -23q0 -11 -4 -27q-12 -43 -40 -43h-6
q-96 16 -96 175q0 175 175 175q81 0 125 -38q44 38 125 38q175 0 175 -175q0 -43 -10 -75h51q34 0 34 -50t-34 -50h-216zM720 520q260 0 260 -260t-260 -260q-33 0 -45 15q-8 10 -8 28q0 8 1 17q5 30 18 35t34 5q160 0 160 160t-160 160q-123 0 -174 -55q14 -45 14 -105
q0 -233 -172 -260h-7q-11 0 -18 5t-15 38q-3 14 -3 24v5q1 10 3 15q6 11 18 13q94 12 94 160q0 160 -160 160t-160 -160q0 -148 94 -160q12 -2 18 -13q2 -5 3 -15v-5q0 -10 -3 -24q-8 -33 -15 -38t-18 -5h-7q-172 27 -172 260q0 260 260 260q146 0 210 -82q64 82 210 82z
" />
    <glyph glyph-name="u1024" unicode="&#x1024;" horiz-adv-x="1200" 
d="M1160 260v-615q0 -15 -50 -15t-50 15v615q0 280 -77 280q-175 0 -175 175t175 175q144 0 167 -130v-4q0 -16 -22 -21q-7 -2 -13 -2q-53 0 -57 11q-14 46 -75 46q-85 0 -85 -75t85 -75q177 0 177 -380zM980 -192q0 -178 -168 -178h-603q-169 0 -169 159t169 159h557
q36 0 36 -50t-36 -50h-557q-69 0 -69 -59t69 -59h603q68 0 68 78v452q0 160 -160 160q-123 0 -174 -55q14 -45 14 -105q0 -233 -172 -260h-7q-11 0 -18 5t-15 38q-3 14 -3 24v5q1 10 3 15q6 11 18 13q94 12 94 160q0 160 -160 160t-160 -160q0 -148 94 -160q12 -2 18 -13
q2 -5 3 -15v-5q0 -10 -3 -24q-8 -33 -15 -38t-18 -5h-7q-172 27 -172 260q0 260 260 260q146 0 210 -82q64 82 210 82q260 0 260 -260v-452z" />
    <glyph glyph-name="u1025" unicode="&#x1025;" 
d="M140 -192q0 -78 68 -78h213q39 0 39 54t-39 54h-111q-42 0 -42 50t42 50h111q139 0 139 -154t-139 -154h-213q-168 0 -168 178v385q0 12 24 18q7 2 13 2q63 0 65 -10q24 -103 158 -103q160 0 160 160t-160 160q-134 0 -158 -103q-2 -10 -65 -10q-6 0 -13 2q-24 6 -24 18
v2q24 191 260 191q260 0 260 -260t-260 -260q-98 0 -160 33v-225z" />
    <glyph glyph-name="u1026" unicode="&#x1026;" 
d="M140 -192q0 -78 68 -78h213q39 0 39 54t-39 54h-111q-42 0 -42 50t42 50h111q139 0 139 -154t-139 -154h-213q-168 0 -168 178v385q0 12 24 18q7 2 13 2q63 0 65 -10q24 -103 158 -103q160 0 160 160t-160 160q-134 0 -158 -103q-2 -10 -65 -10q-6 0 -13 2q-24 6 -24 18
v2q24 191 260 191q260 0 260 -260t-260 -260q-98 0 -160 33v-225zM385 718q-2 72 -85 72q-84 0 -85 -72q34 17 85 17t85 -17zM230 665q21 -25 70 -25t70 25q-25 20 -70 20t-70 -20zM300 890q175 0 175 -175t-175 -175t-175 175t175 175z" />
    <glyph glyph-name="u1027" unicode="&#x1027;" 
d="M560 392q0 -105 -209 -105q-156 0 -176 72q-1 4 -1 6q0 22 36 29q9 2 16 2q27 0 32 -13t93 -13q109 0 109 22q0 36 -160 36t-160 -168t160 -168t160 36q0 22 -109 22q-88 0 -93 -13t-32 -13q-7 0 -16 2q-36 7 -36 29q0 2 1 6q20 72 176 72q209 0 209 -105
q0 -128 -260 -128t-260 260t260 260t260 -128z" />
    <glyph glyph-name="u1028" unicode="&#x1028;" 
d="M404 100q56 0 56 160t-160 160t-160 -160v-370q0 -160 160 -160t160 160q0 15 50 15t50 -15q0 -260 -260 -260t-260 260v370q0 260 260 260t260 -260t-156 -260q-177 0 -177 129v53q103 47 103 78q0 20 -29 20q-31 0 -31 -28q0 -15 -45 -15t-45 15q0 118 121 118
q119 0 119 -110q0 -57 -103 -103v-28q0 -29 87 -29z" />
    <glyph glyph-name="u1029" unicode="&#x1029;" horiz-adv-x="1200" 
d="M860 2q-115 10 -170 80q-64 -82 -210 -82q-236 0 -260 191v2q0 12 24 18q7 2 13 2q63 0 65 -10q24 -103 158 -103q160 0 160 160t-160 160q-134 0 -158 -103q-2 -10 -65 -10q-6 0 -13 2q-24 6 -24 18v2q24 191 260 191q260 0 260 -260q0 -60 -14 -105q52 -55 174 -55
q160 0 160 160t-160 160q-21 0 -34 5t-18 35q-1 9 -1 17q0 18 8 28q12 15 45 15q260 0 260 -260q0 -228 -200 -256v-196q0 -178 -168 -178h-583q-169 0 -169 178v904q0 178 169 178h621q26 0 26 -50t-26 -50h-621q-69 0 -69 -78v-904q0 -78 69 -78h583q68 0 68 78v194z" />
    <glyph glyph-name="u102A" unicode="&#x102a;" horiz-adv-x="2220" 
d="M300 0q-260 0 -260 260t260 260q236 0 260 -191v-2q0 -12 -24 -18q-7 -2 -13 -2q-63 0 -65 10q-24 103 -158 103q-160 0 -160 -160t160 -160q120 0 120 50q0 34 -69 34q-88 0 -93 -24t-32 -24q-7 0 -16 2q-36 7 -36 31q0 3 1 7q20 108 176 108q169 0 169 -134
q0 -150 -220 -150zM1850 790q-85 0 -85 -75t84 -97q41 -8 41 -43t-40 -35q-175 0 -175 175t175 175t175 -163q0 -15 -45 -15t-45 15q0 63 -85 63zM1460 1q-115 11 -170 81q-64 -82 -210 -82q-236 0 -260 191v2q0 12 24 18q7 2 13 2q63 0 65 -10q24 -103 158 -103
q160 0 160 160t-160 160q-134 0 -158 -103q-2 -10 -65 -10q-6 0 -13 2q-24 6 -24 18v2q24 191 260 191q260 0 260 -260q0 -60 -14 -105q52 -55 174 -55q160 0 160 160t-160 160q-21 0 -34 5t-18 35q-1 9 -1 17q0 18 8 28q12 15 45 15q145 0 210 -81q6 7 15 16q65 65 195 65
q260 0 260 -260t-260 -260q-33 0 -45 15q-8 10 -8 28q0 8 1 17q5 30 18 35t34 5q160 0 160 160t-160 160q-105 0 -157 -40q-9 -7 -17 -12q14 -47 14 -108q0 -228 -200 -256v-196q0 -178 -168 -178h-583q-169 0 -169 178v904q0 178 169 178h621q26 0 26 -50t-26 -50h-621
q-69 0 -69 -78v-904q0 -78 69 -78h583q68 0 68 78v193z" />
    <glyph glyph-name="u102B" unicode="&#x102b;" horiz-adv-x="180" 
d="M-30 750q-70 0 -70 -61q0 -22 -50 -22t-50 22q0 161 170 161t170 -183v-643q0 -24 -50 -24t-50 24v643q0 83 -70 83z" />
    <glyph glyph-name="u102C" unicode="&#x102c;" horiz-adv-x="420" 
d="M120 520q260 0 260 -260t-260 -260q-33 0 -45 15q-8 10 -8 28q0 8 1 17q5 30 18 35t34 5q160 0 160 160t-160 160q-105 0 -157 -40q-33 -25 -55 -25q-13 0 -23 10q-7 7 -7 17q0 26 47 73q65 65 195 65z" />
    <glyph glyph-name="u102D" unicode="&#x102d;" horiz-adv-x="0" 
d="M-300 790q-85 0 -85 -75t85 -75t85 75t-85 75zM-300 890q175 0 175 -175t-175 -175t-175 175t175 175z" />
    <glyph glyph-name="u102E" unicode="&#x102e;" horiz-adv-x="0" 
d="M-215 718q-2 72 -85 72q-84 0 -85 -72q34 17 85 17t85 -17zM-370 665q21 -25 70 -25t70 25q-25 20 -70 20t-70 -20zM-300 890q175 0 175 -175t-175 -175t-175 175t175 175z" />
    <glyph glyph-name="u102F" unicode="&#x102f;" horiz-adv-x="0" 
d="M-253 -270h31q33 0 33 -50t-33 -50h-31q-122 0 -122 120v205q0 25 50 25t50 -25v-205q0 -20 22 -20z" />
    <glyph glyph-name="u1030" unicode="&#x1030;" horiz-adv-x="0" 
d="M-350 -20q50 0 50 -27v-295q0 -28 -50 -28t-50 28v295q0 27 50 27zM-148 -270h31q33 0 33 -50t-33 -50h-31q-122 0 -122 120v205q0 25 50 25t50 -25v-205q0 -20 22 -20z" />
    <glyph glyph-name="u1031" unicode="&#x1031;" 
d="M300 0q-260 0 -260 260t260 260q236 0 260 -191v-2q0 -12 -24 -18q-7 -2 -13 -2q-63 0 -65 10q-24 103 -158 103q-160 0 -160 -160t160 -160q120 0 120 50q0 34 -69 34q-88 0 -93 -24t-32 -24q-7 0 -16 2q-36 7 -36 31q0 3 1 7q20 108 176 108q169 0 169 -134
q0 -150 -220 -150z" />
    <glyph glyph-name="u1032" unicode="&#x1032;" horiz-adv-x="0" 
d="M-468 827q-7 7 -7 15q0 4 2 9q4 13 22 31q17 17 30 22q4 1 8 1q9 0 16 -7l266 -266q7 -7 7 -15q0 -5 -2 -10q-4 -12 -21 -29q-18 -18 -31 -22q-5 -2 -9 -2q-8 0 -15 7z" />
    <glyph glyph-name="u1033" unicode="&#x1033;" horiz-adv-x="0" 
d="M-300 810q-105 0 -105 -95t105 -95t105 95t-105 95zM-300 890q175 0 175 -175t-175 -175t-175 175t175 175zM-300 780q75 0 75 -65t-75 -65t-75 65t75 65zM-275 715q0 15 -25 15t-25 -15t25 -15t25 15z" />
    <glyph glyph-name="u1034" unicode="&#x1034;" horiz-adv-x="0" 
d="M-397 561q-7 -7 -15 -7q-4 0 -9 2q-13 4 -31 22q-17 17 -21 29q-2 5 -2 10q0 8 7 15l266 266q7 7 16 7q4 0 8 -1q13 -5 30 -22q18 -18 22 -31q2 -5 2 -9q0 -8 -7 -15z" />
    <glyph glyph-name="u1035" unicode="&#x1035;" horiz-adv-x="0" 
d="M-475 715q0 175 175 175t175 -143q0 -15 -41 -15q-42 0 -49 15q-20 43 -85 43q-85 0 -85 -75q0 -11 10 -27q37 47 81 47q55 0 105 -23.5t50 -86.5q0 -85 -161 -85q-175 0 -175 175zM-341 649q19 -9 41 -9q48 0 82 9q-26 16 -76 16q-22 0 -47 -16z" />
    <glyph glyph-name="u1036" unicode="&#x1036;" horiz-adv-x="0" 
d="M-300 740q100 0 100 -100t-100 -100t-100 100t100 100zM-270 640q0 30 -30 30t-30 -30t30 -30t30 30z" />
    <glyph glyph-name="u1037" unicode="&#x1037;" horiz-adv-x="0" 
d="M-300 -50q100 0 100 -100t-100 -100t-100 100t100 100zM-270 -150q0 30 -30 30t-30 -30t30 -30t30 30z" />
    <glyph glyph-name="u1038" unicode="&#x1038;" horiz-adv-x="280" 
d="M140 220q100 0 100 -100t-100 -100t-100 100t100 100zM170 120q0 30 -30 30t-30 -30t30 -30t30 30zM140 500q100 0 100 -100t-100 -100t-100 100t100 100zM170 400q0 30 -30 30t-30 -30t30 -30t30 30z" />
    <glyph glyph-name="u1039" unicode="&#x1039;" horiz-adv-x="0" 
d="M-325 -160h-90v50h90v90h50v-90h90v-50h-90v-90h-50v90z" />
    <glyph glyph-name="u103A" unicode="&#x103a;" horiz-adv-x="0" 
d="M-300 790q-85 0 -85 -75t84 -97q41 -8 41 -43t-40 -35q-175 0 -175 175t175 175t175 -163q0 -15 -45 -15t-45 15q0 63 -85 63z" />
    <glyph glyph-name="u103B" unicode="&#x103b;" horiz-adv-x="180" 
d="M-27 -370q-168 0 -168 160v155q0 35 50 35t50 -35v-155q0 -60 68 -60q67 0 67 60v695q0 35 50 35t50 -35v-695q0 -160 -167 -160z" />
    <glyph glyph-name="u103C" unicode="&#x103c;" horiz-adv-x="180" 
d="M572 -270q68 0 68 78v266q0 26 50 26t50 -26v-266q0 -178 -168 -178h-363q-169 0 -169 178v904q0 178 169 178h363q168 0 168 -178v-86q0 -26 -50 -26t-50 26v86q0 78 -68 78h-363q-69 0 -69 -78v-904q0 -78 69 -78h363z" />
    <glyph glyph-name="u103D" unicode="&#x103d;" horiz-adv-x="0" 
d="M-300 -120q-85 0 -85 -75t85 -75t85 75t-85 75zM-300 -20q175 0 175 -175t-175 -175t-175 175t175 175z" />
    <glyph glyph-name="u103E" unicode="&#x103e;" horiz-adv-x="0" 
d="M-365 -250v205q0 25 50 25t50 -25v-205q0 -120 -122 -120h-31q-33 0 -33 50t33 50h31q22 0 22 20z" />
    <glyph glyph-name="u103F" unicode="&#x103f;" horiz-adv-x="1440" 
d="M966 155q51 -55 174 -55q160 0 160 160t-160 160q-21 0 -34 5t-18 35q-1 9 -1 17q0 18 8 28q12 15 45 15q260 0 260 -260t-260 -260q-146 0 -210 82q-64 -82 -210 -82t-210 82q-64 -82 -210 -82q-236 0 -260 191v2q0 12 24 18q7 2 13 2q63 0 65 -10q24 -103 158 -103
q160 0 160 160t-160 160q-134 0 -158 -103q-2 -10 -65 -10q-6 0 -13 2q-24 6 -24 18v2q24 191 260 191q260 0 260 -260q0 -60 -14 -105q52 -55 174 -55q160 0 160 160t-160 160q-21 0 -34 5t-18 35q-1 9 -1 17q0 18 8 28q12 15 45 15q260 0 260 -260q0 -59 -14 -105z" />
    <glyph glyph-name="u1040" unicode="&#x1040;" 
d="M300 420q-160 0 -160 -160t160 -160t160 160t-160 160zM300 520q260 0 260 -260t-260 -260t-260 260t260 260z" />
    <glyph glyph-name="u1041" unicode="&#x1041;" 
d="M560 260q0 -260 -260 -260q-236 0 -260 191v2q0 12 24 18q7 2 13 2q63 0 65 -10q24 -103 158 -103q160 0 160 160t-160 160q-134 0 -158 -103q-2 -10 -65 -10q-6 0 -13 2q-24 6 -24 18v2q24 191 260 191q260 0 260 -260z" />
    <glyph glyph-name="u1042" unicode="&#x1042;" 
d="M40 -40q0 26 50 26t50 -26q0 -160 160 -160t160 160v532q0 28 50 28t50 -28v-532q0 -260 -260 -260t-260 260z" />
    <glyph glyph-name="u1043" unicode="&#x1043;" 
d="M291 0l178 -178q7 -7 7 -15q0 -5 -2 -10q-4 -12 -21 -29q-18 -18 -31 -22q-5 -2 -9 -2q-8 0 -15 7l-266 266q-79 68 -92 174v2q0 12 24 18q7 2 13 2q63 0 65 -10q24 -103 158 -103q160 0 160 160t-160 160q-134 0 -158 -103q-2 -10 -65 -10q-6 0 -13 2q-24 6 -24 18v2
q24 191 260 191q260 0 260 -260t-260 -260h-9z" />
    <glyph glyph-name="u1044" unicode="&#x1044;" 
d="M300 0q-260 0 -260 260t260 260q236 0 260 -191v-2q0 -12 -24 -18q-7 -2 -13 -2q-63 0 -65 10q-24 103 -158 103q-160 0 -160 -160t160 -160q134 0 158 103q2 10 65 10q6 0 13 -2q24 -6 24 -18v-2q-13 -106 -92 -174l-266 -266q-7 -7 -15 -7q-4 0 -9 2q-13 4 -31 22
q-17 17 -21 29q-2 5 -2 10q0 8 7 15l178 178h-9z" />
    <glyph glyph-name="u1045" unicode="&#x1045;" 
d="M163 358q77 -10 77 -98q0 -100 -100 -100t-100 100q0 260 260 260t260 -260v-300q0 -260 -260 -260t-260 260q0 20 50 20t50 -20q0 -160 160 -160t160 160v300q0 160 -160 160q-99 0 -137 -62zM170 260q0 30 -30 30t-30 -30t30 -30t30 30z" />
    <glyph glyph-name="u1046" unicode="&#x1046;" 
d="M560 260q0 -260 -260 -260t-260 260v370q0 260 260 260t260 -260q0 -25 -50 -25t-50 25q0 160 -160 160t-160 -160v-370q0 -160 160 -160t160 160v23l-94 23q-86 17 -86 114q0 110 99 110q151 0 151 -128q0 -15 -50 -15t-50 15q0 38 -51 38q-19 0 -19 -20q0 -31 33 -35
l167 -37v-88z" />
    <glyph glyph-name="u1047" unicode="&#x1047;" 
d="M460 260q0 160 -160 160t-160 -160q0 -148 94 -160q12 -2 18 -13q2 -5 3 -15v-5q0 -10 -3 -24q-8 -33 -15 -38t-18 -5h-7q-172 27 -172 260q0 260 260 260t260 -260q0 -134 -135 -243.5t-135 -186.5q0 -30 40 -30t40 30v25q0 25 45 25t45 -25v-25q0 -130 -130 -130
t-130 130q0 102 130 211.5t130 218.5z" />
    <glyph glyph-name="u1048" unicode="&#x1048;" 
d="M40 260q0 260 260 260t260 -260q0 -236 -191 -260h-2q-12 0 -18 24q-2 7 -2 13q0 63 10 65q103 24 103 158q0 160 -160 160t-160 -160q0 -120 50 -120q34 0 34 69q0 88 -24 93t-24 32q0 7 2 16q7 36 31 36q3 0 7 -1q108 -20 108 -176q0 -169 -134 -169q-150 0 -150 220z
" />
    <glyph glyph-name="u1049" unicode="&#x1049;" 
d="M560 152l-167 -73q-33 -18 -33 -49q0 -30 19 -30q51 0 51 48q0 15 40 15t40 -15q0 -148 -131 -148q-99 0 -99 130q0 97 86 135l94 42v53q0 160 -160 160t-160 -160v-370q0 -160 160 -160t160 140q0 35 50 35t50 -35q0 -240 -260 -240t-260 260v370q0 260 260 260
t260 -260v-108z" />
    <glyph glyph-name="u104A" unicode="&#x104a;" horiz-adv-x="180" 
d="M90 520q50 0 50 -30v-460q0 -30 -50 -30t-50 30v460q0 30 50 30z" />
    <glyph glyph-name="u104B" unicode="&#x104b;" horiz-adv-x="340" 
d="M250 520q50 0 50 -30v-460q0 -30 -50 -30t-50 30v460q0 30 50 30zM90 520q50 0 50 -30v-460q0 -30 -50 -30t-50 30v460q0 30 50 30z" />
    <glyph glyph-name="u104C" unicode="&#x104c;" 
d="M300 790q-85 0 -85 -75t84 -97q41 -8 41 -43t-40 -35q-175 0 -175 175t175 175t175 -163q0 -15 -45 -15t-45 15q0 63 -85 63zM140 -31q66 -29 160 -29q146 0 223 69l37 -18v-183q0 -178 -168 -178h-183q-169 0 -169 134v62q0 22 50 22t50 -22v-62q0 -34 69 -34h183
q68 0 68 78v56q-69 -24 -160 -24q-170 0 -260 81v272q0 12 24 18q7 2 13 2q63 0 65 -10q24 -103 158 -103q160 0 160 160t-160 160q-134 0 -158 -103q-2 -10 -65 -10q-6 0 -13 2q-24 6 -24 18v2q24 191 260 191q260 0 260 -260t-260 -260q-98 0 -160 33v-64z" />
    <glyph glyph-name="u104D" unicode="&#x104d;" horiz-adv-x="780" 
d="M460 260q0 160 -160 160t-160 -160t150 -160q30 0 30 30q0 84 -89 84q-28 0 -48 -6q-3 -1 -6 -1q-16 0 -23 31q-2 10 -2 19q0 23 14 37q19 20 65 20q189 0 189 -184q0 -130 -130 -130q-250 0 -250 260t260 260t260 -260v-450q0 -30 -50 -30t-50 30v450zM209 -370
q-169 0 -169 159t169 159h191q32 0 32 -50t-32 -50h-191q-69 0 -69 -59t69 -59h363q68 0 68 78v452q0 280 -87 280q-165 0 -165 175t175 175q144 0 167 -130v-4q0 -16 -22 -21q-7 -2 -13 -2q-53 0 -57 11q-14 46 -75 46q-85 0 -85 -75t75 -75q187 0 187 -380v-452
q0 -178 -168 -178h-363z" />
    <glyph glyph-name="u104E" unicode="&#x104e;" 
d="M560 -347q0 -23 -50 -23t-50 23v380q-62 -33 -160 -33q-260 0 -260 260t260 260q236 0 260 -191v-2q0 -12 -24 -18q-7 -2 -13 -2q-63 0 -65 10q-24 103 -158 103q-160 0 -160 -160t160 -160q134 0 158 103q2 10 65 10q6 0 13 -2q24 -6 24 -18v-540z" />
    <glyph glyph-name="u104F" unicode="&#x104f;" horiz-adv-x="960" 
d="M820 340q0 200 -77 200q-175 0 -175 175t175 175q144 0 167 -130v-4q0 -16 -22 -21q-7 -2 -13 -2q-53 0 -57 11q-14 46 -75 46q-85 0 -85 -75t85 -75q177 0 177 -300v-316q0 -24 -50 -24t-50 24v316zM484 493q30 27 86 27q170 0 170 -183v-313q0 -24 -50 -24t-50 24v313
q0 83 -70 83h-13q3 -13 3 -28q0 -105 -209 -105q-156 0 -176 72q-1 4 -1 6q0 22 36 29q9 2 16 2q27 0 32 -13t93 -13q109 0 109 22q0 36 -160 36t-160 -168t160 -168t160 36q0 22 -109 22q-88 0 -93 -13t-32 -13q-7 0 -16 2q-36 7 -36 29q0 2 1 6q20 72 176 72
q209 0 209 -105q0 -128 -260 -128t-260 260t260 260q119 0 184 -27z" />
    <glyph glyph-name="u1050" unicode="&#x1050;" 
d="M300 310q50 0 50 -50t-50 -50t-50 50t50 50zM300 520q260 0 260 -260q0 -233 -172 -260h-7q-11 0 -18 5t-15 38q-3 14 -3 24v5q1 10 3 15q6 11 18 13q94 12 94 160q0 160 -160 160t-160 -160q0 -148 94 -160q12 -2 18 -13q2 -5 3 -15v-5q0 -10 -3 -24q-8 -33 -15 -38
t-18 -5h-7q-172 27 -172 260q0 260 260 260z" />
    <glyph glyph-name="u1051" unicode="&#x1051;" 
d="M250 260q0 50 50 50t50 -50t-50 -50t-50 50zM40 260q0 233 172 260h7q11 0 18 -5t15 -38q3 -14 3 -24v-5q-1 -10 -3 -15q-6 -11 -18 -13q-94 -12 -94 -160q0 -160 160 -160t160 160q0 148 -94 160q-12 2 -18 13q-2 5 -3 15v5q0 10 3 24q8 33 15 38t18 5h7
q172 -27 172 -260q0 -260 -260 -260t-260 260z" />
    <glyph glyph-name="u1052" unicode="&#x1052;" 
d="M390.5 291q-69.5 37 -69.5 132q0 48 36 72.5t72 24.5q45 0 122 -40q9 -5 9 -30q0 -26 -8 -41q-12 -26 -25 -26q-4 0 -7 2q-48 25 -89 25q-10 0 -10 -17t69.5 -54.5t69.5 -98.5q0 -240 -260 -240t-260 260q0 233 172 260h7q11 0 18 -5t15 -38q3 -14 3 -24v-5
q-1 -10 -3 -15q-6 -11 -18 -13q-94 -12 -94 -160q0 -160 160 -160t160 140q0 14 -69.5 51z" />
    <glyph glyph-name="u1053" unicode="&#x1053;" 
d="M300 0q-260 0 -260 240q0 61 69.5 98.5t69.5 54.5t-10 17q-41 0 -89 -25q-3 -2 -7 -2q-13 0 -25 26q-8 15 -8 41q0 25 9 30q77 40 122 40q36 0 72 -24.5t36 -72.5q0 -95 -69.5 -132t-69.5 -51q0 -140 160 -140t160 140q0 14 -69.5 51t-69.5 132q0 48 36 72.5t72 24.5
q45 0 122 -40q9 -5 9 -30q0 -26 -8 -41q-12 -26 -25 -26q-4 0 -7 2q-48 25 -89 25q-10 0 -10 -17t69.5 -54.5t69.5 -98.5q0 -240 -260 -240z" />
    <glyph glyph-name="u1054" unicode="&#x1054;" 
d="M520 370q0 -134 -169 -134q-156 0 -176 108q-1 4 -1 7q0 24 36 31q9 2 16 2q27 0 32 -24t93 -24q69 0 69 34q0 50 -120 50q-160 0 -160 -160t160 -160q134 0 158 103q2 10 65 10q6 0 13 -2q24 -6 24 -18v-2q-24 -191 -260 -191q-260 0 -260 260t260 260q220 0 220 -150z
" />
    <glyph glyph-name="u1055" unicode="&#x1055;" 
d="M140 260q0 -160 50 -160q64 0 88 103q2 10 15 10q6 0 13 -2q24 -6 24 -18v-2l-2 -12q21 -79 92 -79q24 0 48 103q2 10 55 10q6 0 13 -2q24 -6 24 -18v-2q-24 -191 -140 -191q-82 0 -119 78q-37 -78 -111 -78q-150 0 -150 260t260 260q220 0 220 -150q0 -134 -169 -134
q-156 0 -176 108q-1 4 -1 7q0 24 36 31q9 2 16 2q27 0 32 -24t93 -24q69 0 69 34q0 50 -120 50q-160 0 -160 -160z" />
    <glyph glyph-name="u1056" unicode="&#x1056;" horiz-adv-x="420" 
d="M120 0q-260 0 -260 260h100q0 -160 160 -160t160 140q0 14 -69.5 51t-69.5 132q0 48 36 72.5t72 24.5q45 0 122 -40q9 -5 9 -30q0 -26 -8 -41q-12 -26 -25 -26q-4 0 -7 2q-48 25 -89 25q-10 0 -10 -17t69.5 -54.5t69.5 -98.5q0 -240 -260 -240z" />
    <glyph glyph-name="u1057" unicode="&#x1057;" horiz-adv-x="420" 
d="M380 260q0 -260 -140 -260q-64 0 -101 78q-37 -78 -109 -78q-126 0 -150 191v2q0 12 24 18q7 2 13 2q53 0 55 -10q24 -103 58 -103q61 0 82 79l-2 12v2q0 12 24 18q7 2 13 2q13 0 15 -10q24 -103 78 -103q40 0 40 160q0 14 -69.5 51t-69.5 112q0 48 36 72.5t72 24.5
q45 0 122 -40q9 -5 9 -16q0 -10 -8 -25q-12 -26 -25 -26q-4 0 -7 2q-48 25 -89 25q-10 0 -10 -17t69.5 -54.5t69.5 -108.5z" />
    <glyph glyph-name="u1058" unicode="&#x1058;" horiz-adv-x="0" 
d="M-300 -20q161 0 161 -85q0 -43 -50 -71.5t-95 -28.5q-54 0 -91 47q-10 -16 -10 -37q0 -75 85 -75q65 0 85 43q7 15 49 15q41 0 41 -15q0 -143 -175 -143t-175 175t175 175zM-284 -155q40 0 66 26q-34 9 -82 9q-12 0 -31 -9q25 -26 47 -26z" />
    <glyph glyph-name="u1059" unicode="&#x1059;" horiz-adv-x="0" 
d="M-294 -155q50 0 76 26q-34 9 -82 9q-12 0 -41 -9q25 -26 47 -26zM-265 -258q13 -12 35 -12q15 0 18.5 19t45.5 19q41 0 41 -15q0 -123 -105 -123q-40 0 -65 26q-26 -26 -75 -26q-105 0 -105 175t175 175q161 0 161 -85q0 -43 -50 -71.5t-105 -28.5q-44 0 -81 47
q-10 -16 -10 -37q0 -75 25 -75t45 23q7 15 25 15q25 0 25 -15v-11z" />
    <glyph glyph-name="u105A" unicode="&#x105a;" 
d="M335 -125q0 25 -35 25t-35 -12q0 -13 -40 -13t-40 13q0 92 115 92t115 -105q0 -63 -45 -95t-45 -51t25 -19q33 0 33 -40t-33 -40q-115 0 -115 99q0 50 50 79t50 67zM300 520q236 0 260 -191v-2q0 -12 -24 -18q-7 -2 -13 -2q-63 0 -65 10q-24 103 -158 103
q-160 0 -160 -160t160 -160q134 0 158 103q2 10 65 10q6 0 13 -2q24 -6 24 -18v-2q-24 -191 -260 -191q-260 0 -260 260t260 260z" />
    <glyph glyph-name="u105B" unicode="&#x105b;" horiz-adv-x="730" 
d="M393 413q-2 -9 -2 -21q0 -38 40 -38q22 0 34 13q-14 36 -72 46zM640 213q-91 13 -127 96q-1 1 -2 1q-27 -26 -80 -26q-110 0 -110 110q0 14 2 26h-23q-160 0 -160 -160t160 -160q134 0 158 103q2 10 65 10q6 0 13 -2q24 -6 24 -18v-2q-20 -158 -185 -185v-198
q0 -78 59 -78h147q59 0 59 78v405zM275 1q-235 12 -235 259q0 260 260 260q233 0 259 -185q24 -13 81 -21v183q0 23 50 23t50 -23v-689q0 -178 -159 -178h-147q-159 0 -159 178v193z" />
    <glyph glyph-name="u105C" unicode="&#x105c;" 
d="M300 420q-160 0 -160 -160t160 -160t160 160t-160 160zM300 520q260 0 260 -260t-260 -260t-260 260t260 260zM300 360q100 0 100 -100t-100 -100t-100 100t100 100zM330 260q0 30 -30 30t-30 -30t30 -30t30 30z" />
    <glyph glyph-name="u105D" unicode="&#x105d;" 
d="M492 62q68 -59 68 -150v-104q0 -178 -168 -178h-183q-169 0 -169 159t169 159h91q32 0 32 -50t-32 -50h-91q-69 0 -69 -59t69 -59h183q68 0 68 78v104q0 75 -41 106q-50 -18 -119 -18q-260 0 -260 260q0 233 172 260h7q11 0 18 -5t15 -38q3 -14 3 -24v-5q-1 -10 -3 -15
q-6 -11 -18 -13q-94 -12 -94 -160q0 -160 160 -160t160 160q0 148 -94 160q-12 2 -18 13q-2 5 -3 15v5q0 10 3 24q8 33 15 38t18 5h7q172 -27 172 -260q0 -133 -68 -198zM424 175q1 -4 1 -7q0 -20 -33 -26q-8 -2 -15 -2q-24 0 -28 21q-5 21 -49 21t-48 -21q-5 -21 -29 -21
q-7 0 -15 2q-33 6 -33 26q0 3 1 7q18 95 124 95t124 -95z" />
    <glyph glyph-name="u105E" unicode="&#x105e;" horiz-adv-x="0" 
d="M-140 -152h-251q-69 0 -69 -59t69 -59h183q68 0 68 78v40zM-42 -52h52q32 0 32 -50t-32 -50h-50v-40q0 -178 -168 -178h-183q-169 0 -169 159t169 159h248q-10 62 -59 82l97 35q54 -35 63 -117z" />
    <glyph glyph-name="u105F" unicode="&#x105f;" horiz-adv-x="0" 
d="M-300 -131q-55 0 -55 -62t55 -62t55 49q0 18 50 18t50 -18q0 -149 -155 -149t-155 162q0 124 143 138v55l102 -1v-131z" />
    <glyph glyph-name="u1060" unicode="&#x1060;" horiz-adv-x="0" 
d="M-327 -200h176v-100h-277l-21 41l175 213l39 -31z" />
    <glyph glyph-name="u1061" unicode="&#x1061;" 
d="M295 0h-5q-250 0 -250 260t260 260t260 -260v-479q0 -51 50 -51q30 0 30 -50t-30 -50q-150 0 -150 120v510q0 160 -160 160t-160 -160t150 -160q30 0 30 30q0 84 -89 84q-28 0 -48 -6q-3 -1 -6 -1q-16 0 -23 31q-2 10 -2 19q0 23 14 37q19 20 65 20q189 0 189 -184
q0 -57 -25 -89v-291q0 -120 -122 -120h-31q-33 0 -33 50t33 50h31q22 0 22 20v250z" />
    <glyph glyph-name="u1062" unicode="&#x1062;" horiz-adv-x="180" 
d="M140 0h-100v420h-80v100h180v-520z" />
    <glyph glyph-name="u1063" unicode="&#x1063;" 
d="M40 193q0 12 24 18q7 2 13 2q63 0 65 -10q24 -103 158 -103q160 0 160 160t-160 160q-134 0 -158 -103q-2 -10 -65 -10q-6 0 -13 2q-24 6 -24 18v2q24 191 260 191q260 0 260 -260t-260 -260q-98 0 -160 33v-380q0 -23 -50 -23t-50 23v540z" />
    <glyph glyph-name="u1064" unicode="&#x1064;" horiz-adv-x="260" 
d="M180 100h80v-100h-180v420h-80v100h180v-420z" />
    <glyph glyph-name="u1065" unicode="&#x1065;" 
d="M560 260q0 -260 -260 -260q-236 0 -260 191v2q0 12 24 18q7 2 13 2q63 0 65 -10q24 -103 158 -103q160 0 160 160t-160 160q-134 0 -158 -103q-2 -10 -65 -10q-6 0 -13 2q-24 6 -24 18v2q24 191 260 191q260 0 260 -260z" />
    <glyph glyph-name="u1066" unicode="&#x1066;" 
d="M305 0h-5q-260 0 -260 260q0 233 172 260h7q11 0 18 -5t15 -38q3 -14 3 -24v-5q-1 -10 -3 -15q-6 -11 -18 -13q-94 -12 -94 -160q0 -160 160 -160t160 160q0 148 -94 160q-12 2 -18 13q-2 5 -3 15v5q0 10 3 24q8 33 15 38t18 5h7q172 -27 172 -260q0 -201 -155 -246v-264
q0 -120 -122 -120h-31q-33 0 -33 50t33 50h31q22 0 22 20v250z" />
    <glyph glyph-name="u1067" unicode="&#x1067;" horiz-adv-x="270" 
d="M130 100q0 30 -50 30q-30 0 -30 -30t30 -30q50 0 50 30zM230 100q0 -100 -150 -100q-100 0 -100 100t100 100q29 0 50 -9v329h100v-420z" />
    <glyph glyph-name="u1068" unicode="&#x1068;" horiz-adv-x="180" 
d="M140 0h-180v100h80v420h100v-520zM85 740q100 0 100 -100t-100 -100t-100 100t100 100zM115 640q0 30 -30 30t-30 -30t30 -30t30 30z" />
    <glyph glyph-name="u1069" unicode="&#x1069;" horiz-adv-x="292" 
d="M140 133q0 -33 67 -33q45 0 45 -50t-45 -50q-167 0 -167 133q0 89 56 137.5t56 115.5q0 34 -67 34q-45 0 -45 50t45 50q167 0 167 -134q0 -89 -56 -137.5t-56 -115.5z" />
    <glyph glyph-name="u106A" unicode="&#x106a;" horiz-adv-x="180" 
d="M-15 100q55 0 55 43v377h100v-377q0 -143 -155 -143t-155 143h100q0 -43 55 -43z" />
    <glyph glyph-name="u106B" unicode="&#x106b;" horiz-adv-x="190" 
d="M-70 377h-100q0 143 155 143t155 -143v-377h-100v377q0 43 -55 43t-55 -43z" />
    <glyph glyph-name="u106C" unicode="&#x106c;" horiz-adv-x="180" 
d="M40 520h100v-377q0 -43 55 -43t55 43h100q0 -143 -155 -143t-155 143v377z" />
    <glyph glyph-name="u106D" unicode="&#x106d;" horiz-adv-x="292" 
d="M40 386q0 134 167 134q45 0 45 -50t-45 -50q-67 0 -67 -34q0 -67 56 -115.5t56 -137.5q0 -133 -167 -133q-45 0 -45 50t45 50q67 0 67 33q0 67 -56 115.5t-56 137.5z" />
    <glyph glyph-name="u106E" unicode="&#x106e;" horiz-adv-x="1210" 
d="M395 509q42 11 95 11q146 0 210 -82q64 82 210 82q260 0 260 -260t-260 -260q-33 0 -45 15q-8 10 -8 28q0 8 1 17q5 30 18 35t34 5q160 0 160 160t-160 160q-123 0 -174 -55q14 -45 14 -105q0 -233 -172 -260h-7q-11 0 -18 5t-15 38q-3 14 -3 24v5q1 10 3 15q6 11 18 13
q94 12 94 160q0 142 -126 158q36 -61 36 -158q0 -233 -172 -260h-7q-11 0 -18 5t-15 38q-3 14 -3 24v5q1 10 3 15q6 11 18 13q94 12 94 160q0 160 -160 160t-160 -160q0 -148 94 -160q12 -2 18 -13q2 -5 3 -15v-5q0 -10 -3 -24q-8 -33 -15 -38t-18 -5h-7q-172 27 -172 260
q0 260 260 260q53 0 95 -11z" />
    <glyph glyph-name="u106F" unicode="&#x106f;" horiz-adv-x="1020" 
d="M695 3q-13 4 -20 12q-8 10 -8 28q0 8 1 17q5 30 18 35t34 5q160 0 160 160t-160 160q-120 0 -172 -53q12 -47 12 -107q0 -260 -260 -260t-260 260q0 233 172 260h7q11 0 18 -5t15 -38q3 -14 3 -24v-5q-1 -10 -3 -15q-6 -11 -18 -13q-94 -12 -94 -160q0 -160 160 -160
t160 160q0 148 -94 160q-12 2 -18 13q-2 5 -3 15v5q0 10 3 24q8 33 15 38t18 5h7q84 -13 127 -76q65 76 205 76q260 0 260 -260q0 -219 -185 -254v-256q0 -120 -122 -120h-31q-33 0 -33 50t33 50h31q22 0 22 20v253z" />
    <glyph glyph-name="u1070" unicode="&#x1070;" horiz-adv-x="1020" 
d="M695 1q-127 6 -185 81q-64 -82 -210 -82q-260 0 -260 260q0 71 69.5 108.5t69.5 54.5t-10 17q-41 0 -89 -25q-3 -2 -7 -2q-13 0 -25 26q-8 15 -8 25q0 11 9 16q77 40 122 40q36 0 72 -24.5t36 -72.5q0 -75 -69.5 -112t-69.5 -51q0 -160 160 -160t160 160q0 148 -94 160
q-12 2 -18 13q-2 5 -3 15v5q0 10 3 24q8 33 15 38t18 5h7q172 -27 172 -260q0 -60 -14 -105q51 -55 174 -55q160 0 160 160t-160 160q-21 0 -34 5t-18 35q-1 9 -1 17q0 18 8 28q12 15 45 15q260 0 260 -260q0 -219 -185 -254v-256q0 -120 -122 -120h-31q-33 0 -33 50t33 50
h31q22 0 22 20v251z" />
    <glyph glyph-name="u1071" unicode="&#x1071;" horiz-adv-x="0" 
d="M-193 825q93 0 93 -100t-93 -100t-93 100t93 100zM-163 725q0 30 -30 30t-30 -30t30 -30t30 30zM-407 825q93 0 93 -100t-93 -100t-93 100t93 100zM-377 725q0 30 -30 30t-30 -30t30 -30t30 30z" />
    <glyph glyph-name="u1072" unicode="&#x1072;" horiz-adv-x="0" 
d="M-385 715q0 -75 85 -75q75 0 85 28q5 15 48 15q42 0 42 -15q0 -128 -175 -128t-175 175t175 175t175 -128q0 -15 -42 -15q-43 0 -48 15q-10 28 -85 28q-85 0 -85 -75z" />
    <glyph glyph-name="u1073" unicode="&#x1073;" horiz-adv-x="0" 
d="M-300 899l264 -264l-36 -85l-228 228l-229 -228l-35 85z" />
    <glyph glyph-name="u1074" unicode="&#x1074;" horiz-adv-x="0" 
d="M-215 715q0 76 -38 80q-14 1 -14 40v10q2 45 32 45h5q105 -13 105 -175q0 -175 -175 -175t-175 175q0 162 105 175h5q30 0 32 -45v-10q0 -39 -14 -40q-38 -4 -38 -80q0 -75 85 -75t85 75z" />
    <glyph glyph-name="u1075" unicode="&#x1075;" 
d="M300 520q260 0 260 -260q0 -233 -172 -260h-7q-11 0 -18 5t-15 38q-3 14 -3 24v5q1 10 3 15q6 11 18 13q94 12 94 160q0 160 -160 160t-160 -140q0 -14 69.5 -51t69.5 -132q0 -48 -36 -72.5t-72 -24.5q-45 0 -122 40q-9 5 -9 31q0 25 8 40q12 26 25 26q4 0 7 -2
q48 -25 89 -25q10 0 10 17t-69.5 54.5t-69.5 98.5q0 240 260 240z" />
    <glyph glyph-name="u1076" unicode="&#x1076;" 
d="M77 307q-26 0 -66.5 28.5t-40.5 135.5v25q0 24 25 24t25 -24v-25q0 -58 40 -70q54 119 240 119q260 0 260 -260t-260 -260q-220 0 -220 150q0 134 169 134q156 0 176 -108q1 -4 1 -7q0 -24 -36 -31q-9 -2 -16 -2q-27 0 -32 24t-93 24q-69 0 -69 -34q0 -50 120 -50
q160 0 160 160t-160 160q-134 0 -158 -103q-2 -10 -65 -10z" />
    <glyph glyph-name="u1077" unicode="&#x1077;" 
d="M300 520q260 0 260 -260t-130 -260q-114 0 -114 169q0 156 88 176q4 1 7 1q24 0 31 -36q2 -9 2 -16q0 -27 -24 -32t-24 -93q0 -69 34 -69q30 0 30 160t-160 160t-160 -140q0 -14 69.5 -51t69.5 -132q0 -48 -36 -72.5t-72 -24.5q-45 0 -122 40q-9 5 -9 16q0 40 8 55
q12 26 25 26q4 0 7 -2q48 -25 89 -25q10 0 10 17t-69.5 54.5t-69.5 98.5q0 240 260 240z" />
    <glyph glyph-name="u1078" unicode="&#x1078;" horiz-adv-x="1020" 
d="M560 260q0 -160 160 -160t160 160t-160 160t-160 -160zM720 520q260 0 260 -260t-260 -260t-260 260q0 60 14 106q-51 54 -174 54q-160 0 -160 -160t160 -160q21 0 34 -5t18 -35q1 -9 1 -17q0 -18 -8 -28q-12 -15 -45 -15q-260 0 -260 260t260 260q146 0 210 -82
q64 82 210 82z" />
    <glyph glyph-name="u1079" unicode="&#x1079;" horiz-adv-x="1020" 
d="M560 260q0 -160 160 -160t160 160t-160 160t-160 -160zM300 520q146 0 210 -82q64 82 210 82q260 0 260 -260t-260 -260t-260 260q0 60 14 106q-51 54 -174 54q-160 0 -160 -160t150 -160q30 0 30 30q0 84 -89 84q-28 0 -48 -6q-3 -1 -6 -1q-16 0 -23 31q-2 10 -2 19
q0 23 14 37q19 20 65 20q189 0 189 -184q0 -130 -130 -130q-250 0 -250 260t260 260z" />
    <glyph glyph-name="u107A" unicode="&#x107a;" horiz-adv-x="1020" 
d="M460 260q0 160 -160 160t-160 -160t160 -160q21 0 34 -5t18 -35q1 -9 1 -17q0 -18 -8 -28q-12 -15 -45 -15q-260 0 -260 260t260 260t260 -260q0 -160 160 -160t160 160t-160 160q-21 0 -34 5t-18 35q-1 9 -1 17q0 18 8 28q12 15 45 15q260 0 260 -260t-260 -260
q-99 0 -160 38v-288q0 -20 22 -20h31q33 0 33 -50t-33 -50h-31q-122 0 -122 120v510z" />
    <glyph glyph-name="u107B" unicode="&#x107b;" horiz-adv-x="1020" 
d="M300 420q-160 0 -160 -160t160 -160t160 160t-160 160zM980 260q0 -260 -250 -260q-130 0 -130 130q0 184 189 184q46 0 65 -20q14 -14 14 -37q0 -9 -2 -19q-7 -31 -23 -31q-3 0 -6 1q-20 6 -48 6q-89 0 -89 -84q0 -30 30 -30q150 0 150 160t-160 160q-123 0 -174 -54
q14 -46 14 -106q0 -260 -260 -260t-260 260t260 260q146 0 210 -82q64 82 210 82q260 0 260 -260z" />
    <glyph glyph-name="u107C" unicode="&#x107c;" horiz-adv-x="1020" 
d="M560 260q0 -160 160 -160q120 0 120 50q0 34 -69 34q-88 0 -93 -24t-32 -24q-7 0 -16 2q-36 7 -36 31q0 3 1 7q20 108 176 108q169 0 169 -134q0 -150 -220 -150q-146 0 -210 82q-64 -82 -210 -82q-220 0 -220 150q0 134 169 134q156 0 176 -108q1 -4 1 -7q0 -24 -36 -31
q-9 -2 -16 -2q-27 0 -32 24t-93 24q-69 0 -69 -34q0 -50 120 -50q160 0 160 160t-160 160q-134 0 -158 -103q-2 -10 -65 -10q-6 0 -13 2q-24 6 -24 18v2q24 191 260 191q146 0 210 -82q64 82 210 82q236 0 260 -191v-2q0 -12 -24 -18q-7 -2 -13 -2q-63 0 -65 10
q-24 103 -158 103q-160 0 -160 -160z" />
    <glyph glyph-name="u107D" unicode="&#x107d;" horiz-adv-x="1020" 
d="M300 100q160 0 160 160q0 260 260 260q236 0 260 -191v-2q0 -12 -24 -18q-7 -2 -13 -2q-63 0 -65 10q-24 103 -158 103q-160 0 -160 -160t160 -160q120 0 120 50q0 34 -69 34q-88 0 -93 -24t-32 -24q-7 0 -16 2q-36 7 -36 31q0 3 1 7q20 108 176 108q169 0 169 -134
q0 -150 -220 -150q-146 0 -210 82q-64 -82 -210 -82q-260 0 -260 240q0 61 69.5 98.5t69.5 54.5t-10 17q-41 0 -89 -25q-3 -2 -7 -2q-13 0 -25 26q-8 15 -8 41q0 25 9 30q77 40 122 40q36 0 72 -24.5t36 -72.5q0 -95 -69.5 -132t-69.5 -51q0 -140 160 -140z" />
    <glyph glyph-name="u107E" unicode="&#x107e;" horiz-adv-x="1020" 
d="M300 100q160 0 160 160q0 260 260 260q236 0 260 -191v-2q0 -12 -24 -18q-7 -2 -13 -2q-63 0 -65 10q-24 103 -158 103q-160 0 -160 -160t160 -160q120 0 120 50q0 34 -69 34q-88 0 -93 -24t-32 -24q-7 0 -16 2q-36 7 -36 31q0 3 1 7q20 108 176 108q169 0 169 -134
q0 -122 -145 -145v-255q0 -120 -122 -120h-31q-33 0 -33 50t33 50h31q22 0 22 20v251q-127 6 -185 81q-64 -82 -210 -82q-260 0 -260 240q0 61 69.5 98.5t69.5 54.5t-10 17q-41 0 -89 -25q-3 -2 -7 -2q-13 0 -25 26q-8 15 -8 41q0 25 9 30q77 40 122 40q36 0 72 -24.5
t36 -72.5q0 -95 -69.5 -132t-69.5 -51q0 -140 160 -140z" />
    <glyph glyph-name="u107F" unicode="&#x107f;" 
d="M190 480q134 0 134 -169q0 -156 -108 -176q-4 -1 -7 -1q-24 0 -31 36q-2 9 -2 16q0 27 24 32t24 93q0 69 -34 69q-50 0 -50 -120q0 -160 160 -160t160 160q0 134 -103 158q-10 2 -10 65q0 6 2 13q6 24 18 24h2q191 -24 191 -260q0 -260 -260 -260t-260 260q0 220 150 220
z" />
    <glyph glyph-name="u1080" unicode="&#x1080;" horiz-adv-x="1020" 
d="M510 81q-65 -81 -210 -81q-220 0 -220 150q0 134 169 134q156 0 176 -108q1 -4 1 -7q0 -24 -36 -31q-9 -2 -16 -2q-27 0 -32 24t-93 24q-69 0 -69 -34q0 -50 120 -50q160 0 160 160t-160 160q-134 0 -158 -103q-2 -10 -65 -10q-6 0 -13 2q-24 6 -24 18v2q24 191 260 191
q260 0 260 -260q0 -61 -14 -108q8 -5 17 -12q52 -40 157 -40q160 0 160 160t-160 160q-21 0 -34 5t-18 35q-1 9 -1 17q0 18 8 28q12 15 45 15q260 0 260 -260t-260 -260q-130 0 -195 65q-9 9 -15 16z" />
    <glyph glyph-name="u1081" unicode="&#x1081;" 
d="M155 17q-115 52 -115 243q0 260 260 260t260 -260q0 -233 -172 -260h-7q-11 0 -18 5t-15 38q-3 14 -3 24v5q1 10 3 15q6 11 18 13q94 12 94 160q0 160 -160 160t-160 -160q0 -148 94 -160q12 -2 18 -13q2 -5 3 -15v-322q0 -120 -122 -120h-31q-33 0 -33 50t33 50h31
q22 0 22 20v267z" />
    <glyph glyph-name="u1082" unicode="&#x1082;" horiz-adv-x="0" 
d="M-300 -120q-75 0 -75 -75t75 -75t85 28q5 15 48 15q42 0 42 -15q0 -128 -175 -128t-175 175t175 175q86 0 117 -33q19 -21 19 -38q0 -11 -7 -19q-15 -19 -27 -19q-3 0 -6 2q-15 7 -96 7z" />
    <glyph glyph-name="u1083" unicode="&#x1083;" horiz-adv-x="260" 
d="M80 420h-80v100h180v-790h80v-100h-180v790z" />
    <glyph glyph-name="u1084" unicode="&#x1084;" 
d="M300 260q0 -45 -30 -45q-130 -6 -130 -62q0 -53 160 -53t160 40q0 13 75 13q25 0 25 -13q0 -140 -260 -140t-260 153q0 73 87 107q-87 35 -87 107q0 153 260 153t260 -140q0 -13 -25 -13q-75 0 -75 13q0 40 -160 40t-160 -53q0 -56 130 -62q30 0 30 -45z" />
    <glyph glyph-name="u1085" unicode="&#x1085;" horiz-adv-x="0" 
d="M-384 715q-44 25 -44 75q0 100 145 100q47 0 79 -3q28 -4 28 -34v-9q-5 -37 -26 -37h-3q-24 3 -78 3q-45 0 -45 -20q0 -40 44 -40q31 0 31 -35t-31 -35q-44 0 -44 -40q0 -20 45 -20q54 0 78 3h3q21 0 26 -36v-10q0 -30 -28 -33q-32 -4 -79 -4q-145 0 -145 100q0 50 44 75
z" />
    <glyph glyph-name="u1086" unicode="&#x1086;" horiz-adv-x="0" 
d="M-270 760q0 30 -30 30t-30 -30t30 -30t30 30zM-200 728q0 -175 -151 -217l-16 48q87 25 109 107q-18 -6 -42 -6q-100 0 -100 100t100 100t100 -100v-32z" />
    <glyph glyph-name="u1087" unicode="&#x1087;" horiz-adv-x="280" 
d="M170 100q0 30 -30 30t-30 -30t30 -30t30 30zM240 68q0 -175 -151 -217l-16 48q87 25 109 107q-18 -6 -42 -6q-100 0 -100 100t100 100t100 -100v-32z" />
    <glyph glyph-name="u1088" unicode="&#x1088;" horiz-adv-x="280" 
d="M140 520q100 0 100 -100t-100 -100t-100 100t100 100zM170 420q0 30 -30 30t-30 -30t30 -30t30 30zM170 100q0 30 -30 30t-30 -30t30 -30t30 30zM240 68q0 -175 -151 -217l-16 48q87 25 109 107q-18 -6 -42 -6q-100 0 -100 100t100 100t100 -100v-32z" />
    <glyph glyph-name="u1089" unicode="&#x1089;" horiz-adv-x="280" 
d="M140 200q100 0 100 -100t-100 -100t-100 100t100 100zM170 100q0 30 -30 30t-30 -30t30 -30t30 30z" />
    <glyph glyph-name="u108A" unicode="&#x108a;" horiz-adv-x="430" 
d="M171 420q0 30 -30 30t-30 -30t30 -30t30 30zM141 320q-100 0 -100 100t100 100t100 -100q0 -25 -6 -43q82 22 107 110l48 -16q-42 -151 -217 -151h-32zM170 100q0 30 -30 30q-29 0 -29 -30t29 -30q30 0 30 30zM140 0q-100 0 -100 100t100 100t100 -100q0 -25 -6 -43
q82 22 107 110l48 -16q-42 -151 -217 -151h-32z" />
    <glyph glyph-name="u108B" unicode="&#x108b;" horiz-adv-x="280" 
d="M140 360q100 0 100 -100t-100 -100t-100 100t100 100zM170 260q0 30 -30 30t-30 -30t30 -30t30 30z" />
    <glyph glyph-name="u108C" unicode="&#x108c;" horiz-adv-x="520" 
d="M380 360q100 0 100 -100t-100 -100t-100 100t100 100zM410 260q0 30 -30 30t-30 -30t30 -30t30 30zM140 360q100 0 100 -100t-100 -100t-100 100t100 100zM170 260q0 30 -30 30t-30 -30t30 -30t30 30z" />
    <glyph glyph-name="u108D" unicode="&#x108d;" horiz-adv-x="0" 
d="M-75 -106v-50h-450v50h450z" />
    <glyph glyph-name="u108E" unicode="&#x108e;" 
d="M560 260q0 -260 -260 -260t-260 260t260 260t260 -260zM300 250q-106 0 -124 95q-1 4 -1 7q0 20 33 26q8 2 15 2q24 0 29 -21q4 -21 48 -21t49 21q4 21 28 21q7 0 15 -2q33 -6 33 -26q0 -3 -1 -7q-18 -95 -124 -95zM460 260q0 160 -160 160t-160 -160t160 -160t160 160z
" />
    <glyph glyph-name="u108F" unicode="&#x108f;" horiz-adv-x="280" 
d="M240 420q0 -100 -100 -100t-100 100t100 100t100 -100zM140 390q30 0 30 30t-30 30t-30 -30t30 -30zM140 70q30 0 30 30t-30 30t-30 -30t30 -30zM40 100q0 100 100 100t100 -100t-100 -100q-24 0 -42 6q22 -82 109 -107l-16 -48q-151 42 -151 217v32z" />
    <glyph glyph-name="u1090" unicode="&#x1090;" 
d="M300 420q-160 0 -160 -160t160 -160t160 160t-160 160zM300 520q260 0 260 -260t-260 -260t-260 260t260 260z" />
    <glyph glyph-name="u1091" unicode="&#x1091;" horiz-adv-x="370" 
d="M235 119l69 41l26 -93l-112 -67h-83v401l-69 -41l-26 93l112 67h83v-401z" />
    <glyph glyph-name="u1092" unicode="&#x1092;" 
d="M140 447q64 73 160 73q260 0 260 -260q0 -134 -130 -243.5t-130 -216.5h-100q0 132 130 241.5t130 218.5q0 160 -160 160t-160 -130h-100v270h100v-113z" />
    <glyph glyph-name="u1093" unicode="&#x1093;" horiz-adv-x="585" 
d="M369 520h21q155 0 155 -173v-347h-100v347q0 73 -55 73h-64l-190 -420l-96 20l327 731l96 -20z" />
    <glyph glyph-name="u1094" unicode="&#x1094;" horiz-adv-x="548" 
d="M264 520h149v-401l69 41l26 -93l-112 -67h-83v396l-177 -396l-96 20z" />
    <glyph glyph-name="u1095" unicode="&#x1095;" horiz-adv-x="480" 
d="M340 320h-75q-125 0 -125 -110t100 -110t100 160v60zM440 420h50v-100h-50v-60q0 -260 -200 -260t-200 210t225 210h75v280h100v-280z" />
    <glyph glyph-name="u1096" unicode="&#x1096;" horiz-adv-x="480" 
d="M340 260q0 160 -100 160t-100 -110t125 -110h75v60zM440 -180h-100v280h-75q-225 0 -225 210t200 210t200 -260v-60h50v-100h-50v-280z" />
    <glyph glyph-name="u1097" unicode="&#x1097;" horiz-adv-x="480" 
d="M279 420h-239v100h400v-33l-237 -387h237v-100h-400v31z" />
    <glyph glyph-name="u1098" unicode="&#x1098;" 
d="M300 420q-160 0 -160 -160t160 -160t160 160t-160 160zM300 570q160 0 160 160h100q0 -179 -124 -235q124 -56 124 -235q0 -260 -260 -260t-260 260q0 179 124 235q-124 56 -124 235h100q0 -160 160 -160z" />
    <glyph glyph-name="u1099" unicode="&#x1099;" 
d="M460 470q0 160 -160 160t-160 -160t160 -160t160 160zM140 0h-100q0 179 124 235q-124 56 -124 235q0 260 260 260t260 -260q0 -179 -124 -235q124 -56 124 -235h-100q0 160 -160 160t-160 -160z" />
    <glyph glyph-name="u109A" unicode="&#x109a;" horiz-adv-x="280" 
d="M140 520q100 0 100 -100t-100 -100t-100 100t100 100zM170 420q0 30 -30 30t-30 -30t30 -30t30 30z" />
    <glyph glyph-name="u109B" unicode="&#x109b;" horiz-adv-x="280" 
d="M170 420q0 30 -30 30t-30 -30t30 -30t30 30zM240 388q0 -175 -151 -217l-16 48q87 25 109 107q-18 -6 -42 -6q-100 0 -100 100t100 100t100 -100v-32z" />
    <glyph glyph-name="u109C" unicode="&#x109c;" horiz-adv-x="430" 
d="M141 130q-30 0 -30 -30t30 -30t30 30t-30 30zM173 200q175 0 217 -151l-48 -16q-25 88 -107 110q6 -18 6 -43q0 -100 -100 -100t-100 100t100 100h32zM140 450q-29 0 -29 -30t29 -30q30 0 30 30t-30 30zM172 520q175 0 217 -151l-48 -16q-25 88 -107 110q6 -18 6 -43
q0 -100 -100 -100t-100 100t100 100h32z" />
    <glyph glyph-name="u109D" unicode="&#x109d;" horiz-adv-x="0" 
d="M-185 640q-45 0 -45 -43h-100q0 143 145 143t145 -183v-157h-100v157q0 83 -45 83z" />
    <glyph glyph-name="u109E" unicode="&#x109e;" horiz-adv-x="260" 
d="M80 420h-80v100h180v-790h80v-100h-180v790zM130 740q100 0 100 -100t-100 -100t-100 100t100 100zM160 640q0 30 -30 30t-30 -30t30 -30t30 30z" />
    <glyph glyph-name="u109F" unicode="&#x109f;" horiz-adv-x="780" 
d="M460 260q0 160 -160 160t-160 -160t160 -160q21 0 34 -5t18 -35q1 -9 1 -17q0 -18 -8 -28q-12 -15 -45 -15q-260 0 -260 260t260 260t260 -260v-502q0 -28 40 -28t40 28v502q0 280 -77 280q-175 0 -175 175t175 175q144 0 167 -130v-4q0 -16 -22 -21q-7 -2 -13 -2
q-63 0 -67 11q-14 46 -65 46q-75 0 -75 -75t75 -75q177 0 177 -380v-502q0 -128 -140 -128t-140 128v502z" />
    <glyph glyph-name="uAA60" unicode="&#xaa60;" horiz-adv-x="1020" 
d="M300 420q-160 0 -160 -160t160 -160t160 160t-160 160zM980 260q0 -260 -250 -260q-130 0 -130 130q0 184 189 184q46 0 65 -20q14 -14 14 -37q0 -9 -2 -19q-7 -31 -23 -31q-3 0 -6 1q-20 6 -48 6q-89 0 -89 -84q0 -30 30 -30q150 0 150 160t-160 160q-123 0 -174 -54
q14 -46 14 -106q0 -260 -260 -260t-260 260t260 260q146 0 210 -82q64 82 210 82q260 0 260 -260z" />
    <glyph glyph-name="uAA61" unicode="&#xaa61;" horiz-adv-x="1020" 
d="M720 420q-160 0 -160 -160t160 -160t160 160t-160 160zM300 520q146 0 210 -82q64 82 210 82q260 0 260 -260t-260 -260q-140 0 -205 76q-43 -63 -127 -76h-7q-11 0 -18 5t-15 38q-3 14 -3 24v5q1 10 3 15q6 11 18 13q94 12 94 160q0 160 -160 160t-160 -140
q0 -14 69.5 -51t69.5 -132q0 -48 -36 -72.5t-72 -24.5q-45 0 -122 40q-9 5 -9 31q0 25 8 40q12 26 25 26q4 0 7 -2q48 -25 89 -25q10 0 10 17t-69.5 54.5t-69.5 98.5q0 240 260 240z" />
    <glyph glyph-name="uAA62" unicode="&#xaa62;" horiz-adv-x="797" 
d="M327 260q0 -160 170 -160q160 0 160 160t-160 160q-21 0 -34 5t-18 35q-1 9 -1 17q0 18 8 28q12 15 45 15q260 0 260 -260t-260 -260q-187 0 -240 134l-120 -134h-97v520h100v-394l123 134h64z" />
    <glyph glyph-name="uAA63" unicode="&#xaa63;" horiz-adv-x="1020" 
d="M720 420q-160 0 -160 -160t160 -160t160 160t-160 160zM300 520q146 0 210 -82q64 82 210 82q260 0 260 -260t-260 -260q-128 0 -193 63q-33 -63 -97 -63q-114 0 -114 169q0 156 88 176q4 1 7 1q24 0 31 -36q2 -9 2 -16q0 -27 -24 -32t-24 -93q0 -69 34 -69q30 0 30 160
t-160 160t-160 -140q0 -14 69.5 -51t69.5 -132q0 -48 -36 -72.5t-72 -24.5q-45 0 -122 40q-9 5 -9 31q0 25 8 40q12 26 25 26q4 0 7 -2q48 -25 89 -25q10 0 10 17t-69.5 54.5t-69.5 98.5q0 240 260 240z" />
    <glyph glyph-name="uAA64" unicode="&#xaa64;" horiz-adv-x="1020" 
d="M720 420q-160 0 -160 -160t160 -160t160 160t-160 160zM510 82q-64 -82 -210 -82q-260 0 -260 260q0 233 172 260h7q11 0 18 -5t15 -38q3 -14 3 -24v-5q-1 -10 -3 -15q-6 -11 -18 -13q-94 -12 -94 -160q0 -160 160 -160t160 160q0 148 -94 160q-12 2 -18 13q-2 5 -3 15v5
q0 10 3 24q8 33 15 38t18 5h7q84 -13 127 -76q65 76 205 76q260 0 260 -260t-260 -260q-146 0 -210 82z" />
    <glyph glyph-name="uAA65" unicode="&#xaa65;" horiz-adv-x="1020" 
d="M560 -250q0 -120 -122 -120h-31q-33 0 -33 50t33 50h31q22 0 22 20v288q-61 -38 -160 -38q-260 0 -260 260t260 260q33 0 45 -15q8 -10 8 -28q0 -8 -1 -17q-5 -30 -18 -35t-34 -5q-160 0 -160 -160t160 -160t160 160q0 260 260 260t260 -260t-260 -260q-33 0 -45 15
q-8 10 -8 28q0 8 1 17q5 30 18 35t34 5q160 0 160 160t-160 160t-160 -160v-510z" />
    <glyph glyph-name="uAA66" unicode="&#xaa66;" horiz-adv-x="1020" 
d="M300 295q35 0 35 -35t-35 -35t-35 35t35 35zM300 420q-160 0 -160 -160t160 -160t160 160t-160 160zM510 438q64 82 210 82q260 0 260 -260t-260 -260q-33 0 -45 15q-8 10 -8 28q0 8 1 17q5 30 18 35t34 5q160 0 160 160t-160 160q-123 0 -174 -54q14 -46 14 -106
q0 -260 -260 -260t-260 260t260 260q146 0 210 -82z" />
    <glyph glyph-name="uAA67" unicode="&#xaa67;" horiz-adv-x="1020" 
d="M300 295q35 0 35 -35t-35 -35t-35 35t35 35zM300 420q-160 0 -160 -160t160 -160t160 160t-160 160zM546 154q52 -54 174 -54q160 0 160 160t-160 160q-123 0 -174 -55q14 -46 14 -105q0 -60 -14 -106zM510 438q64 82 210 82q260 0 260 -260t-260 -260q-146 0 -210 82
q-64 -82 -210 -82q-260 0 -260 260t260 260q146 0 210 -82z" />
    <glyph glyph-name="uAA68" unicode="&#xaa68;" horiz-adv-x="1020" 
d="M300 295q35 0 35 -35t-35 -35t-35 35t35 35zM300 420q-160 0 -160 -160t160 -160t160 160t-160 160zM980 260q0 -260 -250 -260q-130 0 -130 130q0 184 189 184q46 0 65 -20q14 -14 14 -37q0 -9 -2 -19q-7 -31 -23 -31q-3 0 -6 1q-20 6 -48 6q-89 0 -89 -84q0 -30 30 -30
q150 0 150 160t-160 160q-123 0 -174 -54q14 -46 14 -106q0 -260 -260 -260t-260 260t260 260q146 0 210 -82q64 82 210 82q260 0 260 -260z" />
    <glyph glyph-name="uAA69" unicode="&#xaa69;" horiz-adv-x="1020" 
d="M300 295q35 0 35 -35t-35 -35t-35 35t35 35zM300 420q-160 0 -160 -160t160 -160t160 160t-160 160zM759 103q121 18 121 157q0 160 -160 160q-123 0 -174 -55q12 -41 14 -92v1q179 -8 199 -171zM559 223q-3 -38 -13 -69q49 -51 160 -54q-22 113 -147 123zM510 438
q64 82 210 82q260 0 260 -260t-260 -260q-146 0 -210 82q-64 -82 -210 -82q-260 0 -260 260t260 260q146 0 210 -82z" />
    <glyph glyph-name="uAA6A" unicode="&#xaa6a;" horiz-adv-x="1020" 
d="M300 420q-160 0 -160 -160t160 -160t160 160t-160 160zM759 103q121 18 121 157q0 160 -160 160q-123 0 -174 -55q12 -41 14 -92v1q179 -8 199 -171zM559 223q-3 -38 -13 -69q49 -51 160 -54q-22 113 -147 123zM510 438q64 82 210 82q260 0 260 -260t-260 -260
q-146 0 -210 82q-64 -82 -210 -82q-260 0 -260 260t260 260q146 0 210 -82z" />
    <glyph glyph-name="uAA6B" unicode="&#xaa6b;" 
d="M107 339q-17 -33 -17 -79q0 -136 122 -157q-5 152 -105 236zM56 373q-64 56 -64 147h50q0 -59 37 -98q62 98 221 98q260 0 260 -260q0 -233 -172 -260h-7q-11 0 -18 5t-15 38q-3 14 -3 24v5q1 10 3 15q6 11 18 13q94 12 94 160q0 160 -160 160q-109 0 -161 -43
q123 -114 123 -290q0 -48 -12.5 -67.5t-37.5 -19.5q-172 27 -172 260q0 65 16 113z" />
    <glyph glyph-name="uAA6C" unicode="&#xaa6c;" horiz-adv-x="1020" 
d="M510 470q-61 0 -63 -33q43 -64 43 -177q0 -260 -225 -260t-225 260t220 260q31 0 31 -50t-31 -50q-120 0 -120 -160h-1q0 -160 125 -160t125 160q0 102 -42 155v20q0 85 163 85t163 -85v-20q-42 -53 -42 -155q0 -160 125 -160t125 160h-1q0 160 -120 160q-31 0 -31 50
t31 50q220 0 220 -260t-225 -260t-225 260q0 113 43 177q-2 33 -63 33z" />
    <glyph glyph-name="uAA6D" unicode="&#xaa6d;" horiz-adv-x="680" 
d="M128 420q0 30 -30 30t-30 -30t30 -30t30 30zM540 260q0 160 -160 160t-160 -160v-447q0 -183 -170 -183t-170 183h100q0 -83 70 -83t70 83v447q0 33 4 62q-12 -2 -26 -2q-100 0 -100 100t100 100q76 0 94 -58q65 58 188 58q260 0 260 -260t-260 -260q-33 0 -45 15
q-8 10 -8 28q0 8 1 17q5 30 18 35t34 5q160 0 160 160z" />
    <glyph glyph-name="uAA6E" unicode="&#xaa6e;" horiz-adv-x="1020" 
d="M300 520q260 0 260 -260q0 -160 160 -160t160 160t-160 160q-21 0 -34 5t-18 35q-1 9 -1 17q0 18 8 28q12 15 45 15q260 0 260 -260t-260 -260t-260 260q0 160 -160 160t-160 -160t150 -160q30 0 30 30q0 84 -89 84q-28 0 -48 -6q-3 -1 -6 -1q-16 0 -23 31q-2 10 -2 19
q0 23 14 37q19 20 65 20q189 0 189 -184q0 -130 -130 -130q-250 0 -250 260t260 260z" />
    <glyph glyph-name="uAA6F" unicode="&#xaa6f;" horiz-adv-x="780" 
d="M480 420q-160 0 -160 -160t160 -160t160 160t-160 160zM222 306l-82 88v-394h-100v520h97l110 -118q58 118 233 118q260 0 260 -260t-260 -260t-260 260q0 24 2 46z" />
    <glyph glyph-name="uAA70" unicode="&#xaa70;" horiz-adv-x="0" 
d="M-299 560q-76 0 -107 -31l-40 65q44 46 147 46q102 0 146 -46l-40 -65q-31 31 -106 31zM-299 700q-76 0 -107 -31l-40 65q44 46 147 46q102 0 146 -46l-40 -65q-31 31 -106 31z" />
    <glyph glyph-name="uAA71" unicode="&#xaa71;" horiz-adv-x="1020" 
d="M546 368q14 -47 14 -108q0 -236 -191 -260h-2q-12 0 -18 24q-2 7 -2 13q0 63 10 65q103 24 103 158q0 160 -160 160t-160 -160t60 -160q14 0 14 69q0 88 -24 93t-24 32q0 7 2 16q7 36 31 36q3 0 7 -1q108 -20 108 -176q0 -169 -114 -169q-160 0 -160 260t260 260
q145 0 210 -81q6 7 15 16q65 65 195 65q260 0 260 -260t-260 -260q-33 0 -45 15q-8 10 -8 28q0 8 1 17q5 30 18 35t34 5q160 0 160 160t-160 160q-105 0 -157 -40q-9 -7 -17 -12z" />
    <glyph glyph-name="uAA72" unicode="&#xaa72;" horiz-adv-x="1020" 
d="M548 152q52 -52 172 -52q160 0 160 160t-160 160q-123 0 -174 -55q14 -46 14 -105q0 -61 -12 -108zM170 100q0 30 -30 30t-30 -30t30 -30t30 30zM71 180q-31 32 -31 80q0 260 260 260q146 0 210 -82q64 82 210 82q260 0 260 -260t-260 -260q-140 0 -205 75
q-43 -62 -127 -75h-7q-11 0 -18 5t-15 38q-3 14 -3 24v5q1 10 3 15q6 11 18 13q94 12 94 160q0 160 -160 160t-160 -160q0 -24 24 -35q76 -21 76 -116v-9q0 -100 -100 -100t-100 100q0 56 31 80z" />
    <glyph glyph-name="uAA73" unicode="&#xaa73;" horiz-adv-x="694" 
d="M140 264v-264h-100v520h98q97 -420 269 -420q147 0 147 160t-160 160q-59 0 -102 -17l-19 98q51 19 121 19q260 0 260 -260t-247 -260q-176 0 -267 264z" />
    <glyph glyph-name="uAA74" unicode="&#xaa74;" horiz-adv-x="780" 
d="M298 -270q0 30 -30 30t-30 -30t30 -30t30 30zM308 0h-8q-260 0 -260 260q0 233 172 260h7q11 0 18 -5t15 -38q3 -14 3 -24v-5q-1 -10 -3 -15q-6 -11 -18 -13q-94 -12 -94 -160q0 -160 160 -160h8v333q0 48 27.5 67.5t52.5 19.5q172 -27 172 -260q0 -199 -152 -246v-256
q58 -28 119 -28h50q63 0 63 58v472q0 280 -77 280q-175 0 -175 175t175 175q144 0 167 -130v-4q0 -16 -22 -21q-7 -2 -13 -2q-53 0 -57 11q-14 46 -75 46q-85 0 -85 -75t85 -75q177 0 177 -380v-472q0 -158 -163 -158h-50q-64 0 -122 66q-16 -66 -117 -66q-100 0 -100 100
t100 100q11 0 20 -1v171zM408 130q52 39 52 130q0 136 -52 157v-287z" />
    <glyph glyph-name="uAA75" unicode="&#xaa75;" horiz-adv-x="1150" 
d="M718 -270q0 30 -30 30t-30 -30t30 -30t30 30zM300 520q146 0 210 -82q64 82 210 82q260 0 260 -260q0 -199 -152 -246v-256q58 -28 119 -28h50q63 0 63 58v472q0 280 -77 280q-175 0 -175 175t175 175q144 0 167 -130v-4q0 -16 -22 -21q-7 -2 -13 -2q-53 0 -57 11
q-14 46 -75 46q-85 0 -85 -75t85 -75q177 0 177 -380v-472q0 -158 -163 -158h-50q-64 0 -122 66q-16 -66 -117 -66q-100 0 -100 100t100 100q11 0 20 -1v171h-8q-33 0 -45 15q-8 10 -8 28q0 8 1 17q5 30 18 35t34 5q160 0 160 160t-160 160q-123 0 -174 -55q14 -45 14 -105
q0 -233 -172 -260h-7q-11 0 -18 5t-15 38q-3 14 -3 24v5q1 10 3 15q6 11 18 13q94 12 94 160q0 160 -160 160t-160 -140q0 -14 69.5 -51t69.5 -132q0 -48 -36 -72.5t-72 -24.5q-45 0 -122 40q-9 5 -9 31q0 25 8 40q12 26 25 26q4 0 7 -2q48 -25 89 -25q10 0 10 17
t-69.5 54.5t-69.5 98.5q0 240 260 240z" />
    <glyph glyph-name="uAA76" unicode="&#xaa76;" horiz-adv-x="860" 
d="M398 -270q0 30 -30 30t-30 -30t30 -30t30 30zM493 -224q61 -46 144 -46h30q53 0 53 58v472q0 280 -77 280q-175 0 -175 175t175 175q144 0 167 -130v-4q0 -16 -22 -21q-7 -2 -13 -2q-53 0 -57 11q-14 46 -75 46q-85 0 -85 -75t85 -75q177 0 177 -380v-472
q0 -158 -153 -158h-30q-104 0 -152 66q-36 -66 -117 -66q-100 0 -100 100t100 100q13 0 25 -2v172h-13q-33 0 -45 15q-8 10 -8 28q0 8 1 17q5 30 18 35t34 5q160 0 160 160t-160 160t-160 -160v-432q0 -198 -168 -198h-83q-119 0 -119 129t119 129h42q41 0 41 -50t-41 -50
h-42q-19 0 -19 -29t19 -29h83q68 0 68 98v509q0 83 -85 83q-55 0 -55 -61q0 -32 -50 -32t-50 32q0 161 155 161q96 0 134 -77q52 77 211 77q260 0 260 -260q0 -195 -147 -244v-240z" />
    <glyph glyph-name="uAA77" unicode="&#xaa77;" 
d="M300 790q-85 0 -85 -75t84 -97q41 -8 41 -43t-40 -35q-175 0 -175 175t175 175t175 -163q0 -25 -45 -25t-45 25q0 63 -85 63zM300 520q260 0 260 -260q0 -164 -85 -226l81 -143q6 -11 16 -11q6 0 13 4l27 15q8 5 16 5q20 0 38 -32q11 -20 11 -34q0 -16 -15 -25l-27 -16
q-39 -22 -71 -22q-57 0 -95 66l-74 130v-221q0 -20 22 -20h31q33 0 33 -50t-33 -50h-31q-122 0 -122 120v255q0 25 50 25h6q-1 6 -3 13q-3 14 -3 24v5q1 10 3 15q6 11 18 13q94 12 94 160q0 160 -160 160t-160 -140q0 -14 69.5 -51t69.5 -132q0 -48 -36 -72.5t-72 -24.5
q-45 0 -122 40q-9 5 -9 31q0 25 8 40q12 26 25 26q4 0 7 -2q48 -25 89 -25q10 0 10 17t-69.5 54.5t-69.5 98.5q0 240 260 240z" />
    <glyph glyph-name="uAA78" unicode="&#xaa78;" horiz-adv-x="740" 
d="M40 458l40 35q70 -65 70 -200q0 -131 -66 -196l-38 37q54 52 54 159q0 112 -60 165zM507 103l12 -12l-35 -91q-52 60 -164 60q-107 0 -159 -54l-37 88q65 66 196 66q86 0 144 -29l113 348q30 91 97 91q19 0 41 -7q49 -16 65 -53l-47 -26q-7 23 -34 31q-11 4 -20 4
q-36 0 -54 -56zM484 590l35 -90q-65 -70 -199 -70q-131 0 -196 66l37 88q52 -54 159 -54q112 0 164 60z" />
    <glyph glyph-name="uAA79" unicode="&#xaa79;" 
d="M351 30q-1 6 -3 13q-3 14 -3 24v5q1 10 3 15q6 11 18 13q94 12 94 160q0 160 -160 160t-160 -140q0 -14 69.5 -51t69.5 -132q0 -48 -36 -72.5t-72 -24.5q-45 0 -122 40q-9 5 -9 31q0 25 8 40q12 26 25 26q4 0 7 -2q48 -25 89 -25q10 0 10 17t-69.5 54.5t-69.5 98.5
q0 240 260 240t260 -260q0 -221 -155 -257v-253q0 -20 22 -20h31q33 0 33 -50t-33 -50h-31q-122 0 -122 120v255q0 24 46 25z" />
    <glyph glyph-name="uAA7A" unicode="&#xaa7a;" horiz-adv-x="1200" 
d="M209 -370q-169 0 -169 178v814q0 178 169 178h363q68 0 68 90h100q0 -190 -168 -190h-363q-69 0 -69 -78v-814q0 -78 69 -78h338q68 0 68 78v452q0 160 -135 160q-160 0 -160 -160t160 -160q21 0 34 -5t18 -35q1 -9 1 -17q0 -18 -8 -28q-12 -15 -45 -15q-260 0 -260 260
t260 260q235 0 235 -260q0 -160 185 -160q160 0 160 160t-160 160q-21 0 -34 5t-18 35q-1 9 -1 17q0 18 8 28q12 15 45 15q260 0 260 -260t-260 -260q-127 0 -185 75v-267q0 -178 -168 -178h-338z" />
    <glyph glyph-name="uAA7B" unicode="&#xaa7b;" horiz-adv-x="280" 
d="M140 70q30 0 30 30t-30 30t-30 -30t30 -30zM40 100q0 100 100 100t100 -100t-100 -100q-24 0 -42 6q22 -82 109 -107l-16 -48q-151 42 -151 217v32z" />
    <glyph glyph-name="u1039_1000" horiz-adv-x="0" 
d="M-300 -58q44 38 125 38q175 0 175 -175t-175 -175q-15 0 -30 2q-13 2 -13 36v15q3 47 41 47h2q85 0 85 75t-85 75q-51 0 -82 -12q7 -28 7 -63q0 -159 -96 -175h-6q-28 0 -40 43q-4 16 -4 27q0 22 17 23q39 4 39 82q0 75 -85 75t-85 -75q0 -78 39 -82q17 -1 17 -23
q0 -11 -4 -27q-12 -43 -40 -43h-6q-96 16 -96 175q0 175 175 175q81 0 125 -38z" />
    <glyph glyph-name="u1039_1001" horiz-adv-x="0" 
d="M-300 -370q-161 0 -161 85q0 43 50 71.5t105 28.5q54 0 91 -47q10 16 10 37q0 75 -95 75q-75 0 -95 -43q-7 -15 -43 -15q-37 0 -37 15q0 143 175 143t175 -175t-175 -175zM-306 -235q-50 0 -76 -26q34 -9 82 -9q22 0 51 9q-25 26 -57 26z" />
    <glyph glyph-name="u1039_1002" horiz-adv-x="1" 
d="M-300 -20q175 0 175 -175q0 -159 -96 -175h-6q-28 0 -40 43q-4 16 -4 27q0 22 17 23q39 4 39 82q0 75 -85 75t-85 -75q0 -78 39 -82q17 -1 17 -23q0 -11 -4 -27q-12 -43 -40 -43h-6q-96 16 -96 175q0 175 175 175z" />
    <glyph glyph-name="u1039_1003" horiz-adv-x="0" 
d="M-510 -215q0 -55 85 -55t85 75q0 78 -39 82q-17 1 -17 23q0 11 4 27q12 43 40 43h6q96 -16 96 -175q0 -35 -7 -63q31 -12 82 -12q85 0 85 75t-85 75h-2q-38 0 -41 47v15q0 34 13 36q15 2 30 2q175 0 175 -175t-175 -175q-81 0 -125 38q-44 -38 -125 -38q-175 0 -175 175
q0 36 39.5 53.5t39.5 26.5q0 15 -15 15t-32 -7q-4 -2 -8 -2q-12 0 -20 18q-4 28 -4 34q0 13 15 23q22 14 62 14t61 -14.5t21 -72.5q0 -65 -34.5 -82t-34.5 -26z" />
    <glyph glyph-name="u1039_1004" horiz-adv-x="1" 
d="M-385 -195q0 -75 85 -75q75 0 85 28q5 15 48 15q42 0 42 -15q0 -128 -175 -128t-175 175t175 175t175 -128q0 -15 -42 -15q-43 0 -48 15q-10 28 -85 28q-85 0 -85 -75z" />
    <glyph glyph-name="u1039_1005" horiz-adv-x="1" 
d="M-318 -270h18q85 0 85 75t-85 75h-18q16 -29 16 -75t-16 -75zM-380 -132q-15 -18 -15 -63t15 -63q28 15 28 63t-28 63zM-300 -20q175 0 175 -175t-175 -175t-175 175t175 175z" />
    <glyph glyph-name="u1039_1006" horiz-adv-x="0" 
d="M-431 -235q-50 0 -76 -26q34 -9 82 -9q22 0 51 9q-25 26 -57 26zM-257 -257q31 -13 82 -13q85 0 85 75t-85 75q-52 0 -82 -13q7 -27 7 -62t-7 -62zM-300 -58q44 38 125 38q175 0 175 -175t-175 -175q-81 0 -125 38q-44 -38 -125 -38q-161 0 -161 85q0 43 50 71.5
t105 28.5q54 0 91 -47q10 16 10 37q0 75 -95 75q-75 0 -95 -43q-7 -15 -43.5 -15t-36.5 15q0 143 175 143q82 0 125 -38z" />
    <glyph glyph-name="u1039_1007" horiz-adv-x="1" 
d="M-273 -120h-27q-85 0 -85 -75t85 -75t95 28q5 15 43 15q37 0 37 -15q0 -128 -175 -128t-175 175t175 175q168 0 175 -119q26 -26 54 -30q24 -3 24 -23v-5q-3 -22 -26 -22q-4 0 -8 1q-32 4 -69 32q-17 -19 -54 -19q-70 0 -70 70q0 8 1 15zM-179 -135q0 25 -25 25t-25 -25
t25 -25t25 25z" />
    <glyph glyph-name="u1039_1008" horiz-adv-x="180" 
d="M-380 -132q-15 -18 -15 -63t15 -63q28 15 28 63t-28 63zM-130 -249q22 -21 78 -21q92 0 92 60v695q0 35 50 35t50 -35v-695q0 -160 -192 -160q-78 0 -113 47q-44 -47 -135 -47q-175 0 -175 175t175 175t175 -175q0 -29 -5 -54zM-318 -270h18q85 0 85 75t-85 75h-18
q16 -29 16 -75t-16 -75z" />
    <glyph glyph-name="u1039_100B" horiz-adv-x="0" 
d="M-175 -327q-44 -23 -125 -23q-137 1 -165 36q-5 6 -5 14q0 9 5 20q5 12 15 12q9 0 21 -10q26 -21 129 -22q107 0 156 43h19v-63h60q20 0 20 -25t-18 -25h-66q-46 0 -46 22v21zM-395 -148q0 -56 95 -56q85 0 95 21q5 11 43 11q37 0 37 -11q0 -94 -175 -94t-175 129
q0 128 175 128t175 -94q0 -11 -37 -11q-38 0 -43 11q-10 21 -95 21q-95 0 -95 -55z" />
    <glyph glyph-name="u1039_100C" horiz-adv-x="0" 
d="M-489 -370q-108 0 -108 144v63q0 143 99 143t99 -143v-36q0 -17 -25 -17t-25 17v36q0 43 -49 43q-19 0 -19 -43v-63q0 -44 28 -44h144q-7 32 -7 75q0 175 175 175t175 -175q0 -159 -96 -175h-6q-28 0 -40 43q-4 16 -4 27q0 22 17 23q39 4 39 82q0 75 -85 75
q-95 0 -95 -75q0 -78 49 -82q17 -1 17 -23q0 -11 -4 -27q-12 -43 -40 -43h-239z" />
    <glyph glyph-name="u1039_100F" horiz-adv-x="0" 
d="M-261 -76q-11 6 -39 6t-39 -6q27 -43 27 -119q0 -70 -22 -113q12 -12 34 -12t34 12q-22 43 -22 113q0 76 27 119zM-514 -195q0 -78 33 -82q16 -1 16 -23q0 -11 -4 -27q-11 -43 -37 -43h-5q-89 16 -89 175q0 175 144 175q50 0 82 -21q22 21 74 21t74 -21q32 21 82 21
q144 0 144 -175q0 -159 -89 -175h-5q-26 0 -37 43q-4 16 -4 27q0 22 16 23q33 4 33 82q0 75 -58 75q-98 0 -98 -75q0 -45 11 -75q9 -19 21 -32q-6 -30 -24 -46q-24 -22 -66 -22t-66 22q-18 16 -24 46q12 13 21 32q11 30 11 75q0 75 -98 75q-58 0 -58 -75z" />
    <glyph glyph-name="u1039_1010" horiz-adv-x="0" 
d="M-425 -120q-85 0 -85 -75t85 -75t85 75t-85 75zM-300 -58q44 38 125 38q175 0 175 -175t-175 -175q-15 0 -30 2q-13 2 -13 36v15q3 47 41 47h2q85 0 85 75t-85 75q-52 0 -82 -13q7 -28 7 -62q0 -175 -175 -175t-175 175t175 175q81 0 125 -38z" />
    <glyph glyph-name="u1039_1011" horiz-adv-x="0" 
d="M-425 -120q-85 0 -85 -75t85 -75t85 75t-85 75zM-257 -257q30 -13 82 -13q85 0 85 75t-85 75q-51 0 -82 -13q7 -27 7 -62t-7 -62zM-300 -58q44 38 125 38q175 0 175 -175t-175 -175q-81 0 -125 38q-44 -38 -125 -38q-175 0 -175 175t175 175q81 0 125 -38z" />
    <glyph glyph-name="u1039_1012" horiz-adv-x="0" 
d="M-169 -195q44 -25 44 -55q0 -120 -175 -120t-175 105q0 15 45 15t45 -15t85 -15t85 30t-62 30q-23 0 -23 25t23 25q62 0 62 30t-85 30t-85 -15t-45 -15t-45 15q0 105 175 105t175 -100q0 -50 -44 -75z" />
    <glyph glyph-name="u1039_1013" horiz-adv-x="1" 
d="M-220 -229q5 15 5 34q0 75 -85 75t-85 -75q0 -20 5 -35q18 45 80 45q63 0 80 -44zM-355 -272q31 -18 55 -18t55 18q-24 37 -55 37t-55 -37zM-300 -20q175 0 175 -175t-175 -175t-175 175t175 175z" />
    <glyph glyph-name="u1039_1014" horiz-adv-x="0" 
d="M-333 -280q0 39 -28 39q-24 0 -24 -18q0 -17 52 -21zM-283 -280q68 4 68 18q0 32 -96.5 65.5t-96.5 89.5q0 87 101 87q115 0 115 -92q0 -12 -25 -12t-25 7t-55 7q-11 0 -11 -7q0 -10 91.5 -43.5t91.5 -101.5q0 -108 -175 -108t-175 111q0 67 74 67q118 0 118 -88z" />
    <glyph glyph-name="u1039_1015" horiz-adv-x="1" 
d="M-475 -195q0 159 96 175h6q28 0 40 -43q4 -16 4 -27q0 -22 -17 -23q-39 -4 -39 -82q0 -75 85 -75t85 75q0 78 -39 82q-17 1 -17 23q0 11 4 27q12 43 40 43h6q96 -16 96 -175q0 -175 -175 -175t-175 175z" />
    <glyph glyph-name="u1039_1016" horiz-adv-x="1" 
d="M-205 -250q10 19 10 55q0 75 -53 82q-2 -15 -2 -32q0 -75 45 -105zM-264 -268q-36 43 -36 123q0 48 19.5 86.5t59.5 38.5q96 -16 96 -175q0 -175 -175 -175t-175 175q0 159 96 175h6q28 0 40 -43q4 -16 4 -27q0 -22 -17 -23q-39 -4 -39 -82q0 -75 85 -75q20 0 36 2z" />
    <glyph glyph-name="u1039_1017" horiz-adv-x="1" 
d="M-371 -117q-14 -13 -14 -78q0 -75 85 -75t85 75q0 64 -14 78q-24 -21 -71 -21q-46 0 -71 21zM-330 -82q12 -6 30 -6t30 6q0 9 3 19q12 43 40 43h6q96 -16 96 -175q0 -175 -175 -175t-175 175q0 159 96 175h6q28 0 40 -43q3 -10 3 -19z" />
    <glyph glyph-name="u1039_1018" horiz-adv-x="0" 
d="M-300 -58q44 38 125 38q175 0 175 -175t-175 -175q-15 0 -30 2q-13 2 -13 36v15q3 47 41 47h2q85 0 85 75t-85 75q-52 0 -82 -13q7 -27 7 -62q0 -175 -175 -175t-175 128q0 15 42.5 15t47.5 -15q10 -28 85 -28q85 0 85 75t-85 75q-75 0 -85 -28q-5 -15 -47.5 -15
t-42.5 15q0 128 175 128q82 0 125 -38z" />
    <glyph glyph-name="u1039_1019" horiz-adv-x="1" 
d="M-349 -262q8 -8 49 -8t49 8q-9 45 -49 45t-49 -45zM-385 -232q25 65 85 65t85 -65q10 16 10 37q0 78 -49 82q-17 1 -17 23q0 11 4 27q12 43 40 43h6q96 -16 96 -175q0 -175 -175 -175t-175 175q0 159 96 175h6q28 0 40 -43q4 -16 4 -27q0 -22 -17 -23q-49 -4 -49 -82
q0 -21 10 -37z" />
    <glyph glyph-name="u1039_101C" horiz-adv-x="0" 
d="M-343 -195q0 75 -95 75q-76 0 -76 -75t76 -75h1q35 0 38 -47v-15q0 -34 -12 -36q-14 -2 -27 -2q-162 0 -162 175t162 175q181 0 181 -175q0 -75 95 -75q76 0 76 75t-76 75h-1q-35 0 -38 47v15q0 34 12 36q14 2 27 2q162 0 162 -175t-162 -175q-181 0 -181 175z" />
    <glyph glyph-name="u1039_101D" horiz-adv-x="1" 
d="M-300 -120q-85 0 -85 -75t85 -75t85 75t-85 75zM-300 -20q175 0 175 -175t-175 -175t-175 175t175 175z" />
    <glyph glyph-name="u1039_101D_103E" horiz-adv-x="1" 
d="M-300 -120q-85 0 -85 -75t85 -75t85 75t-85 75zM-475 -200v5q0 175 175 175t175 -175t-175 -175q-121 0 -158 83l-48 -57q-22 -26 -47 -26q-23 0 -47 22l-25 23q-16 13 -16 31q0 12 7 25q9 19 23 19q11 0 26 -13l32 -29z" />
    <glyph glyph-name="u103C_big" horiz-adv-x="180" 
d="M992 -270q68 0 68 78v266q0 26 50 26t50 -26v-266q0 -178 -168 -178h-783q-169 0 -169 178v904q0 178 169 178h783q168 0 168 -178v-86q0 -26 -50 -26t-50 26v86q0 78 -68 78h-783q-69 0 -69 -78v-904q0 -78 69 -78h783z" />
    <glyph glyph-name="u102F_long" horiz-adv-x="180" 
d="M90 520q50 0 50 -25v-745q0 -20 22 -20h31q33 0 33 -50t-33 -50h-31q-122 0 -122 120v745q0 25 50 25z" />
    <glyph glyph-name="u1030_long" horiz-adv-x="340" 
d="M250 520q50 0 50 -25v-745q0 -20 22 -20h31q33 0 33 -50t-33 -50h-31q-122 0 -122 120v745q0 25 50 25zM140 -345q0 -25 -50 -25t-50 25v840q0 25 50 25t50 -25v-840z" />
    <glyph glyph-name="u103C_1" horiz-adv-x="180" 
d="M209 -370q-169 0 -169 178v904q0 178 169 178h363q168 0 168 -178v-86q0 -26 -50 -26t-50 26v86q0 78 -68 78h-363q-69 0 -69 -78v-904q0 -78 69 -78v-100z" />
    <glyph glyph-name="u103C_2" horiz-adv-x="180" 
d="M572 -270q68 0 68 78v266q0 26 50 26t50 -26v-266q0 -178 -168 -178h-363q-169 0 -169 178v904q0 178 169 178v-100q-69 0 -69 -78v-904q0 -78 69 -78h363z" />
    <glyph glyph-name="u103C_3" horiz-adv-x="180" 
d="M209 -370q-169 0 -169 178v904q0 178 169 178v-100q-69 0 -69 -78v-904q0 -78 69 -78v-100z" />
    <glyph glyph-name="u103C_big_1" horiz-adv-x="180" 
d="M601 -370h-392q-169 0 -169 178v904q0 178 169 178h783q168 0 168 -178v-86q0 -26 -50 -26t-50 26v86q0 78 -68 78h-783q-69 0 -69 -78v-904q0 -78 69 -78h392v-100z" />
    <glyph glyph-name="u103C_big_2" horiz-adv-x="180" 
d="M992 -270q68 0 68 78v266q0 26 50 26t50 -26v-266q0 -178 -168 -178h-783q-169 0 -169 178v904q0 178 169 178h392v-100h-392q-69 0 -69 -78v-904q0 -78 69 -78h783z" />
    <glyph glyph-name="u103C_big_3" horiz-adv-x="180" 
d="M601 -370h-392q-169 0 -169 178v904q0 178 169 178h392v-100h-392q-69 0 -69 -78v-904q0 -78 69 -78h392v-100z" />
    <glyph glyph-name="u100B_1039_100B" 
d="M460 153q-61 -33 -160 -33q-260 0 -260 200t260 200q236 0 260 -141v-2q0 -12 -24 -18q-7 -2 -13 -2q-63 0 -65 10q-24 53 -158 53q-160 0 -160 -100t160 -100q134 0 158 53q2 10 65 10q6 0 13 -2q24 -6 24 -18v-172q-90 -81 -260 -81q-91 0 -160 24v-65q70 -19 160 -19
q162 0 260 64v-233q0 -51 50 -51q30 0 30 -50t-30 -50q-150 0 -150 120v167q-71 -17 -160 -17q-157 0 -260 53v158l37 18q77 -69 223 -69q94 0 160 29v64zM115 -210q0 -40 125 -40q115 0 125 15q5 8 25 8q25 0 25 -8q0 -68 -175 -68t-175 93q0 92 175 92t175 -68
q0 -8 -25 -8q-20 0 -25 8q-10 15 -125 15q-125 0 -125 -39zM365 -339q-44 -17 -125 -17q-137 1 -165 26q-5 5 -5 10q0 7 5 15t15 8q9 0 21 -7q26 -15 129 -16q107 0 156 31h19v-45h10q20 0 20 -18t-18 -18h-16q-46 0 -46 16v15z" />
    <glyph glyph-name="u100A_alt" horiz-adv-x="1020" 
d="M546 152q8 -5 17 -12q52 -40 157 -40q160 0 160 160t-160 160q-21 0 -34 5t-18 35q-1 9 -1 17q0 18 8 28q12 15 45 15q260 0 260 -260t-260 -260q-130 0 -195 65l-16 16q-64 -81 -209 -81q-115 0 -160 62v-254q0 -78 69 -78h302v-100h-302q-169 0 -169 178v385
q0 12 24 18q7 2 13 2q63 0 65 -10q44 -103 158 -103q160 0 160 160t-160 160q-134 0 -158 -103q-2 -10 -65 -10q-6 0 -13 2q-24 6 -24 18v2q24 191 260 191q260 0 260 -260q0 -61 -14 -108z" />
    <glyph glyph-name="u1014_alt" 
d="M249 100q-10 80 -79 80q-30 0 -30 -30q0 -47 109 -50zM349 100q111 4 111 60q0 48 -160 97.5t-160 122.5q0 140 150 140q170 0 170 -135q0 -15 -22 -15t-28 10q-20 40 -120 40q-50 0 -50 -40q0 -34 160 -84t160 -136q0 -160 -260 -160t-260 150q0 100 110 100
q164 0 199 -150z" />
    <glyph glyph-name="u101B_alt" 
d="M300 420q-160 0 -160 -160t150 -160q30 0 30 30q0 84 -89 84q-28 0 -48 -6q-3 -1 -6 -1q-16 0 -23 31q-2 10 -2 19q0 23 14 37q19 20 65 20q189 0 189 -184q0 -130 -130 -130q-250 0 -250 260t260 260t260 -260v-479h-100v479q0 160 -160 160z" />
    <glyph glyph-name="u1025_alt" 
d="M140 62v-254q0 -78 69 -78v-100q-169 0 -169 178v385q0 12 24 18q7 2 13 2q63 0 65 -10q44 -103 158 -103q160 0 160 160t-160 160q-134 0 -158 -103q-2 -10 -65 -10q-6 0 -13 2q-24 6 -24 18v2q24 191 260 191q260 0 260 -260t-260 -260q-115 0 -160 62z" />
    <glyph glyph-name="u1037_alt" horiz-adv-x="0" 
d="M-100 -20q100 0 100 -100t-100 -100t-100 100t100 100zM-70 -120q0 30 -30 30t-30 -30t30 -30t30 30z" />
    <glyph glyph-name="u103B_alt" horiz-adv-x="180" 
d="M-27 -370q-168 0 -168 160h100q0 -60 68 -60q67 0 67 60v695q0 35 50 35t50 -35v-695q0 -160 -167 -160z" />
    <glyph glyph-name="u103E_alt" horiz-adv-x="0" 
d="M-339 -202l133 156q6 7 15 7q15 0 39 -21q27 -23 27 -39q0 -6 -5 -12l-133 -156q-42 -49 -88 -49q-40 0 -83 37l-23 20q-11 9 -11 22q0 16 18 37q21 24 39 24q10 0 19 -7l23 -20q8 -7 16 -7q7 0 14 8z" />
    <glyph glyph-name="u1037_alt2" horiz-adv-x="0" 
d="M50 -20q100 0 100 -100t-100 -100t-100 100t100 100zM80 -120q0 30 -30 30t-30 -30t30 -30t30 30z" />
    <glyph glyph-name="u100B_1039_100C" 
d="M460 -106q-69 -24 -160 -24q-170 0 -260 81q0 50 15 61q6 4 13 4q10 0 22 -8q76 -58 210 -58q146 0 223 69l37 -18v-193q0 -178 -168 -178h-233q-119 0 -119 114q0 94 119 94h141q32 0 32 -25t-32 -25h-141q-19 0 -19 -24q0 -34 19 -34h233q68 0 68 78v86zM300 520
q236 0 260 -191v-2q0 -12 -24 -18q-7 -2 -13 -2q-63 0 -65 10q-24 103 -158 103q-160 0 -160 -160t160 -160q134 0 158 103q2 10 65 10q6 0 13 -2q24 -6 24 -18v-2q-24 -191 -260 -191q-260 0 -260 260t260 260z" />
    <glyph glyph-name="u25CC" unicode="&#x25cc;" horiz-adv-x="595" 
d="M479 418q0 -24 -24 -24q-25 0 -25 24q0 25 25 25q24 0 24 -25zM406 466q0 -24 -23 -24q-25 0 -25 24q0 25 25 25q23 0 23 -25zM527 346q0 -25 -25 -25q-24 0 -24 25q0 24 25 24q24 0 24 -24zM545 261q0 -24 -24 -24q-25 0 -25 24t25 24q24 0 24 -24zM321 484
q0 -25 -24 -25t-24 25q0 24 24 24t24 -24zM237 466q0 -24 -25 -24q-24 0 -24 24q0 25 24 25q25 0 25 -25zM527 176q0 -24 -25 -24q-24 0 -24 24q0 25 24 25q25 0 25 -25zM165 418q0 -24 -25 -24q-24 0 -24 23q0 26 24 26q25 0 25 -25zM479 103q0 -24 -24 -24q-25 0 -25 24
q0 25 25 25q24 0 24 -25zM406 55q0 -23 -23 -23q-25 0 -25 23q0 25 25 25q23 0 23 -25zM116 346q0 -25 -23 -25q-25 0 -25 25q0 24 24 24t24 -24zM99 261q0 -24 -24 -24q-25 0 -25 24t25 24q24 0 24 -24zM321 39q0 -25 -24 -25t-24 25q0 24 24 24t24 -24zM116 176
q0 -24 -24 -24t-24 24q0 25 24 25t24 -25zM237 57q0 -25 -25 -25q-24 0 -24 23q0 25 24 25q25 0 25 -23zM165 103q0 -24 -25 -24q-24 0 -24 24q0 25 24 25q25 0 25 -25z" />
    <glyph glyph-name="u103E_short" horiz-adv-x="0" 
d="M-375 -130v85q0 25 50 25t50 -25v-85q0 -120 -122 -120h-31q-33 0 -33 50t33 50h31q22 0 22 20z" />
  </font>
</defs>
</svg>
