<?xml version="1.0" standalone="no"?>
<!DOCTYPE svg PUBLIC "-//W3C//DTD SVG 1.1//EN" "http://www.w3.org/Graphics/SVG/1.1/DTD/svg11.dtd" >
<svg xmlns="http://www.w3.org/2000/svg" xmlns:xlink="http://www.w3.org/1999/xlink" version="1.1">
<metadata>
Created by FontForge 20141024 at Tue Mar 24 09:44:33 2015
 By System Administrator
Copyright 2014 Google Inc. All Rights Reserved.
</metadata>
<defs>
<font id="MyanmarAngoun" horiz-adv-x="600" >
  <font-face 
    font-family="Myanmar Angoun"
    font-weight="400"
    font-stretch="normal"
    units-per-em="1000"
    panose-1="2 0 5 0 0 0 0 0 0 0"
    ascent="750"
    descent="-250"
    bbox="-651 -370 2180 895"
    underline-thickness="150"
    underline-position="-142"
    unicode-range="U+0020-AA7B"
  />
<missing-glyph horiz-adv-x="550" 
d="M50 0v520h450v-520h-450zM77 18h396v484h-396v-484zM173 416q17 10 32 16q28 11 61 11q50 0 80.5 -17.5t30.5 -46.5q0 -17 -12.5 -35t-47.5 -47q-34 -29 -54 -48t-20 -36q0 -14 13 -48h-17q-19 35 -19 53q0 28 44.5 79.5t44.5 78.5q0 21 -18 33t-50 12q-21 0 -38 -7
q-14 -5 -30 -14v16zM208 121l31 21q6 4 11 4t12 -4l30 -22q5 -4 5 -7q0 -4 -5 -8l-31 -23q-7 -5 -11 -5q-6 0 -11 4l-33 26q-4 3 -4 6q0 4 6 8z" />
    <glyph glyph-name="u103E_102F" unicode="&#x103e;&#x102f;" horiz-adv-x="0" 
d="M-430 -20h100v-350h-186v100h86v250zM-170 -270h86v-100h-186v350h100v-250z" />
    <glyph glyph-name="u1085_1036" unicode="&#x1085;&#x1036;" horiz-adv-x="0" 
d="M-470 715q-44 25 -44 75q0 100 145 100q47 0 81 -7l-9 -69q-28 6 -72 6q-55 0 -55 -30q0 -40 85 -40v-70q-85 0 -85 -40q0 -30 55 -30q44 0 72 6l9 -69q-34 -7 -81 -7q-145 0 -145 100q0 50 44 75zM-196 825q110 0 110 -110t-110 -110t-110 110t110 110zM-166 715
q0 30 -30 30t-30 -30t30 -30t30 30z" />
    <glyph glyph-name="u1085_102D" unicode="&#x1085;&#x102d;" horiz-adv-x="0" 
d="M-513 715q-44 25 -44 75q0 100 145 100q47 0 81 -7l-9 -69q-28 6 -72 6q-55 0 -55 -30q0 -40 85 -40v-70q-85 0 -85 -40q0 -30 55 -30q44 0 72 6l9 -69q-34 -7 -81 -7q-145 0 -145 100q0 50 44 75zM-193 790q-64 0 -64 -75t64 -75t64 75t-64 75zM-193 890q150 0 150 -175
t-150 -175t-150 175t150 175z" />
    <glyph glyph-name="u1085_102E" unicode="&#x1085;&#x102e;" horiz-adv-x="0" 
d="M-513 715q-44 25 -44 75q0 100 145 100q47 0 81 -7l-9 -69q-28 6 -72 6q-55 0 -55 -30q0 -40 85 -40v-70q-85 0 -85 -40q0 -30 55 -30q44 0 72 6l9 -69q-34 -7 -81 -7q-145 0 -145 100q0 50 44 75zM-129 712v3q0 75 -64 75t-64 -75v-3q26 13 64 13t64 -13zM-249 658
q15 -38 56 -38t56 38q-21 17 -56 17t-56 -17zM-193 890q150 0 150 -175t-150 -175t-150 175t150 175z" />
    <glyph glyph-name="u102D_1036" unicode="&#x102d;&#x1036;" horiz-adv-x="0" 
d="M-408 790q-64 0 -64 -75t64 -75t64 75t-64 75zM-408 890q150 0 150 -175t-150 -175t-150 175t150 175zM-141 825q100 0 100 -110t-100 -110t-100 110t100 110zM-114 715q0 30 -27 30t-27 -30t27 -30t27 30z" />
    <glyph glyph-name="u100D_1039_100D" unicode="&#x100d;&#x1039;&#x100d;" 
d="M137 -306q35 -6 78 -6q107 0 156 35h19v-52h50v-41h-100v35q-44 -19 -125 -19q-137 1 -175 39v96l100 18q10 -33 73 -33q75 0 75 46t-75 46q-63 0 -73 -32l-98 17q23 77 171 77q175 0 175 -108t-175 -108q-41 0 -73 6v-16h-3zM560 -270h80v-100h-180v328
q-69 -21 -160 -21q-170 0 -260 69v219l97 28q24 -76 163 -76q160 0 160 120q0 123 -160 123q-139 0 -163 -78l-97 27q38 151 260 151q260 0 260 -223q0 -220 -260 -220q-98 0 -160 26v-55q66 -25 160 -25q146 0 223 59l37 -16v-336z" />
    <glyph glyph-name="u100E_1039_100D" unicode="&#x100e;&#x1039;&#x100d;" horiz-adv-x="700" 
d="M348 174q-148 0 -171 59l98 13q10 -25 73 -25q75 0 75 35t-75 35q-63 0 -73 -25l-98 13q23 59 171 59q175 0 175 -82t-175 -82zM525 156q35 39 35 104q0 139 -108 163l32 97q176 -38 176 -260q0 -172 -135 -230v-300h80v-100h-180v374q-35 -4 -75 -4q-310 0 -310 260
q0 58 34 98q18 20 74 51v11h-108v100h108q100 0 100 -93q0 -94 -54 -106t-54 -61q0 -160 210 -160q67 0 113 17l12 27q-44 -14 -125 -14q-137 1 -175 29l20 29q52 -26 155 -27q107 0 156 27h19v-32z" />
    <glyph glyph-name="u100F_100D" unicode="&#x100f;&#x1039;&#x100d;" horiz-adv-x="1020" 
d="M553 83q-23 64 -23 177q0 116 45 180q-18 30 -65 30t-65 -30q45 -64 45 -180q0 -113 -23 -177q2 -33 43 -33t43 33zM763 -153v-73q0 -142 -108 -142l-222 -2l-28 102q53 10 53 73q0 75 -75 75t-75 -75q0 -63 53 -73l-28 -102q-125 27 -125 175q0 175 175 175t175 -175
q0 -41 -10 -73h57q58 0 58 42v73h2q0 133 134 133v4q30 0 33 25q-34 -9 -77 -9v100q126 0 126 160t-125 160t-125 -160q0 -102 22 -155v-20q0 -85 -143 -85t-143 85v20q22 53 22 155q0 160 -125 160t-125 -160t126 -160v-100q-225 0 -225 260t225 260q89 0 143 -41
q30 41 102 41t102 -41q54 41 143 41q225 0 225 -260q0 -171 -97 -229v-14q0 -133 -84 -133v-4q-34 0 -34 -33h-2z" />
    <glyph glyph-name="u103E_1030" unicode="&#x103e;&#x1030;" horiz-adv-x="0" 
d="M-350 -20h100v-350h-100v350zM-210 -20h100v-250h86v-100h-186v350zM-390 -370h-186v100h86v250h100v-350z" />
    <glyph glyph-name="u102B_103A" unicode="&#x102b;&#x103a;" horiz-adv-x="180" 
d="M40 667q0 83 -70 83t-70 -83h-100q0 183 170 183q78 0 120 -38q42 38 120 38q170 0 170 -183h-100q0 83 -70 83t-70 -83v-667h-100v667z" />
    <glyph glyph-name="u103D_1037" unicode="&#x103d;&#x1037;" horiz-adv-x="10" 
d="M-71 -30q100 0 100 -110t-100 -110t-100 110t100 110zM-44 -140q0 30 -27 30t-27 -30t27 -30t27 30zM-350 -120q-75 0 -75 -75t75 -75t75 75t-75 75zM-350 -20q175 0 175 -175t-175 -175t-175 175t175 175z" />
    <glyph glyph-name=".notdef" horiz-adv-x="550" 
d="M50 0v520h450v-520h-450zM77 18h396v484h-396v-484zM173 416q17 10 32 16q28 11 61 11q50 0 80.5 -17.5t30.5 -46.5q0 -17 -12.5 -35t-47.5 -47q-34 -29 -54 -48t-20 -36q0 -14 13 -48h-17q-19 35 -19 53q0 28 44.5 79.5t44.5 78.5q0 21 -18 33t-50 12q-21 0 -38 -7
q-14 -5 -30 -14v16zM208 121l31 21q6 4 11 4t12 -4l30 -22q5 -4 5 -7q0 -4 -5 -8l-31 -23q-7 -5 -11 -5q-6 0 -11 4l-33 26q-4 3 -4 6q0 4 6 8z" />
    <glyph glyph-name=".null" horiz-adv-x="0" 
 />
    <glyph glyph-name="nonmarkingreturn" horiz-adv-x="508" 
 />
    <glyph glyph-name="space" unicode=" " horiz-adv-x="250" 
 />
    <glyph glyph-name="space" unicode="&#xa0;" horiz-adv-x="250" 
 />
    <glyph glyph-name="u1000" unicode="&#x1000;" horiz-adv-x="1020" 
d="M510 438q64 82 210 82q260 0 260 -260t-260 -260q-63 0 -111 15l42 95q29 -10 69 -10q160 0 160 160t-160 160t-160 -160q0 -222 -176 -260l-32 97q108 24 108 163q0 160 -160 160t-160 -160q0 -139 108 -163l-32 -97q-176 38 -176 260q0 260 260 260q146 0 210 -82z" />
    <glyph glyph-name="u1001" unicode="&#x1001;" 
d="M410 131q50 39 50 129q0 160 -160 160q-139 0 -163 -108l-97 32q38 176 260 176q260 0 260 -260t-260 -260q-222 0 -260 176v14q0 25 19.5 37.5t67.5 12.5q168 0 283 -109zM364 108q-83 78 -222 82q31 -90 158 -90q36 0 64 8z" />
    <glyph glyph-name="u1002" unicode="&#x1002;" 
d="M300 520q260 0 260 -260q0 -222 -176 -260l-32 97q108 24 108 163q0 160 -160 160t-160 -160q0 -139 108 -163l-32 -97q-176 38 -176 260q0 260 260 260z" />
    <glyph glyph-name="u1003" unicode="&#x1003;" horiz-adv-x="1020" 
d="M194 321q-54 -12 -54 -61q0 -160 160 -160t160 160q0 139 -108 163l32 97q176 -38 176 -260q0 -160 160 -160t160 160t-160 160q-40 0 -69 -10l-42 95q48 15 111 15q260 0 260 -260t-260 -260q-146 0 -210 82q-64 -82 -210 -82q-260 0 -260 260q0 58 34 98q18 20 74 51
v11h-108v100h108q100 0 100 -93q0 -94 -54 -106z" />
    <glyph glyph-name="u1004" unicode="&#x1004;" 
d="M300 520q222 0 260 -176l-97 -32q-24 108 -163 108q-160 0 -160 -160t160 -160q139 0 163 108l97 -32q-38 -176 -260 -176q-260 0 -260 260t260 260z" />
    <glyph glyph-name="u1005" unicode="&#x1005;" 
d="M264 102q17 -2 36 -2q160 0 160 160t-160 160q-19 0 -36 -2q36 -61 36 -158t-36 -158zM211 402q-71 -35 -71 -142t71 -142q39 51 39 142t-39 142zM300 520q260 0 260 -260t-260 -260t-260 260t260 260z" />
    <glyph glyph-name="u1006" unicode="&#x1006;" horiz-adv-x="1020" 
d="M364 108q-83 78 -222 82q31 -90 158 -90q36 0 64 8zM720 420q-160 0 -160 -160t160 -160t160 160t-160 160zM510 82q-64 -82 -210 -82q-222 0 -260 176v14q0 25 19.5 37.5t67.5 12.5q168 0 283 -109q50 39 50 129q0 160 -160 160q-139 0 -163 -108l-97 32q38 176 260 176
q146 0 210 -82q64 82 210 82q260 0 260 -260t-260 -260q-146 0 -210 82z" />
    <glyph glyph-name="u1007" unicode="&#x1007;" 
d="M314 362q0 34 10 57q-11 1 -24 1q-160 0 -160 -160t160 -160q139 0 163 108l97 -32q-38 -176 -260 -176q-260 0 -260 260t260 260q222 0 260 -176l-23 -8q14 -63 104 -75l-6 -50q-94 12 -130 68q-27 -27 -81 -27q-110 0 -110 110zM463 312q-16 72 -83 96q-16 -15 -16 -46
q0 -60 60 -60q20 0 39 10z" />
    <glyph glyph-name="u1008" unicode="&#x1008;" horiz-adv-x="780" 
d="M264 102q17 -2 36 -2q160 0 160 160t-160 160q-19 0 -36 -2q36 -61 36 -158t-36 -158zM211 402q-71 -35 -71 -142t71 -142q39 51 39 142t-39 142zM395 11v-203q0 -78 69 -78h107q69 0 69 78v712h100v-712q0 -178 -169 -178h-107q-169 0 -169 178v192q-255 3 -255 260
q0 260 260 260t260 -260q0 -207 -165 -249z" />
    <glyph glyph-name="u1009" unicode="&#x1009;" 
d="M140 34v-206q0 -98 119 -98h253q118 0 118 98v132h100v-132q0 -198 -218 -198h-253q-219 0 -219 198v348l97 32q24 -108 163 -108q160 0 160 160t-160 160q-139 0 -163 -108l-97 32q38 176 260 176q260 0 260 -260t-260 -260q-98 0 -160 34z" />
    <glyph glyph-name="u100A" unicode="&#x100a;" horiz-adv-x="1020" 
d="M40 176l97 32q24 -108 163 -108q160 0 160 160t-160 160q-139 0 -163 -108l-97 32q38 176 260 176q260 0 260 -260q0 -160 160 -160t160 160t-160 160q-40 0 -69 -10l-42 95q48 15 111 15q260 0 260 -260t-260 -260q-146 0 -210 82q-64 -82 -210 -82q-98 0 -160 34v-206
q0 -98 119 -98h503q118 0 118 98v132h100v-132q0 -198 -218 -198h-503q-219 0 -219 198v348z" />
    <glyph glyph-name="u100B" unicode="&#x100b;" 
d="M560 -270h80v-100h-180v167q-71 -17 -160 -17q-157 0 -260 53v158l37 18q77 -69 223 -69q94 0 160 29v65q-62 -34 -160 -34q-260 0 -260 260t260 260q222 0 260 -176l-97 -32q-24 108 -163 108q-160 0 -160 -160t160 -160q139 0 163 108l97 -32v-205q-90 -81 -260 -81
q-91 0 -160 24v-65q70 -19 160 -19q162 0 260 64v-164z" />
    <glyph glyph-name="u100C" unicode="&#x100c;" 
d="M560 -172q0 -198 -188 -198h-143q-189 0 -189 159t189 159h103v-100h-103q-89 0 -89 -59t89 -59h143q88 0 88 98v206q-62 -34 -160 -34q-260 0 -260 260t260 260q222 0 260 -176l-97 -32q-24 108 -163 108q-160 0 -160 -160t160 -160q139 0 163 108l97 -32v-348z" />
    <glyph glyph-name="u100D" unicode="&#x100d;" 
d="M140 -31q66 -29 160 -29q146 0 223 69l37 -18v-261h80v-100h-180v234q-69 -24 -160 -24q-170 0 -260 81v255l97 32q24 -108 163 -108q160 0 160 160t-160 160q-139 0 -163 -108l-97 32q38 176 260 176q260 0 260 -260t-260 -260q-98 0 -160 34v-65z" />
    <glyph glyph-name="u100E" unicode="&#x100e;" 
d="M300 100q160 0 160 160q0 139 -108 163l32 97q176 -38 176 -260q0 -260 -260 -260t-260 260q0 58 34 98q18 20 74 51v11h-108v100h108q100 0 100 -93q0 -94 -54 -106t-54 -61q0 -160 160 -160z" />
    <glyph glyph-name="u100F" unicode="&#x100f;" horiz-adv-x="1020" 
d="M553 83q-23 64 -23 177q0 116 45 180q-18 30 -65 30t-65 -30q45 -64 45 -180q0 -113 -23 -177q2 -33 43 -33t43 33zM367 105q22 53 22 155q0 160 -125 160t-125 -160t126 -160v-100q-225 0 -225 260t225 260q89 0 143 -41q30 41 102 41t102 -41q54 41 143 41
q225 0 225 -260t-225 -260v100q126 0 126 160t-125 160t-125 -160q0 -102 22 -155v-20q0 -85 -143 -85t-143 85v20z" />
    <glyph glyph-name="u1010" unicode="&#x1010;" horiz-adv-x="1020" 
d="M510 438q64 82 210 82q260 0 260 -260t-260 -260q-63 0 -111 15l42 95q29 -10 69 -10q160 0 160 160t-160 160t-160 -160q0 -260 -260 -260t-260 260t260 260q146 0 210 -82zM300 100q160 0 160 160t-160 160t-160 -160t160 -160z" />
    <glyph glyph-name="u1011" unicode="&#x1011;" horiz-adv-x="1020" 
d="M720 420q-160 0 -160 -160t160 -160t160 160t-160 160zM300 420q-160 0 -160 -160t160 -160t160 160t-160 160zM510 438q64 82 210 82q260 0 260 -260t-260 -260q-146 0 -210 82q-64 -82 -210 -82q-260 0 -260 260t260 260q146 0 210 -82z" />
    <glyph glyph-name="u1012" unicode="&#x1012;" 
d="M330 310q130 6 130 57q0 53 -160 53t-160 -63h-100q0 163 260 163t260 -153q0 -72 -87 -107q87 -34 87 -107q0 -153 -260 -153t-260 163h100q0 -63 160 -63t160 53q0 51 -130 57h-30v100h30z" />
    <glyph glyph-name="u1013" unicode="&#x1013;" 
d="M458 224q2 17 2 36q0 160 -160 160t-160 -160q0 -19 2 -36q61 36 158 36t158 -36zM158 171q35 -71 142 -71t142 71q-51 39 -142 39t-142 -39zM40 260q0 260 260 260t260 -260t-260 -260t-260 260z" />
    <glyph glyph-name="u1014" unicode="&#x1014;" 
d="M249 102q-8 78 -79 78q-30 0 -30 -30q0 -41 109 -48zM250 2q-210 13 -210 148q0 90 120 90q53 0 122 -40q58 -34 67 -98q111 8 111 58q0 41 -59 57l-105 28q-156 42 -156 145q0 130 150 130q170 0 170 -140h-100q0 40 -70 40q-50 0 -50 -30q0 -28 69 -46l105 -28
q146 -39 146 -156q0 -144 -210 -158v-372h-100v372z" />
    <glyph glyph-name="u1015" unicode="&#x1015;" 
d="M40 260q0 222 176 260l32 -97q-108 -24 -108 -163q0 -160 160 -160t160 160q0 139 -108 163l32 97q176 -38 176 -260q0 -260 -260 -260t-260 260z" />
    <glyph glyph-name="u1016" unicode="&#x1016;" 
d="M320 433q0 48 12.5 67.5t37.5 19.5h14q176 -38 176 -260q0 -260 -260 -260t-260 260q0 222 176 260l32 -97q-108 -24 -108 -163q0 -160 160 -160q90 0 129 50q-109 115 -109 283zM460 260q0 127 -90 158q4 -139 82 -222q8 28 8 64z" />
    <glyph glyph-name="u1017" unicode="&#x1017;" 
d="M190 396q-50 -42 -50 -136q0 -160 160 -160t160 160q0 94 -50 136q-33 -43 -110 -43t-110 43zM239 421q21 -18 61 -18t61 18q-5 1 -9 2l32 97q176 -38 176 -260q0 -260 -260 -260t-260 260q0 222 176 260l32 -97q-4 -1 -9 -2z" />
    <glyph glyph-name="u1018" unicode="&#x1018;" horiz-adv-x="1020" 
d="M300 420q-139 0 -163 -108l-97 32q38 176 260 176q146 0 210 -82q64 82 210 82q260 0 260 -260t-260 -260q-63 0 -111 15l42 95q29 -10 69 -10q160 0 160 160t-160 160t-160 -160q0 -260 -260 -260q-222 0 -260 176l97 32q24 -108 163 -108q160 0 160 160t-160 160z" />
    <glyph glyph-name="u1019" unicode="&#x1019;" 
d="M158 171q35 -71 142 -71t142 71q-51 39 -142 39t-142 -39zM142 224q61 36 158 36t158 -36q2 17 2 36q0 139 -108 163l32 97q176 -38 176 -260q0 -260 -260 -260t-260 260q0 222 176 260l32 -97q-108 -24 -108 -163q0 -19 2 -36z" />
    <glyph glyph-name="u101A" unicode="&#x101a;" horiz-adv-x="1020" 
d="M300 0q-260 0 -260 260q0 222 176 260l32 -97q-108 -24 -108 -163q0 -160 160 -160t160 160q0 139 -108 163l32 97q176 -38 176 -260q0 -160 160 -160t160 160t-160 160q-40 0 -69 -10l-42 95q48 15 111 15q260 0 260 -260t-260 -260q-146 0 -210 82q-64 -82 -210 -82z
" />
    <glyph glyph-name="u101B" unicode="&#x101b;" 
d="M150 189q30 -89 150 -89q30 0 54 6v1q-5 11 -22 29q-18 18 -41 30q-47 24 -118 24q-12 0 -23 -1zM300 420q-160 0 -160 -160q0 -11 1 -21q15 1 32 1q103 0 165 -41q31 -20 52 -51q21 -30 21 -55q0 -48 -34 -70.5t-77 -22.5q-260 0 -260 260t260 260t260 -260v-530h80
v-100h-180v630q0 160 -160 160z" />
    <glyph glyph-name="u101C" unicode="&#x101c;" horiz-adv-x="1020" 
d="M720 100q160 0 160 160t-160 160q-40 0 -69 -10l-42 95q48 15 111 15q260 0 260 -260t-260 -260t-260 260q0 160 -160 160t-160 -160t160 -160q40 0 69 10l42 -95q-48 -15 -111 -15q-260 0 -260 260t260 260t260 -260q0 -160 160 -160z" />
    <glyph glyph-name="u101D" unicode="&#x101d;" 
d="M300 420q-160 0 -160 -160t160 -160t160 160t-160 160zM300 520q260 0 260 -260t-260 -260t-260 260t260 260z" />
    <glyph glyph-name="u101E" unicode="&#x101e;" horiz-adv-x="1020" 
d="M460 260q0 160 -160 160q-139 0 -163 -108l-97 32q38 176 260 176q260 0 260 -260q0 -160 160 -160t160 160t-160 160q-40 0 -69 -10l-42 95q48 15 111 15q260 0 260 -260t-260 -260q-146 0 -210 82q-64 -82 -210 -82q-222 0 -260 176l97 32q24 -108 163 -108
q160 0 160 160z" />
    <glyph glyph-name="u101F" unicode="&#x101f;" horiz-adv-x="1020" 
d="M512 441q65 79 208 79q260 0 260 -260t-260 -260q-63 0 -111 15l42 95q29 -10 69 -10q160 0 160 160t-160 160t-160 -160q0 -260 -260 -260t-260 260q0 222 176 260l32 -97q-108 -24 -108 -163q0 -160 160 -160t160 160q0 139 -108 163l32 97q85 -18 128 -79z" />
    <glyph glyph-name="u1020" unicode="&#x1020;" 
d="M40 -9l37 18q77 -69 223 -69q94 0 160 29v65q-62 -34 -160 -34q-260 0 -260 260t260 260q222 0 260 -176l-97 -32q-24 108 -163 108q-160 0 -160 -160t160 -160q139 0 163 108l97 -32v-255q-90 -81 -260 -81q-91 0 -160 24v-66q0 -68 89 -68h143q88 0 88 68h100
q0 -168 -188 -168h-143q-189 0 -189 168v193z" />
    <glyph glyph-name="u1021" unicode="&#x1021;" horiz-adv-x="1020" 
d="M847 190q-71 0 -118 -24q-23 -12 -41 -30q-17 -18 -22 -29v-1q24 -6 54 -6q120 0 150 89q-11 1 -23 1zM510 472q64 48 210 48q260 0 260 -260t-260 -260q-43 0 -77 22.5t-34 70.5q0 25 21 55q21 31 52 51q62 41 165 41q17 0 32 -1q1 10 1 21q0 160 -160 160t-160 -53
q0 -72 -87 -107q87 -34 87 -107q0 -153 -260 -153t-260 163h100q0 -63 160 -63t160 53q0 51 -130 57h-30v100h30q130 6 130 57q0 53 -160 53t-160 -63h-100q0 163 260 163q146 0 210 -48z" />
    <glyph glyph-name="u1022" unicode="&#x1022;" horiz-adv-x="1020" 
d="M248 93q0 -93 -100 -93h-108v100h108v11q-56 31 -74 51q-34 40 -34 98q0 260 260 260q146 0 210 -82q64 82 210 82q260 0 260 -260t-260 -260q-63 0 -111 15l42 95q29 -10 69 -10q160 0 160 160t-160 160t-160 -160q0 -222 -176 -260l-32 97q108 24 108 163
q0 160 -160 160t-160 -160q0 -49 54 -61t54 -106z" />
    <glyph glyph-name="u1023" unicode="&#x1023;" horiz-adv-x="1020" 
d="M510 438q64 82 210 82q260 0 260 -260t-260 -260q-63 0 -111 15l42 95q29 -10 69 -10q160 0 160 160t-160 160t-160 -160q0 -222 -176 -260l-32 97q108 24 108 163q0 160 -160 160t-160 -160q0 -139 108 -163l-32 -97q-176 38 -176 260q0 260 260 260q146 0 210 -82z
M800 -270h100v-100h-265q-17 0 -32 2l18 99q7 -1 14 -1q75 0 75 75t-75 75t-75 -75q0 -148 -125 -171l-28 98q53 10 53 73q0 75 -75 75t-75 -75q0 -63 53 -73l-28 -98q-125 23 -125 171q0 175 175 175q81 0 125 -38q44 38 125 38q175 0 175 -175q0 -43 -10 -75z" />
    <glyph glyph-name="u1024" unicode="&#x1024;" horiz-adv-x="1200" 
d="M229 -370q-189 0 -189 159t189 159h573v-100h-573q-89 0 -89 -59t89 -59h563q88 0 88 98v432q0 160 -160 160t-160 -160q0 -222 -176 -260l-32 97q108 24 108 163q0 160 -160 160t-160 -160q0 -139 108 -163l-32 -97q-176 38 -176 260q0 260 260 260q146 0 210 -82
q64 82 210 82q260 0 260 -260v-432q0 -198 -188 -198h-563zM900 640q260 0 260 -260v-750h-100v750q0 160 -160 160q-175 0 -175 175t175 175t175 -175h-100q0 75 -75 75t-75 -75t75 -75z" />
    <glyph glyph-name="u1025" unicode="&#x1025;" 
d="M40 176l97 32q24 -108 163 -108q160 0 160 160t-160 160q-139 0 -163 -108l-97 32q38 176 260 176q260 0 260 -260t-260 -260q-98 0 -160 34v-206q0 -98 88 -98h143q89 0 89 59t-89 59h-103v100h103q189 0 189 -159t-189 -159h-143q-188 0 -188 198v348z" />
    <glyph glyph-name="u1026" unicode="&#x1026;" 
d="M40 176l97 32q24 -108 163 -108q160 0 160 160t-160 160q-139 0 -163 -108l-97 32q38 176 260 176q260 0 260 -260t-260 -260q-98 0 -160 34v-206q0 -98 88 -98h143q89 0 89 59t-89 59h-103v100h103q189 0 189 -159t-189 -159h-143q-188 0 -188 198v348zM375 712v3
q0 75 -75 75t-75 -75v-3q31 13 75 13t75 -13zM235 658q17 -38 65 -38t65 38q-24 17 -65 17t-65 -17zM300 890q175 0 175 -175t-175 -175t-175 175t175 175z" />
    <glyph glyph-name="u1027" unicode="&#x1027;" 
d="M236 412q83 -58 222 -62q-31 70 -158 70q-36 0 -64 -8zM300 100q127 0 158 70q-139 -4 -222 -62q28 -8 64 -8zM40 260q0 260 260 260q222 0 260 -156v-14q0 -25 -19.5 -37.5t-67.5 -12.5q-168 0 -283 89q-50 -39 -50 -129t50 -129q115 89 283 89q48 0 67.5 -12.5
t19.5 -37.5v-14q-38 -156 -260 -156q-260 0 -260 260z" />
    <glyph glyph-name="u1028" unicode="&#x1028;" 
d="M347 202v-73q0 -29 57 -29q56 0 56 160t-160 160t-160 -160v-370q0 -160 160 -160t160 160h100q0 -260 -260 -260t-260 260v370q0 260 260 260t260 -260t-156 -260q-157 0 -157 129v73l40 19q63 28 63 59q0 40 -49 40q-51 0 -51 -48h-50q0 98 101 98q99 0 99 -90
q0 -45 -53 -78z" />
    <glyph glyph-name="u1029" unicode="&#x1029;" horiz-adv-x="1200" 
d="M850 3q-108 12 -160 79q-64 -82 -210 -82q-222 0 -260 176l97 32q24 -108 163 -108q160 0 160 160t-160 160q-139 0 -163 -108l-97 32q38 176 260 176q260 0 260 -260q0 -160 160 -160t160 160t-160 160q-40 0 -69 -10l-42 95q48 15 111 15q260 0 260 -260
q0 -234 -210 -257v-165q0 -208 -218 -208h-473q-219 0 -219 208v844q0 208 219 208h543v-100h-543q-119 0 -119 -108v-844q0 -108 119 -108h473q118 0 118 108v165z" />
    <glyph glyph-name="u102A" unicode="&#x102a;" horiz-adv-x="2220" 
d="M473 240q48 0 67.5 -12.5t19.5 -37.5v-14q-38 -176 -260 -176q-260 0 -260 260t260 260q222 0 260 -176l-97 -32q-24 108 -163 108q-160 0 -160 -160q0 -90 50 -129q115 109 283 109zM300 100q127 0 158 90q-139 -4 -222 -82q28 -8 64 -8zM1760 260q0 -234 -210 -257
v-165q0 -208 -218 -208h-473q-219 0 -219 208v844q0 208 219 208h833v-100h-833q-119 0 -119 -108v-844q0 -108 119 -108h473q118 0 118 108v165q-108 12 -160 79q-64 -82 -210 -82q-222 0 -260 176l97 32q24 -108 163 -108q160 0 160 160t-160 160q-139 0 -163 -108l-97 32
q38 176 260 176q260 0 260 -260q0 -160 160 -160t160 160t-160 160q-40 0 -69 -10l-42 95q48 15 111 15q146 0 210 -82q64 82 210 82q260 0 260 -260t-260 -260q-63 0 -111 15l42 95q29 -10 69 -10q160 0 160 160t-160 160t-160 -160zM1920 790q-75 0 -75 -75t75 -75v-100
q-175 0 -175 175t175 175t175 -175h-100q0 75 -75 75z" />
    <glyph glyph-name="u102B" unicode="&#x102b;" horiz-adv-x="180" 
d="M-30 750q-70 0 -70 -83h-100q0 183 170 183t170 -183v-667h-100v667q0 83 -70 83z" />
    <glyph glyph-name="u102C" unicode="&#x102c;" horiz-adv-x="420" 
d="M120 100q160 0 160 160t-160 160t-160 -160h-100q0 260 260 260t260 -260t-260 -260q-63 0 -111 15l42 95q29 -10 69 -10z" />
    <glyph glyph-name="u102D" unicode="&#x102d;" horiz-adv-x="0" 
d="M-300 790q-75 0 -75 -75t75 -75t75 75t-75 75zM-300 890q175 0 175 -175t-175 -175t-175 175t175 175z" />
    <glyph glyph-name="u102E" unicode="&#x102e;" horiz-adv-x="0" 
d="M-225 712v3q0 75 -75 75t-75 -75v-3q31 13 75 13t75 -13zM-365 658q17 -38 65 -38t65 38q-24 17 -65 17t-65 -17zM-300 890q175 0 175 -175t-175 -175t-175 175t175 175z" />
    <glyph glyph-name="u102F" unicode="&#x102f;" horiz-adv-x="0" 
d="M-250 -270h86v-100h-186v350h100v-250z" />
    <glyph glyph-name="u1030" unicode="&#x1030;" horiz-adv-x="0" 
d="M-430 -20h100v-350h-100v350zM-270 -20h100v-250h86v-100h-186v350z" />
    <glyph glyph-name="u1031" unicode="&#x1031;" 
d="M473 240q48 0 67.5 -12.5t19.5 -37.5v-14q-38 -176 -260 -176q-260 0 -260 260t260 260q222 0 260 -176l-97 -32q-24 108 -163 108q-160 0 -160 -160q0 -90 50 -129q115 109 283 109zM300 100q127 0 158 90q-139 -4 -222 -82q28 -8 64 -8z" />
    <glyph glyph-name="u1032" unicode="&#x1032;" horiz-adv-x="0" 
d="M-487 824l71 71l304 -304l-71 -71z" />
    <glyph glyph-name="u1033" unicode="&#x1033;" horiz-adv-x="0" 
d="M-300 800q-85 0 -85 -85t85 -85t85 85t-85 85zM-300 890q175 0 175 -175t-175 -175t-175 175t175 175zM-300 780q65 0 65 -65t-65 -65t-65 65t65 65zM-285 715q0 15 -15 15t-15 -15t15 -15t15 15z" />
    <glyph glyph-name="u1034" unicode="&#x1034;" horiz-adv-x="0" 
d="M-416 520l-71 71l304 304l71 -71z" />
    <glyph glyph-name="u1035" unicode="&#x1035;" horiz-adv-x="0" 
d="M-300 540q-175 0 -175 175t175 175q140 0 168 -113l-97 -30q-14 43 -71 43q-75 0 -75 -75v-3q31 13 75 13t75 -13q92 -40 92 -63q-29 -109 -167 -109zM-365 658q17 -38 65 -38t65 38q-24 17 -65 17t-65 -17z" />
    <glyph glyph-name="u1036" unicode="&#x1036;" horiz-adv-x="0" 
d="M-300 760q110 0 110 -110t-110 -110t-110 110t110 110zM-270 650q0 30 -30 30t-30 -30t30 -30t30 30z" />
    <glyph glyph-name="u1037" unicode="&#x1037;" horiz-adv-x="0" 
d="M-300 -50q110 0 110 -110t-110 -110t-110 110t110 110zM-270 -160q0 30 -30 30t-30 -30t30 -30t30 30z" />
    <glyph glyph-name="u1038" unicode="&#x1038;" horiz-adv-x="300" 
d="M150 520q110 0 110 -110t-110 -110t-110 110t110 110zM180 410q0 30 -30 30t-30 -30t30 -30t30 30zM150 220q110 0 110 -110t-110 -110t-110 110t110 110zM180 110q0 30 -30 30t-30 -30t30 -30t30 30z" />
    <glyph glyph-name="u1039" unicode="&#x1039;" horiz-adv-x="0" 
d="M-325 -160h-90v50h90v90h50v-90h90v-50h-90v-90h-50v90z" />
    <glyph glyph-name="u103A" unicode="&#x103a;" horiz-adv-x="0" 
d="M-300 790q-75 0 -75 -75t75 -75v-100q-175 0 -175 175t175 175t175 -175h-100q0 75 -75 75z" />
    <glyph glyph-name="u103B" unicode="&#x103b;" horiz-adv-x="180" 
d="M40 -370l-235 122v228h100v-169l135 -66v775h100v-890h-100z" />
    <glyph glyph-name="u103C" unicode="&#x103c;" horiz-adv-x="180" 
d="M522 -270q118 0 118 108v262h100v-262q0 -208 -218 -208h-263q-219 0 -219 208v844q0 208 219 208h263q218 0 218 -208v-82h-100v82q0 108 -118 108h-263q-119 0 -119 -108v-844q0 -108 119 -108h263z" />
    <glyph glyph-name="u103D" unicode="&#x103d;" horiz-adv-x="0" 
d="M-300 -120q-75 0 -75 -75t75 -75t75 75t-75 75zM-300 -20q175 0 175 -175t-175 -175t-175 175t175 175z" />
    <glyph glyph-name="u103E" unicode="&#x103e;" horiz-adv-x="0" 
d="M-350 -20h100v-350h-186v100h86v250z" />
    <glyph glyph-name="u103F" unicode="&#x103f;" horiz-adv-x="1440" 
d="M930 82q-64 -82 -210 -82t-210 82q-64 -82 -210 -82q-222 0 -260 176l97 32q24 -108 163 -108q160 0 160 160t-160 160q-139 0 -163 -108l-97 32q38 176 260 176q260 0 260 -260q0 -160 160 -160t160 160t-160 160q-40 0 -69 -10l-42 95q48 15 111 15q260 0 260 -260
q0 -160 160 -160t160 160t-160 160q-40 0 -69 -10l-42 95q48 15 111 15q260 0 260 -260t-260 -260q-146 0 -210 82z" />
    <glyph glyph-name="u1040" unicode="&#x1040;" 
d="M300 420q-160 0 -160 -160t160 -160t160 160t-160 160zM300 520q260 0 260 -260t-260 -260t-260 260t260 260z" />
    <glyph glyph-name="u1041" unicode="&#x1041;" 
d="M560 260q0 -260 -260 -260q-222 0 -260 176l97 32q24 -108 163 -108q160 0 160 160t-160 160q-139 0 -163 -108l-97 32q38 176 260 176q260 0 260 -260z" />
    <glyph glyph-name="u1042" unicode="&#x1042;" 
d="M40 -40h100q0 -160 160 -160t160 160v560h100v-560q0 -260 -260 -260t-260 260z" />
    <glyph glyph-name="u1043" unicode="&#x1043;" 
d="M123 44q-64 44 -83 132l97 32q24 -108 163 -108q160 0 160 160t-160 160q-139 0 -163 -108l-97 32q38 176 260 176q260 0 260 -260t-260 -260h-11l199 -199l-71 -71l-304 304z" />
    <glyph glyph-name="u1044" unicode="&#x1044;" 
d="M487 34l-304 -304l-71 71l199 199h-11q-260 0 -260 260t260 260q222 0 260 -176l-97 -32q-24 108 -163 108q-160 0 -160 -160t160 -160q139 0 163 108l97 -32q-19 -88 -83 -132z" />
    <glyph glyph-name="u1045" unicode="&#x1045;" 
d="M200 260q0 30 -30 30t-30 -30t30 -30t30 30zM40 260q0 260 260 260t260 -260v-297q0 -263 -260 -263t-260 263h100q0 -163 160 -163t160 163v297q0 160 -160 160q-89 0 -129 -50q109 -1 109 -110q0 -110 -110 -110t-130 110z" />
    <glyph glyph-name="u1046" unicode="&#x1046;" 
d="M246 410q0 110 110 110t110 -110q0 -40 -14 -65l8 -4l100 -50v-31q0 -260 -260 -260t-260 260v300q0 260 260 260t260 -260h-100q0 160 -160 160t-160 -160v-300q0 -160 160 -160q144 0 158 130l-161 81q-51 24 -51 99zM386 410q0 30 -30 30t-30 -30t30 -30t30 30z" />
    <glyph glyph-name="u1047" unicode="&#x1047;" 
d="M460 260q0 160 -160 160t-160 -130q0 -99 105 -152l-35 -78q-170 40 -170 230q0 230 260 230t260 -260q0 -134 -149 -239q-161 -114 -161 -221q0 -50 45 -50t45 50v50h100v-50q0 -150 -145 -150t-145 150q0 132 155 242q155 109 155 218z" />
    <glyph glyph-name="u1048" unicode="&#x1048;" 
d="M280 87q0 -48 -12.5 -67.5t-37.5 -19.5h-14q-176 38 -176 260q0 260 260 260t260 -260q0 -222 -176 -260l-32 97q108 24 108 163q0 160 -160 160q-90 0 -129 -50q109 -115 109 -283zM140 260q0 -127 90 -158q-4 139 -82 222q-8 -28 -8 -64z" />
    <glyph glyph-name="u1049" unicode="&#x1049;" 
d="M297 209l161 81q-14 130 -158 130q-160 0 -160 -160v-300q0 -160 160 -160t160 160h100q0 -260 -260 -260t-260 260v300q0 260 260 260t260 -260v-31l-100 -50l-8 -4q14 -25 14 -65q0 -110 -110 -110t-110 110q0 75 51 99zM356 140q-30 0 -30 -30t30 -30t30 30t-30 30z
" />
    <glyph glyph-name="u104A" unicode="&#x104a;" horiz-adv-x="180" 
d="M140 520v-520h-100v520h100z" />
    <glyph glyph-name="u104B" unicode="&#x104b;" horiz-adv-x="340" 
d="M300 520v-520h-100v520h100zM140 520v-520h-100v520h100z" />
    <glyph glyph-name="u104C" unicode="&#x104c;" 
d="M560 -202q0 -168 -189 -168h-143q-188 0 -188 168h100q0 -68 88 -68h143q89 0 89 68v66q-69 -24 -160 -24q-170 0 -260 81v255l97 32q24 -108 163 -108q160 0 160 160t-160 160q-139 0 -163 -108l-97 32q38 176 260 176q260 0 260 -260t-260 -260q-98 0 -160 34v-65
q66 -29 160 -29q146 0 223 69l37 -18v-193zM300 790q-75 0 -75 -75t75 -75v-100q-175 0 -175 175t175 175t175 -175h-100q0 75 -75 75z" />
    <glyph glyph-name="u104D" unicode="&#x104d;" horiz-adv-x="780" 
d="M150 189q30 -89 150 -89q30 0 54 6v1q-5 11 -22 29q-18 18 -41 30q-47 24 -118 24q-12 0 -23 -1zM460 260q0 160 -160 160t-160 -160q0 -11 1 -21q15 1 32 1q103 0 165 -41q31 -20 52 -51q21 -30 21 -55q0 -48 -34 -70.5t-77 -22.5q-260 0 -260 260t260 260t260 -260
v-458h-100v458zM229 -370q-189 0 -189 159t189 159h173v-100h-173q-89 0 -89 -59t89 -59h323q88 0 88 98v552q0 160 -160 160q-175 0 -175 175t175 175t175 -175h-100q0 75 -75 75t-75 -75t75 -75q260 0 260 -260v-552q0 -198 -188 -198h-323z" />
    <glyph glyph-name="u104E" unicode="&#x104e;" 
d="M560 -370h-100v404q-62 -34 -160 -34q-260 0 -260 260t260 260q222 0 260 -176l-97 -32q-24 108 -163 108q-160 0 -160 -160t160 -160q139 0 163 108l97 -32v-546z" />
    <glyph glyph-name="u104F" unicode="&#x104f;" horiz-adv-x="960" 
d="M300 100q127 0 158 70q-139 -4 -222 -62q28 -8 64 -8zM550 395q6 -15 10 -31v-14q0 -25 -19.5 -37.5t-67.5 -12.5q-168 0 -283 89q-50 -39 -50 -129t50 -129q115 89 283 89q48 0 67.5 -12.5t19.5 -37.5v-14q-38 -156 -260 -156q-260 0 -260 260t260 260q115 0 181 -42
q37 42 109 42q150 0 150 -183v-337h-100v337q0 83 -50 83q-28 0 -40 -25zM236 412q83 -58 222 -62q-31 70 -158 70q-36 0 -64 -8zM820 380q0 160 -160 160q-175 0 -175 175t175 175t175 -175h-100q0 75 -75 75t-75 -75t75 -75q260 0 260 -260v-380h-100v380z" />
    <glyph glyph-name="u1050" unicode="&#x1050;" 
d="M300 310q50 0 50 -50t-50 -50t-50 50t50 50zM300 520q260 0 260 -260q0 -222 -176 -260l-32 97q108 24 108 163q0 160 -160 160t-160 -160q0 -139 108 -163l-32 -97q-176 38 -176 260q0 260 260 260z" />
    <glyph glyph-name="u1051" unicode="&#x1051;" 
d="M250 260q0 50 50 50t50 -50t-50 -50t-50 50zM40 260q0 222 176 260l32 -97q-108 -24 -108 -163q0 -160 160 -160t160 160q0 139 -108 163l32 97q176 -38 176 -260q0 -260 -260 -260t-260 260z" />
    <glyph glyph-name="u1052" unicode="&#x1052;" 
d="M460 260q0 49 -54 61t-54 106q0 93 100 93h108v-100h-108v-11q56 -31 74 -51q34 -40 34 -98q0 -260 -260 -260t-260 260q0 222 176 260l32 -97q-108 -24 -108 -163q0 -160 160 -160t160 160z" />
    <glyph glyph-name="u1053" unicode="&#x1053;" 
d="M300 0q-260 0 -260 260q0 58 34 98q18 20 74 51v11h-108v100h108q100 0 100 -93q0 -94 -54 -106t-54 -61q0 -160 160 -160t160 160q0 49 -54 61t-54 106q0 93 100 93h108v-100h-108v-11q56 -31 74 -51q34 -40 34 -98q0 -260 -260 -260z" />
    <glyph glyph-name="u1054" unicode="&#x1054;" 
d="M190 389q-50 -39 -50 -129q0 -160 160 -160q139 0 163 108l97 -32q-38 -176 -260 -176q-260 0 -260 260t260 260q222 0 260 -176v-14q0 -25 -19.5 -37.5t-67.5 -12.5q-168 0 -283 109zM236 412q83 -78 222 -82q-31 90 -158 90q-36 0 -64 -8z" />
    <glyph glyph-name="u1055" unicode="&#x1055;" 
d="M236 412q83 -78 222 -82q-31 90 -158 90q-36 0 -64 -8zM40 260q0 260 260 260q222 0 260 -176v-14q0 -25 -19.5 -37.5t-67.5 -12.5q-168 0 -283 109q-50 -39 -50 -129q0 -160 58 -160q38 0 74 51q-2 18 -2 39h90q0 -90 53 -90q33 0 48 100l99 -15q-32 -185 -146 -185
q-64 0 -101 74q-47 -74 -110 -74q-163 0 -163 260z" />
    <glyph glyph-name="u1056" unicode="&#x1056;" horiz-adv-x="420" 
d="M280 260q0 49 -54 61t-54 106q0 93 100 93h108v-100h-108v-11q56 -31 74 -51q34 -40 34 -98q0 -260 -260 -260t-260 260h100q0 -160 160 -160t160 160z" />
    <glyph glyph-name="u1057" unicode="&#x1057;" horiz-adv-x="420" 
d="M280 260q0 49 -54 61t-54 106q0 93 100 93h108v-100h-108v-11q56 -31 74 -51q34 -40 34 -98q0 -260 -163 -260q-63 0 -110 74q-37 -74 -101 -74q-114 0 -146 185l99 15q15 -100 48 -100q53 0 53 90h90q0 -21 -2 -39q36 -51 74 -51q58 0 58 160z" />
    <glyph glyph-name="u1058" unicode="&#x1058;" horiz-adv-x="0" 
d="M-133 -129q0 -23 -92 -63q-31 -13 -75 -13t-75 13v-3q0 -75 75 -75q57 0 71 43l97 -30q-28 -113 -168 -113q-175 0 -175 175t175 175q138 0 167 -109zM-300 -155q41 0 65 17q-17 38 -65 38t-65 -38q24 -17 65 -17z" />
    <glyph glyph-name="u1059" unicode="&#x1059;" horiz-adv-x="0" 
d="M-300 -155q41 0 65 17q-17 38 -65 38t-65 -38q24 -17 65 -17zM-475 -195q0 175 175 175q138 0 167 -109q0 -23 -92 -63q-31 -13 -75 -13t-75 13v-3q0 -95 30 -95t30 45h50q0 -45 40 -45q30 0 30 45h70q0 -125 -100 -125q-40 0 -65 31q-25 -31 -65 -31q-120 0 -120 175z
" />
    <glyph glyph-name="u105A" unicode="&#x105a;" 
d="M345 -125q0 35 -45 35t-45 -35h-70q0 105 115 105t115 -105q0 -63 -55 -95t-55 -51q0 -29 45 -29h33v-70h-33q-115 0 -115 99q0 50 55 79t55 67zM300 520q222 0 260 -176l-97 -32q-24 108 -163 108q-160 0 -160 -160t160 -160q139 0 163 108l97 -32q-38 -176 -260 -176
q-260 0 -260 260t260 260z" />
    <glyph glyph-name="u105B" unicode="&#x105b;" horiz-adv-x="780" 
d="M463 312q-16 72 -83 96q-16 -15 -16 -46q0 -60 60 -60q20 0 39 10zM640 212q-100 12 -135 67q-27 -27 -81 -27q-110 0 -110 110q0 34 10 57q-11 1 -24 1q-160 0 -160 -160t160 -160q139 0 163 108l97 -32q-29 -134 -165 -166v-202q0 -78 69 -78h107q69 0 69 78v404z
M295 0q-255 3 -255 260q0 260 260 260q222 0 260 -176l-23 -8q13 -59 103 -73v257h100v-712q0 -178 -169 -178h-107q-169 0 -169 178v192z" />
    <glyph glyph-name="u105C" unicode="&#x105c;" 
d="M300 420q-160 0 -160 -160t160 -160t160 160t-160 160zM300 520q260 0 260 -260t-260 -260t-260 260t260 260zM300 360q100 0 100 -100t-100 -100t-100 100t100 100zM325 260q0 25 -25 25t-25 -25t25 -25t25 25z" />
    <glyph glyph-name="u105D" unicode="&#x105d;" 
d="M158 171q35 -71 142 -71t142 71q-51 39 -142 39t-142 -39zM419 18q-50 -18 -119 -18q-260 0 -260 260q0 222 176 260l32 -97q-108 -24 -108 -163q0 -19 2 -36q61 36 158 36t158 -36q2 17 2 36q0 139 -108 163l32 97q176 -38 176 -260q0 -130 -65 -195q65 -42 65 -153
v-104q0 -178 -188 -178h-143q-189 0 -189 144q0 154 189 154h103v-100h-103q-89 0 -89 -54q0 -44 89 -44h143q88 0 88 78v104q0 75 -41 106z" />
    <glyph glyph-name="u105E" unicode="&#x105e;" horiz-adv-x="0" 
d="M-140 -192v20h-231q-89 0 -89 -54q0 -44 89 -44h143q88 0 88 78zM-140 -72q-5 62 -41 90l76 47q60 -39 65 -137h92v-100h-92v-20q0 -178 -188 -178h-143q-189 0 -189 144q0 154 189 154h231z" />
    <glyph glyph-name="u105F" unicode="&#x105f;" horiz-adv-x="0" 
d="M-270 -131q-85 0 -85 -62t55 -62t55 67h100q0 -167 -155 -167t-155 162q0 144 173 158v35l102 -1v-131z" />
    <glyph glyph-name="u1060" unicode="&#x1060;" horiz-adv-x="0" 
d="M-277 -200h126v-100h-277l-21 41l175 213l69 -61z" />
    <glyph glyph-name="u1061" unicode="&#x1061;" 
d="M150 189q30 -89 150 -89q30 0 54 6v1q-5 11 -22 29q-18 18 -41 30q-47 24 -118 24q-12 0 -23 -1zM383 27v-397h-186v100h86v270q-243 9 -243 260q0 260 260 260t260 -260v-530h80v-100h-180v630q0 160 -160 160t-160 -160q0 -11 1 -21q15 1 32 1q103 0 165 -41
q31 -20 52 -51q21 -30 21 -55q0 -44 -28 -66z" />
    <glyph glyph-name="u1062" unicode="&#x1062;" horiz-adv-x="180" 
d="M140 0h-100v420h-80v100h180v-520z" />
    <glyph glyph-name="u1063" unicode="&#x1063;" 
d="M40 176l97 32q24 -108 163 -108q160 0 160 160t-160 160q-139 0 -163 -108l-97 32q38 176 260 176q260 0 260 -260t-260 -260q-98 0 -160 34v-404h-100v546z" />
    <glyph glyph-name="u1064" unicode="&#x1064;" horiz-adv-x="180" 
d="M140 100h80v-100h-180v420h-80v100h180v-420z" />
    <glyph glyph-name="u1065" unicode="&#x1065;" 
d="M560 260q0 -260 -260 -260q-222 0 -260 176l97 32q24 -108 163 -108q160 0 160 160t-160 160q-139 0 -163 -108l-97 32q38 176 260 176q260 0 260 -260z" />
    <glyph glyph-name="u1066" unicode="&#x1066;" 
d="M461 38v-408h-186v100h86v274q-28 -4 -61 -4q-260 0 -260 260q0 222 176 260l32 -97q-108 -24 -108 -163q0 -160 160 -160t160 160q0 139 -108 163l32 97q176 -38 176 -260q0 -160 -99 -222z" />
    <glyph glyph-name="u1067" unicode="&#x1067;" horiz-adv-x="220" 
d="M105 100q0 25 -25 25t-25 -25t25 -25t25 25zM80 200v320h100v-420q0 -100 -100 -100t-100 100t100 100z" />
    <glyph glyph-name="u1068" unicode="&#x1068;" horiz-adv-x="180" 
d="M140 0h-180v100h80v420h100v-520zM90 740q100 0 100 -100t-100 -100t-100 100t100 100zM115 640q0 25 -25 25t-25 -25t25 -25t25 25z" />
    <glyph glyph-name="u1069" unicode="&#x1069;" horiz-adv-x="292" 
d="M140 143q0 -43 67 -43h45v-100h-45q-167 0 -167 143q0 79 56 127.5t56 105.5q0 44 -67 44h-45v100h45q167 0 167 -144q0 -79 -56 -127.5t-56 -105.5z" />
    <glyph glyph-name="u106A" unicode="&#x106a;" horiz-adv-x="180" 
d="M-15 100q55 0 55 73v347h100v-347q0 -173 -155 -173t-155 173h100q0 -73 55 -73z" />
    <glyph glyph-name="u106B" unicode="&#x106b;" horiz-adv-x="180" 
d="M-70 347h-100q0 173 155 173t155 -173v-347h-100v347q0 73 -55 73t-55 -73z" />
    <glyph glyph-name="u106C" unicode="&#x106c;" horiz-adv-x="180" 
d="M250 173h100q0 -173 -155 -173t-155 173v347h100v-347q0 -73 55 -73t55 73z" />
    <glyph glyph-name="u106D" unicode="&#x106d;" horiz-adv-x="292" 
d="M40 376q0 144 167 144h45v-100h-45q-67 0 -67 -44q0 -57 56 -105.5t56 -127.5q0 -143 -167 -143h-45v100h45q67 0 67 43q0 57 -56 105.5t-56 127.5z" />
    <glyph glyph-name="u106E" unicode="&#x106e;" horiz-adv-x="1220" 
d="M400 508q44 12 100 12q146 0 210 -82q64 82 210 82q260 0 260 -260t-260 -260q-63 0 -111 15l42 95q29 -10 69 -10q160 0 160 160t-160 160t-160 -160q0 -222 -176 -260l-32 97q108 24 108 163q0 148 -137 159q37 -61 37 -159q0 -222 -176 -260l-32 97q108 24 108 163
q0 160 -160 160t-160 -160q0 -139 108 -163l-32 -97q-176 38 -176 260q0 260 260 260q56 0 100 -12z" />
    <glyph glyph-name="u106F" unicode="&#x106f;" horiz-adv-x="1020" 
d="M805 8v-378h-186v100h86v270q-54 2 -96 15l42 95q29 -10 69 -10q160 0 160 160t-160 160t-160 -160q0 -260 -260 -260t-260 260q0 222 176 260l32 -97q-108 -24 -108 -163q0 -160 160 -160t160 160q0 139 -108 163l32 97q85 -18 128 -79q65 79 208 79q260 0 260 -260
q0 -213 -175 -252z" />
    <glyph glyph-name="u1070" unicode="&#x1070;" horiz-adv-x="1020" 
d="M705 0q-134 4 -195 82q-64 -82 -210 -82q-260 0 -260 260q0 58 34 98q18 20 74 51v11h-108v100h108q100 0 100 -93q0 -94 -54 -106t-54 -61q0 -160 160 -160t160 160q0 139 -108 163l32 97q176 -38 176 -260q0 -160 160 -160t160 160t-160 160q-40 0 -69 -10l-42 95
q48 15 111 15q260 0 260 -260q0 -213 -175 -252v-378h-186v100h86v270z" />
    <glyph glyph-name="u1071" unicode="&#x1071;" horiz-adv-x="0" 
d="M-193 825q93 0 93 -100t-93 -100t-93 100t93 100zM-168 725q0 25 -25 25t-25 -25t25 -25t25 25zM-407 825q93 0 93 -100t-93 -100t-93 100t93 100zM-382 725q0 25 -25 25t-25 -25t25 -25t25 25z" />
    <glyph glyph-name="u1072" unicode="&#x1072;" horiz-adv-x="0" 
d="M-473 715q0 175 175 175q148 0 171 -125l-98 -28q-10 53 -73 53q-75 0 -75 -75t75 -75q63 0 73 53l98 -28q-23 -125 -171 -125q-175 0 -175 175z" />
    <glyph glyph-name="u1073" unicode="&#x1073;" horiz-adv-x="0" 
d="M-300 849l264 -264l-86 -65l-178 178l-179 -178l-85 65z" />
    <glyph glyph-name="u1074" unicode="&#x1074;" horiz-adv-x="0" 
d="M-300 542q-175 0 -175 175q0 148 125 171l28 -98q-53 -10 -53 -73q0 -75 75 -75t75 75q0 63 -53 73l28 98q125 -23 125 -171q0 -175 -175 -175z" />
    <glyph glyph-name="u1075" unicode="&#x1075;" 
d="M140 260q0 -49 54 -61t54 -106q0 -93 -100 -93h-108v100h108v11q-56 31 -74 51q-34 40 -34 98q0 260 260 260t260 -260q0 -222 -176 -260l-32 97q108 24 108 163q0 160 -160 160t-160 -160z" />
    <glyph glyph-name="u1076" unicode="&#x1076;" 
d="M364 108q-83 78 -222 82q31 -90 158 -90q36 0 64 8zM42 352q-72 18 -72 119v49h50v-49q0 -59 36 -70l1 -6q56 125 243 125q260 0 260 -260t-260 -260q-222 0 -260 176v14q0 25 19.5 37.5t67.5 12.5q168 0 283 -109q50 39 50 129q0 160 -160 160q-139 0 -163 -108l-97 32z
" />
    <glyph glyph-name="u1077" unicode="&#x1077;" 
d="M452 324q-78 -83 -82 -222q90 31 90 158q0 36 -8 64zM300 420q-160 0 -160 -160q0 -49 54 -61t54 -106q0 -93 -100 -93h-108v100h108v11q-56 31 -74 51q-34 40 -34 98q0 260 260 260t260 -260q0 -222 -176 -260h-14q-25 0 -37.5 19.5t-12.5 67.5q0 168 109 283
q-39 50 -129 50z" />
    <glyph glyph-name="u1078" unicode="&#x1078;" horiz-adv-x="1020" 
d="M720 520q260 0 260 -260t-260 -260t-260 260q0 160 -160 160t-160 -160t160 -160q40 0 69 10l42 -95q-48 -15 -111 -15q-260 0 -260 260t260 260q146 0 210 -82q64 82 210 82zM880 260q0 160 -160 160t-160 -160t160 -160t160 160z" />
    <glyph glyph-name="u1079" unicode="&#x1079;" horiz-adv-x="1020" 
d="M880 260q0 160 -160 160t-160 -160t160 -160t160 160zM150 189q30 -89 150 -89q30 0 54 6v1q-5 11 -22 29q-18 18 -41 30q-47 24 -118 24q-12 0 -23 -1zM300 520q146 0 210 -82q64 82 210 82q260 0 260 -260t-260 -260t-260 260q0 160 -160 160t-160 -160q0 -11 1 -21
q15 1 32 1q103 0 165 -41q31 -20 52 -51q21 -30 21 -55q0 -48 -34 -70.5t-77 -22.5q-260 0 -260 260t260 260z" />
    <glyph glyph-name="u107A" unicode="&#x107a;" horiz-adv-x="1020" 
d="M560 38v-308h86v-100h-186v630q0 160 -160 160t-160 -160t160 -160q40 0 69 10l42 -95q-48 -15 -111 -15q-260 0 -260 260t260 260t260 -260q0 -160 160 -160t160 160t-160 160q-40 0 -69 -10l-42 95q48 15 111 15q260 0 260 -260t-260 -260q-99 0 -160 38z" />
    <glyph glyph-name="u107B" unicode="&#x107b;" horiz-adv-x="1020" 
d="M300 100q160 0 160 160t-160 160t-160 -160t160 -160zM847 190q-71 0 -118 -24q-23 -12 -41 -30q-17 -18 -22 -29v-1q24 -6 54 -6q120 0 150 89q-11 1 -23 1zM980 260q0 -260 -260 -260q-43 0 -77 22.5t-34 70.5q0 25 21 55q21 31 52 51q62 41 165 41q17 0 32 -1
q1 10 1 21q0 160 -160 160t-160 -160q0 -260 -260 -260t-260 260t260 260q146 0 210 -82q64 82 210 82q260 0 260 -260z" />
    <glyph glyph-name="u107C" unicode="&#x107c;" horiz-adv-x="1020" 
d="M720 100q127 0 158 90q-139 -4 -222 -82q28 -8 64 -8zM364 108q-83 78 -222 82q31 -90 158 -90q36 0 64 8zM560 260q0 -90 50 -129q115 109 283 109q48 0 67.5 -12.5t19.5 -37.5v-14q-38 -176 -260 -176q-146 0 -210 82q-64 -82 -210 -82q-222 0 -260 176v14
q0 25 19.5 37.5t67.5 12.5q168 0 283 -109q50 39 50 129q0 160 -160 160q-139 0 -163 -108l-97 32q38 176 260 176q146 0 210 -82q64 82 210 82q222 0 260 -176l-97 -32q-24 108 -163 108q-160 0 -160 -160z" />
    <glyph glyph-name="u107D" unicode="&#x107d;" horiz-adv-x="1020" 
d="M720 100q127 0 158 90q-139 -4 -222 -82q28 -8 64 -8zM510 82q-64 -82 -210 -82q-260 0 -260 260q0 58 34 98q18 20 74 51v11h-108v100h108q100 0 100 -93q0 -94 -54 -106t-54 -61q0 -160 160 -160t160 160q0 260 260 260q222 0 260 -176l-97 -32q-24 108 -163 108
q-160 0 -160 -160q0 -90 50 -129q115 109 283 109q48 0 67.5 -12.5t19.5 -37.5v-14q-38 -176 -260 -176q-146 0 -210 82z" />
    <glyph glyph-name="u107E" unicode="&#x107e;" horiz-adv-x="1020" 
d="M720 100q127 0 158 90q-139 -4 -222 -82q28 -8 64 -8zM775 3v-373h-186v100h86v272q-111 11 -165 80q-64 -82 -210 -82q-260 0 -260 260q0 58 34 98q18 20 74 51v11h-108v100h108q100 0 100 -93q0 -94 -54 -106t-54 -61q0 -160 160 -160t160 160q0 260 260 260
q222 0 260 -176l-97 -32q-24 108 -163 108q-160 0 -160 -160q0 -90 50 -129q115 109 283 109q48 0 67.5 -12.5t19.5 -37.5v-14q-33 -153 -205 -173z" />
    <glyph glyph-name="u107F" unicode="&#x107f;" 
d="M171 150q39 -50 129 -50q160 0 160 160q0 139 -108 163l32 97q176 -38 176 -260q0 -260 -260 -260t-260 260q0 222 176 260h14q25 0 37.5 -19.5t12.5 -67.5q0 -168 -109 -283zM148 196q78 83 82 222q-90 -31 -90 -158q0 -36 8 -64z" />
    <glyph glyph-name="u1080" unicode="&#x1080;" horiz-adv-x="1020" 
d="M364 108q-83 78 -222 82q31 -90 158 -90q36 0 64 8zM410 131q50 39 50 129q0 160 -160 160q-139 0 -163 -108l-97 32q38 176 260 176q260 0 260 -260q0 -160 160 -160t160 160t-160 160q-40 0 -69 -10l-42 95q48 15 111 15q260 0 260 -260t-260 -260q-146 0 -210 82
q-64 -82 -210 -82q-222 0 -260 176v14q0 25 19.5 37.5t67.5 12.5q168 0 283 -109z" />
    <glyph glyph-name="u1081" unicode="&#x1081;" 
d="M251 97v-467h-186v100h86v293q-111 61 -111 237q0 260 260 260t260 -260q0 -222 -176 -260l-32 97q108 24 108 163q0 160 -160 160t-160 -160q0 -139 108 -163h3z" />
    <glyph glyph-name="u1082" unicode="&#x1082;" horiz-adv-x="0" 
d="M-300 -120q-75 0 -75 -75t75 -75t75 75h100q0 -175 -175 -175t-175 175t175 175q88 0 132 -44l-74 -77q-19 21 -58 21z" />
    <glyph glyph-name="u1083" unicode="&#x1083;" horiz-adv-x="180" 
d="M40 420h-80v100h180v-790h80v-100h-180v790z" />
    <glyph glyph-name="u1084" unicode="&#x1084;" 
d="M300 310v-100h-30q-130 -6 -130 -57q0 -53 160 -53t160 63h100q0 -163 -260 -163t-260 153q0 73 87 107q-87 35 -87 107q0 153 260 153t260 -163h-100q0 63 -160 63t-160 -53q0 -51 130 -57h30z" />
    <glyph glyph-name="u1085" unicode="&#x1085;" horiz-adv-x="0" 
d="M-384 715q-44 25 -44 75q0 100 175 100q47 0 81 -7l-9 -69q-28 6 -72 6q-85 0 -85 -30q0 -40 85 -40v-70q-85 0 -85 -40q0 -30 85 -30q44 0 72 6l9 -69q-34 -7 -81 -7q-175 0 -175 100q0 50 44 75z" />
    <glyph glyph-name="u1086" unicode="&#x1086;" horiz-adv-x="0" 
d="M-275 760q0 25 -25 25t-25 -25t25 -25t25 25zM-200 728q0 -175 -151 -217l-36 68q48 21 71 82q-84 7 -84 99q0 100 100 100t100 -100v-32z" />
    <glyph glyph-name="u1087" unicode="&#x1087;" horiz-adv-x="280" 
d="M165 100q0 25 -25 25t-25 -25t25 -25t25 25zM240 68q0 -175 -151 -217l-36 68q48 21 71 82q-84 7 -84 99q0 100 100 100t100 -100v-32z" />
    <glyph glyph-name="u1088" unicode="&#x1088;" horiz-adv-x="280" 
d="M140 520q100 0 100 -100t-100 -100t-100 100t100 100zM165 420q0 25 -25 25t-25 -25t25 -25t25 25zM165 100q0 25 -25 25t-25 -25t25 -25t25 25zM240 68q0 -175 -151 -217l-36 68q48 21 71 82q-84 7 -84 99q0 100 100 100t100 -100v-32z" />
    <glyph glyph-name="u1089" unicode="&#x1089;" horiz-adv-x="280" 
d="M140 200q100 0 100 -100t-100 -100t-100 100t100 100zM165 100q0 25 -25 25t-25 -25t25 -25t25 25z" />
    <glyph glyph-name="u108A" unicode="&#x108a;" horiz-adv-x="429" 
d="M165 420q0 25 -25 25t-25 -25t25 -25t25 25zM140 320q-100 0 -100 100t100 100q92 0 99 -84q61 23 82 71l68 -36q-42 -151 -217 -151h-32zM165 100q0 25 -25 25t-25 -25t25 -25t25 25zM140 0q-100 0 -100 100t100 100q92 0 99 -84q61 23 82 71l68 -36q-42 -151 -217 -151
h-32z" />
    <glyph glyph-name="u108B" unicode="&#x108b;" horiz-adv-x="280" 
d="M140 360q100 0 100 -100t-100 -100t-100 100t100 100zM165 260q0 25 -25 25t-25 -25t25 -25t25 25z" />
    <glyph glyph-name="u108C" unicode="&#x108c;" horiz-adv-x="520" 
d="M380 360q100 0 100 -100t-100 -100t-100 100t100 100zM405 260q0 25 -25 25t-25 -25t25 -25t25 25zM140 360q100 0 100 -100t-100 -100t-100 100t100 100zM165 260q0 25 -25 25t-25 -25t25 -25t25 25z" />
    <glyph glyph-name="u108D" unicode="&#x108d;" horiz-adv-x="0" 
d="M-75 -81v-100h-450v100h450z" />
    <glyph glyph-name="u108E" unicode="&#x108e;" 
d="M300 260q-97 0 -158 36q-2 -17 -2 -36q0 -160 160 -160t160 160q0 19 -2 36q-61 -36 -158 -36zM300 310q91 0 142 39q-35 71 -142 71t-142 -71q51 -39 142 -39zM300 520q260 0 260 -260t-260 -260t-260 260t260 260z" />
    <glyph glyph-name="u108F" unicode="&#x108f;" horiz-adv-x="280" 
d="M140 520q100 0 100 -100t-100 -100t-100 100t100 100zM165 420q0 25 -25 25t-25 -25t25 -25t25 25zM140 75q25 0 25 25t-25 25t-25 -25t25 -25zM40 100q0 100 100 100t100 -100q0 -92 -84 -99q23 -61 71 -82l-36 -68q-151 42 -151 217v32z" />
    <glyph glyph-name="u1090" unicode="&#x1090;" 
d="M300 420q-160 0 -160 -160t160 -160t160 160t-160 160zM300 520q260 0 260 -260t-260 -260t-260 260t260 260z" />
    <glyph glyph-name="u1091" unicode="&#x1091;" horiz-adv-x="370" 
d="M235 99l69 41l26 -73l-112 -67h-83v421l-69 -41l-26 73l112 67h83v-421z" />
    <glyph glyph-name="u1092" unicode="&#x1092;" 
d="M140 467q44 53 160 53q260 0 260 -260q0 -134 -149 -239q-161 -114 -161 -221h-100q0 132 183 261q127 90 127 199q0 160 -160 160t-160 -130h-100v270h100v-93z" />
    <glyph glyph-name="u1093" unicode="&#x1093;" horiz-adv-x="535" 
d="M324 420l-188 -420l-96 20l327 731l96 -20l-95 -213q127 -14 127 -171v-347h-100v347q0 73 -55 73h-16z" />
    <glyph glyph-name="u1094" unicode="&#x1094;" horiz-adv-x="548" 
d="M264 520h149v-421l69 41l26 -73l-112 -67h-83v396l-177 -396l-96 20z" />
    <glyph glyph-name="u1095" unicode="&#x1095;" horiz-adv-x="480" 
d="M340 320h-75q-125 0 -125 -110t100 -110t100 160v60zM440 420h50v-100h-50v-60q0 -260 -200 -260t-200 210t225 210h75v280h100v-280z" />
    <glyph glyph-name="u1096" unicode="&#x1096;" horiz-adv-x="480" 
d="M340 260q0 160 -100 160t-100 -110t125 -110h75v60zM440 -180h-100v280h-75q-225 0 -225 210t200 210t200 -260v-60h50v-100h-50v-280z" />
    <glyph glyph-name="u1097" unicode="&#x1097;" horiz-adv-x="480" 
d="M197 100h243v-100h-400v31l245 389h-245v100h400v-33z" />
    <glyph glyph-name="u1098" unicode="&#x1098;" 
d="M300 420q-160 0 -160 -160t160 -160t160 160t-160 160zM300 570q160 0 160 160h100q0 -179 -124 -235q124 -56 124 -235q0 -260 -260 -260t-260 260q0 179 124 235q-124 56 -124 235h100q0 -160 160 -160z" />
    <glyph glyph-name="u1099" unicode="&#x1099;" 
d="M460 470q0 160 -160 160t-160 -160t160 -160t160 160zM140 0h-100q0 179 124 235q-124 56 -124 235q0 260 260 260t260 -260q0 -179 -124 -235q124 -56 124 -235h-100q0 160 -160 160t-160 -160z" />
    <glyph glyph-name="u109A" unicode="&#x109a;" horiz-adv-x="280" 
d="M140 520q100 0 100 -100t-100 -100t-100 100t100 100zM165 420q0 25 -25 25t-25 -25t25 -25t25 25z" />
    <glyph glyph-name="u109B" unicode="&#x109b;" horiz-adv-x="280" 
d="M165 420q0 25 -25 25t-25 -25t25 -25t25 25zM240 388q0 -175 -151 -217l-36 68q48 21 71 82q-84 7 -84 99q0 100 100 100t100 -100v-32z" />
    <glyph glyph-name="u109C" unicode="&#x109c;" horiz-adv-x="430" 
d="M140 125q-25 0 -25 -25t25 -25t25 25t-25 25zM172 200q175 0 217 -151l-68 -36q-21 48 -82 71q-7 -84 -99 -84q-100 0 -100 100t100 100h32zM140 445q-25 0 -25 -25t25 -25t25 25t-25 25zM172 520q175 0 217 -151l-68 -36q-21 48 -82 71q-7 -84 -99 -84q-100 0 -100 100
t100 100h32z" />
    <glyph glyph-name="u109D" unicode="&#x109d;" horiz-adv-x="0" 
d="M-185 640q-45 0 -45 -43h-100q0 143 145 143t145 -183v-157h-100v157q0 83 -45 83z" />
    <glyph glyph-name="u109E" unicode="&#x109e;" horiz-adv-x="180" 
d="M40 420h-80v100h180v-790h80v-100h-180v790zM90 740q100 0 100 -100t-100 -100t-100 100t100 100zM115 640q0 25 -25 25t-25 -25t25 -25t25 25z" />
    <glyph glyph-name="u109F" unicode="&#x109f;" horiz-adv-x="780" 
d="M140 260q0 -160 160 -160q40 0 69 10l42 -95q-48 -15 -111 -15q-260 0 -260 260t260 260t260 -260v-460q0 -70 40 -70t40 70v580q0 160 -160 160q-175 0 -175 175t175 175t175 -175h-100q0 75 -75 75t-75 -75t75 -75q260 0 260 -260v-580q0 -170 -140 -170t-140 170v460
q0 160 -160 160t-160 -160z" />
    <glyph glyph-name="uAA60" unicode="&#xaa60;" horiz-adv-x="1020" 
d="M847 190q-71 0 -118 -24q-23 -12 -41 -30q-17 -18 -22 -29v-1q24 -6 54 -6q120 0 150 89q-11 1 -23 1zM880 260q0 160 -160 160t-160 -160q0 -222 -176 -260l-32 97q108 24 108 163q0 160 -160 160t-160 -160q0 -139 108 -163l-32 -97q-176 38 -176 260q0 260 260 260
q146 0 210 -82q64 82 210 82q260 0 260 -260t-260 -260q-43 0 -77 22.5t-34 70.5q0 25 21 55q21 31 52 51q62 41 165 41q17 0 32 -1q1 10 1 21z" />
    <glyph glyph-name="uAA61" unicode="&#xaa61;" horiz-adv-x="1020" 
d="M720 420q-160 0 -160 -160t160 -160t160 160t-160 160zM460 260q0 160 -160 160t-160 -160q0 -49 54 -61t54 -106q0 -93 -100 -93h-108v100h108v11q-56 31 -74 51q-34 40 -34 98q0 260 260 260q146 0 210 -82q64 82 210 82q260 0 260 -260t-260 -260q-143 0 -208 79
q-43 -61 -128 -79l-32 97q108 24 108 163z" />
    <glyph glyph-name="uAA62" unicode="&#xaa62;" horiz-adv-x="797" 
d="M267 192l-180 -192h-47v520h100v-344l123 134l99 -50q0 -160 148 -160q147 0 147 160t-160 160q-59 0 -102 -17l-19 98q51 19 121 19q260 0 260 -260t-247 -260q-213 0 -243 192z" />
    <glyph glyph-name="uAA63" unicode="&#xaa63;" horiz-adv-x="1020" 
d="M452 324q-78 -83 -82 -222q90 31 90 158q0 36 -8 64zM720 420q-160 0 -160 -160t160 -160t160 160t-160 160zM512 79q-43 -61 -128 -79h-14q-25 0 -37.5 19.5t-12.5 67.5q0 168 109 283q-39 50 -129 50q-160 0 -160 -160q0 -49 54 -61t54 -106q0 -93 -100 -93h-108v100
h108v11q-56 31 -74 51q-34 40 -34 98q0 260 260 260q146 0 210 -82q64 82 210 82q260 0 260 -260t-260 -260q-143 0 -208 79z" />
    <glyph glyph-name="uAA64" unicode="&#xaa64;" horiz-adv-x="1020" 
d="M720 420q-160 0 -160 -160t160 -160t160 160t-160 160zM510 82q-64 -82 -210 -82q-260 0 -260 260q0 222 176 260l32 -97q-108 -24 -108 -163q0 -160 160 -160t160 160q0 139 -108 163l32 97q85 -18 128 -79q65 79 208 79q260 0 260 -260t-260 -260q-146 0 -210 82z" />
    <glyph glyph-name="uAA65" unicode="&#xaa65;" horiz-adv-x="1020" 
d="M300 0q-260 0 -260 260t260 260q63 0 111 -15l-42 -95q-29 10 -69 10q-160 0 -160 -160t160 -160t160 160q0 260 260 260t260 -260t-260 -260q-63 0 -111 15l42 95q29 -10 69 -10q160 0 160 160t-160 160t-160 -160v-630h-186v100h86v308q-61 -38 -160 -38z" />
    <glyph glyph-name="uAA66" unicode="&#xaa66;" horiz-adv-x="1020" 
d="M510 438q64 82 210 82q260 0 260 -260t-260 -260q-63 0 -111 15l42 95q29 -10 69 -10q160 0 160 160t-160 160t-160 -160q0 -260 -260 -260t-260 260t260 260q146 0 210 -82zM300 100q160 0 160 160t-160 160t-160 -160t160 -160zM300 310q50 0 50 -50t-50 -50t-50 50
t50 50z" />
    <glyph glyph-name="uAA67" unicode="&#xaa67;" horiz-adv-x="1020" 
d="M720 420q-160 0 -160 -160t160 -160t160 160t-160 160zM300 420q-160 0 -160 -160t160 -160t160 160t-160 160zM510 438q64 82 210 82q260 0 260 -260t-260 -260q-146 0 -210 82q-64 -82 -210 -82q-260 0 -260 260t260 260q146 0 210 -82zM300 310q50 0 50 -50t-50 -50
t-50 50t50 50z" />
    <glyph glyph-name="uAA68" unicode="&#xaa68;" horiz-adv-x="1020" 
d="M300 100q160 0 160 160t-160 160t-160 -160t160 -160zM847 190q-71 0 -118 -24q-23 -12 -41 -30q-17 -18 -22 -29v-1q24 -6 54 -6q120 0 150 89q-11 1 -23 1zM980 260q0 -260 -260 -260q-43 0 -77 22.5t-34 70.5q0 25 21 55q21 31 52 51q62 41 165 41q17 0 32 -1
q1 10 1 21q0 160 -160 160t-160 -160q0 -260 -260 -260t-260 260t260 260q146 0 210 -82q64 82 210 82q260 0 260 -260zM300 310q50 0 50 -50t-50 -50t-50 50t50 50z" />
    <glyph glyph-name="uAA69" unicode="&#xaa69;" horiz-adv-x="1020" 
d="M300 310q50 0 50 -50t-50 -50t-50 50t50 50zM751 102q129 14 129 158q0 160 -160 160q-153 0 -160 -147q171 -11 191 -171zM300 420q-160 0 -160 -160t160 -160t160 160t-160 160zM562 223q16 -114 138 -122q-18 111 -138 122zM510 438q64 82 210 82q260 0 260 -260
t-260 -260q-146 0 -210 82q-64 -82 -210 -82q-260 0 -260 260t260 260q146 0 210 -82z" />
    <glyph glyph-name="uAA6A" unicode="&#xaa6a;" horiz-adv-x="1020" 
d="M751 102q129 14 129 158q0 160 -160 160q-153 0 -160 -147q171 -11 191 -171zM300 420q-160 0 -160 -160t160 -160t160 160t-160 160zM562 223q16 -114 138 -122q-18 111 -138 122zM510 438q64 82 210 82q260 0 260 -260t-260 -260q-146 0 -210 82q-64 -82 -210 -82
q-260 0 -260 260t260 260q146 0 210 -82z" />
    <glyph glyph-name="uAA6B" unicode="&#xaa6b;" 
d="M140 260q0 -127 90 -158q-4 139 -82 222q-8 -28 -8 -64zM56 373q-64 56 -64 147h50q0 -59 37 -98q62 98 221 98q260 0 260 -260q0 -222 -176 -260l-32 97q108 24 108 163q0 160 -160 160q-90 0 -129 -50q109 -115 109 -283q0 -48 -12.5 -67.5t-37.5 -19.5h-14
q-176 38 -176 260q0 65 16 113z" />
    <glyph glyph-name="uAA6C" unicode="&#xaa6c;" horiz-adv-x="1020" 
d="M530 260q0 113 23 177q-2 33 -43 33t-43 -33q23 -64 23 -177q0 -260 -225 -260t-225 260t225 260v-100q-126 0 -126 -160t125 -160t125 160q0 102 -22 155v20q0 85 143 85t143 -85v-20q-22 -53 -22 -155q0 -160 125 -160t125 160t-126 160v100q225 0 225 -260t-225 -260
t-225 260z" />
    <glyph glyph-name="uAA6D" unicode="&#xaa6d;" horiz-adv-x="630" 
d="M170 -187q0 -183 -145 -183t-145 183h100q0 -83 45 -83t45 83v447q0 21 2 40q-102 4 -102 110q0 110 110 110q64 0 91 -37q61 37 159 37q260 0 260 -260t-260 -260q-63 0 -111 15l42 95q29 -10 69 -10q160 0 160 160t-160 160t-160 -160v-447zM110 410q0 30 -30 30
t-30 -30t30 -30t30 30z" />
    <glyph glyph-name="uAA6E" unicode="&#xaa6e;" horiz-adv-x="1020" 
d="M150 189q30 -89 150 -89q30 0 54 6v1q-5 11 -22 29q-18 18 -41 30q-47 24 -118 24q-12 0 -23 -1zM40 260q0 260 260 260t260 -260q0 -160 160 -160t160 160t-160 160q-40 0 -69 -10l-42 95q48 15 111 15q260 0 260 -260t-260 -260t-260 260q0 160 -160 160t-160 -160
q0 -11 1 -21q15 1 32 1q103 0 165 -41q31 -20 52 -51q21 -30 21 -55q0 -48 -34 -70.5t-77 -22.5q-260 0 -260 260z" />
    <glyph glyph-name="uAA6F" unicode="&#xaa6f;" horiz-adv-x="780" 
d="M480 420q-160 0 -160 -160t160 -160t160 160t-160 160zM222 306l-82 88v-394h-100v520h97l110 -118v-2q56 120 233 120q260 0 260 -260t-260 -260t-260 260q0 24 2 46z" />
    <glyph glyph-name="uAA70" unicode="&#xaa70;" horiz-adv-x="0" 
d="M-299 570q-76 0 -107 -31l-40 55q44 46 147 46q102 0 146 -46l-40 -55q-31 31 -106 31zM-299 680q-76 0 -107 -31l-40 55q44 46 147 46q102 0 146 -46l-40 -55q-31 31 -106 31z" />
    <glyph glyph-name="uAA71" unicode="&#xaa71;" horiz-adv-x="1020" 
d="M140 260q0 -127 90 -158q-4 139 -82 222q-8 -28 -8 -64zM300 520q146 0 210 -82q64 82 210 82q260 0 260 -260t-260 -260q-63 0 -111 15l42 95q29 -10 69 -10q160 0 160 160t-160 160t-160 -160q0 -222 -176 -260l-32 97q108 24 108 163q0 160 -160 160q-90 0 -129 -50
q109 -115 109 -283q0 -48 -12.5 -67.5t-37.5 -19.5h-14q-176 38 -176 260q0 260 260 260z" />
    <glyph glyph-name="uAA72" unicode="&#xaa72;" horiz-adv-x="1020" 
d="M880 260q0 160 -160 160t-160 -160t160 -160t160 160zM44 197q-4 29 -4 63q0 260 260 260q146 0 210 -82q64 82 210 82q260 0 260 -260t-260 -260q-143 0 -208 79q-43 -61 -128 -79l-32 97q108 24 108 163q0 160 -160 160t-160 -160q0 -58 19 -96q3 -5 6 -11q1 -2 2 -3
q8 -21 8 -50q0 -100 -100 -100t-100 100q0 83 69 97zM100 100q0 25 -25 25t-25 -25t25 -25t25 25z" />
    <glyph glyph-name="uAA73" unicode="&#xaa73;" horiz-adv-x="694" 
d="M140 364v-364h-100v520h98q197 -420 319 -420q97 0 97 160t-160 160q-59 0 -102 -17l-19 98q51 19 121 19q260 0 260 -260t-197 -260q-176 0 -317 364z" />
    <glyph glyph-name="uAA74" unicode="&#xaa74;" horiz-adv-x="780" 
d="M370 110q90 30 90 150q0 127 -90 158v-308zM320 -270q0 50 -50 50t-50 -50t50 -50t50 50zM320 0h-20q-260 0 -260 260q0 222 176 260l32 -97q-108 -24 -108 -163q0 -160 160 -160q10 0 20 1v332q0 48 12.5 67.5t37.5 19.5h14q176 -38 176 -260t-190 -255v-236
q68 -39 169 -39t101 58v592q0 160 -160 160q-175 0 -175 175t175 175t175 -175h-100q0 75 -75 75t-75 -75t75 -75q260 0 260 -260v-592q0 -158 -201 -158q-104 0 -172 66q-16 -66 -97 -66q-100 0 -100 100t100 100q29 0 50 -9v179z" />
    <glyph glyph-name="uAA75" unicode="&#xaa75;" horiz-adv-x="1200" 
d="M755 -270q0 25 -25 25t-25 -25t25 -25t25 25zM730 0h-10q-63 0 -111 15l42 95q29 -10 69 -10q160 0 160 160t-160 160t-160 -160q0 -222 -176 -260l-32 97q108 24 108 163q0 160 -160 160t-160 -160q0 -49 54 -61t54 -106q0 -93 -100 -93h-108v100h108v11q-56 31 -74 51
q-34 40 -34 98q0 260 260 260q146 0 210 -82q64 82 210 82q260 0 260 -260q0 -197 -150 -245v-216q68 -69 149 -69t81 58v592q0 160 -160 160q-175 0 -175 175t175 175t175 -175h-100q0 75 -75 75t-75 -75t75 -75q260 0 260 -260v-592q0 -158 -181 -158q-84 0 -152 66
q-16 -66 -97 -66q-100 0 -100 100t100 100v170z" />
    <glyph glyph-name="uAA76" unicode="&#xaa76;" horiz-adv-x="810" 
d="M365 -270q0 25 -25 25t-25 -25t25 -25t25 25zM340 0h-10q-63 0 -111 15l42 95q29 -10 69 -10q160 0 160 160t-160 160t-160 -160v-432q0 -198 -188 -198h-33q-189 0 -189 159t189 159v-100q-89 0 -89 -59t89 -59h33q88 0 88 98v519q0 73 -55 73t-55 -73h-100
q0 173 155 173q90 0 127 -58q65 58 188 58q260 0 260 -260q0 -197 -150 -245v-216q68 -69 149 -69t81 58v592q0 160 -160 160q-175 0 -175 175t175 175t175 -175h-100q0 75 -75 75t-75 -75t75 -75q260 0 260 -260v-592q0 -158 -181 -158q-84 0 -152 66q-16 -66 -97 -66
q-100 0 -100 100t100 100v170z" />
    <glyph glyph-name="uAA77" unicode="&#xaa77;" 
d="M456 30l121 -268l78 36l41 -92l-170 -76l-153 341q-9 -5 -19 -10v-231h86v-100h-186v397q206 94 206 233q0 160 -160 160t-160 -160q0 -49 54 -61t54 -106q0 -93 -100 -93h-108v100h108v11q-56 31 -74 51q-34 40 -34 98q0 260 260 260t260 -260q0 -137 -104 -230z
M300 790q-75 0 -75 -75t75 -75v-100q-175 0 -175 175t175 175t175 -175h-100q0 75 -75 75z" />
    <glyph glyph-name="uAA78" unicode="&#xaa78;" horiz-adv-x="840" 
d="M40 408l90 35q70 -65 70 -200q0 -131 -66 -196l-88 37q54 52 54 159q0 112 -60 165zM607 53l12 -12l-85 -91q-52 60 -164 60q-107 0 -159 -54l-37 88q65 66 196 66q86 0 144 -29l113 348q30 91 147 91q19 0 41 -7q49 -16 65 -53l-67 -76q-7 23 -34 31q-11 4 -20 4
q-36 0 -54 -56zM534 540l35 -90q-65 -70 -199 -70q-131 0 -196 66l37 88q52 -54 159 -54q112 0 164 60z" />
    <glyph glyph-name="uAA79" unicode="&#xaa79;" 
d="M354 -39v-231h86v-100h-186v397q206 94 206 233q0 160 -160 160t-160 -160q0 -49 54 -61t54 -106q0 -93 -100 -93h-108v100h108v11q-56 31 -74 51q-34 40 -34 98q0 260 260 260t260 -260q0 -197 -206 -299z" />
    <glyph glyph-name="uAA7A" unicode="&#xaa7a;" horiz-adv-x="1200" 
d="M640 260q0 160 -160 160t-160 -160t160 -160q40 0 69 10l42 -95q-48 -15 -111 -15q-260 0 -260 260t260 260t260 -260q0 -160 160 -160t160 160t-160 160q-40 0 -69 -10l-42 95q48 15 111 15q260 0 260 -260t-260 -260q-99 0 -160 38v-200q0 -208 -218 -208h-263
q-219 0 -219 208v736q0 208 219 208h263q118 0 118 108h100q0 -208 -218 -208h-263q-119 0 -119 -108v-736q0 -108 119 -108h263q118 0 118 108v422z" />
    <glyph glyph-name="uAA7B" unicode="&#xaa7b;" horiz-adv-x="280" 
d="M140 75q25 0 25 25t-25 25t-25 -25t25 -25zM40 100q0 100 100 100t100 -100q0 -92 -84 -99q23 -61 71 -82l-36 -68q-151 42 -151 217v32z" />
    <glyph glyph-name="u1039_1000" horiz-adv-x="0" 
d="M-350 -195q0 75 -75 75t-75 -75q0 -63 53 -73l-28 -98q-125 23 -125 171q0 175 175 175q81 0 125 -38q44 38 125 38q175 0 175 -175t-175 -175q-17 0 -32 2l18 99q7 -1 14 -1q75 0 75 75t-75 75t-75 -75q0 -148 -125 -171l-28 98q53 10 53 73z" />
    <glyph glyph-name="u1039_1001" horiz-adv-x="0" 
d="M-470 -261q0 23 92 63q31 13 75 13t75 -13v3q0 75 -75 75q-57 0 -71 -43l-97 30q28 113 168 113q175 0 175 -175t-175 -175q-138 0 -167 109zM-303 -235q-41 0 -65 -17q17 -38 65 -38t65 38q-24 17 -65 17z" />
    <glyph glyph-name="u1039_1002" horiz-adv-x="1" 
d="M-300 -20q175 0 175 -175q0 -148 -125 -171l-28 98q53 10 53 73q0 75 -75 75t-75 -75q0 -63 53 -73l-28 -98q-125 23 -125 171q0 175 175 175z" />
    <glyph glyph-name="u1039_1003" horiz-adv-x="0" 
d="M-350 -195q0 63 -53 73l28 98q125 -23 125 -171q0 -75 75 -75t75 75t-75 75q-7 0 -14 -1l-18 99q15 2 32 2q175 0 175 -175t-175 -175q-81 0 -125 38q-44 -38 -125 -38q-175 0 -175 174v1q0 28 20 43t63 36v8h-83v87h83q76 0 76 -83q0 -63 -29 -71q-30 -8 -30 -21
q0 -74 75 -74t75 75z" />
    <glyph glyph-name="u1039_1004" horiz-adv-x="1" 
d="M-473 -193q0 175 175 175q148 0 171 -125l-98 -28q-10 53 -73 53q-75 0 -75 -75t75 -75q63 0 73 53l98 -28q-23 -125 -171 -125q-175 0 -175 175z" />
    <glyph glyph-name="u1039_1005" horiz-adv-x="1" 
d="M-303 -270h3q75 0 75 75t-75 75h-3q13 -31 13 -75t-13 -75zM-357 -130q-38 -17 -38 -65t38 -65q17 24 17 65t-17 65zM-125 -195q0 -175 -175 -175t-175 175t175 175t175 -175z" />
    <glyph glyph-name="u1039_1006" horiz-adv-x="0" 
d="M-428 -235q-41 0 -65 -17q17 -38 65 -38t65 38q-24 17 -65 17zM-178 -120q-75 0 -75 -75t75 -75t75 75t-75 75zM-303 -332q-44 -38 -125 -38q-138 0 -167 109q0 23 92 63q31 13 75 13t75 -13v3q0 75 -75 75q-57 0 -71 -43l-97 30q28 113 168 113q81 0 125 -38
q44 38 125 38q175 0 175 -175t-175 -175q-81 0 -125 38z" />
    <glyph glyph-name="u1039_1007" horiz-adv-x="1" 
d="M-129 -132q26 -20 72 -26l-6 -50q-63 8 -100 36q-17 -19 -54 -19q-70 0 -70 70v3h-11q-75 0 -75 -75t75 -75q63 0 73 53l98 -28q-23 -125 -171 -125q-175 0 -175 175t175 175q142 0 169 -114zM-192 -116q0 25 -25 25t-25 -25t25 -25t25 25z" />
    <glyph glyph-name="u1039_1008" horiz-adv-x="180" 
d="M-272 -270h3q75 0 75 75t-75 75h-3q13 -31 13 -75t-13 -75zM-326 -130q-38 -17 -38 -65t38 -65q17 24 17 65t-17 65zM-94 -189l134 -66v775h100v-890h-100l-153 79q-38 -79 -156 -79q-175 0 -175 175t175 175q172 0 175 -169z" />
    <glyph glyph-name="u1039_100B" horiz-adv-x="0" 
d="M-175 -327q-44 -23 -125 -23q-137 1 -175 47l20 45q52 -41 155 -42q107 0 156 43h19v-63h80v-50h-130v43zM-473 -149q0 131 175 131q148 0 171 -94l-98 -21q-10 40 -73 40q-75 0 -75 -56t75 -56q63 0 73 40l98 -21q-23 -94 -171 -94q-175 0 -175 131z" />
    <glyph glyph-name="u1039_100C" horiz-adv-x="0" 
d="M-494 -368q-108 0 -108 142v73q0 133 109 133t109 -133v-83h-50v83q0 33 -34 33t-34 -33v-73q0 -42 58 -42h107q-10 32 -10 73q0 175 175 175t175 -175q0 -148 -125 -175l-28 102q53 10 53 73q0 75 -75 75t-75 -75q0 -63 53 -73l-28 -102z" />
    <glyph glyph-name="u1039_100F" horiz-adv-x="0" 
d="M-258 -76q-12 6 -42 6t-42 -6q29 -43 29 -119q0 -70 -24 -113q13 -12 37 -12t37 12q-24 43 -24 113q0 76 29 119zM-525 -195q0 -75 75 -75v-100q-175 0 -175 175t156 175q54 0 89 -21q24 21 80 21t80 -21q35 21 89 21q156 0 156 -175t-175 -175v100q75 0 75 75t-56 75
q-76 0 -76 -75t24 -107q-21 -68 -117 -68t-107 68q14 32 14 107t-76 75q-56 0 -56 -75z" />
    <glyph glyph-name="u1039_1010" horiz-adv-x="0" 
d="M-425 -120q-75 0 -75 -75t75 -75t75 75t-75 75zM-300 -58q44 38 125 38q175 0 175 -175t-175 -175q-17 0 -32 2l18 99q7 -1 14 -1q75 0 75 75t-75 75t-75 -75q0 -175 -175 -175t-175 175t175 175q81 0 125 -38z" />
    <glyph glyph-name="u1039_1011" horiz-adv-x="0" 
d="M-425 -120q-75 0 -75 -75t75 -75t75 75t-75 75zM-175 -120q-75 0 -75 -75t75 -75t75 75t-75 75zM-300 -332q-44 -38 -125 -38q-175 0 -175 175t175 175q81 0 125 -38q44 38 125 38q175 0 175 -175t-175 -175q-81 0 -125 38z" />
    <glyph glyph-name="u1039_1012" horiz-adv-x="0" 
d="M-169 -195q44 -25 44 -55q0 -120 -175 -120t-175 120h100q0 -30 75 -30t75 30t-75 30v50q75 0 75 30t-75 30t-75 -30h-100q0 120 175 120t175 -120q0 -30 -44 -55z" />
    <glyph glyph-name="u1039_1013" horiz-adv-x="1" 
d="M-225 -198v3q0 75 -75 75t-75 -75v-3q31 13 75 13t75 -13zM-365 -252q17 -38 65 -38t65 38q-24 17 -65 17t-65 -17zM-300 -20q175 0 175 -175t-175 -175t-175 175t175 175z" />
    <glyph glyph-name="u1039_1014" horiz-adv-x="0" 
d="M-333 -290v10q0 29 -38 29q-24 0 -24 -18q0 -17 62 -21zM-283 -290q78 4 78 28q0 32 -101.5 65.5t-101.5 89.5q0 87 101 87q115 0 115 -94h-80q0 14 -35 14q-11 0 -11 -17q0 -10 96.5 -43.5t96.5 -101.5q0 -108 -175 -108t-175 101q0 67 74 67q118 0 118 -78v-10z" />
    <glyph glyph-name="u1039_1015" horiz-adv-x="1" 
d="M-475 -191q0 148 125 171l28 -98q-53 -10 -53 -73q0 -75 75 -75t75 75q0 63 -53 73l28 98q125 -23 125 -171q0 -175 -175 -175t-175 175z" />
    <glyph glyph-name="u1039_1016" horiz-adv-x="1" 
d="M-125 -195q0 -175 -175 -175t-175 175q0 140 113 168l30 -97q-43 -14 -43 -71q0 -75 75 -75h3q-13 31 -13 75t13 75q40 92 63 92q109 -29 109 -167zM-243 -260q38 17 38 65t-38 65q-17 -24 -17 -65t17 -65z" />
    <glyph glyph-name="u1039_1017" horiz-adv-x="1" 
d="M-350 -129q-25 -19 -25 -62q0 -75 75 -75t75 75q0 43 -25 61q-21 -8 -50 -8t-50 9zM-333 -79q12 -9 33 -9t33 9l17 59q125 -23 125 -171q0 -175 -175 -175t-175 175q0 148 125 171z" />
    <glyph glyph-name="u1039_1018" horiz-adv-x="0" 
d="M-352 -193q0 75 -75 75q-63 0 -73 -53l-98 28q23 125 171 125q82 0 126 -39q43 37 124 37q175 0 175 -175t-175 -175q-17 0 -32 2l18 99q7 -1 14 -1q75 0 75 75t-75 75t-75 -73q0 -175 -175 -175q-148 0 -171 125l98 28q10 -53 73 -53q75 0 75 75z" />
    <glyph glyph-name="u1039_1019" horiz-adv-x="1" 
d="M-225 -203v12q0 63 -53 73l28 98q125 -23 125 -171q0 -175 -175 -175t-175 175q0 148 125 171l28 -98q-53 -10 -53 -73v-12q29 16 75 16t75 -16zM-359 -259q19 -27 59 -27t59 27q-17 22 -59 22t-59 -22z" />
    <glyph glyph-name="u1039_101C" horiz-adv-x="0" 
d="M-350 -195q0 75 -75 75t-75 -75t75 -75q7 0 14 1l18 -99q-15 -2 -32 -2q-175 0 -175 175t175 175t175 -175q0 -75 75 -75t75 75t-75 75q-7 0 -14 -1l-18 99q15 2 32 2q175 0 175 -175t-175 -175t-175 175z" />
    <glyph glyph-name="u1039_101D" horiz-adv-x="1" 
d="M-300 -120q-75 0 -75 -75t75 -75t75 75t-75 75zM-300 -20q175 0 175 -175t-175 -175t-175 175t175 175z" />
    <glyph glyph-name="u1039_101D_103E" horiz-adv-x="1" 
d="M-300 -120q-75 0 -75 -75t75 -75t75 75t-75 75zM-464 -273l-85 -97l-102 90l47 58l51 -47l78 86q6 163 175 163q175 0 175 -175t-175 -175q-130 0 -164 97z" />
    <glyph glyph-name="u103C_big" horiz-adv-x="180" 
d="M942 -270q118 0 118 108v262h100v-262q0 -208 -218 -208h-683q-219 0 -219 208v844q0 208 219 208h683q218 0 218 -208v-82h-100v82q0 108 -118 108h-683q-119 0 -119 -108v-844q0 -108 119 -108h683z" />
    <glyph glyph-name="u102F_long" horiz-adv-x="180" 
d="M40 520h100v-790h86v-100h-186v890z" />
    <glyph glyph-name="u1030_long" horiz-adv-x="340" 
d="M40 520h100v-890h-100v890zM200 520h100v-790h86v-100h-186v890z" />
    <glyph glyph-name="u103C_1" horiz-adv-x="180" 
d="M259 -370q-219 0 -219 208v844q0 208 219 208h263q218 0 218 -208v-82h-100v82q0 108 -118 108h-263q-119 0 -119 -108v-844q0 -108 119 -108v-100z" />
    <glyph glyph-name="u103C_2" horiz-adv-x="180" 
d="M522 -270q118 0 118 108v262h100v-262q0 -208 -218 -208h-263q-219 0 -219 208v844q0 208 219 208v-100q-119 0 -119 -108v-844q0 -108 119 -108h263z" />
    <glyph glyph-name="u103C_3" horiz-adv-x="180" 
d="M259 -370q-219 0 -219 208v844q0 208 219 208v-100q-119 0 -119 -108v-844q0 -108 119 -108v-100z" />
    <glyph glyph-name="u103C_big_1" horiz-adv-x="180" 
d="M801 -370h-542q-219 0 -219 208v844q0 208 219 208h683q218 0 218 -208v-82h-100v82q0 108 -118 108h-683q-119 0 -119 -108v-844q0 -108 119 -108h542v-100z" />
    <glyph glyph-name="u103C_big_2" horiz-adv-x="180" 
d="M942 -270q118 0 118 108v262h100v-262q0 -208 -218 -208h-683q-219 0 -219 208v844q0 208 219 208h342v-100h-342q-119 0 -119 -108v-844q0 -108 119 -108h683z" />
    <glyph glyph-name="u103C_big_3" horiz-adv-x="180" 
d="M601 -370h-342q-219 0 -219 208v844q0 208 219 208h342v-100h-342q-119 0 -119 -108v-844q0 -108 119 -108h342v-100z" />
    <glyph glyph-name="u100B_1039_100B" 
d="M340 -338q-44 -17 -125 -17q-137 1 -175 35l20 34q52 -31 155 -31q107 0 156 32h19v-47h50v-38h-100v32zM42 -204q0 98 175 98q148 0 171 -70l-98 -16q-10 30 -73 30q-75 0 -75 -42t75 -42q63 0 73 29l98 -15q-23 -70 -171 -70q-175 0 -175 98zM560 -270h80v-100h-180
v297q-71 -17 -160 -17q-157 0 -260 53v128l37 18q77 -69 223 -69q94 0 160 29v37q-62 -29 -160 -29q-260 0 -260 222q0 221 260 221q222 0 260 -150l-97 -27q-24 77 -163 77q-160 0 -160 -121q0 -122 160 -122q139 0 163 77l97 -27v-156q-90 -81 -260 -81q-91 0 -160 24v-35
q70 -19 160 -19q162 0 260 64v-294z" />
    <glyph glyph-name="u100A_alt" horiz-adv-x="1020" 
d="M40 176l97 32q24 -108 163 -108q160 0 160 160t-160 160q-139 0 -163 -108l-97 32q38 176 260 176q260 0 260 -260q0 -160 160 -160t160 160t-160 160q-40 0 -69 -10l-42 95q48 15 111 15q260 0 260 -260t-260 -260q-146 0 -210 82q-64 -82 -210 -82q-98 0 -160 34v-206
q0 -98 119 -98h252v-100h-252q-219 0 -219 198v348z" />
    <glyph glyph-name="u1014_alt" 
d="M249 102q-8 78 -79 78q-30 0 -30 -30q0 -41 109 -48zM300 0q-260 0 -260 150q0 90 120 90q53 0 122 -40q58 -34 67 -98q111 8 111 58q0 41 -59 57l-105 28q-156 42 -156 145q0 130 150 130q170 0 170 -140h-100q0 40 -70 40q-50 0 -50 -30q0 -28 69 -46l105 -28
q146 -39 146 -156q0 -160 -260 -160z" />
    <glyph glyph-name="u101B_alt" 
d="M150 189q30 -89 150 -89q30 0 54 6v1q-5 11 -22 29q-18 18 -41 30q-47 24 -118 24q-12 0 -23 -1zM300 420q-160 0 -160 -160q0 -11 1 -21q15 1 32 1q103 0 165 -41q31 -20 52 -51q21 -30 21 -55q0 -48 -34 -70.5t-77 -22.5q-260 0 -260 260t260 260t260 -260v-510h-100
v510q0 160 -160 160z" />
    <glyph glyph-name="u1025_alt" 
d="M140 34v-206q0 -98 119 -98v-100q-219 0 -219 198v348l97 32q24 -108 163 -108q160 0 160 160t-160 160q-139 0 -163 -108l-97 32q38 176 260 176q260 0 260 -260t-260 -260q-98 0 -160 34z" />
    <glyph glyph-name="u1037_alt" horiz-adv-x="0" 
d="M-80 -20q100 0 100 -100t-100 -100t-100 100t100 100zM-55 -120q0 25 -25 25t-25 -25t25 -25t25 25z" />
    <glyph glyph-name="u103B_alt" horiz-adv-x="180" 
d="M40 -370l-235 152l70 69l165 -106v775h100v-890h-100z" />
    <glyph glyph-name="u103E_alt" horiz-adv-x="0" 
d="M-158 -21l71 -71l-247 -248l-132 132l71 71l61 -61z" />
    <glyph glyph-name="u1037_alt2" horiz-adv-x="0" 
d="M50 -20q100 0 100 -100t-100 -100t-100 100t100 100zM75 -120q0 25 -25 25t-25 -25t25 -25t25 25z" />
    <glyph glyph-name="u100B_1039_100C" 
d="M300 520q222 0 260 -176l-97 -32q-24 108 -163 108q-160 0 -160 -160t160 -160q139 0 163 108l97 -32q-38 -176 -260 -176q-260 0 -260 260t260 260zM460 -86q-69 -24 -160 -24q-170 0 -260 81l40 38q86 -69 220 -69q146 0 223 69l37 -18v-193q0 -168 -188 -168h-193
q-139 0 -139 139q0 79 139 79h153v-50h-153q-39 0 -39 -29q0 -39 39 -39h193q88 0 88 68v116z" />
    <glyph glyph-name="u25CC" unicode="&#x25cc;" horiz-adv-x="595" 
d="M479 418q0 -24 -24 -24q-25 0 -25 24q0 25 25 25q24 0 24 -25zM406 466q0 -24 -23 -24q-25 0 -25 24q0 25 25 25q23 0 23 -25zM527 346q0 -25 -25 -25q-24 0 -24 25q0 24 25 24q24 0 24 -24zM545 261q0 -24 -24 -24q-25 0 -25 24t25 24q24 0 24 -24zM321 484
q0 -25 -24 -25t-24 25q0 24 24 24t24 -24zM237 466q0 -24 -25 -24q-24 0 -24 24q0 25 24 25q25 0 25 -25zM527 176q0 -24 -25 -24q-24 0 -24 24q0 25 24 25q25 0 25 -25zM165 418q0 -24 -25 -24q-24 0 -24 23q0 26 24 26q25 0 25 -25zM479 103q0 -24 -24 -24q-25 0 -25 24
q0 25 25 25q24 0 24 -25zM406 55q0 -23 -23 -23q-25 0 -25 23q0 25 25 25q23 0 23 -25zM116 346q0 -25 -23 -25q-25 0 -25 25q0 24 24 24t24 -24zM99 261q0 -24 -24 -24q-25 0 -25 24t25 24q24 0 24 -24zM321 39q0 -25 -24 -25t-24 25q0 24 24 24t24 -24zM116 176
q0 -24 -24 -24t-24 24q0 25 24 25t24 -25zM237 57q0 -25 -25 -25q-24 0 -24 23q0 25 24 25q25 0 25 -23zM165 103q0 -24 -25 -24q-24 0 -24 24q0 25 24 25q25 0 25 -25z" />
    <glyph glyph-name="u103E_short" horiz-adv-x="0" 
d="M-350 -20h100v-230h-186v100h86v130z" />
  </font>
</defs>
</svg>
