<?xml version="1.0" standalone="no"?>
<!DOCTYPE svg PUBLIC "-//W3C//DTD SVG 1.1//EN" "http://www.w3.org/Graphics/SVG/1.1/DTD/svg11.dtd" >
<svg xmlns="http://www.w3.org/2000/svg" xmlns:xlink="http://www.w3.org/1999/xlink" version="1.1">
<metadata>
Created by FontForge 20141024 at Sun Mar 22 11:09:47 2015
 By System Administrator
Copyright 2014 Google Inc. All Rights Reserved.
</metadata>
<defs>
<font id="MyanmarYinmar" horiz-adv-x="680" >
  <font-face 
    font-family="Myanmar Yinmar"
    font-weight="400"
    font-stretch="normal"
    units-per-em="1000"
    panose-1="2 0 5 0 0 0 0 0 0 0"
    ascent="750"
    descent="-250"
    bbox="-721 -370 2400 890"
    underline-thickness="150"
    underline-position="-142"
    unicode-range="U+0020-AA7B"
  />
<missing-glyph horiz-adv-x="550" 
d="M50 0v520h450v-520h-450zM77 18h396v484h-396v-484zM173 416q17 10 32 16q28 11 61 11q50 0 80.5 -17.5t30.5 -46.5q0 -17 -12.5 -35t-47.5 -47q-34 -29 -54 -48t-20 -36q0 -14 13 -48h-17q-19 35 -19 53q0 28 44.5 79.5t44.5 78.5q0 21 -18 33t-50 12q-21 0 -38 -7
q-14 -5 -30 -14v16zM208 121l31 21q6 4 11 4t12 -4l30 -22q5 -4 5 -7q0 -4 -5 -8l-31 -23q-7 -5 -11 -5q-6 0 -11 4l-33 26q-4 3 -4 6q0 4 6 8z" />
    <glyph glyph-name="u103E_102F" unicode="&#x103e;&#x102f;" horiz-adv-x="0" 
d="M-470 -370h-170v50h40q40 0 40 70v230h200v-230q0 -120 -110 -120zM-320 -250v230h200v-230q0 -70 40 -70h40v-50h-170q-110 0 -110 120z" />
    <glyph glyph-name="u1085_1036" unicode="&#x1085;&#x1036;" horiz-adv-x="0" 
d="M-457 690v-63q0 -37 40 -37h57v-50h-133q-107 0 -107 87v44l80 44l-80 44v44q0 87 107 87h133v-50h-57q-40 0 -40 -37v-63h97v-50h-97zM-210 845q130 0 130 -130t-130 -130t-130 130t130 130zM-180 715q0 60 -30 60t-30 -60t30 -60t30 60z" />
    <glyph glyph-name="u1085_102D" unicode="&#x1085;&#x102d;" horiz-adv-x="0" 
d="M-482 690v-63q0 -37 40 -37h57v-50h-133q-107 0 -107 87v44l80 44l-80 44v44q0 87 107 87h133v-50h-57q-40 0 -40 -37v-63h97v-50h-97zM-210 840q-42 0 -42 -37v-176q0 -37 42 -37t42 37v176q0 37 -42 37zM-365 627v176q0 87 77 87h156q77 0 77 -87v-176q0 -87 -77 -87
h-156q-77 0 -77 87z" />
    <glyph glyph-name="u1085_102E" unicode="&#x1085;&#x102e;" horiz-adv-x="0" 
d="M-168 714v89q0 37 -42 37t-42 -37v-89q20 5 42 5t42 -5zM-252 664v-37q0 -37 42 -37t42 37v37q-20 5 -42 5t-42 -5zM-482 690v-63q0 -37 40 -37h57v-50h-133q-107 0 -107 87v44l80 44l-80 44v44q0 87 107 87h133v-50h-57q-40 0 -40 -37v-63h97v-50h-97zM-365 627v176
q0 87 77 87h156q77 0 77 -87v-176q0 -87 -77 -87h-156q-77 0 -77 87z" />
    <glyph glyph-name="u102D_1036" unicode="&#x102d;&#x1036;" horiz-adv-x="0" 
d="M-477 840q-42 0 -42 -37v-176q0 -37 42 -37t42 37v176q0 37 -42 37zM-632 627v176q0 87 77 87h156q77 0 77 -87v-176q0 -87 -77 -87h-156q-77 0 -77 87zM-177 845q130 0 130 -130t-130 -130t-130 130t130 130zM-147 715q0 60 -30 60t-30 -60t30 -60t30 60z" />
    <glyph glyph-name="u100D_1039_100D" unicode="&#x100d;&#x1039;&#x100d;" 
d="M276 -328h-83q-153 0 -153 82v50h118v-13q0 -34 35 -34h48q35 0 35 34v74q0 50 -59 50q-148 0 -159 -50h-18q0 92 177 92t177 -92v-74q0 -61 -95 -61h-141q0 -31 35 -31h48q100 0 153 21v-37q0 -27 23 -27h24v-26h-100q-65 0 -65 42zM440 -20h-140q-260 0 -260 155v95
h200v-25q0 -65 60 -65h80q60 0 60 65v140q0 95 -100 95q-250 0 -270 -95h-30q0 175 300 175t300 -175v-140q0 -115 -160 -115h-240q0 -60 60 -60h80q171 0 260 40v-320q0 -70 40 -70h40v-50h-170q-110 0 -110 120v230z" />
    <glyph glyph-name="u100E_1039_100D" unicode="&#x100e;&#x1039;&#x100d;" horiz-adv-x="870" 
d="M426 376q-138 0 -149 -59h-17q0 117 166 117q165 0 165 -103v-87q0 -53 -88 -53h-106q-89 0 -89 53q0 41 56 41q55 0 55 -41q0 -15 24 -15t24 15v87q0 45 -41 45zM527 50v67q-38 -13 -89 -13q-120 1 -154 47l18 45q45 -41 136 -42q94 0 137 43h16v-145q39 11 39 63v290
q0 65 -60 65v50h100q160 0 160 -115v-290q0 -115 -160 -115h-79v-250q0 -70 40 -70h40v-50h-170q-110 0 -110 120v250h-191q-160 0 -160 115v235q0 66 171 120h-171v50h270v-50q-70 -70 -70 -120v-235q0 -65 60 -65h227z" />
    <glyph glyph-name="u100F_100D" unicode="&#x100f;&#x1039;&#x100d;" horiz-adv-x="1080" 
d="M505 74q11 -24 35 -24t35 24q-5 19 -5 41v290q0 34 10 57q-16 8 -40 8t-40 -8q10 -23 10 -57v-290q0 -22 -5 -41zM863 0h-83v50q60 0 60 65v290q0 65 -55 65t-55 -65v-312q-35 -60 -88.5 -76.5t-101.5 -16.5t-101.5 16.5t-88.5 76.5v312q0 65 -55 65t-55 -65v-290
q0 -65 60 -65v-50h-100q-160 0 -160 115v290q0 115 160 115h190q46 0 75 -17q28 17 75 17t75 -17q29 17 75 17h190q160 0 160 -115v-290q0 -106 -135 -114v-79q0 -63 -100 -63h-117v-80q0 -149 -130 -149h-129v114h71q54 0 54 35v46q0 34 -54 34h-193q-79 0 -79 -57
q0 -143 79 -155v-17q-146 0 -146 172q0 171 146 171h193q96 0 96 -91v-138q50 0 50 35v46q0 97 -34 148h193q58 0 58 23v4z" />
    <glyph glyph-name="u103E_1030" unicode="&#x103e;&#x1030;" horiz-adv-x="0" 
d="M-390 -20h100v-350h-100v350zM-530 -370h-120v50h40q40 0 40 70v230h150v-230q0 -120 -110 -120zM-260 -250v230h150v-230q0 -70 40 -70h40v-50h-120q-110 0 -110 120z" />
    <glyph glyph-name="u102B_103A" unicode="&#x102b;&#x103a;" horiz-adv-x="280" 
d="M140 818q58 32 150 32q220 0 220 -215h-30q-20 135 -150 135q-90 0 -90 -155v-615h-200v615q0 155 -90 155q-130 0 -150 -135h-30q0 215 220 215q92 0 150 -32z" />
    <glyph glyph-name="u103D_1037" unicode="&#x103d;&#x1037;" horiz-adv-x="10" 
d="M-51 -30q100 0 100 -110t-100 -110t-100 110t100 110zM-24 -140q0 55 -27 55t-27 -55t27 -55t27 55zM-417 -107v-176q0 -37 40 -37h34q40 0 40 37v176q0 37 -40 37h-34q-40 0 -40 -37zM-560 -283v176q0 87 107 87h186q107 0 107 -87v-176q0 -87 -107 -87h-186
q-107 0 -107 87z" />
    <glyph glyph-name=".notdef" horiz-adv-x="550" 
d="M50 0v520h450v-520h-450zM77 18h396v484h-396v-484zM173 416q17 10 32 16q28 11 61 11q50 0 80.5 -17.5t30.5 -46.5q0 -17 -12.5 -35t-47.5 -47q-34 -29 -54 -48t-20 -36q0 -14 13 -48h-17q-19 35 -19 53q0 28 44.5 79.5t44.5 78.5q0 21 -18 33t-50 12q-21 0 -38 -7
q-14 -5 -30 -14v16zM208 121l31 21q6 4 11 4t12 -4l30 -22q5 -4 5 -7q0 -4 -5 -8l-31 -23q-7 -5 -11 -5q-6 0 -11 4l-33 26q-4 3 -4 6q0 4 6 8z" />
    <glyph glyph-name=".null" horiz-adv-x="0" 
 />
    <glyph glyph-name="nonmarkingreturn" horiz-adv-x="508" 
 />
    <glyph glyph-name="space" unicode=" " horiz-adv-x="250" 
 />
    <glyph glyph-name="space" unicode="&#xa0;" horiz-adv-x="250" 
 />
    <glyph glyph-name="u1000" unicode="&#x1000;" horiz-adv-x="1080" 
d="M440 405q0 65 -60 65h-80q-60 0 -60 -65v-290q0 -65 60 -65v-50h-100q-160 0 -160 115v290q0 115 160 115h280q33 0 60 -5q26 5 60 5h280q160 0 160 -115v-290q0 -115 -160 -115h-100v50q60 0 60 65v290q0 65 -60 65h-80q-60 0 -60 -65v-290q0 -115 -160 -115h-100v50
q60 0 60 65v290z" />
    <glyph glyph-name="u1001" unicode="&#x1001;" 
d="M200 0q-160 0 -160 115q0 85 140 85h110q98 0 150 -73v218q0 95 -100 95q-250 0 -270 -95h-30q0 175 300 175t300 -175v-230q0 -115 -160 -115h-280zM290 150q-50 0 -50 -35q0 -65 60 -65h80q26 0 41 12q-45 88 -131 88z" />
    <glyph glyph-name="u1002" unicode="&#x1002;" 
d="M240 405v-290q0 -65 60 -65v-50h-100q-160 0 -160 115v290q0 115 160 115h280q160 0 160 -115v-290q0 -115 -160 -115h-100v50q60 0 60 65v290q0 65 -60 65h-80q-60 0 -60 -65z" />
    <glyph glyph-name="u1003" unicode="&#x1003;" horiz-adv-x="1080" 
d="M240 350v-235q0 -65 60 -65h80q60 0 60 65v290q0 65 -60 65v50h100q160 0 160 -115v-290q0 -65 60 -65h80q60 0 60 65v290q0 65 -60 65v50h100q160 0 160 -115v-290q0 -115 -160 -115h-280q-34 0 -60 5q-27 -5 -60 -5h-280q-160 0 -160 115v235q0 66 171 120h-171v50h270
v-50q-70 -70 -70 -120z" />
    <glyph glyph-name="u1004" unicode="&#x1004;" 
d="M240 345v-230q0 -65 60 -65h80q60 0 60 65v85h200v-85q0 -115 -160 -115h-280q-160 0 -160 115v230q0 175 300 175t300 -175h-30q-20 95 -270 95q-100 0 -100 -95z" />
    <glyph glyph-name="u1005" unicode="&#x1005;" 
d="M249 446q-9 -15 -9 -41v-290q0 -26 9 -41q51 68 51 186t-51 186zM283 52q8 -2 17 -2h80q60 0 60 65v290q0 65 -60 65h-80q-9 0 -17 -2q67 -70 67 -208t-67 -208zM40 115v290q0 115 160 115h280q160 0 160 -115v-290q0 -115 -160 -115h-280q-160 0 -160 115z" />
    <glyph glyph-name="u1006" unicode="&#x1006;" horiz-adv-x="1080" 
d="M290 150q-50 0 -50 -35q0 -65 60 -65h80q26 0 41 12q-45 88 -131 88zM640 115q0 -65 60 -65h80q60 0 60 65v290q0 65 -60 65h-80q-60 0 -60 -65v-290zM540 5q-27 -5 -60 -5h-280q-160 0 -160 115q0 85 140 85h110q98 0 150 -73v218q0 95 -100 95q-250 0 -270 -95h-30
q0 175 300 175q95 0 160 -17q38 17 100 17h280q160 0 160 -115v-290q0 -115 -160 -115h-280q-34 0 -60 5z" />
    <glyph glyph-name="u1007" unicode="&#x1007;" 
d="M590 345q0 50 -65 50t-65 -50t65 -50t65 50zM609 268q-29 -23 -84 -23q-115 0 -115 100q0 65 49 88q-51 7 -119 7q-100 0 -100 -95v-230q0 -65 60 -65h80q60 0 60 65v65h200v-65q0 -115 -160 -115h-280q-160 0 -160 115v230q0 175 300 175q299 0 300 -174q0 -65 50 -65
v-50q-57 0 -81 37z" />
    <glyph glyph-name="u1008" unicode="&#x1008;" horiz-adv-x="960" 
d="M249 446q-9 -15 -9 -41v-290q0 -26 9 -41q51 68 51 186t-51 186zM283 52q8 -2 17 -2h80q60 0 60 65v290q0 65 -60 65h-80q-9 0 -17 -2q67 -70 67 -208t-67 -208zM280 0h-80q-160 0 -160 115v290q0 115 160 115h280q160 0 160 -115v-290q0 -115 -160 -115v-255
q0 -65 60 -65h120q60 0 60 65v775h200v-775q0 -115 -160 -115h-320q-160 0 -160 115v255z" />
    <glyph glyph-name="u1009" unicode="&#x1009;" 
d="M40 200h200v-85q0 -65 60 -65h80q60 0 60 65v230q0 95 -100 95q-250 0 -270 -95h-30q0 175 300 175t300 -175v-230q0 -115 -160 -115h-240v-255q0 -65 60 -65h360q60 0 60 65v205h200v-205q0 -115 -160 -115h-560q-160 0 -160 115v455z" />
    <glyph glyph-name="u100A" unicode="&#x100a;" horiz-adv-x="1080" 
d="M780 -320q60 0 60 65v205h200v-205q0 -115 -160 -115h-680q-160 0 -160 115v455h200v-85q0 -65 60 -65h80q60 0 60 65v230q0 95 -100 95q-250 0 -270 -95h-30q0 175 300 175t300 -175v-230q0 -65 60 -65h80q60 0 60 65v290q0 65 -60 65v50h100q160 0 160 -115v-290
q0 -115 -160 -115h-280q-33 0 -60 5q-26 -5 -60 -5h-240v-255q0 -65 60 -65h480z" />
    <glyph glyph-name="u100B" unicode="&#x100b;" 
d="M640 45q0 -155 -260 -155h-140v-60h140q176 0 260 74v-154q0 -70 40 -70h40v-50h-170q-110 0 -110 120v30h-140q-202 0 -260 53v147q89 -40 260 -40h80q60 0 60 60h-240q-160 0 -160 115v230q0 175 300 175t300 -175h-30q-20 95 -270 95q-100 0 -100 -95v-230
q0 -65 60 -65h80q60 0 60 65v85h200v-155z" />
    <glyph glyph-name="u100C" unicode="&#x100c;" 
d="M640 -255q0 -115 -160 -115h-280q-160 0 -160 115v70q0 145 185 145t185 -135h-30q-20 55 -80 55t-60 -65v-70q0 -65 60 -65h80q60 0 60 65v255h-240q-160 0 -160 115v230q0 175 300 175t300 -175h-30q-20 95 -270 95q-100 0 -100 -95v-230q0 -65 60 -65h80q60 0 60 65
v85h200v-455z" />
    <glyph glyph-name="u100D" unicode="&#x100d;" 
d="M440 -110h-140q-260 0 -260 155v155h200v-85q0 -65 60 -65h80q60 0 60 65v230q0 95 -100 95q-250 0 -270 -95h-30q0 175 300 175t300 -175v-230q0 -115 -160 -115h-240q0 -60 60 -60h80q171 0 260 40v-230q0 -70 40 -70h40v-50h-170q-110 0 -110 120v140z" />
    <glyph glyph-name="u100E" unicode="&#x100e;" 
d="M240 350v-235q0 -65 60 -65h80q60 0 60 65v290q0 65 -60 65v50h100q160 0 160 -115v-290q0 -115 -160 -115h-280q-160 0 -160 115v235q0 66 171 120h-171v50h270v-50q-70 -70 -70 -120z" />
    <glyph glyph-name="u100F" unicode="&#x100f;" horiz-adv-x="1080" 
d="M730 93q-35 -60 -88.5 -76.5t-101.5 -16.5t-101.5 16.5t-88.5 76.5v312q0 65 -55 65t-55 -65v-290q0 -65 60 -65v-50h-100q-160 0 -160 115v290q0 115 160 115h190q46 0 75 -17q28 17 75 17t75 -17q29 17 75 17h190q160 0 160 -115v-290q0 -115 -160 -115h-100v50
q60 0 60 65v290q0 65 -55 65t-55 -65v-312zM505 74q11 -24 35 -24t35 24q-5 19 -5 41v290q0 34 10 57q-16 8 -40 8t-40 -8q10 -23 10 -57v-290q0 -22 -5 -41z" />
    <glyph glyph-name="u1010" unicode="&#x1010;" horiz-adv-x="1080" 
d="M440 405q0 65 -60 65h-80q-60 0 -60 -65v-290q0 -65 60 -65h80q60 0 60 65v290zM540 515q27 5 60 5h280q160 0 160 -115v-290q0 -115 -160 -115h-100v50q60 0 60 65v290q0 65 -60 65h-80q-60 0 -60 -65v-290q0 -115 -160 -115h-280q-160 0 -160 115v290q0 115 160 115
h280q34 0 60 -5z" />
    <glyph glyph-name="u1011" unicode="&#x1011;" horiz-adv-x="1080" 
d="M440 115v290q0 65 -60 65h-80q-60 0 -60 -65v-290q0 -65 60 -65h80q60 0 60 65zM640 115q0 -65 60 -65h80q60 0 60 65v290q0 65 -60 65h-80q-60 0 -60 -65v-290zM540 515q27 5 60 5h280q160 0 160 -115v-290q0 -115 -160 -115h-280q-33 0 -60 5q-26 -5 -60 -5h-280
q-160 0 -160 115v290q0 115 160 115h280q34 0 60 -5z" />
    <glyph glyph-name="u1012" unicode="&#x1012;" 
d="M340 440q-250 0 -270 -95h-30q0 175 300 175t300 -180q0 -51 -76 -80q76 -29 76 -100v-45q0 -115 -160 -115h-280q-160 0 -160 115v85h200v-85q0 -65 60 -65h80q60 0 60 65v45q0 75 -60 75h-80v50h80q60 0 60 55q0 100 -100 100z" />
    <glyph glyph-name="u1013" unicode="&#x1013;" 
d="M440 206v199q0 65 -60 65h-80q-60 0 -60 -65v-199q41 24 100 24t100 -24zM240 156v-41q0 -65 60 -65h80q60 0 60 65v41q-41 24 -100 24t-100 -24zM40 115v290q0 115 160 115h280q160 0 160 -115v-290q0 -115 -160 -115h-280q-160 0 -160 115z" />
    <glyph glyph-name="u1014" unicode="&#x1014;" 
d="M237 50q-11 100 -57 100q-50 0 -50 -35q0 -65 60 -65h47zM240 0h-40q-160 0 -160 115q0 85 140 85q129 0 221 -147q39 10 39 62q0 87 -82 117l-145 54q-103 38 -103 119q0 115 200 115t200 -175h-30q-20 95 -95 95t-75 -65q0 -72 66 -96l133 -49q131 -49 131 -115
q0 -115 -160 -115h-50l10 -20v-350h-200v370z" />
    <glyph glyph-name="u1015" unicode="&#x1015;" 
d="M300 50h80q60 0 60 65v290q0 65 -60 65v50h100q160 0 160 -115v-290q0 -115 -160 -115h-280q-160 0 -160 115v290q0 115 160 115h100v-50q-60 0 -60 -65v-290q0 -65 60 -65z" />
    <glyph glyph-name="u1016" unicode="&#x1016;" 
d="M480 520q160 0 160 -115v-290q0 -115 -160 -115h-280q-160 0 -160 115v290q0 115 160 115h100v-50q-60 0 -60 -65v-290q0 -65 60 -65h80q60 0 60 65v31q-100 69 -100 194v60q0 120 75 120h65zM440 211v194q0 52 -25 52t-25 -57v-60q0 -75 50 -129z" />
    <glyph glyph-name="u1017" unicode="&#x1017;" 
d="M240 409v-294q0 -65 60 -65h80q60 0 60 65v294q-42 -16 -100 -16t-100 16zM270 471q28 -28 70 -28t70 28v49h70q160 0 160 -115v-290q0 -115 -160 -115h-280q-160 0 -160 115v290q0 115 160 115h70v-49z" />
    <glyph glyph-name="u1018" unicode="&#x1018;" horiz-adv-x="1080" 
d="M500 503q38 17 100 17h280q160 0 160 -115v-290q0 -115 -160 -115h-100v50q60 0 60 65v290q0 65 -60 65h-80q-60 0 -60 -65v-290q0 -115 -160 -115h-280q-160 0 -160 115v85h200v-85q0 -65 60 -65h80q60 0 60 65v230q0 95 -100 95q-250 0 -270 -95h-30q0 175 300 175
q95 0 160 -17z" />
    <glyph glyph-name="u1019" unicode="&#x1019;" 
d="M240 156v-41q0 -65 60 -65h80q60 0 60 65v41q-41 24 -100 24t-100 -24zM440 206v199q0 65 -60 65v50h100q160 0 160 -115v-290q0 -115 -160 -115h-280q-160 0 -160 115v290q0 115 160 115h100v-50q-60 0 -60 -65v-199q41 24 100 24t100 -24z" />
    <glyph glyph-name="u101A" unicode="&#x101a;" horiz-adv-x="1080" 
d="M440 405q0 65 -60 65v50h100q160 0 160 -115v-290q0 -65 60 -65h80q60 0 60 65v290q0 65 -60 65v50h100q160 0 160 -115v-290q0 -115 -160 -115h-280q-34 0 -60 5q-27 -5 -60 -5h-280q-160 0 -160 115v290q0 115 160 115h100v-50q-60 0 -60 -65v-290q0 -65 60 -65h80
q60 0 60 65v290z" />
    <glyph glyph-name="u101B" unicode="&#x101b;" 
d="M240 309v-194q0 -52 25 -52t25 57v60q0 75 -50 129zM200 0q-160 0 -160 115v290q0 115 160 115h280q160 0 160 -115v-655q0 -70 40 -70h40v-50h-170q-110 0 -110 120v655q0 65 -60 65h-80q-60 0 -60 -65v-31q100 -69 100 -194v-60q0 -120 -75 -120h-65z" />
    <glyph glyph-name="u101C" unicode="&#x101c;" horiz-adv-x="1080" 
d="M640 115q0 -65 60 -65h80q60 0 60 65v290q0 65 -60 65v50h100q160 0 160 -115v-290q0 -115 -160 -115h-280q-160 0 -160 115v290q0 65 -60 65h-80q-60 0 -60 -65v-290q0 -65 60 -65v-50h-100q-160 0 -160 115v290q0 115 160 115h280q160 0 160 -115v-290z" />
    <glyph glyph-name="u101D" unicode="&#x101d;" 
d="M240 405v-290q0 -65 60 -65h80q60 0 60 65v290q0 65 -60 65h-80q-60 0 -60 -65zM40 115v290q0 115 160 115h280q160 0 160 -115v-290q0 -115 -160 -115h-280q-160 0 -160 115z" />
    <glyph glyph-name="u101E" unicode="&#x101e;" horiz-adv-x="1080" 
d="M640 115q0 -65 60 -65h80q60 0 60 65v290q0 65 -60 65v50h100q160 0 160 -115v-290q0 -115 -160 -115h-280q-33 0 -60 5q-26 -5 -60 -5h-280q-160 0 -160 115v85h200v-85q0 -65 60 -65h80q60 0 60 65v230q0 95 -100 95q-250 0 -270 -95h-30q0 175 300 175t300 -175v-230z
" />
    <glyph glyph-name="u101F" unicode="&#x101f;" horiz-adv-x="1290" 
d="M540 515q27 5 60 5h280q160 0 160 -115v-290q0 -115 -160 -115h-100v50q60 0 60 65v290q0 65 -60 65h-80q-60 0 -60 -65v-290q0 -115 -160 -115h-280q-160 0 -160 115v290q0 115 160 115h100v-50q-60 0 -60 -65v-290q0 -65 60 -65h80q60 0 60 65v290q0 65 -60 65v50h100
q34 0 60 -5z" />
    <glyph glyph-name="u1020" unicode="&#x1020;" 
d="M640 45q0 -155 -260 -155h-140v-145q0 -65 60 -65h80q60 0 60 65v85h200v-85q0 -115 -160 -115h-280q-160 0 -160 115v235q89 -40 260 -40h80q60 0 60 60h-240q-160 0 -160 115v230q0 175 300 175t300 -175h-30q-20 95 -270 95q-100 0 -100 -95v-230q0 -65 60 -65h80
q60 0 60 65v85h200v-155z" />
    <glyph glyph-name="u1021" unicode="&#x1021;" horiz-adv-x="1080" 
d="M790 180v-60q0 -57 25 -57t25 52v194q-50 -54 -50 -129zM499 502q38 18 101 18h280q160 0 160 -115v-290q0 -115 -160 -115h-65q-75 0 -75 120v60q0 125 100 194v31q0 65 -60 65h-80q-60 0 -60 -65v-65q0 -51 -76 -80q76 -29 76 -100v-45q0 -115 -160 -115h-280
q-160 0 -160 115v85h200v-85q0 -65 60 -65h80q60 0 60 65v45q0 75 -60 75h-80v50h80q60 0 60 55q0 100 -100 100q-250 0 -270 -95h-30q0 175 300 175q94 0 159 -18z" />
    <glyph glyph-name="u1022" unicode="&#x1022;" horiz-adv-x="1080" 
d="M310 50v-50h-270v50h171q-171 54 -171 120v235q0 115 160 115h280q33 0 60 -5q26 5 60 5h280q160 0 160 -115v-290q0 -115 -160 -115h-100v50q60 0 60 65v290q0 65 -60 65h-80q-60 0 -60 -65v-290q0 -115 -160 -115h-100v50q60 0 60 65v290q0 65 -60 65h-80
q-60 0 -60 -65v-235q0 -50 70 -120z" />
    <glyph glyph-name="u1023" unicode="&#x1023;" horiz-adv-x="1080" 
d="M440 405q0 65 -60 65h-80q-60 0 -60 -65v-290q0 -65 60 -65v-50h-100q-160 0 -160 115v290q0 115 160 115h280q33 0 60 -5q26 5 60 5h280q160 0 160 -115v-290q0 -115 -160 -115h-100v50q60 0 60 65v290q0 65 -60 65h-80q-60 0 -60 -65v-290q0 -115 -160 -115h-100v50
q60 0 60 65v290zM640 -255q0 -115 -160 -115h-100v50q60 0 60 65v120q0 65 -60 65h-80q-60 0 -60 -65v-120q0 -65 60 -65v-50h-100q-160 0 -160 115v120q0 115 160 115h280q34 0 60 -5q27 5 60 5h280q160 0 160 -115v-65q0 -66 -171 -120h171v-50h-270v50q70 70 70 120v65
q0 65 -60 65h-80q-60 0 -60 -65v-120z" />
    <glyph glyph-name="u1024" unicode="&#x1024;" horiz-adv-x="1360" 
d="M440 405q0 65 -60 65h-80q-60 0 -60 -65v-290q0 -65 60 -65v-50h-100q-160 0 -160 115v290q0 115 160 115h280q33 0 60 -5q26 5 60 5h280q160 0 160 -115v-660q0 -115 -160 -115h-680q-160 0 -160 115v90q0 115 160 115h550v-50h-450q-60 0 -60 -65v-90q0 -65 60 -65h480
q60 0 60 65v660q0 65 -60 65h-80q-60 0 -60 -65v-290q0 -115 -160 -115h-100v50q60 0 60 65v290zM878 535q-128 0 -128 97v105q0 148 240 148t240 -168h-24q-16 84 -216 84q-60 0 -60 -64v-105q0 -47 35 -47h195q160 0 160 -180v-775h-200v775q0 130 -130 130h-112z" />
    <glyph glyph-name="u1025" unicode="&#x1025;" 
d="M40 200h200v-85q0 -65 60 -65h80q60 0 60 65v230q0 95 -100 95q-250 0 -270 -95h-30q0 175 300 175t300 -175v-230q0 -115 -160 -115h-240v-255q0 -65 60 -65h80q60 0 60 65v70q0 65 -60 65t-80 -55h-30q0 135 185 135t185 -145v-70q0 -115 -160 -115h-280
q-160 0 -160 115v455z" />
    <glyph glyph-name="u1026" unicode="&#x1026;" 
d="M40 200h200v-85q0 -65 60 -65h80q60 0 60 65v230q0 95 -100 95q-250 0 -270 -95h-30q0 175 300 175t300 -175v-230q0 -115 -160 -115h-240v-255q0 -65 60 -65h80q60 0 60 65v70q0 65 -60 65t-80 -55h-30q0 135 185 135t185 -145v-70q0 -115 -160 -115h-280
q-160 0 -160 115v455zM397 724v79q0 37 -40 37h-34q-40 0 -40 -37v-79q27 1 57 1t57 -1zM283 673v-46q0 -37 40 -37h34q40 0 40 37v46q-26 2 -57 2t-57 -2zM140 627v176q0 87 107 87h186q107 0 107 -87v-176q0 -87 -107 -87h-186q-107 0 -107 87z" />
    <glyph glyph-name="u1027" unicode="&#x1027;" 
d="M390 370q50 0 50 35q0 65 -60 65h-80q-26 0 -41 -12q45 -88 131 -88zM259 62q15 -12 41 -12h80q60 0 60 65q0 35 -50 35q-86 0 -131 -88zM40 405q0 115 160 115h280q160 0 160 -115q0 -85 -140 -85h-110q-98 0 -150 73v-266q52 73 150 73h110q140 0 140 -85
q0 -115 -160 -115h-280q-160 0 -160 115v290z" />
    <glyph glyph-name="u1028" unicode="&#x1028;" 
d="M640 -40v-215q0 -115 -160 -115h-280q-160 0 -160 115v660q0 115 160 115h280q160 0 160 -115v-245q0 -160 -176 -160q-177 0 -177 129v23l40 19q43 28 43 59q0 40 -29 40q-31 0 -31 -48h-50q0 98 81 98q79 0 79 -90q0 -45 -53 -78v-23q0 -29 37 -29q36 0 36 60v245
q0 65 -60 65h-80q-60 0 -60 -65v-660q0 -65 60 -65h80q60 0 60 65v215h200z" />
    <glyph glyph-name="u1029" unicode="&#x1029;" horiz-adv-x="1360" 
d="M920 0h-40q-33 0 -60 5q-26 -5 -60 -5h-280q-160 0 -160 115v85h200v-85q0 -65 60 -65h80q60 0 60 65v230q0 95 -100 95q-250 0 -270 -95h-30q0 175 300 175t300 -175v-230q0 -65 60 -65h80q60 0 60 65v290q0 65 -60 65v50h100q160 0 160 -115v-290q0 -115 -160 -115h-40
v-255q0 -115 -160 -115h-760q-160 0 -160 115v1030q0 115 160 115h790v-50h-690q-60 0 -60 -65v-1030q0 -65 60 -65h560q60 0 60 65v255z" />
    <glyph glyph-name="u102A" unicode="&#x102a;" horiz-adv-x="2440" 
d="M200 0q-160 0 -160 115v230q0 175 300 175t300 -175h-30q-20 95 -270 95q-100 0 -100 -95v-218q52 73 150 73h110q140 0 140 -85q0 -115 -160 -115h-280zM259 62q15 -12 41 -12h80q60 0 60 65q0 35 -50 35q-86 0 -131 -88zM2000 405v-290q0 -115 -160 -115h-40v-255
q0 -115 -160 -115h-760q-160 0 -160 115v1030q0 115 160 115h920v-50h-820q-60 0 -60 -65v-1030q0 -65 60 -65h560q60 0 60 65v255h-40q-33 0 -60 5q-26 -5 -60 -5h-280q-160 0 -160 115v85h200v-85q0 -65 60 -65h80q60 0 60 65v230q0 95 -100 95q-250 0 -270 -95h-30
q0 175 300 175t300 -175v-230q0 -65 60 -65h80q60 0 60 65v290q0 65 -60 65v50h100q91 0 130 -37q27 37 90 37h180q160 0 160 -115v-290q0 -115 -160 -115h-100v50q60 0 60 65v290q0 65 -60 65h-80q-60 0 -60 -65zM2030 737v-125q0 -43 35 -43t35 43q0 58 80 58t80 -58
q0 -77 -128 -77h-154q-128 0 -128 77v125q0 148 240 148t240 -168h-24q-16 84 -216 84q-60 0 -60 -64z" />
    <glyph glyph-name="u102B" unicode="&#x102b;" horiz-adv-x="280" 
d="M-50 770q-130 0 -150 -135h-30q0 215 220 215q250 0 250 -235v-615h-200v615q0 155 -90 155z" />
    <glyph glyph-name="u102C" unicode="&#x102c;" horiz-adv-x="400" 
d="M-40 405h-50q0 115 110 115h180q160 0 160 -115v-290q0 -115 -160 -115h-100v50q60 0 60 65v290q0 65 -60 65h-80q-60 0 -60 -65z" />
    <glyph glyph-name="u102D" unicode="&#x102d;" horiz-adv-x="0" 
d="M-397 803v-176q0 -37 40 -37h34q40 0 40 37v176q0 37 -40 37h-34q-40 0 -40 -37zM-540 627v176q0 87 107 87h186q107 0 107 -87v-176q0 -87 -107 -87h-186q-107 0 -107 87z" />
    <glyph glyph-name="u102E" unicode="&#x102e;" horiz-adv-x="0" 
d="M-283 724v79q0 37 -40 37h-34q-40 0 -40 -37v-79q27 1 57 1t57 -1zM-397 673v-46q0 -37 40 -37h34q40 0 40 37v46q-26 2 -57 2t-57 -2zM-540 627v176q0 87 107 87h186q107 0 107 -87v-176q0 -87 -107 -87h-186q-107 0 -107 87z" />
    <glyph glyph-name="u102F" unicode="&#x102f;" horiz-adv-x="0" 
d="M-440 -250v230h200v-230q0 -70 40 -70h40v-50h-170q-110 0 -110 120z" />
    <glyph glyph-name="u1030" unicode="&#x1030;" horiz-adv-x="0" 
d="M-535 -20h150v-350h-150v350zM-145 -250q0 -70 40 -70h40v-50h-170q-110 0 -110 120v230h200v-230z" />
    <glyph glyph-name="u1031" unicode="&#x1031;" 
d="M200 0q-160 0 -160 115v230q0 175 300 175t300 -175h-30q-20 95 -270 95q-100 0 -100 -95v-218q52 73 150 73h110q140 0 140 -85q0 -115 -160 -115h-280zM259 62q15 -12 41 -12h80q60 0 60 65q0 35 -50 35q-86 0 -131 -88z" />
    <glyph glyph-name="u1032" unicode="&#x1032;" horiz-adv-x="0" 
d="M-159 633l-106 -106l-255 255l106 106z" />
    <glyph glyph-name="u1033" unicode="&#x1033;" horiz-adv-x="0" 
d="M-340 780q65 0 65 -65t-65 -65t-65 65t65 65zM-325 715q0 15 -15 15t-15 -15t15 -15t15 15zM-427 803v-176q0 -37 40 -37h94q40 0 40 37v176q0 37 -40 37h-94q-40 0 -40 -37zM-540 627v176q0 87 107 87h186q107 0 107 -87v-176q0 -87 -107 -87h-186q-107 0 -107 87z" />
    <glyph glyph-name="u1034" unicode="&#x1034;" horiz-adv-x="0" 
d="M-265 888l106 -106l-255 -255l-106 106z" />
    <glyph glyph-name="u1035" unicode="&#x1035;" horiz-adv-x="0" 
d="M-400 670v-48q0 -32 35 -32q75 0 75 42q0 43 -41 43q-34 0 -69 -5zM-400 721q46 4 99 4q84 0 115.5 -26.5t31.5 -66.5q0 -97 -144 -97h-74q-208 0 -208 147v55q0 148 240 148t240 -168h-24q-16 84 -216 84q-60 0 -60 -64v-16z" />
    <glyph glyph-name="u1036" unicode="&#x1036;" horiz-adv-x="0" 
d="M-340 800q160 0 160 -130t-160 -130t-160 130t160 130zM-310 670q0 60 -30 60t-30 -60t30 -60t30 60z" />
    <glyph glyph-name="u1037" unicode="&#x1037;" horiz-adv-x="0" 
d="M-340 -20q160 0 160 -140t-160 -140t-160 140t160 140zM-310 -160q0 60 -30 60t-30 -60t30 -60t30 60z" />
    <glyph glyph-name="u1038" unicode="&#x1038;" horiz-adv-x="400" 
d="M200 520q160 0 160 -110t-160 -110t-160 110t160 110zM230 410q0 60 -30 60t-30 -60t30 -60t30 60zM200 220q160 0 160 -110t-160 -110t-160 110t160 110zM230 110q0 60 -30 60t-30 -60t30 -60t30 60z" />
    <glyph glyph-name="u1039" unicode="&#x1039;" horiz-adv-x="0" 
d="M-325 -160h-90v50h90v90h50v-90h90v-50h-90v-90h-50v90z" />
    <glyph glyph-name="u103A" unicode="&#x103a;" horiz-adv-x="0" 
d="M-400 737v-125q0 -22 35 -22t35 22q0 58 80 58t80 -58q0 -77 -128 -77h-154q-128 0 -128 77v125q0 148 240 148t240 -168h-24q-16 84 -216 84q-60 0 -60 -64z" />
    <glyph glyph-name="u103B" unicode="&#x103b;" horiz-adv-x="280" 
d="M-80 -20v-235q0 -65 60 -65t60 65v775h200v-775q0 -115 -160 -115h-200q-160 0 -160 115v235h200z" />
    <glyph glyph-name="u103C" unicode="&#x103c;" horiz-adv-x="280" 
d="M40 775q0 115 160 115h560q160 0 160 -115v-205h-200v205q0 65 -60 65h-360q-60 0 -60 -65v-1030q0 -65 60 -65h360q60 0 60 65v355h200v-355q0 -115 -160 -115h-560q-160 0 -160 115v1030z" />
    <glyph glyph-name="u103D" unicode="&#x103d;" horiz-adv-x="0" 
d="M-397 -107v-176q0 -37 40 -37h34q40 0 40 37v176q0 37 -40 37h-34q-40 0 -40 -37zM-540 -283v176q0 87 107 87h186q107 0 107 -87v-176q0 -87 -107 -87h-186q-107 0 -107 87z" />
    <glyph glyph-name="u103E" unicode="&#x103e;" horiz-adv-x="0" 
d="M-440 -20h200v-230q0 -120 -110 -120h-170v50h40q40 0 40 70v230z" />
    <glyph glyph-name="u103F" unicode="&#x103f;" horiz-adv-x="1480" 
d="M1010 37q-39 -37 -130 -37h-280q-33 0 -60 5q-26 -5 -60 -5h-280q-160 0 -160 115v85h200v-85q0 -65 60 -65h80q60 0 60 65v230q0 95 -100 95q-250 0 -270 -95h-30q0 175 300 175t300 -175v-230q0 -65 60 -65h80q60 0 60 65v290q0 65 -60 65v50h100q160 0 160 -115v-290
q0 -65 60 -65h80q60 0 60 65v290q0 65 -60 65v50h100q160 0 160 -115v-290q0 -115 -160 -115h-180q-63 0 -90 37z" />
    <glyph glyph-name="u1040" unicode="&#x1040;" 
d="M240 405v-290q0 -65 60 -65h80q60 0 60 65v290q0 65 -60 65h-80q-60 0 -60 -65zM40 115v290q0 115 160 115h280q160 0 160 -115v-290q0 -115 -160 -115h-280q-160 0 -160 115z" />
    <glyph glyph-name="u1041" unicode="&#x1041;" 
d="M340 440q-250 0 -270 -95h-30q0 175 300 175t300 -175v-230q0 -115 -160 -115h-280q-160 0 -160 115v85h200v-85q0 -65 60 -65h80q60 0 60 65v230q0 95 -100 95z" />
    <glyph glyph-name="u1042" unicode="&#x1042;" 
d="M300 -250h80q60 0 60 65v705h200v-705q0 -115 -160 -115h-280q-160 0 -160 115v145h200v-145q0 -65 60 -65z" />
    <glyph glyph-name="u1043" unicode="&#x1043;" 
d="M357 0l164 -164l-106 -106l-255 255l16 16q-136 8 -136 114v85h200v-85q0 -65 60 -65h80q60 0 60 65v230q0 95 -100 95q-250 0 -270 -95h-30q0 175 300 175t300 -175v-230q0 -115 -160 -115h-123z" />
    <glyph glyph-name="u1044" unicode="&#x1044;" 
d="M200 0q-160 0 -160 115v230q0 175 300 175t300 -175h-30q-20 95 -270 95q-100 0 -100 -95v-230q0 -65 60 -65h80q60 0 60 65v85h200v-85q0 -106 -136 -114l16 -16l-255 -255l-106 106l164 164h-123z" />
    <glyph glyph-name="u1045" unicode="&#x1045;" 
d="M240 309v-194q0 -52 25 -52t25 57v60q0 75 -50 129zM440 405q0 65 -60 65h-80q-60 0 -60 -65v-31q100 -69 100 -194v-60q0 -120 -75 -120h-65q-160 0 -160 115v290q0 115 160 115h280q160 0 160 -115v-590q0 -115 -160 -115h-280q-160 0 -160 115v135h200v-135
q0 -65 60 -65h80q60 0 60 65v590z" />
    <glyph glyph-name="u1046" unicode="&#x1046;" 
d="M440 279q-142 43 -142 130q0 97 164 97q178 0 178 -115h-150q0 25 -31 25t-31 -37q0 -61 212 -75v-189q0 -115 -160 -115h-280q-160 0 -160 115v590q0 115 160 115h280q160 0 160 -115v-135h-200v135q0 65 -60 65h-80q-60 0 -60 -65v-590q0 -65 60 -65h80q60 0 60 65v164
z" />
    <glyph glyph-name="u1047" unicode="&#x1047;" 
d="M240 405v-190q0 -65 60 -65v-50h-100q-160 0 -160 115v190q0 115 160 115h280q160 0 160 -115v-145q0 -166 -170 -253t-170 -182q0 -75 50 -75t50 130h200q0 -180 -250 -180t-250 140q0 79 170 171.5t170 248.5v145q0 65 -60 65h-80q-60 0 -60 -65z" />
    <glyph glyph-name="u1048" unicode="&#x1048;" 
d="M200 0q-160 0 -160 115v290q0 115 160 115h280q160 0 160 -115v-290q0 -115 -160 -115h-100v50q60 0 60 65v290q0 65 -60 65h-80q-60 0 -60 -65v-31q100 -69 100 -194v-60q0 -120 -75 -120h-65zM240 309v-194q0 -52 25 -52t25 57v60q0 75 -50 129z" />
    <glyph glyph-name="u1049" unicode="&#x1049;" 
d="M440 405q0 65 -60 65h-80q-60 0 -60 -65v-590q0 -65 60 -65h80q60 0 60 65v135h200v-135q0 -115 -160 -115h-280q-160 0 -160 115v590q0 115 160 115h280q160 0 160 -115v-189q-212 -14 -212 -75q0 -37 31 -37t31 25h150q0 -115 -178 -115q-164 0 -164 97q0 87 142 130
v164z" />
    <glyph glyph-name="u104A" unicode="&#x104a;" horiz-adv-x="280" 
d="M240 520v-520h-200v520h200z" />
    <glyph glyph-name="u104B" unicode="&#x104b;" horiz-adv-x="530" 
d="M490 520v-520h-200v520h200zM240 520v-520h-200v520h200z" />
    <glyph glyph-name="u104C" unicode="&#x104c;" horiz-adv-x="760" 
d="M440 -110h-140q-260 0 -260 155v155h200v-85q0 -65 60 -65h80q60 0 60 65v230q0 95 -100 95q-250 0 -270 -95h-30q0 175 300 175t300 -175v-230q0 -115 -160 -115h-240q0 -60 60 -60h80q171 0 260 40v-235q0 -115 -160 -115h-280q-160 0 -160 115v105h200v-105
q0 -65 60 -65h80q60 0 60 65v145zM280 737v-125q0 -22 35 -22t35 22q0 58 80 58t80 -58q0 -77 -128 -77h-154q-128 0 -128 77v125q0 148 240 148t240 -168h-24q-16 84 -216 84q-60 0 -60 -64z" />
    <glyph glyph-name="u104D" unicode="&#x104d;" horiz-adv-x="960" 
d="M240 309v-194q0 -52 25 -52t25 57v60q0 75 -50 129zM200 0q-160 0 -160 115v290q0 115 160 115h280q160 0 160 -115v-655h-200v655q0 65 -60 65h-80q-60 0 -60 -65v-31q100 -69 100 -194v-60q0 -120 -75 -120h-65zM920 -255q0 -115 -160 -115h-560q-160 0 -160 115v70
q0 145 185 145t185 -135h-30q-20 55 -80 55t-60 -65v-70q0 -65 60 -65h360q60 0 60 65v660q0 135 -90 135h-112q-128 0 -128 77v120q0 148 240 148t240 -168h-24q-16 84 -216 84q-60 0 -60 -64v-120q0 -27 35 -27h25q290 0 290 -185v-660z" />
    <glyph glyph-name="u104E" unicode="&#x104e;" 
d="M640 -370h-200v370h-240q-160 0 -160 115v230q0 175 300 175t300 -175h-30q-20 95 -270 95q-100 0 -100 -95v-230q0 -65 60 -65h80q60 0 60 65v85h200v-570z" />
    <glyph glyph-name="u104F" unicode="&#x104f;" horiz-adv-x="1240" 
d="M390 370q50 0 50 35q0 65 -60 65h-80q-26 0 -41 -12q45 -88 131 -88zM259 62q15 -12 41 -12h80q60 0 60 65q0 35 -50 35q-86 0 -131 -88zM607 485q43 35 123 35q190 0 190 -115v-405h-200v405q0 35 -50 35q-18 0 -33 -7q3 -13 3 -28q0 -85 -140 -85h-110q-98 0 -150 73
v-266q52 73 150 73h110q140 0 140 -85q0 -115 -160 -115h-280q-160 0 -160 115v290q0 115 160 115h280q88 0 127 -35zM1000 0v405q0 135 -90 135h-112q-128 0 -128 77v120q0 148 240 148t240 -168h-24q-16 84 -216 84q-60 0 -60 -64v-120q0 -27 35 -27h25q290 0 290 -185
v-405h-200z" />
    <glyph glyph-name="u1050" unicode="&#x1050;" 
d="M340 310q50 0 50 -50t-50 -50t-50 50t50 50zM240 405v-290q0 -65 60 -65v-50h-100q-160 0 -160 115v290q0 115 160 115h280q160 0 160 -115v-290q0 -115 -160 -115h-100v50q60 0 60 65v290q0 65 -60 65h-80q-60 0 -60 -65z" />
    <glyph glyph-name="u1051" unicode="&#x1051;" 
d="M290 260q0 50 50 50t50 -50t-50 -50t-50 50zM300 50h80q60 0 60 65v290q0 65 -60 65v50h100q160 0 160 -115v-290q0 -115 -160 -115h-280q-160 0 -160 115v290q0 115 160 115h100v-50q-60 0 -60 -65v-290q0 -65 60 -65z" />
    <glyph glyph-name="u1052" unicode="&#x1052;" 
d="M370 470v50h270v-50h-171q171 -54 171 -120v-235q0 -115 -160 -115h-280q-160 0 -160 115v290q0 115 160 115h100v-50q-60 0 -60 -65v-290q0 -65 60 -65h80q60 0 60 65v235q0 50 -70 120z" />
    <glyph glyph-name="u1053" unicode="&#x1053;" 
d="M200 0q-160 0 -160 115v235q0 66 171 120h-171v50h260v-50q-60 -70 -60 -120v-235q0 -65 60 -65h80q60 0 60 65v235q0 50 -60 120v50h260v-50h-171q171 -54 171 -120v-235q0 -115 -160 -115h-280z" />
    <glyph glyph-name="u1054" unicode="&#x1054;" 
d="M390 370q50 0 50 35q0 65 -60 65h-80q-26 0 -41 -12q45 -88 131 -88zM480 520q160 0 160 -115q0 -85 -140 -85h-110q-98 0 -150 73v-278q0 -65 60 -65h80q60 0 60 65v85h200v-85q0 -115 -160 -115h-280q-160 0 -160 115v290q0 115 160 115h280z" />
    <glyph glyph-name="u1055" unicode="&#x1055;" 
d="M390 370q50 0 50 35q0 65 -60 65h-80q-26 0 -41 -12q45 -88 131 -88zM480 520q160 0 160 -115q0 -85 -140 -85h-110q-98 0 -150 73v-343l100 120l100 -120v150h200v-85q0 -115 -160 -115h-70l-70 80l-70 -80h-70q-160 0 -160 115v290q0 115 160 115h280z" />
    <glyph glyph-name="u1056" unicode="&#x1056;" horiz-adv-x="400" 
d="M90 470v50h270v-50h-171q171 -54 171 -120v-235q0 -115 -160 -115h-280q-160 0 -160 115h200q0 -65 60 -65h80q60 0 60 65v235q0 50 -70 120z" />
    <glyph glyph-name="u1057" unicode="&#x1057;" horiz-adv-x="400" 
d="M160 350q0 50 -70 120v50h270v-50h-171q171 -54 171 -120v-235q0 -115 -160 -115h-70l-70 80l-70 -80h-70q-160 0 -160 115v49h200v-114l100 120l100 -120v300z" />
    <glyph glyph-name="u1058" unicode="&#x1058;" horiz-adv-x="0" 
d="M-331 -160q41 0 41 43q0 42 -75 42q-35 0 -35 -32v-48q35 -5 69 -5zM-400 -222q0 -64 60 -64q200 0 216 84h24q0 -168 -240 -168t-240 148v55q0 147 178 147h74q174 0 174 -97q0 -40 -31.5 -66.5t-115.5 -26.5q-53 0 -99 4v-16z" />
    <glyph glyph-name="u1059" unicode="&#x1059;" horiz-adv-x="0" 
d="M-331 -160q41 0 41 43q0 42 -75 42q-71 0 -71 -32v-48q71 -5 105 -5zM-414 -293q21 0 47 58h34q36 -58 57 -58q24 0 24 51h98q0 -128 -104 -128q-50 0 -92 83q-42 -83 -82 -83q-148 0 -148 148v55q0 147 178 147h74q174 0 174 -97q0 -40 -31.5 -66.5t-115.5 -26.5
q-53 0 -135 4v-16q0 -71 22 -71z" />
    <glyph glyph-name="u105A" unicode="&#x105a;" 
d="M385 -125q0 35 -45 35t-45 -35h-120q0 105 165 105t165 -105q0 -63 -70 -95t-70 -51q0 -29 25 -29h33v-70h-33q-145 0 -145 99q0 50 70 79t70 67zM240 345v-230q0 -65 60 -65h80q60 0 60 65v85h200v-85q0 -115 -160 -115h-280q-160 0 -160 115v230q0 175 300 175
t300 -175h-30q-20 95 -270 95q-100 0 -100 -95z" />
    <glyph glyph-name="u105B" unicode="&#x105b;" horiz-adv-x="960" 
d="M590 345q0 50 -65 50t-65 -50t65 -50t65 50zM280 0h-80q-160 0 -160 115v230q0 175 300 175q299 0 300 -174q0 -65 80 -65v239h200v-775q0 -115 -160 -115h-320q-160 0 -160 115v255zM720 231q-87 0 -111 37q-29 -23 -84 -23q-115 0 -115 100q0 65 49 88q-51 7 -119 7
q-100 0 -100 -95v-230q0 -65 60 -65h80q60 0 60 65v65h200v-65q0 -115 -160 -115v-255q0 -65 60 -65h120q60 0 60 65v486z" />
    <glyph glyph-name="u105C" unicode="&#x105c;" 
d="M340 335q75 0 75 -75t-75 -75t-75 75t75 75zM359 260q0 19 -19 19t-19 -19t19 -19t19 19zM240 405v-290q0 -65 60 -65h80q60 0 60 65v290q0 65 -60 65h-80q-60 0 -60 -65zM40 115v290q0 115 160 115h280q160 0 160 -115v-290q0 -115 -160 -115h-280q-160 0 -160 115z" />
    <glyph glyph-name="u105D" unicode="&#x105d;" 
d="M240 156v-41q0 -65 60 -65h80q60 0 60 65v41q-41 24 -100 24t-100 -24zM440 0h-240q-160 0 -160 115v290q0 115 160 115h100v-50q-60 0 -60 -65v-199q41 24 100 24t100 -24v199q0 65 -60 65v50h100q160 0 160 -115v-290q0 -85 -87 -107l87 -26v-237q0 -115 -160 -115
h-280q-160 0 -160 115v70q0 145 185 145t185 -135h-30q-20 55 -80 55t-60 -65v-70q0 -65 60 -65h80q60 0 60 65v255z" />
    <glyph glyph-name="u105E" unicode="&#x105e;" horiz-adv-x="0" 
d="M-240 -120h-30q-170 0 -170 -65v-70q0 -65 60 -65h80q60 0 60 65v135zM-40 -73q80 -34 80 -102h-30q-8 21 -50 34v-114q0 -115 -160 -115h-280q-160 0 -160 115v70q0 145 365 145h35v40l113 28l87 -46v-55z" />
    <glyph glyph-name="u105F" unicode="&#x105f;" horiz-adv-x="0" 
d="M-310 -101q-85 0 -85 -92q0 -102 55 -102t55 107h150q0 -167 -205 -167t-205 162q0 144 223 158v35l152 -1v-101z" />
    <glyph glyph-name="u1060" unicode="&#x1060;" horiz-adv-x="0" 
d="M-372 -240h166v-60h-327l-21 41l175 213l119 -61z" />
    <glyph glyph-name="u1061" unicode="&#x1061;" 
d="M240 309v-194q0 -52 25 -52t25 57v60q0 75 -50 129zM180 0q-140 7 -140 115v290q0 115 160 115h280q160 0 160 -115v-655q0 -70 40 -70h40v-50h-170q-110 0 -110 120v655q0 65 -60 65h-80q-60 0 -60 -65v-31q100 -69 100 -194v-430q0 -120 -100 -120h-140v50h40
q40 0 40 70v250z" />
    <glyph glyph-name="u1062" unicode="&#x1062;" horiz-adv-x="280" 
d="M240 0h-200v470h-80v50h280v-520z" />
    <glyph glyph-name="u1063" unicode="&#x1063;" 
d="M40 200h200v-85q0 -65 60 -65h80q60 0 60 65v230q0 95 -100 95q-250 0 -270 -95h-30q0 175 300 175t300 -175v-230q0 -115 -160 -115h-240v-370h-200v570z" />
    <glyph glyph-name="u1064" unicode="&#x1064;" horiz-adv-x="280" 
d="M240 50h80v-50h-280v470h-80v50h280v-470z" />
    <glyph glyph-name="u1065" unicode="&#x1065;" 
d="M340 440q-250 0 -270 -95h-30q0 175 300 175t300 -175v-230q0 -115 -160 -115h-280q-160 0 -160 115v85h200v-85q0 -65 60 -65h80q60 0 60 65v230q0 95 -100 95z" />
    <glyph glyph-name="u1066" unicode="&#x1066;" 
d="M400 0h-200q-160 0 -160 115v290q0 115 160 115h100v-50q-60 0 -60 -65v-290q0 -65 60 -65h80q60 0 60 65v290q0 65 -60 65v50h100q160 0 160 -115v-290q0 -58 -40 -86v-279q0 -120 -110 -120h-170v50h40q40 0 40 70v250z" />
    <glyph glyph-name="u1067" unicode="&#x1067;" horiz-adv-x="320" 
d="M105 100q0 25 -25 25t-25 -25t25 -25t25 25zM80 200v320h200v-370q0 -150 -200 -150q-100 0 -100 100t100 100z" />
    <glyph glyph-name="u1068" unicode="&#x1068;" horiz-adv-x="280" 
d="M240 0h-280v50h80v470h200v-520zM140 740q150 0 150 -100t-150 -100t-150 100t150 100zM190 640q0 50 -50 50t-50 -50t50 -50t50 50z" />
    <glyph glyph-name="u1069" unicode="&#x1069;" horiz-adv-x="392" 
d="M220 143q0 -93 67 -93h65v-50h-95q-217 0 -217 143q0 79 66 122.5t66 110.5q0 94 -67 94h-65v50h95q217 0 217 -144q0 -79 -66 -122.5t-66 -110.5z" />
    <glyph glyph-name="u106A" unicode="&#x106a;" horiz-adv-x="280" 
d="M-15 50q55 0 55 83v387h200v-387q0 -133 -255 -133t-255 133v70h200v-70q0 -83 55 -83z" />
    <glyph glyph-name="u106B" unicode="&#x106b;" horiz-adv-x="280" 
d="M-70 387v-70h-200v70q0 133 255 133t255 -133v-387h-200v387q0 83 -55 83t-55 -83z" />
    <glyph glyph-name="u106C" unicode="&#x106c;" horiz-adv-x="280" 
d="M350 133v70h200v-70q0 -133 -255 -133t-255 133v387h200v-387q0 -83 55 -83t55 83z" />
    <glyph glyph-name="u106D" unicode="&#x106d;" horiz-adv-x="392" 
d="M40 376q0 144 217 144h95v-50h-65q-67 0 -67 -94q0 -67 66 -110.5t66 -122.5q0 -143 -217 -143h-95v50h65q67 0 67 93q0 67 -66 110.5t-66 122.5z" />
    <glyph glyph-name="u106E" unicode="&#x106e;" horiz-adv-x="1370" 
d="M770 520q33 0 60 -5q26 5 60 5h280q160 0 160 -115v-290q0 -115 -160 -115h-100v50q60 0 60 65v290q0 65 -60 65h-80q-60 0 -60 -65v-290q0 -115 -160 -115h-100v50q60 0 60 65v290q0 65 -60 65h-49q19 -26 19 -65v-290q0 -115 -160 -115h-100v50q60 0 60 65v290
q0 65 -60 65h-80q-60 0 -60 -65v-290q0 -65 60 -65v-50h-100q-160 0 -160 115v290q0 115 160 115h570z" />
    <glyph glyph-name="u106F" unicode="&#x106f;" horiz-adv-x="1080" 
d="M780 50q60 0 60 65v290q0 65 -60 65h-80q-60 0 -60 -65v-290q0 -115 -160 -115h-280q-160 0 -160 115v290q0 115 160 115h100v-50q-60 0 -60 -65v-290q0 -65 60 -65h80q60 0 60 65v290q0 65 -60 65v50h100q34 0 60 -5q27 5 60 5h280q160 0 160 -115v-290
q0 -108 -140 -115v-250q0 -120 -110 -120h-170v50h40q40 0 40 70v300h80z" />
    <glyph glyph-name="u1070" unicode="&#x1070;" horiz-adv-x="1080" 
d="M700 0h-100q-34 0 -60 5q-27 -5 -60 -5h-280q-160 0 -160 115v235q0 66 171 120h-171v50h270v-50q-70 -70 -70 -120v-235q0 -65 60 -65h80q60 0 60 65v290q0 65 -60 65v50h100q160 0 160 -115v-290q0 -65 60 -65h80q60 0 60 65v290q0 65 -60 65v50h100q160 0 160 -115
v-290q0 -108 -140 -115v-250q0 -120 -110 -120h-170v50h40q40 0 40 70v250z" />
    <glyph glyph-name="u1071" unicode="&#x1071;" horiz-adv-x="0" 
d="M-499 800q141 0 141 -130t-141 -130t-141 130t141 130zM-472 670q0 60 -27 60q-26 0 -26 -60t26 -60q27 0 27 60zM-181 800q141 0 141 -130t-141 -130t-141 130t141 130zM-155 670q0 60 -26 60q-27 0 -27 -60t27 -60q26 0 26 60z" />
    <glyph glyph-name="u1072" unicode="&#x1072;" horiz-adv-x="0" 
d="M-400 737v-125q0 -22 35 -22t35 22q0 58 80 58t80 -58q0 -77 -128 -77h-154q-128 0 -128 77v125q0 148 240 148t240 -168h-24q-16 84 -216 84q-60 0 -60 -64z" />
    <glyph glyph-name="u1073" unicode="&#x1073;" horiz-adv-x="0" 
d="M-340 849l264 -234l-86 -95l-178 148l-179 -148l-85 95z" />
    <glyph glyph-name="u1074" unicode="&#x1074;" horiz-adv-x="0" 
d="M-323 590q40 0 40 37v176q0 29 -24 35l14 52h46q107 0 107 -87v-176q0 -87 -107 -87h-186q-107 0 -107 87v176q0 87 107 87h46l14 -52q-24 -6 -24 -35v-176q0 -37 40 -37h34z" />
    <glyph glyph-name="u1075" unicode="&#x1075;" 
d="M310 50v-50h-270v50h171q-171 54 -171 120v235q0 115 160 115h280q160 0 160 -115v-290q0 -115 -160 -115h-100v50q60 0 60 65v290q0 65 -60 65h-80q-60 0 -60 -65v-235q0 -50 70 -120z" />
    <glyph glyph-name="u1076" unicode="&#x1076;" 
d="M290 150q-50 0 -50 -35q0 -65 60 -65h80q26 0 41 12q-45 88 -131 88zM0 471v49h50v-49q0 -27 11 -46q59 95 279 95q300 0 300 -175v-230q0 -115 -160 -115h-280q-160 0 -160 115q0 85 140 85h110q98 0 150 -73v218q0 95 -100 95q-250 0 -270 -95h-30q-40 49 -40 126z" />
    <glyph glyph-name="u1077" unicode="&#x1077;" 
d="M390 180v-60q0 -57 25 -57t25 52v194q-50 -54 -50 -129zM300 470q-60 0 -60 -65v-235q0 -50 70 -120v-50h-270v50h171q-171 54 -171 120v235q0 115 160 115h280q160 0 160 -115v-290q0 -115 -160 -115h-65q-75 0 -75 120v60q0 125 100 194v31q0 65 -60 65h-80z" />
    <glyph glyph-name="u1078" unicode="&#x1078;" horiz-adv-x="1080" 
d="M640 115q0 -65 60 -65h80q60 0 60 65v290q0 65 -60 65h-80q-60 0 -60 -65v-290zM600 520h280q160 0 160 -115v-290q0 -115 -160 -115h-280q-160 0 -160 115v290q0 65 -60 65h-80q-60 0 -60 -65v-290q0 -65 60 -65v-50h-100q-160 0 -160 115v290q0 115 160 115h280
q33 0 60 -5q26 5 60 5z" />
    <glyph glyph-name="u1079" unicode="&#x1079;" horiz-adv-x="1080" 
d="M640 115q0 -65 60 -65h80q60 0 60 65v290q0 65 -60 65h-80q-60 0 -60 -65v-290zM240 309v-194q0 -52 25 -52t25 57v60q0 75 -50 129zM480 520q33 0 60 -5q26 5 60 5h280q160 0 160 -115v-290q0 -115 -160 -115h-280q-160 0 -160 115v290q0 65 -60 65h-80q-60 0 -60 -65
v-31q100 -69 100 -194v-60q0 -120 -75 -120h-65q-160 0 -160 115v290q0 115 160 115h280z" />
    <glyph glyph-name="u107A" unicode="&#x107a;" horiz-adv-x="1080" 
d="M440 405q0 65 -60 65h-80q-60 0 -60 -65v-290q0 -65 60 -65v-50h-100q-160 0 -160 115v290q0 115 160 115h280q160 0 160 -115v-290q0 -65 60 -65h80q60 0 60 65v290q0 65 -60 65v50h100q160 0 160 -115v-290q0 -115 -160 -115h-240v-250q0 -70 40 -70h40v-50h-170
q-110 0 -110 120v655z" />
    <glyph glyph-name="u107B" unicode="&#x107b;" horiz-adv-x="1080" 
d="M440 405q0 65 -60 65h-80q-60 0 -60 -65v-290q0 -65 60 -65h80q60 0 60 65v290zM790 180v-60q0 -57 25 -57t25 52v194q-50 -54 -50 -129zM880 520q160 0 160 -115v-290q0 -115 -160 -115h-65q-75 0 -75 120v60q0 125 100 194v31q0 65 -60 65h-80q-60 0 -60 -65v-290
q0 -115 -160 -115h-280q-160 0 -160 115v290q0 115 160 115h280q34 0 60 -5q27 5 60 5h280z" />
    <glyph glyph-name="u107C" unicode="&#x107c;" horiz-adv-x="1080" 
d="M659 62q15 -12 41 -12h80q60 0 60 65q0 35 -50 35q-86 0 -131 -88zM290 150q-50 0 -50 -35q0 -65 60 -65h80q26 0 41 12q-45 88 -131 88zM640 127q52 73 150 73h110q140 0 140 -85q0 -115 -160 -115h-280q-33 0 -60 5q-26 -5 -60 -5h-280q-160 0 -160 115q0 85 140 85
h110q98 0 150 -73v218q0 95 -100 95q-250 0 -270 -95h-30q0 175 300 175q127 0 200 -31q73 31 200 31q300 0 300 -175h-30q-20 95 -270 95q-100 0 -100 -95v-218z" />
    <glyph glyph-name="u107D" unicode="&#x107d;" horiz-adv-x="1080" 
d="M659 62q15 -12 41 -12h80q60 0 60 65q0 35 -50 35q-86 0 -131 -88zM540 5q-27 -5 -60 -5h-280q-160 0 -160 115v235q0 66 171 120h-171v50h270v-50q-70 -70 -70 -120v-235q0 -65 60 -65h80q60 0 60 65v230q0 175 300 175t300 -175h-30q-20 95 -270 95q-100 0 -100 -95
v-218q52 73 150 73h110q140 0 140 -85q0 -115 -160 -115h-280q-34 0 -60 5z" />
    <glyph glyph-name="u107E" unicode="&#x107e;" horiz-adv-x="1080" 
d="M659 62q15 -12 41 -12h80q60 0 60 65q0 35 -50 35q-86 0 -131 -88zM700 0h-100q-34 0 -60 5q-27 -5 -60 -5h-280q-160 0 -160 115v235q0 66 171 120h-171v50h270v-50q-70 -70 -70 -120v-235q0 -65 60 -65h80q60 0 60 65v230q0 175 300 175t300 -175h-30q-20 95 -270 95
q-100 0 -100 -95v-218q52 73 150 73h110q140 0 140 -85q0 -108 -140 -115v-250q0 -120 -110 -120h-170v50h40q40 0 40 70v250z" />
    <glyph glyph-name="u107F" unicode="&#x107f;" 
d="M265 520q75 0 75 -120v-60q0 -125 -100 -194v-31q0 -65 60 -65h80q60 0 60 65v290q0 65 -60 65v50h100q160 0 160 -115v-290q0 -115 -160 -115h-280q-160 0 -160 115v290q0 115 160 115h65zM290 340v60q0 57 -25 57t-25 -52v-194q50 54 50 129z" />
    <glyph glyph-name="u1080" unicode="&#x1080;" horiz-adv-x="1080" 
d="M290 150q-50 0 -50 -35q0 -65 60 -65h80q26 0 41 12q-45 88 -131 88zM640 115q0 -65 60 -65h80q60 0 60 65v290q0 65 -60 65v50h100q160 0 160 -115v-290q0 -115 -160 -115h-280q-33 0 -60 5q-26 -5 -60 -5h-280q-160 0 -160 115q0 85 140 85h110q98 0 150 -73v218
q0 95 -100 95q-250 0 -270 -95h-30q0 175 300 175t300 -175v-230z" />
    <glyph glyph-name="u1081" unicode="&#x1081;" 
d="M140 5q-100 19 -100 110v290q0 115 160 115h280q160 0 160 -115v-290q0 -115 -160 -115h-100v50q60 0 60 65v290q0 65 -60 65h-80q-60 0 -60 -65v-290q0 -65 60 -65v-300q0 -120 -100 -120h-140v50h40q40 0 40 70v255z" />
    <glyph glyph-name="u1082" unicode="&#x1082;" horiz-adv-x="0" 
d="M-397 -107v-176q0 -43 40 -43h34q40 0 40 43v88h143v-88q0 -87 -107 -87h-186q-107 0 -107 87v176q0 87 107 87h186q107 0 107 -87h-143q0 43 -40 43h-34q-40 0 -40 -43z" />
    <glyph glyph-name="u1083" unicode="&#x1083;" horiz-adv-x="280" 
d="M40 470h-80v50h280v-840h80v-50h-280v840z" />
    <glyph glyph-name="u1084" unicode="&#x1084;" 
d="M240 340q0 -55 60 -55h80v-50h-80q-60 0 -60 -75v-45q0 -65 60 -65h80q60 0 60 65v85h200v-85q0 -115 -160 -115h-280q-160 0 -160 115v45q0 71 76 100q-76 29 -76 80q0 180 300 180t300 -175h-30q-20 95 -270 95q-100 0 -100 -100z" />
    <glyph glyph-name="u1085" unicode="&#x1085;" horiz-adv-x="0" 
d="M-397 690v-63q0 -37 40 -37h34q40 0 40 37h143q0 -87 -107 -87h-186q-107 0 -107 87v44l80 44l-80 44v44q0 87 107 87h186q107 0 107 -87h-143q0 37 -40 37h-34q-40 0 -40 -37v-63h157v-50h-157z" />
    <glyph glyph-name="u1086" unicode="&#x1086;" horiz-adv-x="0" 
d="M-370 760q0 70 -25 70t-25 -70t25 -70t25 70zM-245 728q0 -175 -151 -217l-86 68q48 21 71 82q-104 7 -104 99q0 120 120 120q150 0 150 -120v-32z" />
    <glyph glyph-name="u1087" unicode="&#x1087;" horiz-adv-x="380" 
d="M185 100q0 70 -25 70t-25 -70t25 -70t25 70zM340 68q0 -175 -181 -217l-86 68q48 21 71 82q-104 7 -104 99q0 120 140 120q160 0 160 -120v-32z" />
    <glyph glyph-name="u1088" unicode="&#x1088;" horiz-adv-x="380" 
d="M190 520q150 0 150 -100t-150 -100t-150 100t150 100zM215 420q0 50 -25 50t-25 -50t25 -50t25 50zM185 100q0 70 -25 70t-25 -70t25 -70t25 70zM340 68q0 -175 -181 -217l-86 68q48 21 71 82q-104 7 -104 99q0 120 140 120q160 0 160 -120v-32z" />
    <glyph glyph-name="u1089" unicode="&#x1089;" horiz-adv-x="380" 
d="M190 200q150 0 150 -100t-150 -100t-150 100t150 100zM215 100q0 50 -25 50t-25 -50t25 -50t25 50z" />
    <glyph glyph-name="u108A" unicode="&#x108a;" horiz-adv-x="449" 
d="M185 420q0 50 -25 50t-25 -50t25 -50t25 50zM160 281q-120 0 -120 128q0 112 120 112q92 0 99 -84q61 19 82 57l68 -69q-42 -144 -217 -144h-32zM185 140q0 50 -25 50t-25 -50t25 -50t25 50zM160 1q-120 0 -120 128q0 112 120 112q92 0 99 -84q61 19 82 57l68 -69
q-42 -144 -217 -144h-32z" />
    <glyph glyph-name="u108B" unicode="&#x108b;" horiz-adv-x="380" 
d="M190 360q150 0 150 -100t-150 -100t-150 100t150 100zM215 260q0 50 -25 50t-25 -50t25 -50t25 50z" />
    <glyph glyph-name="u108C" unicode="&#x108c;" horiz-adv-x="720" 
d="M530 360q150 0 150 -100t-150 -100t-150 100t150 100zM555 260q0 50 -25 50t-25 -50t25 -50t25 50zM190 360q150 0 150 -100t-150 -100t-150 100t150 100zM215 260q0 50 -25 50t-25 -50t25 -50t25 50z" />
    <glyph glyph-name="u108D" unicode="&#x108d;" horiz-adv-x="0" 
d="M-75 -81v-100h-450v100h450z" />
    <glyph glyph-name="u108E" unicode="&#x108e;" 
d="M340 290q-59 0 -100 24v-199q0 -65 60 -65h80q60 0 60 65v199q-41 -24 -100 -24zM340 340q59 0 100 24v41q0 65 -60 65h-80q-60 0 -60 -65v-41q41 -24 100 -24zM200 520h280q160 0 160 -115v-290q0 -115 -160 -115h-280q-160 0 -160 115v290q0 115 160 115z" />
    <glyph glyph-name="u108F" unicode="&#x108f;" horiz-adv-x="380" 
d="M340 420q0 -100 -150 -100t-150 100t150 100t150 -100zM190 370q25 0 25 50t-25 50t-25 -50t25 -50zM220 50q25 0 25 50t-25 50t-25 -50t25 -50zM40 100q0 120 160 120q140 0 140 -120q0 -92 -104 -99q23 -61 71 -82l-86 -68q-181 42 -181 217v32z" />
    <glyph glyph-name="u1090" unicode="&#x1090;" 
d="M240 405v-290q0 -65 60 -65h80q60 0 60 65v290q0 65 -60 65h-80q-60 0 -60 -65zM40 115v290q0 115 160 115h280q160 0 160 -115v-290q0 -115 -160 -115h-280q-160 0 -160 115z" />
    <glyph glyph-name="u1091" unicode="&#x1091;" horiz-adv-x="420" 
d="M285 129l69 41l26 -103l-112 -67h-133v391l-69 -41l-26 103l112 67h133v-391z" />
    <glyph glyph-name="u1092" unicode="&#x1092;" horiz-adv-x="710" 
d="M41 290h-1v270h200v-44l20 4h240q170 -30 170 -260q0 -134 -155 -243.5t-155 -216.5h-150q0 132 130 241.5t130 218.5q0 160 -50 180h-130q-50 -20 -50 -180h-200q0 15 1 30z" />
    <glyph glyph-name="u1093" unicode="&#x1093;" horiz-adv-x="565" 
d="M334 380l-168 -380l-126 70l307 681l126 -70l-75 -163q127 -14 127 -181v-337h-150v337q0 43 -25 43h-16z" />
    <glyph glyph-name="u1094" unicode="&#x1094;" horiz-adv-x="598" 
d="M264 520h199v-391l69 41l26 -103l-112 -67h-133v346l-147 -346l-126 20z" />
    <glyph glyph-name="u1095" unicode="&#x1095;" horiz-adv-x="580" 
d="M390 400h-75q-125 0 -125 -190q0 -130 100 -130t100 180v140zM540 470h50v-70h-50v-140q0 -260 -250 -260t-250 210q0 260 275 260h75v230h150v-230z" />
    <glyph glyph-name="u1096" unicode="&#x1096;" horiz-adv-x="580" 
d="M390 260q0 180 -100 180t-100 -130q0 -180 125 -180h75v130zM540 -180h-150v230h-75q-275 0 -275 260q0 210 250 210t250 -260v-130h50v-80h-50v-230z" />
    <glyph glyph-name="u1097" unicode="&#x1097;" horiz-adv-x="480" 
d="M247 80h193v-80h-400v31l195 409h-195v80h400v-33z" />
    <glyph glyph-name="u1098" unicode="&#x1098;" 
d="M594 495q46 -29 46 -90v-290q0 -115 -160 -115h-280q-160 0 -160 115v290q0 61 46 90q-46 29 -46 90v145h200v-145q0 -65 60 -65h80q60 0 60 65v145h200v-145q0 -61 -46 -90zM300 470q-60 0 -60 -65v-290q0 -65 60 -65h80q60 0 60 65v290q0 65 -60 65h-80z" />
    <glyph glyph-name="u1099" unicode="&#x1099;" 
d="M640 145v-145h-200v145q0 65 -60 65h-80q-60 0 -60 -65v-145h-200v145q0 61 46 90q-46 29 -46 90v290q0 115 160 115h280q160 0 160 -115v-290q0 -61 -46 -90q46 -29 46 -90zM380 260q60 0 60 65v290q0 65 -60 65h-80q-60 0 -60 -65v-290q0 -65 60 -65h80z" />
    <glyph glyph-name="u109A" unicode="&#x109a;" horiz-adv-x="380" 
d="M190 520q150 0 150 -100t-150 -100t-150 100t150 100zM215 420q0 50 -25 50t-25 -50t25 -50t25 50z" />
    <glyph glyph-name="u109B" unicode="&#x109b;" horiz-adv-x="380" 
d="M185 400q0 50 -25 50t-25 -50t25 -50t25 50zM340 368q0 -175 -181 -217l-86 68q48 21 71 82q-104 7 -104 99q0 120 140 120q160 0 160 -120v-32z" />
    <glyph glyph-name="u109C" unicode="&#x109c;" horiz-adv-x="449" 
d="M160 152q-25 0 -25 -50t25 -50t25 50t-25 50zM192 241q175 0 217 -144l-68 -69q-21 38 -82 57q-7 -84 -99 -84q-120 0 -120 112q0 128 120 128h32zM160 432q-25 0 -25 -50t25 -50t25 50t-25 50zM192 521q175 0 217 -144l-68 -69q-21 38 -82 57q-7 -84 -99 -84
q-120 0 -120 112q0 128 120 128h32z" />
    <glyph glyph-name="u109D" unicode="&#x109d;" horiz-adv-x="0" 
d="M-285 690q-45 0 -45 -143h-200q0 193 245 193t245 -193v-147h-200v147q0 143 -45 143z" />
    <glyph glyph-name="u109E" unicode="&#x109e;" horiz-adv-x="285" 
d="M40 470h-80v50h280v-840h80v-50h-280v840zM145 740q180 0 180 -100t-180 -100t-180 100t180 100zM175 640q0 50 -30 50t-30 -50t30 -50t30 50z" />
    <glyph glyph-name="u109F" unicode="&#x109f;" horiz-adv-x="970" 
d="M240 405v-290q0 -65 60 -65v-50h-100q-160 0 -160 115v290q0 115 160 115h280q160 0 160 -115v-660q0 -65 40 -65t40 65v660q0 135 -90 135h-112q-128 0 -128 77v120q0 148 240 148t240 -168h-24q-16 84 -216 84q-60 0 -60 -64v-120q0 -27 35 -27h25q290 0 290 -185v-660
q0 -115 -160 -115h-160q-160 0 -160 115v660q0 65 -60 65h-80q-60 0 -60 -65z" />
    <glyph glyph-name="uAA60" unicode="&#xaa60;" horiz-adv-x="1080" 
d="M790 180v-60q0 -57 25 -57t25 52v194q-50 -54 -50 -129zM700 470q-60 0 -60 -65v-290q0 -115 -160 -115h-100v50q60 0 60 65v290q0 65 -60 65h-80q-60 0 -60 -65v-290q0 -65 60 -65v-50h-100q-160 0 -160 115v290q0 115 160 115h280q33 0 60 -5q26 5 60 5h280
q160 0 160 -115v-290q0 -115 -160 -115h-65q-75 0 -75 120v60q0 125 100 194v31q0 65 -60 65h-80z" />
    <glyph glyph-name="uAA61" unicode="&#xaa61;" horiz-adv-x="1080" 
d="M640 405v-290q0 -65 60 -65h80q60 0 60 65v290q0 65 -60 65h-80q-60 0 -60 -65zM440 405q0 65 -60 65h-80q-60 0 -60 -65v-235q0 -50 70 -120v-50h-270v50h171q-171 54 -171 120v235q0 115 160 115h280q33 0 60 -5q26 5 60 5h280q160 0 160 -115v-290q0 -115 -160 -115
h-280q-34 0 -60 5q-27 -5 -60 -5h-100v50q60 0 60 65v290z" />
    <glyph glyph-name="uAA62" unicode="&#xaa62;" horiz-adv-x="840" 
d="M345 235h55v-120q0 -65 60 -65h80q60 0 60 65v290q0 65 -60 65v50h100q160 0 160 -115v-290q0 -115 -160 -115h-280q-56 0 -60 102l-113 -102h-147v520h200v-374z" />
    <glyph glyph-name="uAA63" unicode="&#xaa63;" horiz-adv-x="1080" 
d="M640 405v-290q0 -65 60 -65h80q60 0 60 65v290q0 65 -60 65h-80q-60 0 -60 -65zM440 309q-50 -54 -50 -129v-60q0 -57 25 -57t25 52v194zM540 5q-27 -5 -60 -5h-65q-75 0 -75 120v60q0 125 100 194v31q0 65 -60 65h-80q-60 0 -60 -65v-235q0 -50 70 -120v-50h-270v50h171
q-171 54 -171 120v235q0 115 160 115h280q33 0 60 -5q26 5 60 5h280q160 0 160 -115v-290q0 -115 -160 -115h-280q-34 0 -60 5z" />
    <glyph glyph-name="uAA64" unicode="&#xaa64;" horiz-adv-x="1080" 
d="M640 405v-290q0 -65 60 -65h80q60 0 60 65v290q0 65 -60 65h-80q-60 0 -60 -65zM540 5q-27 -5 -60 -5h-280q-160 0 -160 115v290q0 115 160 115h100v-50q-60 0 -60 -65v-290q0 -65 60 -65h80q60 0 60 65v290q0 65 -60 65v50h100q33 0 60 -5q26 5 60 5h280q160 0 160 -115
v-290q0 -115 -160 -115h-280q-34 0 -60 5z" />
    <glyph glyph-name="uAA65" unicode="&#xaa65;" horiz-adv-x="1080" 
d="M440 405q0 115 160 115h280q160 0 160 -115v-290q0 -115 -160 -115h-100v50q60 0 60 65v290q0 65 -60 65h-80q-60 0 -60 -65v-655q0 -120 -110 -120h-170v50h40q40 0 40 70v250h-240q-160 0 -160 115v290q0 115 160 115h100v-50q-60 0 -60 -65v-290q0 -65 60 -65h80
q60 0 60 65v290z" />
    <glyph glyph-name="uAA66" unicode="&#xaa66;" horiz-adv-x="1080" 
d="M340 310q50 0 50 -50t-50 -50t-50 50t50 50zM440 405q0 65 -60 65h-80q-60 0 -60 -65v-290q0 -65 60 -65h80q60 0 60 65v290zM540 515q27 5 60 5h280q160 0 160 -115v-290q0 -115 -160 -115h-100v50q60 0 60 65v290q0 65 -60 65h-80q-60 0 -60 -65v-290q0 -115 -160 -115
h-280q-160 0 -160 115v290q0 115 160 115h280q34 0 60 -5z" />
    <glyph glyph-name="uAA67" unicode="&#xaa67;" horiz-adv-x="1080" 
d="M340 310q50 0 50 -50t-50 -50t-50 50t50 50zM440 115v290q0 65 -60 65h-80q-60 0 -60 -65v-290q0 -65 60 -65h80q60 0 60 65zM640 115q0 -65 60 -65h80q60 0 60 65v290q0 65 -60 65h-80q-60 0 -60 -65v-290zM540 515q27 5 60 5h280q160 0 160 -115v-290q0 -115 -160 -115
h-280q-33 0 -60 5q-26 -5 -60 -5h-280q-160 0 -160 115v290q0 115 160 115h280q34 0 60 -5z" />
    <glyph glyph-name="uAA68" unicode="&#xaa68;" horiz-adv-x="1080" 
d="M340 310q50 0 50 -50t-50 -50t-50 50t50 50zM790 180v-60q0 -57 25 -57t25 52v194q-50 -54 -50 -129zM700 470q-60 0 -60 -65v-290q0 -115 -160 -115h-280q-160 0 -160 115v290q0 115 160 115h280q33 0 60 -5q26 5 60 5h280q160 0 160 -115v-290q0 -115 -160 -115h-65
q-75 0 -75 120v60q0 125 100 194v31q0 65 -60 65h-80zM380 50q60 0 60 65v290q0 65 -60 65h-80q-60 0 -60 -65v-290q0 -65 60 -65h80z" />
    <glyph glyph-name="uAA69" unicode="&#xaa69;" horiz-adv-x="1080" 
d="M340 310q50 0 50 -50t-50 -50t-50 50t50 50zM440 115v290q0 65 -60 65h-80q-60 0 -60 -65v-290q0 -65 60 -65h80q60 0 60 65zM793 51q47 7 47 64v290q0 65 -60 65h-80q-60 0 -60 -65v-225q122 -19 153 -129zM640 129v-14q0 -65 60 -65h39q-26 63 -99 79zM540 515
q27 5 60 5h280q160 0 160 -115v-290q0 -115 -160 -115h-280q-33 0 -60 5q-26 -5 -60 -5h-280q-160 0 -160 115v290q0 115 160 115h280q34 0 60 -5z" />
    <glyph glyph-name="uAA6A" unicode="&#xaa6a;" horiz-adv-x="1080" 
d="M440 115v290q0 65 -60 65h-80q-60 0 -60 -65v-290q0 -65 60 -65h80q60 0 60 65zM793 51q47 7 47 64v290q0 65 -60 65h-80q-60 0 -60 -65v-225q122 -19 153 -129zM640 129v-14q0 -65 60 -65h39q-26 63 -99 79zM540 515q27 5 60 5h280q160 0 160 -115v-290
q0 -115 -160 -115h-280q-33 0 -60 5q-26 -5 -60 -5h-280q-160 0 -160 115v290q0 115 160 115h280q34 0 60 -5z" />
    <glyph glyph-name="uAA6B" unicode="&#xaa6b;" 
d="M240 309v-194q0 -52 25 -52t25 57v60q0 75 -50 129zM68 481q-28 46 -28 109h50q0 -48 23 -82q35 12 87 12h280q160 0 160 -115v-290q0 -115 -160 -115h-100v50q60 0 60 65v290q0 65 -60 65h-80q-60 0 -60 -65v-31q100 -69 100 -194v-60q0 -120 -75 -120h-65
q-160 0 -160 115v290q0 48 28 76z" />
    <glyph glyph-name="uAA6C" unicode="&#xaa6c;" horiz-adv-x="1080" 
d="M730 115q0 -65 55 -65t55 65v290q0 65 -60 65v50h100q160 0 160 -115v-290q0 -115 -160 -115h-190q-120 0 -120 115v290q0 22 5 41q-11 24 -35 24t-35 -24q5 -19 5 -41v-290q0 -115 -120 -115h-190q-160 0 -160 115v290q0 115 160 115h100v-50q-60 0 -60 -65v-290
q0 -65 55 -65t55 65v312q35 60 88.5 76.5t101.5 16.5t101.5 -16.5t88.5 -76.5v-312z" />
    <glyph glyph-name="uAA6D" unicode="&#xaa6d;" horiz-adv-x="790" 
d="M223 508q35 12 87 12h280q160 0 160 -115v-290q0 -115 -160 -115h-100v50q60 0 60 65v290q0 65 -60 65h-80q-60 0 -60 -65v-660q0 -115 -160 -115h-200q-160 0 -160 115v125h200v-125q0 -65 60 -65t60 65v515h-10q-160 0 -160 130t160 130q49 0 83 -12zM170 390
q0 60 -30 60t-30 -60t30 -60t30 60z" />
    <glyph glyph-name="uAA6E" unicode="&#xaa6e;" horiz-adv-x="1080" 
d="M240 309v-194q0 -52 25 -52t25 57v60q0 75 -50 129zM480 520q160 0 160 -115v-290q0 -65 60 -65h80q60 0 60 65v290q0 65 -60 65v50h100q160 0 160 -115v-290q0 -115 -160 -115h-280q-160 0 -160 115v290q0 65 -60 65h-80q-60 0 -60 -65v-31q100 -69 100 -194v-60
q0 -120 -75 -120h-65q-160 0 -160 115v290q0 115 160 115h280z" />
    <glyph glyph-name="uAA6F" unicode="&#xaa6f;" horiz-adv-x="960" 
d="M520 405v-290q0 -65 60 -65h80q60 0 60 65v290q0 65 -60 65h-80q-60 0 -60 -65zM320 355l-80 69v-424h-200v520h197l88 -79q22 79 155 79h280q160 0 160 -115v-290q0 -115 -160 -115h-280q-160 0 -160 115v240z" />
    <glyph glyph-name="uAA70" unicode="&#xaa70;" horiz-adv-x="0" 
d="M-299 510q-76 0 -107 -31l-40 85q44 46 147 46q102 0 146 -46l-40 -85q-31 31 -106 31zM-299 650q-76 0 -107 -31l-40 85q44 46 147 46q102 0 146 -46l-40 -85q-31 31 -106 31z" />
    <glyph glyph-name="uAA71" unicode="&#xaa71;" horiz-adv-x="1080" 
d="M240 309v-194q0 -52 25 -52t25 57v60q0 75 -50 129zM440 405q0 65 -60 65h-80q-60 0 -60 -65v-31q100 -69 100 -194v-60q0 -120 -75 -120h-65q-160 0 -160 115v290q0 115 160 115h280q33 0 60 -5q26 5 60 5h280q160 0 160 -115v-290q0 -115 -160 -115h-100v50q60 0 60 65
v290q0 65 -60 65h-80q-60 0 -60 -65v-290q0 -115 -160 -115h-100v50q60 0 60 65v290z" />
    <glyph glyph-name="uAA72" unicode="&#xaa72;" horiz-adv-x="1080" 
d="M640 405v-290q0 -65 60 -65h80q60 0 60 65v290q0 65 -60 65h-80q-60 0 -60 -65zM40 235v170q0 115 160 115h280q33 0 60 -5q26 5 60 5h280q160 0 160 -115v-290q0 -115 -160 -115h-280q-34 0 -60 5q-27 -5 -60 -5h-100v50q60 0 60 65v290q0 65 -60 65h-80q-60 0 -60 -65
v-160q70 -29 70 -115q0 -130 -160 -130t-160 130q0 73 50 105zM180 130q0 60 -30 60t-30 -60t30 -60t30 60z" />
    <glyph glyph-name="uAA73" unicode="&#xaa73;" horiz-adv-x="790" 
d="M240 324v-324h-200v520h198q97 -470 219 -470h33q60 0 60 65v290q0 65 -60 65v50h100q160 0 160 -115v-290q0 -115 -160 -115h-133q-136 0 -217 324z" />
    <glyph glyph-name="uAA74" unicode="&#xaa74;" horiz-adv-x="960" 
d="M390 50q50 6 50 65v290q0 52 -25 52t-25 -57v-350zM340 -270q0 50 -50 50t-50 -50t50 -50t50 50zM390 -221q68 -49 169 -49h70q91 0 91 68v607q0 135 -90 135h-112q-128 0 -128 77v120q0 148 240 148t240 -168h-24q-16 84 -216 84q-60 0 -60 -64v-120q0 -27 35 -27h25
q290 0 290 -185v-607q0 -168 -291 -168h-70q-104 0 -172 66q-16 -66 -97 -66q-100 0 -100 100q0 110 100 110q29 0 50 -9v89l50 -3v-138zM340 0h-140q-160 0 -160 115v290q0 115 160 115h100v-50q-60 0 -60 -65v-290q0 -65 60 -65h40v350q0 120 75 120h65q160 0 160 -115
v-290q0 -115 -160 -115h-90v-83l-50 3v80z" />
    <glyph glyph-name="uAA75" unicode="&#xaa75;" horiz-adv-x="1360" 
d="M780 -270q0 50 -50 50t-50 -50t50 -50t50 50zM780 50q60 0 60 65v290q0 65 -60 65h-80q-60 0 -60 -65v-290q0 -115 -160 -115h-100v50q60 0 60 65v290q0 65 -60 65h-80q-60 0 -60 -65v-235q0 -50 70 -120v-50h-270v50h171q-171 54 -171 120v235q0 115 160 115h280
q33 0 60 -5q26 5 60 5h280q160 0 160 -115v-290q0 -115 -160 -115h-50v-221q68 -49 129 -49h70q91 0 91 68v607q0 135 -90 135h-112q-128 0 -128 77v120q0 148 240 148t240 -168h-24q-16 84 -216 84q-60 0 -60 -64v-120q0 -27 35 -27h25q290 0 290 -185v-607
q0 -168 -291 -168h-70q-64 0 -132 66q-16 -66 -97 -66q-100 0 -100 100q0 110 100 110q29 0 50 -9v219z" />
    <glyph glyph-name="uAA76" unicode="&#xaa76;" horiz-adv-x="1070" 
d="M170 390q0 60 -30 60t-30 -60t30 -60t30 60zM530 -270q0 50 -50 50t-50 -50t50 -50t50 50zM530 0h-40v50q60 0 60 65v290q0 65 -60 65h-80q-60 0 -60 -65v-660q0 -115 -160 -115h-200q-160 0 -160 115v125h200v-125q0 -65 60 -65t60 65v515h-10q-160 0 -160 130t160 130
q49 0 83 -12q35 12 87 12h280q160 0 160 -115v-290q0 -115 -160 -115h-10v-221q68 -49 129 -49h30q91 0 91 68v607q0 135 -90 135h-112q-128 0 -128 77v120q0 148 240 148t240 -168h-24q-16 84 -216 84q-60 0 -60 -64v-120q0 -27 35 -27h25q290 0 290 -185v-607
q0 -168 -291 -168h-30q-64 0 -132 66q-16 -66 -97 -66q-100 0 -100 100q0 110 100 110q29 0 50 -9v169z" />
    <glyph glyph-name="uAA77" unicode="&#xaa77;" 
d="M593 24l149 -281q25 -47 52 -47q9 0 17 4l35 19l23 -44l-53 -28q-32 -17 -59 -17q-56 0 -94 71l-159 300q-11 -1 -24 -1h-10v-250q0 -70 40 -70h40v-50h-60q-110 0 -110 120v300q60 0 60 65v290q0 65 -60 65h-80q-60 0 -60 -65v-235q0 -50 70 -120v-50h-270v50h171
q-171 54 -171 120v235q0 115 160 115h280q160 0 160 -115v-290q0 -62 -47 -91zM280 737v-125q0 -22 35 -22t35 22q0 58 80 58t80 -58q0 -77 -128 -77h-154q-128 0 -128 77v125q0 148 240 148t240 -168h-24q-16 84 -216 84q-60 0 -60 -64z" />
    <glyph glyph-name="uAA78" unicode="&#xaa78;" horiz-adv-x="890" 
d="M40 408l140 35q70 -65 70 -200q0 -131 -66 -196l-138 37q54 52 54 159q0 112 -60 165zM687 23l12 -12l-115 -111q-52 60 -164 60q-107 0 -159 -54l-37 138q65 66 196 66q86 0 144 -29l113 348q30 91 147 91q19 0 41 -7q49 -16 65 -53l-47 -126q-7 23 -34 31q-11 4 -20 4
q-36 0 -54 -56zM584 590l35 -140q-65 -70 -199 -70q-131 0 -196 66l37 138q52 -54 159 -54q112 0 164 60z" />
    <glyph glyph-name="uAA79" unicode="&#xaa79;" 
d="M310 50v-50h-270v50h171q-171 54 -171 120v235q0 115 160 115h280q160 0 160 -115v-290q0 -115 -160 -115h-100v50q60 0 60 65v290q0 65 -60 65h-80q-60 0 -60 -65v-235q0 -50 70 -120zM380 -250v280h200v-280q0 -70 40 -70h40v-50h-170q-110 0 -110 120z" />
    <glyph glyph-name="uAA7A" unicode="&#xaa7a;" horiz-adv-x="1360" 
d="M720 405q0 65 -60 65h-80q-60 0 -60 -65v-290q0 -65 60 -65v-50h-100q-160 0 -160 115v290q0 115 160 115h280q160 0 160 -115v-290q0 -65 60 -65h80q60 0 60 65v290q0 65 -60 65v50h100q160 0 160 -115v-290q0 -115 -160 -115h-240v-255q0 -115 -160 -115h-560
q-160 0 -160 115v965q0 115 160 115h461q60 0 60 65h200q0 -115 -160 -115h-461q-60 0 -60 -65v-965q0 -65 60 -65h360q60 0 60 65v660z" />
    <glyph glyph-name="uAA7B" unicode="&#xaa7b;" horiz-adv-x="380" 
d="M220 50q25 0 25 50t-25 50t-25 -50t25 -50zM40 100q0 120 160 120q140 0 140 -120q0 -92 -104 -99q23 -61 71 -82l-86 -68q-181 42 -181 217v32z" />
    <glyph glyph-name="u1039_1000" horiz-adv-x="0" 
d="M-339 -23q15 3 35 3h186q107 0 107 -87v-176q0 -87 -107 -87h-66v50q30 0 30 37v176q0 37 -30 37h-54q-30 0 -30 -37v-176q0 -87 -107 -87h-66v50q30 0 30 37v176q0 37 -30 37h-54q-30 0 -30 -37v-176q0 -37 30 -37v-50h-66q-107 0 -107 87v176q0 87 107 87h186
q20 0 36 -3z" />
    <glyph glyph-name="u1039_1001" horiz-adv-x="0" 
d="M-349 -230q-41 0 -41 -43q0 -42 75 -42q35 0 35 32v48q-35 5 -69 5zM-280 -168q0 64 -60 64q-200 0 -216 -84h-24q0 168 240 168t240 -148v-55q0 -147 -208 -147h-74q-144 0 -144 97q0 40 31.5 66.5t115.5 26.5q53 0 99 -4v16z" />
    <glyph glyph-name="u1039_1002" horiz-adv-x="1" 
d="M-397 -107v-176q0 -37 30 -37v-50h-66q-107 0 -107 87v176q0 87 107 87h186q107 0 107 -87v-176q0 -87 -107 -87h-66v50q30 0 30 37v176q0 37 -30 37h-54q-30 0 -30 -37z" />
    <glyph glyph-name="u1039_1003" horiz-adv-x="0" 
d="M-495 -20v-50q-30 -40 -30 -77v-136q0 -37 30 -37h54q30 0 30 37v176q0 37 -30 37v50h66q107 0 107 -87v-176q0 -37 30 -37h54q30 0 30 37v176q0 37 -30 37v50h66q107 0 107 -87v-176q0 -87 -107 -87h-186q-20 0 -35 3q-16 -3 -36 -3h-186q-107 0 -107 87v136q0 31 76 77
h-76v50h173z" />
    <glyph glyph-name="u1039_1004" horiz-adv-x="1" 
d="M-400 -168v-125q0 -22 35 -22t35 22q0 58 80 58t80 -58q0 -77 -128 -77h-154q-128 0 -128 77v125q0 148 240 148t240 -168h-24q-16 84 -216 84q-60 0 -60 -64z" />
    <glyph glyph-name="u1039_1005" horiz-adv-x="1" 
d="M-407 -71q-30 -4 -30 -36v-176q0 -32 30 -36q18 53 18 124t-18 124zM-357 -320h34q40 0 40 37v176q0 37 -40 37h-34q18 -53 18 -125t-18 -125zM-540 -283v176q0 87 107 87h186q107 0 107 -87v-176q0 -87 -107 -87h-186q-107 0 -107 87z" />
    <glyph glyph-name="u1039_1006" horiz-adv-x="0" 
d="M-390 -168q0 64 -60 64q-200 0 -216 -84h-24q0 168 240 168q59 0 101 -13q25 13 66 13h186q107 0 107 -87v-176q0 -87 -107 -87h-186q-35 0 -59 10q-33 -10 -76 -10h-74q-144 0 -144 97q0 40 31.5 66.5t115.5 26.5q53 0 99 -4v16zM-247 -107v-176q0 -37 40 -37h34
q40 0 40 37v176q0 37 -40 37h-34q-40 0 -40 -37zM-459 -230q-41 0 -41 -43q0 -42 75 -42q35 0 35 32v48q-35 5 -69 5z" />
    <glyph glyph-name="u1039_1007" horiz-adv-x="1" 
d="M-331 -160q41 0 41 43q0 42 -75 42q-35 0 -35 -32v-48q35 -5 69 -5zM-181 -180q-2 -2 -4 -3q-32 -27 -116 -27q-53 0 -99 4v-16q0 -64 60 -64q200 0 216 44h24q0 -128 -240 -128t-240 148v55q0 147 208 147h74q144 0 144 -97q0 -9 -2 -18q28 -7 71 -11l-6 -50
q-55 5 -90 16z" />
    <glyph glyph-name="u1039_1008" horiz-adv-x="280" 
d="M-407 -71q-30 -4 -30 -36v-176q0 -32 30 -36q18 53 18 124t-18 124zM-357 -320h34q40 0 40 37v176q0 37 -40 37h-34q18 -53 18 -125t-18 -125zM-140 -255q0 -65 90 -65t90 65v775h200v-775q0 -115 -160 -115h-200q-42 0 -73 8q-22 -8 -54 -8h-186q-107 0 -107 87v176
q0 87 107 87h186q107 0 107 -87v-148z" />
    <glyph glyph-name="u1039_100B" horiz-adv-x="0" 
d="M-208 -327q-59 -23 -169 -23q-186 1 -238 47l27 45q71 -41 211 -42q145 0 212 43h25v-63h109v-50h-177v43zM-400 -123v-87q0 -15 35 -15t35 15q0 41 80 41t80 -41q0 -53 -128 -53h-154q-128 0 -128 53v87q0 103 240 103t240 -117h-24q-16 59 -216 59q-60 0 -60 -45z" />
    <glyph glyph-name="u1039_100C" horiz-adv-x="0" 
d="M-583 -370q-85 0 -85 93v164q0 93 85 93h52q107 0 107 -108t-100 -108v18q41 11 41 46t-48 35h-52q-48 0 -48 -35v-46q0 -35 48 -35h188v140q0 93 85 93h170q129 0 129 -175t-129 -175v18q70 11 70 157q0 58 -70 58h-170q-48 0 -48 -35v-46q0 -35 48 -35h63v-117h-336z
" />
    <glyph glyph-name="u1039_100F" horiz-adv-x="0" 
d="M-215 -307q-23 -41 -58 -52t-66 -11q-32 0 -67 11t-58 52v210q0 43 -36 43q-37 0 -37 -43v-196q0 -43 40 -43v-34h-66q-105 0 -105 77v196q0 77 105 77h125q30 0 49 -11q19 11 50 11q30 0 49 -11q19 11 49 11h125q105 0 105 -77v-196q0 -77 -105 -77h-66v34q40 0 40 43
v196q0 43 -37 43q-36 0 -36 -43v-210zM-362 -320q7 -16 23 -16q15 0 22 16q-3 13 -3 27v196q0 22 7 38q-11 5 -26 5q-16 0 -27 -5q7 -16 7 -38v-196q0 -14 -3 -27z" />
    <glyph glyph-name="u1039_1010" horiz-adv-x="0" 
d="M-268 -283q0 -87 -107 -87h-186q-107 0 -107 87v176q0 87 107 87h186q20 0 35 -3q16 3 36 3h186q107 0 107 -87v-176q0 -87 -107 -87h-66v50q30 0 30 37v176q0 37 -30 37h-54q-30 0 -30 -37v-176zM-411 -107q0 37 -40 37h-34q-40 0 -40 -37v-176q0 -37 40 -37h34
q40 0 40 37v176z" />
    <glyph glyph-name="u1039_1011" horiz-adv-x="0" 
d="M-268 -107v-176q0 -37 40 -37h34q40 0 40 37v176q0 37 -40 37h-34q-40 0 -40 -37zM-411 -107q0 37 -40 37h-34q-40 0 -40 -37v-176q0 -37 40 -37h34q40 0 40 37v176zM-340 -367q-15 -3 -35 -3h-186q-107 0 -107 87v176q0 87 107 87h186q20 0 35 -3q16 3 36 3h186
q107 0 107 -87v-176q0 -87 -107 -87h-186q-20 0 -36 3z" />
    <glyph glyph-name="u1039_1012" horiz-adv-x="0" 
d="M-340 -74q-167 0 -180 -64h-20q0 118 200 118t200 -121q0 -34 -51 -54q51 -20 51 -67v-31q0 -77 -107 -77h-186q-107 0 -107 77v58h133v-58q0 -43 40 -43h54q40 0 40 43v31q0 50 -40 50h-54v34h54q40 0 40 37q0 67 -67 67z" />
    <glyph glyph-name="u1039_1013" horiz-adv-x="1" 
d="M-283 -202v95q0 37 -40 37h-34q-40 0 -40 -37v-95q26 7 57 7t57 -7zM-397 -252v-31q0 -37 40 -37h34q40 0 40 37v31q-26 7 -57 7t-57 -7zM-540 -283v176q0 87 107 87h186q107 0 107 -87v-176q0 -87 -107 -87h-186q-107 0 -107 87z" />
    <glyph glyph-name="u1039_1014" horiz-adv-x="0" 
d="M-362 -336q-54 67 -85 67q-33 0 -33 -24q0 -43 40 -43h78zM-433 -370q-107 0 -107 77q0 58 93 58q86 0 148 -99q26 6 26 41q0 59 -55 79l-97 37q-68 25 -68 80q0 77 133 77t133 -118h-20q-13 64 -63 64t-50 -44q0 -48 44 -64l89 -33q87 -33 87 -78q0 -77 -107 -77h-186z
" />
    <glyph glyph-name="u1039_1015" horiz-adv-x="1" 
d="M-367 -320h54q30 0 30 37v176q0 37 -30 37v50h66q107 0 107 -87v-176q0 -87 -107 -87h-186q-107 0 -107 87v176q0 87 107 87h66v-50q-30 0 -30 -37v-176q0 -37 30 -37z" />
    <glyph glyph-name="u1039_1016" horiz-adv-x="1" 
d="M-291 -195q0 -71 18 -124q30 4 30 36v176q0 32 -30 36q-18 -53 -18 -124zM-341 -195q0 72 18 125q18 50 76 50q107 0 107 -87v-176q0 -87 -107 -87h-186q-107 0 -107 87v176q0 87 87 87h76v-50q-40 0 -40 -37v-176q0 -37 40 -37h54q-18 53 -18 125z" />
    <glyph glyph-name="u1039_1017" horiz-adv-x="1" 
d="M-283 -105q-26 -7 -57 -7t-57 7v-178q0 -37 30 -37h54q30 0 30 37v178zM-387 -57q22 -5 47 -5t47 5v37h46q107 0 107 -87v-176q0 -87 -107 -87h-186q-107 0 -107 87v176q0 87 107 87h46v-37z" />
    <glyph glyph-name="u1039_1018" horiz-adv-x="0" 
d="M-390 -168q0 64 -60 64q-200 0 -216 -84h-24q0 168 240 168q59 0 101 -13q25 13 66 13h186q107 0 107 -87v-176q0 -87 -107 -87h-66v50q30 0 30 37v176q0 37 -30 37h-54q-30 0 -30 -37v-186q0 -77 -128 -77h-117q-128 0 -128 77q0 58 80 58t80 -58q0 -22 35 -22t35 22
v125z" />
    <glyph glyph-name="u1039_1019" horiz-adv-x="1" 
d="M-397 -260v-23q0 -37 30 -37h54q30 0 30 37v23q-26 7 -57 7t-57 -7zM-283 -210v103q0 37 -30 37v50h66q107 0 107 -87v-176q0 -87 -107 -87h-186q-107 0 -107 87v176q0 87 107 87h66v-50q-30 0 -30 -37v-103q26 7 57 7t57 -7z" />
    <glyph glyph-name="u1039_101C" horiz-adv-x="0" 
d="M-268 -283q0 -37 30 -37h54q30 0 30 37v176q0 37 -30 37v50h66q107 0 107 -87v-176q0 -87 -107 -87h-186q-107 0 -107 87v176q0 37 -30 37h-54q-30 0 -30 -37v-176q0 -37 30 -37v-50h-66q-107 0 -107 87v176q0 87 107 87h186q107 0 107 -87v-176z" />
    <glyph glyph-name="u1039_101D" horiz-adv-x="1" 
d="M-397 -107v-176q0 -37 40 -37h34q40 0 40 37v176q0 37 -40 37h-34q-40 0 -40 -37zM-540 -283v176q0 87 107 87h186q107 0 107 -87v-176q0 -87 -107 -87h-186q-107 0 -107 87z" />
    <glyph glyph-name="u1039_101D_103E" horiz-adv-x="1" 
d="M-397 -107v-176q0 -37 40 -37h34q40 0 40 37v176q0 37 -40 37h-34q-40 0 -40 -37zM-540 -285l-79 -85l-102 90l77 88l51 -47l53 59v73q0 87 107 87h186q107 0 107 -87v-176q0 -87 -107 -87h-186q-106 0 -107 85z" />
    <glyph glyph-name="u103C_big" horiz-adv-x="280" 
d="M1060 -320q60 0 60 65v355h200v-355q0 -115 -160 -115h-960q-160 0 -160 115v1030q0 115 160 115h960q160 0 160 -115v-205h-200v205q0 65 -60 65h-760q-60 0 -60 -65v-1030q0 -65 60 -65h760z" />
    <glyph glyph-name="u102F_long" horiz-adv-x="280" 
d="M40 520h200v-770q0 -70 40 -70h40v-50h-170q-110 0 -110 120v770z" />
    <glyph glyph-name="u1030_long" horiz-adv-x="470" 
d="M40 520h150v-890h-150v890zM430 -250q0 -70 40 -70h40v-50h-170q-110 0 -110 120v770h200v-770z" />
    <glyph glyph-name="u103C_1" horiz-adv-x="280" 
d="M40 775q0 115 160 115h560q160 0 160 -115v-205h-200v205q0 65 -60 65h-360q-60 0 -60 -65v-1030q0 -65 60 -65v-50h-100q-160 0 -160 115v1030z" />
    <glyph glyph-name="u103C_2" horiz-adv-x="280" 
d="M40 775q0 115 160 115h100v-50q-60 0 -60 -65v-1030q0 -65 60 -65h360q60 0 60 65v355h200v-355q0 -115 -160 -115h-560q-160 0 -160 115v1030z" />
    <glyph glyph-name="u103C_3" horiz-adv-x="280" 
d="M40 775q0 115 160 115h100v-50q-60 0 -60 -65v-1030q0 -65 60 -65v-50h-100q-160 0 -160 115v1030z" />
    <glyph glyph-name="u103C_big_1" horiz-adv-x="280" 
d="M680 -370h-480q-160 0 -160 115v1030q0 115 160 115h960q160 0 160 -115v-205h-200v205q0 65 -60 65h-760q-60 0 -60 -65v-1030q0 -65 60 -65h380v-50z" />
    <glyph glyph-name="u103C_big_2" horiz-adv-x="280" 
d="M1060 -320q60 0 60 65v355h200v-355q0 -115 -160 -115h-960q-160 0 -160 115v1030q0 115 160 115h480v-50h-380q-60 0 -60 -65v-1030q0 -65 60 -65h760z" />
    <glyph glyph-name="u103C_big_3" horiz-adv-x="280" 
d="M680 -370h-480q-160 0 -160 115v1030q0 115 160 115h480v-50h-380q-60 0 -60 -65v-1030q0 -65 60 -65h380v-50z" />
    <glyph glyph-name="u100B_1039_100B" 
d="M640 -250q0 -70 40 -70h40v-50h-170q-110 0 -110 120v165h-140q-202 0 -260 47v131q89 -36 260 -36h80q60 0 60 53h-240q-160 0 -160 103v151q0 156 300 156t300 -156h-30q-20 85 -270 85q-100 0 -100 -85v-151q0 -58 60 -58h80q60 0 60 58v22h200v-84q0 -138 -260 -138
h-140v-54h140q176 0 260 66v-275zM322 -338q-44 -17 -127 -17q-141 1 -180 36l20 33q54 -30 160 -31q109 0 160 32h19v-47h82v-38h-134v32zM177 -184v-65q0 -12 27 -12q26 0 26 12q0 31 61 31q60 0 60 -31q0 -40 -97 -40h-116q-97 0 -97 40v65q0 78 182 78q181 0 181 -88
h-18q-12 44 -163 44q-46 0 -46 -34z" />
    <glyph glyph-name="u100A_alt" horiz-adv-x="1080" 
d="M540 -370h-340q-160 0 -160 115v455h200v-85q0 -65 60 -65h80q60 0 60 65v230q0 95 -100 95q-250 0 -270 -95h-30q0 175 300 175t300 -175v-230q0 -65 60 -65h80q60 0 60 65v290q0 65 -60 65v50h100q160 0 160 -115v-290q0 -115 -160 -115h-280q-33 0 -60 5
q-26 -5 -60 -5h-240v-255q0 -65 60 -65h240v-50z" />
    <glyph glyph-name="u1014_alt" 
d="M307 50q-81 100 -127 100q-50 0 -50 -35q0 -65 60 -65h117zM200 0q-160 0 -160 115q0 85 140 85q129 0 221 -147q39 10 39 62q0 87 -82 117l-145 54q-103 38 -103 119q0 115 200 115t200 -175h-30q-20 95 -95 95t-75 -65q0 -72 66 -96l133 -49q131 -49 131 -115
q0 -115 -160 -115h-280z" />
    <glyph glyph-name="u101B_alt" 
d="M240 309v-194q0 -52 25 -52t25 57v60q0 75 -50 129zM200 0q-160 0 -160 115v290q0 115 160 115h280q160 0 160 -115v-655h-200v655q0 65 -60 65h-80q-60 0 -60 -65v-31q100 -69 100 -194v-60q0 -120 -75 -120h-65z" />
    <glyph glyph-name="u1025_alt" 
d="M40 200h200v-85q0 -65 60 -65h80q60 0 60 65v230q0 95 -100 95q-250 0 -270 -95h-30q0 175 300 175t300 -175v-230q0 -115 -160 -115h-240v-255q0 -65 60 -65v-50h-100q-160 0 -160 115v455z" />
    <glyph glyph-name="u1037_alt" horiz-adv-x="0" 
d="M-135 -20q135 0 135 -140t-135 -140t-135 140t135 140zM-110 -160q0 90 -25 90t-25 -90t25 -90t25 90z" />
    <glyph glyph-name="u103B_alt" horiz-adv-x="280" 
d="M-80 -150v-105q0 -65 60 -65t60 65v775h200v-775q0 -115 -160 -115h-200q-160 0 -160 115z" />
    <glyph glyph-name="u103E_alt" horiz-adv-x="0" 
d="M-188 -21l101 -71l-247 -248l-132 132l71 101l61 -61z" />
    <glyph glyph-name="u1037_alt2" horiz-adv-x="0" 
d="M50 -20q100 0 100 -100t-100 -100t-100 100t100 100zM75 -120q0 50 -25 50t-25 -50t25 -50t25 50z" />
    <glyph glyph-name="u100B_1039_100C" 
d="M240 345v-230q0 -65 60 -65h80q60 0 60 65v85h200v-85q0 -115 -160 -115h-280q-160 0 -160 115v230q0 175 300 175t300 -175h-30q-20 95 -270 95q-100 0 -100 -95zM640 -269q0 -101 -160 -101h-280q-160 0 -160 101q0 127 185 127t185 -101h-30q-20 31 -80 31t-60 -57
q0 -51 60 -51h80q60 0 60 51v159h-140q-260 0 -260 110q90 -60 260 -60h80q171 0 260 40v-249z" />
    <glyph glyph-name="u25CC" unicode="&#x25cc;" horiz-adv-x="595" 
d="M479 418q0 -24 -24 -24q-25 0 -25 24q0 25 25 25q24 0 24 -25zM406 466q0 -24 -23 -24q-25 0 -25 24q0 25 25 25q23 0 23 -25zM527 346q0 -25 -25 -25q-24 0 -24 25q0 24 25 24q24 0 24 -24zM545 261q0 -24 -24 -24q-25 0 -25 24t25 24q24 0 24 -24zM321 484
q0 -25 -24 -25t-24 25q0 24 24 24t24 -24zM237 466q0 -24 -25 -24q-24 0 -24 24q0 25 24 25q25 0 25 -25zM527 176q0 -24 -25 -24q-24 0 -24 24q0 25 24 25q25 0 25 -25zM165 418q0 -24 -25 -24q-24 0 -24 23q0 26 24 26q25 0 25 -25zM479 103q0 -24 -24 -24q-25 0 -25 24
q0 25 25 25q24 0 24 -25zM406 55q0 -23 -23 -23q-25 0 -25 23q0 25 25 25q23 0 23 -25zM116 346q0 -25 -23 -25q-25 0 -25 25q0 24 24 24t24 -24zM99 261q0 -24 -24 -24q-25 0 -25 24t25 24q24 0 24 -24zM321 39q0 -25 -24 -25t-24 25q0 24 24 24t24 -24zM116 176
q0 -24 -24 -24t-24 24q0 25 24 25t24 -25zM237 57q0 -25 -25 -25q-24 0 -24 23q0 25 24 25q25 0 25 -23zM165 103q0 -24 -25 -24q-24 0 -24 24q0 25 24 25q25 0 25 -25z" />
    <glyph glyph-name="u103E_short" horiz-adv-x="0" 
d="M-470 -20h200v-160q0 -120 -110 -120h-170v50h40q40 0 40 70v160z" />
  </font>
</defs>
</svg>
