<?xml version="1.0" standalone="no"?>
<!DOCTYPE svg PUBLIC "-//W3C//DTD SVG 1.1//EN" "http://www.w3.org/Graphics/SVG/1.1/DTD/svg11.dtd" >
<svg>
<metadata>
Created by FontForge 20110222 at Sun Mar 29 16:19:51 2015
 By deploy user
Copyright (c) 2014 by NamKhone, PJailon. All rights reserved.
</metadata>
<defs>
<font id="NKSSmart3" horiz-adv-x="0" >
  <font-face 
    font-family="NK SSmart3"
    font-weight="400"
    font-stretch="normal"
    units-per-em="1000"
    panose-1="2 0 5 3 0 0 0 2 0 3"
    ascent="800"
    descent="-200"
    x-height="502"
    cap-height="813"
    bbox="-1239 -610 2925 1156"
    underline-thickness="50"
    underline-position="-600"
    unicode-range="U+0020-AA7B"
  />
<missing-glyph horiz-adv-x="318" 
 />
    <glyph glyph-name=".notdef" horiz-adv-x="318" 
 />
    <glyph glyph-name="space" unicode=" " horiz-adv-x="318" 
 />
    <glyph glyph-name="exclam" unicode="!" horiz-adv-x="330" 
d="M225 289q0 -54 -27 -76l-47 -37l-7 3v500q0 45 -23 45q-10 0 -20.5 -5t-14.5 -5q-7 2 -7 7q0 4 18 12l101 46q18 5 19 5q8 0 8 -22v-473zM235 75q0 -48 -33 -65l-50 -24q-3 -2 -5.5 -2t-5.5 -1q-4 0 -4 4v7q7 19 7 30q0 35 -17 35h-5q-6 0 -6 6t6 8l64 29q12 6 24 6
q25 0 25 -33z" />
    <glyph glyph-name="quotedbl" unicode="&#x22;" horiz-adv-x="390" 
d="M346 762q0 -11 -36 -125q-4 -8 -9.5 -29.5t-14.5 -58.5q-3 -12 -7 -12q-8 0 -8 7v7q2 5 2 22q0 52 -13 103q-11 48 -27 48l-3 -2h-3q-5 3 -5 8q0 11 10 13l78 32l20 8q16 0 16 -21zM168 762q0 -11 -35 -125q-3 -10 -10 -31.5t-15 -56.5q-3 -12 -6 -12q-7 0 -7 7v7
q2 5 2 22q0 54 -14 102q-12 49 -26 49l-3 -2h-3q-7 0 -7 8q0 11 10 13l79 32q24 8 19 8q16 0 16 -21z" />
    <glyph glyph-name="numbersign" unicode="#" horiz-adv-x="652" 
d="M610 495q0 -6 -16 -12l-51 -20q-14 -6 -54 -6h-38l-21 -124h143q8 0 8 -4q0 -7 -14 -12l-53 -19q-24 -8 -52 -8h-40l-35 -206q-4 -27 -11 -41l-28 -45q-5 -9 -10 -9q-8 0 -8 9q0 4 2 5l46 287h-122l-35 -206q-5 -28 -13 -41l-27 -45q-6 -9 -11 -9q-7 0 -7 9q0 4 2 5
l46 287h-151q-9 0 -9 5q0 7 12 11l54 19q24 8 54 8h48l21 124h-153q-8 0 -8 5t13 9l54 21q24 8 52 8h50l31 190q5 27 11 42l26 44q8 8 11 8q10 0 10 -9v-4l-48 -271h124l33 190q5 26 13 42l25 44q8 8 11 8q8 0 8 -9v-4l-46 -271h143q10 0 10 -5zM284 457l-22 -124h124
l20 124h-122z" />
    <glyph glyph-name="dollar" unicode="$" horiz-adv-x="543" 
d="M500 225q0 -73 -59.5 -133t-161.5 -87v-42q0 -19 -4 -30l-15 -35q-1 -6 -4 -6q-7 0 -7 8v100q-19 -2 -31 -2.5t-16 -0.5q-32 0 -60.5 4.5t-51 12t-36 17.5t-13.5 21q0 8 10 15l57 36l9 3q8 0 8 -8q0 -3 -1 -4v-4q-2 -1 -2 -3q0 -17 56 -35q33 -11 71 -11v322
q-209 72 -209 204q0 71 58 126t158 78v42q0 9 0.5 16.5t2.5 13.5l16 35q3 8 6 8q5 0 5 -10v-98q20 1 35.5 2t22.5 1q29 0 56 -4t47.5 -11t33.5 -16.5t13 -19.5q0 -6 -11 -13l-53 -33l-9 -3q-10 0 -10 8q0 3 2 5v3q0 16 -48 30q-30 10 -79 10v-307q25 -11 50.5 -21.5
t52.5 -22.5q111 -48 111 -161zM256 737q-24 -4 -42.5 -7t-30.5 -6q-61 -51 -61 -118q0 -55 29.5 -91t104.5 -72v294zM413 181q0 100 -97 152q-5 2 -37 18v-311q53 3 78 9q56 56 56 132z" />
    <glyph glyph-name="percent" unicode="%" horiz-adv-x="794" 
d="M368 616q0 -110 -81 -165q-55 -37 -109 -37q-30 0 -56.5 13t-45.5 36t-29 53t-10 65q0 108 79 163q54 37 109 37q61 0 102 -47.5t41 -117.5zM662 787q0 -1 -3 -4l-10 -16l-411 -702q-14 -25 -31 -42t-31 -26.5t-23.5 -12.5t-12.5 -3q-5 0 -5 3q3 3 6 10q3 4 7 11.5
t9 16.5l395 675q35 57 62 74q35 21 42 21q6 0 6 -5zM757 194q0 -110 -79 -165q-54 -37 -111 -37q-59 0 -99.5 48.5t-40.5 119.5q0 110 78 162q55 37 109 37q61 0 102 -48t41 -117zM294 587q0 67 -36 113t-90 46q-6 0 -11 -2q-47 -49 -47 -136q0 -67 35.5 -113t87.5 -46h15
q46 56 46 138zM683 165q0 68 -36 113.5t-90 45.5h-9q-50 -54 -50 -138q0 -34 9.5 -62.5t26.5 -50t40 -34t48 -12.5q10 0 15 2q46 50 46 136z" />
    <glyph glyph-name="ampersand" unicode="&#x26;" horiz-adv-x="710" 
d="M710 503q0 -6 -7 -8l-70 -24q-28 -9 -47 -9q-23 0 -47.5 2.5t-51.5 5.5q107 -29 107 -153q0 -85 -65 -169l19 -29q52 -79 85 -79q13 0 24 4q2 0 3 2h3q5 0 5 -6q0 -7 -9 -10l-67 -27q-24 -11 -48 -11q-27 0 -54 43l-28 44q-113 -87 -206 -87q-39 0 -72 15t-57.5 43
t-38 65t-13.5 80q0 103 87 189q19 16 70 65q-67 113 -67 181q0 65 57 108t121 43q43 0 75.5 -29.5t32.5 -68.5q0 -23 -7 -42.5t-23 -42t-42.5 -48.5t-64.5 -60l184 -295q4 -3 6 -7t6 -10l3 -10q39 70 39 135q0 67 -30 113t-73 46h-12q-7 0 -7 5q0 6 7 8l50 25q27 8 42 8h174
q7 0 7 -5zM383 651q0 98 -91 98q-16 0 -22 -1q-29 -40 -29 -81q0 -46 46 -130q7 -10 13 -29l8 6l14 15q61 47 61 122zM443 108q-2 3 -13 21l-171 276q-2 6 -10 16l-5 11q-4 -7 -19 -19q-71 -67 -71 -159q0 -46 12.5 -85t34 -67.5t52 -44.5t64.5 -16q61 0 134 59z" />
    <glyph glyph-name="quotesingle" unicode="'" horiz-adv-x="214" 
d="M168 762q0 -11 -35 -125q-3 -10 -10 -31.5t-15 -56.5q-3 -12 -6 -12q-7 0 -7 7v7q2 5 2 22q0 54 -14 102q-12 49 -26 49l-3 -2h-3q-7 0 -7 8q0 11 10 13l79 32q24 8 19 8q16 0 16 -21z" />
    <glyph glyph-name="parenleft" unicode="(" horiz-adv-x="365" 
d="M360 844q0 -4 -11 -11q-212 -165 -212 -487q0 -148 50 -295q54 -149 130 -221q10 -9 10 -13q0 -6 -13 -11l-35 -14q-11 -6 -22 -6q-28 0 -92 106q-106 170 -106 406q0 234 122 399q49 65 168 152q2 2 5 2q6 0 6 -7z" />
    <glyph glyph-name="parenright" unicode=")" horiz-adv-x="365" 
d="M305 337q0 -234 -122 -397q-26 -35 -67 -71.5t-97 -76.5q-5 -5 -9 -6q-7 0 -7 6q0 2 10 11q212 162 212 487q0 153 -52 297q-49 146 -129 219l-7 13q0 3 12 11l35 16q13 5 21 5q30 0 93 -107q107 -169 107 -407z" />
    <glyph glyph-name="asterisk" unicode="*" horiz-adv-x="516" 
d="M459 656q-15 -23 -54 -40l-81 -35q-3 -2 -8.5 -3.5t-17.5 -4.5q4 -2 9.5 -6t8.5 -5q3 -3 8 -8.5t11 -13.5l95 -100q10 -11 10 -15t-8 -12l-22 -23q-7 -4 -10 -4q-6 0 -16 11l-86 98q-17 21 -30 45l-9 -21l-18 -33l-71 -121l-5 2l-9 49q-2 1 -2 9q0 12 19 40l52 79
q5 8 10 14.5t11 12.5q-6 0 -19 2t-30 5l-154 36l1 7l27 8q19 6 27 6t35 -6l84 -18q5 -1 13 -3.5t13 -4.5q-5 18 -5 48v108q0 14 3 16.5t22 7.5l18 4h8q14 0 14 -12v-10l-1 -108q0 -24 -10 -55q13 9 54 27l124 52l3 -6z" />
    <glyph glyph-name="plus" unicode="+" horiz-adv-x="540" 
d="M298 287v-217h-58v217h-216v59h216v216h58v-216h218v-59h-218z" />
    <glyph glyph-name="comma" unicode="," horiz-adv-x="265" 
d="M190 22q0 -71 -93 -174l-13 4q41 56 41 111q0 51 -63 89l67 67q61 -40 61 -97z" />
    <glyph glyph-name="uni00AD" unicode="-" horiz-adv-x="302" 
d="M224 254h-195l47 60h197z" />
    <glyph glyph-name="period" unicode="." horiz-adv-x="265" 
d="M200 52q-13 -11 -29.5 -29t-38.5 -44q-11 13 -27 31.5t-38 41.5q12 13 28 32t37 45q12 -13 29 -32t39 -45z" />
    <glyph glyph-name="slash" unicode="/" horiz-adv-x="363" 
d="M56 -78l-51 -24l301 864l53 24z" />
    <glyph glyph-name="zero" unicode="0" horiz-adv-x="540" 
d="M511 462q0 -238 -97 -365q-60 -80 -104 -99q-21 -8 -54 -8q-115 0 -175 115q-48 90 -48 227q0 84 21 166q24 100 63 153q50 54 82.5 85.5t48.5 42.5q8 7 39 7q108 0 170 -108q54 -92 54 -216zM441 367q0 128 -46 228q-57 121 -165 121q-30 0 -57 -24q-68 -117 -68 -284
q0 -141 47 -240q61 -122 175 -114q30 3 63 36q51 94 51 277z" />
    <glyph glyph-name="one" unicode="1" horiz-adv-x="540" 
d="M335 75q0 -97 -164 -223l-12 5q89 89 89 181v646l-146 -108v43l233 178v-722z" />
    <glyph glyph-name="two" unicode="2" horiz-adv-x="540" 
d="M429 0h-400q12 24 43 64.5t82 95.5q114 129 154 188q76 109 76 189q0 69 -38 119q-43 54 -114 54q-76 0 -149 -140l-34 6q27 70 97 140q73 73 124 73q78 0 143 -65q63 -64 63 -153q0 -87 -141 -261q-51 -56 -101 -113t-101 -113h270q27 0 46 16l38 32h11z" />
    <glyph glyph-name="three" unicode="3" horiz-adv-x="540" 
d="M484 292q0 -152 -168 -281q-143 -109 -318 -148l-3 13q138 56 253 159q138 127 138 238q0 184 -208 194l181 235h-229q-28 0 -57 -24l-33 -34h-11l81 134h355l-216 -280q51 0 94 -15.5t74.5 -42.5t49 -64.5t17.5 -83.5z" />
    <glyph glyph-name="four" unicode="4" horiz-adv-x="540" 
d="M471 170h-50v-95q0 -97 -164 -223l-13 5q89 89 89 181v132h-346l434 627v-551h44q32 0 81 40h8zM333 605l-246 -359h246v359z" />
    <glyph glyph-name="five" unicode="5" horiz-adv-x="540" 
d="M481 292q0 -149 -171 -281q-145 -109 -323 -148l-3 13q140 56 257 159q142 124 142 238q0 211 -258 211h-25.5t-28.5 -1v219l69 76h243q27 0 46 16t38 31h11l-70 -123h-262v-183q16 2 31 2.5t31 0.5q133 0 203 -62t70 -168z" />
    <glyph glyph-name="six" unicode="6" horiz-adv-x="540" 
d="M503 279q0 -74 -82 -177q-89 -113 -165 -113q-80 0 -146 79q-73 88 -73 208q0 116 111 286q41 67 89.5 126.5t103.5 114.5l13 -9q-59 -69 -124 -186q-30 -56 -49 -100.5t-30 -80.5q95 100 168 100q79 0 133 -81q51 -78 51 -167zM286 456q-69 0 -142 -73q-15 -31 -15 -75
q0 -84 50 -168q50 -83 108 -83q64 0 99 68q31 59 31 123q0 68 -33 131q-38 77 -98 77z" />
    <glyph glyph-name="seven" unicode="7" horiz-adv-x="540" 
d="M500 778q-243 -472 -224 -699l-100 -98q8 67 30.5 153.5t58.5 197.5q81 231 165 370h-286q-50 0 -92 -67h-11l69 143h390z" />
    <glyph glyph-name="eight" unicode="8" horiz-adv-x="540" 
d="M495 238q0 -68 -92 -160q-86 -88 -127 -88q-89 0 -159 62q-74 65 -74 154q0 129 155 184q-133 58 -133 166q0 76 78 154q79 79 146 79t125 -57q59 -57 59 -122q0 -116 -154 -175q176 -59 176 -197zM387 581q0 51 -47 95q-46 46 -94 46q-44 0 -81 -41q-33 -35 -33 -65
q0 -60 45 -105.5t112 -64.5q98 51 98 135zM414 192q0 73 -65 124q-17 13 -46.5 28t-72.5 32q-16 -8 -31.5 -22t-31.5 -37q-37 -50 -37 -96q0 -61 56 -108q55 -46 120 -46q19 0 38 10t35 27.5t25.5 40.5t9.5 47z" />
    <glyph glyph-name="nine" unicode="9" horiz-adv-x="540" 
d="M502 502q0 -116 -110 -286q-87 -135 -195 -241l-13 9q60 70 124 186q30 55 49 99.5t30 81.5q-95 -100 -168 -100q-78 0 -133 86q-51 79 -51 169q0 72 86 177q85 106 162 106q79 0 146 -79q73 -88 73 -208zM394 395q16 30 16 75q0 84 -51 168q-49 83 -108 83
q-61 0 -99 -64q-31 -55 -31 -119q0 -68 33 -135q41 -81 98 -81q69 0 142 73z" />
    <glyph glyph-name="colon" unicode=":" horiz-adv-x="265" 
d="M200 435q-13 -11 -29.5 -29.5t-38.5 -43.5q-11 13 -27 31t-38 42q12 13 28 32t37 44q12 -13 29 -32t39 -44zM200 52q-13 -11 -29.5 -29t-38.5 -44q-11 13 -27 31.5t-38 41.5q12 13 28 32t37 45q12 -13 29 -32t39 -45z" />
    <glyph glyph-name="uni037E" unicode=";" horiz-adv-x="265" 
d="M197 435q-13 -11 -29.5 -29.5t-38.5 -43.5q-12 13 -27.5 31t-38.5 42q13 13 29 32t37 44q12 -13 29 -32t39 -44zM190 22q0 -71 -93 -174l-13 4q41 56 41 111q0 51 -63 89l67 67q61 -40 61 -97z" />
    <glyph glyph-name="less" unicode="&#x3c;" horiz-adv-x="540" 
d="M46 287v59l454 214v-65l-376 -176l376 -179v-65z" />
    <glyph glyph-name="equal" unicode="=" horiz-adv-x="540" 
d="M24 375v58h492v-58h-492zM24 200v59h492v-59h-492z" />
    <glyph glyph-name="greater" unicode="&#x3e;" horiz-adv-x="540" 
d="M46 75v65l381 177l-381 178v65l454 -214v-59z" />
    <glyph glyph-name="question" unicode="?" horiz-adv-x="400" 
d="M363 586q0 -84 -82 -183q-83 -97 -83 -155q0 -23 5 -42l-82 -35q-2 5 -2 23q0 52 78 158q78 107 78 177q0 66 -37.5 110t-96.5 44q-63 0 -112 -42l-2 3l73 85q43 20 94 20q71 0 120 -43.5t49 -119.5zM243 43q-22 -21 -39 -36t-28 -28q-11 13 -27 28t-38 36q24 22 65 65
q7 -8 23.5 -24t43.5 -41z" />
    <glyph glyph-name="at" unicode="@" horiz-adv-x="921" 
d="M873 537q0 -175 -229 -307q-73 -43 -100 -43q-23 0 -23 26q0 28 11 79q-11 -13 -21.5 -24.5t-21.5 -19.5q-75 -61 -135 -61q-95 0 -95 119q0 131 92 218q84 79 173 79q20 0 49 -8l5 24h68l-44 -319q-2 -5 -2 -16q0 -17 16 -17q36 0 90 44q99 79 99 197q0 124 -75.5 189
t-204.5 65q-162 0 -269 -95q-119 -107 -119 -304q0 -133 49 -230q60 -117 204 -117q113 0 261 55l6 -25q-159 -65 -294 -65q-147 0 -220 89.5t-73 242.5q0 231 151 368q120 111 327 111q74 0 133.5 -18t102.5 -51.5t66 -81t23 -104.5zM567 548q-37 20 -119 20
q-116 -76 -116 -236q0 -100 70 -100q57 0 131 79z" />
    <glyph glyph-name="A" unicode="A" horiz-adv-x="1133" 
d="M1130 117q-9 -15 -22.5 -32.5t-31.5 -35.5q-49 -49 -82 -51q-51 -3 -66 36t-11 147l8 182l-192 -11q-47 -90 -152 -195q-222 -222 -397 -203q-186 21 -186 173q0 57 26 113q22 50 38 50q1 0 5 -7q1 -7 -15 -46q-15 -39 -15 -67q0 -81 123 -114q51 -13 92 -13
q148 0 278 130q22 22 63.5 74.5t104.5 138.5q62 85 119 192q61 112 81 182q-417 8 -520 -66q-37 -27 -37 -80q0 -73 75 -200q11 -16 11 -24l-2 -1q-19 0 -88 95q-75 106 -75 164q0 106 176 136q73 13 257 13q313 0 326 -18q3 -3 3 -54q0 -130 -19 -509q-2 -83 0 -108
q5 -40 24 -40q22 0 82 61q14 14 21 14q5 0 5 -6q0 -8 -7 -20zM946 708q-21 -41 -43 -82.5t-47 -82.5q-18 -27 -42 -65t-55 -84l170 -10z" />
    <glyph glyph-name="B" unicode="B" horiz-adv-x="914" 
d="M867 257q12 -28 12 -54q0 -79 -104 -146q-88 -57 -151 -57h-265q-86 0 -83 2q35 8 102 33q19 6 36 43q23 51 19 128q-3 59 -4.5 117t-3.5 117q-6 125 -27 150q-4 8 35 34q42 28 59 28q10 0 11 -6q19 -59 19 -214q0 -224 -24 -299q-11 -35 -31 -55q-5 -3 -17.5 -12
t-33.5 -23h197q190 0 190 108q0 36 -19 81q-27 66 -86 111q-12 11 -26.5 20.5t-27.5 20.5l32 27q21 16 35 30.5t26 26.5q33 42 33 86q0 27 -11 51q-75 168 -367 174q-146 4 -241 -39q-126 -54 -124 -169q0 -61 75 -169q-16 12 -30.5 24t-30.5 25q-70 70 -81 117q-6 21 -6 46
q0 94 111 143q79 37 203 43q92 6 102 5q22 -2 44.5 -2.5t44.5 -2.5q57 -6 107 -15t93 -22q120 -36 155 -90q27 -41 27 -84q0 -48 -30 -92q-11 -16 -26 -31t-33 -31q-8 -6 -13.5 -11t-8.5 -8q-5 -5 -8 -6q13 -7 24 -13.5t24 -13.5q54 -39 97 -126z" />
    <glyph glyph-name="C" unicode="C" horiz-adv-x="660" 
d="M600 160q13 -35 -75 -104q-93 -78 -187 -78q-133 0 -228 71q-127 99 -127 300q0 40 4 80q18 150 103 254q81 93 199 122q27 6 71 6q123 0 196 -44q23 -15 23 -65q0 -46 -19 -113q-1 -11 -9 -11q-10 0 -10 16q0 71 -22 89q-56 42 -92 55q-52 21 -149 21q-195 0 -195 -311
q0 -161 54 -269q71 -141 214 -141q78 0 133 35q37 21 72 65q28 35 34 35q5 0 10 -13z" />
    <glyph glyph-name="D" unicode="D" horiz-adv-x="1000" 
d="M943 435q5 -38 5 -73q0 -167 -91 -262q-92 -100 -268 -100h-302q-16 0 2 6q13 5 27 10t28 9q23 8 38.5 16t27.5 16q17 13 26.5 31t14.5 41t6.5 48t2.5 48q5 50 6.5 104t0.5 114q-2 111 -13 149q-2 11 29 40q31 28 49 28q12 0 17 -12q16 -48 16 -146q0 -37 -4.5 -103
t-12.5 -162q-7 -81 -31 -120q-7 -11 -15 -21t-16 -21l204 -13q185 -13 185 217q0 23 -2 47.5t-5 51.5q-25 227 -105 305q-84 80 -315 100q-21 1 -40 2t-38 1q-341 0 -333 -218q1 -66 60 -136l86 -100q1 -2 1 -5q0 -17 -97 84q-97 102 -116 175q-8 35 -8 57q0 168 332 168
q-9 0 22.5 -0.5t106.5 -2.5q300 -6 409 -100q88 -73 110 -273z" />
    <glyph glyph-name="E" unicode="E" horiz-adv-x="554" 
d="M525 211q0 -49 -65 -127q-77 -92 -181 -97q-109 -4 -187 83q-105 119 -106 359q-3 163 36 246q24 50 51 60q43 21 73 32q62 25 98 30q110 14 102 14q40 0 92 -22q22 -10 22 -70q0 -32 -8 -71q-6 -35 -9 -27q-2 11 -3.5 21t-4.5 21q-8 32 -33 51q-46 32 -135 32
q-62 0 -108 -14q-42 -11 -64 -145q-20 -130 -9 -130h327q4 0 12 5t16 10.5t15 10t11 4.5q8 0 9 -14q3 -22 -14.5 -44.5t-44.5 -22.5h-331q6 -106 28 -182q53 -181 180 -176q81 1 138 49q33 28 60 86q21 44 25 44q8 0 8 -16z" />
    <glyph glyph-name="F" unicode="F" horiz-adv-x="898" 
d="M886 837q-16 -74 -48 -93q-33 -17 -143 -15l-3 -275h106q13 0 34 14q20 16 22 16t2 -3q0 -8 -35 -43t-46 -35h-86l-2 -243q-3 -155 -143 -274q-136 -113 -293 -113q-103 0 -175 57q-44 35 -44 92q0 51 33 107q32 47 45 47q1 0 1 -3q0 -5 -5 -14q-30 -59 -30 -91
q0 -62 103 -98q78 -27 151 -27q110 0 180 51q82 58 84 174l3 335h-130q-19 0 -42 -20q-22 -20 -22 -15q-1 7 32 46q35 40 49 40h122v190q0 -3 3.5 13t27.5 41q28 29 39 31h-213q-239 0 -280 -46q-15 -16 -15 -37q0 -29 26 -70q16 -27 24.5 -43t10.5 -22q-7 3 -11.5 4.5
t-11.5 3.5q-30 33 -57 81q-33 60 -33 98q0 59 57 89q46 27 108 24q19 -1 46 -3q43 -2 135 -10q100 -6 172 -9t117 -3q22 0 37 0.5t23 2.5q33 6 60 48q15 22 15 0z" />
    <glyph glyph-name="G" unicode="G" horiz-adv-x="690" 
d="M611 73q3 -108 -119 -235q-129 -136 -271 -136q-64 0 -123 31q-44 24 -44 89q0 84 63 205q62 116 75 98q5 -4 -38 -85q-48 -94 -48 -146q0 -67 67 -92q68 -27 125 -27q48 0 87.5 16.5t68.5 46.5t44.5 70.5t15.5 88.5l3 381q-6 -13 -46 -57q-47 -50 -85 -77
q-88 -58 -148 -58q-40 0 -71 27q-50 44 -50 228q0 146 31 197q98 167 323 167q27 0 54 -2.5t58 -5.5q20 -2 20 -49q0 -35 -11 -65.5t-25 -28.5q-4 0 -4 5q0 1 3.5 14t3.5 21q0 43 -76 52q-24 3 -45.5 4.5t-40.5 1.5q-124 0 -176 -60q-34 -38 -34 -200q0 -202 53 -240
q17 -12 39 -12q59 0 145 87q22 22 42.5 46t41.5 46q46 27 87 27z" />
    <glyph glyph-name="H" unicode="H" horiz-adv-x="1206" 
d="M1200 138q0 -36 -54 -90q-60 -58 -132 -65q-66 -5 -82 38q-10 33 -8 149l5 246l-216 -21l-50 -195q-3 -13 -11.5 -32t-24.5 -46q-46 -79 -98 -108q-86 -47 -213 -47q-99 0 -164 41q-6 2 -6 11q0 10 6.5 21t16 20.5t20.5 16.5t21 7q7 0 9 -5q70 -76 159 -76q30 0 63 13
q80 35 107 128q8 18 14 36t13 36q14 46 26 91t20 91q17 105 27.5 195t13.5 170q-11 7 -91 7q-244 0 -311 -27q-92 -38 -92 -124q0 -52 35 -121l38 -76q2 -5 2 -11q0 -16 -35 29q-33 43 -68 109q-38 75 -46 130q-11 81 79 115q65 23 186 20q168 -3 263 -8.5t118 -11.5
q4 -86 0 -169q-3 -44 -6.5 -88.5t-6.5 -90.5h203l3 306q16 11 32 24t33 27q8 13 10 -289q2 -76 2 -134v-96v-78q3 -106 6 -123q8 -34 35 -34q11 0 32 5q52 13 77 56q26 44 29 44q11 0 11 -16z" />
    <glyph glyph-name="I" unicode="I" horiz-adv-x="819" 
d="M724 775q0 -7 -14 -69q-13 -63 -13 -111q0 -38 5 -112q3 -37 4.5 -65t1.5 -45q0 -200 -84 -275q-76 -63 -195 -104q-112 -38 -216 -38q-121 0 -162 52q-22 30 -22 68q0 59 41 129q36 60 51 60q1 0 1 -2q0 -6 -6 -17q-8 -16 -17 -32t-16 -33q-20 -40 -16 -62q4 -36 95 -60
q89 -22 190 -22q148 0 197 42q70 61 70 289q0 38 -2.5 81t-5.5 92q-3 42 -4.5 62.5t-1.5 21.5q0 59 28 88q11 14 35 33h-182q-224 0 -253 -51q-9 -19 -9 -41q0 -24 13 -65q6 -16 11.5 -30.5t11.5 -29.5q-6 3 -11 4.5t-11 4.5q-30 33 -57 81q-32 60 -32 97q0 55 57 81
q43 19 104 16q9 4 195 -10q101 -8 154.5 -12t56.5 -4q8 0 8 -12z" />
    <glyph glyph-name="J" unicode="J" horiz-adv-x="781" 
d="M717 460q-15 -9 -38 -23v-21t2 -32q2 -36 2.5 -68t0.5 -60q0 -185 -27 -285q-32 -112 -160 -196q-130 -86 -249 -86q-150 0 -200 95q-16 27 -16 65q0 99 122 245q135 163 433 330q-1 8 -2 35t-1 74q0 111 14 137q5 9 14 19.5t17 20t14 16t6 7.5q0 7 -25 7q-37 0 -98 1.5
t-147 4.5q-42 2 -100 -13q-66 -17 -79 -46q-6 -12 -6 -31q0 -40 31 -112q5 -11 5 -19q0 -4 -3 -4q-5 0 -17 14q-24 32 -38.5 53.5t-20.5 32.5q-35 62 -29 114q10 81 153 81q33 0 77 -5q7 2 121 -9q75 -8 127 -13t84 -8q8 0 8 -16q0 8 -4.5 -21.5t-12.5 -97.5
q-4 -25 -3 -69.5t4 -109.5q0 -2 29 17q8 6 17 3q7 -1 7 -11q0 -9 -12 -16zM592 165q5 200 -3 227q-40 -21 -76.5 -41.5t-69.5 -42.5q-157 -106 -224.5 -211t-67.5 -195q0 -72 40.5 -113t111.5 -41q59 0 132 31q70 31 116 148q39 105 41 238z" />
    <glyph glyph-name="K" unicode="K" horiz-adv-x="1079" 
d="M1078 116q8 -11 -37 -67q-51 -65 -98 -66q-40 -4 -75 41q-6 6 -20.5 28.5t-39.5 61.5l-211 330l-16 -241q-10 -138 -94 -195q-73 -49 -212 -49q-105 0 -172 43q-6 1 -6 11q0 17 22 39q24 24 40 24q6 0 9 -3q70 -76 175 -76q35 0 68 13q65 28 75 155l46 586q-18 12 -135 9
q-124 0 -203 -14q-153 -29 -153 -133q0 -51 37 -119l22 -36l22 -36q11 -16 11 -22q0 -2 -1 -2q-19 0 -86 100q-75 113 -71 181q1 102 157 135q9 2 24 2.5t38 0.5q25 0 72.5 -1.5t119.5 -4.5q79 -5 137 -7t94 -4q10 0 10 -49q0 -43 -6.5 -113.5t-18.5 -170.5l115 57
q70 36 115 109q46 75 43 142q0 1 39 12q38 11 43 16q-3 -11 -4.5 -20.5t-4.5 -20.5q-23 -62 -50 -111q-41 -73 -82 -103q-30 -21 -76 -43q-16 -8 -32 -15t-33 -15l208 -335q50 -103 92 -103q39 0 66 41q27 43 29 43q6 0 8 -5z" />
    <glyph glyph-name="L" unicode="L" horiz-adv-x="889" 
d="M871 170q7 -35 -38 -102q-44 -65 -81 -78q-49 -14 -100 -14q-42 0 -173 27q-63 13 -122 20t-113 6q-25 -12 -82 -58q-29 -28 -67 -28q-58 0 -58 44q0 8 4 21q18 41 88 65q57 21 122 16q17 13 30 25q35 35 52 88q27 74 15 220q-13 162 1 224q13 52 124 105q113 52 210 52
q119 0 119 -87q0 -18 -5 -37q-24 -100 -60 -100q-13 0 -13 15q0 6 17 36q19 29 19 51q0 30 -35 46q-66 29 -144 29q-148 0 -151 -100l5 -253q-3 -211 -37 -244q-19 -22 -38 -35q-30 -22 -63 -38q130 9 255 -8q37 -7 76 -9t80 -2q60 0 100 31q27 23 41 58q14 34 16 34z" />
    <glyph glyph-name="M" unicode="M" horiz-adv-x="1429" 
d="M1417 178q-14 -57 -60 -121q-51 -70 -95 -70q-27 0 -46 26q-29 35 -33 131l-29 513l-260 -662q-2 -5 -23 76q-6 23 -10.5 45t-11.5 44l-97 519l-241 -562q-35 -80 -107 -123t-160 -43q-11 0 -22 0.5t-22 2.5q-179 24 -179 165q0 64 36 133q30 64 49 64q5 0 5 -6
q0 -4 -28 -59q-27 -57 -27 -92q0 -78 106 -103q67 -18 119 -18q157 0 221 148l238 557q3 13 -2 28.5t-17 17.5q-16 1 -33.5 2t-38.5 1q-171 0 -309 -36q-115 -31 -115 -91q0 -30 29 -78q5 -9 6 -11l-1 -1q-8 0 -48 58q-41 65 -41 100q0 45 60 57q22 4 46 7t46 6
q49 11 395 11q61 0 81 -20q31 -29 31 -102l93 -503l222 538q-4 13 19 46q23 35 53 32q9 -2 11 -56q2 -16 2 -31v-31q0 -30 3 -102t9 -191q16 -291 35 -302q19 -8 34 -8q57 0 82 106q5 18 14 18q18 0 11 -30z" />
    <glyph glyph-name="N" unicode="N" horiz-adv-x="1092" 
d="M1076 749q-60 -12 -63 -108l-19 -606l-31 -45l-315 578l-53 -378q-20 -149 -90 -185q-83 -42 -188 -42q-92 0 -161 43q-7 5 -7 13q0 10 6.5 20t16 19t20 15t18.5 6q6 0 11 -4q73 -73 157 -73q63 0 109 50q43 50 50 113l61 491q-52 57 -58 63q-48 41 -110 48q-38 4 -73 4
q-160 0 -267 -92q-50 -42 -50 -104q0 -51 38 -121q12 -19 23.5 -38t22.5 -38q3 -10 3 -11q0 -16 -43 36q-44 54 -74 113q-42 74 -34 119q10 76 87 111q47 24 164 46q68 13 148 13q144 0 220 -43q59 -30 138 -179l221 -407l13 472q1 104 85 127q45 11 72 11q19 0 19 -7
q0 -16 -67 -30z" />
    <glyph glyph-name="O" unicode="O" horiz-adv-x="743" 
d="M702 392q-12 -406 -364 -405q-141 3 -243 113q-112 124 -111 305q2 174 86 281q93 117 270 117q174 0 276 -130q90 -116 86 -281zM606 392q8 175 -74 283q-73 101 -188 101q-252 0 -258 -373q-3 -165 60 -270q70 -120 200 -123q246 -5 260 382z" />
    <glyph glyph-name="P" unicode="P" horiz-adv-x="975" 
d="M848 679q63 -68 63 -169q0 -118 -92 -158q-76 -31 -157 -31q-56 0 -83 9q4 -13 3 -43.5t-4 -81.5q-7 -99 -21 -118q-32 -46 -94 -77q-96 -50 -171 -50q-87 0 -162 54q-5 3 -5 11t6 17.5t14.5 18.5t18 15.5t15.5 6.5q5 0 8 -4q64 -73 167 -73q36 0 65 11q56 23 67 77
q11 41 12 206q2 30 1 66t-2 77q-2 46 -2 74.5v36.5q0 92 22 119q39 46 64 60q0 10 -5 -41q-3 -22 -3 -45t2 -45q4 -83 4 -237q34 -16 83 -16q179 0 179 149q0 27 -6 48q-29 116 -143 179q-94 51 -192 51q-197 0 -292 -30q-151 -48 -146 -178q3 -66 52 -124q21 -22 40 -42.5
t40 -42.5q1 -2 1 -5q0 -8 -47 27q-54 43 -94 90q-57 66 -68 115q-5 19 -5 38q0 178 495 178q259 0 372 -123z" />
    <glyph glyph-name="Q" unicode="Q" horiz-adv-x="762" 
d="M790 -130q-14 -46 -57 -80q-38 -34 -81 -31q-119 6 -193 241q-32 -6 -56.5 -9.5t-43.5 -3.5q-157 3 -262 108q-114 118 -113 310q2 174 86 281q93 117 270 117q176 0 273 -124q89 -111 87 -274q-2 -297 -162 -376q64 -212 164 -210q15 0 36.5 17.5t28.5 33.5q9 22 19 22
q6 0 6 -9q0 -8 -2 -13zM610 408q1 151 -78 260q-80 108 -188 108q-242 0 -258 -373q-8 -174 66 -282q78 -110 204 -111q58 -2 84 19q-51 181 -99 169q-8 -1 -14 -2t-13 -1q-16 0 -16 5q0 19 91 30q68 8 122 -149q33 33 56 82q41 96 43 245z" />
    <glyph glyph-name="R" unicode="R" horiz-adv-x="1000" 
d="M981 -2q-81 0 -102 12q-46 22 -168 184q-111 149 -114 169q70 -4 125 21q84 37 84 121q0 8 -0.5 16.5t-2.5 16.5q-20 129 -119 191q-84 54 -208 49q-109 -3 -185.5 -12.5t-120.5 -22.5q-149 -45 -145 -162q2 -78 54 -140q19 -20 38.5 -41t38.5 -41q1 -2 1 -5
q0 -71 -106 92q-107 164 -107 184q0 176 394 176q27 0 55.5 -0.5t60.5 -2.5q83 -3 137.5 -8.5t83.5 -13.5q109 -29 160 -118q41 -73 41 -128q0 -38 -16 -79.5t-66 -72.5t-110 -31q32 -39 62 -79t62 -79q114 -146 149 -159q48 -16 48 -30q0 -7 -24 -7zM541 729
q0 8 -0.5 -11.5t-2.5 -65.5q-1 -76 0 -111q5 -63 5 -130q0 -228 -37 -305q-39 -81 -73 -96q-98 -50 -176 -50q-89 0 -163 54q-5 3 -5 10q0 8 6.5 18t14 19t18 15.5t16.5 6.5q5 0 8 -4q64 -73 167 -73q37 0 65 11q45 16 59 89q3 13 7 60.5t10 130.5v192q-1 159 7 167
l35.5 35.5t38.5 37.5z" />
    <glyph glyph-name="S" unicode="S" horiz-adv-x="660" 
d="M640 189q-3 -102 -103 -157q-91 -51 -213 -48q-127 5 -211 53q-94 55 -103 150q-5 45 19 97q19 46 44 67q16 16 25 16q4 0 4 -4q0 -11 -16 -28q-30 -35 -30 -78q0 -84 103 -154q101 -68 239 -68q86 0 145 38q28 17 28 60q0 59 -52 132q-52 75 -129 114q-227 118 -227 237
q0 174 185 189q57 5 95 5q120 0 120 -59q0 -11 -4 -40q-3 -17 -4 -29t-3 -20q-1 -40 -11 -40q-9 0 -9 46q0 30 -40 59q-46 32 -105 32q-127 0 -150 -35q-18 -27 -18 -57q0 -81 114 -146q151 -83 215 -142q93 -89 92 -190z" />
    <glyph glyph-name="T" unicode="T" horiz-adv-x="711" 
d="M708 837q-14 -61 -41 -78q-16 -10 -84 -16q-66 -6 -78 -2q0 10 -4 -17t-12 -92q-8 -64 -12 -122t-4 -108q0 -34 1.5 -63t4.5 -56q15 -110 19 -127q19 -72 64 -72q11 0 16 2q44 9 78 62q28 46 36 42q5 -1 5 -6q0 -13 -68 -97q-78 -97 -134 -97q-74 0 -106 181
q-11 61 -11 129q0 90 24 206q9 46 18.5 91.5t20.5 91.5q2 16 21 35q6 3 11.5 8t12.5 9h-307q-114 0 -150 -55q-8 -13 -8 -32q0 -38 46 -116q47 -76 47 -84q0 -5 -3 -5q-19 0 -90 113q-70 116 -64 157q14 94 148 91q138 -7 244.5 -9.5t183.5 -2.5q94 0 119 5q23 3 42 34
q14 22 14 0z" />
    <glyph glyph-name="U" unicode="U" horiz-adv-x="1148" 
d="M1140 181q0 -38 -70 -111q-78 -81 -149 -87q-59 -5 -73 74q-4 16 -4.5 36t0.5 45q4 -6 -73 -70q-88 -74 -155 -76q-195 -8 -195 245v29.5t1 38.5q24 405 51 454q-11 6 -63 6q-178 0 -250 -25q-158 -53 -158 -154q0 -65 90 -173q18 -18 2 -18q-5 0 -13 8
q-140 149 -125 251q14 98 157 135q57 14 195 14q208 0 249 -20q-6 -85 -14 -199t-21 -263q-5 -45 -5 -88q0 -208 100 -201q121 6 220 187l28 535q16 9 33.5 19.5t36.5 23.5q9 8 9 -99q0 -103 -9 -312q-2 -46 -3.5 -82l-2.5 -60q-2 -28 -2 -46q-2 -138 41 -138q3 0 9 1t13 2
q51 13 91 72q43 60 48 60q11 0 11 -14z" />
    <glyph glyph-name="V" unicode="V" horiz-adv-x="889" 
d="M835 390q-14 -3 -35 21q-21 26 -25 26q-2 0 -2 -2q-13 -76 -52 -232q-18 -51 -37 -86.5t-36 -57.5q-59 -69 -158 -69q-100 0 -152 113q-36 81 -43 202q-3 57 5 127t25 155q32 148 53 173q-19 5 -203 -1q-146 -5 -146 -110q0 -57 42 -143q13 -20 24 -41t22 -43
q4 -12 -1 -12q-14 0 -67 95q-52 97 -78 174q-8 27 -8 43q0 88 166 92q260 8 325 -25q-60 -99 -60 -354q0 -27 0.5 -55.5t2.5 -58.5q13 -267 133 -265q116 3 180 266q14 61 19 124q3 56 -2 64q-24 53 -38 139q-13 80 -6 97q3 16 30 41q30 27 49 27q13 0 19 -14t5 -159
q-2 -36 -2 -63t-1 -45q-2 -20 -2 -36q3 -5 12 -19.5t24 -39.5q23 -32 23 -41q0 -3 -5 -7z" />
    <glyph glyph-name="W" unicode="W" horiz-adv-x="1351" 
d="M1237 449q0 -51 -20 -139q-7 -45 -17.5 -79t-21.5 -56q-16 -35 -40.5 -83t-58.5 -108l-185 392l-178 -392q-2 22 -17 69t-42 120q-30 81 -59.5 151.5t-60.5 132.5q-91 180 -167 254q-73 73 -170 73q-43 0 -87 -11q-108 -27 -108 -168q0 -34 7 -68.5t19 -65.5t28.5 -56
t35.5 -39q32 -24 32 -32q0 -1 -2 -1q-6 0 -41 22q-22 16 -44.5 40t-42.5 58q-49 80 -49 156q0 43 17 83q51 104 240 104q93 0 176 -31q89 -37 130 -99q95 -146 241 -520l121 260l-59 146q-27 68 -27 119q0 60 35 92t89 32q48 0 73 -26q32 -31 27 -82q-8 -68 -38 -156
q-25 -78 -32 -78q-4 -4 157 -357q65 86 91 253q24 138 13 160q-12 25 -22 54.5t-20 64.5q-17 75 -17 102q0 9 3 12q25 21 53 42.5t49 15.5q12 -5 12 -99q0 -54 -4 -143q0 -19 -1 -33t-1 -24q0 -11 -2 -19q35 -59 35 -90q0 -7 -3 -7q-14 0 -33 30zM905 787q-26 0 -40 -30
q-13 -25 -13 -51q0 -52 32 -130q29 -66 35 -66q5 0 27 60q22 71 22 117q0 34 -16 64q-22 36 -47 36z" />
    <glyph glyph-name="X" unicode="X" horiz-adv-x="1194" 
d="M1129 -2q-59 -1 -67 2q-38 0 -60 22q-27 30 -45 54l-182 278l-172 -311h80q9 0 52 16q13 4 30 27q18 22 21 22q4 0 4 -10q0 -9 -6 -21t-15.5 -24t-22.5 -22t-24 -15q-33 -16 -44 -16h-97q0 -27 -75 -110q-98 -107 -228 -134q-26 -5 -51 -5q-40 0 -74 13.5t-58.5 35.5
t-38 51.5t-13.5 61.5q0 8 0.5 16t2.5 15q27 108 171 99q85 3 310 0l224 351l-195 276q-10 13 -22.5 30t-30.5 40q-35 38 -113 38q-11 0 -30.5 -2.5t-29.5 -2.5q-13 0 -13 5q0 11 73 22q34 6 58.5 8.5t41.5 2.5q80 0 134 -81l174 -259l132 239q26 41 26 60q0 3 0.5 4.5t-4 4
t-16 5t-34.5 3.5q-45 3 -48 10q0 13 146 9q17 4 17 -14q0 -13 -15 -43l-24 -44l-149 -273l212 -326q13 -20 28 -36t33 -29q14 -11 61 -19q43 -6 43 -12q0 -4 -8 -8q-9 -4 -69 -4zM190 0q-55 0 -86 -27t-31 -63q0 -42 37 -70q42 -34 114 -34q138 -1 276 194h-310z" />
    <glyph glyph-name="Y" unicode="Y" horiz-adv-x="787" 
d="M778 92q12 -162 -95 -265q-94 -89 -218 -89q-86 0 -133 49q-37 40 -37 96q0 52 26 101l119 235l-250 452q-50 94 -142 94q-38 0 -66 -10.5t-31 -10.5q-16 0 -16 7q0 19 113 41q50 11 90 11q54 0 84 -30q8 -6 62 -81q27 -36 79.5 -140t133.5 -276l43 113q16 40 31 79.5
t31 79.5q50 142 41 174q-11 41 -62 53q-13 3 -36.5 5.5t-57.5 0.5q-31 0 -31 8q0 9 34 14q27 3 49.5 5t41.5 2q133 0 133 -54q0 -12 -12 -50q-8 -22 -15.5 -41t-10.5 -33q-16 -59 -54 -166t-100 -266q-63 -162 -94 -243t-33 -84q-1 -5 -1 -13q0 -17 10 -33.5t27 -29.5
t39 -21.5t46 -8.5q122 0 179 187q29 95 29 173q0 65 -19 114q-7 16 -15.5 30.5t-19.5 30.5q-16 19 -13 22q21 11 68 -76q48 -89 53 -156z" />
    <glyph glyph-name="Z" unicode="Z" horiz-adv-x="863" 
d="M854 100q-21 -46 -59 -84q-36 -40 -65 -45q-28 -6 -133 18q-60 14 -100 22t-62 10q-83 6 -216 -5q-121 -100 -160 -97q-10 2 -10 14q0 38 41 102q43 62 208 70q61 39 121 133q13 21 32.5 56.5t46.5 86.5q-79 3 -108 0q-20 -2 -39 -24q-18 -20 -24 -17q-2 1 -2 4
q0 16 26 46q27 32 39 32h56t78 -1q13 27 31 66.5t43 91.5q26 54 56 158l-333 7q-64 2 -65 -42q-2 -39 -7 -39q-12 0 -12 78q0 73 26 81q37 8 59 8q27 0 103.5 -5.5t199.5 -16.5q12 -2 25 -1t31 3q21 1 29.5 2t6.5 1q-15 -73 -76 -234q-14 -28 -34 -67t-45 -90
q30 0 52.5 -0.5t37.5 -2.5q2 0 31 19q30 21 36 16t-30 -41q-35 -34 -49 -34q-13 2 -37.5 2h-59.5l-78 -148q-35 -66 -111 -128q116 5 200 -11q51 -8 88 -15.5t63 -11.5q28 -7 51 -10q7 3 13 6.5t12 6.5q29 17 40.5 39.5t26.5 28.5q14 8 14 -9q0 -8 -8 -29z" />
    <glyph glyph-name="bracketleft" unicode="[" horiz-adv-x="290" 
d="M219 -162h-143v1033h165l-22 -31h-75v-969h97z" />
    <glyph glyph-name="backslash" unicode="\" horiz-adv-x="363" 
d="M310 -78l-304 864l53 -24l301 -864z" />
    <glyph glyph-name="bracketright" unicode="]" horiz-adv-x="290" 
d="M49 -162l22 32h75v968h-97l22 33h143v-1033h-165z" />
    <glyph glyph-name="asciicircum" unicode="^" horiz-adv-x="579" 
d="M433 483l-162 246l-160 -246h-51l221 344h8l228 -344h-84z" />
    <glyph glyph-name="underscore" unicode="_" horiz-adv-x="556" 
d="M540 -154h-572l48 59h571z" />
    <glyph glyph-name="grave" unicode="`" horiz-adv-x="527" 
d="M341 649q0 -8 -9 -8q-22 0 -97 67q-75 70 -75 89q0 8 11 9l72 24q3 2 4.5 2t4.5 1q8 0 8 -8v-4q-6 -13 -6 -35q0 -57 79 -127q8 -8 8 -10z" />
    <glyph glyph-name="a" unicode="a" horiz-adv-x="486" 
d="M500 146q-22 -22 -43.5 -45t-43.5 -45q-73 -69 -119 -69q-26 0 -26 80q0 74 5 85q-75 -149 -138 -165q-16 -3 -25 -3q-51 0 -80 62q-27 57 -27 143q0 106 38 189q42 93 110 109q28 7 52 11t43 5q97 7 113 -1q-2 -89 -3.5 -178t-3.5 -181q0 -18 2 -37t16 -20q27 -3 57 25
q13 14 25.5 28.5t25.5 27.5q6 6 14 6q14 0 14 -14q0 -7 -6 -13zM281 470q-43 16 -97 11q-40 -2 -68 -102q-27 -93 -27 -187q0 -132 49 -132q11 0 24 8q76 46 106 142q3 0 10 128q6 129 3 132z" />
    <glyph glyph-name="b" unicode="b" horiz-adv-x="405" 
d="M313 470q25 -32 25 -124q0 -138 -40 -206q-92 -159 -193 -159q-18 0 -38 8q-89 36 -91 222q11 694 3 702q-6 3 -11 3q-24 0 -84 -45q-13 -9 -22 -9q-13 0 -13 13q0 11 14 20q2 2 22 17t56 45q56 43 89 53q35 9 35 -127v-227q0 -56 -1 -99t-1 -71v-56q62 78 158 78
q62 0 92 -38zM235 438q-6 30 -48 30q-43 0 -82 -31q-43 -35 -43 -86v-33.5t-2 -49.5q-1 -27 -1 -47.5v-33.5q0 -163 68 -173q13 -1 27 8.5t28.5 26t26.5 39t18 45.5q22 86 22 180q0 71 -14 125z" />
    <glyph glyph-name="c" unicode="c" horiz-adv-x="357" 
d="M363 138q-19 -21 -38 -41.5t-39 -40.5q-75 -66 -154 -69q-83 -1 -126 81q-35 69 -35 178q0 75 18 144q22 85 184 116q16 4 29.5 5.5t24.5 1.5q51 0 46 -38q-3 -18 -8 -40t-8 -49q-1 -26 -9 -26q-10 0 -5 24q5 26 -18 45q-20 19 -63 19q-59 0 -62 -2q-14 -3 -30 -29
q-18 -25 -18 -114q0 -97 24 -168q30 -87 89 -98q41 -8 95 39q21 21 41.5 40t41.5 40q11 11 24 11q9 0 9 -8t-13 -21z" />
    <glyph glyph-name="d" unicode="d" horiz-adv-x="470" 
d="M465 133q-33 -41 -68 -77q-54 -58 -118 -69q-33 -8 -33 88q0 69 3 76q-12 -22 -25.5 -44.5t-26.5 -44.5q-54 -76 -99 -76q-54 0 -85 62q-27 58 -27 146q0 111 39 196q43 96 112 102l115 11l-3 399q0 15 -12 15q-20 0 -56 -27q-37 -27 -48 -27q-14 0 -14 12q0 11 11 17
q8 6 30.5 23t58.5 47q51 41 79 48q26 6 31 -66q1 -15 2 -33.5t-1 -40.5l-3 -610q-2 -158 16 -171q6 -3 9 -3q10 0 23.5 7t27 17.5t25.5 23t18 23.5q10 16 24 16q13 0 13 -13q0 -12 -18 -27zM252 470q-54 27 -112 1q-27 -12 -48 -98q-19 -81 -19 -168q0 -142 48 -142
q8 0 17 5q46 26 83 86q30 52 25 57q3 110 5.5 174t0.5 85z" />
    <glyph glyph-name="e" unicode="e" horiz-adv-x="410" 
d="M397 130q-26 -20 -49.5 -40t-49.5 -41q-82 -59 -154 -62q-161 -4 -161 197q0 105 32.5 182.5t98.5 106.5q67 30 154 30q13 0 18 -1q49 -15 49 -58q0 -55 -83 -138q-74 -74 -182 -111q8 -146 100 -146q6 0 12.5 1t14.5 2q33 8 90 40q30 18 51.5 33t37.5 27q18 15 29 15
q9 0 9 -10q0 -14 -17 -27zM260 422q-20 29 -90 29q-30 0 -49 -10q-31 -14 -45 -95q-6 -32 -7.5 -60.5t-0.5 -55.5q46 10 145 78q57 41 57 87q0 16 -10 27z" />
    <glyph glyph-name="f" unicode="f" horiz-adv-x="392" 
d="M395 956l-39 30q-42 31 -93 31q-25 0 -46 -6q-55 -17 -57 -170l-1 -292h106l-2 -33h-106l5 -683q0 -104 -38 -138q-40 -35 -89 -55q-65 -29 -110 -24q-11 3 -27 25q-17 26 -17 34q0 3 3 3q-1 0 6.5 -1.5t20.5 -2.5t28 -2.5t28 -1.5q60 0 83 23t29 61q2 8 2 28v50l-3 684
h-86l2 33h84l6 288q3 126 60 165q100 66 166 66q44 0 68 -30q16 -21 20 -52q4 -29 -3 -30z" />
    <glyph glyph-name="g" unicode="g" horiz-adv-x="429" 
d="M363 498q-3 -144 -4.5 -288.5t-4.5 -293.5q-2 -156 -10 -172q-20 -60 -68 -112q-52 -57 -111 -72q-16 -4 -32 -4q-81 0 -81 103q0 65 42 152q17 35 36 70t37 71q6 16 17 16q8 0 8 -8t-5 -14q-11 -17 -24.5 -45t-30.5 -68q-46 -103 -43 -146q0 -28 29.5 -49t68.5 -21
q26 0 46 10q43 16 43 136v196q-1 49 -1 96.5v95.5q-8 -18 -21.5 -37.5t-34.5 -43.5q-60 -76 -108 -84q-52 -8 -81 49q-25 49 -25 138q0 105 33 192q35 97 94 121q46 17 130 22q65 3 101 -10zM283 470q-29 13 -69 14q-38 0 -66 -13q-26 -11 -43 -95q-8 -39 -13 -79.5
t-5 -85.5q0 -163 53 -148q50 18 117 104q14 0 22 150q8 151 4 153z" />
    <glyph glyph-name="h" unicode="h" horiz-adv-x="511" 
d="M503 135q-22 -21 -42.5 -41.5t-43.5 -41.5q-66 -62 -111 -63q-39 -2 -39 92q0 22 2 56t9 80q6 46 8.5 80.5t2.5 56.5q0 90 -37 105q-14 4 -30 4q-41 0 -81 -30q-41 -28 -41 -41q-5 -82 -5 -227q2 -63 2 -95.5t1 -36.5l-85 -36l8 879q0 46 -15 46q-4 0 -69 -46
q-15 -9 -26 -9q-14 0 -13 11q0 11 18 24q19 15 38 31t38 34q45 38 70 39q30 2 38 -41v-75q5 -12 2 -244q0 -56 -1 -98t-1 -69v-55q27 28 75 54q57 27 103 27q33 0 59 -16q36 -22 36 -114q0 6 -2.5 -34.5t-8.5 -127.5q-2 -23 -3.5 -44t-2.5 -44q-2 -49 14 -49q51 0 108 76
q12 18 27 18q12 0 12 -11t-14 -24z" />
    <glyph glyph-name="i" unicode="i" horiz-adv-x="278" 
d="M151 735q3 -52 -65 -65q-32 -7 -52.5 11.5t-20.5 45.5q0 30 22 50t52 20q27 0 45.5 -19t18.5 -43zM276 135q-17 -19 -36 -38l-37 -37q-62 -58 -93 -66q-35 -7 -53 17q-13 21 -11 57l10 335q3 10 3 16q0 16 -19 16q-27 0 -83 -30q-9 -5 -16 -5q-6 0 -6 6q2 7 13 13
q22 14 45 28.5t45 27.5q56 33 78 33q25 0 27 -43v-31t-2 -31l-6 -282q0 -35 22 -35q43 0 99 70q14 17 25 17t11 -11q0 -13 -16 -27z" />
    <glyph glyph-name="j" unicode="j" horiz-adv-x="317" 
d="M214 735q3 -52 -65 -65q-32 -7 -52.5 11.5t-20.5 45.5q0 30 22.5 50t52.5 20q27 0 45 -19t18 -43zM197 -84q-2 -26 -3.5 -48t-4.5 -43q-11 -95 -38 -131q-35 -50 -78 -67q-11 -5 -21 -5q-12 0 -12 7q0 11 20 17q38 14 45 164l22 595q2 8 2.5 13.5t0.5 8.5q0 25 -20 25
q-24 0 -80 -36q-14 -10 -20 -3q-7 6 6 16q43 36 116 92q22 12 39 12q34 0 40 -52v-54z" />
    <glyph glyph-name="k" unicode="k" horiz-adv-x="524" 
d="M522 137q-11 -13 -30 -33t-46 -47q-60 -55 -83 -63q-12 -4 -19 -4q-25 0 -57 42l-133 216q41 12 81 47q51 46 51 92q0 29 -21 56t-48 27q-23 0 -55.5 -24t-61.5 -48l-3 -363l-84 -40l9 886q0 41 -16 41q-8 0 -62 -39q-22 -16 -33 -16q-9 0 -9 9q0 19 11 26q1 0 77 61
q54 45 80 45q32 0 32 -110q1 -1 0 -235v-230q14 16 34 30.5t42 24.5t46 16.5t46 6.5q54 0 79 -35q18 -25 18 -51q0 -47 -50 -96q-38 -43 -80 -62q7 -15 20 -37t30 -54q70 -105 103 -105q10 0 20 5q52 29 90 76q11 15 22 16q10 0 10 -9q0 -10 -10 -22z" />
    <glyph glyph-name="l" unicode="l" horiz-adv-x="246" 
d="M238 135l-40 -40t-38 -39q-57 -59 -98 -61q-49 -5 -49 124q0 13 0.5 28.5t0.5 31t1 26.5t1 14l5 657q0 46 -15 46q-4 0 -69 -46q-15 -9 -26 -9q-14 0 -13 11q0 11 18 24q21 15 40 31t39 34q46 39 67 39q32 4 38 -38q-2 5 -2 -70l-1 -685v-65t-2 -8q2 -54 19 -54
q49 0 99 66q12 18 27 18q12 0 12 -11t-14 -24z" />
    <glyph glyph-name="m" unicode="m" horiz-adv-x="778" 
d="M770 133q-138 -150 -203 -146q-23 3 -32 40q-8 30 -6 52l12 265q5 116 -44 118q-73 3 -110 -41q-25 -26 -25 -53q-5 -192 -5 -333l-82 -41l3 352q0 68 -7 89q-11 35 -42 35q-77 0 -129 -76q-2 -51 -2.5 -141t-3.5 -218l-81 -38l6 409q0 32 -11 32q-5 0 -13.5 -4.5
t-19 -10.5t-21 -10.5t-16.5 -4.5q-14 0 -14 6q0 13 47 46q21 13 40 25t37 20q19 8 27 8q27 0 27 -45q0 -17 -5 -41q78 83 157 83q87 0 105 -85q14 18 31 32q47 35 115 45q8 1 24 1q65 0 88 -54q12 -28 10 -87l-11 -208q-2 -13 -2 -26.5t-1 -25.5q-2 -31 11 -34q33 -3 135 83
q12 9 19 9q5 0 5 -4q0 -7 -13 -23z" />
    <glyph glyph-name="n" unicode="n" horiz-adv-x="552" 
d="M454 44q-65 -65 -98 -57q-31 5 -37 50q-2 11 -2 21t-1 21l9 305q2 53 -8 65q-14 26 -61 8q-59 -22 -110 -59q0 -25 -1.5 -114.5t-4.5 -245.5l-83 -44l10 381q3 62 -18 62q3 0 -49 -24q-33 -15 -33 4q0 7 12 15q19 12 52.5 33.5t79.5 48.5q10 3 23.5 -11t13.5 -52v-14
t-2 -15q117 91 183 88q55 -2 71 -43q10 -24 8 -81l-8 -235q-2 -73 11 -75q27 -3 62 26q13 12 25 23.5t24 23.5q18 14 27 14q8 0 8 -7q0 -12 -17 -26z" />
    <glyph glyph-name="o" unicode="o" horiz-adv-x="389" 
d="M289 68q-8 -11 -21.5 -22t-32.5 -22q-56 -32 -118 -34q-58 -3 -90 91q-29 76 -29 184q0 122 31 159q58 78 157 78q31 0 52 -12q33 -17 62 -98q30 -79 30 -168q0 -97 -41 -156zM251 192q0 91 -22 176q-24 91 -61 105q-12 5 -36 0q-22 -5 -29 -11q-40 -40 -40 -146
q0 -91 26 -176q27 -86 60 -103q56 -29 84 42q18 53 18 113z" />
    <glyph glyph-name="p" unicode="p" horiz-adv-x="483" 
d="M413 137q-18 -66 -40 -91q-27 -27 -95 -40q-83 -14 -143 0v-347q0 -26 36 -26q12 0 27 4t29 9t27 9t19 4q19 0 16 -8q0 -8 -27 -22q-67 -34 -157 -62q-26 -8 -38 28q-7 21 -7 57l8 697q0 59 2 54q-2 19 -13 19q-16 0 -95 -51q-6 -3 -11 -3q-16 0 -16 15q0 7 9 14
q51 44 150 111q19 9 28 9q22 0 22 -55v-20t-1 -25q24 24 49 40q60 43 114 48t73 -12.5t31 -70.5q7 -36 11 -76.5t4 -82.5q0 -68 -12 -126zM338 270q-1 44 -3 75t-5 49q-9 68 -38 69q-82 10 -148 -93q5 -129 0 -307q42 -30 105 -30q37 0 53 11q41 29 36 226z" />
    <glyph glyph-name="q" unicode="q" horiz-adv-x="400" 
d="M432 -370q-118 -68 -159 -65q-25 2 -30 94q-2 24 -2 47.5v49.5q0 401 3 401q-9 -25 -55 -84q-56 -68 -89 -81q-14 -6 -30 -6q-24 0 -40.5 16.5t-27 46t-15 69t-4.5 85.5q0 264 138 289q27 6 61 8.5t74 2.5q9 0 26.5 -0.5t42.5 -2.5q2 0 2 -192q-3 -138 -5 -356
q-1 -103 -1 -151.5t0 -44.5q0 -21 1.5 -47t4.5 -60q2 -16 27 -16q32 0 67 24q8 5 14 5q13 0 13 -11t-16 -21zM246 467q-6 16 -60 16q-42 0 -64 -15q-20 -14 -38 -95q-14 -78 -14 -163q0 -150 43 -150q8 0 20 8q96 70 107 146z" />
    <glyph glyph-name="r" unicode="r" horiz-adv-x="357" 
d="M275 524q-4 -26 -6 -51t-6 -51q-61 8 -98 -6q-51 -19 -51 -64v-320l-87 -35l6 428q0 24 -14 24l-46 -20q-21 -5 -8 9q11 16 46 43q40 30 56 30q19 0 34.5 -24t14.5 -70q13 16 24.5 28t24.5 23q60 54 110 56z" />
    <glyph glyph-name="s" unicode="s" horiz-adv-x="365" 
d="M324 146q6 -49 -35 -97q-46 -51 -111 -52q-111 -2 -140 14q-27 18 -22 75q0 11 11 51q5 22 14 22q5 0 5 -15q0 -4 -1 -10.5t-2 -14.5q-14 -57 127 -65q30 -2 44.5 -2.5t10.5 -0.5q31 0 51 19q10 8 10 19q0 32 -137 130q-39 27 -68 53t-49 52q-11 13 -11 38q0 41 30 86
q30 44 74 54q89 20 142 -2q11 -5 1 -100q-1 -25 -8 -25q-6 0 -6 25t-22 35q-21 11 -89 11q-67 0 -73 -21q-2 -3 -2 -9q0 -45 84 -95q159 -96 172 -175z" />
    <glyph glyph-name="t" unicode="t" horiz-adv-x="249" 
d="M249 140q-19 -23 -38 -44t-38 -44q-57 -57 -92 -57q-64 0 -60 75q0 20 4 165l2 235h-87l1 32h83l5 265l81 74l-4 -339h84l-1 -32h-83v-210v-118.5t-1 1.5q1 -68 27 -62q35 6 100 75q14 15 27 15q6 0 6 -6q0 -9 -16 -25z" />
    <glyph glyph-name="u" unicode="u" horiz-adv-x="516" 
d="M508 130q-19 -20 -38 -39.5t-38 -39.5q-61 -61 -100 -64q-27 -3 -37 40q-1 8 -2 18.5t-1 22.5q-17 -11 -47.5 -25t-71.5 -33q-46 -16 -78 -16q-70 0 -68 114l8 276q2 49 -16 49q-11 0 -46 -20q-11 -7 -21 -7q-12 0 -12 10q0 11 19 22q17 13 49.5 33.5t78.5 49.5q8 4 15 4
q14 0 14 -38v-40t-2 -41q2 -46 1 -116.5t-4 -165.5q0 -83 38 -83q32 0 88 30q57 32 57 56l6 273q0 33 -29 33q-14 0 -32 -8.5t-25 -8.5q-8 0 -8 5q0 4 13 17q27 27 103 79q19 8 29 8q28 0 28 -58v-15.5t-1 -19.5q-2 -15 -2 -24.5v-13.5l-6 -242q-3 -79 24 -79q6 0 17 6
q22 11 46 35l35 35q13 10 21 10q9 0 9 -10q0 -9 -14 -19z" />
    <glyph glyph-name="v" unicode="v" horiz-adv-x="441" 
d="M390 241q-20 -4 -47 38q-2 5 -29 -90q-51 -192 -133 -194q-84 -3 -138 88q-32 54 -32 144q0 143 56 222q4 7 -43 7q-45 0 -64 -8q-6 -2 -12 -27q-8 -24 -10 -24q-5 0 -11 92q0 11 122 16q76 1 75 -10q-38 -149 -38 -249q0 -51 10 -86t36 -63q30 -35 71 -35q11 0 18 1
q35 7 63 107q22 86 22 141q0 14 -1 16q-75 98 -75 127q0 6 3 9q46 62 102 62q5 0 9.5 -0.5t9.5 -5.5t7 -16t2 -33q0 -18 -2 -43t-5 -57q-2 -16 -3.5 -27t-3.5 -19q-1 -10 -1 -16q14 -25 35 -45q15 -15 15 -17q-3 -3 -8 -5z" />
    <glyph glyph-name="w" unicode="w" horiz-adv-x="717" 
d="M656 375q9 -83 9 -142q0 -84 -19 -122q-21 -44 -62 -81q-52 -49 -103 -46q-60 5 -125 232q-13 -18 -33.5 -54.5t-47.5 -91.5q-43 -89 -56 -89q-17 0 -24 21q-8 36 -12.5 56t-6.5 23q-8 29 -14 55.5t-14 52.5q-35 124 -70 189t-53 65q-4 0 -13 -5t-19 -9.5t-20.5 -9.5
t-16.5 -5q-15 0 -15 8q0 18 96 72q26 14 34 14q27 0 56 -54q32 -62 35 -59q55 65 128 110q8 5 15 5q30 0 55 -69q8 -17 16 -44t19 -62q37 48 59 73q48 52 95 82q27 18 45 18q46 0 62 -133zM581 92q3 16 5.5 44.5t2.5 73.5q0 46 -1.5 85.5t-6.5 69.5t-13 47.5t-22 17.5
q-25 0 -78 -54q-43 -47 -60 -79q11 -32 21.5 -63.5t21.5 -63.5q46 -127 74 -135q5 -2 12 -2q30 0 44 59zM344 254q7 -14 -38 116q-25 76 -35 76q-38 0 -100 -86q35 -73 62 -170q19 -66 21 -65q36 51 90 129z" />
    <glyph glyph-name="x" unicode="x" horiz-adv-x="568" 
d="M556 117q-116 -133 -135 -133q-72 0 -172 219q-32 -74 -90 -141q-61 -67 -89 -65q-26 3 -41 46q-16 33 -16 68q0 16 6 16t16 -19q9 -19 62 -19q38 0 81 49q38 43 54 89q1 3 -97 214q-11 29 -35 29q-19 0 -46 -24q-37 -32 -52 -32q-8 0 -8 7q0 14 33 42q52 43 100 50
q59 6 83 -51q9 -24 25 -59.5t38 -83.5q56 146 95 167q34 17 105 25q24 3 24 -36q0 -31 -22 -31q-61 2 -88 -12q-47 -26 -100 -142q-1 -6 57 -109q66 -106 96 -110q41 -3 97 62q12 13 22 13q8 0 8 -8q0 -9 -11 -21z" />
    <glyph glyph-name="y" unicode="y" horiz-adv-x="457" 
d="M370 517q1 0 -3 -307q-4 -167 -5.5 -245t-1.5 -70q0 -68 -19 -120q-49 -134 -246 -192q-17 -7 -35 -7q-68 0 -68 97q0 24 5 51q8 47 24 91t41 83q24 40 38 40q3 0 3 -6q0 -15 -19 -40q-52 -70 -44 -162q4 -65 114 -65q122 0 124 140q11 263 8 262q-97 -80 -192 -80
q-77 0 -77 83v11.5t2 13.5q2 37 3.5 110.5t4.5 188.5q0 44 -13 44q7 0 -43 -27q-20 -11 -34 -11q-8 0 -8 5q0 12 30 27q8 3 26 15.5t48 35.5q46 33 62 28q11 -1 15 -21q3 -12 0 -39q-2 -18 -3 -28t-1 -13q0 -173 -4 -300q-4 -80 28 -80q8 0 13 2q94 27 143 85l3 362
q27 18 81 38z" />
    <glyph glyph-name="z" unicode="z" horiz-adv-x="467" 
d="M378 -22q-15 -7 -35 -7q-43 0 -116 42q-68 43 -81 43q-3 0 -54 -42q-46 -39 -75 -39q-20 0 -20 28q0 21 11 54q8 29 48 35q52 11 65 22q14 11 31.5 30t39.5 50q43 60 67 109q31 67 31 99q0 23 -15 25q-164 29 -234 5q-16 -7 -20 -35q-2 -35 -11 -46q-18 -27 -18 27
q0 11 2.5 40.5t5.5 78.5q3 14 62 14q21 0 52.5 -2.5t75.5 -5.5q113 -6 139 -9q50 -4 50 -23q0 -8 -20 -60q-59 -151 -192 -308q58 -1 106 -28q48 -26 76 -29q76 -9 113 56q13 22 21 22q6 0 6 -10q0 -33 -40 -77q-43 -48 -71 -59z" />
    <glyph glyph-name="braceleft" unicode="{" horiz-adv-x="410" 
d="M397 868q0 -6 -34 -19q-14 -5 -66 -9q-51 -2 -68 -15q-29 -19 -29 -93v-146q0 -100 -8 -127q-24 -72 -102 -111q61 -19 85.5 -55.5t24.5 -90.5v-224q0 -57 20 -79.5t70 -22.5h73q24 0 24 -9q0 -10 -27 -18q-47 -12 -98 -12h-29q-112 0 -112 122v97q0 120 -5 154
q-3 34 -19 65q-30 42 -67 58q56 37 75 75q16 30 16 132v150q0 107 25 142q32 43 108 43h116q27 0 27 -7z" />
    <glyph glyph-name="bar" unicode="|" horiz-adv-x="502" 
d="M222 -257v1089h61v-1089h-61z" />
    <glyph glyph-name="braceright" unicode="}" horiz-adv-x="410" 
d="M381 378q-62 -41 -73 -75q-18 -30 -18 -132v-150q0 -105 -27 -142q-30 -42 -106 -42h-116q-27 0 -27 6t32 19q24 8 68 11q53 3 67 13q29 19 29 93v146q0 99 9 127q24 72 100 113q-57 16 -83 56.5t-26 88.5v223q0 59 -18.5 80.5t-70.5 21.5h-75q-24 0 -24 9q0 15 57 24
q21 3 38.5 5t31.5 2h29q112 0 112 -123v-96q0 -62 1 -101t3 -55q4 -32 22 -63q25 -43 65 -59z" />
    <glyph glyph-name="asciitilde" unicode="~" horiz-adv-x="625" 
d="M563 389q-68 -111 -163 -111q-21 0 -113 32q-60 20 -98 20q-37 0 -62 -20q-5 -4 -17 -16.5t-32 -33.5l-21 10q80 113 164 113q38 0 109 -26q70 -24 97 -24q67 0 117 65z" />
    <glyph glyph-name="cent" unicode="&#xa2;" horiz-adv-x="556" 
d="M262 138v405q-81 -12 -99 -111q-6 -38 -6 -86.5t6 -86.5q19 -107 99 -121zM322 139q74 16 85 100l89 -6q-13 -103 -102 -147q-31 -15 -72 -19v-82h-60v82q-103 9 -153 86q-44 70 -44 187q0 136 59 206q50 58 138 66v76h60v-76q109 -11 152 -98q13 -27 19 -58l-90 -7
q-7 44 -30 65.5t-51 27.5v-403z" />
    <glyph glyph-name="cent" unicode="&#xc7;" horiz-adv-x="556" 
d="M262 138v405q-81 -12 -99 -111q-6 -38 -6 -86.5t6 -86.5q19 -107 99 -121zM322 139q74 16 85 100l89 -6q-13 -103 -102 -147q-31 -15 -72 -19v-82h-60v82q-103 9 -153 86q-44 70 -44 187q0 136 59 206q50 58 138 66v76h60v-76q109 -11 152 -98q13 -27 19 -58l-90 -7
q-7 44 -30 65.5t-51 27.5v-403z" />
    <glyph glyph-name="sterling" unicode="&#xa3;" horiz-adv-x="556" 
d="M539 152q-5 -39 -18.5 -67.5t-35.5 -47.5t-50 -28t-61 -9h-341v75q44 23 65 62t21 98v70h-91v63h91v137q0 45 11.5 81t36 60.5t61.5 38t87 13.5q34 0 64 -7t54.5 -21t41.5 -35t26 -49l-85 -28q-5 15 -14.5 28t-22.5 21.5t-28.5 13.5t-33.5 5q-56 0 -83 -28t-27 -89v-141
h199v-63h-199v-61q0 -28 -5.5 -53.5t-16.5 -48t-26 -40t-35 -27.5h236q19 0 35 4.5t29 14.5t22 26.5t13 40.5z" />
    <glyph glyph-name="sterling" unicode="&#xc9;" horiz-adv-x="556" 
d="M539 152q-5 -39 -18.5 -67.5t-35.5 -47.5t-50 -28t-61 -9h-341v75q44 23 65 62t21 98v70h-91v63h91v137q0 45 11.5 81t36 60.5t61.5 38t87 13.5q34 0 64 -7t54.5 -21t41.5 -35t26 -49l-85 -28q-5 15 -14.5 28t-22.5 21.5t-28.5 13.5t-33.5 5q-56 0 -83 -28t-27 -89v-141
h199v-63h-199v-61q0 -28 -5.5 -53.5t-16.5 -48t-26 -40t-35 -27.5h236q19 0 35 4.5t29 14.5t22 26.5t13 40.5z" />
    <glyph glyph-name="yen" unicode="&#xa5;" horiz-adv-x="556" 
d="M353 346h156v-61h-187v-75h187v-62h-187v-148h-87v148h-186v62h186l1 75h-187v61h157l-206 342h97l181 -316l183 316h98z" />
    <glyph glyph-name="brokenbar" unicode="&#xa6;" horiz-adv-x="259" 
d="M89 345v380h81v-380h-81zM89 -212v380h81v-380h-81z" />
    <glyph glyph-name="copyright" unicode="&#xa9;" horiz-adv-x="736" 
d="M721 345q0 -49 -12.5 -94t-35.5 -84.5t-55 -71.5t-71.5 -54.5t-84.5 -35.5t-94 -13q-48 0 -93.5 13t-84.5 35.5t-71.5 54.5t-55.5 71.5t-35.5 84.5t-12.5 94t12.5 94t35.5 84.5t55.5 71.5t71.5 55t84 35.5t94 12.5q73 0 137.5 -27.5t112.5 -75.5t75.5 -112.5t27.5 -137.5
zM676 345q0 42 -11 81.5t-31 73.5t-48.5 62t-62.5 48t-73 31t-82 11q-63 0 -119 -24t-97.5 -66t-66 -97.5t-24.5 -119.5t24.5 -120t66 -97.5t97.5 -65.5t119 -24q43 0 82 11t73 31t62.5 48t48.5 62t31 73.5t11 81.5zM243 346q0 -35 8 -64.5t24.5 -50.5t41 -32.5t56.5 -11.5
q24 0 42.5 6.5t32 17.5t23 24.5t16.5 27.5l56 -17q-10 -21 -24.5 -40.5t-34.5 -35t-47 -25t-64 -9.5q-49 0 -85.5 15.5t-60.5 43.5t-35.5 66.5t-11.5 84.5q0 48 11.5 86t35.5 65t59.5 41.5t83.5 14.5q37 0 64 -8.5t46.5 -23t33 -33t22.5 -37.5l-56 -16q-6 13 -15 25
t-22.5 21.5t-31 15t-40.5 5.5q-34 0 -58 -11.5t-39.5 -31.5t-23 -49t-7.5 -64z" />
    <glyph glyph-name="copyright" unicode="&#xe2;" horiz-adv-x="736" 
d="M721 345q0 -49 -12.5 -94t-35.5 -84.5t-55 -71.5t-71.5 -54.5t-84.5 -35.5t-94 -13q-48 0 -93.5 13t-84.5 35.5t-71.5 54.5t-55.5 71.5t-35.5 84.5t-12.5 94t12.5 94t35.5 84.5t55.5 71.5t71.5 55t84 35.5t94 12.5q73 0 137.5 -27.5t112.5 -75.5t75.5 -112.5t27.5 -137.5
zM676 345q0 42 -11 81.5t-31 73.5t-48.5 62t-62.5 48t-73 31t-82 11q-63 0 -119 -24t-97.5 -66t-66 -97.5t-24.5 -119.5t24.5 -120t66 -97.5t97.5 -65.5t119 -24q43 0 82 11t73 31t62.5 48t48.5 62t31 73.5t11 81.5zM243 346q0 -35 8 -64.5t24.5 -50.5t41 -32.5t56.5 -11.5
q24 0 42.5 6.5t32 17.5t23 24.5t16.5 27.5l56 -17q-10 -21 -24.5 -40.5t-34.5 -35t-47 -25t-64 -9.5q-49 0 -85.5 15.5t-60.5 43.5t-35.5 66.5t-11.5 84.5q0 48 11.5 86t35.5 65t59.5 41.5t83.5 14.5q37 0 64 -8.5t46.5 -23t33 -33t22.5 -37.5l-56 -16q-6 13 -15 25
t-22.5 21.5t-31 15t-40.5 5.5q-34 0 -58 -11.5t-39.5 -31.5t-23 -49t-7.5 -64z" />
    <glyph glyph-name="guillemotleft" unicode="&#xab;" horiz-adv-x="556" 
d="M432 69l-165 178v31l165 181h82v-15l-165 -182l166 -179v-14h-83zM204 69l-164 178v31l164 181h82v-15l-164 -182l165 -179v-14h-83z" />
    <glyph glyph-name="guillemotleft" unicode="&#xe3;" horiz-adv-x="556" 
d="M432 69l-165 178v31l165 181h82v-15l-165 -182l166 -179v-14h-83zM204 69l-164 178v31l164 181h82v-15l-164 -182l165 -179v-14h-83z" />
    <glyph glyph-name="registered" unicode="&#xae;" horiz-adv-x="870" 
d="M853 407q0 -177 -123 -300q-122 -122 -298 -122q-179 0 -300 122q-124 123 -124 300q0 173 124 296q123 124 300 124q175 0 298 -124q123 -123 123 -296zM768 408q0 139 -98 237q-97 100 -238 100q-142 0 -242 -100q-98 -98 -98 -237q0 -140 98 -241q100 -100 242 -100
q141 0 238 100q98 101 98 241zM560 167l-132 201h-76v-201h-82v478h210q173 0 173 -130q0 -127 -138 -140l138 -208h-93zM572 515q0 58 -105 58h-115v-133h113q107 0 107 75z" />
    <glyph glyph-name="registered" unicode="&#xe9;" horiz-adv-x="870" 
d="M853 407q0 -177 -123 -300q-122 -122 -298 -122q-179 0 -300 122q-124 123 -124 300q0 173 124 296q123 124 300 124q175 0 298 -124q123 -123 123 -296zM768 408q0 139 -98 237q-97 100 -238 100q-142 0 -242 -100q-98 -98 -98 -237q0 -140 98 -241q100 -100 242 -100
q141 0 238 100q98 101 98 241zM560 167l-132 201h-76v-201h-82v478h210q173 0 173 -130q0 -127 -138 -140l138 -208h-93zM572 515q0 58 -105 58h-115v-133h113q107 0 107 75z" />
    <glyph glyph-name="degree" unicode="&#xb0;" horiz-adv-x="399" 
d="M339 559q0 -29 -11 -54.5t-30 -44t-44.5 -29.5t-54.5 -11t-54 11t-44.5 29.5t-30.5 44t-11 54.5t11 54.5t30.5 44.5t44.5 29.5t54 10.5t54.5 -10.5t44.5 -29.5t30 -44.5t11 -54.5zM286 559q0 18 -6.5 34t-18.5 28t-27.5 19t-34.5 7q-18 0 -34 -7t-27.5 -19t-18.5 -28
t-7 -34t7 -34t18.5 -28t27.5 -19t34 -7q19 0 34.5 7t27.5 19t18.5 28t6.5 34z" />
    <glyph glyph-name="degree" unicode="&#xea;" horiz-adv-x="399" 
d="M339 559q0 -29 -11 -54.5t-30 -44t-44.5 -29.5t-54.5 -11t-54 11t-44.5 29.5t-30.5 44t-11 54.5t11 54.5t30.5 44.5t44.5 29.5t54 10.5t54.5 -10.5t44.5 -29.5t30 -44.5t11 -54.5zM286 559q0 18 -6.5 34t-18.5 28t-27.5 19t-34.5 7q-18 0 -34 -7t-27.5 -19t-18.5 -28
t-7 -34t7 -34t18.5 -28t27.5 -19t34 -7q19 0 34.5 7t27.5 19t18.5 28t6.5 34z" />
    <glyph glyph-name="paragraph" unicode="&#xb6;" horiz-adv-x="537" 
d="M432 638v-767h-55v767h-106v-767h-55v468q-39 0 -71.5 11t-56 32.5t-36.5 54t-13 75.5q0 41 12 73.5t35.5 55.5t57 35t76.5 12h275v-50h-63z" />
    <glyph glyph-name="paragraph" unicode="&#xf1;" horiz-adv-x="537" 
d="M432 638v-767h-55v767h-106v-767h-55v468q-39 0 -71.5 11t-56 32.5t-36.5 54t-13 75.5q0 41 12 73.5t35.5 55.5t57 35t76.5 12h275v-50h-63z" />
    <glyph glyph-name="guillemotright" unicode="&#xbb;" horiz-adv-x="556" 
d="M350 69h-82v14l165 179l-164 182v15h81l165 -181v-31zM123 69h-83v14l165 179l-164 182v15h82l164 -181v-31z" />
    <glyph glyph-name="guillemotright" unicode="&#xf5;" horiz-adv-x="556" 
d="M350 69h-82v14l165 179l-164 182v15h81l165 -181v-31zM123 69h-83v14l165 179l-164 182v15h82l164 -181v-31z" />
    <glyph glyph-name="Odieresis" unicode="&#xd6;" horiz-adv-x="777" 
d="M730 347q0 -80 -23.5 -146t-67.5 -113t-107.5 -72.5t-143.5 -25.5q-85 0 -149 26.5t-106.5 74.5t-64 113.5t-21.5 142.5q0 81 22.5 146t66 110.5t107 70t146.5 24.5q82 0 145.5 -25t107 -70.5t66 -110.5t22.5 -145zM634 347q0 62 -15.5 113t-46.5 87t-77 55.5t-106 19.5
q-62 0 -108 -19.5t-77.5 -55.5t-46.5 -87t-15 -113t15.5 -113.5t46.5 -89t77.5 -58t106.5 -20.5q64 0 111 21t77 58.5t44 89t14 112.5zM444 747v90h80v-90h-80zM252 747v90h80v-90h-80z" />
    <glyph glyph-name="Odieresis" unicode="&#x2202;" horiz-adv-x="777" 
d="M730 347q0 -80 -23.5 -146t-67.5 -113t-107.5 -72.5t-143.5 -25.5q-85 0 -149 26.5t-106.5 74.5t-64 113.5t-21.5 142.5q0 81 22.5 146t66 110.5t107 70t146.5 24.5q82 0 145.5 -25t107 -70.5t66 -110.5t22.5 -145zM634 347q0 62 -15.5 113t-46.5 87t-77 55.5t-106 19.5
q-62 0 -108 -19.5t-77.5 -55.5t-46.5 -87t-15 -113t15.5 -113.5t46.5 -89t77.5 -58t106.5 -20.5q64 0 111 21t77 58.5t44 89t14 112.5zM444 747v90h80v-90h-80zM252 747v90h80v-90h-80z" />
    <glyph glyph-name="multiply" unicode="&#xd7;" horiz-adv-x="583" 
d="M69 161l173 173l-172 172l51 50l171 -172l171 171l51 -51l-171 -170l172 -172l-50 -51l-172 172l-174 -173z" />
    <glyph glyph-name="multiply" unicode="&#x2211;" horiz-adv-x="583" 
d="M69 161l173 173l-172 172l51 50l171 -172l171 171l51 -51l-171 -170l172 -172l-50 -51l-172 172l-174 -173z" />
    <glyph glyph-name="Udieresis" unicode="&#xba;" horiz-adv-x="722" 
d="M357 -10q-57 0 -107.5 15.5t-89 47t-61 81t-22.5 116.5v438h93v-430q0 -52 14 -88.5t39 -59.5t59 -33.5t74 -10.5t76 10.5t62.5 34t42 61.5t15.5 92v424h93v-429q0 -69 -23 -119.5t-62 -84t-91.5 -49.5t-111.5 -16zM416 747v90h80v-90h-80zM224 747v90h81v-90h-81z" />
    <glyph glyph-name="Udieresis" unicode="&#xdc;" horiz-adv-x="722" 
d="M357 -10q-57 0 -107.5 15.5t-89 47t-61 81t-22.5 116.5v438h93v-430q0 -52 14 -88.5t39 -59.5t59 -33.5t74 -10.5t76 10.5t62.5 34t42 61.5t15.5 92v424h93v-429q0 -69 -23 -119.5t-62 -84t-91.5 -49.5t-111.5 -16zM416 747v90h80v-90h-80zM224 747v90h81v-90h-81z" />
    <glyph glyph-name="odieresis" unicode="&#xf6;" horiz-adv-x="556" 
d="M513 265q0 -139 -61 -207t-177 -68q-55 0 -98.5 16.5t-73.5 51t-46 86t-16 121.5q0 273 237 273q61 0 106 -17t73.5 -51t42 -85.5t13.5 -119.5zM421 265q0 61 -9.5 101t-28 64t-45 33.5t-59.5 9.5t-60.5 -10t-46.5 -34t-29 -64t-10 -100q0 -62 11 -102t29.5 -64t44.5 -34
t56 -10q34 0 61 9.5t46 33.5t29.5 64.5t10.5 102.5zM335 595v90h80v-90h-80zM143 595v90h81v-90h-81z" />
    <glyph glyph-name="divide" unicode="&#xf7;" horiz-adv-x="548" 
d="M233 468v89h82v-89h-82zM31 297v71h486v-71h-486zM233 109v89h82v-89h-82z" />
    <glyph glyph-name="divide" unicode="&#x25ca;" horiz-adv-x="548" 
d="M233 468v89h82v-89h-82zM31 297v71h486v-71h-486zM233 109v89h82v-89h-82z" />
    <glyph glyph-name="udieresis" unicode="&#xfc;" horiz-adv-x="556" 
d="M155 528v-335q0 -38 6 -64t18.5 -42t33.5 -22.5t51 -6.5q32 0 57 11t42.5 32t27.5 51.5t10 69.5v306h88v-415v-35t0.5 -34.5t1 -28.5t1.5 -15h-83q-1 2 -1.5 13t-1 25t-1 28.5t-0.5 23.5h-2q-12 -23 -27.5 -41.5t-35.5 -31.5t-45.5 -20t-60.5 -7q-43 0 -75 11t-52.5 33.5
t-30 57.5t-9.5 84v352h88zM329 595v90h80v-90h-80zM137 595v90h80v-90h-80z" />
    <glyph glyph-name="Amacron" unicode="&#xb7;" horiz-adv-x="666" 
d="M569 0l-79 201h-313l-79 -201h-97l281 688h106l276 -688h-95zM374 501q-8 20 -15 40t-12.5 36t-9 27t-3.5 14q-1 -3 -4.5 -14t-9.5 -27.5t-13 -36.5l-14 -40l-88 -226h257zM468 767h-268v62h268v-62z" />
    <glyph glyph-name="Amacron" unicode="&#x100;" horiz-adv-x="666" 
d="M569 0l-79 201h-313l-79 -201h-97l281 688h106l276 -688h-95zM374 501q-8 20 -15 40t-12.5 36t-9 27t-3.5 14q-1 -3 -4.5 -14t-9.5 -27.5t-13 -36.5l-14 -40l-88 -226h257zM468 767h-268v62h268v-62z" />
    <glyph glyph-name="amacron" unicode="&#x101;" horiz-adv-x="556" 
d="M202 -10q-80 0 -120 42t-40 115q0 53 20 86.5t52 52.5t73 26t83 8l119 2v29q0 33 -7 56t-21 37t-35.5 20.5t-50.5 6.5q-25 0 -45.5 -3.5t-35.5 -13t-24.5 -26t-12.5 -41.5l-92 9q5 31 19 57t39 45t63 29.5t91 10.5q100 0 150.5 -45.5t50.5 -132.5v-227q0 -39 10 -59
t39 -20q7 0 14.5 1t14.5 3v-55q-17 -4 -33.5 -6t-34.5 -2q-25 0 -43 6.5t-29 20t-17 33.5t-7 46h-3q-14 -25 -31 -45.5t-39.5 -35t-51 -22.5t-65.5 -8zM222 56q42 0 73.5 15.5t52 39.5t31 52t10.5 54v44l-97 -2q-32 -1 -61 -5t-51 -16t-35 -34t-13 -58q0 -43 23.5 -66.5
t66.5 -23.5zM406 604h-268v62h268v-62z" />
    <glyph glyph-name="Emacron" unicode="&#x112;" horiz-adv-x="666" 
d="M82 0v688h522v-76h-429v-221h400v-75h-400v-240h449v-76h-542zM478 767h-269v62h269v-62z" />
    <glyph glyph-name="Emacron" unicode="&#x201e;" horiz-adv-x="666" 
d="M82 0v688h522v-76h-429v-221h400v-75h-400v-240h449v-76h-542zM478 767h-269v62h269v-62z" />
    <glyph glyph-name="emacron" unicode="&#x113;" horiz-adv-x="556" 
d="M134 246q0 -42 8.5 -77t26.5 -60t46 -39t67 -14q57 0 91.5 23t46.5 58l77 -22q-8 -22 -23 -44t-40 -40t-62.5 -29.5t-89.5 -11.5q-117 0 -178.5 70t-61.5 208q0 74 18.5 125.5t51 83.5t75.5 46.5t91 14.5q67 0 111.5 -21.5t71.5 -59.5t38.5 -89t11.5 -111v-11h-377z
M420 313q-7 83 -42 121.5t-101 38.5q-22 0 -46 -7t-44.5 -25t-35 -49t-16.5 -79h285zM412 604h-268v62h268v-62z" />
    <glyph glyph-name="emacron" unicode="&#x2030;" horiz-adv-x="556" 
d="M134 246q0 -42 8.5 -77t26.5 -60t46 -39t67 -14q57 0 91.5 23t46.5 58l77 -22q-8 -22 -23 -44t-40 -40t-62.5 -29.5t-89.5 -11.5q-117 0 -178.5 70t-61.5 208q0 74 18.5 125.5t51 83.5t75.5 46.5t91 14.5q67 0 111.5 -21.5t71.5 -59.5t38.5 -89t11.5 -111v-11h-377z
M420 313q-7 83 -42 121.5t-101 38.5q-22 0 -46 -7t-44.5 -25t-35 -49t-16.5 -79h285zM412 604h-268v62h268v-62z" />
    <glyph glyph-name="florin" unicode="&#x192;" horiz-adv-x="556" 
d="M454 641q-8 2 -23 4.5t-30 2.5q-16 0 -27 -4.5t-19 -14.5t-14 -25.5t-10 -37.5l-13 -67h103l-12 -64h-104l-124 -647h-88l124 647h-74l13 64h74l14 74q6 29 15.5 54t27 43.5t44 29t66.5 10.5q15 0 35 -2.5t37 -7.5z" />
    <glyph glyph-name="tilde" unicode="&#x2dc;" horiz-adv-x="333" 
d="M240 586q-20 0 -40.5 9t-39.5 20t-36.5 20.5t-32.5 9.5q-27 0 -40 -15.5t-18 -43.5h-44q2 22 7 45.5t16 42.5t29 31t47 12q22 0 42.5 -9t39.5 -20t35.5 -20t31.5 -9q26 0 39.5 15.5t17.5 42.5h45q-2 -21 -7 -44.5t-15.5 -42.5t-28.5 -31.5t-48 -12.5z" />
    <glyph glyph-name="ka" unicode="&#x1000;" horiz-adv-x="1024" 
d="M964 228q0 -80 -55 -148t-133 -80q-46 -6 -46 40q0 28 36 40q108 38 108 146q0 76 -46 121t-122 45q-140 0 -182 -126v-12q0 -184 -140 -232q-6 -2 -14 -2q-38 0 -38 40q0 28 28 38q84 28 84 156q0 58 -70 100q-60 38 -122 38q-76 0 -122 -45t-46 -121q0 -50 31 -95
t79 -53q34 -6 34 -40q0 -48 -46 -40q-78 12 -130 82q-48 64 -48 146q0 108 70 177t178 69q134 0 226 -104q70 110 228 104q114 -4 186 -68t72 -176z" />
    <glyph glyph-name="kha" unicode="&#x1001;" horiz-adv-x="582" 
d="M518 248q0 -114 -66 -174q-4 -12 -20 -18q-74 -56 -210 -56q-68 0 -130 38q-72 42 -72 106q0 120 158 120q64 0 134 -27t110 -71q18 34 18 82q0 154 -162 154q-28 0 -87 -21t-81 -21q-38 0 -38 42q0 28 28 36l88 28q52 16 90 16q108 0 174 -63t66 -171zM370 110
q-20 32 -90 54q-58 18 -108 18q-42 0 -48 -2q-24 -8 -24 -36q0 -26 50 -46q42 -18 72 -18q98 0 148 30z" />
    <glyph glyph-name="ga" unicode="&#x1002;" horiz-adv-x="580" 
d="M532 212q0 -124 -92 -172q-14 -8 -60 -18q-40 -2 -40 44q0 2 10 13t10 13q36 8 64 45t28 75q0 86 -45 142t-129 56q-76 0 -133 -58t-57 -134q0 -96 106 -148q22 -10 22 -34q0 -42 -38 -42q-12 0 -20 4q-150 74 -150 220q0 110 80 191t190 81q118 0 186 -79t68 -199z" />
    <glyph glyph-name="gha" unicode="&#x1003;" horiz-adv-x="1020" 
d="M956 276q0 -114 -54 -194q-62 -94 -170 -94q-64 0 -139 37t-111 87q-68 -126 -222 -126q-98 0 -169 63t-71 159q0 40 42 116l42 76q0 54 -68 54q-56 0 -56 -44q0 -18 14 -36l14 -18q8 -10 8 -24q0 -40 -40 -40q-20 0 -32 16l-14 18q-30 38 -30 84q0 124 136 124
q62 0 105 -36t43 -98q0 -28 -42 -108t-42 -84q0 -62 48 -102t112 -40q80 0 128 51t48 131q0 112 -62 142q-22 10 -22 34q0 42 38 42q58 0 94 -76q28 -58 32 -126q8 -10 8 -26q0 -68 53 -115t123 -47q176 0 176 200q0 68 -46 119t-114 51q-26 0 -32 -8q-16 -20 -32 -20
q-36 0 -36 44q0 64 100 64q104 0 172 -73t68 -177z" />
    <glyph glyph-name="nga" unicode="&#x1004;" horiz-adv-x="524" 
d="M478 140q0 -10 -4 -20q-68 -132 -240 -132q-106 0 -168 76q-58 70 -58 178q0 110 65 180t175 70q144 0 210 -146q4 -8 4 -18q0 -38 -42 -38q-22 0 -34 24q-44 98 -138 98q-74 0 -117 -47t-43 -123q0 -174 146 -174q124 0 168 88q12 22 34 22q42 0 42 -38z" />
    <glyph glyph-name="ca" unicode="&#x1005;" horiz-adv-x="588" 
d="M530 254q0 -132 -74 -200t-208 -68q-50 0 -102 34q-4 2 -86 66q-14 8 -18 28q-36 42 -36 118q0 118 82 188q76 68 196 68q106 0 176 -64t70 -170zM452 254q0 72 -47 113t-121 41q-36 0 -68 -8q82 -46 82 -172q0 -116 -74 -160q12 -2 24 -2q204 0 204 188zM220 228
q0 40 -14 70q-18 40 -54 40q-20 0 -42 -10q-26 -40 -26 -96q0 -44 20 -68q24 -8 26 -32l6 -6l6 -4q8 4 16 4q62 12 62 102z" />
    <glyph glyph-name="cha" unicode="&#x1006;" horiz-adv-x="1022" 
d="M972 252q0 -122 -64 -194t-184 -72q-64 0 -134 36t-108 88q-12 -20 -30 -36q-4 -12 -20 -18q-74 -56 -210 -56q-68 0 -130 38q-72 42 -72 106q0 120 158 120q64 0 134 -27t110 -71q18 34 18 82q0 154 -162 154q-28 0 -87 -21t-81 -21q-38 0 -38 42q0 28 28 36l88 28
q52 16 90 16q144 0 206 -104q62 60 94 74q66 38 174 38q26 0 56 -14q72 -16 118 -82t46 -142zM892 252q0 82 -66 130q6 0 -26 14q-10 2 -34 10q-12 4 -14 4q-68 0 -120 -20q-6 -6 -16 -10h-2q-8 -10 -32 -18q-62 -50 -64 -134q0 -66 72 -116q66 -46 134 -46q168 0 168 186z
M370 110q-20 32 -90 54q-58 18 -108 18q-42 0 -48 -2q-24 -8 -24 -36q0 -26 50 -46q42 -18 72 -18q98 0 148 30z" />
    <glyph glyph-name="ja" unicode="&#x1007;" horiz-adv-x="578" 
d="M608 -12q0 -38 -40 -38q-76 0 -138 76q-28 -12 -62 -12q-58 0 -101 45t-43 103q0 54 41 93t95 39q46 0 82 -8q-34 120 -162 120q-88 0 -140 -56t-52 -144q0 -80 84 -106q28 -8 28 -36q0 -42 -38 -42q-62 0 -108 60t-46 124q0 120 76 200t196 80q108 0 174 -64
q38 -36 76 -172q0 -38 -6 -96q-10 -44 -34 -78q24 -30 78 -46q40 -12 40 -42zM450 200q-38 14 -90 14q-20 0 -38 -16t-18 -36q0 -24 20 -46t44 -22q12 0 22 4q-2 18 12 30t32 10q12 24 16 62z" />
    <glyph glyph-name="jha" unicode="&#x1008;" horiz-adv-x="801" 
d="M530 254q0 -132 -74 -200t-208 -68q-50 0 -102 34q-4 2 -86 66q-14 8 -18 28q-36 42 -36 118q0 118 82 188q76 68 196 68q106 0 176 -64t70 -170zM452 254q0 72 -47 113t-121 41q-36 0 -68 -8q82 -46 82 -172q0 -116 -74 -160q12 -2 24 -2q204 0 204 188zM220 228
q0 40 -14 70q-18 40 -54 40q-20 0 -42 -10q-26 -40 -26 -96q0 -44 20 -68q24 -8 26 -32l6 -6l6 -4q8 4 16 4q62 12 62 102zM688 92q2 -58 -2 -178l-6 -178q-4 -144 -76 -228q-78 -94 -218 -94q-104 0 -171 69t-69 173q-6 202 114 284q74 50 168 50q72 0 72 -60
q0 -42 -42 -38q-218 18 -218 -220q0 -30 6 -50q34 -118 140 -118q194 0 204 232l6 130q6 126 2 220q-12 308 -18 344q-8 52 44 52q40 0 44 -40q12 -120 20 -350z" />
    <glyph glyph-name="nya" unicode="&#x1009;" horiz-adv-x="1064" 
d="M1008 -298q0 -102 -68 -168t-172 -82q-8 -2 -60 4q-64 0 -264 -4l-200 -4q-122 14 -188 104t-66 216q0 322 18 376q2 34 42 34q22 0 34 -22q44 -88 168 -88q146 0 146 174q0 76 -43 123t-117 47q-94 0 -138 -98q-12 -24 -34 -24q-42 0 -42 38q0 10 4 18q66 146 210 146
q110 0 175 -70t65 -180q0 -108 -58 -178q-62 -76 -168 -76q-104 0 -170 48q-2 -32 -2 -268q0 -210 166 -230q16 -2 518 -2v-4q164 30 164 170q0 82 -57 124t-141 42q-50 0 -90 -27t-40 -75q0 -74 46 -74q40 0 40 -40t-40 -40q-58 0 -94 50q-32 44 -32 104q0 82 66 134
q60 48 144 48q120 0 199 -64t79 -182z" />
    <glyph glyph-name="nnya" unicode="&#x100a;" horiz-adv-x="1024" 
d="M960 244q0 -106 -74 -178t-180 -72q-116 0 -208 114q-66 -118 -222 -118q-124 0 -192 38l-2 -2q-2 -32 -2 -268q0 -190 138 -224q32 -8 506 -8q48 0 94 36t46 82q0 34 -28 62q-28 22 -54 44q-24 10 -46 10q-80 0 -94 -52q-8 -28 -38 -28q-42 0 -42 32q0 64 58 98
q48 30 116 30q32 0 64 -10h12q12 0 24 -8q118 -74 118 -178q0 -86 -71 -147t-159 -61l-476 2q-124 12 -194 106q-64 86 -64 214q0 264 12 346v2q2 18 6 28q2 34 42 34q14 0 34 -22v-2q8 -10 30 -32q54 -42 162 -42q76 0 124 42t48 118q0 82 -55 131t-139 49q-82 0 -152 -52
q-10 -8 -24 -8q-40 0 -40 40q0 20 16 32q90 68 200 68q108 0 185 -63t87 -169q8 -10 8 -24q0 -64 56 -104q78 -56 116 -56q72 0 123 49t51 121q0 90 -76 138q-66 42 -160 42q-40 0 -40 40t40 40q126 0 216 -66q100 -72 100 -194z" />
    <glyph glyph-name="tta" unicode="&#x100b;" horiz-adv-x="574" 
d="M880 -364q0 -90 -54 -158t-142 -68q-128 0 -189 62t-77 192q-2 14 2 31t4 23q0 14 -30 14q-34 0 -100 -9t-100 -9q-166 0 -166 136q0 96 120 96q34 0 99 -6t99 -6q58 0 82 16q0 64 -36 64q-22 0 -68 -8t-68 -8q-102 0 -171 58t-69 158q0 118 65 189t181 71q138 0 204 -76
q10 -12 10 -26q0 -40 -40 -40q14 0 14 4q0 8 -60 28q-86 30 -128 30q-166 0 -166 -180q0 -136 160 -136q22 0 68 8t68 8q116 -4 116 -144q0 -96 -162 -96q-34 0 -99 6t-99 6q-40 0 -40 -16q0 -38 26 -50q14 -6 60 -6q40 0 108 4q80 6 106 6q96 4 108 -78q0 -6 20 -152
q28 -84 148 -84q54 0 86 48q30 42 30 98q0 82 -40 82q12 0 -28 -8q-48 -10 -48 32q0 56 76 56q120 0 120 -162z" />
    <glyph glyph-name="ttha" unicode="&#x100c;" horiz-adv-x="566" 
d="M514 -242q0 -140 -76 -228q-80 -94 -218 -94q-88 0 -159 61t-71 147q0 104 118 178q12 8 24 8q46 0 46 -48q0 -22 -22 -36q-76 -48 -76 -102q0 -46 46 -82t94 -36q204 0 204 232q0 236 -2 268q-66 -48 -170 -48q-116 0 -181 68t-65 186q0 120 70 185t190 65
q144 0 210 -146q4 -8 4 -18q0 -38 -42 -38q-22 0 -34 24q-44 98 -138 98q-180 0 -180 -170q0 -174 166 -174q124 0 168 88q12 22 34 22q40 0 42 -34q18 -54 18 -376z" />
    <glyph glyph-name="dda" unicode="&#x100d;" horiz-adv-x="570" 
d="M858 -358q0 -102 -66 -166t-168 -64q-142 0 -206 162q-28 72 -34 96q-10 42 -10 126q0 14 2 39t2 39h-28q-32 0 -97 -11t-97 -11q-154 0 -154 116q0 104 88 104q20 0 61 -2t61 -2q216 0 216 112q0 206 -168 206q-74 0 -168 -82q-12 -10 -26 -10q-38 0 -38 40q0 16 14 28
q114 102 218 102q124 0 188 -82q58 -74 58 -202q0 -190 -294 -190q-20 0 -61 2t-61 2h-8q-2 -8 -2 -26q0 -38 76 -38q32 0 97 11t97 11h48q58 0 58 -80q0 -12 -2 -38t-2 -38q0 -70 30 -166q44 -140 142 -140q70 0 113 41t43 111q0 104 -52 104q-38 0 -38 40q0 38 38 38
q130 0 130 -182z" />
    <glyph glyph-name="ddha" unicode="&#x100e;" horiz-adv-x="578" 
d="M516 248q0 -114 -71 -188t-185 -74q-98 0 -169 63t-71 159q0 40 42 116l42 76q0 54 -68 54q-56 0 -56 -44q0 -18 14 -36l14 -18q8 -10 8 -24q0 -40 -40 -40q-20 0 -32 16l-14 18q-30 38 -30 84q0 124 136 124q62 0 105 -36t43 -98q0 -28 -42 -108t-42 -84q0 -62 48 -102
t112 -40q80 0 128 51t48 131q0 112 -62 142q-22 10 -22 34q0 42 38 42q12 0 20 -4q106 -52 106 -214z" />
    <glyph glyph-name="nna" unicode="&#x100f;" horiz-adv-x="1118" 
d="M1056 212q0 -106 -65 -170t-171 -64q-94 0 -94 72q0 32 28 32l66 -24q156 0 156 154q0 202 -182 202q-128 0 -142 -84q36 -96 36 -186q0 -186 -142 -186q-138 0 -138 218q0 102 18 160v18q-32 64 -110 64q-98 0 -158 -46q-66 -50 -66 -146q0 -108 110 -162q22 -10 22 -34
q0 -42 -38 -42q-10 0 -20 4q-154 78 -154 234q0 128 90 202q84 70 214 70q86 0 156 -72q28 20 62 20q36 0 68 -32q56 80 192 80q126 0 194 -77t68 -205zM608 144q0 60 -26 144q-12 10 -12 30q-16 36 -32 46q-16 0 -26 -10q2 -14 -2 -24q-22 -56 -22 -154q0 -68 4 -86
q12 -52 54 -52q62 0 62 106z" />
    <glyph glyph-name="ta" unicode="&#x1010;" horiz-adv-x="1024" 
d="M964 226q0 -82 -48 -146q-52 -70 -130 -82q-46 -8 -46 40q0 28 36 40q108 38 108 148q0 76 -46 121t-122 45q-74 0 -154 -66q-38 -32 -38 -64v-18q0 -110 -69 -178t-179 -68q-98 0 -180 60q-92 64 -92 158q0 174 126 228q66 38 174 38q26 0 56 -14q82 -20 130 -102
q14 16 34 40q74 66 192 66q108 0 178 -69t70 -177zM444 244q0 82 -66 130q-16 -2 -32 8l-16 10l-12 4q-12 6 -14 6q-68 0 -120 -20q-6 -6 -16 -10h-2q-8 -10 -32 -18q-50 -40 -50 -138q0 -58 70 -100q60 -38 122 -38q76 0 122 45t46 121z" />
    <glyph glyph-name="tha" unicode="&#x1011;" horiz-adv-x="1024" 
d="M964 242q0 -110 -69 -178t-179 -68q-140 0 -230 108q-68 -108 -210 -108q-98 0 -180 60q-92 64 -92 158q0 174 126 228q66 38 174 38q26 0 56 -14q78 -18 126 -94q30 46 84 70q66 38 174 38q26 0 56 -14q72 -16 118 -82t46 -142zM884 242q0 82 -66 130q-16 -2 -32 8
l-16 10l-12 4q-12 6 -14 6q-68 0 -120 -20q-6 -6 -16 -10h-2q-8 -10 -32 -18q-50 -40 -50 -138q0 -58 70 -100q60 -38 122 -38q76 0 122 45t46 121zM444 242q0 82 -66 130q-16 -2 -32 8l-16 10l-12 4q-12 6 -14 6q-68 0 -120 -20q-6 -6 -16 -10h-2q-8 -10 -32 -18
q-50 -40 -50 -138q0 -58 70 -100q60 -38 122 -38q76 0 122 45t46 121z" />
    <glyph glyph-name="da" unicode="&#x1012;" horiz-adv-x="590" 
d="M530 196q0 -98 -106 -150q-84 -42 -192 -42q-84 0 -154 56t-70 138q0 48 32 78t80 30q30 0 55 -26t25 -56q0 -38 -40 -38q-26 0 -36 26q-2 6 -10 16q-26 -2 -26 -30q0 -48 47 -82t97 -34q66 0 132 24q88 32 88 90q0 52 -74 78q-4 2 -116 38q-30 14 -30 32q0 16 72 58
l70 40q0 18 -112 18h-40q-22 -4 -28 -22q6 -12 6 -22q0 -26 -34 -26q-60 0 -60 58q0 30 20 55t50 33q16 4 82 4q218 0 204 -102q-4 -24 -36 -48q-28 -16 -54 -34q158 -46 158 -160z" />
    <glyph glyph-name="dha" unicode="&#x1013;" horiz-adv-x="584" 
d="M524 244q0 -110 -68 -178t-178 -68q-16 -12 -36 -8q-54 12 -80 32q-32 14 -64 36q-94 66 -94 158q0 174 126 228q66 38 174 38q26 0 56 -14q72 -16 118 -82t46 -142zM444 244q0 82 -66 130q-16 -2 -32 8l-16 10l-12 4q-12 6 -14 6q-68 0 -120 -20q-6 -6 -16 -10h-2
q-8 -10 -32 -18q-50 -40 -50 -138q0 -36 36 -72q10 62 53 108t103 46q134 0 156 -120q12 30 12 66zM356 148q0 70 -80 70q-32 0 -56 -35t-24 -69q0 -14 8 -22q34 -14 72 -14q42 0 76 14q-6 14 -2 30q6 12 6 26z" />
    <glyph glyph-name="na" unicode="&#x1014;" horiz-adv-x="524" 
d="M480 116q0 -104 -198 -142q0 -52 -7 -155t-7 -155q0 -88 22 -122q6 -12 6 -22q0 -40 -42 -40q-20 0 -32 18q-34 52 -34 180q0 48 7 143t7 143q-18 -2 -32 -2q-70 0 -120 34q-58 38 -58 106q0 116 140 116q124 0 144 -160q124 26 124 58q0 56 -78 86l-148 58
q-78 44 -78 120q0 58 46 100t104 42q134 0 134 -94t-92 -94q-32 0 -32 42q0 30 30 36q14 4 14 16q-12 14 -54 14q-24 0 -47 -19t-23 -43q0 -44 78 -76l148 -60q78 -48 78 -128zM198 44q-10 94 -66 94q-60 0 -60 -36q0 -26 38 -44q32 -16 60 -16q8 0 28 2z" />
    <glyph glyph-name="pa" unicode="&#x1015;" horiz-adv-x="584" 
d="M522 266q0 -118 -70 -190t-188 -72q-98 0 -172 60q-80 64 -80 158q0 84 6 108q8 34 56 88q14 16 38 16q48 0 48 -34q0 -10 -8 -20q-54 -64 -60 -82q-2 -6 -2 -76q0 -62 58 -102q52 -38 116 -38q84 0 131 50t47 134q0 118 -70 134q-30 8 -30 36q0 50 48 40q66 -14 102 -80
q30 -56 30 -130z" />
    <glyph glyph-name="pha" unicode="&#x1016;" horiz-adv-x="584" 
d="M522 266q0 -118 -70 -190t-188 -72q-98 0 -172 60q-80 64 -80 158q0 84 6 108q8 34 56 88q14 16 38 16q48 0 48 -34q0 -10 -8 -20q-54 -64 -60 -82q-2 -6 -2 -76q0 -62 58 -102q52 -38 116 -38q82 0 130 48q-70 12 -112 59t-42 117q0 114 114 170q20 10 38 0
q64 -16 100 -82q30 -56 30 -128zM442 266q0 114 -66 132q-56 -32 -56 -92q0 -98 116 -102q6 30 6 62z" />
    <glyph glyph-name="ba" unicode="&#x1017;" horiz-adv-x="580" 
d="M520 230q0 -112 -72 -176t-186 -64q-118 0 -190 78t-72 198q0 98 70 154q12 10 24 10q8 0 16 -4q40 4 44 -38q6 -60 18 -72q16 -22 64 -22q90 0 92 112q-10 12 -10 26q0 42 38 42q66 0 118 -92q46 -80 46 -152zM440 230q0 68 -40 120q-32 -136 -164 -136q-122 0 -152 100
q-4 -12 -4 -48q0 -80 52 -138t130 -58q178 0 178 160z" />
    <glyph glyph-name="bha" unicode="&#x1018;" horiz-adv-x="1020" 
d="M964 278q0 -128 -66 -208t-192 -86q-42 -2 -42 40q0 38 38 40q182 10 182 214q0 64 -56 110t-122 46t-116 -34q-56 -38 -58 -100q0 -10 -6 -20q2 -12 2 -24q0 -118 -84 -192t-204 -74q-156 0 -254 166q-6 10 -6 20q0 40 42 40q20 0 32 -20q74 -126 186 -126q86 0 147 51
t61 135q0 74 -72 122q-64 44 -142 44q-68 0 -142 -60q-12 -10 -26 -10q-40 0 -40 40q0 18 14 30q96 80 194 80q154 0 244 -108q68 120 228 120q102 0 180 -68t78 -168z" />
    <glyph glyph-name="ma" unicode="&#x1019;" horiz-adv-x="580" 
d="M520 230q0 -112 -72 -176t-186 -64q-6 -2 -20 0l-6 2q-98 10 -167 92t-69 182q0 94 70 154q12 10 24 10q42 0 42 -42q0 -16 -23 -37t-25 -27q-8 -12 -8 -58q0 -62 40 -116q12 60 55 104t101 44t103 -34t55 -90q6 26 6 56q0 130 -96 166q-26 10 -26 36q0 42 38 42
q66 0 118 -92q46 -80 46 -152zM356 86q-8 10 -8 22q0 6 4 19t4 21q0 70 -80 70q-32 0 -56 -35t-24 -69q0 -30 54 -44h12q56 0 94 16z" />
    <glyph glyph-name="ya" unicode="&#x101a;" horiz-adv-x="1024" 
d="M964 242q0 -110 -73 -175t-185 -69q-158 -6 -228 104q-92 -102 -226 -102q-110 0 -179 68t-69 178q0 80 51 147t127 79q46 6 46 -40q0 -32 -34 -38q-46 -8 -78 -54t-32 -94q0 -76 46 -121t122 -45q62 0 122 38q70 42 70 100q0 64 -20 98q-18 28 -76 64q-16 10 -16 30
q0 42 38 42q8 0 14 -4q140 -46 140 -230v-12q42 -128 182 -128q76 0 122 45t46 121q0 110 -108 148q-36 12 -36 40q0 46 46 40q78 -12 133 -81t55 -149z" />
    <glyph glyph-name="ra" unicode="&#x101b;" horiz-adv-x="536" 
d="M788 -370q6 -26 -4 -64t-28 -56q-54 -52 -160 -48q-112 4 -158 49t-46 157q0 24 -6 102q-6 76 0 152q14 180 14 342q0 72 -52 117t-126 45q-122 0 -154 -128q90 -8 158 -60q76 -58 76 -144q0 -112 -114 -112q-64 0 -88 22q-54 26 -87 92t-33 130q0 116 62 194
q68 86 180 86q108 0 183 -68t75 -174q0 -158 -14 -338q-6 -76 0 -154q6 -80 6 -104q0 -76 24 -102q16 -16 100 -24q62 -6 96 34q10 12 10 24t-14 34q-26 0 -26 38q0 40 58 40q52 0 68 -82zM222 94q0 54 -56 90q-46 30 -106 34q2 -4 2 -10q8 -24 12 -46q22 -58 48 -78
q14 0 24 -10h2q4 -2 16 -12h24q34 0 34 32z" />
    <glyph glyph-name="la" unicode="&#x101c;" horiz-adv-x="967" 
d="M261 143q31 -64 9 -122q-32 -37 -86 -37q-16 0 -32 8h-4q-16 -4 -30 10q-60 60 -78 92q-28 50 -28 126q0 118 73 190t191 72q204 0 242 -238q26 -156 188 -156q172 0 172 162q0 88 -53 138t-141 50h-32q-40 0 -40 38q0 40 40 40h14q12 2 18 2q120 0 196 -74t76 -194
q0 -116 -66 -178t-184 -62q-158 0 -220 102q-2 2 -66 188q-36 102 -144 102q-114 0 -162 -84q-16 -48 -17.5 -85.5t7 -67t24.5 -52.5t34 -41q8 -2 24 -10q26 0 8 63q4 20 9.5 30t12.5 12.5t14.5 -0.5t15.5 -9z" />
    <glyph glyph-name="wa" unicode="&#x101d;" horiz-adv-x="584" 
d="M524 244q0 -110 -69 -178t-179 -68q-98 0 -180 60q-92 64 -92 158q0 174 126 228q66 38 174 38q26 0 56 -14q72 -16 118 -82t46 -142zM444 244q0 82 -66 130q-16 -2 -32 8l-16 10l-12 4q-12 6 -14 6q-68 0 -120 -20q-6 -6 -16 -10h-2q-8 -10 -32 -18q-50 -40 -50 -138
q0 -58 70 -100q60 -38 122 -38q76 0 122 45t46 121z" />
    <glyph glyph-name="sa" unicode="&#x101e;" horiz-adv-x="1024" 
d="M960 254q0 -118 -69 -194t-185 -76q-132 0 -208 94q-30 -54 -88 -68q-40 -10 -134 -10q-138 0 -208 48q-38 26 -94 108q-6 8 -6 22q0 48 50 48q20 0 30 -18q38 -64 66 -86q54 -42 162 -42q76 0 124 42t48 118q0 82 -55 131t-139 49q-82 0 -152 -52q-10 -8 -24 -8
q-40 0 -40 40q0 20 16 32q90 68 200 68q108 0 185 -63t87 -169q8 -10 8 -24q0 -180 172 -180q80 0 127 54t47 136q0 90 -76 138q-66 42 -160 42q-40 0 -40 40t40 40q126 0 216 -66q100 -72 100 -194z" />
    <glyph glyph-name="ha" unicode="&#x101f;" horiz-adv-x="1018" 
d="M956 224q0 -86 -59 -150t-145 -64q-32 0 -32 42q0 28 30 36q128 30 128 136q0 82 -44 136t-124 54q-184 0 -178 -138q0 -10 -4 -18q-8 -104 -62 -176q-62 -82 -160 -82q-296 0 -296 300q0 48 38 104q40 64 84 64q42 0 42 -38q0 -20 -54 -70q-32 -30 -32 -60
q0 -116 51 -169t167 -53q72 0 112 72q34 58 34 136q0 54 -46 88t-102 34q-40 0 -40 40q0 38 40 38q118 0 186 -86q70 92 220 92q114 0 180 -76t66 -192z" />
    <glyph glyph-name="lla" unicode="&#x1020;" horiz-adv-x="524" 
d="M524 -354q0 -108 -90 -170q-78 -54 -192 -54q-242 0 -242 202q0 144 16 196q34 110 144 110q24 0 71 -3t71 -3q142 0 142 52q0 46 -50 46q-14 0 -43 -6t-43 -6q-300 0 -300 204q0 120 76 190t198 70q82 0 190 -62q20 -12 20 -34q0 -42 -38 -42q-12 0 -22 4
q-96 54 -150 54q-194 0 -194 -180q0 -124 220 -124q14 0 43 6t43 6q130 0 130 -126q0 -132 -216 -132q-24 0 -74 3t-74 3q-60 0 -76 -90q-4 -22 -4 -136q0 -122 162 -122q76 0 134 34q68 40 68 110q0 40 -58 40q-8 0 -34 -20q-16 -12 -28 -12q-30 0 -30 36q0 34 29 55t63 21
q58 0 98 -32t40 -88z" />
    <glyph glyph-name="a.let" unicode="&#x1021;" horiz-adv-x="1024" 
d="M962 224q0 -94 -48 -164q-54 -80 -144 -80t-90 98q0 140 176 206q12 4 22 2q-30 144 -148 144q-82 0 -138 -47t-74 -127q12 -26 12 -60q0 -98 -106 -150q-84 -42 -192 -42q-84 0 -154 56t-70 138q0 48 32 78t80 30q30 0 55 -26t25 -56q0 -38 -40 -38q-26 0 -36 26
q-2 6 -10 16q-26 -2 -26 -30q0 -48 47 -82t97 -34q66 0 132 24q88 32 88 90q0 52 -74 78q-4 2 -116 38q-30 14 -30 32q0 16 72 58l70 40q0 18 -112 18h-40q-22 -4 -28 -22q6 -12 6 -22q0 -26 -34 -26q-60 0 -60 58q0 30 20 55t50 33q16 4 82 4q218 0 204 -102
q-4 -24 -36 -48q-28 -16 -54 -34q54 -16 84 -34q72 186 274 186q114 0 176 -88q56 -78 56 -196zM882 210q-122 -48 -122 -132v-18h10q102 0 112 150z" />
    <glyph glyph-name="shan.a" unicode="&#x1022;" horiz-adv-x="1028" 
d="M956 244q0 -104 -68 -177t-172 -73q-100 0 -100 64q0 44 36 44q16 0 32 -20q6 -8 32 -8q68 0 114 51t46 119q0 200 -176 200q-70 0 -123 -47t-53 -115q0 -16 -8 -26q-4 -68 -32 -126q-36 -76 -94 -76q-38 0 -38 42q0 24 22 34q62 30 62 142q0 80 -48 131t-128 51
q-64 0 -112 -40t-48 -102q0 -4 42 -84t42 -108q0 -62 -43 -98t-105 -36q-136 0 -136 124q0 46 30 84l14 18q12 16 32 16q40 0 40 -40q0 -14 -8 -24l-14 -18q-14 -18 -14 -36q0 -44 56 -44q68 0 68 54l-42 76q-42 76 -42 116q0 96 71 159t169 63q154 0 222 -126q36 50 111 87
t139 37q108 0 170 -94q54 -80 54 -194z" />
    <glyph glyph-name="i.let" unicode="&#x1023;" horiz-adv-x="1026" 
d="M1176 -380q0 -80 -49 -131t-129 -51q-152 0 -152 238q0 -12 2 4v90q0 70 -49 117t-119 47q-156 0 -174 -112q12 -40 12 -84q0 -40 -40 -40t-40 40q0 24 -10 72q-32 92 -128 92q-160 0 -160 -138q0 -8 5 -23t5 -23q0 -40 -42 -40q-48 0 -48 86q0 106 66 162t174 56
q98 0 158 -68q70 100 222 100q32 0 62 -8q-12 12 -12 34q0 28 36 40q108 38 108 146q0 76 -46 121t-122 45q-140 0 -182 -126v-12q0 -184 -140 -232q-6 -2 -14 -2q-38 0 -38 40q0 28 28 38q84 28 84 156q0 58 -70 100q-60 38 -122 38q-76 0 -122 -45t-46 -121q0 -50 31 -95
t79 -53q34 -6 34 -40q0 -48 -46 -40q-78 12 -130 82q-48 64 -48 146q0 108 70 177t178 69q134 0 226 -104q70 110 228 104q114 -4 186 -68t72 -176q0 -84 -56 -152q-58 -74 -140 -76q72 -26 116 -89t44 -141v-46q0 -28 -2 -44v-4q0 -158 72 -158q98 0 98 102q0 54 -28 54
q-14 -14 -32 -14q-46 0 -46 40q0 18 24 32l2 4q20 18 52 18q108 0 108 -134z" />
    <glyph glyph-name="ii.let" unicode="&#x1024;" horiz-adv-x="1128" 
d="M1360 666q0 -48 -34 -48q-10 0 -20 8q-108 106 -198 156q-116 64 -242 64q-68 0 -119 -45t-51 -111q0 -140 196 -184q116 2 152 -94q18 -48 26 -204q4 -78 4 -606q0 -40 -10 -52q-40 -112 -250 -112q-60 0 -179 -10t-179 -10q-196 0 -338 44q-38 12 -62 28q-24 4 -32 32
q-24 24 -24 46q0 10 6 20q64 150 192 206q96 42 286 42q330 0 330 -168q0 -74 -80 -96q-20 -6 -34 7t-14 33q0 28 28 36q20 6 20 20q0 88 -250 88q-132 0 -242 -32q-158 -46 -158 -136q0 -8 4 -18q82 -74 368 -74q60 0 179 11t179 11q160 0 178 66v620q0 102 -46 202
q-34 2 -66 8q84 -66 84 -186q0 -50 -20 -658q-8 -20 -28 -20q4 0 -30 6q-22 4 -20 68q8 264 8 602q0 76 -46 121t-122 45q-140 0 -182 -126v-12q0 -184 -140 -232q-6 -2 -14 -2q-38 0 -38 40q0 28 28 38q84 28 84 156q0 58 -70 100q-60 38 -122 38q-76 0 -122 -45t-46 -121
q0 -50 31 -95t79 -53q34 -6 34 -40q0 -48 -46 -40q-78 12 -130 82q-48 64 -48 146q0 108 70 177t178 69q134 0 226 -104q70 110 228 104q10 0 30 -2q-118 76 -118 220q0 102 72 169t176 67q156 0 278 -64q88 -46 200 -156q16 -16 16 -40z" />
    <glyph glyph-name="u.let" unicode="&#x1025;" horiz-adv-x="610" 
d="M514 -335q0 -86 -71 -147t-159 -61q-138 0 -218 94q-76 88 -76 228q0 322 18 376q2 34 42 34q22 0 34 -22q44 -88 168 -88q146 0 146 174q0 76 -43 123t-117 47q-94 0 -138 -98q-12 -24 -34 -24q-42 0 -42 38q0 10 4 18q66 146 210 146q110 0 175 -70t65 -180
q0 -108 -58 -178q-62 -76 -168 -76q-104 0 -170 48q-2 -32 -2 -268q0 -232 204 -232q48 0 94 36t46 82q0 54 -76 102q-22 14 -22 36q0 48 46 48q12 0 24 -8q118 -74 118 -178z" />
    <glyph glyph-name="uu.let" unicode="&#x1026;" horiz-adv-x="610" 
d="M514 -335q0 -86 -71 -147t-159 -61q-138 0 -218 94q-76 88 -76 228q0 322 18 376q2 34 42 34q22 0 34 -22q44 -88 168 -88q146 0 146 174q0 76 -43 123t-117 47q-94 0 -138 -98q-12 -24 -34 -24q-42 0 -42 38q0 10 4 18q66 146 210 146q110 0 175 -70t65 -180
q0 -108 -58 -178q-62 -76 -168 -76q-104 0 -170 48q-2 -32 -2 -268q0 -232 204 -232q48 0 94 36t46 82q0 54 -76 102q-22 14 -22 36q0 48 46 48q12 0 24 -8q118 -74 118 -178zM564 743q0 -110 -94 -174q-82 -56 -198 -56t-198 56q-94 64 -94 174q0 112 92 184q84 66 200 66
t200 -66q92 -72 92 -184zM480 743q0 82 -62 130t-146 48q-82 0 -142 -48q-66 -52 -66 -130q0 -84 80 -130q-2 12 -2 26q0 66 58 104q50 32 120 32q98 0 152 -82q8 24 8 50zM424 631q-8 4 -16 16q-30 50 -88 50q-34 0 -62 -12q-38 -16 -38 -46q0 -24 12 -36q6 -4 34 -18h6
q94 0 152 46z" />
    <glyph glyph-name="e.let" unicode="&#x1027;" horiz-adv-x="560" 
d="M498 144q0 -64 -72 -106q-62 -38 -130 -38q-36 0 -110 21t-110 41q-6 6 -10 12q-66 58 -66 174q0 108 67 171t175 63q40 0 90 -16l88 -28q26 -8 28 -32q12 -18 0 -40q-26 -48 -84 -77t-116 -29q-88 0 -152 68q-16 -34 -16 -80q0 -48 18 -82q40 44 110 71t134 27
q156 0 156 -120zM356 376q-72 26 -114 26q-52 0 -90 -18q38 -46 96 -46q62 0 108 38zM420 144q0 28 -24 36q-6 2 -48 2q-50 0 -108 -18q-70 -22 -90 -54q50 -30 146 -30q32 0 74 18q50 20 50 46z" />
    <glyph glyph-name="mon.e" unicode="&#x1028;" horiz-adv-x="610" 
d="M398 327q-15 26 -40 48q-50 43 -114 43q-71 0 -123 -52t-52 -123v-396q0 -71 52 -123.5t123 -52.5q72 0 124 51t52 125q0 40 40 40q39 0 39 -40q0 -108 -74.5 -182t-180.5 -74q-104 0 -179 76t-75 180v396q0 105 75 179.5t179 74.5t180 -74q30 -31 48 -66q25 -51 26 -113
q1 -104 -74 -179q-72 -71 -170 -75q-15 -1 -26 1q-55 11 -84 78q-4 13 -7 31q4 32 21 43q29 19 91 42q45 20 45 38v8q0 26 -29 42q-19 5 -32 3.5t-25.5 -25t-12.5 -33t3 -29.5q-7 -15 -20 -17h-7q-27 2 -36 30l-3 22v4q0 44 53 90q29 21 63 21q61 0 100 -69q7 -20 6 -44
q-10 -94 -144 -120q-6 -13 20 -38q6 -1 16 -1t22 2q57 7 100 51q52 52 52 124q0 46 -22 83z" />
    <glyph glyph-name="o.let" unicode="&#x1029;" horiz-adv-x="1230" 
d="M1104 -238q0 -332 -320 -332h-494q-302 0 -302 262q0 74 6 210l6 136q2 30 0 76l-2 72l-10 398q-4 164 62 254q74 100 234 100l492 -2q96 0 178 -40q102 -48 102 -134q0 -76 -62 -76q-38 0 -38 30q0 10 10 28l10 18q0 74 -196 94q-20 2 -496 2q-122 0 -168 -78
q-36 -60 -36 -190l-2 -402q0 -62 -5 -189t-5 -193v-114q0 -182 222 -182h494q240 0 240 252q0 180 -70 180q-6 0 -22 -4q-2 -38 -40 -38q-34 0 -40 34q-4 4 -4 12q2 14 24 40q32 36 82 36q150 0 150 -260zM971 382q42 -65 42 -144q0 -63 -26 -114t-86 -93.5t-140 -42.5
q-130 0 -205 107l-10 15q-25 -45 -68 -77q-32 -23 -68 -35q-19 -5 -36.5 -8t-37.5 -3q-66 0 -129.5 30.5t-113.5 82.5l50 47q33 -37 90 -69q53 -25 105 -25q55 0 98 32q40 33 61 73t21 89q0 55 -32 98q-25 35 -67.5 56.5t-88.5 21.5q-55 0 -104 -31q-45 -39 -45 -47l7 -17
q12 -15 32 -18l18 5l33 -60l-26 -12l-25 -1q-19 0 -27 1.5t-28 13t-34 36.5q-16 22 -16 49q0 26 20 55.5t53 47.5q65 45 143 45q62 0 116 -26.5t95 -85t41 -136.5v-19q0 -10 -3 -23q0 -23 20 -57l10 -11q26 -37 67 -58t88 -21q56 0 105 34q76 53 76 153q0 57 -29 101t-58 63
t-63 19q-31 0 -66 -17.5t-75 -47.5l-44 50q32 32 84.5 57t99.5 25q53 0 96.5 -26t79.5 -82z" />
    <glyph glyph-name="au.let" unicode="&#x102a;" horiz-adv-x="2294" 
d="M1703 -238q0 -332 -320 -332h-494q-302 0 -302 262q0 74 6 210l6 136q2 30 0 76l-2 72l-10 398q-4 164 62 254q74 100 234 100l492 -2q96 0 178 -40q102 -48 102 -134q0 -76 -62 -76q-38 0 -38 30q0 10 10 28l10 18q0 74 -196 94q-20 2 -496 2q-122 0 -168 -78
q-36 -60 -36 -190l-2 -402q0 -62 -5 -189t-5 -193v-114q0 -182 222 -182h494q240 0 240 252q0 180 -70 180q-6 0 -22 -4q-2 -38 -40 -38q-34 0 -40 34q-4 4 -4 12q2 14 24 40q32 36 82 36q150 0 150 -260zM1570 382q42 -65 42 -144q0 -63 -26 -114t-86 -93.5t-140 -42.5
q-130 0 -205 107l-10 15q-25 -45 -68 -77q-32 -23 -68 -35q-19 -5 -36.5 -8t-37.5 -3q-66 0 -129.5 30.5t-113.5 82.5l50 47q33 -37 90 -69q53 -25 105 -25q55 0 98 32q40 33 61 73t21 89q0 55 -32 98q-25 35 -67.5 56.5t-88.5 21.5q-55 0 -104 -31q-45 -39 -45 -47l7 -17
q12 -15 32 -18l18 5l33 -60l-26 -12l-25 -1q-19 0 -27 1.5t-28 13t-34 36.5q-16 22 -16 49q0 26 20 55.5t53 47.5q65 45 143 45q62 0 116 -26.5t95 -85t41 -136.5v-19q0 -10 -3 -23q0 -23 20 -57l10 -11q26 -37 67 -58t88 -21q56 0 105 34q76 53 76 153q0 57 -29 101t-58 63
t-63 19q-31 0 -66 -17.5t-75 -47.5l-44 50q32 32 84.5 57t99.5 25q53 0 96.5 -26t79.5 -82zM510 144q0 -64 -72 -106q-62 -38 -130 -38q-134 0 -208 56q-16 6 -22 18q-66 58 -66 174q0 108 67 171t175 63q30 0 178 -44q28 -8 28 -36q0 -42 -38 -42q-24 0 -82 21t-86 21
q-162 0 -162 -154q0 -48 18 -82q40 44 110 71t134 27q156 0 156 -120zM432 144q0 28 -24 36q-6 2 -48 2q-50 0 -108 -18q-70 -22 -90 -54q50 -30 146 -30q32 0 74 18q50 20 50 46zM2147 254q0 -90 -44 -160q-48 -78 -134 -84q-20 -16 -44 -2q-54 32 -56 88l-4 12h4
q0 52 46 108q14 16 30 16q40 0 40 -40q0 -14 -10 -26q-28 -34 -28 -62q0 -10 2 -14h6q56 0 88 56q26 46 26 108q0 84 -34 140q-40 66 -120 66q-86 0 -142 -50t-72 -136q-6 -32 -38 -32q-18 0 -31 14t-9 32q48 250 292 250q114 0 176 -88q56 -78 56 -196zM2413 742
q0 -48 -34 -48q-10 0 -20 8q-108 106 -198 156q-116 64 -242 64q-68 0 -119 -45t-51 -111q0 -160 256 -194q20 -2 36 -23t16 -41q0 -26 -28 -26q-150 0 -246 66q-112 76 -112 218q0 104 72 170t176 66q156 0 278 -64q88 -46 200 -156q16 -16 16 -40z" />
    <glyph glyph-name="aa.vow.alt.dot" unicode="&#x102b;" horiz-adv-x="733" 
d="M72 209l-60 -11q-6 23 -6 55q0 15 1 29.5t5 26.5l60 -10q-4 -11 -4.5 -22t-0.5 -24q0 -12 0.5 -23t4.5 -21zM152 92l-34 -50q-48 31 -78 79l49 36q24 -40 63 -65zM469 121q-29 -48 -76 -79l-35 50q40 25 64 65zM152 414q-39 -24 -63 -64l-49 36q15 24 34.5 43.5
t43.5 34.5zM469 386l-47 -36q-25 40 -64 64l35 50q24 -15 43 -34.5t33 -43.5zM504 253q0 -29 -6 -55l-59 11q6 21 6 44q0 24 -6 46l59 10q6 -26 6 -56zM309 6q-30 -6 -54 -6q-25 0 -55 6l10 60q12 -4 23 -4.5t22 -0.5t22 0.5t22 4.5zM309 502l-10 -61q-11 3 -22 4.5t-22 1.5
t-22 -1.5t-23 -4.5l-10 61q30 7 55 7q24 0 54 -7zM669 38q0 -38 -42 -38q-30 0 -42 44t-20 216q-4 88 -4 72v4q0 48 8 145t8 145q0 140 -30 198q-44 84 -168 84q-90 0 -156 -44q-74 -50 -74 -136q0 -56 42 -100t98 -44t56 22q0 40 40 40q38 0 38 -40q0 -48 -41 -74t-93 -26
q-88 0 -153 67t-65 155q0 118 98 192q88 68 210 68q160 0 226 -104q52 -84 52 -254q0 52 -6 -156q-2 -70 6 -152q4 -42 0 -138q-4 -94 10 -132q2 -8 2 -14z" />
    <glyph glyph-name="aa.vow.dot" unicode="&#x102c;" horiz-adv-x="1146" 
d="M72 209l-60 -11q-6 23 -6 55q0 15 1 29.5t5 26.5l60 -10q-4 -11 -4.5 -22t-0.5 -24q0 -12 0.5 -23t4.5 -21zM152 92l-34 -50q-48 31 -78 79l49 36q24 -40 63 -65zM469 121q-29 -48 -76 -79l-35 50q40 25 64 65zM152 414q-39 -24 -63 -64l-49 36q15 24 34.5 43.5
t43.5 34.5zM469 386l-47 -36q-25 40 -64 64l35 50q24 -15 43 -34.5t33 -43.5zM504 253q0 -29 -6 -55l-59 11q6 21 6 44q0 24 -6 46l59 10q6 -26 6 -56zM309 6q-30 -6 -54 -6q-25 0 -55 6l10 60q12 -4 23 -4.5t22 -0.5t22 0.5t22 4.5zM309 502l-10 -61q-11 3 -22 4.5t-22 1.5
t-22 -1.5t-23 -4.5l-10 61q30 7 55 7q24 0 54 -7zM1054 207q0 -90 -44 -160q-48 -78 -134 -84q-20 -16 -44 -2q-54 32 -56 88l-4 12h4q0 52 46 108q14 16 30 16q40 0 40 -40q0 -14 -10 -26q-28 -34 -28 -62q0 -10 2 -14h6q56 0 88 56q26 46 26 108q0 84 -34 140
q-40 66 -120 66q-86 0 -142 -50t-72 -136q-6 -32 -38 -32q-18 0 -31 14t-9 32q48 250 292 250q114 0 176 -88q56 -78 56 -196z" />
    <glyph glyph-name="i.vow.dot" unicode="&#x102d;" horiz-adv-x="578" 
d="M72 209l-60 -11q-6 23 -6 55q0 15 1 29.5t5 26.5l60 -10q-4 -11 -4.5 -22t-0.5 -24q0 -12 0.5 -23t4.5 -21zM152 92l-34 -50q-48 31 -78 79l49 36q24 -40 63 -65zM469 121q-29 -48 -76 -79l-35 50q40 25 64 65zM152 414q-39 -24 -63 -64l-49 36q15 24 34.5 43.5
t43.5 34.5zM469 386l-47 -36q-25 40 -64 64l35 50q24 -15 43 -34.5t33 -43.5zM504 253q0 -29 -6 -55l-59 11q6 21 6 44q0 24 -6 46l59 10q6 -26 6 -56zM309 6q-30 -6 -54 -6q-25 0 -55 6l10 60q12 -4 23 -4.5t22 -0.5t22 0.5t22 4.5zM309 502l-10 -61q-11 3 -22 4.5t-22 1.5
t-22 -1.5t-23 -4.5l-10 61q30 7 55 7q24 0 54 -7zM570 672q0 -110 -94 -174q-82 -56 -198 -56t-198 56q-94 64 -94 174q0 112 92 184q84 66 200 66t200 -66q92 -72 92 -184zM486 672q0 82 -62 130t-146 48q-82 0 -142 -48q-66 -52 -66 -130q0 -80 68 -122q56 -36 140 -36
t140 36q68 42 68 122z" />
    <glyph glyph-name="ii.vow.dot" unicode="&#x102e;" horiz-adv-x="582" 
d="M72 209l-60 -11q-6 23 -6 55q0 15 1 29.5t5 26.5l60 -10q-4 -11 -4.5 -22t-0.5 -24q0 -12 0.5 -23t4.5 -21zM152 92l-34 -50q-48 31 -78 79l49 36q24 -40 63 -65zM469 121q-29 -48 -76 -79l-35 50q40 25 64 65zM152 414q-39 -24 -63 -64l-49 36q15 24 34.5 43.5
t43.5 34.5zM469 386l-47 -36q-25 40 -64 64l35 50q24 -15 43 -34.5t33 -43.5zM504 253q0 -29 -6 -55l-59 11q6 21 6 44q0 24 -6 46l59 10q6 -26 6 -56zM309 6q-30 -6 -54 -6q-25 0 -55 6l10 60q12 -4 23 -4.5t22 -0.5t22 0.5t22 4.5zM309 502l-10 -61q-11 3 -22 4.5t-22 1.5
t-22 -1.5t-23 -4.5l-10 61q30 7 55 7q24 0 54 -7zM570 672q0 -110 -94 -174q-82 -56 -198 -56t-198 56q-94 64 -94 174q0 112 92 184q84 66 200 66t200 -66q92 -72 92 -184zM486 672q0 82 -62 130t-146 48q-82 0 -142 -48q-66 -52 -66 -130q0 -84 80 -130q-2 12 -2 26
q0 66 58 104q50 32 120 32q98 0 152 -82q8 24 8 50zM430 560q-8 4 -16 16q-30 50 -88 50q-34 0 -62 -12q-38 -16 -38 -46q0 -24 12 -36q6 -4 34 -18h6q94 0 152 46z" />
    <glyph glyph-name="u.vow.dot" unicode="&#x102f;" horiz-adv-x="578" 
d="M72 209l-60 -11q-3 11 -4.5 25t-1.5 30q0 15 1 29.5t5 26.5l60 -10q-4 -11 -4.5 -22t-0.5 -24q0 -12 0.5 -23t4.5 -21zM152 92l-34 -50q-48 32 -78 79l49 36q24 -40 63 -65zM422 157l47 -36q-29 -48 -76 -79l-35 50q39 24 64 65zM118 464l34 -50q-39 -24 -63 -64l-49 36
q30 47 78 78zM469 386l-47 -36q-25 39 -64 64l35 50q47 -30 76 -78zM504 253q0 -29 -6 -55l-59 11q6 21 6 44q0 24 -6 46l59 10q6 -26 6 -56zM299 66l10 -60q-30 -6 -54 -6q-25 0 -55 6l10 60q12 -4 23 -4.5t22 -0.5t22 0.5t22 4.5zM309 502l-10 -61q-11 3 -22 4.5t-22 1.5
t-22 -1.5t-23 -4.5l-10 61q15 3 28.5 5t26.5 2q7 0 20.5 -2t33.5 -5zM716 -339q0 -86 -71 -147t-159 -61q-138 0 -218 94q-76 88 -76 228q0 164 12 246q6 40 44 40q52 0 44 -52q-8 -50 -12 -112q-2 -28 0 -74l2 -48q10 -232 204 -232q48 0 94 36t46 82v28q-4 2 -12 10
q-22 18 -22 36q0 48 46 48l24 -8q54 -20 54 -114z" />
    <glyph glyph-name="uu.vow.dot" unicode="&#x1030;" horiz-adv-x="592" 
d="M72 209l-60 -11q-3 11 -4.5 25t-1.5 30q0 15 1 29.5t5 26.5l60 -10q-4 -11 -4.5 -22t-0.5 -24q0 -12 0.5 -23t4.5 -21zM152 92l-34 -50q-48 32 -78 79l49 36q24 -40 63 -65zM422 157l47 -36q-29 -48 -76 -79l-35 50q39 24 64 65zM118 464l34 -50q-39 -24 -63 -64l-49 36
q30 47 78 78zM469 386l-47 -36q-25 39 -64 64l35 50q47 -30 76 -78zM504 253q0 -29 -6 -55l-59 11q6 21 6 44q0 24 -6 46l59 10q6 -26 6 -56zM299 66l10 -60q-30 -6 -54 -6q-25 0 -55 6l10 60q12 -4 23 -4.5t22 -0.5t22 0.5t22 4.5zM309 502l-10 -61q-11 3 -22 4.5t-22 1.5
t-22 -1.5t-23 -4.5l-10 61q15 3 28.5 5t26.5 2q7 0 20.5 -2t33.5 -5zM871 -207q18 -30 27 -57.5t9 -53.5q0 -90 -103 -154q-93 -55 -208 -55q-55 0 -82.5 4.5t-59.5 17.5q-57 20 -100 68q-25 24 -42 57q-16 27 -26 63l-2 7v297h67v-289q8 -28 18 -46.5t33 -41.5
q39 -42 90 -57q32 -8 44.5 -10.5t52.5 -2.5q110 10 180 52q72 38 72 96q0 30 -27 69zM217 -520h-66v507h66v-507z" />
    <glyph glyph-name="e.vow.dot" unicode="&#x1031;" horiz-adv-x="1123" 
d="M591 209l-59 -11q-5 23 -5 55q0 15 1 29.5t4 26.5l59 -10q-2 -11 -3 -22t-1 -24q0 -12 1 -23t3 -21zM672 92l-34 -50q-48 31 -78 79l49 36q23 -40 63 -65zM990 121q-30 -48 -78 -79l-33 50q39 25 62 65zM672 414q-40 -24 -63 -64l-49 36q15 24 34 43.5t44 34.5zM990 386
l-49 -36q-23 40 -62 64l33 50q25 -15 44 -34.5t34 -43.5zM1024 253q0 -29 -5 -55l-60 11q5 21 5 44q0 24 -5 46l60 10q5 -26 5 -56zM830 6q-31 -6 -55 -6t-55 6l10 60q12 -4 23 -4.5t22 -0.5q12 0 23 0.5t22 4.5zM830 502l-10 -61q-11 3 -22 4.5t-23 1.5q-11 0 -22 -1.5
t-23 -4.5l-10 61q31 7 55 7t55 -7zM498 144q0 -64 -72 -106q-62 -38 -130 -38q-134 0 -208 56q-16 6 -22 18q-66 58 -66 174q0 108 67 171t175 63q30 0 178 -44q28 -8 28 -36q0 -42 -38 -42q-24 0 -82 21t-86 21q-162 0 -162 -154q0 -48 18 -82q40 44 110 71t134 27
q156 0 156 -120zM420 144q0 28 -24 36q-6 2 -48 2q-50 0 -108 -18q-70 -22 -90 -54q50 -30 146 -30q32 0 74 18q50 20 50 46z" />
    <glyph glyph-name="ai.vow.dot" unicode="&#x1032;" horiz-adv-x="582" 
d="M394 620q12 -10 14 -31q0 -17 -11.5 -29t-28.5 -12q-14 0 -24 8l-244 187q-12 10 -15 30q0 17 11.5 30t28.5 13q14 0 25 -9zM72 209l-60 -11q-6 23 -6 55q0 15 1 29.5t5 26.5l60 -10q-4 -11 -4.5 -22t-0.5 -24q0 -12 0.5 -23t4.5 -21zM152 92l-34 -50q-48 31 -78 79
l49 36q24 -40 63 -65zM469 121q-29 -48 -76 -79l-35 50q40 25 64 65zM152 414q-39 -24 -63 -64l-49 36q15 24 34.5 43.5t43.5 34.5zM469 386l-47 -36q-25 40 -64 64l35 50q24 -15 43 -34.5t33 -43.5zM504 253q0 -29 -6 -55l-59 11q6 21 6 44q0 24 -6 46l59 10q6 -26 6 -56z
M309 6q-30 -6 -54 -6q-25 0 -55 6l10 60q12 -4 23 -4.5t22 -0.5t22 0.5t22 4.5zM309 502l-10 -61q-11 3 -22 4.5t-22 1.5t-22 -1.5t-23 -4.5l-10 61q30 7 55 7q24 0 54 -7z" />
    <glyph glyph-name="mon.ii.vow.dot" unicode="&#x1033;" horiz-adv-x="578" 
d="M452 731q1 -87 -58.5 -144.5t-146.5 -59.5q-82 -1 -141.5 59t-60.5 145t58.5 145t143.5 62q85 1 144 -60t61 -147zM373 732q1 51 -36.5 88.5t-89.5 38.5q-50 2 -86 -36t-37 -91q-1 -52 35.5 -89.5t87.5 -37.5q53 0 89 37t37 90zM72 209l-60 -11q-6 23 -6 55q0 15 1 29.5
t5 26.5l60 -10q-4 -11 -4.5 -22t-0.5 -24q0 -12 0.5 -23t4.5 -21zM152 92l-34 -50q-48 31 -78 79l49 36q24 -40 63 -65zM469 121q-29 -48 -76 -79l-35 50q40 25 64 65zM152 414q-39 -24 -63 -64l-49 36q15 24 34.5 43.5t43.5 34.5zM469 386l-47 -36q-25 40 -64 64l35 50
q24 -15 43 -34.5t33 -43.5zM504 253q0 -29 -6 -55l-59 11q6 21 6 44q0 24 -6 46l59 10q6 -26 6 -56zM309 6q-30 -6 -54 -6q-25 0 -55 6l10 60q12 -4 23 -4.5t22 -0.5t22 0.5t22 4.5zM309 502l-10 -61q-11 3 -22 4.5t-22 1.5t-22 -1.5t-23 -4.5l-10 61q30 7 55 7q24 0 54 -7z
M319 734q2 -30 -20 -51t-52 -22q-30 -2 -49.5 20.5t-20.5 52.5q-1 29 19.5 49t50.5 21t51 -20t21 -50zM265 734q1 15 -18 16q-15 0 -16 -16q-1 -19 16 -19q18 -1 18 19z" />
    <glyph glyph-name="mon.o.vow.dot" unicode="&#x1034;" horiz-adv-x="582" 
d="M343 807q11 9 25 9q17 0 28.5 -13t11.5 -30q-3 -20 -15 -30l-244 -187q-10 -8 -24 -8q-17 0 -28.5 12t-11.5 29q2 21 14 31zM72 209l-60 -11q-6 23 -6 55q0 15 1 29.5t5 26.5l60 -10q-4 -11 -4.5 -22t-0.5 -24q0 -12 0.5 -23t4.5 -21zM152 92l-34 -50q-48 31 -78 79
l49 36q24 -40 63 -65zM469 121q-29 -48 -76 -79l-35 50q40 25 64 65zM152 414q-39 -24 -63 -64l-49 36q15 24 34.5 43.5t43.5 34.5zM469 386l-47 -36q-25 40 -64 64l35 50q24 -15 43 -34.5t33 -43.5zM504 253q0 -29 -6 -55l-59 11q6 21 6 44q0 24 -6 46l59 10q6 -26 6 -56z
M309 6q-30 -6 -54 -6q-25 0 -55 6l10 60q12 -4 23 -4.5t22 -0.5t22 0.5t22 4.5zM309 502l-10 -61q-11 3 -22 4.5t-22 1.5t-22 -1.5t-23 -4.5l-10 61q30 7 55 7q24 0 54 -7z" />
    <glyph glyph-name="eabove.vow.dot" unicode="&#x1035;" horiz-adv-x="582" 
d="M71 209l-60 -11q-2 11 -3.5 25t-1.5 30q0 15 1 29.5t4 26.5l60 -10q-3 -11 -3.5 -22t-0.5 -24q0 -12 0.5 -23t3.5 -21zM151 92l-33 -50q-48 32 -78 79l49 36q11 -20 26.5 -36.5t35.5 -28.5zM421 157l48 -36q-29 -48 -77 -79l-34 50q40 25 63 65zM118 464l33 -50
q-20 -12 -35.5 -27.5t-26.5 -36.5l-49 36q15 24 34 43.5t44 34.5zM469 386l-48 -36q-25 40 -63 64l34 50q25 -15 44 -34.5t33 -43.5zM503 253q0 -14 -1.5 -28t-3.5 -27l-59 11q6 21 6 44q0 24 -6 46l59 10q2 -13 3.5 -27t1.5 -29zM299 66l10 -60q-30 -6 -54 -6q-25 0 -55 6
l10 60q11 -4 22 -4.5t23 -0.5q11 0 22 0.5t22 4.5zM309 502l-10 -61q-11 3 -22 4.5t-22 1.5q-12 0 -23 -1.5t-22 -4.5l-10 61q15 3 28.5 5t26.5 2q7 0 20.5 -2t33.5 -5zM477 640q-4 -57 -70 -90q-59 -30 -119 -26q-119 7 -183 59q-14 10 -19 19q-55 56 -49 159q6 96 70 149
t160 47q27 -2 155 -49q26 -9 24 -33q-2 -37 -36 -35q-22 1 -72.5 23t-75.5 23q-145 9 -154 -129q-2 -42 14 -75q36 37 100.5 57.5t120.5 16.5q140 -8 134 -116zM405 645q1 25 -17 33q-5 3 -45 5q-44 3 -96 -8q-63 -17 -85 -45q45 -30 130 -36q29 -1 67 14q45 15 46 37z" />
    <glyph glyph-name="anusvara.dot" unicode="&#x1036;" horiz-adv-x="582" 
d="M352 677q2 -44 -30.5 -75t-75.5 -32q-43 -2 -72 30.5t-30 76.5q-1 42 29 71.5t73 30.5q43 2 73.5 -29t32.5 -73zM273 677q1 22 -27 23q-22 1 -23 -23q-1 -27 23 -28q26 -1 27 28zM72 209l-60 -11q-6 23 -6 55q0 15 1 29.5t5 26.5l60 -10q-4 -11 -4.5 -22t-0.5 -24
q0 -12 0.5 -23t4.5 -21zM152 92l-34 -50q-48 31 -78 79l49 36q24 -40 63 -65zM469 121q-29 -48 -76 -79l-35 50q40 25 64 65zM152 414q-39 -24 -63 -64l-49 36q15 24 34.5 43.5t43.5 34.5zM469 386l-47 -36q-25 40 -64 64l35 50q24 -15 43 -34.5t33 -43.5zM504 253
q0 -29 -6 -55l-59 11q6 21 6 44q0 24 -6 46l59 10q6 -26 6 -56zM309 6q-30 -6 -54 -6q-25 0 -55 6l10 60q12 -4 23 -4.5t22 -0.5t22 0.5t22 4.5zM309 502l-10 -61q-11 3 -22 4.5t-22 1.5t-22 -1.5t-23 -4.5l-10 61q30 7 55 7q24 0 54 -7z" />
    <glyph glyph-name="aukmyit.dot" unicode="&#x1037;" horiz-adv-x="592" 
d="M370 -188q0 -38 -28.5 -68t-66.5 -30t-65 31.5t-27 71.5t25.5 63t66.5 23q39 0 67 -27t28 -64zM302 -188q0 24 -27 24q-23 0 -23 -17q0 -35 23 -35q27 0 27 28zM72 209l-60 -11q-6 23 -6 55q0 15 1 29.5t5 26.5l60 -10q-4 -11 -4.5 -22t-0.5 -24q0 -12 0.5 -23t4.5 -21z
M152 92l-34 -50q-48 31 -78 79l49 36q24 -40 63 -65zM469 121q-29 -48 -76 -79l-35 50q40 25 64 65zM152 414q-39 -24 -63 -64l-49 36q15 24 34.5 43.5t43.5 34.5zM469 386l-47 -36q-25 40 -64 64l35 50q24 -15 43 -34.5t33 -43.5zM504 253q0 -29 -6 -55l-59 11q6 21 6 44
q0 24 -6 46l59 10q6 -26 6 -56zM309 6q-30 -6 -54 -6q-25 0 -55 6l10 60q12 -4 23 -4.5t22 -0.5t22 0.5t22 4.5zM309 502l-10 -61q-11 3 -22 4.5t-22 1.5t-22 -1.5t-23 -4.5l-10 61q30 7 55 7q24 0 54 -7z" />
    <glyph glyph-name="visarga.dot" unicode="&#x1038;" horiz-adv-x="250" 
d="M233 365q0 -45 -31.5 -76.5t-76.5 -31.5t-76.5 31.5t-31.5 76.5t31.5 76.5t76.5 31.5t76.5 -31.5t31.5 -76.5zM233 128q0 -45 -31.5 -76.5t-76.5 -31.5t-76.5 31.5t-31.5 76.5t31.5 77t76.5 32t76.5 -32t31.5 -77zM167 365q0 18 -10 28t-32 14q-18 0 -28 -10t-14 -32
q0 -18 10 -28t32 -14q18 0 28 10t14 32zM167 128q0 19 -10 29t-32 13q-18 0 -28 -10t-14 -32q0 -18 10 -28t32 -13q18 0 28 10t14 31z" />
    <glyph glyph-name="virama" unicode="&#x1039;" horiz-adv-x="1241" 
d="M1060 658h-88v60h150v-80q0 -12 -1 -36t-1 -36h-60v92zM82 -369h-40q-27 -1 -41 -1v152h60v-91h90v-60h-69zM853 -369h119v60h88v91h60v-70q0 -13 1 -40t1 -41l-310 -4zM1 717h150v-59h-90v-92h-60v151zM1 346h60v-151h-60v151zM1060 532h60v-151h-60v151zM1060 346h60
v-151h-60v151zM778 658v60h150v-60h-150zM1060 162h60v-152h-60v152zM1 162h60v-152h-60v152zM1060 -24h60v-151h-60v151zM1 -24h60v-151h-60v151zM1 532h60v-151h-60v151zM195 -369v60h150v-60h-150zM390 -369v60h149v-60h-149zM778 -369v60h150v-60h-150zM584 -369v60h149
v-60h-149zM195 658v60h150v-60h-150zM584 658v60h149v-60h-149zM390 658v60h149v-60h-149zM577 -188v-81h-52v81h-90v51h90v80h52v-80h76v-51h-76zM362 209l-60 -11q-5 23 -5 55q0 15 1 29.5t4 26.5l60 -10q-3 -11 -3.5 -22t-0.5 -24q0 -12 0.5 -23t3.5 -21zM442 92l-33 -50
q-48 31 -78 79l49 36q23 -40 62 -65zM760 121q-29 -48 -77 -79l-34 50q40 25 63 65zM442 414q-39 -24 -62 -64l-49 36q15 24 34 43.5t44 34.5zM760 386l-48 -36q-24 40 -63 64l34 50q25 -15 44 -34.5t33 -43.5zM794 253q0 -29 -5 -55l-59 11q6 21 6 44q0 24 -6 46l59 10
q5 -26 5 -56zM600 6q-30 -6 -54 -6q-25 0 -55 6l10 60q11 -4 22 -4.5t23 -0.5q11 0 22 0.5t22 4.5zM600 502l-10 -61q-11 3 -22 4.5t-22 1.5q-12 0 -23 -1.5t-22 -4.5l-10 61q30 7 55 7q24 0 54 -7z" />
    <glyph glyph-name="asat.dot" unicode="&#x103a;" horiz-adv-x="586" 
d="M72 209l-60 -11q-3 11 -4.5 25t-1.5 30q0 15 1 29.5t5 26.5l60 -10q-4 -11 -4.5 -22t-0.5 -24q0 -12 0.5 -23t4.5 -21zM152 92l-34 -50q-48 32 -78 79l49 36q24 -40 63 -65zM422 157l47 -36q-29 -48 -76 -79l-35 50q39 24 64 65zM118 464l34 -50q-39 -24 -63 -64l-49 36
q30 47 78 78zM469 386l-47 -36q-25 39 -64 64l35 50q47 -30 76 -78zM504 253q0 -29 -6 -55l-59 11q6 21 6 44q0 24 -6 46l59 10q6 -26 6 -56zM299 66l10 -60q-30 -6 -54 -6q-25 0 -55 6l10 60q12 -4 23 -4.5t22 -0.5t22 0.5t22 4.5zM309 502l-10 -61q-11 3 -22 4.5t-22 1.5
t-22 -1.5t-23 -4.5l-10 61q15 3 28.5 5t26.5 2q7 0 20.5 -2t33.5 -5zM672 666q0 -48 -34 -48q-10 0 -20 8q-108 106 -198 156q-116 64 -242 64q-68 0 -119 -45t-51 -111q0 -160 256 -194q20 -2 36 -23t16 -41q0 -26 -28 -26q-150 0 -246 66q-112 76 -112 218q0 104 72 170
t176 66q156 0 278 -64q88 -46 200 -156q16 -16 16 -40z" />
    <glyph glyph-name="ya.med.dot" unicode="&#x103b;" horiz-adv-x="774" 
d="M72 209l-60 -11q-3 11 -4.5 25t-1.5 30q0 15 1 29.5t5 26.5l60 -10q-4 -11 -4.5 -22t-0.5 -24q0 -12 0.5 -23t4.5 -21zM152 92l-34 -50q-48 32 -78 79l49 36q24 -40 63 -65zM422 157l47 -36q-29 -48 -76 -79l-35 50q39 24 64 65zM118 464l34 -50q-39 -24 -63 -64l-49 36
q30 47 78 78zM469 386l-47 -36q-25 39 -64 64l35 50q47 -30 76 -78zM504 253q0 -29 -6 -55l-59 11q6 21 6 44q0 24 -6 46l59 10q6 -26 6 -56zM299 66l10 -60q-30 -6 -54 -6q-25 0 -55 6l10 60q12 -4 23 -4.5t22 -0.5t22 0.5t22 4.5zM309 502l-10 -61q-11 3 -22 4.5t-22 1.5
t-22 -1.5t-23 -4.5l-10 61q15 3 28.5 5t26.5 2q7 0 20.5 -2t33.5 -5zM648 -312l-2 -5q-5 -16 -8 -35q-9 -30 -15 -48q-15 -55 -49 -85q-28 -30 -71 -48q-47 -17 -90 -17q-117 0 -190 73q-54 54 -79 108t-25 119q0 132 69 200q60 60 155 60q63 0 113 -62q47 -65 47 -130
q5 -56 -33.5 -102t-91.5 -46q-25 0 -52 16.5t-50 48.5l53 40q30 -38 57 -38q18 0 30 20t20 61q5 32 -32 84q-36 46 -61 41q-75 0 -114 -35q-43 -43 -43 -158q0 -53 16 -88t67 -92q20 -22 60 -37t85 -15q37 0 65.5 8.5t48.5 33.5q15 10 30 57l23 80v750h67v-759z" />
    <glyph glyph-name="ra.med.dot" unicode="&#x103c;" horiz-adv-x="788" 
d="M208 209l-60 -11q-6 23 -6 55q0 15 1 29.5t5 26.5l60 -10q-4 -11 -4.5 -22t-0.5 -24q0 -12 0.5 -23t4.5 -21zM288 92l-34 -50q-47 31 -77 79l49 36q11 -20 27 -36.5t35 -28.5zM557 157l49 -36q-29 -48 -77 -79l-35 50q39 25 63 65zM254 464l34 -50q-19 -12 -35 -27.5
t-27 -36.5l-49 36q28 48 77 78zM606 386l-49 -36q-24 40 -63 64l35 50q47 -30 77 -78zM640 253q0 -38 -6 -55l-58 11q2 11 3 22t1 22q0 12 -1 23.5t-3 22.5l58 10q6 -17 6 -56zM436 66l10 -60q-30 -6 -55 -6q-24 0 -54 6l10 60q11 -4 22 -4.5t22 -0.5t22 0.5t23 4.5z
M446 502l-10 -61q-24 6 -45 6q-23 0 -44 -6l-10 61q20 3 33.5 5t20.5 2q13 0 26.5 -2t28.5 -5zM644 -238q0 -332 -320 -332q-336 0 -336 262q0 74 6 210l6 136q2 30 0 76l-2 72l-10 398q-8 354 296 354q104 0 194 -36q118 -48 118 -140q0 -76 -62 -76q-38 0 -38 30
q0 10 10 28l10 18q0 48 -98 76q-70 20 -134 20q-122 0 -168 -78q-36 -60 -36 -190l-2 -402q0 -62 -5 -189t-5 -193v-114q0 -182 256 -182q240 0 240 252q0 180 -70 180q-6 0 -22 -4q-2 -38 -40 -38q-34 0 -40 34q-4 4 -4 12q2 14 24 40q32 36 82 36q150 0 150 -260z" />
    <glyph glyph-name="wa.med.dot" unicode="&#x103d;" horiz-adv-x="606" 
d="M72 209l-60 -11q-6 23 -6 55q0 15 1 29.5t5 26.5l60 -10q-4 -11 -4.5 -22t-0.5 -24q0 -12 0.5 -23t4.5 -21zM152 92l-34 -50q-48 31 -78 79l49 36q24 -40 63 -65zM469 121q-29 -48 -76 -79l-35 50q40 25 64 65zM152 414q-39 -24 -63 -64l-49 36q15 24 34.5 43.5
t43.5 34.5zM469 386l-47 -36q-25 40 -64 64l35 50q24 -15 43 -34.5t33 -43.5zM504 253q0 -29 -6 -55l-59 11q6 21 6 44q0 24 -6 46l59 10q6 -26 6 -56zM309 6q-30 -6 -54 -6q-25 0 -55 6l10 60q12 -4 23 -4.5t22 -0.5t22 0.5t22 4.5zM309 502l-10 -61q-11 3 -22 4.5t-22 1.5
t-22 -1.5t-23 -4.5l-10 61q30 7 55 7q24 0 54 -7zM590 -272q0 -126 -94 -208t-222 -82t-222 82t-94 208t94 208t222 82t222 -82t94 -208zM510 -272q0 94 -70 152t-166 58q-92 0 -164 -59t-72 -151t72 -151t164 -59q94 0 165 59t71 151z" />
    <glyph glyph-name="ha.med.dot" unicode="&#x103e;" horiz-adv-x="582" 
d="M72 209l-60 -11q-3 11 -4.5 25t-1.5 30q0 15 1 29.5t5 26.5l60 -10q-4 -11 -4.5 -22t-0.5 -24q0 -12 0.5 -23t4.5 -21zM152 92l-34 -50q-48 32 -78 79l49 36q24 -40 63 -65zM422 157l47 -36q-29 -48 -76 -79l-35 50q39 24 64 65zM118 464l34 -50q-39 -24 -63 -64l-49 36
q30 47 78 78zM469 386l-47 -36q-25 39 -64 64l35 50q47 -30 76 -78zM504 253q0 -29 -6 -55l-59 11q6 21 6 44q0 24 -6 46l59 10q6 -26 6 -56zM299 66l10 -60q-30 -6 -54 -6q-25 0 -55 6l10 60q12 -4 23 -4.5t22 -0.5t22 0.5t22 4.5zM309 502l-10 -61q-11 3 -22 4.5t-22 1.5
t-22 -1.5t-23 -4.5l-10 61q15 3 28.5 5t26.5 2q7 0 20.5 -2t33.5 -5zM338 -242q0 -140 -76 -228q-80 -94 -218 -94q-88 0 -159 61t-71 147q0 96 54 114l24 8q46 0 46 -48q0 -18 -22 -36q-8 -8 -12 -10v-28q0 -46 46 -82t94 -36q194 0 204 232l2 48q2 46 0 74q-4 62 -12 112
q-8 52 44 52q38 0 44 -40q12 -82 12 -246z" />
    <glyph glyph-name="great.sa" unicode="&#x103f;" horiz-adv-x="1486" 
d="M1424 290q0 -140 -70 -220t-208 -80q-180 0 -242 96q-64 -72 -198 -72q-132 0 -208 94q-66 -118 -222 -118q-138 0 -208 48q-38 26 -94 108q-6 8 -6 22q0 48 50 48q20 0 30 -18q38 -64 66 -86q54 -42 162 -42q76 0 124 42t48 118q0 82 -55 131t-139 49q-82 0 -152 -52
q-10 -8 -24 -8q-40 0 -40 40q0 20 16 32q90 68 200 68q108 0 185 -63t87 -169q8 -10 8 -24q0 -64 56 -104q50 -36 116 -36q52 0 101 32t67 80q-2 14 -2 30q0 14 8 24q-8 82 -84 126q-64 38 -152 38q-40 0 -40 40t40 40q126 0 216 -66q100 -72 100 -194q0 -22 -6 -44
q22 -130 192 -130q198 0 198 220q0 80 -50 136t-130 56q-24 0 -34 -2q-18 -6 -34 7t-16 31q0 44 84 44q118 0 189 -76t71 -196z" />
    <glyph glyph-name="m.zero" unicode="&#x1040;" horiz-adv-x="584" 
d="M524 244q0 -110 -69 -178t-179 -68q-98 0 -180 60q-92 64 -92 158q0 174 126 228q66 38 174 38q26 0 56 -14q72 -16 118 -82t46 -142zM444 244q0 82 -66 130q-16 -2 -32 8l-16 10l-12 4q-12 6 -14 6q-68 0 -120 -20q-6 -6 -16 -10h-2q-8 -10 -32 -18q-50 -40 -50 -138
q0 -58 70 -100q60 -38 122 -38q76 0 122 45t46 121z" />
    <glyph glyph-name="m.one" unicode="&#x1041;" horiz-adv-x="604" 
d="M548 230q0 -110 -71 -175t-181 -65q-140 0 -234 78q-64 52 -130 168q-6 10 -6 20q0 40 42 40q20 0 32 -20q60 -106 116 -150q72 -56 180 -56q76 0 124 42t48 118q0 82 -55 131t-139 49q-82 0 -152 -52q-10 -8 -24 -8q-40 0 -40 40q0 20 16 32q90 68 200 68q120 0 197 -71
t77 -189z" />
    <glyph glyph-name="m.two" unicode="&#x1042;" horiz-adv-x="578" 
d="M514 -232q0 -140 -76 -228q-80 -94 -218 -94q-8 0 -12 2h-12q-136 0 -218 84t-82 220q0 90 84 204q12 16 32 16q40 0 40 -40q0 -12 -8 -24q-68 -94 -68 -156q0 -102 59 -163t161 -61q10 0 20 2l4 6q6 0 24 2q50 28 66 28q8 0 12 -2q108 56 102 204l-12 350
q-10 290 -18 344q-8 52 44 52q40 0 44 -40q32 -312 32 -706z" />
    <glyph glyph-name="m.three" unicode="&#x1043;" horiz-adv-x="578" 
d="M532 218q0 -102 -68 -163t-172 -61q-122 0 -194 54q62 -170 82 -260l36 -162q24 -106 54 -142q10 -12 10 -26q0 -40 -40 -40q-18 0 -34 20q-42 50 -64 152l-38 174l-64 188q-36 106 -36 192q0 42 34 42q28 0 54 -26l14 -14q72 -72 186 -72q70 0 115 38t45 106
q0 74 -50 127t-124 53q-104 0 -184 -80q-12 -12 -28 -12q-40 0 -40 40q0 16 12 28q104 104 240 104q106 0 180 -77t74 -183z" />
    <glyph glyph-name="m.four" unicode="&#x1044;" horiz-adv-x="578" 
d="M532 144q0 -86 -36 -192l-64 -188l-38 -174q-22 -102 -64 -152q-16 -20 -34 -20q-40 0 -40 40q0 14 10 26q26 32 52 142l38 162q16 68 82 260q-72 -54 -194 -54q-104 0 -172 61t-68 163q0 106 74 183t180 77q136 0 240 -104q12 -12 12 -28q0 -40 -40 -40q-16 0 -28 12
q-80 80 -184 80q-74 0 -124 -53t-50 -127q0 -68 45 -106t115 -38q114 0 186 72l14 14q26 26 54 26q34 0 34 -42z" />
    <glyph glyph-name="m.five" unicode="&#x1045;" horiz-adv-x="578" 
d="M540 -254q0 -328 -348 -328q-126 0 -214 68q-94 72 -102 196q-2 42 40 42q38 0 40 -38q4 -92 76 -142q64 -46 160 -46q268 0 268 248q0 54 -13 164t-13 164q0 24 5 71t5 71q0 194 -168 194q-120 0 -178 -90q94 -10 154 -54q74 -54 74 -140q0 -56 -35 -88t-91 -32
q12 0 -52 12q-22 4 -28 26q-54 22 -89 84t-35 124q0 116 84 180q76 58 196 58q116 0 182 -79t66 -197q0 -24 -6 -74t-6 -74q0 -54 14 -160t14 -160zM246 126q0 52 -56 84q-44 26 -104 32l4 -54q30 -66 70 -72q12 -2 28 -18l12 -12q46 0 46 40z" />
    <glyph glyph-name="m.six" unicode="&#x1046;" horiz-adv-x="606" 
d="M378 324h-4q-42 0 -42 40q0 12 6 22q12 18 -6 33t-38 15q-54 0 -54 -54q0 -40 28 -52q8 -4 62 -8l26 -2q4 0 22 6zM666 632q4 -44 -40 -44q-36 0 -40 36q-10 92 -83 151t-167 59q-250 0 -260 -284q2 30 6 30q4 -4 8 -28q12 -76 12 -120q0 -30 -3 -87t-3 -87
q0 -92 24 -142q16 -34 100 -52q64 -14 116 -14q62 0 98 58q30 50 30 116q0 30 -48 30q-6 0 -27 -8t-33 -8q-10 0 -27 2t-27 2q-142 0 -142 138q0 54 40 94t94 40q48 0 89 -34t41 -82q0 -50 -32 -68q16 4 24 4q128 0 128 -110q0 -98 -54 -172q-60 -82 -154 -82
q-234 0 -288 112q-30 62 -30 164q0 28 3 85t3 85q0 46 -14 126q-4 22 -8 22q-6 0 -6 -36q0 172 82 274q90 112 258 112q124 0 220 -80t110 -202z" />
    <glyph glyph-name="m.seven" unicode="&#x1047;" horiz-adv-x="580" 
d="M528 206q0 -90 -104 -318t-104 -292q0 -68 76 -116q18 -12 18 -32q0 -42 -40 -42q-44 0 -90 74q-44 68 -44 116q0 64 104 292t104 318q0 192 -188 192q-74 0 -130 -40q-62 -44 -62 -116q0 -60 34 -105t92 -45q40 0 40 -40t-40 -40q-92 0 -149 68t-57 162q0 104 86 172
q80 64 186 64q122 0 195 -75t73 -197z" />
    <glyph glyph-name="m.eight" unicode="&#x1048;" horiz-adv-x="580" 
d="M528 218q0 -68 -28 -126q-30 -64 -88 -90q-10 -2 -18 -2q-38 0 -38 40q0 10 35 45t39 45q18 40 18 88q0 88 -51 141t-139 53q-80 0 -136 -70q64 -14 110 -90q42 -68 42 -138q0 -130 -114 -130q-24 0 -34 22q-126 56 -126 230q0 102 78 178t180 76q120 0 195 -76t75 -196z
M196 114q0 44 -28 94q-32 58 -72 58h-10q-4 -14 -4 -30q0 -70 24 -102q16 -26 80 -62q10 12 10 42z" />
    <glyph glyph-name="m.nine" unicode="&#x1049;" horiz-adv-x="606" 
d="M378 180q-16 6 -22 6q-10 0 -27 -2t-27 -2q-62 0 -62 -58q0 -54 54 -54q20 0 38 15t6 33q-6 10 -6 22q0 40 42 40h4zM666 -228q-14 -122 -110 -202t-220 -80q-168 0 -258 112q-82 102 -82 274q0 38 10 78q18 74 18 134q0 28 -3 85t-3 85q0 102 30 164q54 112 288 112
q94 0 154 -82q54 -74 54 -172q0 -110 -128 -110q-10 0 -24 4q32 -20 32 -68t-41 -82t-89 -34q-54 0 -94 40t-40 94q0 138 142 138q10 0 27 2t27 2q12 0 33 -8t27 -8q48 0 48 30q0 66 -30 116q-36 58 -98 58q-52 0 -116 -14q-84 -18 -100 -52q-24 -50 -24 -142q0 -30 3 -87
t3 -87q0 -34 -13 -98t-13 -98q0 -306 260 -306q94 0 167 59t83 151q4 36 40 36q44 0 40 -44z" />
    <glyph glyph-name="littlesection.sig" unicode="&#x104a;" horiz-adv-x="246" 
d="M136 28q0 -40 -39 -40q-40 0 -40 40v431q0 40 40 40q39 0 39 -40v-431z" />
    <glyph glyph-name="section.sig" unicode="&#x104b;" horiz-adv-x="380" 
d="M268 42q0 -40 -38 -40q-40 0 -40 40v396q0 40 40 40q38 0 38 -40v-396zM128 42q0 -40 -38 -40q-40 0 -40 40v396q0 40 40 40q38 0 38 -40v-396z" />
    <glyph glyph-name="locative.sig" unicode="&#x104c;" horiz-adv-x="524" 
d="M696 666q0 -50 -34 -48q-10 0 -20 8q-108 106 -198 156q-116 64 -242 64q-68 0 -119 -45t-51 -111q0 -160 256 -194q26 -4 42 -34q186 -48 186 -248q0 -204 -300 -204q-14 0 -43 6t-43 6q-50 0 -50 -46q0 -52 142 -52q24 0 71 3t71 3q110 0 144 -110q16 -52 16 -196
q0 -202 -242 -202q-114 0 -192 54q-90 62 -90 170q0 56 40 88t98 32q34 0 63 -21t29 -55q0 -36 -30 -36q-12 0 -28 12q-26 20 -34 20q-58 0 -58 -40q0 -70 68 -110q58 -34 134 -34q162 0 162 122q0 114 -4 136q-16 90 -76 90q-24 0 -74 -3t-74 -3q-216 0 -216 132
q0 126 130 126q14 0 43 -6t43 -6q220 0 220 124q0 180 -194 180q-50 0 -150 -54q-2 0 -12 -7t-14 -7q-38 0 -38 36q0 40 62 72q8 2 20 8l6 4q-162 74 -162 244q0 102 72 169t176 67q156 0 278 -64q88 -46 200 -156q16 -16 16 -40z" />
    <glyph glyph-name="completed.sig" unicode="&#x104d;" horiz-adv-x="680" 
d="M910 686q0 -48 -32 -48q-10 0 -20 8q-110 106 -200 156q-116 64 -242 64q-64 0 -116 -46t-52 -110q0 -140 194 -184q116 2 152 -94q18 -48 26 -204q2 -38 2 -636q6 -10 4 -24q0 -12 -4 -24v-24q-4 -4 -22 -14q-32 -32 -104 -38q20 2 -114 2h-54q-32 0 -50 -2h-8
q-272 0 -272 158q0 92 59 158t149 66q80 0 120 -53t40 -135q0 -38 -40 -38q-38 0 -38 38q0 108 -82 108q-52 0 -90 -45t-38 -99q0 -78 194 -78h110l48 -2q94 -4 112 18v660q8 68 -14 158q-8 34 -32 44q-36 2 -68 10q72 -64 72 -172q0 -52 -6 -148q-8 -102 -8 -150l-2 -248
q4 -10 4 -20v-86q0 -38 -38 -38q-40 0 -40 38v62q-2 14 -4 148q-2 118 0 144q14 186 14 298q0 80 -62 124q-52 38 -136 38q-122 0 -154 -128q90 -8 158 -60q76 -58 76 -144q0 -112 -114 -112q-64 0 -88 22q-54 26 -87 92t-33 130q0 116 62 194q68 86 180 86q24 0 44 -2
q-98 76 -98 206q0 104 72 170t176 66q150 0 264 -56q98 -48 214 -164q16 -16 16 -40zM222 94q0 54 -56 90q-46 30 -106 34q2 -4 2 -10q8 -24 12 -46q22 -58 48 -78q14 0 24 -10h2q4 -2 16 -12h24q34 0 34 32z" />
    <glyph glyph-name="aforementioned.sig" unicode="&#x104e;" horiz-adv-x="544" 
d="M528 -526q8 -48 -40 -48q-34 0 -40 32q-56 308 -56 500q0 42 2 70q-64 -40 -160 -40q-106 0 -168 76q-58 70 -58 178q0 110 65 180t175 70q144 0 210 -146q4 -8 4 -18q0 -38 -42 -38q-22 0 -34 24q-44 98 -138 98q-74 0 -117 -47t-43 -123q0 -174 146 -174q124 0 168 88
q12 26 44 26q48 0 40 -46q-14 -78 -14 -178q0 -154 56 -484z" />
    <glyph glyph-name="genetive.sig" unicode="&#x104f;" horiz-adv-x="800" 
d="M990 666q0 -48 -32 -48q-10 0 -20 8q-110 106 -200 156q-116 64 -242 64q-64 0 -116 -46t-52 -110q0 -140 194 -184q116 2 152 -94q18 -48 26 -204q2 -38 2 -188q-36 -26 -58 -26q-20 0 -20 26q0 80 -2 184q8 68 -14 158q-8 34 -32 44q-12 2 -24 2q46 -34 46 -178
q0 -32 3 -97t3 -97q0 -40 -38 -40q-36 0 -44 54v88q-2 16 -2 42v46q-2 20 -2 4q0 84 -10 106q-8 0 -20 7t-16 7l-14 -8q-18 -10 -30 -6q-66 -76 -180 -76q-88 0 -152 68q-16 -34 -16 -80q0 -48 18 -82q40 44 110 71t134 27q156 0 156 -120q0 -64 -72 -106q-62 -38 -130 -38
q-36 0 -110 21t-110 41q-6 6 -10 12q-66 58 -66 174q0 128 118 190q92 48 154 48q52 0 104 -22q-128 76 -128 226q0 104 71 170t177 66q150 0 264 -56q98 -48 214 -164q16 -16 16 -40zM474 422q-32 10 -62 22q16 -10 44 -44q6 16 18 22zM356 376q-28 26 -114 26
q-52 0 -90 -18q38 -46 96 -46q62 0 108 38zM420 144q0 28 -24 36q-6 2 -48 2q-50 0 -108 -18q-70 -22 -90 -54q50 -30 146 -30q32 0 74 18q50 20 50 46z" />
    <glyph glyph-name="ga.sha" unicode="&#x1050;" horiz-adv-x="610" 
d="M327 228q0 -69 -69 -71q-65 -1 -69 70q-3 61 69 67q63 0 69 -66zM280 227q0 17 -22 23q-18 0 -24 -23q0 -18 24 -24q20 0 22 24zM532 212q0 -124 -92 -172q-14 -8 -60 -18q-40 -2 -40 44q0 2 10 13t10 13q36 8 64 45t28 75q0 86 -45 142t-129 56q-76 0 -133 -58t-57 -134
q0 -96 106 -148q22 -10 22 -34q0 -42 -38 -42q-12 0 -20 4q-150 74 -150 220q0 110 80 191t190 81q118 0 186 -79t68 -199z" />
    <glyph glyph-name="pa.ssa" unicode="&#x1051;" horiz-adv-x="610" 
d="M327 270q0 -70 -69 -71q-65 -1 -69 69q-3 61 69 69q63 0 69 -67zM280 268q0 18 -22 24q-18 0 -24 -24q0 -18 24 -24q20 0 22 24zM532 272q0 -120 -68 -199t-186 -79q-110 0 -190 81t-80 191q0 146 150 220q8 4 20 4q38 0 38 -42q0 -24 -22 -34q-106 -52 -106 -148
q0 -76 57 -134t133 -58q84 0 129 56t45 142q0 38 -28 75t-64 45q0 2 -10 13t-10 13q0 46 40 44q46 -10 60 -18q92 -48 92 -172z" />
    <glyph glyph-name="r.vol" unicode="&#x1052;" horiz-adv-x="658" 
d="M0 248q0 162 106 214q8 4 20 4q38 0 38 -42q0 -24 -22 -34q-62 -30 -62 -142q0 -80 48 -131t128 -51q64 0 112 40t48 102q0 4 -42 84t-42 108q0 62 43 98t105 36q136 0 136 -124q0 -46 -30 -84l-14 -18q-12 -16 -32 -16q-40 0 -40 40q0 14 8 24l14 18q14 18 14 36
q0 44 -56 44q-68 0 -68 -54l42 -76q42 -76 42 -116q0 -96 -71 -159t-169 -63q-114 0 -185 74t-71 188z" />
    <glyph glyph-name="rr.vol" unicode="&#x1053;" horiz-adv-x="610" 
d="M264 80q54 -1 105.5 34.5t64.5 84.5v27q-1 5 -14 28q-2 6 -36 19q-25 9 -40 20q-56 41 -60 101q-3 45 32.5 79t81.5 36q38 1 77 -28q36 -27 37 -67t-39 -41q-39 -1 -40 41q0 13 -17 17q-17 3 -35 -7t-19 -27q1 -31 68 -59l16 -8q19 -7 34 -24q35 -24 30 -106q0 -6 -2 -17
q-20 -76 -91.5 -128.5t-152.5 -53.5q-86 -1 -154.5 52t-96.5 137l-3 9q-8 71 31 107q17 15 50 32q64 24 68 59q0 17 -19 26.5t-37 7.5q-12 -4 -14 -17q0 -40 -40 -41q-39 -1 -40 41t37 68q34 25 77 27q45 1 80 -34.5t33 -80.5q-1 -57 -61 -101q-12 -9 -56 -26
q-13 -6 -18 -12t-16 -33q16 -62 66 -101t113 -41z" />
    <glyph glyph-name="l.vol" unicode="&#x1054;" horiz-adv-x="582" 
d="M20 234q0 114 66 174q4 12 20 18q74 56 210 56q68 0 130 -38q72 -42 72 -106q0 -120 -158 -120q-64 0 -134 27t-110 71q-18 -34 -18 -82q0 -154 162 -154q28 0 87 21t81 21q38 0 38 -42q0 -28 -28 -36l-88 -28q-52 -16 -90 -16q-108 0 -174 63t-66 171zM168 372
q20 -32 90 -54q58 -18 108 -18q42 0 48 2q24 8 24 36q0 26 -50 46q-42 18 -72 18q-98 0 -148 -30z" />
    <glyph glyph-name="ll.vol" unicode="&#x1055;" horiz-adv-x="903" 
d="M450 199q17 -1 40 -27q17 -19 36 -40q52 -53 125 -52q53 2 89 27q20 14 63 66q4 10 14 17q15 9 22 9q40 -1 40 -40q0 -15 -8 -27l-1 -1l-2 -3h-1l-18 -24q-21 -25 -28 -32q-65 -70 -170 -70q-108 0 -182 72q-15 18 -16 20l-21 -22q-65 -70 -170 -70q-108 0 -181.5 72
t-78.5 180q-2 69 29 129t91 90q10 18 35 18q43 20 92 20q118 1 197 -79q14 -14 23 -30q19 -28 19 -50q0 -19 -9 -24q-69 -71 -150 -70q-30 0 -63 10q-95 26 -133 116q-59 -55 -53 -127q7 -75 57.5 -126.5t124.5 -50.5q54 2 89 27q20 14 63 66q4 10 14 17q15 9 22 9zM387 379
q-57 55 -137 54q-23 0 -47 -6q28 -88 124 -88q40 0 74 25z" />
    <glyph glyph-name="r.vow.dot" unicode="&#x1056;" horiz-adv-x="1048" 
d="M533 79q-5 5 34.5 24.5t36.5 25.5q59 -59 119 -58q52 0 106 33.5t65 81.5q-2 10 0 21q0 39 -34 50q-52 22 -58 26q-56 41 -58 101q-1 65 66 103q20 10 50 10q44 0 78 -21q41 -26 40 -66q0 -42 -40 -40q-39 1 -39 40q-2 13 -20 13q-20 0 -33 -6q-24 -15 -24 -29
q3 -36 65 -60q36 -14 49 -30q27 -19 33 -66q7 -33 -3 -51q-20 -80 -90.5 -135t-152.5 -54q-118 1 -190 87zM72 209l-60 -11q-6 23 -6 55q0 15 1 29.5t5 26.5l60 -10q-4 -11 -4.5 -22t-0.5 -24q0 -12 0.5 -23t4.5 -21zM152 92l-34 -50q-48 31 -78 79l49 36q24 -40 63 -65z
M469 121q-29 -48 -76 -79l-35 50q40 25 64 65zM152 414q-39 -24 -63 -64l-49 36q15 24 34.5 43.5t43.5 34.5zM469 386l-47 -36q-25 40 -64 64l35 50q24 -15 43 -34.5t33 -43.5zM504 253q0 -29 -6 -55l-59 11q6 21 6 44q0 24 -6 46l59 10q6 -26 6 -56zM309 6q-30 -6 -54 -6
q-25 0 -55 6l10 60q12 -4 23 -4.5t22 -0.5t22 0.5t22 4.5zM309 502l-10 -61q-11 3 -22 4.5t-22 1.5t-22 -1.5t-23 -4.5l-10 61q30 7 55 7q24 0 54 -7z" />
    <glyph glyph-name="rr.vow.dot" unicode="&#x1057;" horiz-adv-x="1518" 
d="M929 200q7 21 12.5 46.5t42.5 31.5q19 2 30 -9t11 -18q5 -70 55 -122t122 -51q53 1 105.5 33.5t65.5 81.5q-1 11 0 20q0 40 -34 50q-53 23 -59 27q-56 42 -57 102q-4 65 66 101q21 11 50 11q44 0 78 -22q42 -25 40 -65q-1 -43 -40 -40q-39 1 -39 40q-1 14 -20 14
q-20 0 -32 -8q-26 -13 -26 -29q4 -34 67 -60q33 -13 49 -30q26 -18 33 -65q6 -33 -4 -51q-20 -79 -91.5 -134.5t-151.5 -54.5q-140 1 -216 123q-81 -123 -216 -123q-103 0 -176 74q-54 54 -69 120q-2 11 16 22t36 11q17 0 23 -10q8 -18 17 -35q17 -37 32 -52q51 -51 121 -51
q73 0 126 54q18 19 33 68zM72 209l-60 -11q-6 23 -6 55q0 15 1 29.5t5 26.5l60 -10q-4 -11 -4.5 -22t-0.5 -24q0 -12 0.5 -23t4.5 -21zM152 92l-34 -50q-48 31 -78 79l49 36q24 -40 63 -65zM469 121q-29 -48 -76 -79l-35 50q40 25 64 65zM152 414q-39 -24 -63 -64l-49 36
q15 24 34.5 43.5t43.5 34.5zM469 386l-47 -36q-25 40 -64 64l35 50q24 -15 43 -34.5t33 -43.5zM504 253q0 -29 -6 -55l-59 11q6 21 6 44q0 24 -6 46l59 10q6 -26 6 -56zM309 6q-30 -6 -54 -6q-25 0 -55 6l10 60q12 -4 23 -4.5t22 -0.5t22 0.5t22 4.5zM309 502l-10 -61
q-11 3 -22 4.5t-22 1.5t-22 -1.5t-23 -4.5l-10 61q30 7 55 7q24 0 54 -7z" />
    <glyph glyph-name="l.vow.dot" unicode="&#x1058;" horiz-adv-x="592" 
d="M409 -337q-60 -60 -156 -62q-84 -2 -144 48t-61 131q-1 79 64 131q58 50 141 50q116 0 176 -87q10 -26 14 -46q2 -27 -7 -36q-61 -45 -129 -46q-114 -2 -165 100q-24 -28 -25 -66q-2 -51 43 -81q39 -28 93 -29q57 -2 116 51q8 18 28 19q12 0 25 -12q7 -6 11 -25
q-6 -14 -24 -40zM199 -116q27 -70 106 -70q38 0 75 24h-11q-2 1 -10 11q-43 43 -106 43q-27 0 -54 -8zM72 209l-60 -11q-6 23 -6 55q0 15 1 29.5t5 26.5l60 -10q-4 -11 -4.5 -22t-0.5 -24q0 -12 0.5 -23t4.5 -21zM152 92l-34 -50q-48 31 -78 79l49 36q24 -40 63 -65z
M469 121q-29 -48 -76 -79l-35 50q40 25 64 65zM152 414q-39 -24 -63 -64l-49 36q15 24 34.5 43.5t43.5 34.5zM469 386l-47 -36q-25 40 -64 64l35 50q24 -15 43 -34.5t33 -43.5zM504 253q0 -29 -6 -55l-59 11q6 21 6 44q0 24 -6 46l59 10q6 -26 6 -56zM309 6q-30 -6 -54 -6
q-25 0 -55 6l10 60q12 -4 23 -4.5t22 -0.5t22 0.5t22 4.5zM309 502l-10 -61q-11 3 -22 4.5t-22 1.5t-22 -1.5t-23 -4.5l-10 61q30 7 55 7q24 0 54 -7z" />
    <glyph glyph-name="ll.vow.dot" unicode="&#x1059;" horiz-adv-x="610" 
d="M723 -297q-6 -14 -24 -40q-62 -60 -159 -62q-84 -1 -145 55q-53 -53 -147 -55q-83 -1 -143 49t-61 131q-2 79 62 132q61 49 142 49q117 0 177 -88q11 -25 13 -46q2 -18 -11 -31q-67 -50 -124 -51q-115 -2 -166 101q-23 -28 -24 -66q-1 -51 43 -81q39 -29 92 -30
q59 -1 117 51q9 18 29 20q11 0 26 -14q9 -24 52 -40q38 -17 68 -17q59 -1 118 51q9 18 28 20q13 0 24 -13q8 -6 13 -25zM370 -172l-18 21q-63 44 -104 44q-24 0 -56 -10q28 -75 113 -75q23 0 65 20zM72 209l-60 -11q-6 23 -6 55q0 15 1 29.5t5 26.5l60 -10q-4 -11 -4.5 -22
t-0.5 -24q0 -12 0.5 -23t4.5 -21zM152 92l-34 -50q-48 31 -78 79l49 36q24 -40 63 -65zM469 121q-29 -48 -76 -79l-35 50q40 25 64 65zM152 414q-39 -24 -63 -64l-49 36q15 24 34.5 43.5t43.5 34.5zM469 386l-47 -36q-25 40 -64 64l35 50q24 -15 43 -34.5t33 -43.5zM504 253
q0 -29 -6 -55l-59 11q6 21 6 44q0 24 -6 46l59 10q6 -26 6 -56zM309 6q-30 -6 -54 -6q-25 0 -55 6l10 60q12 -4 23 -4.5t22 -0.5t22 0.5t22 4.5zM309 502l-10 -61q-11 3 -22 4.5t-22 1.5t-22 -1.5t-23 -4.5l-10 61q30 7 55 7q24 0 54 -7z" />
    <glyph glyph-name="mon.nga" unicode="&#x105a;" horiz-adv-x="610" 
d="M222 -13h58q39 0 94 -33q38 -31 43 -48q20 -29 20 -85v-153h10q39 -2 39 -7q11 -14 11 -26v-7q0 -23 -18 -31q-2 -3 -62 -3h-9q-16 2 -37 17q-14 11 -14 34v193q0 28 -31 53q-40 20 -102 20h-4q-61 -2 -84 -57v-1q11 3 31 3h3q55 0 76 -41q11 -19 11 -36q0 -15 -17 -33
q-25 -19 -64 -19q-52 0 -93 26q-24 23 -26 34q-11 12 -11 52q3 92 99 133q36 15 77 15zM130 -177q-1 -20 21 -34q18 -8 40 -8q17 2 17 11v1q0 14 -23 24q-18 6 -55 6zM478 140q0 -10 -4 -20q-68 -132 -240 -132q-106 0 -168 76q-58 70 -58 178q0 110 65 180t175 70
q144 0 210 -146q4 -8 4 -18q0 -38 -42 -38q-22 0 -34 24q-44 98 -138 98q-74 0 -117 -47t-43 -123q0 -174 146 -174q124 0 168 88q12 22 34 22q42 0 42 -38z" />
    <glyph glyph-name="mon.jha" unicode="&#x105b;" horiz-adv-x="731" 
d="M363 231q-43 52 -79 52q-32 0 -38 -22q-6 -17 10 -29.5t38 -13.5q43 -2 69 13zM289 -7q-21 -3 -40 -3q-111 0 -184.5 75t-73.5 179q0 105 75 180t180 75q98 0 180 -70q15 -13 33 -55q22 -46 22 -85q0 -28 -17 -62q46 -66 46 -81q0 -17 -12 -28.5t-29 -11.5q-18 0 -36 22
q-10 18 -23 38q-46 -29 -119 -26q-50 3 -87.5 40t-37.5 80q0 44 37.5 72.5t84.5 28.5q60 0 115 -60q-2 43 -30 69q-56 51 -126 51q-74 0 -125.5 -52t-51.5 -123q0 -73 52 -126.5t130 -53.5q55 0 87 26q13 9 25 9q38 0 38 -40q0 -30 -41 -49q5 -10 5 -28v-263l167 -47v782
q0 36 38 37q38 3 38 -37v-830q0 -40 -32 -40q-11 0 -16 3l-243 65q-28 8 -28 37v155l-93 -163q-31 -53 -83 -61q-17 -2 -52 18q-26 16 -44 32l-68 85q-7 11 -10 24q0 16 12 28q11 7 28 10q18 0 42 -30q16 -22 34 -47q33 -42 51 -45q13 3 24 22z" />
    <glyph glyph-name="mon.bba" unicode="&#x105c;" horiz-adv-x="610" 
d="M498 244q1 -104 -74.5 -179t-181.5 -75q-102 0 -177 75t-75 179q0 107 73 180t179 73t180.5 -74t75.5 -179zM419 246q0 71 -52 122t-125 51q-74 0 -124 -50t-50 -123t52 -125.5t122 -52.5q73 0 125 52.5t52 125.5zM338 247q0 -38 -29 -68t-67 -30t-65 31t-27 71
t25.5 63.5t66.5 23.5q39 0 67.5 -27.5t28.5 -63.5zM269 246q0 23 -27 23q-23 0 -23 -17q0 -34 23 -34q27 0 27 28z" />
    <glyph glyph-name="mon.bbe" unicode="&#x105d;" horiz-adv-x="610" 
d="M369 121q-48 69 -123 69q-77 0 -126 -69q52 -54 126 -54q70 0 123 54zM394 38q-64 -48 -148 -48q-120 0 -198 94q-11 9 -15 23q-43 60 -43 144q0 66 35 132.5t94 107.5q11 8 22 8q17 0 28 -13t11 -29q0 -19 -17 -33q-44 -28 -69 -76.5t-25 -96.5q0 -29 9 -57
q64 76 168 76q102 0 166 -77q10 29 10 58q0 115 -96 173q-18 14 -18 33q0 15 11 27.5t28 12.5q10 0 21 -6q62 -37 97.5 -102.5t35.5 -137.5q0 -66 -28 -120v-307q0 -111 -73 -173q-59 -53 -130 -53q-31 0 -62 10q-69 18 -98 68q-29 38 -28 98q0 66 68 112q48 26 94.5 24.5
t73 -26t32.5 -60.5q4 -36 -9.5 -62t-36 -35t-57.5 -2q-37 8 -42 35q0 34 37 28q22 -8 37 -3.5t13 27.5q-5 30 -53.5 30.5t-71 -29t-14.5 -58.5q5 -35 40 -60q38 -18 75 -18q46 0 82 35q44 41 44 112v214z" />
    <glyph glyph-name="mon.na.med.dot" unicode="&#x105e;" horiz-adv-x="578" 
d="M72 209l-60 -11q-6 23 -6 55q0 15 1 29.5t5 26.5l60 -10q-4 -11 -4.5 -22t-0.5 -24q0 -12 0.5 -23t4.5 -21zM152 92l-34 -50q-48 31 -78 79l49 36q24 -40 63 -65zM469 121q-29 -48 -76 -79l-35 50q40 25 64 65zM152 414q-39 -24 -63 -64l-49 36q15 24 34.5 43.5
t43.5 34.5zM469 386l-47 -36q-25 40 -64 64l35 50q24 -15 43 -34.5t33 -43.5zM504 253q0 -29 -6 -55l-59 11q6 21 6 44q0 24 -6 46l59 10q6 -26 6 -56zM309 6q-30 -6 -54 -6q-25 0 -55 6l10 60q12 -4 23 -4.5t22 -0.5t22 0.5t22 4.5zM309 502l-10 -61q-11 3 -22 4.5t-22 1.5
t-22 -1.5t-23 -4.5l-10 61q30 7 55 7q24 0 54 -7zM302 -226q4 -155 -143 -176q-137 1 -167.5 91t36.5 157q66 51 194 55v48q0 42 41 41q39 -2 39 -41v-50q165 -20 206 -112q22 -39 -17 -62q-37 -5 -57 38q-34 54 -132 59v-48zM222 -230v52q-115 -4 -139 -39
q-31 -44 -7 -77.5t81 -28.5q67 21 65 93z" />
    <glyph glyph-name="mon.ma.med.dot" unicode="&#x105f;" horiz-adv-x="578" 
d="M309 502l-10 -61q-11 3 -22 4.5t-22 1.5t-22 -1.5t-23 -4.5l-10 61q30 7 55 7q24 0 54 -7zM309 6q-30 -6 -54 -6q-25 0 -55 6l10 60q12 -4 23 -4.5t22 -0.5t22 0.5t22 4.5zM504 253q0 -29 -6 -55l-59 11q6 21 6 44q0 24 -6 46l59 10q6 -26 6 -56zM469 386l-47 -36
q-25 40 -64 64l35 50q24 -15 43 -34.5t33 -43.5zM152 414q-39 -24 -63 -64l-49 36q15 24 34.5 43.5t43.5 34.5zM469 121q-29 -48 -76 -79l-35 50q40 25 64 65zM152 92l-34 -50q-48 31 -78 79l49 36q24 -40 63 -65zM72 209l-60 -11q-6 23 -6 55q0 15 1 29.5t5 26.5l60 -10
q-4 -11 -4.5 -22t-0.5 -24q0 -12 0.5 -23t4.5 -21zM224 -102v51q0 39 39 41q41 1 41 -41v-99v-1q-1 -31 -47 -25q-35 5 -72 5q-43 -2 -69 -12.5t-41 -30t-13 -47.5q15 -60 183 -60q102 3 135 21.5t54 40.5q17 14 41 10q39 -11 29 -39q-14 -30 -38 -50q-59 -59 -221 -62
q-97 0 -143 13q-105 29 -119 126q-3 67 37 108q52 57 165 54q20 -1 39 -3z" />
    <glyph glyph-name="mon.la.med.dot" unicode="&#x1060;" horiz-adv-x="578" 
d="M534 -211q-81 -186 -256.5 -189t-245.5 69q-49 42 -56 100q-7 44 35 58q31 -9 134 19.5t207 162.5q14 36 52 27q33 -15 23 -48q-33 -77 -124 -146t-234 -93q26 -65 173.5 -68.5t220.5 121.5q12 30 36 27q35 -3 35 -40zM71 209l-60 -11q-5 23 -5 55q0 15 1 29.5t4 26.5
l60 -10q-3 -11 -3.5 -22t-0.5 -24q0 -12 0.5 -23t3.5 -21zM151 92l-33 -50q-48 31 -78 79l49 36q23 -40 62 -65zM469 121q-29 -48 -77 -79l-34 50q40 25 63 65zM151 414q-39 -24 -62 -64l-49 36q15 24 34.5 43.5t43.5 34.5zM469 386l-48 -36q-24 40 -63 64l34 50
q25 -15 44 -34.5t33 -43.5zM504 253q0 -29 -6 -55l-59 11q6 21 6 44q0 24 -6 46l59 10q6 -26 6 -56zM309 6q-30 -6 -54 -6q-25 0 -55 6l10 60q11 -4 22.5 -4.5t22.5 -0.5t22 0.5t22 4.5zM309 502l-10 -61q-11 3 -22 4.5t-22 1.5t-22.5 -1.5t-22.5 -4.5l-10 61q30 7 55 7
q24 0 54 -7z" />
    <glyph glyph-name="sgaw.sha" unicode="&#x1061;" horiz-adv-x="551" 
d="M788 -350q6 -26 -4 -64t-28 -56q-54 -52 -160 -48q-112 4 -158 49t-46 157q0 24 -6 102q-6 76 0 152q14 180 14 342q0 72 -52 117t-126 45q-122 0 -154 -128q90 -8 158 -60q76 -58 76 -144q0 -112 -114 -112q-64 0 -88 22q-54 26 -87 92t-33 130q0 116 62 194
q68 86 180 86q108 0 183 -68t75 -174q0 -158 -14 -338q-6 -76 0 -154q6 -80 6 -104q0 -76 24 -102q16 -16 100 -24q62 -6 96 34q10 12 10 24t-14 34q-26 0 -26 38q0 40 58 40q52 0 68 -82zM222 114q0 54 -56 90q-46 30 -106 34q2 -4 2 -10q8 -24 12 -46q22 -58 48 -78
q14 0 24 -10h2q4 -2 16 -12h24q34 0 34 32zM331 -246q0 -140 -76 -228q-80 -94 -218 -94q-88 0 -159 61t-71 147q0 96 54 114l24 8q46 0 46 -48q0 -18 -22 -36q-8 -8 -12 -10v-28q0 -46 46 -82t94 -36q194 0 204 232l2 48q2 46 0 74q-4 62 -12 112q-8 52 44 52q38 0 44 -40
q12 -82 12 -246z" />
    <glyph glyph-name="sgaw.eu.vow.dot" unicode="&#x1062;" horiz-adv-x="822" 
d="M26 278q11 0 19.5 -7t8.5 -18t-8 -20t-20 -9q-11 0 -18.5 8.5t-7.5 20.5q0 11 7.5 18t18.5 7zM251 496q11 0 18.5 -8t7.5 -21q0 -10 -8.5 -17t-17.5 -7q-11 0 -19 7t-8 17q0 12 8 20.5t19 8.5zM251 57q11 0 18.5 -8t7.5 -18q0 -11 -8.5 -19.5t-17.5 -8.5q-11 0 -19 8
t-8 20q0 11 8 18.5t19 7.5zM95 118q10 0 19 -8t9 -18t-8.5 -18.5t-19.5 -8.5q-12 0 -19 8.5t-7 18.5q0 12 7 19t19 7zM43 187q13 0 21.5 -8t8.5 -20q0 -5 -2.5 -10t-6 -9t-9 -7t-12.5 -3q-9 0 -18 10q-8 9 -8 19q0 12 8.5 20t17.5 8zM162 74q13 0 21 -7.5t8 -20.5
q0 -5 -2 -10t-6 -9t-9.5 -6.5t-11.5 -2.5q-10 0 -17.5 8.5t-7.5 19.5q0 13 7.5 20.5t17.5 7.5zM95 382q-12 0 -19 7t-7 20q0 10 7 18.5t19 8.5q10 0 19 -8t9 -19q0 -13 -9 -20t-19 -7zM43 312q-9 0 -17.5 8.5t-8.5 19.5q0 5 2.5 10t6 9t8.5 7t9 3q13 0 21.5 -9t8.5 -20
t-8.5 -19.5t-21.5 -8.5zM162 426q-10 0 -17.5 8t-7.5 19q0 10 7 19t18 9q6 0 11.5 -2.5t9.5 -6.5t6 -9t2 -10q0 -13 -8 -20t-21 -7zM466 278q12 0 19.5 -7t7.5 -18t-7.5 -20t-19.5 -9q-10 0 -18 8.5t-8 20.5q0 11 8 18t18 7zM397 118q12 0 19.5 -8t7.5 -18t-7 -18.5
t-20 -8.5q-10 0 -18 8.5t-8 18.5q0 12 8 19t18 7zM449 187q9 0 18 -8t9 -20q0 -10 -9 -19q-9 -10 -18 -10q-13 0 -20.5 9t-7.5 20q0 12 7.5 20t20.5 8zM330 74q10 0 18 -7.5t8 -20.5q0 -5 -2 -10t-5.5 -9t-8.5 -6.5t-10 -2.5q-13 0 -21 8.5t-8 19.5q0 13 8 20.5t21 7.5z
M397 382q-10 0 -18 7t-8 20q0 10 8 18.5t18 8.5q12 0 19.5 -8t7.5 -19q0 -13 -7.5 -20t-19.5 -7zM449 312q-13 0 -20.5 8.5t-7.5 19.5q0 10 8 19.5t20 9.5q9 0 18 -9q9 -10 9 -20q0 -11 -9 -19.5t-18 -8.5zM330 426q-13 0 -21 8t-8 19q0 5 2.5 10t6 9t9 6.5t11.5 2.5
q5 0 9.5 -2.5t8.5 -6.5t6 -9t2 -10q0 -13 -8 -20t-18 -7zM618 2v401l-23 -21l-35 51q15 17 29 33t29 21h67v-485h-67z" />
    <glyph glyph-name="sgaw.hathi.ton.dot" unicode="&#x1063;" horiz-adv-x="1278" 
d="M635 -408v562l78 36q12 -25 20.5 -36t21.5 -25q57 -54 144 -54q85 0 139 57q57 57 57 141q0 83 -57 139q-56 57 -139 57q-84 0 -143 -56q-13 -13 -22 -26t-21 -37q-26 12 -40 18.5t-39 15.5q13 32 27.5 52t32.5 38q83 80 205 80t200 -80q79 -78 79 -201q0 -63 -20 -113.5
t-60 -90.5q-79 -79 -199 -79q-107 0 -181 56q0 -94 -0.5 -211.5t-0.5 -242.5h-82zM40 306q12 0 21 -8.5t9 -20.5q0 -13 -9 -22t-21 -9q-13 0 -21.5 9t-8.5 22q0 12 8.5 20.5t21.5 8.5zM289 547q12 0 21 -8.5t9 -22.5q0 -11 -9 -20t-21 -9q-13 0 -21.5 9t-8.5 20
q0 14 8.5 22.5t21.5 8.5zM289 59q12 0 21 -8.5t9 -20.5q0 -13 -9 -22t-21 -9q-13 0 -21.5 9t-8.5 22q0 12 8.5 20.5t21.5 8.5zM117 128q12 0 21 -8.5t9 -22.5q0 -11 -9 -20t-21 -9q-13 0 -21.5 9t-8.5 20q0 14 8.5 22.5t21.5 8.5zM59 204q14 0 23 -8.5t9 -22.5q0 -11 -9 -21
t-23 -10q-11 0 -20.5 10t-9.5 21q0 14 9.5 22.5t20.5 8.5zM191 78q14 0 23 -8.5t9 -22.5q0 -11 -9 -21t-23 -10q-11 0 -19.5 10t-8.5 21q0 14 8.5 22.5t19.5 8.5zM117 420q-13 0 -21.5 8.5t-8.5 22.5q0 11 8.5 20t21.5 9q12 0 21 -9t9 -20q0 -14 -9 -22.5t-21 -8.5zM59 344
q-11 0 -20.5 9t-9.5 22q0 11 9.5 21t20.5 10q14 0 23 -10t9 -21q0 -13 -9 -22t-23 -9zM191 470q-11 0 -19.5 8.5t-8.5 22.5q0 11 8.5 21t19.5 10q14 0 23 -10t9 -21q0 -14 -9 -22.5t-23 -8.5zM529 306q13 0 21.5 -8.5t8.5 -20.5q0 -13 -8.5 -22t-21.5 -9q-12 0 -21 9t-9 22
q0 12 9 20.5t21 8.5zM452 128q13 0 21.5 -8.5t8.5 -22.5q0 -11 -8.5 -20t-21.5 -9q-12 0 -21 9t-9 20q0 14 9 22.5t21 8.5zM510 204q11 0 20.5 -8.5t9.5 -22.5q0 -11 -9.5 -21t-20.5 -10q-14 0 -23 10t-9 21q0 14 9 22.5t23 8.5zM378 78q11 0 19.5 -8.5t8.5 -22.5
q0 -11 -8.5 -21t-19.5 -10q-14 0 -23 10t-9 21q0 14 9 22.5t23 8.5zM452 420q-12 0 -21 8.5t-9 22.5q0 11 9 20t21 9q13 0 21.5 -9t8.5 -20q0 -14 -8.5 -22.5t-21.5 -8.5zM510 344q-14 0 -23 9t-9 22q0 11 9 21t23 10q11 0 20.5 -10t9.5 -21q0 -13 -9.5 -22t-20.5 -9z
M378 470q-14 0 -23 8.5t-9 22.5q0 11 9 21t23 10q11 0 19.5 -10t8.5 -21q0 -14 -8.5 -22.5t-19.5 -8.5z" />
    <glyph glyph-name="sgaw.kepho.ton.dot" unicode="&#x1064;" horiz-adv-x="914" 
d="M315 -11h-16q-17 0 16 0zM40 306q12 0 21 -8.5t9 -20.5q0 -13 -9 -22t-21 -9q-13 0 -21.5 9t-8.5 22q0 12 8.5 20.5t21.5 8.5zM289 547q12 0 21 -8.5t9 -22.5q0 -11 -9 -20t-21 -9q-13 0 -21.5 9t-8.5 20q0 14 8.5 22.5t21.5 8.5zM289 59q12 0 21 -8.5t9 -20.5
q0 -13 -9 -22t-21 -9q-13 0 -21.5 9t-8.5 22q0 12 8.5 20.5t21.5 8.5zM117 128q12 0 21 -8.5t9 -22.5q0 -11 -9 -20t-21 -9q-13 0 -21.5 9t-8.5 20q0 14 8.5 22.5t21.5 8.5zM59 204q14 0 23 -8.5t9 -22.5q0 -11 -9 -21t-23 -10q-11 0 -20.5 10t-9.5 21q0 14 9.5 22.5
t20.5 8.5zM191 78q14 0 23 -8.5t9 -22.5q0 -11 -9 -21t-23 -10q-11 0 -19.5 10t-8.5 21q0 14 8.5 22.5t19.5 8.5zM117 420q-13 0 -21.5 8.5t-8.5 22.5q0 11 8.5 20t21.5 9q12 0 21 -9t9 -20q0 -14 -9 -22.5t-21 -8.5zM59 344q-11 0 -20.5 9t-9.5 22q0 11 9.5 21t20.5 10
q14 0 23 -10t9 -21q0 -13 -9 -22t-23 -9zM191 470q-11 0 -19.5 8.5t-8.5 22.5q0 11 8.5 21t19.5 10q14 0 23 -10t9 -21q0 -14 -9 -22.5t-23 -8.5zM529 306q13 0 21.5 -8.5t8.5 -20.5q0 -13 -8.5 -22t-21.5 -9q-12 0 -21 9t-9 22q0 12 9 20.5t21 8.5zM452 128q13 0 21.5 -8.5
t8.5 -22.5q0 -11 -8.5 -20t-21.5 -9q-12 0 -21 9t-9 20q0 14 9 22.5t21 8.5zM510 204q11 0 20.5 -8.5t9.5 -22.5q0 -11 -9.5 -21t-20.5 -10q-14 0 -23 10t-9 21q0 14 9 22.5t23 8.5zM378 78q11 0 19.5 -8.5t8.5 -22.5q0 -11 -8.5 -21t-19.5 -10q-14 0 -23 10t-9 21
q0 14 9 22.5t23 8.5zM452 420q-12 0 -21 8.5t-9 22.5q0 11 9 20t21 9q13 0 21.5 -9t8.5 -20q0 -14 -8.5 -22.5t-21.5 -8.5zM510 344q-14 0 -23 9t-9 22q0 11 9 21t23 10q11 0 20.5 -10t9.5 -21q0 -13 -9.5 -22t-20.5 -9zM378 470q-14 0 -23 8.5t-9 22.5q0 11 9 21t23 10
q11 0 19.5 -10t8.5 -21q0 -14 -8.5 -22.5t-19.5 -8.5zM953 -10q-62 0 -111 -0.5t-112 -0.5l-1 484h-138v86h223v-485h139v-84z" />
    <glyph glyph-name="pwo.tha" unicode="&#x1065;" horiz-adv-x="651" 
d="M82 192q10 -25 19 -36t22 -25q58 -55 147 -55q85 0 139 57q59 58 59 143q0 84 -59 141q-54 57 -139 57q-87 0 -146 -56q-25 -26 -42 -63q-27 11 -41 17.5t-41 17.5q15 31 30 52t33 38q83 80 207 80q122 0 202 -80q79 -79 79 -204q0 -124 -80 -206q-80 -80 -201 -80
q-130 0 -208 79q-35 33 -61 87z" />
    <glyph glyph-name="pwo.pwa" unicode="&#x1066;" horiz-adv-x="670" 
d="M156 -323h259v334q-56 -26 -127 -26q-124 0 -207 80q-81 79 -81 204q0 146 80 232q18 18 37.5 31t51.5 29q11 -28 18 -42t16 -40q-23 -12 -37.5 -21t-24.5 -19q-56 -64 -56 -170q0 -87 58 -142q58 -57 145 -57q84 0 141 57t57 142q0 103 -57 168q-13 11 -27.5 21.5
t-40.5 22.5l42 78q52 -24 87 -59q80 -91 80 -231q0 -118 -70 -195q0 -105 -0.5 -207t-0.5 -210q-2 -48 -70 -64h-273v84z" />
    <glyph glyph-name="pwo.eu.vow.dot" unicode="&#x1067;" horiz-adv-x="939" 
d="M630 94q0 21 8.5 40t22.5 32.5t33.5 22t41.5 8.5q18 0 21 -1q0 79 -0.5 168.5t-0.5 193.5h83v-194v-125v-78v-42v-18.5v-6.5q0 -22 -8.5 -41.5t-22 -33.5t-32.5 -22.5t-40 -8.5q-44 0 -75 31t-31 75zM697 94q0 -16 11.5 -27.5t27.5 -11.5t28 11.5t12 27.5t-12 28t-28 12
t-27.5 -12t-11.5 -28zM40 306q12 0 21 -8.5t9 -20.5q0 -13 -9 -22t-21 -9q-13 0 -21.5 9t-8.5 22q0 12 8.5 20.5t21.5 8.5zM289 547q12 0 21 -8.5t9 -22.5q0 -11 -9 -20t-21 -9q-13 0 -21.5 9t-8.5 20q0 14 8.5 22.5t21.5 8.5zM289 59q12 0 21 -8.5t9 -20.5q0 -13 -9 -22
t-21 -9q-13 0 -21.5 9t-8.5 22q0 12 8.5 20.5t21.5 8.5zM117 128q12 0 21 -8.5t9 -22.5q0 -11 -9 -20t-21 -9q-13 0 -21.5 9t-8.5 20q0 14 8.5 22.5t21.5 8.5zM59 204q14 0 23 -8.5t9 -22.5q0 -11 -9 -21t-23 -10q-11 0 -20.5 10t-9.5 21q0 14 9.5 22.5t20.5 8.5zM191 78
q14 0 23 -8.5t9 -22.5q0 -11 -9 -21t-23 -10q-11 0 -19.5 10t-8.5 21q0 14 8.5 22.5t19.5 8.5zM117 420q-13 0 -21.5 8.5t-8.5 22.5q0 11 8.5 20t21.5 9q12 0 21 -9t9 -20q0 -14 -9 -22.5t-21 -8.5zM59 344q-11 0 -20.5 9t-9.5 22q0 11 9.5 21t20.5 10q14 0 23 -10t9 -21
q0 -13 -9 -22t-23 -9zM191 470q-11 0 -19.5 8.5t-8.5 22.5q0 11 8.5 21t19.5 10q14 0 23 -10t9 -21q0 -14 -9 -22.5t-23 -8.5zM529 306q13 0 21.5 -8.5t8.5 -20.5q0 -13 -8.5 -22t-21.5 -9q-12 0 -21 9t-9 22q0 12 9 20.5t21 8.5zM452 128q13 0 21.5 -8.5t8.5 -22.5
q0 -11 -8.5 -20t-21.5 -9q-12 0 -21 9t-9 20q0 14 9 22.5t21 8.5zM510 204q11 0 20.5 -8.5t9.5 -22.5q0 -11 -9.5 -21t-20.5 -10q-14 0 -23 10t-9 21q0 14 9 22.5t23 8.5zM378 78q11 0 19.5 -8.5t8.5 -22.5q0 -11 -8.5 -21t-19.5 -10q-14 0 -23 10t-9 21q0 14 9 22.5t23 8.5
zM452 420q-12 0 -21 8.5t-9 22.5q0 11 9 20t21 9q13 0 21.5 -9t8.5 -20q0 -14 -8.5 -22.5t-21.5 -8.5zM510 344q-14 0 -23 9t-9 22q0 11 9 21t23 10q11 0 20.5 -10t9.5 -21q0 -13 -9.5 -22t-20.5 -9zM378 470q-14 0 -23 8.5t-9 22.5q0 11 9 21t23 10q11 0 19.5 -10t8.5 -21
q0 -14 -8.5 -22.5t-19.5 -8.5z" />
    <glyph glyph-name="pwo.ue.vow.dot" unicode="&#x1068;" horiz-adv-x="966" 
d="M866 379v-389h-262v85h178q0 62 1 141.5t1 162.5h82zM40 306q12 0 21 -8.5t9 -20.5q0 -13 -9 -22t-21 -9q-13 0 -21.5 9t-8.5 22q0 12 8.5 20.5t21.5 8.5zM289 547q12 0 21 -8.5t9 -22.5q0 -11 -9 -20t-21 -9q-13 0 -21.5 9t-8.5 20q0 14 8.5 22.5t21.5 8.5zM289 59
q12 0 21 -8.5t9 -20.5q0 -13 -9 -22t-21 -9q-13 0 -21.5 9t-8.5 22q0 12 8.5 20.5t21.5 8.5zM117 128q12 0 21 -8.5t9 -22.5q0 -11 -9 -20t-21 -9q-13 0 -21.5 9t-8.5 20q0 14 8.5 22.5t21.5 8.5zM59 204q14 0 23 -8.5t9 -22.5q0 -11 -9 -21t-23 -10q-11 0 -20.5 10t-9.5 21
q0 14 9.5 22.5t20.5 8.5zM191 78q14 0 23 -8.5t9 -22.5q0 -11 -9 -21t-23 -10q-11 0 -19.5 10t-8.5 21q0 14 8.5 22.5t19.5 8.5zM117 420q-13 0 -21.5 8.5t-8.5 22.5q0 11 8.5 20t21.5 9q12 0 21 -9t9 -20q0 -14 -9 -22.5t-21 -8.5zM59 344q-11 0 -20.5 9t-9.5 22
q0 11 9.5 21t20.5 10q14 0 23 -10t9 -21q0 -13 -9 -22t-23 -9zM191 470q-11 0 -19.5 8.5t-8.5 22.5q0 11 8.5 21t19.5 10q14 0 23 -10t9 -21q0 -14 -9 -22.5t-23 -8.5zM529 306q13 0 21.5 -8.5t8.5 -20.5q0 -13 -8.5 -22t-21.5 -9q-12 0 -21 9t-9 22q0 12 9 20.5t21 8.5z
M452 128q13 0 21.5 -8.5t8.5 -22.5q0 -11 -8.5 -20t-21.5 -9q-12 0 -21 9t-9 20q0 14 9 22.5t21 8.5zM510 204q11 0 20.5 -8.5t9.5 -22.5q0 -11 -9.5 -21t-20.5 -10q-14 0 -23 10t-9 21q0 14 9 22.5t23 8.5zM378 78q11 0 19.5 -8.5t8.5 -22.5q0 -11 -8.5 -21t-19.5 -10
q-14 0 -23 10t-9 21q0 14 9 22.5t23 8.5zM452 420q-12 0 -21 8.5t-9 22.5q0 11 9 20t21 9q13 0 21.5 -9t8.5 -20q0 -14 -8.5 -22.5t-21.5 -8.5zM510 344q-14 0 -23 9t-9 22q0 11 9 21t23 10q11 0 20.5 -10t9.5 -21q0 -13 -9.5 -22t-20.5 -9zM378 470q-14 0 -23 8.5t-9 22.5
q0 11 9 21t23 10q11 0 19.5 -10t8.5 -21q0 -14 -8.5 -22.5t-19.5 -8.5zM710 530q0 21 8.5 40.5t23 33.5t34 22.5t41.5 8.5q21 0 40.5 -8.5t33 -22.5t22 -33.5t8.5 -40.5q0 -22 -8 -41.5t-22 -34t-33.5 -23t-40.5 -8.5q-22 0 -41.5 8.5t-34 23t-23 34t-8.5 41.5zM778 530
q0 -16 11.5 -27.5t27.5 -11.5t28.5 11.5t12.5 27.5t-12.5 28.5t-28.5 12.5t-27.5 -12.5t-11.5 -28.5z" />
    <glyph glyph-name="pwo.tone1.dot" unicode="&#x1069;" horiz-adv-x="971" 
d="M611 506q48 29 98 29q35 0 65 -12.5t51.5 -34t33.5 -52t12 -65.5q-2 -30 -12.5 -57.5t-26 -51t-33.5 -45t-36 -40.5q-10 -10 -22.5 -26t-22.5 -26q-7 -9 -8.5 -15.5t0.5 -10.5t11 -8.5t28 -5.5q6 1 14 3t17 27h71q-3 -42 -16 -61t-30.5 -29t-35.5 -12.5t-32 -2.5
q-60 0 -90.5 29t-30.5 68t22 71.5t52 63.5l8 9q12 13 24 25.5t22 26t17.5 30.5t11.5 39q-3 27 -20 47t-44 20q-22 0 -47 -17zM40 306q12 0 21 -8.5t9 -20.5q0 -13 -9 -22t-21 -9q-13 0 -21.5 9t-8.5 22q0 12 8.5 20.5t21.5 8.5zM289 547q12 0 21 -8.5t9 -22.5q0 -11 -9 -20
t-21 -9q-13 0 -21.5 9t-8.5 20q0 14 8.5 22.5t21.5 8.5zM289 59q12 0 21 -8.5t9 -20.5q0 -13 -9 -22t-21 -9q-13 0 -21.5 9t-8.5 22q0 12 8.5 20.5t21.5 8.5zM117 128q12 0 21 -8.5t9 -22.5q0 -11 -9 -20t-21 -9q-13 0 -21.5 9t-8.5 20q0 14 8.5 22.5t21.5 8.5zM59 204
q14 0 23 -8.5t9 -22.5q0 -11 -9 -21t-23 -10q-11 0 -20.5 10t-9.5 21q0 14 9.5 22.5t20.5 8.5zM191 78q14 0 23 -8.5t9 -22.5q0 -11 -9 -21t-23 -10q-11 0 -19.5 10t-8.5 21q0 14 8.5 22.5t19.5 8.5zM117 420q-13 0 -21.5 8.5t-8.5 22.5q0 11 8.5 20t21.5 9q12 0 21 -9
t9 -20q0 -14 -9 -22.5t-21 -8.5zM59 344q-11 0 -20.5 9t-9.5 22q0 11 9.5 21t20.5 10q14 0 23 -10t9 -21q0 -13 -9 -22t-23 -9zM191 470q-11 0 -19.5 8.5t-8.5 22.5q0 11 8.5 21t19.5 10q14 0 23 -10t9 -21q0 -14 -9 -22.5t-23 -8.5zM529 306q13 0 21.5 -8.5t8.5 -20.5
q0 -13 -8.5 -22t-21.5 -9q-12 0 -21 9t-9 22q0 12 9 20.5t21 8.5zM452 128q13 0 21.5 -8.5t8.5 -22.5q0 -11 -8.5 -20t-21.5 -9q-12 0 -21 9t-9 20q0 14 9 22.5t21 8.5zM510 204q11 0 20.5 -8.5t9.5 -22.5q0 -11 -9.5 -21t-20.5 -10q-14 0 -23 10t-9 21q0 14 9 22.5t23 8.5z
M378 78q11 0 19.5 -8.5t8.5 -22.5q0 -11 -8.5 -21t-19.5 -10q-14 0 -23 10t-9 21q0 14 9 22.5t23 8.5zM452 420q-12 0 -21 8.5t-9 22.5q0 11 9 20t21 9q13 0 21.5 -9t8.5 -20q0 -14 -8.5 -22.5t-21.5 -8.5zM510 344q-14 0 -23 9t-9 22q0 11 9 21t23 10q11 0 20.5 -10
t9.5 -21q0 -13 -9.5 -22t-20.5 -9zM378 470q-14 0 -23 8.5t-9 22.5q0 11 9 21t23 10q11 0 19.5 -10t8.5 -21q0 -14 -8.5 -22.5t-19.5 -8.5z" />
    <glyph glyph-name="pwo.tone2.dot" unicode="&#x106a;" horiz-adv-x="967" 
d="M717 -9q-18 0 -43 10t-43 28t-29.5 42t-12.5 61l89 -1q5 -26 18.5 -38t32.5 -12q21 0 36.5 15.5t18.5 39.5q0 101 -0.5 206t-0.5 217h84v-429q0 -29 -11.5 -54.5t-30 -44t-44 -29.5t-64.5 -11zM40 306q12 0 21 -8.5t9 -20.5q0 -13 -9 -22t-21 -9q-13 0 -21.5 9t-8.5 22
q0 12 8.5 20.5t21.5 8.5zM289 547q12 0 21 -8.5t9 -22.5q0 -11 -9 -20t-21 -9q-13 0 -21.5 9t-8.5 20q0 14 8.5 22.5t21.5 8.5zM289 59q12 0 21 -8.5t9 -20.5q0 -13 -9 -22t-21 -9q-13 0 -21.5 9t-8.5 22q0 12 8.5 20.5t21.5 8.5zM117 128q12 0 21 -8.5t9 -22.5
q0 -11 -9 -20t-21 -9q-13 0 -21.5 9t-8.5 20q0 14 8.5 22.5t21.5 8.5zM59 204q14 0 23 -8.5t9 -22.5q0 -11 -9 -21t-23 -10q-11 0 -20.5 10t-9.5 21q0 14 9.5 22.5t20.5 8.5zM191 78q14 0 23 -8.5t9 -22.5q0 -11 -9 -21t-23 -10q-11 0 -19.5 10t-8.5 21q0 14 8.5 22.5
t19.5 8.5zM117 420q-13 0 -21.5 8.5t-8.5 22.5q0 11 8.5 20t21.5 9q12 0 21 -9t9 -20q0 -14 -9 -22.5t-21 -8.5zM59 344q-11 0 -20.5 9t-9.5 22q0 11 9.5 21t20.5 10q14 0 23 -10t9 -21q0 -13 -9 -22t-23 -9zM191 470q-11 0 -19.5 8.5t-8.5 22.5q0 11 8.5 21t19.5 10
q14 0 23 -10t9 -21q0 -14 -9 -22.5t-23 -8.5zM529 306q13 0 21.5 -8.5t8.5 -20.5q0 -13 -8.5 -22t-21.5 -9q-12 0 -21 9t-9 22q0 12 9 20.5t21 8.5zM452 128q13 0 21.5 -8.5t8.5 -22.5q0 -11 -8.5 -20t-21.5 -9q-12 0 -21 9t-9 20q0 14 9 22.5t21 8.5zM510 204
q11 0 20.5 -8.5t9.5 -22.5q0 -11 -9.5 -21t-20.5 -10q-14 0 -23 10t-9 21q0 14 9 22.5t23 8.5zM378 78q11 0 19.5 -8.5t8.5 -22.5q0 -11 -8.5 -21t-19.5 -10q-14 0 -23 10t-9 21q0 14 9 22.5t23 8.5zM452 420q-12 0 -21 8.5t-9 22.5q0 11 9 20t21 9q13 0 21.5 -9t8.5 -20
q0 -14 -8.5 -22.5t-21.5 -8.5zM510 344q-14 0 -23 9t-9 22q0 11 9 21t23 10q11 0 20.5 -10t9.5 -21q0 -13 -9.5 -22t-20.5 -9zM378 470q-14 0 -23 8.5t-9 22.5q0 11 9 21t23 10q11 0 19.5 -10t8.5 -21q0 -14 -8.5 -22.5t-19.5 -8.5z" />
    <glyph glyph-name="pwo.tone3.dot" unicode="&#x106b;" horiz-adv-x="967" 
d="M727 559q29 0 54.5 -11t44 -29.5t30 -44t11.5 -54.5v-429h-84q0 112 0.5 217t0.5 206q-3 24 -18.5 39.5t-36.5 15.5q-19 0 -32.5 -12t-18.5 -38l-89 -1q1 37 12.5 61t29.5 42t43 28t53 10zM40 306q12 0 21 -8.5t9 -20.5q0 -13 -9 -22t-21 -9q-13 0 -21.5 9t-8.5 22
q0 12 8.5 20.5t21.5 8.5zM289 547q12 0 21 -8.5t9 -22.5q0 -11 -9 -20t-21 -9q-13 0 -21.5 9t-8.5 20q0 14 8.5 22.5t21.5 8.5zM289 59q12 0 21 -8.5t9 -20.5q0 -13 -9 -22t-21 -9q-13 0 -21.5 9t-8.5 22q0 12 8.5 20.5t21.5 8.5zM117 128q12 0 21 -8.5t9 -22.5
q0 -11 -9 -20t-21 -9q-13 0 -21.5 9t-8.5 20q0 14 8.5 22.5t21.5 8.5zM59 204q14 0 23 -8.5t9 -22.5q0 -11 -9 -21t-23 -10q-11 0 -20.5 10t-9.5 21q0 14 9.5 22.5t20.5 8.5zM191 78q14 0 23 -8.5t9 -22.5q0 -11 -9 -21t-23 -10q-11 0 -19.5 10t-8.5 21q0 14 8.5 22.5
t19.5 8.5zM117 420q-13 0 -21.5 8.5t-8.5 22.5q0 11 8.5 20t21.5 9q12 0 21 -9t9 -20q0 -14 -9 -22.5t-21 -8.5zM59 344q-11 0 -20.5 9t-9.5 22q0 11 9.5 21t20.5 10q14 0 23 -10t9 -21q0 -13 -9 -22t-23 -9zM191 470q-11 0 -19.5 8.5t-8.5 22.5q0 11 8.5 21t19.5 10
q14 0 23 -10t9 -21q0 -14 -9 -22.5t-23 -8.5zM529 306q13 0 21.5 -8.5t8.5 -20.5q0 -13 -8.5 -22t-21.5 -9q-12 0 -21 9t-9 22q0 12 9 20.5t21 8.5zM452 128q13 0 21.5 -8.5t8.5 -22.5q0 -11 -8.5 -20t-21.5 -9q-12 0 -21 9t-9 20q0 14 9 22.5t21 8.5zM510 204
q11 0 20.5 -8.5t9.5 -22.5q0 -11 -9.5 -21t-20.5 -10q-14 0 -23 10t-9 21q0 14 9 22.5t23 8.5zM378 78q11 0 19.5 -8.5t8.5 -22.5q0 -11 -8.5 -21t-19.5 -10q-14 0 -23 10t-9 21q0 14 9 22.5t23 8.5zM452 420q-12 0 -21 8.5t-9 22.5q0 11 9 20t21 9q13 0 21.5 -9t8.5 -20
q0 -14 -8.5 -22.5t-21.5 -8.5zM510 344q-14 0 -23 9t-9 22q0 11 9 21t23 10q11 0 20.5 -10t9.5 -21q0 -13 -9.5 -22t-20.5 -9zM378 470q-14 0 -23 8.5t-9 22.5q0 11 9 21t23 10q11 0 19.5 -10t8.5 -21q0 -14 -8.5 -22.5t-19.5 -8.5z" />
    <glyph glyph-name="pwo.tone4.dot" unicode="&#x106c;" horiz-adv-x="1009" 
d="M909 134q-3 -39 -14.5 -63t-30 -42t-43.5 -28t-53 -10q-29 0 -55 11t-45 30t-30.5 44.5t-11.5 54.5v428h85l-1 -422q3 -24 18.5 -39.5t36.5 -15.5q19 0 33.5 12t19.5 39zM40 306q12 0 21 -8.5t9 -20.5q0 -13 -9 -22t-21 -9q-13 0 -21.5 9t-8.5 22q0 12 8.5 20.5t21.5 8.5
zM289 547q12 0 21 -8.5t9 -22.5q0 -11 -9 -20t-21 -9q-13 0 -21.5 9t-8.5 20q0 14 8.5 22.5t21.5 8.5zM289 59q12 0 21 -8.5t9 -20.5q0 -13 -9 -22t-21 -9q-13 0 -21.5 9t-8.5 22q0 12 8.5 20.5t21.5 8.5zM117 128q12 0 21 -8.5t9 -22.5q0 -11 -9 -20t-21 -9q-13 0 -21.5 9
t-8.5 20q0 14 8.5 22.5t21.5 8.5zM59 204q14 0 23 -8.5t9 -22.5q0 -11 -9 -21t-23 -10q-11 0 -20.5 10t-9.5 21q0 14 9.5 22.5t20.5 8.5zM191 78q14 0 23 -8.5t9 -22.5q0 -11 -9 -21t-23 -10q-11 0 -19.5 10t-8.5 21q0 14 8.5 22.5t19.5 8.5zM117 420q-13 0 -21.5 8.5
t-8.5 22.5q0 11 8.5 20t21.5 9q12 0 21 -9t9 -20q0 -14 -9 -22.5t-21 -8.5zM59 344q-11 0 -20.5 9t-9.5 22q0 11 9.5 21t20.5 10q14 0 23 -10t9 -21q0 -13 -9 -22t-23 -9zM191 470q-11 0 -19.5 8.5t-8.5 22.5q0 11 8.5 21t19.5 10q14 0 23 -10t9 -21q0 -14 -9 -22.5
t-23 -8.5zM529 306q13 0 21.5 -8.5t8.5 -20.5q0 -13 -8.5 -22t-21.5 -9q-12 0 -21 9t-9 22q0 12 9 20.5t21 8.5zM452 128q13 0 21.5 -8.5t8.5 -22.5q0 -11 -8.5 -20t-21.5 -9q-12 0 -21 9t-9 20q0 14 9 22.5t21 8.5zM510 204q11 0 20.5 -8.5t9.5 -22.5q0 -11 -9.5 -21
t-20.5 -10q-14 0 -23 10t-9 21q0 14 9 22.5t23 8.5zM378 78q11 0 19.5 -8.5t8.5 -22.5q0 -11 -8.5 -21t-19.5 -10q-14 0 -23 10t-9 21q0 14 9 22.5t23 8.5zM452 420q-12 0 -21 8.5t-9 22.5q0 11 9 20t21 9q13 0 21.5 -9t8.5 -20q0 -14 -8.5 -22.5t-21.5 -8.5zM510 344
q-14 0 -23 9t-9 22q0 11 9 21t23 10q11 0 20.5 -10t9.5 -21q0 -13 -9.5 -22t-20.5 -9zM378 470q-14 0 -23 8.5t-9 22.5q0 11 9 21t23 10q11 0 19.5 -10t8.5 -21q0 -14 -8.5 -22.5t-19.5 -8.5z" />
    <glyph glyph-name="pwo.tone5.dot" unicode="&#x106d;" horiz-adv-x="971" 
d="M662 123q25 -17 47 -17q27 0 44 20t20 47q-4 22 -11.5 39t-17.5 30.5t-22 26t-24 25.5l-8 9q-30 31 -52 63.5t-22 71.5t30.5 68t90.5 29q14 0 32 -2.5t35.5 -13t30.5 -29.5t16 -60h-71q-9 25 -17 27t-14 3q-19 -1 -28 -5.5t-11 -8.5t-0.5 -10.5t8.5 -15.5
q10 -10 22.5 -26t22.5 -26q18 -19 36 -40.5t33.5 -45t26 -51t12.5 -57.5q0 -35 -12 -65.5t-33.5 -52t-51.5 -34t-65 -12.5q-50 0 -98 29zM40 306q12 0 21 -8.5t9 -20.5q0 -13 -9 -22t-21 -9q-13 0 -21.5 9t-8.5 22q0 12 8.5 20.5t21.5 8.5zM289 547q12 0 21 -8.5t9 -22.5
q0 -11 -9 -20t-21 -9q-13 0 -21.5 9t-8.5 20q0 14 8.5 22.5t21.5 8.5zM289 59q12 0 21 -8.5t9 -20.5q0 -13 -9 -22t-21 -9q-13 0 -21.5 9t-8.5 22q0 12 8.5 20.5t21.5 8.5zM117 128q12 0 21 -8.5t9 -22.5q0 -11 -9 -20t-21 -9q-13 0 -21.5 9t-8.5 20q0 14 8.5 22.5t21.5 8.5
zM59 204q14 0 23 -8.5t9 -22.5q0 -11 -9 -21t-23 -10q-11 0 -20.5 10t-9.5 21q0 14 9.5 22.5t20.5 8.5zM191 78q14 0 23 -8.5t9 -22.5q0 -11 -9 -21t-23 -10q-11 0 -19.5 10t-8.5 21q0 14 8.5 22.5t19.5 8.5zM117 420q-13 0 -21.5 8.5t-8.5 22.5q0 11 8.5 20t21.5 9
q12 0 21 -9t9 -20q0 -14 -9 -22.5t-21 -8.5zM59 344q-11 0 -20.5 9t-9.5 22q0 11 9.5 21t20.5 10q14 0 23 -10t9 -21q0 -13 -9 -22t-23 -9zM191 470q-11 0 -19.5 8.5t-8.5 22.5q0 11 8.5 21t19.5 10q14 0 23 -10t9 -21q0 -14 -9 -22.5t-23 -8.5zM529 306q13 0 21.5 -8.5
t8.5 -20.5q0 -13 -8.5 -22t-21.5 -9q-12 0 -21 9t-9 22q0 12 9 20.5t21 8.5zM452 128q13 0 21.5 -8.5t8.5 -22.5q0 -11 -8.5 -20t-21.5 -9q-12 0 -21 9t-9 20q0 14 9 22.5t21 8.5zM510 204q11 0 20.5 -8.5t9.5 -22.5q0 -11 -9.5 -21t-20.5 -10q-14 0 -23 10t-9 21
q0 14 9 22.5t23 8.5zM378 78q11 0 19.5 -8.5t8.5 -22.5q0 -11 -8.5 -21t-19.5 -10q-14 0 -23 10t-9 21q0 14 9 22.5t23 8.5zM452 420q-12 0 -21 8.5t-9 22.5q0 11 9 20t21 9q13 0 21.5 -9t8.5 -20q0 -14 -8.5 -22.5t-21.5 -8.5zM510 344q-14 0 -23 9t-9 22q0 11 9 21t23 10
q11 0 20.5 -10t9.5 -21q0 -13 -9.5 -22t-20.5 -9zM378 470q-14 0 -23 8.5t-9 22.5q0 11 9 21t23 10q11 0 19.5 -10t8.5 -21q0 -14 -8.5 -22.5t-19.5 -8.5z" />
    <glyph glyph-name="pwo.nna" unicode="&#x106e;" horiz-adv-x="1253" 
d="M812 81q20 -3 31.5 -4t27.5 -1q87 0 141 57q58 58 58 143q0 84 -58 141q-54 57 -141 57q-86 0 -145 -56l-4 -4q4 -12 7.5 -34t6 -44t3.5 -42t1 -32q0 -44 -5.5 -79t-17 -65t-29 -59t-46.5 -68l-73 54q25 34 40 56t25 45.5t15.5 51.5t5.5 66q0 11 -1 30t-3 40.5t-5.5 42
t-8.5 34.5q-7 24 -21 40.5t-34 16.5q-19 0 -33 -12.5t-18 -28.5q39 -64 39 -151q0 -142 -80 -231q-17 -18 -36.5 -32t-51.5 -27q-13 25 -20 37.5t-21 39.5q27 12 40.5 22t27.5 23q57 64 57 168q0 84 -57 141q-56 57 -141 57q-86 0 -145 -56q-58 -57 -58 -142q0 -106 56 -170
q12 -13 25 -21t38 -20q-11 -27 -18 -40.5t-16 -39.5q-56 24 -90 59q-80 86 -80 232q0 124 81 204q83 80 207 80q104 0 178 -58q15 22 46.5 39.5t67.5 17.5q34 0 65 -17t47 -38q33 25 80 40.5t99 15.5q123 0 203 -80q79 -79 79 -204q0 -124 -80 -206q-80 -80 -202 -80
q-40 0 -86 9z" />
    <glyph glyph-name="pwo.ywa" unicode="&#x106f;" horiz-adv-x="1118" 
d="M677 81q20 -3 31.5 -4t27.5 -1q87 0 141 57q58 58 58 143q0 84 -58 141q-54 57 -141 57q-86 0 -145 -56q-21 -23 -34 -45q7 -23 10 -49.5t3 -54.5q0 -125 -79 -204q-80 -80 -203 -80q-124 0 -207 80q-81 79 -81 204q0 146 80 232q18 18 37.5 31t51.5 29q12 -28 18.5 -42
t15.5 -40q-22 -12 -37 -21t-25 -19q-55 -64 -55 -170q0 -87 57 -142q60 -57 145 -57t141 57q58 57 58 142q0 104 -58 168q-12 11 -26.5 21.5t-40.5 22.5l40 78q53 -24 88 -59q9 -10 17 -21t9 -12l13 13q83 80 207 80q123 0 203 -80q79 -79 79 -204q0 -119 -70 -196
q0 -107 -0.5 -210.5t-0.5 -213.5q-2 -48 -69 -64q-33 0 -64.5 0.5t-73.5 0.5v87h124v336q-56 -26 -128 -26q-40 0 -86 9z" />
    <glyph glyph-name="pwo.ghwa" unicode="&#x1070;" horiz-adv-x="1118" 
d="M740 -320h124v331q-56 -26 -128 -26q-124 0 -207 80l-20 20q-1 -1 -7 -7.5t-11 -11.5q-80 -80 -203 -80q-124 0 -207 80q-81 79 -81 204q1 35 10.5 53.5t24 27.5t29 9.5t24.5 0.5q8 0 10.5 -0.5t5.5 1.5q23 1 37.5 16.5t14.5 36.5q0 22 -15.5 36.5t-36.5 14.5t-47 -26
l-50 80q24 20 46.5 28.5t48.5 8.5q29 0 55 -11t44.5 -30t30 -44.5t11.5 -54.5t-11.5 -55t-30 -45t-44.5 -30.5t-55 -11.5q-4 0 -10.5 0.5t-5.5 0.5v-6q0 -87 57 -142q60 -57 145 -57t141 57q58 57 58 142q0 104 -58 168q-12 11 -26.5 22t-40.5 23l41 77q52 -24 87 -59
q80 -91 80 -231q0 -52 -14 -97q5 -10 14.5 -23t20.5 -23q29 -27 65.5 -42t79.5 -15q85 0 141 57q58 57 58 142t-58 143q-56 57 -141 57q-28 0 -59 -5l-27 80q29 8 47.5 9.5t38.5 1.5q122 0 202 -81q80 -80 80 -205q0 -118 -70 -195q0 -105 -0.5 -207t-0.5 -211
q-2 -48 -69 -64q-33 0 -64.5 0.5t-73.5 0.5v87z" />
    <glyph glyph-name="geba.i.vow.dot" unicode="&#x1071;" horiz-adv-x="659" 
d="M60 808q0 21 8.5 40.5t23 33.5t34 22.5t41.5 8.5q21 0 40.5 -8.5t33.5 -22.5t22.5 -33.5t8.5 -40.5q0 -22 -8.5 -41.5t-22.5 -34t-33.5 -23t-40.5 -8.5q-22 0 -41.5 8.5t-34 23t-23 34t-8.5 41.5zM128 808q0 -16 11.5 -27.5t27.5 -11.5t28.5 11.5t12.5 27.5t-12.5 28.5
t-28.5 12.5t-27.5 -12.5t-11.5 -28.5zM299 808q0 21 8.5 40.5t22.5 33.5t34 22.5t42 8.5q21 0 40.5 -8.5t33 -22.5t22 -33.5t8.5 -40.5q0 -22 -8 -41.5t-22 -34t-33.5 -23t-40.5 -8.5q-22 0 -42 8.5t-34 23t-22.5 34t-8.5 41.5zM367 808q0 -16 11.5 -27.5t27.5 -11.5
t28.5 11.5t12.5 27.5t-12.5 28.5t-28.5 12.5t-27.5 -12.5t-11.5 -28.5zM40 306q12 0 21 -8.5t9 -20.5q0 -13 -9 -22t-21 -9q-13 0 -21.5 9t-8.5 22q0 12 8.5 20.5t21.5 8.5zM289 547q12 0 21 -8.5t9 -22.5q0 -11 -9 -20t-21 -9q-13 0 -21.5 9t-8.5 20q0 14 8.5 22.5
t21.5 8.5zM289 59q12 0 21 -8.5t9 -20.5q0 -13 -9 -22t-21 -9q-13 0 -21.5 9t-8.5 22q0 12 8.5 20.5t21.5 8.5zM117 128q12 0 21 -8.5t9 -22.5q0 -11 -9 -20t-21 -9q-13 0 -21.5 9t-8.5 20q0 14 8.5 22.5t21.5 8.5zM59 204q14 0 23 -8.5t9 -22.5q0 -11 -9 -21t-23 -10
q-11 0 -20.5 10t-9.5 21q0 14 9.5 22.5t20.5 8.5zM191 78q14 0 23 -8.5t9 -22.5q0 -11 -9 -21t-23 -10q-11 0 -19.5 10t-8.5 21q0 14 8.5 22.5t19.5 8.5zM117 420q-13 0 -21.5 8.5t-8.5 22.5q0 11 8.5 20t21.5 9q12 0 21 -9t9 -20q0 -14 -9 -22.5t-21 -8.5zM59 344
q-11 0 -20.5 9t-9.5 22q0 11 9.5 21t20.5 10q14 0 23 -10t9 -21q0 -13 -9 -22t-23 -9zM191 470q-11 0 -19.5 8.5t-8.5 22.5q0 11 8.5 21t19.5 10q14 0 23 -10t9 -21q0 -14 -9 -22.5t-23 -8.5zM529 306q13 0 21.5 -8.5t8.5 -20.5q0 -13 -8.5 -22t-21.5 -9q-12 0 -21 9t-9 22
q0 12 9 20.5t21 8.5zM452 128q13 0 21.5 -8.5t8.5 -22.5q0 -11 -8.5 -20t-21.5 -9q-12 0 -21 9t-9 20q0 14 9 22.5t21 8.5zM510 204q11 0 20.5 -8.5t9.5 -22.5q0 -11 -9.5 -21t-20.5 -10q-14 0 -23 10t-9 21q0 14 9 22.5t23 8.5zM378 78q11 0 19.5 -8.5t8.5 -22.5
q0 -11 -8.5 -21t-19.5 -10q-14 0 -23 10t-9 21q0 14 9 22.5t23 8.5zM452 420q-12 0 -21 8.5t-9 22.5q0 11 9 20t21 9q13 0 21.5 -9t8.5 -20q0 -14 -8.5 -22.5t-21.5 -8.5zM510 344q-14 0 -23 9t-9 22q0 11 9 21t23 10q11 0 20.5 -10t9.5 -21q0 -13 -9.5 -22t-20.5 -9z
M378 470q-14 0 -23 8.5t-9 22.5q0 11 9 21t23 10q11 0 19.5 -10t8.5 -21q0 -14 -8.5 -22.5t-19.5 -8.5z" />
    <glyph glyph-name="kayah.oe.vow.dot" unicode="&#x1072;" horiz-adv-x="659" 
d="M476 695q-13 -17 -20 -26.5t-16 -17.5q-60 -63 -147 -63q-90 0 -150 62q-60 59 -60 151q0 89 61 149q62 62 151 62q88 0 148 -62q26 -26 44 -65l-74 -41q-9 22 -15.5 30.5t-14.5 17.5q-35 36 -90 36q-58 0 -92.5 -35t-34.5 -92q0 -55 34.5 -89.5t89.5 -34.5q53 0 90 34
q10 9 21 29zM40 306q12 0 21 -8.5t9 -20.5q0 -13 -9 -22t-21 -9q-13 0 -21.5 9t-8.5 22q0 12 8.5 20.5t21.5 8.5zM289 547q12 0 21 -8.5t9 -22.5q0 -11 -9 -20t-21 -9q-13 0 -21.5 9t-8.5 20q0 14 8.5 22.5t21.5 8.5zM289 59q12 0 21 -8.5t9 -20.5q0 -13 -9 -22t-21 -9
q-13 0 -21.5 9t-8.5 22q0 12 8.5 20.5t21.5 8.5zM117 128q12 0 21 -8.5t9 -22.5q0 -11 -9 -20t-21 -9q-13 0 -21.5 9t-8.5 20q0 14 8.5 22.5t21.5 8.5zM59 204q14 0 23 -8.5t9 -22.5q0 -11 -9 -21t-23 -10q-11 0 -20.5 10t-9.5 21q0 14 9.5 22.5t20.5 8.5zM191 78
q14 0 23 -8.5t9 -22.5q0 -11 -9 -21t-23 -10q-11 0 -19.5 10t-8.5 21q0 14 8.5 22.5t19.5 8.5zM117 420q-13 0 -21.5 8.5t-8.5 22.5q0 11 8.5 20t21.5 9q12 0 21 -9t9 -20q0 -14 -9 -22.5t-21 -8.5zM59 344q-11 0 -20.5 9t-9.5 22q0 11 9.5 21t20.5 10q14 0 23 -10t9 -21
q0 -13 -9 -22t-23 -9zM191 470q-11 0 -19.5 8.5t-8.5 22.5q0 11 8.5 21t19.5 10q14 0 23 -10t9 -21q0 -14 -9 -22.5t-23 -8.5zM529 306q13 0 21.5 -8.5t8.5 -20.5q0 -13 -8.5 -22t-21.5 -9q-12 0 -21 9t-9 22q0 12 9 20.5t21 8.5zM452 128q13 0 21.5 -8.5t8.5 -22.5
q0 -11 -8.5 -20t-21.5 -9q-12 0 -21 9t-9 20q0 14 9 22.5t21 8.5zM510 204q11 0 20.5 -8.5t9.5 -22.5q0 -11 -9.5 -21t-20.5 -10q-14 0 -23 10t-9 21q0 14 9 22.5t23 8.5zM378 78q11 0 19.5 -8.5t8.5 -22.5q0 -11 -8.5 -21t-19.5 -10q-14 0 -23 10t-9 21q0 14 9 22.5t23 8.5
zM452 420q-12 0 -21 8.5t-9 22.5q0 11 9 20t21 9q13 0 21.5 -9t8.5 -20q0 -14 -8.5 -22.5t-21.5 -8.5zM510 344q-14 0 -23 9t-9 22q0 11 9 21t23 10q11 0 20.5 -10t9.5 -21q0 -13 -9.5 -22t-20.5 -9zM378 470q-14 0 -23 8.5t-9 22.5q0 11 9 21t23 10q11 0 19.5 -10t8.5 -21
q0 -14 -8.5 -22.5t-19.5 -8.5z" />
    <glyph glyph-name="kayah.u.vow.dot" unicode="&#x1073;" horiz-adv-x="659" 
d="M40 306q12 0 21 -8.5t9 -20.5q0 -13 -9 -22t-21 -9q-13 0 -21.5 9t-8.5 22q0 12 8.5 20.5t21.5 8.5zM289 547q12 0 21 -8.5t9 -22.5q0 -11 -9 -20t-21 -9q-13 0 -21.5 9t-8.5 20q0 14 8.5 22.5t21.5 8.5zM289 59q12 0 21 -8.5t9 -20.5q0 -13 -9 -22t-21 -9q-13 0 -21.5 9
t-8.5 22q0 12 8.5 20.5t21.5 8.5zM117 128q12 0 21 -8.5t9 -22.5q0 -11 -9 -20t-21 -9q-13 0 -21.5 9t-8.5 20q0 14 8.5 22.5t21.5 8.5zM59 204q14 0 23 -8.5t9 -22.5q0 -11 -9 -21t-23 -10q-11 0 -20.5 10t-9.5 21q0 14 9.5 22.5t20.5 8.5zM191 78q14 0 23 -8.5t9 -22.5
q0 -11 -9 -21t-23 -10q-11 0 -19.5 10t-8.5 21q0 14 8.5 22.5t19.5 8.5zM117 420q-13 0 -21.5 8.5t-8.5 22.5q0 11 8.5 20t21.5 9q12 0 21 -9t9 -20q0 -14 -9 -22.5t-21 -8.5zM59 344q-11 0 -20.5 9t-9.5 22q0 11 9.5 21t20.5 10q14 0 23 -10t9 -21q0 -13 -9 -22t-23 -9z
M191 470q-11 0 -19.5 8.5t-8.5 22.5q0 11 8.5 21t19.5 10q14 0 23 -10t9 -21q0 -14 -9 -22.5t-23 -8.5zM529 306q13 0 21.5 -8.5t8.5 -20.5q0 -13 -8.5 -22t-21.5 -9q-12 0 -21 9t-9 22q0 12 9 20.5t21 8.5zM452 128q13 0 21.5 -8.5t8.5 -22.5q0 -11 -8.5 -20t-21.5 -9
q-12 0 -21 9t-9 20q0 14 9 22.5t21 8.5zM510 204q11 0 20.5 -8.5t9.5 -22.5q0 -11 -9.5 -21t-20.5 -10q-14 0 -23 10t-9 21q0 14 9 22.5t23 8.5zM378 78q11 0 19.5 -8.5t8.5 -22.5q0 -11 -8.5 -21t-19.5 -10q-14 0 -23 10t-9 21q0 14 9 22.5t23 8.5zM452 420q-12 0 -21 8.5
t-9 22.5q0 11 9 20t21 9q13 0 21.5 -9t8.5 -20q0 -14 -8.5 -22.5t-21.5 -8.5zM510 344q-14 0 -23 9t-9 22q0 11 9 21t23 10q11 0 20.5 -10t9.5 -21q0 -13 -9.5 -22t-20.5 -9zM378 470q-14 0 -23 8.5t-9 22.5q0 11 9 21t23 10q11 0 19.5 -10t8.5 -21q0 -14 -8.5 -22.5
t-19.5 -8.5zM-33 703l329 268q46 -40 85.5 -71.5t79 -62.5t79 -62.5t85.5 -70.5l-13 -65l-316 229l-317 -229z" />
    <glyph glyph-name="kayah.ee.vow.dot" unicode="&#x1074;" horiz-adv-x="659" 
d="M385 1013q24 -13 36.5 -23t23.5 -21q58 -61 58 -149q0 -86 -61 -150q-62 -63 -148 -63q-88 0 -150 62q-60 60 -60 151q0 88 61 149q14 14 28 23t40 22l25 -75q-14 -9 -20.5 -15t-14.5 -12q-35 -35 -35 -92q0 -27 9.5 -49.5t25.5 -39.5t38.5 -26t49.5 -9q56 0 90.5 33.5
t36.5 90.5q0 54 -34 91q-8 7 -13 11.5t-22 13.5zM40 306q12 0 21 -8.5t9 -20.5q0 -13 -9 -22t-21 -9q-13 0 -21.5 9t-8.5 22q0 12 8.5 20.5t21.5 8.5zM289 547q12 0 21 -8.5t9 -22.5q0 -11 -9 -20t-21 -9q-13 0 -21.5 9t-8.5 20q0 14 8.5 22.5t21.5 8.5zM289 59
q12 0 21 -8.5t9 -20.5q0 -13 -9 -22t-21 -9q-13 0 -21.5 9t-8.5 22q0 12 8.5 20.5t21.5 8.5zM117 128q12 0 21 -8.5t9 -22.5q0 -11 -9 -20t-21 -9q-13 0 -21.5 9t-8.5 20q0 14 8.5 22.5t21.5 8.5zM59 204q14 0 23 -8.5t9 -22.5q0 -11 -9 -21t-23 -10q-11 0 -20.5 10t-9.5 21
q0 14 9.5 22.5t20.5 8.5zM191 78q14 0 23 -8.5t9 -22.5q0 -11 -9 -21t-23 -10q-11 0 -19.5 10t-8.5 21q0 14 8.5 22.5t19.5 8.5zM117 420q-13 0 -21.5 8.5t-8.5 22.5q0 11 8.5 20t21.5 9q12 0 21 -9t9 -20q0 -14 -9 -22.5t-21 -8.5zM59 344q-11 0 -20.5 9t-9.5 22
q0 11 9.5 21t20.5 10q14 0 23 -10t9 -21q0 -13 -9 -22t-23 -9zM191 470q-11 0 -19.5 8.5t-8.5 22.5q0 11 8.5 21t19.5 10q14 0 23 -10t9 -21q0 -14 -9 -22.5t-23 -8.5zM529 306q13 0 21.5 -8.5t8.5 -20.5q0 -13 -8.5 -22t-21.5 -9q-12 0 -21 9t-9 22q0 12 9 20.5t21 8.5z
M452 128q13 0 21.5 -8.5t8.5 -22.5q0 -11 -8.5 -20t-21.5 -9q-12 0 -21 9t-9 20q0 14 9 22.5t21 8.5zM510 204q11 0 20.5 -8.5t9.5 -22.5q0 -11 -9.5 -21t-20.5 -10q-14 0 -23 10t-9 21q0 14 9 22.5t23 8.5zM378 78q11 0 19.5 -8.5t8.5 -22.5q0 -11 -8.5 -21t-19.5 -10
q-14 0 -23 10t-9 21q0 14 9 22.5t23 8.5zM452 420q-12 0 -21 8.5t-9 22.5q0 11 9 20t21 9q13 0 21.5 -9t8.5 -20q0 -14 -8.5 -22.5t-21.5 -8.5zM510 344q-14 0 -23 9t-9 22q0 11 9 21t23 10q11 0 20.5 -10t9.5 -21q0 -13 -9.5 -22t-20.5 -9zM378 470q-14 0 -23 8.5t-9 22.5
q0 11 9 21t23 10q11 0 19.5 -10t8.5 -21q0 -14 -8.5 -22.5t-19.5 -8.5z" />
    <glyph glyph-name="shan.ka" unicode="&#x1075;" horiz-adv-x="649" 
d="M547 384q11 -18 19.5 -41t14 -48t8 -49t1.5 -44q-4 -68 -32 -126q-36 -76 -94 -76q-38 0 -38 42q0 24 22 34q62 30 62 142q-9 110 -57 161t-128 51q-64 0 -112 -40t-48 -102q0 -4 42 -65t42 -89q0 -62 -43 -98t-105 -36q-136 0 -136 124q0 46 30 84l14 18q12 16 32 16
q40 0 40 -40q0 -14 -8 -24l-14 -18q-14 -18 -14 -36q0 -44 56 -44q68 0 68 54q-63 56 -84 167q0 83 71 146t169 63q136 0 205 -98q9 -13 17 -28z" />
    <glyph glyph-name="shan.kha" unicode="&#x1076;" horiz-adv-x="582" 
d="M518 248q0 -114 -66 -174q-4 -12 -20 -18q-74 -56 -210 -56q-68 0 -130 38q-72 42 -72 106q0 120 158 120q64 0 134 -27t110 -71q18 34 18 82q0 154 -162 154q-49 -116 -111.5 -102.5t-111 71.5t-25.5 76q31 58 99 -30q59 -83 97 42q14 23 48 30q112 -7 178 -70t66 -171z
M370 110q-20 32 -90 54q-58 18 -108 18q-42 0 -48 -2q-24 -8 -24 -36q0 -26 50 -46q42 -18 72 -18q98 0 148 30z" />
    <glyph glyph-name="shan.ga" unicode="&#x1077;" horiz-adv-x="602" 
d="M500 384q11 -18 19.5 -41t14 -48t8 -49t1.5 -44q-4 -68 -32 -126q-36 -76 -94 -76q-140 -9 -149 129.5t195 143.5q-9 55 -57 106t-128 51q-64 0 -112 -40t-48 -102q0 -4 42 -84t42 -108q0 -62 -43 -98t-105 -36q-136 0 -136 124q0 46 30 84l14 18q12 16 32 16
q40 0 40 -40q0 -14 -8 -24l-14 -18q-14 -18 -14 -36q0 -44 56 -44q68 0 68 54l-42 76q-42 76 -42 116q0 96 71 159t169 63q136 0 205 -98q9 -13 17 -28zM476 214q-78 6 -119.5 -40t-7.5 -85q38 -41 72.5 -14.5t47 64.5t7.5 75z" />
    <glyph glyph-name="shan.ca" unicode="&#x1078;" horiz-adv-x="1024" 
d="M4 226q0 108 70 177t178 69q118 0 192 -66q20 -24 34 -40q48 82 130 102q30 14 56 14q108 0 174 -38q126 -54 126 -228q0 -94 -92 -158q-82 -60 -180 -60q-110 0 -179 68t-69 178v18q0 32 -38 64q-80 66 -154 66q-76 0 -122 -45t-46 -121q0 -110 108 -148q36 -12 36 -40
q0 -48 -46 -40q-78 12 -130 82q-48 64 -48 146zM524 244q0 -76 46 -121t122 -45q62 0 122 38q70 42 70 100q0 98 -50 138q-24 8 -32 18h-2q-10 4 -16 10q-52 20 -120 20q-2 0 -14 -6l-12 -4l-16 -10q-16 -10 -32 -8q-66 -48 -66 -130z" />
    <glyph glyph-name="shan.za" unicode="&#x1079;" horiz-adv-x="1024" 
d="M4 226q0 108 70 177t178 69q118 0 192 -66q20 -24 34 -40q48 82 130 102q30 14 56 14q108 0 174 -38q126 -54 126 -228q0 -94 -92 -158q-82 -60 -180 -60q-110 0 -179 68t-69 178v18q0 32 -38 64q-80 66 -154 66q-76 0 -122 -45t-50 -82q236 16 256.5 -127.5
t-154.5 -139.5q-78 12 -130 82q-48 64 -48 146zM524 244q0 -76 46 -121t122 -45q62 0 122 38q70 42 70 100q0 98 -50 138q-24 8 -32 18h-2q-10 4 -16 10q-52 20 -120 20q-2 0 -14 -6l-12 -4l-16 -10q-16 -10 -32 -8q-66 -48 -66 -130zM79 200q7 -32 29 -69t66.5 -54t81.5 12
q25 45 -5.5 82t-171.5 29z" />
    <glyph glyph-name="shan.nya" unicode="&#x107a;" horiz-adv-x="967" 
d="M542 54l2 -304q2 -232 204 -232q48 0 94 36t46 82v28q-4 2 -12 10q-22 18 -22 36q0 48 46 48l24 -8q54 -20 54 -114q0 -86 -71 -147t-159 -61q-138 0 -218 94q-76 88 -76 228q0 211 1 359q1 79 -35 185q-36 102 -144 102q-114 0 -150 -59.5t-36 -102.5v-20q0 -76 72 -148
q8 -2 24 -10q36 0 36 50q0 22 -9 43q-11 24 -11 41.5t8 27.5t21 12.5t28 -4.5q43 -54 43 -120q0 -54 -32 -91t-86 -37q-16 0 -32 8h-4q-16 -4 -30 10q-60 60 -78 92q-28 50 -28 126q0 118 73 190t191 72q204 0 242 -238q66 -161 188 -156q172 0 172 162q0 88 -53 138
t-141 50h-32q-40 0 -40 38q0 40 40 40h14q12 2 18 2q120 0 196 -74t76 -194q0 -116 -66 -178t-184 -62q-98 0 -164 50z" />
    <glyph glyph-name="shan.da" unicode="&#x107b;" horiz-adv-x="1024" 
d="M964 226q0 -82 -48 -146q-52 -70 -130 -82q-175 -4 -154.5 139.5t256.5 127.5q-4 37 -50 82t-122 45q-74 0 -154 -66q-38 -32 -38 -64v-18q0 -110 -69 -178t-179 -68q-98 0 -180 60q-92 64 -92 158q0 174 126 228q66 38 174 38q26 0 56 -14q82 -20 130 -102q14 16 34 40
q74 66 192 66q108 0 178 -69t70 -177zM444 244q0 82 -66 130q-16 -2 -32 8l-16 10l-12 4q-12 6 -14 6q-68 0 -120 -20q-6 -6 -16 -10h-2q-8 -10 -32 -18q-50 -40 -50 -138q0 -58 70 -100q60 -38 122 -38q76 0 122 45t46 121zM889 200q-141 8 -171.5 -29t-5.5 -82
q37 -29 81.5 -12t66.5 54t29 69z" />
    <glyph glyph-name="shan.na" unicode="&#x107c;" horiz-adv-x="982" 
d="M360 110q-20 32 -90 54q-58 18 -108 18q-42 0 -48 -2q-24 -8 -24 -36q0 -26 50 -46q42 -18 72 -18q98 0 148 30zM473 111q-13 -21 -31 -37q-4 -12 -20 -18q-74 -56 -210 -56q-68 0 -130 38q-72 42 -72 106q0 120 158 120q64 0 134 -27t110 -71q18 34 18 82
q0 154 -162 154q-28 0 -87 -21t-81 -21q-38 0 -38 42q0 28 28 36l88 28q52 16 90 16q108 0 174 -63q8 -7 14 -14t11 -15q13 20 54.5 60t149.5 40q38 0 106 -4q60 -15 112 -60q28 -8 28 -36q0 -42 -38 -42q-22 0 -101 31t-107 31q-162 0 -162 -154q0 -48 18 -82q40 44 110 71
t134 27q158 0 158 -120q0 -64 -72 -106q-62 -38 -130 -38q-136 0 -210 56q-16 6 -20 18q-12 11 -24 29zM579 118q50 -30 148 -30q30 0 72 18q50 20 50 46q0 28 -24 36q-6 2 -48 2q-50 0 -108 -18q-70 -22 -90 -54z" />
    <glyph glyph-name="shan.pha" unicode="&#x107d;" horiz-adv-x="1054" 
d="M908 151q0 28 -24 36q-6 2 -48 2q-50 0 -108 -18q-70 -22 -90 -54q50 -30 146 -30q32 0 74 18q50 20 50 46zM512 137q-104 -151 -258 -151q-98 0 -169 63t-71 159q0 40 69 116l42 76q0 54 -68 54q-56 0 -56 -44q0 -18 14 -36l14 -18q8 -10 8 -24q0 -40 -40 -40
q-20 0 -32 16l-14 18q-30 38 -30 84q0 124 136 124q62 0 105 -36t43 -98q0 -28 -55.5 -108t-55.5 -84q0 -62 48 -102t112 -40q80 0 127 32q72 48 107 137v20q0 108 52.5 181t189.5 80q89 8 178 -44q28 -8 28 -36q0 -42 -38 -42q-24 0 -82 21t-86 21q-162 -27 -162 -181
q0 -48 18 -82q40 44 110 71t134 27q156 0 156 -120q0 -64 -72 -106q-62 -38 -130 -38q-134 0 -208 56q-16 6 -22 18q-26 23 -42 56z" />
    <glyph glyph-name="shan.fa" unicode="&#x107e;" horiz-adv-x="1060" 
d="M908 151q0 28 -24 36q-6 2 -48 2q-50 0 -108 -18q-70 -22 -90 -54q50 -30 146 -30q32 0 74 18q50 20 50 46zM732 9q10 -82 10 -206q0 -140 -76 -228q-80 -94 -218 -94q-88 0 -159 61t-71 147q0 96 54 114l24 8q46 0 46 -48q0 -18 -22 -36q-8 -8 -12 -10v-28q0 -46 46 -82
t94 -36q194 0 204 232l2 48q2 46 0 74q-3 51 -11 103q-38 13 -67 35q-16 6 -22 18q-26 23 -42 56q-104 -151 -258 -151q-98 0 -169 63t-71 159q0 40 69 116l42 76q0 54 -68 54q-56 0 -56 -44q0 -18 14 -36l14 -18q8 -10 8 -24q0 -40 -40 -40q-20 0 -32 16l-14 18
q-30 38 -30 84q0 124 136 124q62 0 105 -36t43 -98q0 -28 -55.5 -108t-55.5 -84q0 -62 48 -102t112 -40q80 0 127 32q72 48 107 137v20q0 108 52.5 181t189.5 80q89 8 178 -44q28 -8 28 -36q0 -42 -38 -42q-24 0 -82 21t-86 21q-162 -27 -162 -181q0 -48 18 -82
q40 44 110 71t134 27q156 0 156 -120q0 -64 -72 -106q-62 -38 -130 -38q-27 0 -52 2z" />
    <glyph glyph-name="shan.ba" unicode="&#x107f;" horiz-adv-x="575" 
d="M10 266q0 72 30 128q36 66 100 82q18 10 38 0q114 -56 114 -170q0 -70 -42 -117t-112 -59q48 -48 130 -48q64 0 116 38q58 40 58 102q0 70 -2 76q-6 18 -60 82q-8 10 -8 20q0 34 48 34q24 0 38 -16q48 -54 56 -88q6 -24 6 -108q0 -94 -80 -158q-74 -60 -172 -60
q-118 0 -188 72t-70 190zM90 266q0 -32 6 -62q116 4 116 102q0 60 -56 92q-66 -18 -66 -132z" />
    <glyph glyph-name="shan.tha" unicode="&#x1080;" horiz-adv-x="971" 
d="M471 89l-19 -15q-4 -12 -20 -18q-74 -56 -210 -56q-68 0 -130 38q-72 42 -72 106q0 120 158 120q64 0 134 -27t110 -71q18 34 18 82q0 154 -162 154q-28 0 -87 -21t-81 -21q-38 0 -38 42q0 28 28 36l88 28q52 16 90 16q108 0 174 -63t66 -171q0 -41 -9 -75q-4 -7 21 -27
q80 -66 154 -66q76 0 122 45t46 121q0 110 -108 148q-36 12 -36 40q0 48 46 40q78 -12 130 -82q48 -64 48 -146q0 -108 -70 -177t-178 -69q-118 0 -192 66q-15 18 -21 23zM370 110q-20 32 -90 54q-58 18 -108 18q-42 0 -48 -2q-24 -8 -24 -36q0 -26 50 -46q42 -18 72 -18
q98 0 148 30z" />
    <glyph glyph-name="shan.ha" unicode="&#x1081;" horiz-adv-x="599" 
d="M206 0q-23 -14 -35 -14q-24 0 -34 22q-126 56 -126 230q0 102 78 178t180 76q120 0 195 -76t75 -196q-9 -108 -13 -148q-45 -36 -76 14q9 86 9 134q0 88 -51 141t-139 53q-80 0 -136 -70q64 -14 110 -90q42 -68 47 -130q8 -161 8 -325q0 -140 -76 -228q-80 -94 -218 -94
q-88 0 -159 61t-71 147q0 96 54 114l24 8q46 0 46 -48q0 -18 -22 -36q-8 -8 -12 -10v-28q0 -46 46 -82t94 -36q194 0 204 232l2 48q2 46 0 74q-4 62 -4 79zM207 116q0 44 -28 94q-32 58 -72 58h-10q-4 -14 -4 -30q0 -70 24 -102q16 -26 80 -62q10 12 10 42z" />
    <glyph glyph-name="shan.wa.med.dot" unicode="&#x1082;" horiz-adv-x="592" 
d="M339 430q-13 0 -21 8t-8 19q0 10 8.5 19t20.5 9q10 0 18 -9t8 -19q0 -13 -8 -20t-18 -7zM458 316q-14 0 -21 8.5t-7 19.5q0 10 8 19.5t20 9.5q9 0 18 -10q9 -9 9 -19q0 -11 -8.5 -19.5t-18.5 -8.5zM406 385q-11 0 -18.5 7.5t-7.5 20.5q0 10 7.5 18t18.5 8t19 -7.5
t8 -18.5q0 -13 -8 -20.5t-19 -7.5zM339 78q10 0 18 -7.5t8 -20.5q0 -10 -7.5 -19.5t-18.5 -9.5q-13 0 -21 9t-8 20q0 13 8 20.5t21 7.5zM458 191q10 0 18.5 -7.5t8.5 -20.5q0 -11 -9 -20t-18 -9q-14 0 -21 9t-7 20q0 28 28 28zM406 122q11 0 19 -8t8 -19q0 -10 -7.5 -18
t-19.5 -8q-11 0 -18.5 8t-7.5 18q0 13 7.5 20t18.5 7zM475 282q11 0 19 -7t8 -18t-8 -20t-19 -9t-18.5 8.5t-7.5 20.5q0 11 7.5 18t18.5 7zM171 430q-10 0 -17.5 8t-7.5 19q0 10 7 19t18 9q13 0 21 -9t8 -19q0 -13 -8 -20t-21 -7zM52 316q-10 0 -18 8.5t-8 19.5
q0 10 8.5 19.5t17.5 9.5q13 0 21.5 -9t8.5 -20t-8.5 -19.5t-21.5 -8.5zM104 385q-26 0 -26 28q0 10 7 18t19 8q10 0 18.5 -7.5t8.5 -18.5q0 -13 -8.5 -20.5t-18.5 -7.5zM171 78q13 0 21 -7.5t8 -20.5q0 -10 -8 -19.5t-21 -9.5q-10 0 -17.5 9t-7.5 20q0 13 7.5 20.5t17.5 7.5
zM52 191q13 0 21.5 -7.5t8.5 -20.5q0 -11 -8.5 -20t-21.5 -9q-10 0 -18 9q-8 10 -8 20q0 13 8 20.5t18 7.5zM104 122q10 0 18.5 -8t8.5 -19q0 -10 -8 -18t-19 -8q-12 0 -19 8t-7 18q0 27 26 27zM260 60q11 0 18.5 -7.5t7.5 -17.5q0 -11 -8.5 -20t-17.5 -9q-11 0 -19 8.5
t-8 20.5q0 11 8 18t19 7zM260 499q11 0 18.5 -7.5t7.5 -20.5q0 -10 -8.5 -17.5t-17.5 -7.5q-11 0 -19 7t-8 18q0 13 8 20.5t19 7.5zM35 282q11 0 19.5 -7t8.5 -18t-8 -20t-20 -9q-11 0 -19 8.5t-8 20.5q0 11 8 18t19 7zM699 -256q0 48 -34 48q-10 0 -20 -8
q-108 -106 -198 -156q-116 -64 -242 -64q-68 0 -119 45t-51 111q0 160 256 194q20 2 36 23t16 41q0 26 -28 26q-150 0 -246 -66q-112 -76 -112 -218q0 -104 72 -170t176 -66q156 0 278 64q88 46 200 156q16 16 16 40z" />
    <glyph glyph-name="shan.aa.vow.dot" unicode="&#x1083;" horiz-adv-x="745" 
d="M30 282q11 0 19.5 -6.5t8.5 -18.5q0 -11 -8 -19.5t-20 -8.5q-11 0 -19 8t-8 20q0 11 8 18t19 7zM255 500q11 0 18 -8t7 -21q0 -10 -8 -17t-17 -7q-11 0 -19 7t-8 17q0 13 8 21t19 8zM255 61q11 0 18 -8t7 -18q0 -11 -8 -19.5t-17 -8.5q-11 0 -19 8t-8 20q0 11 8 18.5
t19 7.5zM98 122q11 0 19.5 -8t8.5 -18t-8.5 -18.5t-19.5 -8.5q-12 0 -18.5 8t-6.5 19q0 12 6.5 19t18.5 7zM47 191q13 0 21.5 -7.5t8.5 -20.5q0 -10 -8.5 -19.5t-21.5 -9.5q-10 0 -18 10q-8 9 -8 19q0 13 8.5 20.5t17.5 7.5zM166 78q13 0 21 -7.5t8 -20.5q0 -5 -2.5 -9.5
t-6 -9t-9 -7t-11.5 -2.5q-10 0 -18 9t-8 19q0 13 8 20.5t18 7.5zM98 386q-12 0 -18.5 7.5t-6.5 20.5q0 9 6.5 17.5t18.5 8.5q11 0 19.5 -8t8.5 -18q0 -13 -8.5 -20.5t-19.5 -7.5zM47 316q-9 0 -17.5 8.5t-8.5 20.5q0 5 2 9.5t6 9t8.5 7t9.5 2.5q13 0 21.5 -9.5t8.5 -18.5
q0 -12 -8.5 -20.5t-21.5 -8.5zM166 431q-10 0 -18 8t-8 19q0 9 7.5 18t18.5 9q13 0 21 -9t8 -18q0 -13 -8 -20t-21 -7zM470 282q11 0 19 -6.5t8 -18.5q0 -11 -8 -19.5t-19 -8.5t-18.5 8t-7.5 20q0 11 7.5 18t18.5 7zM401 122q12 0 19.5 -8t7.5 -18t-7.5 -18.5t-19.5 -8.5
q-11 0 -18.5 8t-7.5 19q0 12 7.5 19t18.5 7zM452 191q10 0 18.5 -7.5t8.5 -20.5q0 -9 -8 -19t-19 -10q-13 0 -20 9.5t-7 19.5q0 13 7 20.5t20 7.5zM333 78q10 0 18 -7.5t8 -20.5q0 -5 -2 -10t-5.5 -9t-8 -6.5t-10.5 -2.5q-12 0 -20 9t-8 19q0 13 8 20.5t20 7.5zM401 386
q-11 0 -18.5 7.5t-7.5 20.5q0 9 7.5 17.5t18.5 8.5q12 0 19.5 -8t7.5 -18q0 -13 -7.5 -20.5t-19.5 -7.5zM452 316q-13 0 -20 8.5t-7 20.5q0 5 2 9.5t6 9t9 7t10 2.5q10 0 19 -9q8 -9 8 -19q0 -12 -8.5 -20.5t-18.5 -8.5zM333 431q-12 0 -20 8t-8 19q0 4 2 9t6 9t9.5 6.5
t10.5 2.5t10 -2.5t8.5 -6.5t5.5 -9t2 -9q0 -13 -8 -20t-18 -7zM1063 -356q0 -86 -71 -147t-159 -61q-138 0 -218 94q-76 88 -76 228q0 110 2.5 206.5t4 177t1 143.5t-7.5 105q-2 11 -11 16.5t-22.5 8.5t-28.5 6.5t-28 10t-23 18.5t-12 33q36 32 167 17q51 -10 43 -62
q3 -68 3 -112q-2 -68 0 -256l2 -312q2 -232 204 -232q48 0 94 36t46 82v28q-4 2 -12 10q-22 18 -22 36q0 48 46 48l24 -8q54 -20 54 -114z" />
    <glyph glyph-name="shan.e.vow.dot" unicode="&#x1084;" horiz-adv-x="1117" 
d="M865 436q-13 0 -21 8t-8 19q0 10 8 19t21 9q10 0 18 -9t8 -19q0 -13 -8 -20t-18 -7zM985 322q-13 0 -21 8.5t-8 19.5q0 10 7.5 19t21.5 9q10 0 18 -9t8 -19q0 -12 -8 -20t-18 -8zM932 391q-11 0 -19 7.5t-8 20.5q0 10 8 18t19 8q12 0 19.5 -7.5t7.5 -18.5
q0 -13 -7.5 -20.5t-19.5 -7.5zM865 83q10 0 18 -7t8 -20q0 -11 -8 -20t-18 -9q-13 0 -21 9t-8 20q0 13 8 20t21 7zM985 196q10 0 18 -7t8 -21q0 -9 -9 -19q-8 -9 -17 -9q-13 0 -21 9t-8 19q0 14 8 21t21 7zM932 127q12 0 19.5 -7.5t7.5 -18.5q0 -10 -7.5 -18t-19.5 -8
q-11 0 -19 7.5t-8 18.5q0 13 8 19.5t19 6.5zM1000 288q12 0 20 -7t8 -18t-7.5 -20t-20.5 -9q-11 0 -18 8.5t-7 20.5q0 11 7 18t18 7zM697 436q-10 0 -18 8t-8 19q0 10 8.5 19t17.5 9q13 0 21 -9t8 -19q0 -13 -8 -20t-21 -7zM578 322q-10 0 -18.5 8.5t-8.5 19.5q0 8 9 19
q9 9 18 9q13 0 21 -9t8 -19q0 -12 -8 -20t-21 -8zM631 391q-11 0 -19 7.5t-8 20.5q0 10 8 18t19 8t18.5 -7.5t7.5 -18.5q0 -13 -7.5 -20.5t-18.5 -7.5zM697 83q13 0 21 -7t8 -20q0 -11 -8 -20t-21 -9q-10 0 -18 9t-8 20q0 13 8 20t18 7zM578 196q13 0 21 -7t8 -21
q0 -10 -7.5 -19t-21.5 -9q-10 0 -18 9q-9 9 -9 19q0 14 8.5 21t18.5 7zM631 127q11 0 18.5 -7.5t7.5 -18.5t-8.5 -18.5t-17.5 -7.5q-11 0 -19 7.5t-8 18.5q0 13 8 19.5t19 6.5zM786 66q10 0 18.5 -7.5t8.5 -17.5q0 -12 -8 -20.5t-19 -8.5q-12 0 -19.5 8.5t-7.5 20.5
q0 11 7.5 18t19.5 7zM786 505q10 0 18.5 -7.5t8.5 -20.5q0 -11 -8 -18t-19 -7q-12 0 -19.5 7t-7.5 18q0 13 7.5 20.5t19.5 7.5zM562 288q11 0 19 -7t8 -18t-8 -20t-19 -9q-12 0 -20 8.5t-8 20.5q0 11 8 18t20 7zM489 188q15 25 32 33.5t29.5 3.5t18 -20.5t-2.5 -37.5
q-46 -59 -106 -107q-70 -56 -154 -56q-108 0 -192 42q-106 52 -106 150q0 114 158 160q-26 18 -54 34q-32 24 -36 48q-14 102 204 102q66 0 82 -4q30 -8 50 -33t20 -55q0 -58 -60 -58q-34 0 -34 26q0 10 6 22q-6 18 -28 22h-40q-112 0 -112 -18l70 -40q72 -42 72 -58
q0 -18 -30 -32q-112 -36 -116 -38q-74 -26 -74 -78q0 -58 88 -90q66 -24 132 -24q50 0 97 34q36 26 86 72z" />
    <glyph glyph-name="shan.eabove.vow.dot" unicode="&#x1085;" horiz-adv-x="607" 
d="M35 286q11 0 19.5 -7t8.5 -17q0 -12 -8 -21t-20 -9q-11 0 -19 8.5t-8 21.5q0 10 8 17t19 7zM260 503q11 0 18.5 -7.5t7.5 -20.5q0 -9 -8.5 -16.5t-17.5 -7.5q-11 0 -19 7.5t-8 16.5q0 13 8 20.5t19 7.5zM260 64q11 0 18.5 -7.5t7.5 -17.5q0 -11 -8.5 -19.5t-17.5 -8.5
q-11 0 -19 8t-8 20q0 11 8 18t19 7zM104 126q10 0 18.5 -8t8.5 -18t-8 -18.5t-19 -8.5q-12 0 -19 8t-7 19q0 12 7 19t19 7zM52 195q13 0 21.5 -7.5t8.5 -20.5q0 -5 -2.5 -10t-6.5 -9t-9 -6.5t-12 -2.5q-10 0 -18 8q-8 10 -8 20q0 13 8 20.5t18 7.5zM171 82q14 0 21.5 -7.5
t7.5 -20.5q0 -10 -7.5 -19t-21.5 -9q-10 0 -17.5 8.5t-7.5 19.5q0 13 7.5 20.5t17.5 7.5zM104 390q-12 0 -19 7.5t-7 19.5q0 10 7 18.5t19 8.5q10 0 18.5 -8t8.5 -19q0 -12 -8.5 -19.5t-18.5 -7.5zM52 320q-10 0 -18 8.5t-8 21.5q0 4 2.5 9t6 9t8 6.5t9.5 2.5q13 0 21.5 -9
t8.5 -18q0 -14 -8.5 -22t-21.5 -8zM171 435q-10 0 -17.5 8t-7.5 18t7 19.5t18 9.5q14 0 21.5 -9.5t7.5 -19.5q0 -12 -7.5 -19t-21.5 -7zM475 286q11 0 19 -7t8 -17q0 -12 -8 -21t-19 -9t-18.5 8.5t-7.5 21.5q0 10 7.5 17t18.5 7zM406 126q13 0 20 -8t7 -18t-7 -18.5
t-20 -8.5q-10 0 -18 8t-8 19q0 12 8 19t18 7zM458 195q9 0 18 -7.5t9 -20.5q0 -10 -9 -20q-9 -8 -18 -8q-13 0 -20.5 9t-7.5 19q0 13 7.5 20.5t20.5 7.5zM339 82q10 0 18 -7.5t8 -20.5q0 -5 -2 -10t-5.5 -9t-8.5 -6.5t-10 -2.5q-13 0 -21 8.5t-8 19.5q0 13 8 20.5t21 7.5z
M406 390q-10 0 -18 7.5t-8 19.5q0 10 8 18.5t18 8.5q13 0 20 -8t7 -19q0 -12 -7 -19.5t-20 -7.5zM458 320q-13 0 -20.5 8.5t-7.5 21.5q0 4 2 9t6 9t9 6.5t11 2.5q9 0 18 -9q9 -10 9 -18q0 -14 -9 -22t-18 -8zM339 435q-13 0 -21 8t-8 18q0 5 2 10t6.5 9t9.5 7t11 3
q5 0 9.5 -3t8 -6.5t6 -9t2.5 -10.5q0 -12 -8 -19t-18 -7zM491 652q-76 -71 -103 -94q-53 -42 -117 -42q-82 0 -145 31q-80 39 -80 114q0 86 120 121q-21 13 -41 25q-25 19 -28 36q-10 78 155 78q50 0 61 -3q24 -6 38.5 -25t14.5 -42q0 -44 -45 -44q-25 0 -25 20q0 8 4 16
q-4 15 -22 18h-29q-85 0 -85 -15l53 -29q54 -32 54 -44q0 -14 -22 -25q-85 -27 -88 -29q-56 -19 -56 -58q0 -44 67 -69q49 -17 99 -17q38 0 74 25q20 15 95 73z" />
    <glyph glyph-name="shan.finaly.vow.dot" unicode="&#x1086;" horiz-adv-x="603" 
d="M339 425q-13 0 -21 8t-8 19q0 9 8.5 18.5t20.5 9.5q10 0 18 -9t8 -19q0 -13 -8 -20t-18 -7zM458 311q-14 0 -21 8.5t-7 19.5q0 10 8 19t20 9q9 0 18 -9t9 -19q0 -12 -8.5 -20t-18.5 -8zM406 380q-11 0 -18.5 7.5t-7.5 20.5q0 10 7.5 18t18.5 8t19 -7.5t8 -18.5
q0 -13 -8 -20.5t-19 -7.5zM339 72q10 0 18 -7t8 -21q0 -10 -7.5 -19t-18.5 -9q-13 0 -21 8.5t-8 19.5q0 14 8 21t21 7zM458 186q10 0 18.5 -8t8.5 -21q0 -9 -9 -19q-9 -9 -18 -9q-14 0 -21 9t-7 19q0 13 7 21t21 8zM406 116q11 0 19 -7.5t8 -18.5q0 -10 -7.5 -18.5
t-19.5 -8.5q-11 0 -18.5 8.5t-7.5 18.5q0 13 7.5 19.5t18.5 6.5zM475 276q11 0 19 -6.5t8 -17.5q0 -12 -8 -20.5t-19 -8.5t-18.5 8t-7.5 21q0 11 7.5 17.5t18.5 6.5zM171 425q-10 0 -17.5 8t-7.5 19q0 10 7 19t18 9q13 0 21 -9.5t8 -18.5q0 -13 -8 -20t-21 -7zM52 311
q-10 0 -18 8.5t-8 19.5q0 10 8.5 19t17.5 9q13 0 21.5 -8.5t8.5 -19.5q0 -12 -8.5 -20t-21.5 -8zM104 380q-26 0 -26 28q0 10 7 18t19 8q10 0 18.5 -7.5t8.5 -18.5q0 -13 -8.5 -20.5t-18.5 -7.5zM171 72q13 0 21 -7t8 -21q0 -9 -8 -18.5t-21 -9.5q-10 0 -17.5 8.5t-7.5 19.5
q0 14 7.5 21t17.5 7zM52 186q13 0 21.5 -8t8.5 -21q0 -9 -8.5 -18.5t-21.5 -9.5q-9 0 -18 9q-8 10 -8 19q0 13 8 21t18 8zM104 116q10 0 18.5 -7.5t8.5 -18.5q0 -10 -8 -18.5t-19 -8.5q-12 0 -19 8.5t-7 18.5q0 26 26 26zM260 55q11 0 18.5 -7.5t7.5 -18.5t-8.5 -19.5
t-17.5 -8.5q-11 0 -19 8.5t-8 19.5t8 18.5t19 7.5zM260 494q11 0 18.5 -7.5t7.5 -21.5q0 -10 -8.5 -17t-17.5 -7q-11 0 -19 7t-8 17q0 13 8 21t19 8zM35 276q11 0 19.5 -6.5t8.5 -17.5q0 -12 -8 -20.5t-20 -8.5q-11 0 -19 8t-8 21q0 11 8 17.5t19 6.5zM370 819
q1 -43 -13 -85t-37 -81q-11 -20 -23.5 -37t-26.5 -33q-14 -15 -41 -36t-70 -48q32 37 52 62.5t31 40.5q10 15 17.5 29t14.5 28t11 26.5t7 23.5q2 5 3 9.5t2 7.5q1 4 1 6q-12 -2 -20 -3.5t-12 -1.5q-35 8 -57 30.5t-22 60.5q0 41 26 67q27 27 65 27q39 0 65 -27
q25 -26 27 -66zM281 845q-28 0 -28 -30q0 -29 28 -29q31 2 31 29q0 30 -31 30z" />
    <glyph glyph-name="shan.tone2.dot" unicode="&#x1087;" horiz-adv-x="301" 
d="M182 91q1 -43 -13 -81t-37 -76q-22 -38 -51 -70q-14 -17 -50 -44t-97 -65q49 45 76 74t36 43q10 14 18 28.5t16 30.5q7 14 12 28l10 28q5 18 -4 15q-6 -2 -11.5 -2h-10.5q-35 8 -56 29.5t-21 60.5q0 20 5.5 36.5t19.5 30.5q27 29 66 29q38 0 64 -28q13 -14 20 -30t8 -37z
M92 116q-29 0 -29 -30q0 -28 29 -28q31 2 31 28q0 30 -31 30z" />
    <glyph glyph-name="shan.tone3.dot" unicode="&#x1088;" horiz-adv-x="250" 
d="M233 365q0 -45 -31.5 -76.5t-76.5 -31.5t-76.5 31.5t-31.5 76.5t31.5 76.5t76.5 31.5t76.5 -31.5t31.5 -76.5zM233 128q2 -28 2 -46q0 -30 -2.5 -44.5t-15.5 -32.5q-2 -3 -4 -5q-6 -13 -25 -32q-35 -35 -113 -63q-12 -5 -43 -13q23 31 46.5 63t46.5 65q-45 0 -76.5 31.5
t-31.5 76.5t31.5 77t76.5 32t76.5 -32t31.5 -77zM167 365q0 18 -10 28t-32 14q-18 0 -28 -10t-14 -32q0 -18 10 -28t32 -14q18 0 28 10t14 32zM167 128q0 19 -10 29t-32 13q-18 0 -28 -10t-14 -32q0 -18 10 -28t32 -13q18 0 28 10t14 31z" />
    <glyph glyph-name="shan.tone5.dot" unicode="&#x1089;" horiz-adv-x="250" 
d="M233 128q0 -45 -31.5 -76.5t-76.5 -31.5t-76.5 31.5t-31.5 76.5t31.5 77t76.5 32t76.5 -32t31.5 -77zM167 128q0 19 -10 29t-32 13q-18 0 -28 -10t-14 -32q0 -18 10 -28t32 -13q18 0 28 10t14 31z" />
    <glyph glyph-name="shan.tone6.dot" unicode="&#x108a;" horiz-adv-x="380" 
d="M363 217q-11 -40 -21 -65q-25 -62 -55 -92q-19 -18 -25.5 -22.5t-11.5 -5.5q-15 -10 -32.5 -14.5t-42.5 -4.5q-35 2 -48 2q-45 0 -77 31.5t-32 76.5t32 77t77 32t76.5 -32t31.5 -77q32 22 64.5 45.5t63.5 48.5zM168 123q-3 22 -13 32t-28 10q-22 -3 -32 -13t-10 -29
q3 -21 13 -31t29 -10q21 3 31 13t10 28zM363 450q-11 -40 -21 -65q-25 -62 -55 -92q-19 -18 -25.5 -22t-11.5 -6q-15 -10 -32.5 -14t-42.5 -4q-35 1 -48 1q-45 0 -77 32t-32 77t32 76.5t77 31.5t76.5 -31.5t31.5 -76.5q32 21 64.5 44.5t63.5 48.5zM168 357q-3 21 -13 31
t-28 10q-22 -3 -32 -13t-10 -28q3 -22 13 -32t29 -10q21 3 31 13t10 29z" />
    <glyph glyph-name="shan.cc.tone2.dot" unicode="&#x108b;" horiz-adv-x="864" 
d="M338 431q-13 0 -21 8t-8 19q0 10 8.5 19t20.5 9q11 0 18.5 -9t7.5 -19q0 -14 -7.5 -20.5t-18.5 -6.5zM457 317q-14 0 -21 8.5t-7 19.5q0 10 8.5 19.5t19.5 9.5q10 0 18 -10q9 -9 9 -19q0 -11 -8.5 -19.5t-18.5 -8.5zM405 386q-11 0 -18.5 7t-7.5 21q0 10 7.5 18t18.5 8
q12 0 20 -7.5t8 -18.5q0 -14 -8 -21t-20 -7zM338 79q11 0 18.5 -8t7.5 -21q0 -10 -7.5 -19t-18.5 -9q-13 0 -21 8.5t-8 19.5q0 13 8 21t21 8zM457 191q10 0 18.5 -7t8.5 -20q0 -10 -9 -20q-8 -9 -18 -9q-14 0 -21 9t-7 20q0 27 28 27zM405 123q12 0 20 -8t8 -19
q0 -10 -7.5 -18t-20.5 -8q-11 0 -18.5 8t-7.5 18q0 13 7.5 20t18.5 7zM475 282q11 0 18.5 -6.5t7.5 -17.5t-7.5 -20t-18.5 -9t-19 8.5t-8 20.5q0 11 8 17.5t19 6.5zM170 431q-10 0 -17.5 8t-7.5 19q0 10 7 19t18 9q14 0 21.5 -9t7.5 -19q0 -27 -29 -27zM52 317
q-10 0 -18.5 8.5t-8.5 19.5q0 10 8.5 19.5t18.5 9.5q13 0 21 -9.5t8 -19.5q0 -11 -8 -19.5t-21 -8.5zM103 386q-25 0 -25 28q0 10 6.5 18t18.5 8q11 0 19.5 -7.5t8.5 -18.5q0 -14 -8.5 -21t-19.5 -7zM170 79q14 0 21.5 -8t7.5 -21q0 -10 -7.5 -19t-21.5 -9q-10 0 -17.5 8.5
t-7.5 19.5q0 13 7.5 21t17.5 8zM52 191q13 0 21 -7t8 -20q0 -11 -8 -20t-21 -9q-11 0 -18 9q-9 9 -9 20q0 13 8.5 20t18.5 7zM103 123q11 0 19.5 -8t8.5 -19q0 -10 -8.5 -18t-19.5 -8q-12 0 -18.5 8t-6.5 18q0 27 25 27zM260 61q10 0 17.5 -7.5t7.5 -17.5q0 -12 -8.5 -20.5
t-16.5 -8.5q-12 0 -20 8.5t-8 20.5q0 10 8 17.5t20 7.5zM260 500q10 0 17.5 -7.5t7.5 -21.5q0 -10 -8.5 -17t-16.5 -7q-12 0 -20 7t-8 17q0 13 8 21t20 8zM35 282q11 0 19 -6.5t8 -17.5t-8 -20t-19 -9q-12 0 -19.5 8.5t-7.5 20.5q0 11 7.5 17.5t19.5 6.5zM625 277
q0 -14 10 -24t25 -10q14 0 24.5 10t10.5 24q0 15 -10 25.5t-25 10.5q-14 0 -24.5 -10.5t-10.5 -25.5zM565 277q0 19 7.5 36t20 29.5t30 20t37.5 7.5q19 0 36 -7.5t29.5 -20t20 -29.5t7.5 -36q0 -20 -7.5 -37.5t-20 -30.5t-29.5 -20.5t-36 -7.5q-40 0 -67 28q-28 31 -28 68z
" />
    <glyph glyph-name="shan.cc.tone3.dot" unicode="&#x108c;" horiz-adv-x="1105" 
d="M342 431q-13 0 -21 8t-8 19q0 10 8.5 19t20.5 9q10 0 18 -9t8 -19q0 -14 -8 -20.5t-18 -6.5zM460 317q-13 0 -20 8.5t-7 19.5q0 10 8 19.5t19 9.5q10 0 19 -10q9 -9 9 -19q0 -11 -8.5 -19.5t-19.5 -8.5zM409 386q-11 0 -19 7t-8 21q0 10 8 18t19 8t19 -7.5t8 -18.5
q0 -14 -8 -21t-19 -7zM342 79q10 0 18 -8t8 -21q0 -10 -7.5 -19t-18.5 -9q-13 0 -21 8.5t-8 19.5q0 13 8 21t21 8zM460 191q11 0 19.5 -7t8.5 -20q0 -10 -9 -20q-9 -9 -19 -9q-13 0 -20 9t-7 20q0 27 27 27zM409 123q11 0 19 -8t8 -19q0 -10 -7 -18t-20 -8q-11 0 -19 8
t-8 18q0 13 8 20t19 7zM478 282q11 0 19 -6.5t8 -17.5t-8 -20t-19 -9t-18.5 8.5t-7.5 20.5q0 11 7.5 17.5t18.5 6.5zM174 431q-10 0 -18 8t-8 19q0 10 7.5 19t18.5 9q13 0 21 -9t8 -19q0 -14 -8 -20.5t-21 -6.5zM55 317q-10 0 -18 8.5t-8 19.5q0 10 8 19.5t18 9.5
q13 0 21 -9.5t8 -19.5q0 -11 -8 -19.5t-21 -8.5zM106 386q-25 0 -25 28q0 10 7 18t18 8t19.5 -7.5t8.5 -18.5q0 -14 -8.5 -21t-19.5 -7zM174 79q13 0 21 -8t8 -21q0 -10 -8 -19t-21 -9q-10 0 -18 8.5t-8 19.5q0 13 8 21t18 8zM55 191q13 0 21 -7t8 -20q0 -11 -8 -20t-21 -9
q-9 0 -18 9q-8 10 -8 20q0 13 8 20t18 7zM106 123q11 0 19.5 -8t8.5 -19q0 -10 -8 -18t-20 -8q-11 0 -18 8t-7 18q0 27 25 27zM263 61q11 0 18.5 -7.5t7.5 -17.5q0 -12 -8.5 -20.5t-17.5 -8.5q-11 0 -19 8.5t-8 20.5q0 10 8 17.5t19 7.5zM263 500q11 0 18.5 -7.5t7.5 -21.5
q0 -10 -8.5 -17t-17.5 -7q-11 0 -19 7t-8 17q0 13 8 21t19 8zM38 282q11 0 19.5 -6.5t8.5 -17.5t-8.5 -20t-19.5 -9q-12 0 -19.5 8.5t-7.5 20.5q0 11 7.5 17.5t19.5 6.5zM868 271q0 -14 10 -24.5t24 -10.5t25.5 10t11.5 25t-11.5 25t-25.5 10t-24 -10t-10 -25zM808 271
q0 19 7 35.5t20 29t30 20t37 7.5q20 1 37 -6.5t29.5 -20.5t19.5 -30t7 -35q0 -40 -26.5 -68t-66.5 -28t-67 28t-27 68zM627 271q0 -14 10 -24.5t24 -10.5q15 0 25.5 10t10.5 25t-11 25t-25 10t-24 -10t-10 -25zM566 271q0 19 7.5 35.5t20.5 29t30 20t37 7.5q19 1 36 -6.5
t30 -20.5t20 -30t7 -35q0 -20 -7 -37.5t-20 -30.5t-30 -20.5t-36 -7.5q-40 0 -67 28q-28 30 -28 68z" />
    <glyph glyph-name="shan.ce.tone.dot" unicode="&#x108d;" horiz-adv-x="608" 
d="M334 428q-13 0 -21 8t-8 19q0 9 8.5 18.5t20.5 9.5q10 0 18 -9t8 -19q0 -13 -8 -20t-18 -7zM453 313q-13 0 -20.5 9t-7.5 20q0 10 8.5 19t19.5 9q9 0 18 -9q9 -11 9 -19q0 -12 -8.5 -20.5t-18.5 -8.5zM401 383q-11 0 -18.5 7.5t-7.5 20.5q0 10 7.5 18t18.5 8
q12 0 19.5 -7.5t7.5 -18.5q0 -13 -7.5 -20.5t-19.5 -7.5zM334 75q10 0 18 -7.5t8 -20.5q0 -10 -7.5 -19t-18.5 -9q-13 0 -21 8.5t-8 19.5q0 13 8 20.5t21 7.5zM453 188q10 0 18.5 -7.5t8.5 -20.5q0 -10 -9 -19t-18 -9q-13 0 -20.5 8.5t-7.5 19.5q0 28 28 28zM401 119
q12 0 19.5 -7.5t7.5 -18.5q0 -10 -7.5 -18.5t-19.5 -8.5q-11 0 -18.5 8.5t-7.5 18.5q0 13 7.5 19.5t18.5 6.5zM470 279q11 0 19 -6.5t8 -17.5q0 -12 -8 -20.5t-19 -8.5t-18.5 8t-7.5 21q0 11 7.5 17.5t18.5 6.5zM166 428q-10 0 -17.5 8t-7.5 19q0 10 7 19t18 9q13 0 21 -9.5
t8 -18.5q0 -13 -8 -20t-21 -7zM47 313q-10 0 -18 9t-8 20q0 9 8.5 18.5t17.5 9.5q13 0 21.5 -9t8.5 -19q0 -12 -8.5 -20.5t-21.5 -8.5zM99 383q-26 0 -26 28q0 10 7 18t19 8q10 0 18.5 -7.5t8.5 -18.5q0 -13 -8.5 -20.5t-18.5 -7.5zM166 75q13 0 21 -7.5t8 -20.5
q0 -9 -8 -18.5t-21 -9.5q-10 0 -17.5 8.5t-7.5 19.5q0 13 7.5 20.5t17.5 7.5zM47 188q13 0 21.5 -7.5t8.5 -20.5q0 -10 -8.5 -19t-21.5 -9q-9 0 -18 9q-8 10 -8 19q0 13 8 20.5t18 7.5zM99 119q10 0 18.5 -7.5t8.5 -18.5q0 -10 -8 -18.5t-19 -8.5q-12 0 -19 8.5t-7 18.5
q0 26 26 26zM255 58q11 0 18.5 -7.5t7.5 -18.5t-8.5 -19.5t-17.5 -8.5q-11 0 -19 8.5t-8 19.5t8 18.5t19 7.5zM255 497q11 0 18.5 -7.5t7.5 -21.5q0 -10 -8.5 -17t-17.5 -7q-11 0 -19 7t-8 17q0 13 8 21t19 8zM30 279q11 0 19.5 -6.5t8.5 -17.5q0 -12 -8 -20.5t-20 -8.5
q-11 0 -19 8t-8 21q0 11 8 17.5t19 6.5zM52 -132v75h430v-74h-110t-105 -1h-215z" />
    <glyph glyph-name="pl.fa" unicode="&#x108e;" horiz-adv-x="584" 
d="M524 224q0 -76 -46 -142t-118 -82q-30 -14 -56 -14q-108 0 -174 38q-126 54 -126 228q0 92 94 158q32 22 64 36q26 20 80 32q20 4 36 -8q110 0 178 -68t68 -178zM444 224q0 36 -12 66q-22 -120 -156 -120q-60 0 -103 46t-53 108q-36 -36 -36 -72q0 -98 50 -138
q24 -8 32 -18h2q10 -4 16 -10q52 -20 120 -20q2 0 14 6l12 4l16 10q16 10 32 8q66 48 66 130zM356 320q0 14 -6 26q-4 16 2 30q-34 14 -76 14q-38 0 -72 -14q-8 -8 -8 -22q0 -34 24 -69t56 -35q80 0 80 70z" />
    <glyph glyph-name="pl.tone5.dot" unicode="&#x108f;" horiz-adv-x="868" 
d="M574 101q1 40 28 67q25 27 63 27q39 0 66 -28q27 -27 27 -67q0 -41 -22 -61q-20 -20 -56 -31q-5 0 -11 1t-11 3q-14 3 -5 -15l10 -28t12 -29q8 -16 15.5 -30t17.5 -28q18 -29 114 -117q-119 76 -149 109q-14 16 -26.5 33t-23.5 36q-22 38 -36 76.5t-13 81.5zM663 125
q-31 0 -31 -29t31 -28q28 0 28 28q0 29 -28 29zM337 422q-13 0 -21 8t-8 19q0 10 8.5 19.5t20.5 9.5q11 0 18.5 -9.5t7.5 -19.5q0 -13 -7.5 -20t-18.5 -7zM456 308q-14 0 -21 8.5t-7 19.5t8.5 20t19.5 9q9 0 18 -10q9 -9 9 -19q0 -11 -8.5 -19.5t-18.5 -8.5zM404 377
q-11 0 -18.5 7.5t-7.5 20.5q0 10 7.5 18.5t18.5 8.5q12 0 20 -8t8 -19q0 -13 -8 -20.5t-20 -7.5zM337 70q11 0 18.5 -7.5t7.5 -20.5q0 -10 -7.5 -19t-18.5 -9q-13 0 -21 8.5t-8 19.5q0 13 8 20.5t21 7.5zM456 183q10 0 18.5 -7.5t8.5 -20.5q0 -10 -9 -20q-8 -9 -18 -9
q-14 0 -21 9t-7 20q0 28 28 28zM404 114q12 0 20 -8t8 -19q0 -10 -7.5 -18t-20.5 -8q-11 0 -18.5 8t-7.5 18q0 13 7.5 20t18.5 7zM474 274q11 0 18.5 -7t7.5 -18t-7.5 -20t-18.5 -9t-19 8.5t-8 20.5q0 11 8 18t19 7zM169 422q-10 0 -17.5 8t-7.5 19q0 10 7 19.5t18 9.5
q14 0 21.5 -9.5t7.5 -19.5q0 -27 -29 -27zM51 308q-10 0 -18.5 8.5t-8.5 19.5q0 10 8.5 19.5t18.5 9.5q13 0 21 -9t8 -20t-8 -19.5t-21 -8.5zM102 377q-25 0 -25 28q0 10 6.5 18.5t18.5 8.5q11 0 19.5 -8t8.5 -19q0 -13 -8.5 -20.5t-19.5 -7.5zM169 70q29 0 29 -28
q0 -10 -7.5 -19t-21.5 -9q-10 0 -17.5 8.5t-7.5 19.5q0 13 7.5 20.5t17.5 7.5zM51 183q13 0 21 -7.5t8 -20.5q0 -10 -8 -19.5t-21 -9.5q-11 0 -18 9q-9 9 -9 20q0 13 8.5 20.5t18.5 7.5zM102 114q11 0 19.5 -8t8.5 -19q0 -10 -8.5 -18t-19.5 -8q-12 0 -18.5 8t-6.5 18
q0 27 25 27zM258 52q11 0 18.5 -7t7.5 -18t-8 -19t-18 -8q-11 0 -19 7.5t-8 19.5q0 11 8 18t19 7zM258 491q11 0 18.5 -7.5t7.5 -20.5q0 -10 -8 -17.5t-18 -7.5q-11 0 -19 7t-8 18q0 13 8 20.5t19 7.5zM34 274q10 0 18.5 -7t8.5 -18t-8 -20t-19 -9q-12 0 -19.5 8.5
t-7.5 20.5q0 11 7.5 18t19.5 7zM700 389q0 17 -9.5 26.5t-25.5 9.5q-15 0 -26.5 -9.5t-11.5 -26.5q0 -14 12 -24.5t26 -10.5t24.5 10.5t10.5 24.5zM761 389q0 -40 -27 -68t-69 -28q-40 0 -67.5 28t-27.5 68q0 42 28 68t67 26q42 1 69 -26t27 -68z" />
    <glyph glyph-name="sd.zero" unicode="&#x1090;" horiz-adv-x="537" 
d="M475 397q45 -65 45 -144q0 -131 -108 -205q-65 -46 -145 -46q-132 0 -205 108q-45 65 -45 143q0 130 108 207q65 45 143 45q130 0 207 -108zM422 360q-25 35 -67.5 56.5t-89.5 21.5q-55 0 -103 -31q-34 -24 -59 -67q-20 -40 -20 -90q0 -55 32 -103q25 -35 67.5 -56
t87.5 -21q57 0 99.5 29t64 70t21.5 88q0 55 -33 103z" />
    <glyph glyph-name="sd.one" unicode="&#x1091;" horiz-adv-x="537" 
d="M242 2v401l-24 -21l-35 51q15 17 29.5 33t29.5 21h66v-485h-66z" />
    <glyph glyph-name="sd.two" unicode="&#x1092;" horiz-adv-x="537" 
d="M117 30q-2 3 -8 22.5t-6 27.5q0 13 7 22q3 3 23 -3.5t22 -5.5q33 35 80 70q62 47 108.5 63t65 46.5t18.5 60.5q0 22 -5 27q-25 35 -67.5 56.5t-89.5 21.5q-18 0 -28 -54t-27 -64q-45 -32 -58.5 -36t-53.5 -4q-15 13 -21 22q-25 26 -35 41q-2 7 -11 29.5t-9 34.5q0 5 3 15
q22 20 37 26.5t36 6.5q5 -3 11 -38t8 -37q15 -12 33 13q12 19 13 24q35 58 55 73t50 15q130 0 207 -108q23 -34 33 -69q9 -18 -10 -63q-25 -60 -91.5 -92.5t-129.5 -82.5q-42 -32 -67 -60l-19.5 -19.5t-28.5 -17.5q-20 0 -45 37z" />
    <glyph glyph-name="sd.three" unicode="&#x1093;" horiz-adv-x="665" 
d="M455 2q-18 6 -18 11q0 4 34 22t34 40q0 7 -5 17q-12 21 -50 46q-23 15 -35 24q-25 16 -56 23.5t-66 7.5q-26 0 -64.5 -6.5t-57 -15t-31 -78.5t-33.5 -91h-77q13 25 37 120l30 120q16 78 33 158q25 90 80 90q25 -10 36 -16.5t24 -13.5q-48 0 -68 -68q-14 -79 -18 -93
t-4 -26q0 -31 13 -31q45 16 99 16q45 0 80.5 -10.5t82.5 -34.5q27 -13 48.5 -30.5t40.5 -38.5t25 -33.5t6 -40.5q0 -33 -21 -55t-57 -22q-17 0 -42 9z" />
    <glyph glyph-name="sd.four" unicode="&#x1094;" horiz-adv-x="665" 
d="M598 2q-23 0 -40.5 -2t-34.5 -3q-36 0 -58 31q-8 12 -20 45q-17 44 -32 89q-38 128 -61 191q-20 25 -39 50q-68 -155 -116.5 -258t-89.5 -143h-77q62 116 100 190q45 85 50 98q47 115 60 135q42 70 100 70q12 -5 17 -8q20 -12 23 -20q13 -22 22 -40q16 -34 25 -60
q1 -5 23 -85q13 -50 28 -84q9 -41 23 -78.5t37 -64.5q5 -5 55 -33q22 -12 22 -17q-10 -3 -17 -3z" />
    <glyph glyph-name="sd.five" unicode="&#x1095;" horiz-adv-x="537" 
d="M532 243q0 -18 -2.5 -37t-9.5 -41q-12 -37 -40 -67q-43 -50 -101.5 -74t-130.5 -24q-43 0 -81 8q-37 12 -69 30q-45 37 -51 42q-30 30 -30 57q0 30 4 46.5t19 29.5q35 32 77 42l76 15q30 0 69.5 4t49.5 4q71 0 118 -10q15 -3 33 -10q0 29 -3 40.5t-18 38.5
q-27 45 -70.5 73t-83.5 28q-21 0 -21 17q0 13 13 33q2 4 8 10q62 0 124 -38q120 -80 120 -217zM423 162q7 11 7 20q0 18 -37 31q-18 7 -53 7t-86 -7.5t-102 -14.5l-19 -1q-33 -10 -38 -15t-6.5 -10t-3.5 -10l2 -25q21 -25 31 -32l37 -23q17 -9 55 -15l30 -5q67 0 116 28
t67 72z" />
    <glyph glyph-name="sd.six" unicode="&#x1096;" horiz-adv-x="537" 
d="M532 273q0 -136 -120 -216q-62 -39 -124 -39q-6 10 -10 15q-11 19 -11 29q0 16 21 16q40 0 83.5 28.5t70.5 73.5q21 38 21 78q-26 -10 -62 -15t-89 -5q-25 0 -64.5 4.5t-54.5 4.5l-76 15q-42 10 -77 41q-13 12 -18 33t-5 44q0 27 30 57q8 6 15 13q18 15 36 28
q32 19 69 30q38 9 81 9q72 0 130.5 -24.5t101.5 -74.5q28 -30 40 -66q5 -22 8.5 -39.5t3.5 -39.5zM423 355q-18 43 -66.5 71.5t-116.5 28.5l-30 -5l-27 -4.5t-28 -10.5l-37 -23q-6 -5 -14.5 -13.5t-16.5 -18.5l-2 -25q5 -15 10 -20t38 -15l19 -2q50 -6 107.5 -13.5
t80.5 -7.5q35 0 53 6q37 14 37 32q0 3 -7 20z" />
    <glyph glyph-name="sd.seven" unicode="&#x1097;" horiz-adv-x="537" 
d="M110 0l52 78q65 94 126 154q40 38 127 88q37 20 38 28q5 19 0 29q-10 13 -25 25.5t-28 19.5q-2 0 -5 1q-13 7 -331 3q11 39 29 51l35 18h24l210 2l53 -10q22 -7 47 -25q60 -40 60 -100l-5 -34q-4 -10 -42 -36q-102 -72 -138 -110q-27 -27 -54 -67q-18 -27 -38 -62
q27 -1 101.5 1.5t102.5 1.5q18 -24 27 -34q-4 -6 -5 -13z" />
    <glyph glyph-name="sd.eight" unicode="&#x1098;" horiz-adv-x="537" 
d="M380 192q-5 5 -25 15t-31 11.5t-36 10t-35 8.5h-36q-34 0 -48 -2.5t-42 -12.5l-17 -4q0 -70 55 -115q53 -40 137 -40q31 0 63 8.5t62 23.5q13 7 13 20q0 17 -20 40q-8 10 -40 37zM392 488q40 -18 66 -45q17 -15 24.5 -33t7.5 -35q0 -30 -23 -58q-5 -4 -20 -20
q-24 -25 -37 -25q50 -37 77 -80q21 -37 21 -72q0 -30 -11.5 -51t-31.5 -32q-77 -39 -163 -39q-54 0 -101.5 16t-87.5 46q-76 68 -76 158q11 30 35 54q10 6 25 13.5t36 16.5q-28 18 -33 46q-3 34 11 68t44 56q57 38 125 38q12 0 12 -37q0 -30 -12 -30q-40 0 -80 -25
q-17 -11 -25 -30.5t-3 -29.5l16 -20q12 -10 18.5 -19t25.5 -17q8 -7 24 -9.5t33.5 -6t22.5 -3.5q10 0 20.5 4.5t31.5 12t29.5 15.5t16.5 23q3 2 6.5 9.5t6.5 17.5q-5 28 -13 33q-13 12 -25.5 21t-26.5 13q-11 6 9 36q11 17 25 20z" />
    <glyph glyph-name="sd.nine" unicode="&#x1099;" horiz-adv-x="537" 
d="M370 302q15 5 23.5 13t16.5 23q3 2 6.5 9.5t6.5 17.5q-5 28 -13 33q-13 12 -25.5 21t-26.5 13q-16 8 -32 9.5t-46 1.5q-40 0 -80 -25q-17 -11 -25 -30.5t-3 -29.5l16 -20q12 -10 18.5 -19t25.5 -17q8 -7 24 -9.5t33.5 -6t22.5 -3.5q10 0 20.5 4.5t37.5 14.5zM302 63
q31 0 63 8.5t62 23.5q13 7 13 20q0 17 -20 40q-8 10 -40 37q-5 5 -25 15t-31 11.5t-36 10t-35 8.5h-36q-34 0 -48 -2.5t-42 -12.5l-17 -4q0 -70 55 -115q12 -11 23 -23q10 -5 -11 -47q-4 -6 -12 -20q-12 5 -28.5 23.5t-23.5 23.5q-76 68 -76 158q11 30 35 54q10 6 25 13.5
t36 16.5q-28 18 -33 46q-3 34 11 68t44 56q57 38 125 38q27 0 56 -6t56 -16q40 -18 66 -45q17 -15 24.5 -33t7.5 -35q0 -30 -23 -58q-5 -4 -20 -20q-24 -25 -37 -25q50 -37 77 -80q21 -37 21 -72q0 -30 -11.5 -51t-31.5 -32q-77 -39 -163 -39q-14 27 -14 49q0 16 14 16z" />
    <glyph glyph-name="KTT_1" unicode="&#x109a;" horiz-adv-x="854" 
d="M334 421q-14 0 -21.5 8t-7.5 19q0 10 8.5 19t20.5 9q10 0 18 -9t8 -19q0 -13 -8 -20t-18 -7zM453 307q-14 0 -21 8.5t-7 19.5q0 10 8.5 19.5t19.5 9.5q9 0 18 -10q8 -10 8 -19q0 -11 -8 -19.5t-18 -8.5zM401 376q-11 0 -18.5 7.5t-7.5 20.5q0 10 7.5 18t18.5 8
q12 0 19.5 -7.5t7.5 -18.5q0 -13 -7.5 -20.5t-19.5 -7.5zM334 69q10 0 18 -7.5t8 -20.5q0 -11 -7.5 -19.5t-18.5 -8.5q-14 0 -21.5 8.5t-7.5 19.5q0 28 29 28zM453 182q10 0 18 -7.5t8 -20.5q0 -9 -8 -20q-9 -9 -18 -9q-14 0 -21 9t-7 20q0 28 28 28zM401 113q12 0 19.5 -8
t7.5 -19q0 -10 -7 -18t-20 -8q-11 0 -18.5 8t-7.5 18q0 14 7.5 20.5t18.5 6.5zM470 272q11 0 19 -6.5t8 -17.5t-8 -20t-19 -9t-18.5 8.5t-7.5 20.5q0 11 7.5 17.5t18.5 6.5zM166 421q-10 0 -17.5 8t-7.5 19q0 10 7 19t18 9q13 0 21 -9t8 -19q0 -13 -8 -20t-21 -7zM47 307
q-10 0 -18 8.5t-8 19.5q0 10 8.5 19.5t17.5 9.5q13 0 21.5 -9t8.5 -20t-8.5 -19.5t-21.5 -8.5zM98 376q-25 0 -25 28q0 10 7 18t18 8t19.5 -7.5t8.5 -18.5q0 -13 -8.5 -20.5t-19.5 -7.5zM166 69q13 0 21 -7.5t8 -20.5q0 -11 -8 -19.5t-21 -8.5q-10 0 -17.5 8.5t-7.5 19.5
q0 13 7.5 20.5t17.5 7.5zM47 182q13 0 21.5 -7.5t8.5 -20.5q0 -10 -8.5 -19.5t-21.5 -9.5q-9 0 -18 9q-8 11 -8 20q0 13 8 20.5t18 7.5zM98 113q11 0 19.5 -8t8.5 -19q0 -10 -8 -18t-20 -8q-11 0 -18 8t-7 18q0 27 25 27zM255 51q11 0 18.5 -7t7.5 -18q0 -12 -8.5 -19
t-17.5 -7q-11 0 -19 7t-8 19q0 11 8 18t19 7zM255 490q11 0 18.5 -7.5t7.5 -21.5q0 -10 -8.5 -16.5t-17.5 -6.5q-11 0 -19 6.5t-8 16.5q0 14 8 21.5t19 7.5zM30 272q11 0 19.5 -6.5t8.5 -17.5t-8.5 -20t-19.5 -9t-19 8.5t-8 20.5q0 11 8 17.5t19 6.5zM628 383
q0 -14 11 -23.5t25 -9.5t25.5 9.5t11.5 23.5q0 17 -11 27t-26 10q-14 0 -25 -10t-11 -27zM569 383q-1 40 28 67q29 29 67 27q40 -1 66.5 -26.5t26.5 -67.5q0 -41 -26.5 -67.5t-66.5 -26.5t-67 26.5t-28 67.5z" />
    <glyph glyph-name="KTT_3" unicode="&#x109b;" horiz-adv-x="844" 
d="M342 427q-13 0 -21 8t-8 19q0 9 8.5 18t20.5 9q10 0 18 -8.5t8 -18.5q0 -13 -8 -20t-18 -7zM460 313q-13 0 -20 8t-7 19t8 20t19 9q10 0 19 -9q9 -11 9 -20q0 -11 -8.5 -19t-19.5 -8zM409 382q-11 0 -18.5 7.5t-7.5 20.5q0 10 7.5 18t18.5 8t19 -7.5t8 -18.5
q0 -13 -8 -20.5t-19 -7.5zM342 74q10 0 18 -7.5t8 -20.5q0 -10 -7.5 -19t-18.5 -9q-13 0 -21 8.5t-8 19.5q0 13 8 20.5t21 7.5zM460 187q11 0 19.5 -7.5t8.5 -20.5q0 -10 -9 -19q-9 -10 -19 -10q-13 0 -20 9.5t-7 19.5q0 28 27 28zM409 118q11 0 19 -7.5t8 -18.5
q0 -10 -7.5 -18.5t-19.5 -8.5q-11 0 -18.5 8t-7.5 19q0 13 7.5 19.5t18.5 6.5zM478 278q11 0 19 -6.5t8 -18.5q0 -11 -8 -19.5t-19 -8.5t-18.5 8t-7.5 20q0 11 7.5 18t18.5 7zM174 427q-10 0 -18 8t-8 19q0 10 7.5 18.5t18.5 8.5q13 0 21 -8.5t8 -18.5q0 -13 -8 -20t-21 -7z
M55 313q-10 0 -18 8t-8 19t8 20t18 9q13 0 21 -9t8 -20t-8 -19t-21 -8zM106 382q-25 0 -25 28q0 10 7 18t18 8t19.5 -7.5t8.5 -18.5q0 -13 -8.5 -20.5t-19.5 -7.5zM174 74q13 0 21 -7.5t8 -20.5q0 -10 -8 -19t-21 -9q-10 0 -18 8.5t-8 19.5q0 13 8 20.5t18 7.5zM55 187
q13 0 21 -7.5t8 -20.5q0 -10 -8 -19.5t-21 -9.5q-11 0 -18 10q-8 10 -8 19q0 13 8 20.5t18 7.5zM106 118q11 0 19.5 -7.5t8.5 -18.5q0 -10 -8 -18.5t-20 -8.5q-11 0 -18 8t-7 19q0 26 25 26zM263 57q11 0 18.5 -7.5t7.5 -18.5t-8.5 -20t-17.5 -9q-11 0 -19 9t-8 20t8 18.5
t19 7.5zM263 496q11 0 18.5 -7.5t7.5 -21.5q0 -10 -8.5 -17t-17.5 -7q-11 0 -19 7t-8 17q0 13 8 21t19 8zM38 278q11 0 19.5 -6.5t8.5 -18.5q0 -11 -8 -19.5t-20 -8.5q-11 0 -19 8t-8 20q0 11 8 18t19 7zM733 502q1 -43 -13.5 -85t-36.5 -82q-20 -36 -50 -69
q-14 -16 -50.5 -43t-98.5 -66q49 46 77 74.5t38 41.5q10 14 18 28.5t15 30.5t12 29.5t9 27.5q9 26 -4 23q-12 -3 -21 -3q-35 9 -57 30q-22 22 -22 62q0 39 27 66q28 28 65 28q38 0 65 -27q26 -27 27 -66zM644 526q-29 0 -28 -28q1 -30 28 -31q29 0 29 31q0 28 -29 28z" />
    <glyph glyph-name="VSAT_A" unicode="&#x109c;" horiz-adv-x="1053" 
d="M341 423q-13 0 -21 8t-8 19q0 9 8.5 18.5t20.5 9.5q10 0 18 -9t8 -19q0 -13 -8 -20t-18 -7zM459 309q-13 0 -20 8.5t-7 19.5q0 10 8 19t19 9q10 0 19 -9t9 -19q0 -12 -8.5 -20t-19.5 -8zM408 378q-11 0 -18.5 7.5t-7.5 20.5q0 10 7.5 18t18.5 8t19.5 -7.5t8.5 -18.5
q0 -13 -8.5 -20.5t-19.5 -7.5zM341 71q10 0 18 -7.5t8 -21.5q0 -10 -7.5 -19t-18.5 -9q-13 0 -21 8.5t-8 19.5q0 14 8 21.5t21 7.5zM459 184q11 0 19.5 -8t8.5 -21q0 -9 -9 -19q-8 -9 -19 -9q-13 0 -20 9t-7 19q0 13 7 21t20 8zM408 115q11 0 19.5 -8t8.5 -19q0 -10 -8 -18
t-20 -8q-11 0 -18.5 8t-7.5 18q0 13 7.5 20t18.5 7zM477 274q12 0 19.5 -6.5t7.5 -17.5q0 -12 -7.5 -20.5t-19.5 -8.5q-11 0 -18.5 8t-7.5 21q0 11 7.5 17.5t18.5 6.5zM173 423q-10 0 -18 8t-8 19q0 9 7.5 18.5t18.5 9.5q13 0 21 -9t8 -19q0 -13 -8 -20t-21 -7zM54 309
q-10 0 -18 8.5t-8 19.5q0 10 8.5 19t17.5 9q14 0 22 -8.5t8 -19.5q0 -12 -8 -20t-22 -8zM105 378q-24 0 -24 28q0 10 6.5 18t17.5 8t19.5 -7.5t8.5 -18.5q0 -13 -8.5 -20.5t-19.5 -7.5zM173 71q13 0 21 -7.5t8 -21.5q0 -10 -8 -19t-21 -9q-10 0 -18 8.5t-8 19.5q0 14 8 21.5
t18 7.5zM54 184q14 0 22 -8t8 -21q0 -10 -8 -19t-22 -9q-10 0 -17 9q-9 10 -9 19q0 13 8 21t18 8zM105 115q11 0 19.5 -8t8.5 -19q0 -10 -8 -18t-20 -8q-11 0 -17.5 8t-6.5 18q0 27 24 27zM262 53q11 0 18.5 -7.5t7.5 -18.5t-8.5 -19t-17.5 -8q-11 0 -19 8t-8 19t8 18.5
t19 7.5zM262 492q11 0 18.5 -7.5t7.5 -21.5q0 -10 -8.5 -17t-17.5 -7q-11 0 -19 7t-8 17q0 13 8 21t19 8zM37 274q11 0 19.5 -6.5t8.5 -17.5q0 -12 -8 -20.5t-20 -8.5q-11 0 -19 8t-8 21q0 11 8 17.5t19 6.5zM635 193q43 2 85.5 -12t80.5 -37q20 -11 37 -24t34 -27
q16 -14 43.5 -49t65.5 -92q-46 47 -74.5 72t-42.5 35q-27 19 -58 34q-29 13 -56 21t-23 -5q2 -6 2 -11v-9q-9 -35 -30 -57t-63 -22q-40 0 -66 26q-27 27 -27 66q0 38 26 64q13 13 29 20t37 7zM612 104q0 -15 6.5 -21t20.5 -6q30 1 30 27q0 30 -30 30q-27 0 -27 -30zM635 478
q43 1 85.5 -13t80.5 -36q39 -22 71 -51q16 -14 43 -49.5t66 -97.5q-90 96 -117 114q-34 22 -58 33q-15 8 -29 12.5t-27 9.5q-27 8 -23 -4q2 -6 2 -11.5v-10.5q-9 -35 -30 -58q-11 -11 -26.5 -16.5t-36.5 -5.5q-39 0 -66 27t-27 67t26 64q26 25 66 26zM612 390q0 -29 27 -29
q30 1 30 29q0 31 -30 31q-27 0 -27 -31z" />
    <glyph glyph-name="VSAT_AI" unicode="&#x109d;" horiz-adv-x="599" 
d="M339 430q-13 0 -21 8t-8 19q0 9 8.5 18.5t20.5 9.5q10 0 18 -9t8 -19q0 -14 -8 -20.5t-18 -6.5zM458 315q-14 0 -21 9t-7 20q0 10 8 19t20 9q9 0 18 -9q9 -11 9 -19q0 -12 -8.5 -20.5t-18.5 -8.5zM406 385q-11 0 -18.5 7.5t-7.5 20.5q0 10 7.5 18t18.5 8t19 -7.5t8 -18.5
q0 -13 -8 -20.5t-19 -7.5zM339 77q10 0 18 -7.5t8 -20.5q0 -10 -7.5 -19t-18.5 -9q-13 0 -21 8.5t-8 19.5q0 13 8 20.5t21 7.5zM458 190q10 0 18.5 -7.5t8.5 -20.5q0 -10 -9 -19t-18 -9q-14 0 -21 8.5t-7 19.5q0 28 28 28zM406 121q11 0 19 -7.5t8 -18.5q0 -10 -7.5 -18.5
t-19.5 -8.5q-11 0 -18.5 8.5t-7.5 18.5q0 13 7.5 19.5t18.5 6.5zM475 281q11 0 19 -6.5t8 -17.5q0 -12 -8 -20.5t-19 -8.5t-18.5 8t-7.5 21q0 11 7.5 17.5t18.5 6.5zM171 430q-10 0 -17.5 8t-7.5 19q0 10 7 19t18 9q13 0 21 -9.5t8 -18.5q0 -14 -8 -20.5t-21 -6.5zM52 315
q-10 0 -18 9t-8 20q0 9 8.5 18.5t17.5 9.5q13 0 21.5 -9t8.5 -19q0 -12 -8.5 -20.5t-21.5 -8.5zM104 385q-26 0 -26 28q0 10 7 18t19 8q10 0 18.5 -7.5t8.5 -18.5q0 -13 -8.5 -20.5t-18.5 -7.5zM171 77q13 0 21 -7.5t8 -20.5q0 -9 -8 -18.5t-21 -9.5q-10 0 -17.5 8.5
t-7.5 19.5q0 13 7.5 20.5t17.5 7.5zM52 190q13 0 21.5 -7.5t8.5 -20.5q0 -10 -8.5 -19t-21.5 -9q-9 0 -18 9q-8 10 -8 19q0 13 8 20.5t18 7.5zM104 121q10 0 18.5 -7.5t8.5 -18.5q0 -10 -8 -18.5t-19 -8.5q-12 0 -19 8.5t-7 18.5q0 26 26 26zM260 60q11 0 18.5 -7.5
t7.5 -18.5t-8.5 -19.5t-17.5 -8.5q-11 0 -19 8.5t-8 19.5t8 18.5t19 7.5zM260 499q11 0 18.5 -7.5t7.5 -21.5q0 -10 -8.5 -17t-17.5 -7q-11 0 -19 7t-8 17q0 13 8 21t19 8zM35 281q11 0 19.5 -6.5t8.5 -17.5q0 -12 -8 -20.5t-20 -8.5q-11 0 -19 8t-8 21q0 11 8 17.5t19 6.5z
M281 790l-80 -2q2 34 12 55.5t27 38.5t39.5 26t48.5 9t49 -10t40 -27t27 -40t10 -49v-291h-76l2 286q-3 22 -17.5 35.5t-33.5 13.5q-17 0 -30 -10t-18 -35z" />
    <glyph glyph-name="shan.one" unicode="&#x109e;" horiz-adv-x="475" 
d="M73 756q0 -16 11.5 -27t27.5 -11t28.5 11t12.5 27q0 18 -12.5 29t-28.5 11t-27.5 -10.5t-11.5 -29.5zM5 756q0 22 8.5 41.5t23 34t34 22.5t41.5 8q21 0 40.5 -8.5t33.5 -22.5t22.5 -33.5t8.5 -41.5t-8.5 -41t-22.5 -33.5t-33.5 -22.5t-40.5 -8q-22 0 -41.5 8t-34 22.5
t-23 33.5t-8.5 41zM578 -274q0 -86 -71 -147t-159 -61q-138 0 -218 94q-76 88 -76 228q1 587 13 634q-111 11 -63 90q159 -15 151 -67q-12 -68 -13 -89q-2 -68 0 -256l2 -312q2 -232 204 -232q48 0 94 36t46 82v28q-4 2 -12 10q-22 18 -22 36q0 48 46 48l24 -8
q54 -20 54 -114z" />
    <glyph glyph-name="shan.xcla" unicode="&#x109f;" horiz-adv-x="680" 
d="M488 -388q0 -80 54 -48v660q8 68 -14 158q-8 34 -32 44q-36 2 -68 10q72 -64 72 -172q0 -52 -6 -148q-8 -102 -8 -150l-2 -248q4 -10 4 -20v-86zM410 -388v62q-2 14 -4 148q-2 118 0 144q14 186 14 298q0 80 -62 124q-52 38 -136 38q-122 0 -154 -128q90 -8 158 -60
q76 -58 76 -144q0 -112 -114 -112q-64 0 -88 22q-54 26 -87 92t-33 130q0 116 62 194q68 86 180 86q24 0 44 -2q-98 76 -98 206q0 104 72 170t176 66q150 0 264 -56q98 -48 214 -164q16 -16 16 -40q0 -48 -32 -48q-10 0 -20 8q-110 106 -200 156q-116 64 -242 64
q-64 0 -116 -46t-52 -110q0 -140 194 -184q116 2 152 -94q18 -48 26 -204q2 -38 2 -636q6 -10 4 -24q0 -12 -4 -24v-24q-4 -4 -23 -38q-176 -99 -189 130zM222 94q0 54 -56 90q-46 30 -106 34q2 -4 2 -10q8 -24 12 -46q22 -58 48 -78q14 0 24 -10h2q4 -2 16 -12h24
q34 0 34 32z" />
    <glyph glyph-name="lang_mymr" unicode="&#x1700;" horiz-adv-x="3073" 
d="M1264 -179q-2 25 -27 25q-23 0 -24 -24q0 -26 24 -27t27 26zM1341 -176q0 -45 -30 -76q-28 -28 -74 -28q-48 0 -73 27q-30 28 -30 75q0 43 29 74q28 28 74 30q40 1 70 -29q31 -32 34 -73zM2847 93q0 25 -26 25q-24 0 -24 -24q-2 -26 24 -27q24 -2 26 26zM2847 393
q0 25 -26 25q-24 0 -24 -24q-1 -25 24 -27q25 0 26 26zM2925 96q0 -45 -31 -76q-26 -26 -73 -26q-49 0 -74 25q-29 29 -29 75q0 45 28 73q29 29 75 31q40 1 70 -30q29 -31 34 -72zM2925 396q0 -45 -31 -76q-30 -32 -73 -32q-44 0 -74 31q-29 31 -29 75q0 45 28 73t75 30
q41 2 70 -29t34 -72zM2536 806q4 -39 -37 -42q-36 -3 -41 36q0 28 -35 46q-15 8 -30.5 11.5t-32.5 4.5q-32 0 -55 -19q-25 -19 -30 -50q-9 -55 53 -113q10 -8 115 -69q21 -13 22 -33q0 -42 -39 -42q-11 0 -85 41q-51 29 -67 44q-40 37 -60 75t-20 81q1 35 12.5 63.5
t36.5 52.5q49 47 117 49q60 1 115 -39t61 -97zM2587 407l13 -15l6 -10l1 -2l4 -3q0 -3 -4 -3h-1v3v1q7 -12 7 -21q0 -17 -13 -29t-29 -12q-21 0 -35 23v3l-10 12q-55 64 -137 64q-76 0 -127 -51q-50 -52 -50 -123q0 -72 52 -124q52 -53 125 -53q46 0 80 14t54 43l11 16
q11 29 38 29q40 0 40 -38q0 -19 -23 -52q-32 -46 -81.5 -65.5t-118.5 -19.5q-108 -1 -181 70q-70 70 -70 180t69 179q73 74 182 74q62 0 117 -29q25 -14 45.5 -29t35.5 -32zM1818 -32v-329q0 -39 -40 -40q-39 -2 -39 40v329q0 31 39 33q40 0 40 -33zM2035 -401h-118
q-39 0 -39 40v329q0 31 39 33q41 0 41 -33v-290h77q38 0 40 -41q0 -38 -40 -38zM1667 135q53 -49 132 -49q54 2 93 23q-3 11 -15 26q-5 8 -10 14.5t-11 12.5q-52 52 -126 52q-59 0 -99 -28q6 -14 14 -26.5t22 -24.5zM1799 517q110 1 183 -72q72 -72 70 -183q0 -114 -71 -185
q-70 -72 -182 -74q-115 0 -187 73q-14 14 -26 28.5t-20 30.5q-10 18 -18 35.5t-8 34.5q0 36 43 58.5t147 21.5q111 -1 183 -71q11 -11 19.5 -24t17.5 -27q11 17 19.5 43.5t8.5 55.5q0 73 -52 127q-48 48 -119 51h3q-1 -20 -11.5 -42.5t-27.5 -39.5t-39 -27t-48 -10
q-34 0 -58.5 13.5t-42.5 39.5q-17 25 -23 53.5t2 63.5l72 -20q-3 -20 2 -31.5t13 -20.5q19 -21 37 -21q17 0 33 16q13 14 13 36t-22 41q11 5 21 9.5t19 7.5t21 5.5t28 3.5zM1402 806q5 -39 -37 -42q-35 -3 -41 36q0 28 -34 46q-15 8 -30.5 11.5t-32.5 4.5q-33 0 -56 -19
q-24 -19 -30 -50q-9 -54 53 -113q10 -8 115 -69q20 -12 23 -33q0 -42 -40 -42q-11 0 -84 41q-51 29 -68 44q-40 37 -60 75t-19 81q0 68 48 116q51 48 118 49q60 2 114 -39q57 -41 61 -97zM1330 121q-48 69 -123 69q-77 0 -126 -69q52 -54 126 -54q69 0 123 54zM1462 251
q0 -107 -74 -184q-68 -71 -181 -71q-125 0 -198 88q-10 7 -15 23q-38 61 -38 144q0 34 6 66t24 66q35 67 94 108q13 8 22 8q17 0 28 -13t11 -29q0 -19 -17 -33q-44 -29 -69 -77q-25 -47 -25 -96q0 -36 9 -57q64 76 168 76q103 0 166 -77q5 18 7.5 32.5t2.5 25.5
q0 114 -96 173q-18 13 -18 33q0 15 11 27.5t28 12.5q5 0 10.5 -1t10.5 -5q61 -37 97 -103q36 -65 36 -137zM529 219l-4 -5q8 -66 43 -98.5t83 -36.5q37 -3 56 3.5t33 14.5q28 15 34 56q5 32 -44 50t-145 18q-14 0 -28.5 -0.5t-27.5 -1.5zM349 214l-4 5q-8 1 -20 1h-23
q-52 0 -90.5 -6t-65.5 -16q-50 -19 -45 -45q5 -20 18 -34t27 -22q13 -8 30 -12.5t47 -5.5q51 -2 85.5 33.5t40.5 101.5zM431 301v-22h13v22q14 82 60 143q42 35 79 51.5t72 16.5q65 -1 114.5 -25.5t91.5 -75.5l-66 -36q-26 34 -60.5 48.5t-79.5 12.5q-32 -1 -57 -13t-42 -38
q-35 -52 -32 -106h21h16t15 1q22 2 40.5 1.5t35.5 0.5q41 0 77 -4.5t63.5 -18.5t45 -39.5t22.5 -67.5q-5 -67 -55.5 -109.5t-154.5 -42.5q-34 0 -60 7.5t-46 21.5q-42 27 -61 59q-10 17 -17.5 34.5t-11.5 37.5q-5 19 -7 33.5t-3 25.5h-12q-1 -11 -3 -25.5t-7 -33.5
q-7 -36 -29 -72q-11 -17 -26.5 -31t-35.5 -28q-21 -14 -44.5 -19t-62.5 -10q-13 -1 -33 1.5t-41.5 8.5t-42 15t-34.5 22q-26 23 -42 47.5t-15 58.5q1 42 20.5 67t54 38.5t82 17.5t103.5 4h41h20t14 -1q2 24 -7 52.5t-26 53.5q-18 26 -42.5 38t-56.5 13q-46 2 -80.5 -12.5
t-59.5 -48.5l-66 36q79 101 206 101q72 -2 154 -66q23 -29 36.5 -66t21.5 -79z" />
    <glyph glyph-name="TL_KA" unicode="&#x1950;" horiz-adv-x="518" 
d="M374 402q0 36 -7.5 60.5t-20.5 39.5t-31.5 21.5t-41.5 6.5q-31 0 -56 -8t-46 -22.5t-38 -32.5t-31 -39h-68l-20 186h76l9 -103h2q15 22 31.5 41t37 33t48 21.5t65.5 7.5q39 0 69.5 -9.5t52.5 -33t33.5 -63.5t11.5 -100v-409h-76v403z" />
    <glyph glyph-name="TL_XA" unicode="&#x1951;" horiz-adv-x="551" 
d="M406 284l-145 -18q-67 -7 -101 -32.5t-34 -76.5q0 -47 26.5 -68.5t72.5 -21.5q45 0 78 11.5t57 33.5q46 44 46 114v58zM66 428l-19 186h75l9 -105h3q16 26 32 46t35 33t43.5 19.5t57.5 6.5q88 0 134.5 -63.5t46.5 -183.5v-266l-65 -101h-12v94h-2q-30 -54 -75.5 -81
t-112.5 -27q-38 0 -69.5 12.5t-53.5 34.5t-34 53.5t-12 68.5q0 44 13 77t38 56t60 36t80 18l168 19q0 89 -30.5 129t-97.5 40q-25 0 -45.5 -4.5t-37.5 -16.5t-31 -32t-29 -49h-69z" />
    <glyph glyph-name="TL_NGA" unicode="&#x1952;" horiz-adv-x="576" 
d="M509 0h-77v342q0 191 -126 191q-66 0 -109 -54t-43 -137v-342h-76v499l64 101h12v-100h3q60 114 173 114q88 0 133.5 -63.5t45.5 -183.5v-367z" />
    <glyph glyph-name="TL_TSA" unicode="&#x1953;" horiz-adv-x="695" 
d="M287 258q0 -191 120 -191q63 0 103 54q37 49 41 125v96q0 191 -120 191q-32 0 -56.5 -13.5t-47.5 -40.5q-18 -25 -27.5 -56.5t-12.5 -68.5v-96zM284 503q14 25 31 46t38 35.5t46 22t57 7.5q83 0 127.5 -63.5t44.5 -183.5v-266l-65 -101h-12v100h-2q-29 -57 -73 -85.5
t-97 -28.5q-82 0 -125 63.5t-43 183.5v192q0 55 -8 80t-33 25q-12 0 -22 -8t-18 -22.5t-14.5 -32.5t-13.5 -39h-68l-20 186h76l9 -92h2q9 20 17 37t19.5 29t26.5 19t38 7q20 0 34.5 -9.5t25 -24.5t15.5 -35.5t7 -41.5z" />
    <glyph glyph-name="TL_SA" unicode="&#x1954;" horiz-adv-x="706" 
d="M287 257q0 -190 126 -190q30 0 55.5 14t44 38.5t28.5 58.5t10 76v346h77v-499l-65 -101h-12v95h-2q-51 -109 -156 -109q-182 0 -182 255v184q0 55 -8 80t-33 25q-12 0 -22 -8t-18 -22.5t-14.5 -32.5t-13.5 -39h-68l-20 186h76l9 -92h2q9 20 17 37t19.5 29t26.5 19t38 7
t39.5 -10.5t26.5 -29t14.5 -44t4.5 -55.5v-218z" />
    <glyph glyph-name="TL_YA" unicode="&#x1955;" horiz-adv-x="697" 
d="M619 50q0 -27 -12 -44.5t-36 -17.5q-14 0 -25.5 4t-25 15.5t-32 30t-47.5 50.5q-19 20 -33 34.5t-24 23.5t-18.5 13t-16.5 4q-9 0 -17.5 -4t-19 -13t-24 -23.5t-32.5 -34.5q-29 -32 -47.5 -50.5t-32 -30t-25 -15.5t-25.5 -4q-24 0 -36 17.5t-12 44.5v550h76v-496l75 75
q17 18 33 33t30 25.5t28 16t30 5.5q13 0 26 -5.5t26.5 -15.5t29 -25t34.5 -34l76 -75v496h77v-550z" />
    <glyph glyph-name="TL_TA" unicode="&#x1956;" horiz-adv-x="826" 
d="M450 240q0 -62 -12 -109.5t-37.5 -80t-61.5 -48.5t-81 -16q-96 0 -144 64.5t-48 190.5v258l64 101h13v-95h2q45 109 141 109q56 0 94 -29t57 -87h5q9 25 24 46t33.5 37.5t42.5 24.5t52 8q164 0 164 -255v-359h-76v343q0 190 -110 190q-26 0 -48.5 -14t-38.5 -38.5
t-25.5 -58.5t-9.5 -76v-106zM258 67q56 0 86 45t30 145v86q0 190 -109 190q-27 0 -49.5 -14t-38 -38.5t-25 -58.5t-9.5 -76v-89q0 -52 7.5 -88t22 -58t36 -33t49.5 -11z" />
    <glyph glyph-name="TL_THA" unicode="&#x1957;" horiz-adv-x="826" 
d="M130 600h13v-95h2q45 109 141 109q56 0 94 -29t57 -87h5q9 25 24 46t33.5 37.5t42.5 24.5t52 8q164 0 164 -255v-261l-62 -98h-11v95h-3q-45 -109 -141 -109q-56 0 -94.5 28.5t-58.5 87.5h-4q-24 -59 -64.5 -87.5t-88.5 -28.5q-165 0 -165 255v258zM450 247
q3 -180 111 -180q53 0 86 52q31 48 35 122v102q0 190 -110 190q-26 0 -48.5 -14t-38.5 -38.5t-25.5 -58.5t-9.5 -76v-99zM143 257q0 -190 110 -190q26 0 48 14t38 38.5t25.5 58.5t9.5 76v89q0 190 -109 190q-27 0 -49.5 -14t-38 -38.5t-25 -58.5t-9.5 -76v-89z" />
    <glyph glyph-name="TL_LA" unicode="&#x1958;" horiz-adv-x="561" 
d="M407 0v130q-9 -8 -18 -15t-19 -13t-21.5 -9.5t-25.5 -3.5q-15 0 -30.5 7t-31.5 18t-32.5 23.5t-31.5 23.5t-29 18t-24 7q-18 0 -28.5 -13t-10.5 -37q0 -23 10.5 -38t28.5 -15q13 0 20 2.5t17 5.5v-72q-4 -2 -17.5 -5.5t-29.5 -3.5q-24 0 -44 8t-33.5 24.5t-21 40
t-7.5 53.5q0 25 7 47.5t20 40t34 27t50 9.5q21 0 41 -6.5t37 -17t33.5 -23.5t30 -24t27.5 -18t26 -7t23 4t20.5 8t17 10l12.5 10v404h77v-600h-77z" />
    <glyph glyph-name="TL_PA" unicode="&#x1959;" horiz-adv-x="581" 
d="M438 0h-12v95h-2q-54 -109 -166 -109q-191 0 -191 255v359h77v-343q0 -190 134 -190q64 0 106 51.5t42 135.5v346h77v-499z" />
    </font>
</defs>
</svg>
