<?xml version="1.0" standalone="no"?>
<!DOCTYPE svg PUBLIC "-//W3C//DTD SVG 1.1//EN" "http://www.w3.org/Graphics/SVG/1.1/DTD/svg11.dtd" >
<svg xmlns="http://www.w3.org/2000/svg" xmlns:xlink="http://www.w3.org/1999/xlink" version="1.1">
<metadata>
Created by FontForge 20141024 at Tue Mar 24 09:06:15 2015
 By System Administrator
Copy Left (OFL)
</metadata>
<defs>
<font id="Ours-Unicode" horiz-adv-x="0" >
  <font-face 
    font-family="Ours-Unicode"
    font-weight="400"
    font-stretch="normal"
    units-per-em="1000"
    panose-1="2 0 5 3 0 0 0 2 0 3"
    ascent="800"
    descent="-200"
    x-height="519"
    cap-height="716"
    bbox="-1119 -437 2297 1020"
    underline-thickness="50"
    underline-position="-380"
    unicode-range="U+0020-AA7B"
  />
<missing-glyph horiz-adv-x="318" 
 />
    <glyph glyph-name=".notdef" horiz-adv-x="318" 
 />
    <glyph glyph-name="space" unicode=" " horiz-adv-x="318" 
 />
    <glyph glyph-name="exclam" unicode="!" horiz-adv-x="277" 
d="M112 178l-27 379v159h109v-159l-26 -379h-56zM89 0v100h101v-100h-101z" />
    <glyph glyph-name="quotedbl" unicode="&#x22;" horiz-adv-x="354" 
d="M69 462l-24 137v117h100v-117l-22 -137h-54zM231 462l-24 137v117h100v-117l-23 -137h-53z" />
    <glyph glyph-name="numbersign" unicode="#" horiz-adv-x="556" 
d="M50 -12l43 208h-83v73h97l36 177h-133v73h148l42 209h74l-43 -209h154l42 209h74l-42 -209h84v-73h-99l-37 -177h136v-73h-150l-43 -208h-73l42 208h-153l-43 -208h-73zM180 269h154l36 177h-153z" />
    <glyph glyph-name="dollar" unicode="$" horiz-adv-x="556" 
d="M248 -103v88q-66 8 -107 29.5t-71 68.5t-35 116l88 16q11 -70 37 -104q37 -47 88 -52v280q-54 10 -110 42q-42 23 -65 64.5t-23 94.5q0 94 67 152q44 39 131 48v42h52v-42q77 -8 122 -45q57 -48 69 -132l-91 -13q-8 52 -32.5 79.5t-67.5 36.5v-254q67 -16 88 -26
q41 -18 67 -44t40 -61.5t14 -76.5q0 -92 -58.5 -153t-150.5 -65v-89h-52zM248 667q-51 -8 -80.5 -41.5t-29.5 -78.5t25 -75.5t85 -48.5v244zM300 59q51 6 84.5 44.5t33.5 94.5q0 48 -23.5 77t-94.5 52v-268z" />
    <glyph glyph-name="percent" unicode="%" horiz-adv-x="889" 
d="M58 544q0 77 38.5 130.5t111.5 53.5q68 0 112 -48t44 -141q0 -91 -44.5 -140t-110.5 -49q-65 0 -108 48t-43 146zM211 667q-33 0 -54.5 -28t-21.5 -104q0 -69 22 -97t54 -28q33 0 54.5 28.5t21.5 103.5q0 69 -21.5 97t-54.5 28zM211 -26l392 754h71l-390 -754h-73z
M521 168q0 77 38.5 130.5t112.5 53.5q67 0 111.5 -48t44.5 -141q0 -91 -45 -140t-111 -49q-65 0 -108 48.5t-43 145.5zM674 292q-33 0 -54.5 -28.5t-21.5 -104.5q0 -68 21.5 -96.5t54.5 -28.5t55 28.5t22 103.5q0 69 -22 97.5t-55 28.5z" />
    <glyph glyph-name="ampersand" unicode="&#x26;" horiz-adv-x="666" 
d="M474 84q-43 -48 -94.5 -72t-110.5 -24q-110 0 -175 74q-52 61 -52 135q0 67 42.5 120.5t127.5 93.5q-48 56 -64 90.5t-16 66.5q0 65 50.5 112.5t127.5 47.5q73 0 119.5 -45t46.5 -108q0 -102 -135 -174l128 -164q22 43 34 100l92 -20q-24 -93 -64 -154q50 -65 112 -110
l-59 -70q-53 35 -110 101zM295 458q58 33 74.5 58.5t16.5 56.5q0 36 -23 59.5t-58 23.5t-59 -23t-24 -56q0 -17 8.5 -35.5t25.5 -38.5zM419 154l-161 200q-71 -43 -96 -79.5t-25 -71.5q0 -44 34.5 -91t98.5 -47q39 0 81.5 25t67.5 64z" />
    <glyph glyph-name="quotesingle" unicode="'" horiz-adv-x="190" 
d="M65 462l-22 134v120h100v-120l-23 -134h-55z" />
    <glyph glyph-name="parenleft" unicode="(" horiz-adv-x="333" 
d="M233 -210q-72 91 -122.5 214t-50.5 255q0 116 38 223q44 123 135 246h63q-59 -102 -78 -145q-30 -67 -47 -141q-21 -91 -21 -183q0 -235 146 -469h-63z" />
    <glyph glyph-name="parenright" unicode=")" horiz-adv-x="333" 
d="M123 -210h-63q146 234 146 469q0 92 -21 182q-17 73 -46 141q-19 43 -79 146h63q92 -123 136 -246q37 -107 37 -223q0 -132 -50.5 -255t-122.5 -214z" />
    <glyph glyph-name="asterisk" unicode="*" horiz-adv-x="389" 
d="M31 584l22 70q78 -28 113 -48q-9 89 -10 122h71q-1 -48 -11 -121q50 25 115 47l23 -70q-62 -20 -122 -27q30 -26 84 -92l-58 -42q-29 39 -67 105q-36 -69 -64 -105l-57 42q56 70 81 92q-63 12 -120 27z" />
    <glyph glyph-name="plus" unicode="+" horiz-adv-x="583" 
d="M250 116v196h-195v82h195v195h83v-195h195v-82h-195v-196h-83z" />
    <glyph glyph-name="comma" unicode="," horiz-adv-x="277" 
d="M89 0v100h100v-100q0 -55 -19.5 -89t-62.5 -53l-24 38q28 12 41 36t15 68h-50z" />
    <glyph glyph-name="uni00AD" unicode="-" horiz-adv-x="333" 
d="M31 215v88h270v-88h-270z" />
    <glyph glyph-name="period" unicode="." horiz-adv-x="277" 
d="M90 0v100h100v-100h-100z" />
    <glyph glyph-name="slash" unicode="/" horiz-adv-x="277" 
d="M0 -12l208 740h70l-207 -740h-71z" />
    <glyph glyph-name="zero" unicode="0" horiz-adv-x="556" 
d="M41 353q0 127 26 204.5t77.5 119.5t129.5 42q58 0 101.5 -23.5t72 -67t44.5 -106.5t16 -169q0 -126 -26 -203.5t-77.5 -119.5t-130.5 -42q-103 0 -162 74q-71 89 -71 291zM131 353q0 -176 41.5 -234.5t101.5 -58.5q61 0 102 58.5t41 234.5q0 177 -41 235t-103 58
q-60 0 -96 -51q-46 -66 -46 -242z" />
    <glyph glyph-name="one" unicode="1" horiz-adv-x="556" 
d="M372 0h-88v560q-32 -30 -83.5 -60.5t-92.5 -45.5v85q74 35 129 84t78 96h57v-719z" />
    <glyph glyph-name="two" unicode="2" horiz-adv-x="556" 
d="M503 84v-84h-473q-1 32 10 61q18 48 58 95t115 109q117 95 158 151t41 106q0 52 -37.5 88t-97.5 36q-63 0 -101.5 -38t-38.5 -106l-90 10q9 101 69.5 154t162.5 53q103 0 163 -57.5t60 -141.5q0 -43 -17.5 -84.5t-58.5 -87.5t-135 -126q-79 -66 -101.5 -90t-37.5 -48h351
z" />
    <glyph glyph-name="three" unicode="3" horiz-adv-x="556" 
d="M41 189l88 12q15 -75 51.5 -108t88.5 -33q62 0 104.5 43t42.5 106q0 61 -39.5 100.5t-100.5 39.5q-25 0 -62 -10l10 77q9 -1 14 -1q56 0 101 29.5t45 90.5q0 48 -32.5 79.5t-84.5 31.5q-51 0 -85.5 -32t-43.5 -96l-88 15q16 89 73 137.5t142 48.5q59 0 108 -25.5
t75.5 -68.5t26.5 -92q0 -47 -25 -85t-74 -60q63 -15 98.5 -61t35.5 -116q0 -93 -68.5 -158.5t-172.5 -65.5q-95 0 -157 56.5t-71 145.5z" />
    <glyph glyph-name="four" unicode="4" horiz-adv-x="556" 
d="M323 0v171h-311v81l327 464h71v-464h97v-81h-97v-171h-87zM323 252v323l-225 -323h225z" />
    <glyph glyph-name="five" unicode="5" horiz-adv-x="556" 
d="M41 188l92 7q11 -67 48 -101t90 -34q63 0 107 48t44 127q0 75 -42 118.5t-110 43.5q-43 0 -77 -19.5t-54 -49.5l-82 10l69 368h356v-84h-286l-38 -192q64 45 135 45q94 0 158.5 -65t64.5 -167q0 -97 -57 -168q-69 -87 -188 -87q-98 0 -159.5 54.5t-70.5 145.5z" />
    <glyph glyph-name="six" unicode="6" horiz-adv-x="556" 
d="M497 541l-87 -7q-12 51 -34 75q-35 37 -88 37q-42 0 -73 -23q-42 -30 -66 -88t-25 -166q32 48 78 71.5t96 23.5q88 0 150 -64.5t62 -167.5q0 -67 -29 -125t-80 -88.5t-115 -30.5q-110 0 -179.5 80.5t-69.5 266.5q0 207 77 302q67 82 180 82q84 0 138 -47.5t65 -130.5z
M138 232q0 -45 19.5 -86.5t54 -63.5t72.5 -22q56 0 96 45t40 122q0 74 -39.5 117t-99.5 43t-101.5 -43t-41.5 -112z" />
    <glyph glyph-name="seven" unicode="7" horiz-adv-x="556" 
d="M47 622v85h463v-69q-68 -73 -135 -193.5t-104 -247.5q-26 -90 -34 -197h-90q2 84 33.5 204t91 231t126.5 187h-351z" />
    <glyph glyph-name="eight" unicode="8" horiz-adv-x="556" 
d="M176 388q-54 20 -80.5 57t-26.5 89q0 78 56 131.5t149 53.5q94 0 151 -54.5t57 -132.5q0 -50 -26 -87t-79 -57q66 -21 100.5 -69t34.5 -114q0 -92 -65 -154.5t-171 -62.5t-171 62.5t-65 156.5q0 70 35.5 117t100.5 64zM159 537q0 -51 32.5 -83t84.5 -32q51 0 83.5 32
t32.5 78q0 49 -33.5 81.5t-83.5 32.5t-83 -32t-33 -77zM130 207q0 -38 18 -73t53 -54.5t76 -19.5q63 0 104 40.5t41 103.5t-42.5 104.5t-105.5 41.5q-62 0 -103 -41t-41 -102z" />
    <glyph glyph-name="nine" unicode="9" horiz-adv-x="556" 
d="M54 166l85 7q10 -59 40.5 -86t77.5 -27q41 0 71.5 18.5t50 49.5t32.5 84t13 107v18q-27 -42 -72.5 -68t-98.5 -26q-89 0 -150.5 64.5t-61.5 169.5q0 109 64 175.5t161 66.5q70 0 128 -37.5t88 -107.5t30 -201q0 -138 -30 -219t-89 -123.5t-138 -42.5q-84 0 -137 46.5
t-64 131.5zM414 481q0 76 -40.5 120.5t-96.5 44.5q-59 0 -102.5 -48t-43.5 -124q0 -68 41.5 -111t101.5 -43q61 0 100.5 43t39.5 118z" />
    <glyph glyph-name="colon" unicode=":" horiz-adv-x="277" 
d="M90 418v101h100v-101h-100zM90 0v100h100v-100h-100z" />
    <glyph glyph-name="uni037E" unicode=";" horiz-adv-x="277" 
d="M89 418v101h100v-101h-100zM89 0v100h100v-100q0 -55 -19.5 -89t-62.5 -53l-24 38q28 12 41 36t15 68h-50z" />
    <glyph glyph-name="less" unicode="&#x3c;" horiz-adv-x="583" 
d="M54 313v82l474 200v-87l-376 -154l376 -156v-88z" />
    <glyph glyph-name="equal" unicode="=" horiz-adv-x="583" 
d="M528 421h-473v82h473v-82zM528 204h-473v82h473v-82z" />
    <glyph glyph-name="greater" unicode="&#x3e;" horiz-adv-x="583" 
d="M528 313l-474 -203v88l375 156l-375 154v87l474 -200v-82z" />
    <glyph glyph-name="question" unicode="?" horiz-adv-x="556" 
d="M230 176q-1 18 -1 27q0 51 15 89q10 28 34 57q18 21 63.5 61.5t59.5 64.5t14 52q0 51 -40 90t-99 39q-56 0 -93.5 -35.5t-49.5 -109.5l-90 10q12 101 72.5 154t159.5 53q105 0 167.5 -57t62.5 -138q0 -47 -22 -86.5t-86 -96.5q-43 -38 -56 -56t-19.5 -41.5t-7.5 -76.5
h-84zM224 0v100h100v-100h-100z" />
    <glyph glyph-name="at" unicode="@" horiz-adv-x="1015" 
d="M567 80q-32 -37 -71.5 -59t-78.5 -22q-44 0 -85 25t-66.5 78t-25.5 116q0 77 40 155t99 117t114 39q43 0 81.5 -22t66.5 -68l17 76h87l-70 -327q-15 -69 -15 -76q0 -13 10 -22.5t24 -9.5q26 0 68 29q56 39 88.5 105t32.5 136q0 81 -42 152t-124.5 113.5t-183.5 42.5
q-114 0 -208.5 -53.5t-146.5 -153.5t-52 -214q0 -120 52 -206.5t150.5 -127.5t218.5 -41q128 0 214 43t129 104h89q-25 -51 -85.5 -104t-144 -84t-201.5 -31q-108 0 -199.5 27.5t-156 83.5t-97.5 129q-41 92 -41 199q0 119 49 227q59 132 169 202.5t266 70.5
q121 0 217.5 -49.5t152.5 -147.5q47 -85 47 -184q0 -141 -100 -251q-89 -99 -194 -99q-34 0 -54.5 10.5t-30.5 29.5q-6 12 -9 42zM330 212q0 -67 32 -104t73 -37q27 0 57.5 16.5t58 48.5t45 81.5t17.5 99.5q0 66 -33 103t-80 37q-31 0 -59 -16t-53.5 -51.5t-41.5 -85.5
t-16 -92z" />
    <glyph glyph-name="A" unicode="A" horiz-adv-x="666" 
d="M-1 0l275 716h102l293 -716h-108l-83 217h-300l-78 -217h-101zM206 294h242l-74 198q-35 91 -51 149q-14 -69 -39 -137z" />
    <glyph glyph-name="B" unicode="B" horiz-adv-x="666" 
d="M73 0v716h269q82 0 131.5 -22t77.5 -67t28 -94q0 -46 -25 -86.5t-75 -65.5q65 -19 100 -65t35 -108q0 -51 -21.5 -94t-52.5 -66.5t-78.5 -35.5t-115.5 -12h-273zM168 415h155q63 0 90 8q36 11 54.5 36t18.5 62q0 36 -17.5 63t-49 37t-108.5 10h-143v-216zM168 84h178
q46 0 64 4q33 6 55 19.5t36 39.5t14 61q0 40 -20.5 69.5t-56.5 41.5t-105 12h-165v-247z" />
    <glyph glyph-name="C" unicode="C" horiz-adv-x="722" 
d="M587 251l95 -24q-30 -117 -107.5 -178t-189.5 -61q-115 0 -187.5 47t-110.5 136.5t-38 191.5q0 112 42.5 195.5t121.5 126.5t174 43q107 0 180.5 -54.5t102.5 -153.5l-94 -22q-25 78 -72 113.5t-119 35.5q-83 0 -138 -39.5t-77.5 -106t-22.5 -137.5q0 -92 26.5 -160
t82.5 -101.5t122 -33.5q79 0 134.5 46t74.5 136z" />
    <glyph glyph-name="D" unicode="D" horiz-adv-x="722" 
d="M77 0v716h247q83 0 127 -10q62 -15 105 -52q57 -48 85 -122t28 -170q0 -82 -19 -145t-49 -104t-65.5 -65t-85.5 -36t-115 -12h-258zM172 84h153q70 0 110.5 13.5t64.5 37.5q34 33 52.5 90t18.5 138q0 113 -37 173t-89 81q-38 14 -123 14h-150v-547z" />
    <glyph glyph-name="E" unicode="E" horiz-adv-x="666" 
d="M79 0v716h518v-85h-423v-219h396v-84h-396v-244h439v-84h-534z" />
    <glyph glyph-name="F" unicode="F" horiz-adv-x="610" 
d="M82 0v716h483v-85h-388v-221h336v-85h-336v-325h-95z" />
    <glyph glyph-name="G" unicode="G" horiz-adv-x="777" 
d="M412 281v84h303v-265q-70 -56 -144 -84t-152 -28q-106 0 -192 45t-130 130.5t-44 190.5t43.5 195.5t125.5 134.5t189 44q78 0 141 -25t98.5 -70t53.5 -117l-85 -24q-16 55 -40 86t-68.5 50t-98.5 19q-65 0 -112.5 -20t-76.5 -52t-45 -71q-27 -66 -27 -144
q0 -95 33 -159.5t96 -96t133 -31.5q62 0 120.5 24t88.5 50v134h-210z" />
    <glyph glyph-name="H" unicode="H" horiz-adv-x="722" 
d="M80 0v716h95v-294h372v294h95v-716h-95v337h-372v-337h-95z" />
    <glyph glyph-name="I" unicode="I" horiz-adv-x="277" 
d="M93 0v716h95v-716h-95z" />
    <glyph glyph-name="J" unicode="J" horiz-adv-x="500" 
d="M28 203l85 12q4 -82 31.5 -112.5t75.5 -30.5q35 0 61 16.5t36 44.5t10 90v493h95v-488q0 -90 -22 -139t-69 -75t-111 -26q-94 0 -144 54t-48 161z" />
    <glyph glyph-name="K" unicode="K" horiz-adv-x="666" 
d="M73 0v716h95v-355l355 355h129l-301 -290l314 -426h-125l-255 362l-117 -114v-248h-95z" />
    <glyph glyph-name="L" unicode="L" horiz-adv-x="556" 
d="M73 0v716h95v-632h352v-84h-447z" />
    <glyph glyph-name="M" unicode="M" horiz-adv-x="833" 
d="M74 0v716h143l169 -507q23 -71 34 -106q12 39 38 115l172 498h127v-716h-91v599l-208 -599h-86l-207 609v-609h-91z" />
    <glyph glyph-name="N" unicode="N" horiz-adv-x="722" 
d="M76 0v716h97l376 -562v562h91v-716h-97l-376 563v-563h-91z" />
    <glyph glyph-name="O" unicode="O" horiz-adv-x="777" 
d="M48 349q0 178 95.5 279t247.5 101q99 0 178.5 -47.5t121.5 -132.5t42 -192q0 -109 -44 -195t-124.5 -130t-174.5 -44q-101 0 -180.5 48.5t-120.5 133t-41 179.5zM146 347q0 -129 69.5 -203.5t174.5 -74.5q107 0 176 75t69 213q0 88 -29.5 153t-86.5 101t-128 36
q-100 0 -172.5 -69t-72.5 -231z" />
    <glyph glyph-name="P" unicode="P" horiz-adv-x="666" 
d="M77 0v716h270q71 0 109 -7q53 -9 88.5 -33.5t57 -69t21.5 -97.5q0 -92 -58 -155t-210 -63h-183v-291h-95zM172 375h185q92 0 130.5 34.5t38.5 96.5q0 45 -23 77t-60 42q-24 6 -88 6h-183v-256z" />
    <glyph glyph-name="Q" unicode="Q" horiz-adv-x="777" 
d="M619 77q66 -46 121 -67l-28 -66q-77 28 -153 88q-80 -44 -176 -44q-97 0 -176.5 47t-122 131.5t-42.5 191.5q0 106 43 193t122.5 132.5t177.5 45.5q99 0 178.5 -47.5t121.5 -132t42 -191.5q0 -88 -27 -158.5t-81 -122.5zM410 198q82 -23 135 -69q84 77 84 229
q0 87 -29.5 152t-86.5 101t-128 36q-106 0 -175.5 -72.5t-69.5 -216.5q0 -140 69 -214.5t176 -74.5q51 0 96 19q-44 29 -94 41z" />
    <glyph glyph-name="R" unicode="R" horiz-adv-x="722" 
d="M78 0v716h317q96 0 146 -19.5t79.5 -68t29.5 -107.5q0 -77 -49 -129t-152 -66q37 -18 57 -36q41 -38 78 -95l125 -195h-119l-95 149q-42 64 -68.5 98.5t-48 48t-43.5 18.5q-16 4 -52 4h-110v-318h-95zM173 400h203q65 0 102 13.5t56 43t19 64.5q0 50 -37 83t-117 33h-226
v-237z" />
    <glyph glyph-name="S" unicode="S" horiz-adv-x="666" 
d="M44 230l89 8q7 -54 30 -88.5t72 -55.5t110 -21q54 0 95.5 16t62 44t20.5 61q0 34 -20 59t-64 42q-29 12 -128 35.5t-138 44.5q-51 27 -76.5 66.5t-25.5 89.5q0 54 31 101t90 71.5t131 24.5q80 0 140.5 -25.5t93.5 -75.5t35 -113l-90 -7q-8 68 -50 103t-125 35
q-86 0 -125 -31.5t-39 -76.5q0 -38 27 -63q28 -25 143.5 -51.5t158.5 -45.5q62 -29 92 -73t30 -102q0 -57 -33 -107.5t-94 -78.5t-138 -28q-97 0 -162.5 28t-103 85t-39.5 129z" />
    <glyph glyph-name="T" unicode="T" horiz-adv-x="610" 
d="M259 0v631h-236v85h567v-85h-236v-631h-95z" />
    <glyph glyph-name="U" unicode="U" horiz-adv-x="722" 
d="M546 716h95v-414q0 -108 -24.5 -171.5t-88 -103t-167.5 -39.5q-100 0 -164 34.5t-91.5 100t-27.5 179.5v414h95v-413q0 -94 17 -138t59.5 -68t103.5 -24q104 0 148.5 47.5t44.5 182.5v413z" />
    <glyph glyph-name="V" unicode="V" horiz-adv-x="666" 
d="M281 0l-277 716h103l186 -520q22 -63 37 -117q17 58 39 117l193 520h97l-280 -716h-98z" />
    <glyph glyph-name="W" unicode="W" horiz-adv-x="943" 
d="M202 0l-190 716h97l109 -469q18 -74 30 -147q28 115 33 132l136 484h114l103 -362q38 -135 55 -254q14 68 36 156l112 460h95l-196 -716h-91l-151 545q-19 69 -23 84q-11 -49 -21 -84l-151 -545h-97z" />
    <glyph glyph-name="X" unicode="X" horiz-adv-x="666" 
d="M4 0l277 373l-244 343h113l129 -184q41 -57 58 -88q24 39 57 82l144 190h103l-252 -338l271 -378h-117l-180 255q-15 22 -31 48q-24 -39 -35 -53l-179 -250h-114z" />
    <glyph glyph-name="Y" unicode="Y" horiz-adv-x="666" 
d="M278 0v303l-276 413h115l141 -216q39 -61 73 -121q32 56 78 126l139 211h110l-285 -413v-303h-95z" />
    <glyph glyph-name="Z" unicode="Z" horiz-adv-x="610" 
d="M20 0v88l367 458q39 49 74 85h-399v85h512v-85l-402 -496l-43 -51h457v-84h-566z" />
    <glyph glyph-name="bracketleft" unicode="[" horiz-adv-x="277" 
d="M67 -199v915h194v-73h-106v-769h106v-73h-194z" />
    <glyph glyph-name="backslash" unicode="\" horiz-adv-x="277" 
d="M208 -12l-208 740h71l207 -740h-70z" />
    <glyph glyph-name="bracketright" unicode="]" horiz-adv-x="277" 
d="M213 -199h-194v73h106v769h-106v73h194v-915z" />
    <glyph glyph-name="asciicircum" unicode="^" horiz-adv-x="469" 
d="M116 337h-90l172 391h71l174 -391h-89l-120 291z" />
    <glyph glyph-name="underscore" unicode="_" horiz-adv-x="556" 
d="M-15 -199v64h583v-64h-583z" />
    <glyph glyph-name="grave" unicode="`" horiz-adv-x="333" 
d="M227 583h-71l-113 137h118z" />
    <glyph glyph-name="a" unicode="a" horiz-adv-x="556" 
d="M404 64q-49 -42 -94 -59t-97 -17q-85 0 -131 42t-46 107q0 38 17.5 69.5t45.5 50.5t63 29q26 6 78 13q107 13 157 30v23q0 54 -25 76q-33 30 -100 30q-62 0 -91.5 -22t-43.5 -77l-86 12q12 55 39 89t77.5 52t117.5 18q66 0 107.5 -15.5t61.5 -39t27 -59.5q5 -23 5 -82
v-117q0 -122 5.5 -154.5t22.5 -62.5h-92q-14 27 -18 64zM397 260q-48 -19 -144 -33q-54 -8 -76.5 -17.5t-34.5 -28.5t-12 -42q0 -35 26.5 -58.5t77.5 -23.5t90.5 22.5t58.5 60.5q14 30 14 88v32z" />
    <glyph glyph-name="b" unicode="b" horiz-adv-x="556" 
d="M147 0h-82v716h88v-256q56 70 142 70q48 0 90.5 -19t70 -54t43.5 -84.5t16 -105.5q0 -133 -66 -206t-158 -73t-144 77v-65zM146 263q0 -93 25 -135q41 -67 112 -67q58 0 100 50t42 149q0 101 -40.5 149.5t-97.5 48.5t-99 -50t-42 -145z" />
    <glyph glyph-name="c" unicode="c" horiz-adv-x="500" 
d="M404 190l87 -11q-14 -90 -72.5 -140.5t-143.5 -50.5q-107 0 -171.5 69.5t-64.5 199.5q0 84 28 147t84.5 94.5t123.5 31.5q85 0 138.5 -42.5t68.5 -121.5l-85 -13q-12 52 -43 78.5t-75 26.5q-67 0 -108.5 -47.5t-41.5 -150.5q0 -105 40 -152t105 -47q52 0 86.5 31.5
t43.5 97.5z" />
    <glyph glyph-name="d" unicode="d" horiz-adv-x="556" 
d="M402 0v65q-49 -77 -145 -77q-62 0 -114 34.5t-80.5 95.5t-28.5 141q0 77 26 140.5t77.5 97t115.5 33.5q47 0 83.5 -19.5t59.5 -51.5v257h88v-716h-82zM124 259q0 -100 42 -149t99 -49q58 0 98.5 47t40.5 143q0 107 -41 157t-101 50q-59 0 -98.5 -48t-39.5 -151z" />
    <glyph glyph-name="e" unicode="e" horiz-adv-x="556" 
d="M420 167l91 -11q-21 -80 -79.5 -124t-148.5 -44q-114 0 -180.5 70t-66.5 197q0 131 67.5 203t174.5 72q104 0 170 -70.5t66 -199.5v-23h-387q5 -86 48.5 -131t108.5 -45q48 0 82 25t54 81zM132 309h289q-6 66 -33 98q-42 51 -109 51q-60 0 -101.5 -40.5t-45.5 -108.5z
" />
    <glyph glyph-name="f" unicode="f" horiz-adv-x="277" 
d="M87 0v450h-78v69h78v55q0 52 9 77q13 35 45 56t89 21q37 0 82 -9l-13 -76q-27 4 -52 4q-40 0 -56.5 -17t-16.5 -64v-47h101v-69h-101v-450h-87z" />
    <glyph glyph-name="g" unicode="g" horiz-adv-x="556" 
d="M50 -43l85 -13q5 -39 30 -57q33 -25 89 -25q61 0 94.5 24.5t44.5 68.5q7 27 7 113q-58 -68 -144 -68q-107 0 -165.5 77t-58.5 185q0 74 27 137t78 97t120 34q91 0 151 -74v63h81v-449q0 -121 -24.5 -171.5t-78 -79.5t-131.5 -29q-93 0 -150 41.5t-55 125.5zM122 269
q0 -102 40.5 -149t101.5 -47t102 46.5t41 146.5q0 95 -42 143.5t-102 48.5q-59 0 -100 -48t-41 -141z" />
    <glyph glyph-name="h" unicode="h" horiz-adv-x="556" 
d="M65 0v716h88v-257q61 71 155 71q58 0 100.5 -22.5t60.5 -62.5t18 -116v-329h-88v329q0 66 -28.5 96t-80.5 30q-39 0 -73.5 -20.5t-49 -55t-14.5 -95.5v-284h-88z" />
    <glyph glyph-name="i" unicode="i" horiz-adv-x="222" 
d="M66 615v101h88v-101h-88zM66 0v519h88v-519h-88z" />
    <glyph glyph-name="j" unicode="j" horiz-adv-x="222" 
d="M66 614v102h88v-102h-88zM-45 -201l17 75q26 -7 41 -7q27 0 40 17.5t13 89.5v545h88v-547q0 -96 -25 -134q-31 -48 -105 -48q-36 0 -69 9z" />
    <glyph glyph-name="k" unicode="k" horiz-adv-x="500" 
d="M66 0v716h88v-408l208 211h114l-199 -193l219 -326h-109l-171 265l-62 -59v-206h-88z" />
    <glyph glyph-name="l" unicode="l" horiz-adv-x="222" 
d="M63 0v716h88v-716h-88z" />
    <glyph glyph-name="m" unicode="m" horiz-adv-x="833" 
d="M65 0v519h79v-73q24 38 64.5 61t92.5 23q57 0 94 -24t52 -67q62 91 160 91q78 0 119.5 -42.5t41.5 -131.5v-356h-88v327q0 52 -8.5 75.5t-31 37.5t-52.5 14q-55 0 -91 -36.5t-36 -116.5v-301h-88v337q0 59 -21.5 88t-70.5 29q-37 0 -68.5 -19.5t-45.5 -57t-14 -108.5
v-269h-88z" />
    <glyph glyph-name="n" unicode="n" horiz-adv-x="556" 
d="M65 0v519h79v-74q57 85 165 85q47 0 86.5 -16.5t59 -44t27.5 -65.5q4 -24 4 -85v-319h-88v315q0 54 -10 80.5t-36 42.5t-61 16q-57 0 -97.5 -35.5t-40.5 -135.5v-283h-88z" />
    <glyph glyph-name="o" unicode="o" horiz-adv-x="556" 
d="M33 259q0 144 80 214q67 57 163 57q107 0 175 -70t68 -193q0 -100 -30 -157.5t-87.5 -89.5t-125.5 -32q-109 0 -176 70t-67 201zM123 259q0 -99 43.5 -148.5t109.5 -49.5t109.5 49.5t43.5 151.5q0 96 -44 146t-109 50q-66 0 -109.5 -49.5t-43.5 -149.5z" />
    <glyph glyph-name="p" unicode="p" horiz-adv-x="556" 
d="M65 -199v718h80v-68q28 40 64 59.5t86 19.5q67 0 117.5 -34t76.5 -96.5t26 -136.5q0 -79 -28.5 -143t-83 -98t-114.5 -34q-44 0 -79 18.5t-57 47.5v-253h-88zM145 256q0 -100 40.5 -147.5t97.5 -47.5q59 0 100.5 49.5t41.5 153.5q0 99 -40.5 148t-97.5 49
q-56 0 -99 -52.5t-43 -152.5z" />
    <glyph glyph-name="q" unicode="q" horiz-adv-x="556" 
d="M396 -199v254q-20 -29 -57 -48t-78 -19q-93 0 -159.5 74t-66.5 202q0 78 27 140t78.5 94t113.5 32q96 0 151 -81v70h79v-718h-88zM125 261q0 -100 42 -150t101 -50q56 0 96.5 47.5t40.5 144.5q0 103 -42.5 155.5t-100.5 52.5q-57 0 -97 -48.5t-40 -151.5z" />
    <glyph glyph-name="r" unicode="r" horiz-adv-x="333" 
d="M64 0v519h79v-79q30 55 56 72.5t56 17.5q45 0 91 -28l-31 -82q-32 19 -64 19q-29 0 -52 -17t-32 -48q-15 -47 -15 -103v-271h-88z" />
    <glyph glyph-name="s" unicode="s" horiz-adv-x="500" 
d="M30 155l87 13q7 -52 40.5 -79.5t93.5 -27.5q61 0 90 24.5t29 57.5q0 30 -26 47q-18 12 -89 30q-97 24 -134.5 42t-56.5 49.5t-19 69.5q0 35 15.5 64.5t43.5 48.5q20 15 55.5 25.5t76.5 10.5q61 0 107 -17.5t68 -47.5t30 -80l-86 -12q-6 40 -34 62.5t-79 22.5
q-61 0 -86.5 -20t-25.5 -47q0 -17 10 -31q11 -14 34 -23q13 -5 78 -23q93 -24 130 -40t58 -46.5t21 -75.5q0 -44 -26 -82.5t-74 -60t-109 -21.5q-101 0 -154 42t-68 125z" />
    <glyph glyph-name="t" unicode="t" horiz-adv-x="277" 
d="M257 79l13 -78q-37 -8 -66 -8q-48 0 -74.5 15t-37.5 40t-11 104v298h-64v69h64v128l88 53v-181h88v-69h-88v-303q0 -38 4.5 -48.5t15 -17t30.5 -6.5q14 0 38 4z" />
    <glyph glyph-name="u" unicode="u" horiz-adv-x="556" 
d="M405 0v76q-61 -88 -165 -88q-46 0 -85.5 17.5t-59 44.5t-27.5 65q-5 26 -5 82v322h88v-288q0 -69 5 -93q9 -34 35.5 -54t66.5 -20q39 0 74 20t49.5 55t14.5 102v278h87v-519h-78z" />
    <glyph glyph-name="v" unicode="v" horiz-adv-x="500" 
d="M209 0l-197 519h93l111 -311q18 -50 33 -104q12 41 33 98l115 317h91l-197 -519h-82z" />
    <glyph glyph-name="w" unicode="w" horiz-adv-x="722" 
d="M161 0l-159 519h91l82 -300l31 -111q2 8 27 107l82 304h91l77 -301l26 -99l30 100l89 300h85l-162 -519h-91l-83 311l-20 88l-105 -399h-91z" />
    <glyph glyph-name="x" unicode="x" horiz-adv-x="500" 
d="M7 0l189 270l-175 249h110l80 -122q22 -35 36 -58q21 32 39 57l88 123h105l-180 -245l193 -274h-108l-106 161l-28 44l-137 -205h-106z" />
    <glyph glyph-name="y" unicode="y" horiz-adv-x="500" 
d="M62 -200l-10 83q29 -8 50 -8q30 0 47.5 10t28.5 27q8 13 27 66q2 7 8 21l-197 520h95l108 -301q21 -57 37 -120q15 61 36 118l111 303h88l-197 -528q-32 -85 -49 -117q-24 -44 -54 -64t-72 -20q-26 0 -57 10z" />
    <glyph glyph-name="z" unicode="z" horiz-adv-x="500" 
d="M19 0v71l330 379q-56 -3 -99 -3h-211v72h423v-59l-280 -329l-55 -60q59 5 111 5h240v-76h-459z" />
    <glyph glyph-name="braceleft" unicode="{" horiz-adv-x="333" 
d="M27 299q38 1 61.5 20t31.5 53t8.5 115.5t2.5 107.5q4 41 16 66t29.5 39.5t45.5 22.5q18 5 60 5h28v-77h-15q-51 0 -67.5 -18t-16.5 -82q0 -128 -6 -161q-9 -53 -30 -81t-66 -50q53 -23 77.5 -69t24.5 -151q0 -95 2 -113q3 -33 19 -46.5t63 -13.5h15v-76h-28q-47 0 -69 7
q-31 12 -51.5 37t-26.5 63.5t-6.5 126.5t-8.5 121.5t-31.5 53t-61.5 20.5v80z" />
    <glyph glyph-name="bar" unicode="|" horiz-adv-x="259" 
d="M91 -210v938h77v-938h-77z" />
    <glyph glyph-name="braceright" unicode="}" horiz-adv-x="333" 
d="M305 299v-80q-38 -1 -61.5 -20.5t-31.5 -53t-8.5 -115t-2.5 -107.5q-5 -41 -17 -65.5t-29.5 -39.5t-44.5 -23q-19 -5 -61 -5h-27v76h15q51 0 67.5 18.5t16.5 82.5q0 122 5 155q7 54 30.5 86.5t66.5 50.5q-56 27 -79 71t-23 149q0 95 -2 114q-4 32 -19.5 45t-62.5 13h-15
v77h27q48 0 70 -8q31 -11 51.5 -36t26.5 -63.5t6.5 -126.5t8.5 -121.5t31.5 -53t61.5 -20.5z" />
    <glyph glyph-name="asciitilde" unicode="~" horiz-adv-x="583" 
d="M42 272v100q52 59 136 59q29 0 61 -8.5t92 -34.5q34 -14 50.5 -18.5t34.5 -4.5q31 0 65 19t61 48v-103q-32 -30 -64 -43t-72 -13q-29 0 -55.5 7t-84.5 32.5t-97 25.5q-31 0 -58.5 -13t-68.5 -53z" />
    <glyph glyph-name="cent" unicode="&#xa2;" horiz-adv-x="556" 
d="M262 138v405q-81 -12 -99 -111q-6 -38 -6 -86.5t6 -86.5q19 -107 99 -121zM322 139q74 16 85 100l89 -6q-13 -103 -102 -147q-31 -15 -72 -19v-82h-60v82q-103 9 -153 86q-44 70 -44 187q0 136 59 206q50 58 138 66v76h60v-76q109 -11 152 -98q13 -27 19 -58l-90 -7
q-7 44 -30 65.5t-51 27.5v-403z" />
    <glyph glyph-name="cent" unicode="&#xc7;" horiz-adv-x="556" 
d="M262 138v405q-81 -12 -99 -111q-6 -38 -6 -86.5t6 -86.5q19 -107 99 -121zM322 139q74 16 85 100l89 -6q-13 -103 -102 -147q-31 -15 -72 -19v-82h-60v82q-103 9 -153 86q-44 70 -44 187q0 136 59 206q50 58 138 66v76h60v-76q109 -11 152 -98q13 -27 19 -58l-90 -7
q-7 44 -30 65.5t-51 27.5v-403z" />
    <glyph glyph-name="sterling" unicode="&#xa3;" horiz-adv-x="556" 
d="M193 395h154v-72h-139q10 -22 10 -43q0 -43 -20.5 -90t-66.5 -97q38 11 70 11q41 0 91 -12q84 -20 114 -20q36 0 94 27l28 -80q-45 -19 -69.5 -25t-49.5 -6q-20 0 -41 4q-13 2 -63 17.5t-65 18.5q-23 4 -46 4q-35 0 -75 -12.5t-72 -33.5l-34 85q47 26 79.5 74t32.5 117
q0 30 -8 61h-96v72h75q-16 55 -20 80t-4 49q0 101 75 159q60 45 146 45q89 0 146 -48.5t71 -136.5l-88 -13q-7 58 -43.5 92t-87.5 34q-54 0 -90 -35t-36 -84q0 -55 28 -142z" />
    <glyph glyph-name="sterling" unicode="&#xc9;" horiz-adv-x="556" 
d="M193 395h154v-72h-139q10 -22 10 -43q0 -43 -20.5 -90t-66.5 -97q38 11 70 11q41 0 91 -12q84 -20 114 -20q36 0 94 27l28 -80q-45 -19 -69.5 -25t-49.5 -6q-20 0 -41 4q-13 2 -63 17.5t-65 18.5q-23 4 -46 4q-35 0 -75 -12.5t-72 -33.5l-34 85q47 26 79.5 74t32.5 117
q0 30 -8 61h-96v72h75q-16 55 -20 80t-4 49q0 101 75 159q60 45 146 45q89 0 146 -48.5t71 -136.5l-88 -13q-7 58 -43.5 92t-87.5 34q-54 0 -90 -35t-36 -84q0 -55 28 -142z" />
    <glyph glyph-name="yen" unicode="&#xa5;" horiz-adv-x="556" 
d="M233 0v159h-202v68h202v69h-202v73h166l-198 347h98l141 -252q24 -43 37 -75q12 26 40 79l134 248h105l-198 -347h166v-73h-201v-69h201v-68h-201v-159h-88z" />
    <glyph glyph-name="brokenbar" unicode="&#xa6;" horiz-adv-x="259" 
d="M89 345v380h81v-380h-81zM89 -212v380h81v-380h-81z" />
    <glyph glyph-name="copyright" unicode="&#xa9;" horiz-adv-x="736" 
d="M370 728q92 0 180.5 -47.5t138 -136t49.5 -185.5q0 -95 -48.5 -183t-136.5 -136.5t-183 -48.5q-96 0 -183.5 48.5t-136.5 136.5t-49 183q0 97 49.5 185.5t138 136t181.5 47.5zM370 667q-78 0 -151.5 -40t-115 -114t-41.5 -154q0 -79 41 -152t114 -114t153 -41
q79 0 152.5 41t114 114t40.5 152q0 80 -41.5 154t-115 114t-150.5 40zM488 300l60 -18q-15 -61 -62.5 -97.5t-115.5 -36.5q-86 0 -139.5 56t-53.5 154q0 65 24.5 112.5t69.5 71.5t103 24q65 0 108 -31t59 -84l-59 -14q-14 36 -42.5 55.5t-67.5 19.5q-56 0 -92.5 -40
t-36.5 -115t34.5 -113t89.5 -38q44 0 77 25t44 69z" />
    <glyph glyph-name="copyright" unicode="&#xe2;" horiz-adv-x="736" 
d="M370 728q92 0 180.5 -47.5t138 -136t49.5 -185.5q0 -95 -48.5 -183t-136.5 -136.5t-183 -48.5q-96 0 -183.5 48.5t-136.5 136.5t-49 183q0 97 49.5 185.5t138 136t181.5 47.5zM370 667q-78 0 -151.5 -40t-115 -114t-41.5 -154q0 -79 41 -152t114 -114t153 -41
q79 0 152.5 41t114 114t40.5 152q0 80 -41.5 154t-115 114t-150.5 40zM488 300l60 -18q-15 -61 -62.5 -97.5t-115.5 -36.5q-86 0 -139.5 56t-53.5 154q0 65 24.5 112.5t69.5 71.5t103 24q65 0 108 -31t59 -84l-59 -14q-14 36 -42.5 55.5t-67.5 19.5q-56 0 -92.5 -40
t-36.5 -115t34.5 -113t89.5 -38q44 0 77 25t44 69z" />
    <glyph glyph-name="guillemotleft" unicode="&#xab;" horiz-adv-x="556" 
d="M432 69l-165 178v31l165 181h82v-15l-165 -182l166 -179v-14h-83zM204 69l-164 178v31l164 181h82v-15l-164 -182l165 -179v-14h-83z" />
    <glyph glyph-name="guillemotleft" unicode="&#xe3;" horiz-adv-x="556" 
d="M432 69l-165 178v31l165 181h82v-15l-165 -182l166 -179v-14h-83zM204 69l-164 178v31l164 181h82v-15l-164 -182l165 -179v-14h-83z" />
    <glyph glyph-name="registered" unicode="&#xae;" horiz-adv-x="736" 
d="M370 728q92 0 180.5 -47.5t138 -136t49.5 -185.5q0 -95 -48.5 -183t-136.5 -136.5t-183 -48.5q-96 0 -183.5 48.5t-136.5 136.5t-49 183q0 97 49.5 185.5t138 136t181.5 47.5zM370 667q-78 0 -151.5 -40t-115 -114t-41.5 -154q0 -79 41 -152t114 -114t153 -41
q79 0 152.5 41t114 114t40.5 152q0 80 -41.5 154t-115 114t-150.5 40zM208 156v396h136q70 0 101.5 -11t50 -38t18.5 -58q0 -44 -31 -76t-83 -36q21 -9 34 -21q24 -23 59 -79l48 -77h-78l-35 62q-42 74 -67 93q-18 13 -51 13h-38v-168h-64zM272 379h78q55 0 75.5 16.5
t20.5 43.5q0 18 -10 32t-27 21t-64 7h-73v-120z" />
    <glyph glyph-name="registered" unicode="&#xe9;" horiz-adv-x="736" 
d="M370 728q92 0 180.5 -47.5t138 -136t49.5 -185.5q0 -95 -48.5 -183t-136.5 -136.5t-183 -48.5q-96 0 -183.5 48.5t-136.5 136.5t-49 183q0 97 49.5 185.5t138 136t181.5 47.5zM370 667q-78 0 -151.5 -40t-115 -114t-41.5 -154q0 -79 41 -152t114 -114t153 -41
q79 0 152.5 41t114 114t40.5 152q0 80 -41.5 154t-115 114t-150.5 40zM208 156v396h136q70 0 101.5 -11t50 -38t18.5 -58q0 -44 -31 -76t-83 -36q21 -9 34 -21q24 -23 59 -79l48 -77h-78l-35 62q-42 74 -67 93q-18 13 -51 13h-38v-168h-64zM272 379h78q55 0 75.5 16.5
t20.5 43.5q0 18 -10 32t-27 21t-64 7h-73v-120z" />
    <glyph glyph-name="degree" unicode="&#xb0;" horiz-adv-x="399" 
d="M339 559q0 -29 -11 -54.5t-30 -44t-44.5 -29.5t-54.5 -11t-54 11t-44.5 29.5t-30.5 44t-11 54.5t11 54.5t30.5 44.5t44.5 29.5t54 10.5t54.5 -10.5t44.5 -29.5t30 -44.5t11 -54.5zM286 559q0 18 -6.5 34t-18.5 28t-27.5 19t-34.5 7q-18 0 -34 -7t-27.5 -19t-18.5 -28
t-7 -34t7 -34t18.5 -28t27.5 -19t34 -7q19 0 34.5 7t27.5 19t18.5 28t6.5 34z" />
    <glyph glyph-name="degree" unicode="&#xea;" horiz-adv-x="399" 
d="M339 559q0 -29 -11 -54.5t-30 -44t-44.5 -29.5t-54.5 -11t-54 11t-44.5 29.5t-30.5 44t-11 54.5t11 54.5t30.5 44.5t44.5 29.5t54 10.5t54.5 -10.5t44.5 -29.5t30 -44.5t11 -54.5zM286 559q0 18 -6.5 34t-18.5 28t-27.5 19t-34.5 7q-18 0 -34 -7t-27.5 -19t-18.5 -28
t-7 -34t7 -34t18.5 -28t27.5 -19t34 -7q19 0 34.5 7t27.5 19t18.5 28t6.5 34z" />
    <glyph glyph-name="paragraph" unicode="&#xb6;" horiz-adv-x="537" 
d="M197 -199v511q-91 4 -144 58.5t-53 139.5q0 94 59 150t172 56h309v-85h-70v-830h-83v830h-109v-830h-81z" />
    <glyph glyph-name="paragraph" unicode="&#xf1;" horiz-adv-x="537" 
d="M197 -199v511q-91 4 -144 58.5t-53 139.5q0 94 59 150t172 56h309v-85h-70v-830h-83v830h-109v-830h-81z" />
    <glyph glyph-name="guillemotright" unicode="&#xbb;" horiz-adv-x="556" 
d="M350 69h-82v14l165 179l-164 182v15h81l165 -181v-31zM123 69h-83v14l165 179l-164 182v15h82l164 -181v-31z" />
    <glyph glyph-name="guillemotright" unicode="&#xf5;" horiz-adv-x="556" 
d="M350 69h-82v14l165 179l-164 182v15h81l165 -181v-31zM123 69h-83v14l165 179l-164 182v15h82l164 -181v-31z" />
    <glyph glyph-name="Odieresis" unicode="&#xd6;" horiz-adv-x="777" 
d="M48 349q0 178 95.5 279t247.5 101q99 0 178.5 -47.5t121.5 -132.5t42 -192q0 -109 -44 -195t-124.5 -130t-174.5 -44q-101 0 -180.5 48.5t-120.5 133t-41 179.5zM146 347q0 -129 69.5 -203.5t174.5 -74.5q107 0 176 75t69 213q0 88 -29.5 153t-86.5 101t-128 36
q-100 0 -172.5 -69t-72.5 -231zM252 760v100h91v-100h-91zM434 760v100h92v-100h-92z" />
    <glyph glyph-name="Odieresis" unicode="&#x2202;" horiz-adv-x="777" 
d="M48 349q0 178 95.5 279t247.5 101q99 0 178.5 -47.5t121.5 -132.5t42 -192q0 -109 -44 -195t-124.5 -130t-174.5 -44q-101 0 -180.5 48.5t-120.5 133t-41 179.5zM146 347q0 -129 69.5 -203.5t174.5 -74.5q107 0 176 75t69 213q0 88 -29.5 153t-86.5 101t-128 36
q-100 0 -172.5 -69t-72.5 -231zM252 760v100h91v-100h-91zM434 760v100h92v-100h-92z" />
    <glyph glyph-name="multiply" unicode="&#xd7;" horiz-adv-x="583" 
d="M69 161l173 173l-172 172l51 50l171 -172l171 171l51 -51l-171 -170l172 -172l-50 -51l-172 172l-174 -173z" />
    <glyph glyph-name="multiply" unicode="&#x2211;" horiz-adv-x="583" 
d="M69 161l173 173l-172 172l51 50l171 -172l171 171l51 -51l-171 -170l172 -172l-50 -51l-172 172l-174 -173z" />
    <glyph glyph-name="Udieresis" unicode="&#xba;" horiz-adv-x="722" 
d="M546 716h95v-414q0 -108 -24.5 -171.5t-88 -103t-167.5 -39.5q-100 0 -164 34.5t-91.5 100t-27.5 179.5v414h95v-413q0 -94 17 -138t59.5 -68t103.5 -24q104 0 148.5 47.5t44.5 182.5v413zM221 760v100h92v-100h-92zM403 760v100h92v-100h-92z" />
    <glyph glyph-name="Udieresis" unicode="&#xdc;" horiz-adv-x="722" 
d="M546 716h95v-414q0 -108 -24.5 -171.5t-88 -103t-167.5 -39.5q-100 0 -164 34.5t-91.5 100t-27.5 179.5v414h95v-413q0 -94 17 -138t59.5 -68t103.5 -24q104 0 148.5 47.5t44.5 182.5v413zM221 760v100h92v-100h-92zM403 760v100h92v-100h-92z" />
    <glyph glyph-name="odieresis" unicode="&#xf6;" horiz-adv-x="556" 
d="M33 259q0 144 80 214q67 57 163 57q107 0 175 -70t68 -193q0 -100 -30 -157.5t-87.5 -89.5t-125.5 -32q-109 0 -176 70t-67 201zM123 259q0 -99 43.5 -148.5t109.5 -49.5t109.5 49.5t43.5 151.5q0 96 -44 146t-109 50q-66 0 -109.5 -49.5t-43.5 -149.5zM139 620v100h92
v-100h-92zM321 620v100h92v-100h-92z" />
    <glyph glyph-name="divide" unicode="&#xf7;" horiz-adv-x="548" 
d="M233 468v89h82v-89h-82zM31 297v71h486v-71h-486zM233 109v89h82v-89h-82z" />
    <glyph glyph-name="divide" unicode="&#x25ca;" horiz-adv-x="548" 
d="M233 468v89h82v-89h-82zM31 297v71h486v-71h-486zM233 109v89h82v-89h-82z" />
    <glyph glyph-name="udieresis" unicode="&#xfc;" horiz-adv-x="556" 
d="M405 0v76q-61 -88 -165 -88q-46 0 -85.5 17.5t-59 44.5t-27.5 65q-5 26 -5 82v322h88v-288q0 -69 5 -93q9 -34 35.5 -54t66.5 -20q39 0 74 20t49.5 55t14.5 102v278h87v-519h-78zM136 620v100h92v-100h-92zM318 620v100h92v-100h-92z" />
    <glyph glyph-name="Amacron" unicode="&#xb7;" horiz-adv-x="666" 
d="M569 0l-79 201h-313l-79 -201h-97l281 688h106l276 -688h-95zM374 501q-8 20 -15 40t-12.5 36t-9 27t-3.5 14q-1 -3 -4.5 -14t-9.5 -27.5t-13 -36.5l-14 -40l-88 -226h257zM468 767h-268v62h268v-62z" />
    <glyph glyph-name="Amacron" unicode="&#x100;" horiz-adv-x="666" 
d="M569 0l-79 201h-313l-79 -201h-97l281 688h106l276 -688h-95zM374 501q-8 20 -15 40t-12.5 36t-9 27t-3.5 14q-1 -3 -4.5 -14t-9.5 -27.5t-13 -36.5l-14 -40l-88 -226h257zM468 767h-268v62h268v-62z" />
    <glyph glyph-name="amacron" unicode="&#x101;" horiz-adv-x="556" 
d="M202 -10q-80 0 -120 42t-40 115q0 53 20 86.5t52 52.5t73 26t83 8l119 2v29q0 33 -7 56t-21 37t-35.5 20.5t-50.5 6.5q-25 0 -45.5 -3.5t-35.5 -13t-24.5 -26t-12.5 -41.5l-92 9q5 31 19 57t39 45t63 29.5t91 10.5q100 0 150.5 -45.5t50.5 -132.5v-227q0 -39 10 -59
t39 -20q7 0 14.5 1t14.5 3v-55q-17 -4 -33.5 -6t-34.5 -2q-25 0 -43 6.5t-29 20t-17 33.5t-7 46h-3q-14 -25 -31 -45.5t-39.5 -35t-51 -22.5t-65.5 -8zM222 56q42 0 73.5 15.5t52 39.5t31 52t10.5 54v44l-97 -2q-32 -1 -61 -5t-51 -16t-35 -34t-13 -58q0 -43 23.5 -66.5
t66.5 -23.5zM406 604h-268v62h268v-62z" />
    <glyph glyph-name="Emacron" unicode="&#x112;" horiz-adv-x="666" 
d="M82 0v688h522v-76h-429v-221h400v-75h-400v-240h449v-76h-542zM478 767h-269v62h269v-62z" />
    <glyph glyph-name="Emacron" unicode="&#x201e;" horiz-adv-x="666" 
d="M82 0v688h522v-76h-429v-221h400v-75h-400v-240h449v-76h-542zM478 767h-269v62h269v-62z" />
    <glyph glyph-name="emacron" unicode="&#x113;" horiz-adv-x="556" 
d="M134 246q0 -42 8.5 -77t26.5 -60t46 -39t67 -14q57 0 91.5 23t46.5 58l77 -22q-8 -22 -23 -44t-40 -40t-62.5 -29.5t-89.5 -11.5q-117 0 -178.5 70t-61.5 208q0 74 18.5 125.5t51 83.5t75.5 46.5t91 14.5q67 0 111.5 -21.5t71.5 -59.5t38.5 -89t11.5 -111v-11h-377z
M420 313q-7 83 -42 121.5t-101 38.5q-22 0 -46 -7t-44.5 -25t-35 -49t-16.5 -79h285zM412 604h-268v62h268v-62z" />
    <glyph glyph-name="emacron" unicode="&#x2030;" horiz-adv-x="556" 
d="M134 246q0 -42 8.5 -77t26.5 -60t46 -39t67 -14q57 0 91.5 23t46.5 58l77 -22q-8 -22 -23 -44t-40 -40t-62.5 -29.5t-89.5 -11.5q-117 0 -178.5 70t-61.5 208q0 74 18.5 125.5t51 83.5t75.5 46.5t91 14.5q67 0 111.5 -21.5t71.5 -59.5t38.5 -89t11.5 -111v-11h-377z
M420 313q-7 83 -42 121.5t-101 38.5q-22 0 -46 -7t-44.5 -25t-35 -49t-16.5 -79h285zM412 604h-268v62h268v-62z" />
    <glyph glyph-name="florin" unicode="&#x192;" horiz-adv-x="556" 
d="M454 641q-8 2 -23 4.5t-30 2.5q-16 0 -27 -4.5t-19 -14.5t-14 -25.5t-10 -37.5l-13 -67h103l-12 -64h-104l-124 -647h-88l124 647h-74l13 64h74l14 74q6 29 15.5 54t27 43.5t44 29t66.5 10.5q15 0 35 -2.5t37 -7.5z" />
    <glyph glyph-name="tilde" unicode="&#x2dc;" horiz-adv-x="333" 
d="M240 586q-20 0 -40.5 9t-39.5 20t-36.5 20.5t-32.5 9.5q-27 0 -40 -15.5t-18 -43.5h-44q2 22 7 45.5t16 42.5t29 31t47 12q22 0 42.5 -9t39.5 -20t35.5 -20t31.5 -9q26 0 39.5 15.5t17.5 42.5h45q-2 -21 -7 -44.5t-15.5 -42.5t-28.5 -31.5t-48 -12.5z" />
    <glyph glyph-name="ka" unicode="&#x1000;" horiz-adv-x="1150" 
d="M560 250h-4q-8 -150 -180 -246l-38 71q133 76 133 189q0 83 -54.5 136.5t-137.5 53.5q-84 0 -139.5 -53.5t-55.5 -136.5q0 -114 140 -189l-40 -72l-37 19q-146 79 -146 242q0 124 77 198.5t201 74.5q151 0 237 -128q85 128 236 128q123 0 200.5 -75.5t77.5 -197.5
q0 -121 -78.5 -198t-199.5 -77q-36 0 -72 9q3 27 15 83q42 -8 57 -8q85 0 140 53t55 138q0 81 -56.5 135.5t-138.5 54.5q-85 0 -138.5 -52.5t-53.5 -137.5v-14z" />
    <glyph glyph-name="kha" unicode="&#x1001;" horiz-adv-x="661" 
d="M266 10q-142 0 -216 103q-38 52 -38 86q0 48 39 76q34 26 84 26q111 0 170 -96q28 -47 34 -99q119 55 119 178q0 83 -54.5 137t-137.5 54q-110 0 -186 -134l-74 39q101 177 260 177q120 0 198 -76.5t78 -196.5q0 -121 -78 -197.5t-198 -76.5zM143 221q-47 0 -47 -21
q0 -4 3 -12q14 -18 23 -33q55 -61 144 -61h10q-1 57 -38.5 92t-94.5 35z" />
    <glyph glyph-name="ga" unicode="&#x1002;" horiz-adv-x="670" 
d="M392 3l-53 63q129 78 129 185q0 80 -55 135t-135 55q-83 0 -138.5 -53.5t-55.5 -136.5q0 -107 129 -183l-57 -63l-24 12q-130 65 -130 234q0 120 77.5 197t198.5 77q119 0 195 -77.5t76 -196.5q0 -176 -157 -248z" />
    <glyph glyph-name="gha" unicode="&#x1003;" horiz-adv-x="1144" 
d="M748 -2q-148 0 -232 125q-86 -126 -234 -126q-121 0 -199.5 77t-78.5 197q0 63 41 114q18 14 105 84l-12 6q-15 0 -47 -25l-40 79q36 27 103 27q37 0 65 -25.5t28 -61.5t-49 -75q-9 -9 -74 -54q-30 -33 -30 -69q0 -81 53 -133.5t135 -52.5q81 0 134 52.5t53 133.5
q0 110 -136 185l42 78l39 -21q136 -74 145 -224h2v-16q0 -82 53 -134t134 -52q82 0 135 52t53 134q0 79 -54 131.5t-134 52.5q-27 0 -73 -15l6 96q48 8 67 8q122 0 200 -75.5t78 -197.5t-78 -198.5t-200 -76.5z" />
    <glyph glyph-name="nga" unicode="&#x1004;" horiz-adv-x="655" 
d="M517 139q-30 -63 -98.5 -101t-141.5 -38q-121 0 -198 77t-77 197q0 121 77 197t198 76q160 0 258 -177l-71 -39q-76 134 -187 134q-83 0 -137 -54t-54 -137t54 -136.5t137 -53.5q111 0 187 133l71 -39z" />
    <glyph glyph-name="ca" unicode="&#x1005;" horiz-adv-x="679" 
d="M281 -1q-119 0 -196 77.5t-77 196.5t77 196t196 77q120 0 197 -76t77 -197q0 -119 -77.5 -196.5t-196.5 -77.5zM281 464q-51 0 -98 -27q62 -68 62 -164q-9 -94 -77 -156q51 -36 113 -36q83 0 138 54.5t55 137.5t-55 137t-138 54zM132 390q-42 -54 -42 -117q0 -54 30 -102
q45 45 54 105q-6 66 -42 114z" />
    <glyph glyph-name="cha" unicode="&#x1006;" horiz-adv-x="1107" 
d="M720 0q-135 0 -222 111l-10 13q-83 -124 -233 -124q-141 0 -214 103q-38 53 -38 86q0 48 38 76q34 26 84 26q112 0 171 -95q28 -46 31 -100q120 55 120 178q0 83 -54.5 137t-137.5 54q-109 0 -184 -134l-72 39q96 177 256 177q152 0 234 -124q83 124 231 124
q122 0 199 -75.5t77 -197.5q0 -120 -77.5 -197t-198.5 -77zM720 465q-84 0 -137 -53t-53 -138q0 -83 53.5 -136.5t136.5 -53.5q85 0 139.5 53t54.5 137q0 82 -56 136.5t-138 54.5zM134 211q-48 0 -48 -21q3 -4 24 -45q57 -61 145 -61h9q-1 56 -37.5 91.5t-92.5 35.5z" />
    <glyph glyph-name="ja" unicode="&#x1007;" horiz-adv-x="667" 
d="M528 28q-24 4 -63 24q-21 10 -37.5 38t-16.5 52v13l-33 11q-41 7 -70 49q-28 39 -30 83q-5 85 66 142q-45 14 -75 14q-82 0 -135.5 -54.5t-53.5 -136.5q0 -81 50.5 -135t132.5 -54q36 0 90 11l12 -81q-48 -15 -96 -15q-120 0 -197 77.5t-77 196.5t77 196t197 77
q128 0 203.5 -71t75.5 -199q0 -30 -20 -93q-12 -12 -37 -19q0 -21 4 -29q6 -14 26 -19l48 -12zM399 409q-47 -43 -48 -102q-1 -41 35 -65q31 -21 73 -19q6 33 6 55q0 81 -66 131z" />
    <glyph glyph-name="jha" unicode="&#x1008;" horiz-adv-x="824" 
d="M281 -1q-119 0 -196 77.5t-77 196.5t77 196t196 77q120 0 197 -76t77 -197q0 -119 -77.5 -196.5t-196.5 -77.5zM281 464q-51 0 -98 -27q62 -68 62 -164q-9 -94 -77 -156q51 -36 113 -36q83 0 138 54.5t55 137.5t-55 137t-138 54zM132 390q-42 -54 -42 -117q0 -54 30 -102
q45 45 54 105q-6 66 -42 114zM651 -426q-9 0 -23 3l-141 30q-64 13 -66 61l-1 44v305h82v-325l114 -27v858h83v-904q0 -45 -48 -45z" />
    <glyph glyph-name="nya" unicode="&#x1009;" horiz-adv-x="661" 
d="M526 192q-7 -24 -17.5 -44t-12.5 -17q-82 -128 -232 -128q-95 0 -174 60v-321q0 -57 52 -57h728q51 0 51 38v73h87v-72q0 -123 -140 -123h-726q-139 0 -139 138v393l58 42l23 20l1 -2q1 -2 5 -6q79 -99 174 -99q82 0 136 48.5t54 130.5v30q0 80 -56 129q-53 46 -134 46
q-109 0 -188 -130l-72 42l21 37q75 134 239 134q122 0 199 -77t77 -199v-15q-3 -21 -14 -71z" />
    <glyph glyph-name="nnya" unicode="&#x100a;" horiz-adv-x="1117" 
d="M74 184l1 -2l5 6v-12q79 -99 174 -99q82 0 136 48.5t54 130.5v30q0 80 -56 129q-53 46 -134 46q-109 0 -188 -130l-72 42l21 37q75 134 239 134q122 0 199 -77t77 -199v-15q0 -81 56 -130q53 -47 136 -47q84 0 138.5 53.5t54.5 138.5q0 83 -55.5 138t-137.5 55
q-35 0 -108 -27l-27 78l39 15q39 15 96 15q120 0 198 -77t78 -197q0 -119 -78.5 -197.5t-197.5 -78.5q-152 0 -236 129q-82 -128 -232 -128q-95 0 -174 60v-321q0 -57 52 -57h728q51 0 51 38v73h87v-72q0 -123 -140 -123h-726q-140 0 -140 138v393l59 42z" />
    <glyph glyph-name="tta" unicode="&#x100b;" horiz-adv-x="657" 
d="M601 -437h-88q-60 0 -60 71v139q-53 -30 -144 -30q-26 0 -57 6q-97 19 -122 35q-78 27 -78 94q0 37 24 61.5t60 24.5q21 0 47 -11q16 0 84 -13q135 0 165 57q4 4 6 8q0 7 -14 7q-13 0 -66 -26q-97 -12 -112 -12q-114 0 -182 84q-65 79 -65 194q0 122 76.5 198.5
t198.5 76.5q160 0 260 -177l-74 -42q-75 136 -186 136q-81 0 -135 -55t-54 -137q0 -83 53 -137.5t136 -54.5h15q4 -1 11 -1q38 17 114 37q108 6 108 -90q0 -41 -20 -66l-60 -51q-52 -33 -175 -33h-3q-62 0 -105 24q-6 -3 -6 -8q0 -21 115 -43q102 -5 222 58q8 3 15 3
q27 0 29 -42q-2 -11 -2 -66v-115q0 -27 23 -24h48z" />
    <glyph glyph-name="ttha" unicode="&#x100c;" horiz-adv-x="659" 
d="M464 309q-76 134 -187 134q-83 0 -137 -55t-54 -137q0 -83 54 -137.5t137 -54.5q111 0 187 133l69 -39v-471q1 -7 1 -14q0 -38 -28.5 -67.5t-66.5 -29.5h-324q-111 0 -111 97v2q0 102 115 102h29l12 -81q-59 0 -72 -20q1 -7 10 -13q21 -5 42 -5h257q55 0 55 56v327
q-81 -62 -175 -62q-121 0 -198 78t-77 199q0 120 77 197t198 77q160 0 258 -177z" />
    <glyph glyph-name="dda" unicode="&#x100d;" horiz-adv-x="649" 
d="M513 -409q-62 0 -62 69v247q-96 -36 -181 -34q-153 3 -239 85q-19 26 -19 67q0 94 106 90q22 -2 63 -23q21 -11 62 -13h18q83 0 136.5 54.5t53.5 137.5q0 81 -54.5 136.5t-135.5 55.5q-114 0 -189 -134l-72 39q100 177 261 177q121 0 196 -76.5t75 -197.5
q0 -128 -70 -204q-75 -82 -201 -73q-22 0 -86 11q-52 26 -67 26q-16 0 -8 -15q31 -58 168 -58h2q40 0 84 8q53 9 74 20q48 19 55 19q48 0 49 -75v0v-246q0 -17 21 -14h48v-79h-88z" />
    <glyph glyph-name="ddha" unicode="&#x100e;" horiz-adv-x="666" 
d="M274 -3q-121 0 -198.5 77t-77.5 197q0 65 40 113q18 20 93 78q6 4 9 7h-4l1 -1l3 7l-15 8q-19 0 -48 -23l-25 68q37 28 93 28q32 0 60 -26t28 -58q0 -36 -48 -73q-6 -8 -72 -57q-33 -33 -33 -71q0 -84 54.5 -138t139.5 -54q81 0 135.5 55.5t54.5 136.5q0 113 -136 191
l37 69l38 -18q142 -69 142 -242q0 -120 -75.5 -197t-195.5 -77z" />
    <glyph glyph-name="nna" unicode="&#x100f;" horiz-adv-x="1257" 
d="M670 210h-2v-96q0 -45 -28 -77t-72 -32q-46 0 -73.5 31.5t-27.5 77.5v161q-9 75 -62 121.5t-128 46.5q-85 0 -140 -53.5t-55 -137.5q0 -114 139 -187l-40 -74l-36 20q-146 78 -146 241q0 123 77 198t201 75q120 0 205 -91q30 54 86 54q54 0 87 -54q82 91 204 91
q125 0 202 -74t77 -199q0 -160 -177 -260l-42 73q136 76 136 187q0 86 -55 138.5t-141 52.5q-82 0 -135.5 -54.5t-53.5 -136.5v-42zM584 378q0 26 -16 26q-18 0 -18 -26v-264q0 -27 18 -27q16 0 16 27v264z" />
    <glyph glyph-name="ta" unicode="&#x1010;" horiz-adv-x="1141" 
d="M744 0q-55 0 -118 27l31 75q57 -18 87 -18q85 0 139.5 53t54.5 137q0 82 -56 136.5t-138 54.5q-84 0 -137 -53t-53 -138v-9l-2 -3q-6 -120 -81.5 -191t-195.5 -71q-121 0 -198.5 77t-77.5 197q0 124 76 198.5t200 74.5q150 0 235 -127q84 127 234 127q122 0 199 -75.5
t77 -197.5q0 -120 -77.5 -197t-198.5 -77zM275 465q-83 0 -138.5 -54t-55.5 -137t55.5 -136.5t138.5 -53.5t136.5 53.5t53.5 136.5t-53.5 137t-136.5 54z" />
    <glyph glyph-name="tha" unicode="&#x1011;" horiz-adv-x="1143" 
d="M744 0q-150 0 -234 129q-85 -129 -235 -129q-121 0 -198.5 77t-77.5 197q0 124 76 198.5t200 74.5q150 0 235 -127q84 127 234 127q122 0 199 -75.5t77 -197.5q0 -120 -77.5 -197t-198.5 -77zM744 465q-84 0 -137 -53t-53 -138q0 -83 53.5 -136.5t136.5 -53.5
q85 0 139.5 53t54.5 137q0 82 -56 136.5t-138 54.5zM275 465q-83 0 -138.5 -54t-55.5 -137t55.5 -136.5t138.5 -53.5t136.5 53.5t53.5 136.5t-53.5 137t-136.5 54z" />
    <glyph glyph-name="da" unicode="&#x1012;" horiz-adv-x="643" 
d="M280 222v2h-8l2 81h48q105 0 118 78q-13 81 -195 81q-118 0 -151 -69q-4 -8 -4 -13q0 -11 19 -11h18l-8 -77h-10q-102 0 -102 96q0 81 84 123q65 33 154 33q258 0 279 -157v-3q0 -72 -58 -119q66 -43 58 -120q-15 -148 -279 -148q-78 0 -145 27q-88 35 -92 102l-1 25
l82 20q2 -38 27 -57q46 -35 129 -35q189 0 195 75q6 66 -129 66q-10 2 -31 0z" />
    <glyph glyph-name="dha" unicode="&#x1013;" horiz-adv-x="667" 
d="M274 -1q-122 0 -199 76t-77 198q0 119 78.5 196t197.5 77t195 -77t76 -196t-76 -196.5t-195 -77.5zM274 464q-83 0 -138.5 -54t-55.5 -137q0 -63 36 -114q63 68 158 78q94 0 163 -63q27 45 27 99q0 82 -54.5 136.5t-135.5 54.5zM275 165q-66 -9 -106 -54q49 -30 105 -30
q61 0 115 42q-46 36 -114 42z" />
    <glyph glyph-name="na" unicode="&#x1014;" horiz-adv-x="669" 
d="M314 3l3 -400l-84 -2v402q-110 -1 -149 11q-77 24 -84 97q-13 156 161 156q60 0 102.5 -31t50.5 -89v-61q144 0 143 57q0 48 -103 96q-49 23 -159 75q-91 43 -91 124q0 116 163 116q47 0 89 -15q73 -27 73 -86q0 -10 -13 -22h-83q9 12 9 18q0 4 -3 10q-10 6 -72 12
q-12 1 -22 1q-57 0 -57 -37q0 -33 72 -63q59 -24 102 -43q183 -81 183 -191q0 -132 -231 -135zM218 165q-19 18 -59 18q-30 0 -52 -16q-25 -19 -23 -48q4 -38 149 -33q0 65 -15 79z" />
    <glyph glyph-name="pa" unicode="&#x1015;" horiz-adv-x="667" 
d="M274 3q-122 0 -199 76t-77 199q0 169 159 247l52 -63q-63 -24 -98 -79q-31 -48 -31 -105q0 -85 54.5 -138.5t139.5 -53.5q81 0 135.5 55t54.5 137q0 52 -37.5 106t-91.5 77l57 61l24 -12q130 -65 129 -232q0 -122 -75.5 -198.5t-195.5 -76.5z" />
    <glyph glyph-name="pha" unicode="&#x1016;" horiz-adv-x="665" 
d="M274 2q-121 0 -198.5 77t-77.5 197q0 170 159 248l52 -65q-48 -16 -88.5 -73.5t-40.5 -109.5q0 -84 54.5 -138t139.5 -54q127 0 175 120q-123 8 -172 104q-26 49 -26 99q0 51 27 87.5t77 36.5q27 0 61 -22q129 -85 129 -233q0 -120 -75.5 -197t-195.5 -77zM464 276
q0 96 -100 165q-7 5 -11 5q-24 0 -24 -48q0 -17 8 -42q8 -28 19 -40q47 -47 108 -47v7z" />
    <glyph glyph-name="ba" unicode="&#x1017;" horiz-adv-x="669" 
d="M274 3q-121 0 -197 77t-76 197q0 156 156 245l13 -6l14 -27v-5l1 -3q37 -46 89 -46q63 0 93 67l10 24h14l24 -13q135 -76 135 -236q0 -122 -77 -198t-199 -76zM395 426q-36 -60 -111 -60q-96 0 -133 54q-68 -56 -68 -143q0 -81 54.5 -136.5t136.5 -55.5q84 0 138 54
t54 138q0 90 -71 149z" />
    <glyph glyph-name="bha" unicode="&#x1018;" horiz-adv-x="1119" 
d="M720 -1q-50 0 -96 17l-38 13l27 78q74 -25 107 -25q84 0 139.5 53.5t55.5 138.5q0 82 -56 136t-139 54t-136 -47q-55 -50 -55 -131v-12q0 -123 -77.5 -200t-199.5 -77q-159 0 -237 134l-21 36l72 44q78 -131 186 -131q80 0 134 46q58 49 58 128v32q0 80 -55.5 129
t-136.5 49q-92 0 -177 -108l-68 53q110 136 245 136q150 0 234 -126q84 128 234 128q122 0 199.5 -76t77.5 -197q0 -124 -77 -199.5t-200 -75.5z" />
    <glyph glyph-name="ma" unicode="&#x1019;" horiz-adv-x="665" 
d="M274 3q-122 0 -199 76t-77 199q0 85 41.5 153.5t111.5 95.5l58 -65q-129 -53 -129 -184q0 -64 36 -114q66 71 158 75q90 2 163 -62q27 46 27 101t-36 111q-40 61 -93 72l55 70l24 -12q131 -66 131 -241q0 -121 -75.5 -198t-195.5 -77zM275 170q-66 -9 -106 -54
q49 -30 105 -30q61 0 115 42q-52 42 -114 42z" />
    <glyph glyph-name="ya" unicode="&#x101a;" horiz-adv-x="1141" 
d="M744 0q-150 0 -234 129q-85 -129 -235 -129q-121 0 -198.5 77t-77.5 197q0 163 145 242l36 19l41 -72q-140 -56 -140 -189q0 -83 55.5 -136.5t138.5 -53.5t136.5 53.5t53.5 136.5q0 126 -128 182l34 76q170 -75 178 -244v0l5 -14q-5 -78 54 -136q54 -54 136 -54
q85 0 139.5 53t54.5 137q0 82 -56 136.5t-138 54.5q-15 0 -57 -9q-12 57 -15 82q36 9 72 9q122 0 199 -75.5t77 -197.5q0 -120 -77.5 -197t-198.5 -77z" />
    <glyph glyph-name="ra" unicode="&#x101b;" horiz-adv-x="675" 
d="M507 -409q-41 0 -41 48v632q0 82 -53.5 137t-136.5 55t-137 -55t-54 -137v-6q30 9 66 9q89 0 155 -51q72 -55 72 -141q0 -91 -89 -91q-16 0 -31 3q-120 8 -188.5 82t-68.5 195q0 120 77 197t198 77q120 0 198 -77t78 -197v-598h54v-82h-99zM294 94q0 57 -61 90
q-52 29 -112 25l-21 -7q5 -17 17 -33q67 -95 142 -95q18 0 27 8l8 6v6z" />
    <glyph glyph-name="la" unicode="&#x101c;" horiz-adv-x="1142" 
d="M744 -1q-128 0 -203.5 73.5t-75.5 201.5q0 83 -53.5 137t-136.5 54q-82 0 -138 -55t-56 -136q0 -89 56.5 -145t144.5 -51l-13 -83l-41 8q-104 19 -166.5 92.5t-62.5 178.5q0 120 77.5 196.5t198.5 76.5q122 0 199.5 -75.5t77.5 -197.5q0 -84 54 -138t138 -54
q83 0 138.5 54.5t55.5 137.5t-55.5 137t-138.5 54q-28 0 -88 -21l6 93q42 10 82 10q121 0 198.5 -76.5t77.5 -196.5q0 -122 -77 -198.5t-199 -76.5z" />
    <glyph glyph-name="wa" unicode="&#x101d;" horiz-adv-x="667" 
d="M274 -1q-122 0 -199 76t-77 198q0 119 78.5 196t197.5 77t195 -77t76 -196t-76 -196.5t-195 -77.5zM274 464q-83 0 -138.5 -54t-55.5 -137q0 -84 54.5 -138t139.5 -54q81 0 135.5 55.5t54.5 136.5q0 82 -54.5 136.5t-135.5 54.5z" />
    <glyph glyph-name="sa" unicode="&#x101e;" horiz-adv-x="1117" 
d="M720 -3q-150 0 -234 128q-84 -126 -234 -126q-135 0 -245 138l68 51q85 -106 177 -106q82 0 137 48t55 130v30q0 79 -58 128q-54 46 -134 46q-108 0 -186 -129l-72 42l21 36q78 134 237 134q122 0 199.5 -76t77.5 -197v-15q0 -81 55 -130t136 -49q84 0 139.5 54.5
t55.5 139.5q0 82 -56 136t-139 54q-33 0 -107 -27l-27 80l38 13q41 15 96 15q125 0 201 -73.5t76 -197.5q0 -123 -77.5 -200t-199.5 -77z" />
    <glyph glyph-name="ha" unicode="&#x101f;" horiz-adv-x="1139" 
d="M743 -3q-36 0 -72 10l15 84q42 -11 57 -11q81 0 136.5 56t55.5 138q0 81 -55 135.5t-137 54.5q-85 0 -137.5 -49t-52.5 -132v-9q0 -122 -78 -198.5t-200 -76.5q-124 0 -200 75.5t-76 199.5q0 172 161 249l51 -66q-66 -26 -100 -80q-29 -47 -29 -103q0 -83 55 -137.5
t138 -54.5q89 0 143 61q48 55 48 131v24q-9 88 -125 159l54 64l26 -15q54 -32 90 -84q83 125 232 125q121 0 198.5 -76.5t77.5 -196.5q0 -121 -77.5 -199t-198.5 -78z" />
    <glyph glyph-name="lla" unicode="&#x1020;" horiz-adv-x="652" 
d="M464 329q-76 134 -187 134q-83 0 -137 -55t-54 -137q0 -83 54 -137.5t137 -54.5h15q4 -2 10 -2l9 2q33 14 105 36q110 4 110 -90q0 -20 -8 -43q-49 -100 -250 -109q-91 -4 -182 34v-178q0 -56 54 -56h260q19 0 43 5q8 3 8 15q-12 18 -74 18l15 81h26q115 0 115 -102v-2
q0 -97 -109 -97h-326q-41 0 -70 35t-24 76v222q0 81 49 81q57 0 57 -17q78 -30 158 -30h1q135 0 168 55q2 7 2 10q0 8 -14 8q-9 0 -31 -11l-32 -15q-19 -9 -33 -11h-52q-121 0 -198 78t-77 199q0 120 77 197t198 77q160 0 258 -177z" />
    <glyph glyph-name="a.let" unicode="&#x1021;" horiz-adv-x="1066" 
d="M253 220v4h-8l2 81h49q108 0 119 78q-13 81 -179 81q-117 0 -153 -69q-4 -7 -4 -12q0 -12 19 -12h17l-6 -76h-11q-104 0 -104 96q0 83 84 124q65 32 158 32q163 0 234 -89q82 87 203 87q96 0 175 -64q98 -80 98 -210q0 -98 -65 -176q-82 -99 -208 -99q-46 0 -90 14
q-20 6 -20 33q0 52 3 61q15 46 35 63q69 60 132 60q67 0 111 -36q19 36 19 80q0 83 -54 138t-136 55q-121 0 -176 -109q-11 -50 -55 -87q67 -44 60 -120q-15 -149 -266 -149q-79 0 -147 27q-89 35 -93 102l-2 26l83 19q1 -21 6 -48q10 -19 71 -33q46 -10 82 -10
q176 0 182 75q4 66 -132 66q-11 1 -33 -3zM739 166q-41 0 -78 -48q-7 -8 -15 -38q16 -1 27 -1q69 0 142 66q-27 21 -76 21z" />
    <glyph glyph-name="shan.a" unicode="&#x1022;" horiz-adv-x="1131" 
d="M545 273q-1 78 61 137q57 54 138 54t135.5 -54.5t54.5 -136.5q0 -81 -54.5 -136.5t-135.5 -55.5q-36 0 -67 10l21 -89q22 -3 46 -3q119 0 195 77.5t76 196.5t-76 196t-195 77q-58 0 -113 -22t-84 -55q-19 -21 -37 -52q-14 25 -41 52q-79 77 -195 77q-121 0 -195 -76
q-81 -84 -81 -195q0 -35 14 -67q21 -46 64 -45q12 1 28 4q12 2 28 2q43 0 43 -43q0 -42 -43 -42q-13 0 -36 19l-68 -39q45 -64 105 -64q52 0 89 37t37 90q0 52 -37 89t-89 37q-19 0 -37 -5q-18 16 -7 81q21 81 98 115q37 17 90 17q83 0 138 -55q48 -48 48 -131
q0 -86 -49 -133q-19 -19 -29 -26q-15 -12 -36 -22l41 -74q53 24 85 59q74 78 70 194z" />
    <glyph glyph-name="i.let" unicode="&#x1023;" horiz-adv-x="1145" 
d="M995 143h-99q44 65 42 117q-7 190 -194 190q-83 0 -136.5 -54t-53.5 -136v-14q-3 -16 -12 -56q-6 -19 -15 -47h-96q34 49 34 117q0 82 -53.5 136t-136.5 54q-82 0 -138 -54.5t-56 -135.5q0 -65 41 -117h-98q-25 55 -25 117q0 119 78.5 196t197.5 77q150 0 235 -129
q84 129 234 129q119 0 197.5 -77t78.5 -196q0 -60 -25 -117zM816 -407q-35 0 -53 9.5t-37 38.5v17q0 70 72 249v13q0 58 -36.5 94t-93.5 36q-56 0 -93.5 -37t-37.5 -93v-18q-28 -4 -36 -48q-9 -52 -22 -73l-59 52q36 39 36 87q0 58 -38 94t-95 36q-58 0 -95 -36t-37 -94
q0 -40 28 -76l-58 -57q-48 63 -48 133q0 91 59.5 150t150.5 59q108 0 172 -87q65 87 173 87q90 0 150.5 -59t60.5 -150v-15l-63 -186q-6 -17 -6 -25q0 -17 14 -21h55v-80h-63z" />
    <glyph glyph-name="ii.let" unicode="&#x1024;" horiz-adv-x="1296" 
d="M1110 760q-6 51 -36 82q-33 33 -82 33q-56 0 -89.5 -33.5t-33.5 -89.5q0 -88 84 -115q61 0 114 -30q58 -33 78 -87q15 -41 15 -122v-709q0 -38 -27.5 -61t-65.5 -23h-944q-42 0 -76 30t-38 72q-6 63 34 102t104 39h605q4 0 15 -3q65 -5 88 -26l23 -42l-71 -51
q-8 38 -55 38h-618q-13 0 -27.5 -10.5t-14.5 -22.5q0 -15 13 -29.5t29 -14.5h916q21 -3 27 18v693q0 57 -6 83q-11 45 -84 63q-10 0 -27 3q-79 13 -126.5 69.5t-47.5 135.5q0 89 59 146.5t148 57.5q78 0 132 -46t69 -123zM554 257h-3q-8 -151 -177 -249l-42 74
q136 76 136 189q0 83 -54 137.5t-136 54.5q-85 0 -140 -54t-55 -138q0 -114 139 -189l-40 -75l-36 19q-146 79 -146 245q0 122 77.5 199t200.5 77q151 0 235 -131q81 131 234 131q121 0 198 -78t77 -198v-551h-83v551q0 84 -54 138t-138 54t-138.5 -54t-54.5 -138v-14z" />
    <glyph glyph-name="u.let" unicode="&#x1025;" horiz-adv-x="672" 
d="M470 -396q-14 -3 -60 -3h-272q-138 0 -138 138l2 441l12 2l70 40q76 -133 189 -133q83 0 137 54.5t54 137.5q0 81 -55 136.5t-136 55.5q-112 0 -189 -134l-70 39q100 177 259 177q122 0 197.5 -76t75.5 -198q0 -124 -75 -200t-198 -76q-102 0 -186 72v-335q0 -57 51 -57
h273q48 0 48 37v74h87v-72q0 -103 -76 -120z" />
    <glyph glyph-name="uu.let" unicode="&#x1026;" horiz-adv-x="669" 
d="M470 -396q-14 -3 -60 -3h-272q-138 0 -138 138l2 441l12 2l70 40q76 -133 189 -133q83 0 137 54.5t54 137.5q0 81 -55 136.5t-136 55.5q-112 0 -189 -134l-70 39q100 177 259 177q122 0 197.5 -76t75.5 -198q0 -124 -75 -200t-198 -76q-102 0 -186 72v-335q0 -57 51 -57
h273q48 0 48 37v74h87v-72q0 -103 -76 -120zM275 582q-86 0 -144 59t-58 145t59 144.5t145 58.5t142.5 -58.5t56.5 -144.5q0 -83 -59 -143.5t-142 -60.5zM275 908q-54 0 -87.5 -34t-33.5 -88q0 -15 3 -34q51 39 112 45q62 0 120 -39q3 18 3 28q0 53 -32 87.5t-85 34.5z
M271 731q-44 -5 -78 -33q36 -30 79 -30q48 0 86 36q-38 25 -87 27z" />
    <glyph glyph-name="e.let" unicode="&#x1027;" horiz-adv-x="653" 
d="M532 369q0 -44 -43 -68q-34 -19 -82 -19q-46 0 -100 27q-86 42 -104 142q-117 -48 -117 -177q0 -127 119 -178q15 55 30 78q61 94 177 94q120 0 120 -85q0 -26 -39 -80q-75 -103 -216 -103q-121 0 -198 77t-77 197q0 121 77 197t198 76q127 0 213 -106h1l21 -29
q8 -9 20 -43zM277 465h-9v-3q0 -75 82 -99q9 -6 35 -6q46 0 52 18q-66 90 -160 90zM445 183q0 10 -44 10q-34 0 -73 -19q-57 -38 -60 -90h9q120 0 168 94v5z" />
    <glyph glyph-name="mon.e" unicode="&#x1028;" horiz-adv-x="677" 
d="M545 131l10 150q8 113 -75 198q-75 76 -196 76q-122 0 -199 -76t-77 -198v-405q0 -122 77 -199t199 -77q67 0 96 10q46 17 97 69q78 80 78 201h-81q-1 -87 -52.5 -141.5t-137.5 -54.5q-83 0 -138.5 54.5t-55.5 137.5v405q0 83 55.5 137.5t138.5 54.5q72 0 123 -44
t66 -115q2 -123 -15 -171q-15 -41 -60 -66l-38 -11l-43 6l33 59l22 45q26 54 26 94q0 52 -42 85q-31 25 -73 25q-66 0 -101 -45q-21 -27 -26 -58q-13 -29 6 -82l71 33q-2 13 -2 23q0 20 7 29q1 0 14 10q11 7 21 7q11 0 30 -14q9 -7 13.5 -22.5t1.5 -23.5q-15 -34 -38 -72
t-34 -62t-11 -43q0 -69 173 -63q63 22 102 73q9 11 35 61z" />
    <glyph glyph-name="o.let" unicode="&#x1029;" horiz-adv-x="1293" 
d="M898 -2q-150 0 -234 128q-84 -127 -234 -127q-135 0 -245 139l68 51q85 -107 177 -107q82 0 137 48.5t55 130.5v30q0 48 -14 76q-12 23 -42 50q-57 48 -136 48q-108 0 -186 -129l-72 42l21 36q78 133 237 133q122 0 199.5 -75.5t77.5 -197.5v-15q0 -80 55 -129t136 -49
q84 0 139.5 54.5t55.5 138.5q0 83 -56 137t-139 54q-33 0 -107 -27l-27 79l38 14q41 15 96 15q125 0 201 -73.5t76 -198.5q0 -34 -6 -64v-493q0 -123 -138 -123h-886q-140 0 -140 138l-1 1078q0 138 141 138h910q118 0 116 -123l-2 -90h-85v78q0 52 -39 52h-900
q-53 0 -53 -63v-1067q0 -57 53 -57h888q49 0 49 38v345q-74 -63 -184 -63z" />
    <glyph glyph-name="au.let" unicode="&#x102a;" horiz-adv-x="2400" 
d="M484 331q-76 134 -187 134q-83 0 -137 -54t-54 -137q0 -123 119 -178q10 118 103 169q47 26 99 26t86 -25q39 -27 39 -77q0 -32 -39 -86q-75 -103 -216 -103q-121 0 -198 77t-77 197q0 121 77 197t198 76q160 0 258 -177zM420 211q-56 0 -93.5 -36t-38.5 -91h9
q88 0 145 61q9 15 23 33q1 8 1 12q0 21 -46 21zM2022 0q-24 0 -75 12v85q48 -13 75 -13q85 0 138 53t53 137q0 82 -54.5 136.5t-136.5 54.5q-132 0 -183 -146q-1 -4 -5 -15q1 -15 1 -30q0 -34 -6 -64v-493q0 -123 -138 -123h-886q-140 0 -140 138l-1 1078q0 138 141 138h910
q118 0 116 -123l-2 -90h-85v78q0 52 -39 52h-900q-53 0 -53 -63v-1067q0 -57 53 -57h888q49 0 49 38v345q-74 -63 -184 -63q-150 0 -234 128q-84 -127 -234 -127q-135 0 -245 139l68 51q85 -107 177 -107q82 0 137 48.5t55 130.5v30q0 48 -14 76q-12 23 -42 50
q-57 48 -136 48q-108 0 -186 -129l-72 42l21 36q78 133 237 133q122 0 199.5 -75.5t77.5 -197.5v-15q0 -80 55 -129t136 -49q84 0 139.5 54.5t55.5 138.5q0 83 -56 137t-139 54q-33 0 -107 -27l-27 79l38 14q41 15 96 15q160 0 235 -116q71 117 229 117q119 0 197 -77
t78 -196q0 -122 -76.5 -198t-198.5 -76zM2192 788q-3 -1 -6 -1t-3 3q-5 48 -37 78t-80 30q-55 0 -88.5 -34t-33.5 -88q0 -51 33.5 -84.5t85.5 -33.5q10 0 33 3v-87q-18 -2 -30 -2q-86 0 -144.5 59t-58.5 145t59 144.5t145 58.5q78 0 130.5 -46t67.5 -124q-35 -13 -73 -21z
" />
    <glyph glyph-name="aa.vow.alt.dot" unicode="&#x102b;" horiz-adv-x="890" 
d="M514 241q-29 0 -29 28q0 30 29 30q30 0 30 -30q0 -28 -30 -28zM270 4q-29 0 -29 31q0 11 9 19.5t20 8.5q29 0 29 -28q0 -31 -29 -31zM270 483q-29 0 -29 28q0 31 29 31t29 -31q0 -28 -29 -28zM439 415q-30 0 -30 30q0 12 9 20.5t21 8.5q29 0 29 -29q0 -30 -29 -30z
M495 341q-31 0 -31 30q0 12 9.5 21t21.5 9q11 0 20.5 -9.5t9.5 -20.5q0 -30 -30 -30zM366 464q-31 0 -31 30q0 13 9.5 22t21.5 9q11 0 19.5 -10t8.5 -21q0 -30 -28 -30zM439 129q29 0 29 -30q0 -29 -29 -29q-12 0 -21 8.5t-9 20.5q0 30 30 30zM495 203q12 0 21 -9t9 -21
q0 -11 -9.5 -20.5t-20.5 -9.5q-12 0 -21.5 9t-9.5 21q0 30 31 30zM366 80q28 0 28 -30q0 -11 -8.5 -21t-19.5 -10q-12 0 -21.5 9t-9.5 22q0 30 31 30zM35 241q-30 0 -30 28q0 30 30 30q29 0 29 -30q0 -28 -29 -28zM110 415q-29 0 -29 30q0 29 29 29q12 0 21 -8.5t9 -20.5
q0 -30 -30 -30zM54 341q-30 0 -30 30q0 11 9.5 20.5t20.5 9.5q12 0 21.5 -9t9.5 -21q0 -30 -31 -30zM183 464q-28 0 -28 30q0 11 8.5 21t19.5 10q12 0 21.5 -9t9.5 -22q0 -30 -31 -30zM110 129q30 0 30 -30q0 -12 -9 -20.5t-21 -8.5q-29 0 -29 29q0 30 29 30zM54 203
q31 0 31 -30q0 -12 -9.5 -21t-21.5 -9q-11 0 -20.5 9.5t-9.5 20.5q0 12 9 21t21 9zM183 80q31 0 31 -30q0 -13 -9.5 -22t-21.5 -9q-11 0 -19.5 10t-8.5 21q0 30 28 30zM686 2v750q0 8 -2 9q-18 107 -117 107q-54 0 -87.5 -34.5t-33.5 -88.5q0 -20 6 -41l-80 -18q-7 32 -7 59
q0 87 58 145.5t146 58.5q81 0 137 -51t64 -132v-764h-84z" />
    <glyph glyph-name="aa.vow.dot" unicode="&#x102c;" horiz-adv-x="1246" 
d="M514 241q-29 0 -29 28q0 30 29 30q30 0 30 -30q0 -28 -30 -28zM270 4q-29 0 -29 31q0 11 9 19.5t20 8.5q29 0 29 -28q0 -31 -29 -31zM270 483q-29 0 -29 28q0 31 29 31t29 -31q0 -28 -29 -28zM439 415q-30 0 -30 30q0 12 9 20.5t21 8.5q29 0 29 -29q0 -30 -29 -30z
M495 341q-31 0 -31 30q0 12 9.5 21t21.5 9q11 0 20.5 -9.5t9.5 -20.5q0 -30 -30 -30zM366 464q-31 0 -31 30q0 13 9.5 22t21.5 9q11 0 19.5 -10t8.5 -21q0 -30 -28 -30zM439 129q29 0 29 -30q0 -29 -29 -29q-12 0 -21 8.5t-9 20.5q0 30 30 30zM495 203q12 0 21 -9t9 -21
q0 -11 -9.5 -20.5t-20.5 -9.5q-12 0 -21.5 9t-9.5 21q0 30 31 30zM366 80q28 0 28 -30q0 -11 -8.5 -21t-19.5 -10q-12 0 -21.5 9t-9.5 22q0 30 31 30zM35 241q-30 0 -30 28q0 30 30 30q29 0 29 -30q0 -28 -29 -28zM110 415q-29 0 -29 30q0 29 29 29q12 0 21 -8.5t9 -20.5
q0 -30 -30 -30zM54 341q-30 0 -30 30q0 11 9.5 20.5t20.5 9.5q12 0 21.5 -9t9.5 -21q0 -30 -31 -30zM183 464q-28 0 -28 30q0 11 8.5 21t19.5 10q12 0 21.5 -9t9.5 -22q0 -30 -31 -30zM110 129q30 0 30 -30q0 -12 -9 -20.5t-21 -8.5q-29 0 -29 29q0 30 29 30zM54 203
q31 0 31 -30q0 -12 -9.5 -21t-21.5 -9q-11 0 -20.5 9.5t-9.5 20.5q0 12 9 21t21 9zM183 80q31 0 31 -30q0 -13 -9.5 -22t-21.5 -9q-11 0 -19.5 10t-8.5 21q0 30 28 30zM846 0q-25 0 -75 12v85q47 -13 75 -13q84 0 137 53t53 137q0 82 -54.5 136.5t-135.5 54.5
q-133 0 -183 -146q-2 -7 -14 -36l-73 44l6 21q56 199 264 199q119 0 196.5 -77t77.5 -196q0 -122 -76 -198t-198 -76z" />
    <glyph glyph-name="i.vow.dot" unicode="&#x102d;" horiz-adv-x="665" 
d="M514 241q-29 0 -29 28q0 30 29 30q30 0 30 -30q0 -28 -30 -28zM270 4q-29 0 -29 31q0 11 9 19.5t20 8.5q29 0 29 -28q0 -31 -29 -31zM270 483q-29 0 -29 28q0 31 29 31t29 -31q0 -28 -29 -28zM439 415q-30 0 -30 30q0 12 9 20.5t21 8.5q29 0 29 -29q0 -30 -29 -30z
M495 341q-31 0 -31 30q0 12 9.5 21t21.5 9q11 0 20.5 -9.5t9.5 -20.5q0 -30 -30 -30zM366 464q-31 0 -31 30q0 13 9.5 22t21.5 9q11 0 19.5 -10t8.5 -21q0 -30 -28 -30zM439 129q29 0 29 -30q0 -29 -29 -29q-12 0 -21 8.5t-9 20.5q0 30 30 30zM495 203q12 0 21 -9t9 -21
q0 -11 -9.5 -20.5t-20.5 -9.5q-12 0 -21.5 9t-9.5 21q0 30 31 30zM366 80q28 0 28 -30q0 -11 -8.5 -21t-19.5 -10q-12 0 -21.5 9t-9.5 22q0 30 31 30zM35 241q-30 0 -30 28q0 30 30 30q29 0 29 -30q0 -28 -29 -28zM110 415q-29 0 -29 30q0 29 29 29q12 0 21 -8.5t9 -20.5
q0 -30 -30 -30zM54 341q-30 0 -30 30q0 11 9.5 20.5t20.5 9.5q12 0 21.5 -9t9.5 -21q0 -30 -31 -30zM183 464q-28 0 -28 30q0 11 8.5 21t19.5 10q12 0 21.5 -9t9.5 -22q0 -30 -31 -30zM110 129q30 0 30 -30q0 -12 -9 -20.5t-21 -8.5q-29 0 -29 29q0 30 29 30zM54 203
q31 0 31 -30q0 -12 -9.5 -21t-21.5 -9q-11 0 -20.5 9.5t-9.5 20.5q0 12 9 21t21 9zM183 80q31 0 31 -30q0 -13 -9.5 -22t-21.5 -9q-11 0 -19.5 10t-8.5 21q0 30 28 30zM273 590q-86 0 -144 59t-58 145t58.5 144.5t145.5 58.5q85 0 142 -58.5t57 -144.5q0 -83 -59 -143.5
t-142 -60.5zM273 916q-54 0 -87.5 -34t-33.5 -88q0 -51 33.5 -84.5t84.5 -33.5q53 0 86.5 32.5t33.5 85.5t-32 87.5t-85 34.5z" />
    <glyph glyph-name="ii.vow.dot" unicode="&#x102e;" horiz-adv-x="665" 
d="M514 241q-29 0 -29 28q0 30 29 30q30 0 30 -30q0 -28 -30 -28zM270 4q-29 0 -29 31q0 11 9 19.5t20 8.5q29 0 29 -28q0 -31 -29 -31zM270 483q-29 0 -29 28q0 31 29 31t29 -31q0 -28 -29 -28zM439 415q-30 0 -30 30q0 12 9 20.5t21 8.5q29 0 29 -29q0 -30 -29 -30z
M495 341q-31 0 -31 30q0 12 9.5 21t21.5 9q11 0 20.5 -9.5t9.5 -20.5q0 -30 -30 -30zM366 464q-31 0 -31 30q0 13 9.5 22t21.5 9q11 0 19.5 -10t8.5 -21q0 -30 -28 -30zM439 129q29 0 29 -30q0 -29 -29 -29q-12 0 -21 8.5t-9 20.5q0 30 30 30zM495 203q12 0 21 -9t9 -21
q0 -11 -9.5 -20.5t-20.5 -9.5q-12 0 -21.5 9t-9.5 21q0 30 31 30zM366 80q28 0 28 -30q0 -11 -8.5 -21t-19.5 -10q-12 0 -21.5 9t-9.5 22q0 30 31 30zM35 241q-30 0 -30 28q0 30 30 30q29 0 29 -30q0 -28 -29 -28zM110 415q-29 0 -29 30q0 29 29 29q12 0 21 -8.5t9 -20.5
q0 -30 -30 -30zM54 341q-30 0 -30 30q0 11 9.5 20.5t20.5 9.5q12 0 21.5 -9t9.5 -21q0 -30 -31 -30zM183 464q-28 0 -28 30q0 11 8.5 21t19.5 10q12 0 21.5 -9t9.5 -22q0 -30 -31 -30zM110 129q30 0 30 -30q0 -12 -9 -20.5t-21 -8.5q-29 0 -29 29q0 30 29 30zM54 203
q31 0 31 -30q0 -12 -9.5 -21t-21.5 -9q-11 0 -20.5 9.5t-9.5 20.5q0 12 9 21t21 9zM183 80q31 0 31 -30q0 -13 -9.5 -22t-21.5 -9q-11 0 -19.5 10t-8.5 21q0 30 28 30zM275 592q-86 0 -144 59t-58 145t59 144.5t145 58.5t142.5 -58.5t56.5 -144.5q0 -83 -59 -143.5
t-142 -60.5zM275 918q-54 0 -87.5 -34t-33.5 -88q0 -15 3 -34q51 39 112 45q62 0 120 -39q3 18 3 28q0 53 -32 87.5t-85 34.5zM271 741q-44 -5 -78 -33q36 -30 79 -30q48 0 86 36q-38 25 -87 27z" />
    <glyph glyph-name="u.vow.dot" unicode="&#x102f;" horiz-adv-x="667" 
d="M514 241q-29 0 -29 28q0 30 29 30q30 0 30 -30q0 -28 -30 -28zM270 4q-29 0 -29 31q0 11 9 19.5t20 8.5q29 0 29 -28q0 -31 -29 -31zM270 483q-29 0 -29 28q0 31 29 31t29 -31q0 -28 -29 -28zM439 415q-30 0 -30 30q0 12 9 20.5t21 8.5q29 0 29 -29q0 -30 -29 -30z
M495 341q-31 0 -31 30q0 12 9.5 21t21.5 9q11 0 20.5 -9.5t9.5 -20.5q0 -30 -30 -30zM366 464q-31 0 -31 30q0 13 9.5 22t21.5 9q11 0 19.5 -10t8.5 -21q0 -30 -28 -30zM439 129q29 0 29 -30q0 -29 -29 -29q-12 0 -21 8.5t-9 20.5q0 30 30 30zM495 203q12 0 21 -9t9 -21
q0 -11 -9.5 -20.5t-20.5 -9.5q-12 0 -21.5 9t-9.5 21q0 30 31 30zM366 80q28 0 28 -30q0 -11 -8.5 -21t-19.5 -10q-12 0 -21.5 9t-9.5 22q0 30 31 30zM35 241q-30 0 -30 28q0 30 30 30q29 0 29 -30q0 -28 -29 -28zM110 415q-29 0 -29 30q0 29 29 29q12 0 21 -8.5t9 -20.5
q0 -30 -30 -30zM54 341q-30 0 -30 30q0 11 9.5 20.5t20.5 9.5q12 0 21.5 -9t9.5 -21q0 -30 -31 -30zM183 464q-28 0 -28 30q0 11 8.5 21t19.5 10q12 0 21.5 -9t9.5 -22q0 -30 -31 -30zM110 129q30 0 30 -30q0 -12 -9 -20.5t-21 -8.5q-29 0 -29 29q0 30 29 30zM54 203
q31 0 31 -30q0 -12 -9.5 -21t-21.5 -9q-11 0 -20.5 9.5t-9.5 20.5q0 12 9 21t21 9zM183 80q31 0 31 -30q0 -13 -9.5 -22t-21.5 -9q-11 0 -19.5 10t-8.5 21q0 30 28 30zM271 -418q-39 0 -39 48v361h80v-327h82v-82h-123z" />
    <glyph glyph-name="uu.vow.dot" unicode="&#x1030;" horiz-adv-x="667" 
d="M514 241q-29 0 -29 28q0 30 29 30q30 0 30 -30q0 -28 -30 -28zM270 4q-29 0 -29 31q0 11 9 19.5t20 8.5q29 0 29 -28q0 -31 -29 -31zM270 483q-29 0 -29 28q0 31 29 31t29 -31q0 -28 -29 -28zM439 415q-30 0 -30 30q0 12 9 20.5t21 8.5q29 0 29 -29q0 -30 -29 -30z
M495 341q-31 0 -31 30q0 12 9.5 21t21.5 9q11 0 20.5 -9.5t9.5 -20.5q0 -30 -30 -30zM366 464q-31 0 -31 30q0 13 9.5 22t21.5 9q11 0 19.5 -10t8.5 -21q0 -30 -28 -30zM439 129q29 0 29 -30q0 -29 -29 -29q-12 0 -21 8.5t-9 20.5q0 30 30 30zM495 203q12 0 21 -9t9 -21
q0 -11 -9.5 -20.5t-20.5 -9.5q-12 0 -21.5 9t-9.5 21q0 30 31 30zM366 80q28 0 28 -30q0 -11 -8.5 -21t-19.5 -10q-12 0 -21.5 9t-9.5 22q0 30 31 30zM35 241q-30 0 -30 28q0 30 30 30q29 0 29 -30q0 -28 -29 -28zM110 415q-29 0 -29 30q0 29 29 29q12 0 21 -8.5t9 -20.5
q0 -30 -30 -30zM54 341q-30 0 -30 30q0 11 9.5 20.5t20.5 9.5q12 0 21.5 -9t9.5 -21q0 -30 -31 -30zM183 464q-28 0 -28 30q0 11 8.5 21t19.5 10q12 0 21.5 -9t9.5 -22q0 -30 -31 -30zM110 129q30 0 30 -30q0 -12 -9 -20.5t-21 -8.5q-29 0 -29 29q0 30 29 30zM54 203
q31 0 31 -30q0 -12 -9.5 -21t-21.5 -9q-11 0 -20.5 9.5t-9.5 20.5q0 12 9 21t21 9zM183 80q31 0 31 -30q0 -13 -9.5 -22t-21.5 -9q-11 0 -19.5 10t-8.5 21q0 30 28 30zM339 -418q-37 0 -37 48v361h82v-327h75v-82h-120zM171 -418v409h81v-409h-81z" />
    <glyph glyph-name="e.vow.dot" unicode="&#x1031;" horiz-adv-x="1322" 
d="M1174 241q-29 0 -29 28q0 30 29 30q30 0 30 -30q0 -28 -30 -28zM930 4q-29 0 -29 31q0 11 9 19.5t20 8.5q29 0 29 -28q0 -31 -29 -31zM930 483q-29 0 -29 28q0 31 29 31t29 -31q0 -28 -29 -28zM1099 415q-30 0 -30 30q0 12 9 20.5t21 8.5q29 0 29 -29q0 -30 -29 -30z
M1155 341q-31 0 -31 30q0 12 9.5 21t21.5 9q11 0 20.5 -9.5t9.5 -20.5q0 -30 -30 -30zM1026 464q-31 0 -31 30q0 13 9.5 22t21.5 9q11 0 19.5 -10t8.5 -21q0 -30 -28 -30zM1099 129q29 0 29 -30q0 -29 -29 -29q-12 0 -21 8.5t-9 20.5q0 30 30 30zM1155 203q12 0 21 -9t9 -21
q0 -11 -9.5 -20.5t-20.5 -9.5q-12 0 -21.5 9t-9.5 21q0 30 31 30zM1026 80q28 0 28 -30q0 -11 -8.5 -21t-19.5 -10q-12 0 -21.5 9t-9.5 22q0 30 31 30zM695 241q-30 0 -30 28q0 30 30 30q29 0 29 -30q0 -28 -29 -28zM770 415q-29 0 -29 30q0 29 29 29q12 0 21 -8.5t9 -20.5
q0 -30 -30 -30zM714 341q-30 0 -30 30q0 11 9.5 20.5t20.5 9.5q12 0 21.5 -9t9.5 -21q0 -30 -31 -30zM843 464q-28 0 -28 30q0 11 8.5 21t19.5 10q12 0 21.5 -9t9.5 -22q0 -30 -31 -30zM770 129q30 0 30 -30q0 -12 -9 -20.5t-21 -8.5q-29 0 -29 29q0 30 29 30zM714 203
q31 0 31 -30q0 -12 -9.5 -21t-21.5 -9q-11 0 -20.5 9.5t-9.5 20.5q0 12 9 21t21 9zM843 80q31 0 31 -30q0 -13 -9.5 -22t-21.5 -9q-11 0 -19.5 10t-8.5 21q0 30 28 30zM464 331q-76 134 -187 134q-83 0 -137 -54t-54 -137q0 -123 119 -178q10 118 103 169q47 26 99 26
t86 -25q39 -27 39 -77q0 -32 -39 -86q-75 -103 -216 -103q-121 0 -198 77t-77 197q0 121 77 197t198 76q160 0 258 -177zM400 211q-56 0 -93.5 -36t-38.5 -91h9q88 0 145 61q9 15 23 33q1 8 1 12q0 21 -46 21z" />
    <glyph glyph-name="ai.vow.dot" unicode="&#x1032;" horiz-adv-x="663" 
d="M514 241q-29 0 -29 28q0 30 29 30q30 0 30 -30q0 -28 -30 -28zM270 4q-29 0 -29 31q0 11 9 19.5t20 8.5q29 0 29 -28q0 -31 -29 -31zM270 483q-29 0 -29 28q0 31 29 31t29 -31q0 -28 -29 -28zM439 415q-30 0 -30 30q0 12 9 20.5t21 8.5q29 0 29 -29q0 -30 -29 -30z
M495 341q-31 0 -31 30q0 12 9.5 21t21.5 9q11 0 20.5 -9.5t9.5 -20.5q0 -30 -30 -30zM366 464q-31 0 -31 30q0 13 9.5 22t21.5 9q11 0 19.5 -10t8.5 -21q0 -30 -28 -30zM439 129q29 0 29 -30q0 -29 -29 -29q-12 0 -21 8.5t-9 20.5q0 30 30 30zM495 203q12 0 21 -9t9 -21
q0 -11 -9.5 -20.5t-20.5 -9.5q-12 0 -21.5 9t-9.5 21q0 30 31 30zM366 80q28 0 28 -30q0 -11 -8.5 -21t-19.5 -10q-12 0 -21.5 9t-9.5 22q0 30 31 30zM35 241q-30 0 -30 28q0 30 30 30q29 0 29 -30q0 -28 -29 -28zM110 415q-29 0 -29 30q0 29 29 29q12 0 21 -8.5t9 -20.5
q0 -30 -30 -30zM54 341q-30 0 -30 30q0 11 9.5 20.5t20.5 9.5q12 0 21.5 -9t9.5 -21q0 -30 -31 -30zM183 464q-28 0 -28 30q0 11 8.5 21t19.5 10q12 0 21.5 -9t9.5 -22q0 -30 -31 -30zM110 129q30 0 30 -30q0 -12 -9 -20.5t-21 -8.5q-29 0 -29 29q0 30 29 30zM54 203
q31 0 31 -30q0 -12 -9.5 -21t-21.5 -9q-11 0 -20.5 9.5t-9.5 20.5q0 12 9 21t21 9zM183 80q31 0 31 -30q0 -13 -9.5 -22t-21.5 -9q-11 0 -19.5 10t-8.5 21q0 30 28 30zM468 604l-406 189l40 87l411 -186z" />
    <glyph glyph-name="mon.ii.vow.dot" unicode="&#x1033;" horiz-adv-x="661" 
d="M347 795q0 -34 -21.5 -55t-55.5 -21q-33 0 -54.5 21.5t-21.5 54.5q0 34 21.5 55.5t56.5 21.5q34 0 54.5 -22t20.5 -55zM474 794q0 -83 -59 -143.5t-142 -60.5q-86 0 -144 59t-58 145t58.5 144.5t145.5 58.5q85 0 142 -58.5t57 -144.5zM468 445q0 -30 -29 -30
q-30 0 -30 30q0 12 9 20.5t21 8.5q29 0 29 -29zM525 371q0 -30 -30 -30q-31 0 -31 30q0 12 9.5 21t21.5 9q11 0 20.5 -9.5t9.5 -20.5zM394 494q0 -30 -28 -30q-31 0 -31 30q0 13 9.5 22t21.5 9q11 0 19.5 -10t8.5 -21zM544 269q0 -28 -30 -28q-29 0 -29 28q0 30 29 30
q30 0 30 -30zM299 511q0 -28 -29 -28t-29 28q0 31 29 31t29 -31zM214 494q0 -30 -31 -30q-28 0 -28 30q0 11 8.5 21t19.5 10q12 0 21.5 -9t9.5 -22zM525 173q0 -11 -9.5 -20.5t-20.5 -9.5q-12 0 -21.5 9t-9.5 21q0 30 31 30q12 0 21 -9t9 -21zM140 445q0 -30 -30 -30
q-29 0 -29 30q0 29 29 29q12 0 21 -8.5t9 -20.5zM468 99q0 -29 -29 -29q-12 0 -21 8.5t-9 20.5q0 30 30 30q29 0 29 -30zM85 371q0 -30 -31 -30q-30 0 -30 30q0 11 9.5 20.5t20.5 9.5q12 0 21.5 -9t9.5 -21zM394 50q0 -11 -8.5 -21t-19.5 -10q-12 0 -21.5 9t-9.5 22
q0 30 31 30q28 0 28 -30zM64 269q0 -28 -29 -28q-30 0 -30 28q0 30 30 30q29 0 29 -30zM299 35q0 -31 -29 -31t-29 31q0 11 9 19.5t20 8.5q29 0 29 -28zM214 50q0 -13 -9.5 -22t-21.5 -9q-11 0 -19.5 10t-8.5 21q0 30 28 30q31 0 31 -30zM85 173q0 -12 -9.5 -21t-21.5 -9
q-11 0 -20.5 9.5t-9.5 20.5q0 12 9 21t21 9q31 0 31 -30zM140 99q0 -12 -9 -20.5t-21 -8.5q-29 0 -29 29q0 30 29 30q30 0 30 -30zM302 795q0 32 -31 32q-32 0 -32 -32q0 -31 32 -31q31 0 31 31zM390 794q0 53 -32 87.5t-85 34.5q-54 0 -87.5 -34t-33.5 -88
q0 -51 33.5 -84.5t84.5 -33.5q53 0 86.5 32.5t33.5 85.5z" />
    <glyph glyph-name="mon.o.vow.dot" unicode="&#x1034;" horiz-adv-x="663" 
d="M514 241q-29 0 -29 28q0 30 29 30q30 0 30 -30q0 -28 -30 -28zM270 4q-29 0 -29 31q0 11 9 19.5t20 8.5q29 0 29 -28q0 -31 -29 -31zM270 483q-29 0 -29 28q0 31 29 31t29 -31q0 -28 -29 -28zM439 415q-30 0 -30 30q0 12 9 20.5t21 8.5q29 0 29 -29q0 -30 -29 -30z
M495 341q-31 0 -31 30q0 12 9.5 21t21.5 9q11 0 20.5 -9.5t9.5 -20.5q0 -30 -30 -30zM366 464q-31 0 -31 30q0 13 9.5 22t21.5 9q11 0 19.5 -10t8.5 -21q0 -30 -28 -30zM439 129q29 0 29 -30q0 -29 -29 -29q-12 0 -21 8.5t-9 20.5q0 30 30 30zM495 203q12 0 21 -9t9 -21
q0 -11 -9.5 -20.5t-20.5 -9.5q-12 0 -21.5 9t-9.5 21q0 30 31 30zM366 80q28 0 28 -30q0 -11 -8.5 -21t-19.5 -10q-12 0 -21.5 9t-9.5 22q0 30 31 30zM35 241q-30 0 -30 28q0 30 30 30q29 0 29 -30q0 -28 -29 -28zM110 415q-29 0 -29 30q0 29 29 29q12 0 21 -8.5t9 -20.5
q0 -30 -30 -30zM54 341q-30 0 -30 30q0 11 9.5 20.5t20.5 9.5q12 0 21.5 -9t9.5 -21q0 -30 -31 -30zM183 464q-28 0 -28 30q0 11 8.5 21t19.5 10q12 0 21.5 -9t9.5 -22q0 -30 -31 -30zM110 129q30 0 30 -30q0 -12 -9 -20.5t-21 -8.5q-29 0 -29 29q0 30 29 30zM54 203
q31 0 31 -30q0 -12 -9.5 -21t-21.5 -9q-11 0 -20.5 9.5t-9.5 20.5q0 12 9 21t21 9zM183 80q31 0 31 -30q0 -13 -9.5 -22t-21.5 -9q-11 0 -19.5 10t-8.5 21q0 30 28 30zM107 604l406 189l-40 87l-411 -186z" />
    <glyph glyph-name="eabove.vow.dot" unicode="&#x1035;" horiz-adv-x="663" 
d="M514 241q-29 0 -29 28q0 30 29 30q30 0 30 -30q0 -28 -30 -28zM270 4q-29 0 -29 31q0 11 9 19.5t20 8.5q29 0 29 -28q0 -31 -29 -31zM270 483q-29 0 -29 28q0 31 29 31t29 -31q0 -28 -29 -28zM439 415q-30 0 -30 30q0 12 9 20.5t21 8.5q29 0 29 -29q0 -30 -29 -30z
M495 341q-31 0 -31 30q0 12 9.5 21t21.5 9q11 0 20.5 -9.5t9.5 -20.5q0 -30 -30 -30zM366 464q-31 0 -31 30q0 13 9.5 22t21.5 9q11 0 19.5 -10t8.5 -21q0 -30 -28 -30zM439 129q29 0 29 -30q0 -29 -29 -29q-12 0 -21 8.5t-9 20.5q0 30 30 30zM495 203q12 0 21 -9t9 -21
q0 -11 -9.5 -20.5t-20.5 -9.5q-12 0 -21.5 9t-9.5 21q0 30 31 30zM366 80q28 0 28 -30q0 -11 -8.5 -21t-19.5 -10q-12 0 -21.5 9t-9.5 22q0 30 31 30zM35 241q-30 0 -30 28q0 30 30 30q29 0 29 -30q0 -28 -29 -28zM110 415q-29 0 -29 30q0 29 29 29q12 0 21 -8.5t9 -20.5
q0 -30 -30 -30zM54 341q-30 0 -30 30q0 11 9.5 20.5t20.5 9.5q12 0 21.5 -9t9.5 -21q0 -30 -31 -30zM183 464q-28 0 -28 30q0 11 8.5 21t19.5 10q12 0 21.5 -9t9.5 -22q0 -30 -31 -30zM110 129q30 0 30 -30q0 -12 -9 -20.5t-21 -8.5q-29 0 -29 29q0 30 29 30zM54 203
q31 0 31 -30q0 -12 -9.5 -21t-21.5 -9q-11 0 -20.5 9.5t-9.5 20.5q0 12 9 21t21 9zM183 80q31 0 31 -30q0 -13 -9.5 -22t-21.5 -9q-11 0 -19.5 10t-8.5 21q0 30 28 30zM269 1008q50 0 95 -17q58 -23 100 -76l-54 -51l-27 29q-11 12 -39 29l-37 12l-38 4q-56 0 -97.5 -42
t-41.5 -98q0 -26 3 -29q18 25 55.5 43.5t82.5 18.5q106 0 160 -51q29 -27 29 -61q0 -31 -48 -78q-58 -58 -143 -58q-86 0 -149 63.5t-63 149.5q0 92 60.5 152t151.5 60zM269 656q43 0 85 27q23 21 33 38q0 10 -49 35q-46 10 -69 9l-24 -1q-20 -1 -41 -11q-13 -10 -44 -38
q34 -59 109 -59z" />
    <glyph glyph-name="anusvara.dot" unicode="&#x1036;" horiz-adv-x="665" 
d="M514 241q-29 0 -29 28q0 30 29 30q30 0 30 -30q0 -28 -30 -28zM270 4q-29 0 -29 31q0 11 9 19.5t20 8.5q29 0 29 -28q0 -31 -29 -31zM270 483q-29 0 -29 28q0 31 29 31t29 -31q0 -28 -29 -28zM439 415q-30 0 -30 30q0 12 9 20.5t21 8.5q29 0 29 -29q0 -30 -29 -30z
M495 341q-31 0 -31 30q0 12 9.5 21t21.5 9q11 0 20.5 -9.5t9.5 -20.5q0 -30 -30 -30zM366 464q-31 0 -31 30q0 13 9.5 22t21.5 9q11 0 19.5 -10t8.5 -21q0 -30 -28 -30zM439 129q29 0 29 -30q0 -29 -29 -29q-12 0 -21 8.5t-9 20.5q0 30 30 30zM495 203q12 0 21 -9t9 -21
q0 -11 -9.5 -20.5t-20.5 -9.5q-12 0 -21.5 9t-9.5 21q0 30 31 30zM366 80q28 0 28 -30q0 -11 -8.5 -21t-19.5 -10q-12 0 -21.5 9t-9.5 22q0 30 31 30zM35 241q-30 0 -30 28q0 30 30 30q29 0 29 -30q0 -28 -29 -28zM110 415q-29 0 -29 30q0 29 29 29q12 0 21 -8.5t9 -20.5
q0 -30 -30 -30zM54 341q-30 0 -30 30q0 11 9.5 20.5t20.5 9.5q12 0 21.5 -9t9.5 -21q0 -30 -31 -30zM183 464q-28 0 -28 30q0 11 8.5 21t19.5 10q12 0 21.5 -9t9.5 -22q0 -30 -31 -30zM110 129q30 0 30 -30q0 -12 -9 -20.5t-21 -8.5q-29 0 -29 29q0 30 29 30zM54 203
q31 0 31 -30q0 -12 -9.5 -21t-21.5 -9q-11 0 -20.5 9.5t-9.5 20.5q0 12 9 21t21 9zM183 80q31 0 31 -30q0 -13 -9.5 -22t-21.5 -9q-11 0 -19.5 10t-8.5 21q0 30 28 30zM272 686q-44 0 -74 30t-30 74q0 45 29 75t75 30q45 0 75.5 -30t30.5 -75q0 -44 -31.5 -74t-74.5 -30z
M272 823q-32 0 -32 -33t32 -33q34 0 34 33t-34 33z" />
    <glyph glyph-name="aukmyit.dot" unicode="&#x1037;" horiz-adv-x="666" 
d="M514 241q-29 0 -29 28q0 30 29 30q30 0 30 -30q0 -28 -30 -28zM270 4q-29 0 -29 31q0 11 9 19.5t20 8.5q29 0 29 -28q0 -31 -29 -31zM270 483q-29 0 -29 28q0 31 29 31t29 -31q0 -28 -29 -28zM439 415q-30 0 -30 30q0 12 9 20.5t21 8.5q29 0 29 -29q0 -30 -29 -30z
M495 341q-31 0 -31 30q0 12 9.5 21t21.5 9q11 0 20.5 -9.5t9.5 -20.5q0 -30 -30 -30zM366 464q-31 0 -31 30q0 13 9.5 22t21.5 9q11 0 19.5 -10t8.5 -21q0 -30 -28 -30zM439 129q29 0 29 -30q0 -29 -29 -29q-12 0 -21 8.5t-9 20.5q0 30 30 30zM495 203q12 0 21 -9t9 -21
q0 -11 -9.5 -20.5t-20.5 -9.5q-12 0 -21.5 9t-9.5 21q0 30 31 30zM366 80q28 0 28 -30q0 -11 -8.5 -21t-19.5 -10q-12 0 -21.5 9t-9.5 22q0 30 31 30zM35 241q-30 0 -30 28q0 30 30 30q29 0 29 -30q0 -28 -29 -28zM110 415q-29 0 -29 30q0 29 29 29q12 0 21 -8.5t9 -20.5
q0 -30 -30 -30zM54 341q-30 0 -30 30q0 11 9.5 20.5t20.5 9.5q12 0 21.5 -9t9.5 -21q0 -30 -31 -30zM183 464q-28 0 -28 30q0 11 8.5 21t19.5 10q12 0 21.5 -9t9.5 -22q0 -30 -31 -30zM110 129q30 0 30 -30q0 -12 -9 -20.5t-21 -8.5q-29 0 -29 29q0 30 29 30zM54 203
q31 0 31 -30q0 -12 -9.5 -21t-21.5 -9q-11 0 -20.5 9.5t-9.5 20.5q0 12 9 21t21 9zM183 80q31 0 31 -30q0 -13 -9.5 -22t-21.5 -9q-11 0 -19.5 10t-8.5 21q0 30 28 30zM272 -294q-44 0 -74 30t-30 74q0 45 29 75t75 30q45 0 75.5 -30t30.5 -75q0 -44 -31.5 -74t-74.5 -30z
M272 -157q-32 0 -32 -33t32 -33q34 0 34 33t-34 33z" />
    <glyph glyph-name="visarga.dot" unicode="&#x1038;" horiz-adv-x="997" 
d="M514 241q-29 0 -29 28q0 30 29 30q30 0 30 -30q0 -28 -30 -28zM270 4q-29 0 -29 31q0 11 9 19.5t20 8.5q29 0 29 -28q0 -31 -29 -31zM270 483q-29 0 -29 28q0 31 29 31t29 -31q0 -28 -29 -28zM439 415q-30 0 -30 30q0 12 9 20.5t21 8.5q29 0 29 -29q0 -30 -29 -30z
M495 341q-31 0 -31 30q0 12 9.5 21t21.5 9q11 0 20.5 -9.5t9.5 -20.5q0 -30 -30 -30zM366 464q-31 0 -31 30q0 13 9.5 22t21.5 9q11 0 19.5 -10t8.5 -21q0 -30 -28 -30zM439 129q29 0 29 -30q0 -29 -29 -29q-12 0 -21 8.5t-9 20.5q0 30 30 30zM495 203q12 0 21 -9t9 -21
q0 -11 -9.5 -20.5t-20.5 -9.5q-12 0 -21.5 9t-9.5 21q0 30 31 30zM366 80q28 0 28 -30q0 -11 -8.5 -21t-19.5 -10q-12 0 -21.5 9t-9.5 22q0 30 31 30zM35 241q-30 0 -30 28q0 30 30 30q29 0 29 -30q0 -28 -29 -28zM110 415q-29 0 -29 30q0 29 29 29q12 0 21 -8.5t9 -20.5
q0 -30 -30 -30zM54 341q-30 0 -30 30q0 11 9.5 20.5t20.5 9.5q12 0 21.5 -9t9.5 -21q0 -30 -31 -30zM183 464q-28 0 -28 30q0 11 8.5 21t19.5 10q12 0 21.5 -9t9.5 -22q0 -30 -31 -30zM110 129q30 0 30 -30q0 -12 -9 -20.5t-21 -8.5q-29 0 -29 29q0 30 29 30zM54 203
q31 0 31 -30q0 -12 -9.5 -21t-21.5 -9q-11 0 -20.5 9.5t-9.5 20.5q0 12 9 21t21 9zM183 80q31 0 31 -30q0 -13 -9.5 -22t-21.5 -9q-11 0 -19.5 10t-8.5 21q0 30 28 30zM772 306q-44 0 -74 30t-30 74q0 45 29 75t75 30q45 0 75.5 -30t30.5 -75q0 -44 -31.5 -74t-74.5 -30z
M772 443q-32 0 -32 -33t32 -33q34 0 34 33t-34 33zM772 6q-44 0 -74 30t-30 74q0 45 29 75t75 30q45 0 75.5 -30t30.5 -75q0 -44 -31.5 -74t-74.5 -30zM772 143q-32 0 -32 -33t32 -33q34 0 34 33t-34 33z" />
    <glyph glyph-name="virama" unicode="&#x1039;" horiz-adv-x="1241" 
d="M1060 658h-88v60h150v-80q0 -12 -1 -36t-1 -36h-60v92zM82 -369h-40q-27 -1 -41 -1v152h60v-91h90v-60h-69zM853 -369h119v60h88v91h60v-70q0 -13 1 -40t1 -41l-310 -4zM1 717h150v-59h-90v-92h-60v151zM1 346h60v-151h-60v151zM1060 532h60v-151h-60v151zM1060 346h60
v-151h-60v151zM778 658v60h150v-60h-150zM1060 162h60v-152h-60v152zM1 162h60v-152h-60v152zM1060 -24h60v-151h-60v151zM1 -24h60v-151h-60v151zM1 532h60v-151h-60v151zM195 -369v60h150v-60h-150zM390 -369v60h149v-60h-149zM778 -369v60h150v-60h-150zM584 -369v60h149
v-60h-149zM195 658v60h150v-60h-150zM584 658v60h149v-60h-149zM390 658v60h149v-60h-149zM577 -188v-81h-52v81h-90v51h90v80h52v-80h76v-51h-76zM793 240q-29 0 -29 28q0 30 29 30q30 0 30 -30q0 -28 -30 -28zM549 3q-29 0 -29 31q0 11 9 19.5t20 8.5q30 0 30 -28
q0 -31 -30 -31zM549 482q-29 0 -29 28q0 30 29 30q30 0 30 -30q0 -28 -30 -28zM718 414q-29 0 -29 30q0 12 9 20.5t20 8.5q29 0 29 -29q0 -30 -29 -30zM775 340q-32 0 -32 30q0 12 9.5 21t22.5 9q11 0 20 -9.5t9 -20.5q0 -30 -29 -30zM645 463q-31 0 -31 30q0 13 9.5 22
t21.5 9q11 0 19.5 -10t8.5 -21q0 -30 -28 -30zM718 128q29 0 29 -30q0 -29 -29 -29q-11 0 -20 8.5t-9 20.5q0 30 29 30zM775 202q12 0 20.5 -9t8.5 -21q0 -11 -9 -20.5t-20 -9.5q-13 0 -22.5 9t-9.5 21q0 30 32 30zM645 79q28 0 28 -30q0 -11 -8.5 -21t-19.5 -10
q-12 0 -21.5 9t-9.5 22q0 30 31 30zM314 240q-29 0 -29 28q0 30 29 30q30 0 30 -30q0 -28 -30 -28zM390 414q-30 0 -30 30q0 29 30 29q11 0 20 -8.5t9 -20.5q0 -30 -29 -30zM333 340q-30 0 -30 30q0 11 9.5 20.5t20.5 9.5q12 0 21.5 -9t9.5 -21q0 -30 -31 -30zM462 463
q-27 0 -27 30q0 11 8 21t19 10q13 0 22.5 -9t9.5 -22q0 -30 -32 -30zM390 128q29 0 29 -30q0 -12 -9 -20.5t-20 -8.5q-30 0 -30 29q0 30 30 30zM333 202q31 0 31 -30q0 -12 -9.5 -21t-21.5 -9q-11 0 -20.5 9.5t-9.5 20.5q0 12 9 21t21 9zM462 79q32 0 32 -30q0 -13 -9.5 -22
t-22.5 -9q-11 0 -19 10t-8 21q0 30 27 30z" />
    <glyph glyph-name="asat.dot" unicode="&#x103a;" horiz-adv-x="661" 
d="M514 241q-29 0 -29 28q0 30 29 30q30 0 30 -30q0 -28 -30 -28zM270 4q-29 0 -29 31q0 11 9 19.5t20 8.5q29 0 29 -28q0 -31 -29 -31zM270 483q-29 0 -29 28q0 31 29 31t29 -31q0 -28 -29 -28zM439 415q-30 0 -30 30q0 12 9 20.5t21 8.5q29 0 29 -29q0 -30 -29 -30z
M495 341q-31 0 -31 30q0 12 9.5 21t21.5 9q11 0 20.5 -9.5t9.5 -20.5q0 -30 -30 -30zM366 464q-31 0 -31 30q0 13 9.5 22t21.5 9q11 0 19.5 -10t8.5 -21q0 -30 -28 -30zM439 129q29 0 29 -30q0 -29 -29 -29q-12 0 -21 8.5t-9 20.5q0 30 30 30zM495 203q12 0 21 -9t9 -21
q0 -11 -9.5 -20.5t-20.5 -9.5q-12 0 -21.5 9t-9.5 21q0 30 31 30zM366 80q28 0 28 -30q0 -11 -8.5 -21t-19.5 -10q-12 0 -21.5 9t-9.5 22q0 30 31 30zM35 241q-30 0 -30 28q0 30 30 30q29 0 29 -30q0 -28 -29 -28zM110 415q-29 0 -29 30q0 29 29 29q12 0 21 -8.5t9 -20.5
q0 -30 -30 -30zM54 341q-30 0 -30 30q0 11 9.5 20.5t20.5 9.5q12 0 21.5 -9t9.5 -21q0 -30 -31 -30zM183 464q-28 0 -28 30q0 11 8.5 21t19.5 10q12 0 21.5 -9t9.5 -22q0 -30 -31 -30zM110 129q30 0 30 -30q0 -12 -9 -20.5t-21 -8.5q-29 0 -29 29q0 30 29 30zM54 203
q31 0 31 -30q0 -12 -9.5 -21t-21.5 -9q-11 0 -20.5 9.5t-9.5 20.5q0 12 9 21t21 9zM183 80q31 0 31 -30q0 -13 -9.5 -22t-21.5 -9q-11 0 -19.5 10t-8.5 21q0 30 28 30zM427 805q-3 -1 -6 -1t-3 3q-4 48 -36.5 78t-80.5 30q-54 0 -87.5 -34t-33.5 -88q0 -51 33.5 -84.5
t84.5 -33.5q11 0 33 3v-87q-18 -2 -30 -2q-86 0 -144 59t-58 145t59 144.5t145 58.5q78 0 130.5 -46t67.5 -124q-35 -13 -74 -21z" />
    <glyph glyph-name="ya.med.dot" unicode="&#x103b;" horiz-adv-x="811" 
d="M514 241q-29 0 -29 28q0 30 29 30q30 0 30 -30q0 -28 -30 -28zM270 4q-29 0 -29 31q0 11 9 19.5t20 8.5q29 0 29 -28q0 -31 -29 -31zM270 483q-29 0 -29 28q0 31 29 31t29 -31q0 -28 -29 -28zM439 415q-30 0 -30 30q0 12 9 20.5t21 8.5q29 0 29 -29q0 -30 -29 -30z
M495 341q-31 0 -31 30q0 12 9.5 21t21.5 9q11 0 20.5 -9.5t9.5 -20.5q0 -30 -30 -30zM366 464q-31 0 -31 30q0 13 9.5 22t21.5 9q11 0 19.5 -10t8.5 -21q0 -30 -28 -30zM439 129q29 0 29 -30q0 -29 -29 -29q-12 0 -21 8.5t-9 20.5q0 30 30 30zM495 203q12 0 21 -9t9 -21
q0 -11 -9.5 -20.5t-20.5 -9.5q-12 0 -21.5 9t-9.5 21q0 30 31 30zM366 80q28 0 28 -30q0 -11 -8.5 -21t-19.5 -10q-12 0 -21.5 9t-9.5 22q0 30 31 30zM35 241q-30 0 -30 28q0 30 30 30q29 0 29 -30q0 -28 -29 -28zM110 415q-29 0 -29 30q0 29 29 29q12 0 21 -8.5t9 -20.5
q0 -30 -30 -30zM54 341q-30 0 -30 30q0 11 9.5 20.5t20.5 9.5q12 0 21.5 -9t9.5 -21q0 -30 -31 -30zM183 464q-28 0 -28 30q0 11 8.5 21t19.5 10q12 0 21.5 -9t9.5 -22q0 -30 -31 -30zM110 129q30 0 30 -30q0 -12 -9 -20.5t-21 -8.5q-29 0 -29 29q0 30 29 30zM54 203
q31 0 31 -30q0 -12 -9.5 -21t-21.5 -9q-11 0 -20.5 9.5t-9.5 20.5q0 12 9 21t21 9zM183 80q31 0 31 -30q0 -13 -9.5 -22t-21.5 -9q-11 0 -19.5 10t-8.5 21q0 30 28 30zM641 -406q-4 0 -23 3l-191 30q-64 10 -66 61l-1 44v265h82v-285l164 -27v858h83v-904q0 -45 -48 -45z
" />
    <glyph glyph-name="ra.med.dot" unicode="&#x103c;" horiz-adv-x="1277" 
d="M764 241q-29 0 -29 28q0 30 29 30q30 0 30 -30q0 -28 -30 -28zM520 4q-29 0 -29 31q0 11 9 19.5t20 8.5q29 0 29 -28q0 -31 -29 -31zM520 483q-29 0 -29 28q0 31 29 31t29 -31q0 -28 -29 -28zM689 415q-30 0 -30 30q0 12 9 20.5t21 8.5q29 0 29 -29q0 -30 -29 -30z
M745 341q-31 0 -31 30q0 12 9.5 21t21.5 9q11 0 20.5 -9.5t9.5 -20.5q0 -30 -30 -30zM616 464q-31 0 -31 30q0 13 9.5 22t21.5 9q11 0 19.5 -10t8.5 -21q0 -30 -28 -30zM689 129q29 0 29 -30q0 -29 -29 -29q-12 0 -21 8.5t-9 20.5q0 30 30 30zM745 203q12 0 21 -9t9 -21
q0 -11 -9.5 -20.5t-20.5 -9.5q-12 0 -21.5 9t-9.5 21q0 30 31 30zM616 80q28 0 28 -30q0 -11 -8.5 -21t-19.5 -10q-12 0 -21.5 9t-9.5 22q0 30 31 30zM285 241q-30 0 -30 28q0 30 30 30q29 0 29 -30q0 -28 -29 -28zM360 415q-29 0 -29 30q0 29 29 29q12 0 21 -8.5t9 -20.5
q0 -30 -30 -30zM304 341q-30 0 -30 30q0 11 9.5 20.5t20.5 9.5q12 0 21.5 -9t9.5 -21q0 -30 -31 -30zM433 464q-28 0 -28 30q0 11 8.5 21t19.5 10q12 0 21.5 -9t9.5 -22q0 -30 -31 -30zM360 129q30 0 30 -30q0 -12 -9 -20.5t-21 -8.5q-29 0 -29 29q0 30 29 30zM304 203
q31 0 31 -30q0 -12 -9.5 -21t-21.5 -9q-11 0 -20.5 9.5t-9.5 20.5q0 12 9 21t21 9zM433 80q31 0 31 -30q0 -13 -9.5 -22t-21.5 -9q-11 0 -19.5 10t-8.5 21q0 30 28 30zM1160 735h-85v78q0 52 -39 52h-900q-53 0 -53 -63v-1067q0 -57 53 -57h888q49 0 49 38v530h87v-529
q0 -123 -138 -123h-886q-140 0 -140 138l-2 1078q0 138 142 138h910q118 0 116 -123z" />
    <glyph glyph-name="wa.med.dot" unicode="&#x103d;" horiz-adv-x="668" 
d="M514 241q-29 0 -29 28q0 30 29 30q30 0 30 -30q0 -28 -30 -28zM270 4q-29 0 -29 31q0 11 9 19.5t20 8.5q29 0 29 -28q0 -31 -29 -31zM270 483q-29 0 -29 28q0 31 29 31t29 -31q0 -28 -29 -28zM439 415q-30 0 -30 30q0 12 9 20.5t21 8.5q29 0 29 -29q0 -30 -29 -30z
M495 341q-31 0 -31 30q0 12 9.5 21t21.5 9q11 0 20.5 -9.5t9.5 -20.5q0 -30 -30 -30zM366 464q-31 0 -31 30q0 13 9.5 22t21.5 9q11 0 19.5 -10t8.5 -21q0 -30 -28 -30zM439 129q29 0 29 -30q0 -29 -29 -29q-12 0 -21 8.5t-9 20.5q0 30 30 30zM495 203q12 0 21 -9t9 -21
q0 -11 -9.5 -20.5t-20.5 -9.5q-12 0 -21.5 9t-9.5 21q0 30 31 30zM366 80q28 0 28 -30q0 -11 -8.5 -21t-19.5 -10q-12 0 -21.5 9t-9.5 22q0 30 31 30zM35 241q-30 0 -30 28q0 30 30 30q29 0 29 -30q0 -28 -29 -28zM110 415q-29 0 -29 30q0 29 29 29q12 0 21 -8.5t9 -20.5
q0 -30 -30 -30zM54 341q-30 0 -30 30q0 11 9.5 20.5t20.5 9.5q12 0 21.5 -9t9.5 -21q0 -30 -31 -30zM183 464q-28 0 -28 30q0 11 8.5 21t19.5 10q12 0 21.5 -9t9.5 -22q0 -30 -31 -30zM110 129q30 0 30 -30q0 -12 -9 -20.5t-21 -8.5q-29 0 -29 29q0 30 29 30zM54 203
q31 0 31 -30q0 -12 -9.5 -21t-21.5 -9q-11 0 -20.5 9.5t-9.5 20.5q0 12 9 21t21 9zM183 80q31 0 31 -30q0 -13 -9.5 -22t-21.5 -9q-11 0 -19.5 10t-8.5 21q0 30 28 30zM273 -412q-86 0 -146 60t-60 146q0 87 59 147t147 60q87 0 147 -60t60 -147q0 -88 -60 -147t-147 -59z
M273 -77q-56 0 -91 -36.5t-35 -92.5q0 -55 35.5 -90.5t90.5 -35.5q56 0 92.5 35t36.5 91t-36.5 92.5t-92.5 36.5z" />
    <glyph glyph-name="ha.med.dot" unicode="&#x103e;" horiz-adv-x="667" 
d="M514 241q-29 0 -29 28q0 30 29 30q30 0 30 -30q0 -28 -30 -28zM270 4q-29 0 -29 31q0 11 9 19.5t20 8.5q29 0 29 -28q0 -31 -29 -31zM270 483q-29 0 -29 28q0 31 29 31t29 -31q0 -28 -29 -28zM439 415q-30 0 -30 30q0 12 9 20.5t21 8.5q29 0 29 -29q0 -30 -29 -30z
M495 341q-31 0 -31 30q0 12 9.5 21t21.5 9q11 0 20.5 -9.5t9.5 -20.5q0 -30 -30 -30zM366 464q-31 0 -31 30q0 13 9.5 22t21.5 9q11 0 19.5 -10t8.5 -21q0 -30 -28 -30zM439 129q29 0 29 -30q0 -29 -29 -29q-12 0 -21 8.5t-9 20.5q0 30 30 30zM495 203q12 0 21 -9t9 -21
q0 -11 -9.5 -20.5t-20.5 -9.5q-12 0 -21.5 9t-9.5 21q0 30 31 30zM366 80q28 0 28 -30q0 -11 -8.5 -21t-19.5 -10q-12 0 -21.5 9t-9.5 22q0 30 31 30zM35 241q-30 0 -30 28q0 30 30 30q29 0 29 -30q0 -28 -29 -28zM110 415q-29 0 -29 30q0 29 29 29q12 0 21 -8.5t9 -20.5
q0 -30 -30 -30zM54 341q-30 0 -30 30q0 11 9.5 20.5t20.5 9.5q12 0 21.5 -9t9.5 -21q0 -30 -31 -30zM183 464q-28 0 -28 30q0 11 8.5 21t19.5 10q12 0 21.5 -9t9.5 -22q0 -30 -31 -30zM110 129q30 0 30 -30q0 -12 -9 -20.5t-21 -8.5q-29 0 -29 29q0 30 29 30zM54 203
q31 0 31 -30q0 -12 -9.5 -21t-21.5 -9q-11 0 -20.5 9.5t-9.5 20.5q0 12 9 21t21 9zM183 80q31 0 31 -30q0 -13 -9.5 -22t-21.5 -9q-11 0 -19.5 10t-8.5 21q0 30 28 30zM276 -418h-124v82h82v327h81v-361q0 -48 -39 -48z" />
    <glyph glyph-name="great.sa" unicode="&#x103f;" horiz-adv-x="1589" 
d="M1195 -3q-156 0 -235 128q-86 -128 -237 -128q-152 0 -234 128q-83 -126 -236 -126q-134 0 -244 138l66 51q86 -106 178 -106q83 0 138.5 48t55.5 130v30q0 78 -59 128q-55 46 -135 46q-108 0 -186 -129l-72 42l21 36q78 134 237 134q124 0 201 -75t77 -198v-15
q0 -81 55 -130t137 -49q84 0 139.5 54.5t55.5 139.5q0 82 -56 136t-139 54q-33 0 -105 -27l-29 80l38 13q41 15 96 15q125 0 201 -73.5t76 -197.5v-15q0 -81 57 -130t138 -49q84 0 139 54.5t55 139.5q0 82 -55.5 136t-138.5 54q-34 0 -106 -27l-32 80l41 13q45 15 97 15
q122 0 199 -75t77 -196q0 -124 -76 -200.5t-200 -76.5z" />
    <glyph glyph-name="m.zero" unicode="&#x1040;" horiz-adv-x="667" 
d="M135 135q-55 54 -55 138q0 83 56 137q38 37 104 47v88q-107 -11 -174.5 -87t-67.5 -185q0 -111 66 -186.5t176 -86.5v88q-67 10 -105 47zM310 1zM240 0zM410 137q54 55 54 136t-54 136q-37 37 -100 47v88q106 -11 170.5 -87t64.5 -184q0 -107 -64.5 -184t-170.5 -88v88
q63 10 100 48zM240 545zM310 544zM310 461zM240 461zM240 84zM310 84z" />
    <glyph glyph-name="m.one" unicode="&#x1041;" horiz-adv-x="653" 
d="M261 0q-164 0 -239 139l-21 39l72 39q75 -133 188 -133q83 0 136.5 53.5t53.5 136.5q0 82 -54.5 136.5t-135.5 54.5q-113 0 -188 -134l-72 39q101 177 260 177q119 0 196 -77t77 -196q0 -120 -76.5 -197t-196.5 -77z" />
    <glyph glyph-name="m.two" unicode="&#x1042;" horiz-adv-x="675" 
d="M284 -403q-122 0 -199 77t-77 199v42h82v-42q0 -82 55.5 -137.5t138.5 -55.5q81 0 135.5 56t54.5 137v640h81v-640q0 -123 -74 -199.5t-197 -76.5z" />
    <glyph glyph-name="m.three" unicode="&#x1043;" horiz-adv-x="643" 
d="M251 2q-51 0 -105 20l159 -382l-77 -33l-225 550l51 21l18 15l5 -6l6 -8q76 -93 168 -93q81 0 135.5 54.5t54.5 136.5q0 83 -53.5 138t-136.5 55q-108 0 -188 -130l-70 42l21 37q75 134 237 134q123 0 197 -76.5t74 -199.5q0 -121 -75.5 -198t-195.5 -77z" />
    <glyph glyph-name="m.four" unicode="&#x1044;" horiz-adv-x="655" 
d="M466 332q-80 130 -188 130q-83 0 -137.5 -55t-54.5 -138q0 -82 55.5 -136.5t136.5 -54.5q68 0 174 102v3l27 -12l45 -25l-223 -546l-77 33l156 381q-51 -20 -102 -20q-119 0 -196.5 78t-77.5 197q0 122 76 199t198 77q166 0 236 -134l19 -37z" />
    <glyph glyph-name="m.five" unicode="&#x1045;" horiz-adv-x="678" 
d="M284 -420q-122 0 -199 77t-77 199v43h82v-43q0 -83 55.5 -137.5t138.5 -54.5t136.5 54.5t53.5 137.5v402q0 83 -53.5 138.5t-136.5 55.5q-123 0 -180 -122q120 -13 168 -102q27 -50 27 -103q0 -50 -26 -85q-28 -38 -76 -38q-34 0 -86 37q-103 75 -103 218v1q0 122 77 199
t199 77q126 0 198.5 -69.5t72.5 -195.5v-413q0 -122 -74.5 -199t-196.5 -77zM90 269v-12q0 -84 63 -147q15 -8 33 -21q8 -2 12 -2q21 0 21 45q0 57 -36 95t-93 42z" />
    <glyph glyph-name="m.six" unicode="&#x1046;" horiz-adv-x="663" 
d="M274 1q-122 0 -199 77t-77 199v402q0 122 77 199t199 77q127 0 199 -75.5t72 -203.5h-81q-1 87 -52.5 142t-137.5 55q-85 0 -139.5 -55t-54.5 -139v-402q0 -84 54.5 -138.5t139.5 -54.5q71 0 121.5 44t67.5 115l-165 30q-131 23 -132 123q-1 48 37 86t86 38q33 0 61 -15
l50 -33l-56 -69q-25 30 -43 30q-14 0 -29.5 -12.5t-15.5 -26.5q0 -23 15 -28q106 -20 240 -45q19 -2 34 -32v-12q0 -122 -74.5 -199t-196.5 -77z" />
    <glyph glyph-name="m.seven" unicode="&#x1047;" horiz-adv-x="668" 
d="M533 187l-103 -323q-15 -46 -15 -114q0 -79 49 -79q11 0 29 19l33 -75q-30 -25 -68 -25q-35 0 -67 22q-59 41 -59 138q0 124 125 464q7 20 7 54q0 83 -53.5 138.5t-136.5 55.5q-85 0 -139.5 -55t-54.5 -139q0 -107 131 -186l-44 -72l-36 23q-133 83 -133 235
q0 122 77 199t199 77q123 0 197 -76t74 -200q0 -44 -12 -81z" />
    <glyph glyph-name="m.eight" unicode="&#x1048;" horiz-adv-x="665" 
d="M370 0l-42 72q136 75 136 186q0 83 -53.5 138.5t-136.5 55.5q-123 0 -180 -122q117 -9 168 -102q27 -49 27 -100q0 -48 -27 -84q-29 -41 -75 -41q-30 0 -86 41q-103 75 -103 214q0 121 77.5 198t198.5 77q119 0 195 -78t76 -197q0 -159 -175 -258zM80 269v-11
q0 -88 63 -145q15 -8 33 -21q8 -3 12 -3q21 0 21 46q0 58 -36 96t-93 38z" />
    <glyph glyph-name="m.nine" unicode="&#x1049;" horiz-adv-x="663" 
d="M467 -321q-51 -52 -97 -69q-29 -10 -96 -10q-122 0 -199 77t-77 199v405q0 122 77 198t199 76t196.5 -76t74.5 -198v-14q-15 -28 -34 -30q-134 -27 -240 -46q-15 -5 -15 -27q0 -28 37 -39q21 -7 51 28l56 -69q-44 -31 -50 -33q-28 -15 -61 -15q-48 0 -86 38.5t-37 86.5
q1 99 132 123l165 30q-15 71 -66 115t-123 44q-83 0 -138.5 -54.5t-55.5 -137.5v-405q0 -83 55.5 -137.5t138.5 -54.5q86 0 137.5 54.5t52.5 141.5h81q0 -121 -78 -201z" />
    <glyph glyph-name="littlesection.sig" unicode="&#x104a;" horiz-adv-x="205" 
d="M7 -4v504h78v-504h-78z" />
    <glyph glyph-name="section.sig" unicode="&#x104b;" horiz-adv-x="379" 
d="M174 -4v504h82v-504h-82zM5 -4v504h82v-504h-82z" />
    <glyph glyph-name="locative.sig" unicode="&#x104c;" horiz-adv-x="645" 
d="M252 8q-23 2 -87 11q-51 28 -64 28q-19 0 -9 -18q29 -57 168 -57v0q33 0 82 9q66 12 74 23q40 16 57 16q51 0 51 -78v-226q4 -41 -25 -76t-70 -35h-325q-111 0 -111 97v2q0 102 117 102h27l13 -83q-60 2 -73 -16q1 -6 10 -17q23 -3 42 -3h257q57 0 57 56v178
q-89 -33 -182 -33h-1q-81 0 -128 16q-56 18 -109 68q-20 26 -20 68q0 94 107 88q22 -1 58 -17q40 -17 57 -20q6 0 8 1h19q83 0 137 55.5t54 138.5q0 81 -54.5 136.5t-136.5 55.5q-114 0 -189 -134l-72 38q78 142 200 174q-135 64 -135 196q0 88 58 146t146 58
q77 0 131.5 -48t67.5 -124q-25 -9 -72 -24q-9 0 -9 6q-13 109 -118 109q-56 0 -89.5 -33.5t-33.5 -89.5q0 -53 34 -87t87 -34q8 0 32 3v-75q94 0 171 -90q63 -74 63 -183q0 -125 -72 -203q-76 -82 -200 -75z" />
    <glyph glyph-name="completed.sig" unicode="&#x104d;" horiz-adv-x="810" 
d="M623 750q-13 115 -118 115q-53 0 -87.5 -35t-34.5 -88q0 -88 83 -115q150 0 192 -117q15 -42 15 -122v-709q0 -36 -27 -60t-63 -24h-462q-43 0 -75 30t-36 72q-7 63 33 102t105 39h123l46 -6q28 -4 48 -21q6 -3 27 -44l-70 -51q-9 38 -59 38h-130q-13 0 -26 -10.5
t-13 -22.5q0 -17 11.5 -30.5t28.5 -13.5h428q20 -3 28 17v694q0 57 -6 83q-11 45 -84 63h-12l2 -3l-17 6q-77 13 -124.5 70t-47.5 135q0 89 58 146.5t147 57.5q77 0 131.5 -46.5t69.5 -122.5zM470 -291v567q0 81 -54.5 136.5t-135.5 55.5q-83 0 -137 -54.5t-54 -137.5v-6
q30 9 68 9q87 0 154 -52q72 -56 72 -142q0 -90 -88 -90q-17 0 -33 3q-120 8 -188.5 82.5t-68.5 195.5q0 120 77 198.5t198 78.5q122 0 199 -77.5t77 -199.5v-567h-86zM299 97q0 59 -60 92q-53 30 -114 25l-21 -9q8 -16 17 -33q64 -94 141 -94q16 0 30 7l7 6v6z" />
    <glyph glyph-name="aforementioned.sig" unicode="&#x104e;" horiz-adv-x="648" 
d="M462 339q-76 134 -186 134q-83 0 -137.5 -55t-54.5 -137q0 -83 54.5 -137.5t137.5 -54.5q111 0 186 133l48 -25h3l21 -14v-582h-83v465q-79 -61 -175 -61q-121 0 -198 77.5t-77 198.5q0 120 77 197t198 77q160 0 259 -177z" />
    <glyph glyph-name="genetive.sig" unicode="&#x104f;" horiz-adv-x="949" 
d="M769 754q-15 114 -123 114q-56 0 -89 -33.5t-33 -89.5q0 -89 86 -116q63 0 115 -29q56 -32 77 -88q13 -36 13 -118v-392h-82v392q0 61 -6 81q-9 43 -81 64h-17l2 -4l-15 6q-77 13 -125 69.5t-48 134.5q0 87 58.5 145.5t145.5 58.5q80 0 134 -46.5t69 -126.5zM589 2v402
q-3 15 -32 15q-7 -1 -36 -16q9 -15 15 -24l-6 -5q0 -42 -42 -66q-36 -21 -81 -21q-51 0 -102 26q-84 42 -102 145q-120 -49 -120 -178t119 -179q17 56 31 78q59 95 179 95q118 0 118 -87q0 -23 -39 -78q-74 -105 -216 -105q-120 0 -198 77.5t-78 198.5q0 120 78 198t198 78
q113 0 195 -89q47 36 86 36q99 0 117 -91v-410h-84zM275 470h-9v-3q0 -73 83 -96q10 -6 34 -6q47 0 53 15q-68 90 -161 90zM445 187q0 12 -45 12q-32 0 -74 -17q-57 -40 -60 -94h9q90 0 147 63q9 12 20 31l3 2v3z" />
    <glyph glyph-name="ga.sha" unicode="&#x1050;" horiz-adv-x="665" 
d="M277 321q29 0 49 -20t20 -49q0 -28 -20.5 -46.5t-48.5 -18.5q-27 0 -46 19t-19 46q0 29 18.5 49t46.5 20zM388 3l-53 63q129 78 129 185q0 80 -55 135t-135 55q-83 0 -138.5 -54t-55.5 -136q0 -107 129 -183l-57 -63l-24 12q-130 65 -130 234q0 120 77.5 197t198.5 77
q119 0 195 -77.5t76 -196.5q0 -176 -157 -248z" />
    <glyph glyph-name="pa.ssa" unicode="&#x1051;" horiz-adv-x="665" 
d="M277 207q29 0 49 20t20 49q0 28 -20.5 46.5t-48.5 18.5q-27 0 -46 -19t-19 -46q0 -29 18.5 -49t46.5 -20zM388 525l-53 -63q129 -78 129 -184q0 -81 -55 -136t-135 -55q-83 0 -138.5 54t-55.5 137q0 106 129 183l-57 63l-24 -12q-130 -66 -130 -234q0 -121 77.5 -198
t198.5 -77q119 0 195 77.5t76 197.5q0 175 -157 247z" />
    <glyph glyph-name="r.vol" unicode="&#x1052;" horiz-adv-x="667" 
d="M269 0q121 0 198.5 77t77.5 197q0 65 -40 113q-18 20 -93 78q-6 4 -9 7h4l-1 -1l-3 7l15 8q19 0 48 -23l25 68q-37 28 -93 28q-32 0 -60 -26t-28 -58q0 -36 48 -73q6 -8 72 -57q33 -33 33 -71q0 -84 -54.5 -138t-139.5 -54q-81 0 -135.5 55.5t-54.5 136.5q0 113 136 191
l-37 69l-38 -18q-142 -69 -142 -242q0 -120 75.5 -197t195.5 -77z" />
    <glyph glyph-name="rr.vol" unicode="&#x1053;" horiz-adv-x="689" 
d="M565 274q0 65 -40 113q-18 20 -93 78q-6 4 -9 7h4l-1 -1l-3 7l15 8q19 0 48 -23l25 68q-37 28 -93 28q-32 0 -60 -26t-28 -58q0 -36 48 -73q6 -8 72 -57q33 -33 33 -71q0 -84 -55 -138t-159 -54q-78 0 -132.5 54t-54.5 138q0 38 33 71q66 49 72 57q48 37 48 73
q0 32 -28.5 58t-60.5 26q-55 0 -93 -28l26 -68q28 23 48 23l15 -8l-3 -7l-2 1h5q-3 -3 -9 -7q-76 -58 -93 -78q-41 -48 -41 -113q0 -120 78 -197t198 -77q134 0 212 77t78 197z" />
    <glyph glyph-name="l.vol" unicode="&#x1054;" horiz-adv-x="646" 
d="M272 547q141 0 216 -103q38 -52 38 -86q0 -48 -39 -76q-35 -26 -84 -26q-111 0 -170 96q-29 47 -34 99q-119 -55 -119 -178q0 -83 54.5 -137t137.5 -54q110 0 186 134l74 -39q-101 -177 -260 -177q-121 0 -198.5 76t-77.5 197q0 120 77.5 197t198.5 77zM395 336
q47 0 47 21q0 4 -3 12q-14 18 -23 33q-55 61 -144 61h-10q1 -57 38.5 -92t94.5 -35z" />
    <glyph glyph-name="ll.vol" unicode="&#x1055;" horiz-adv-x="1080" 
d="M395 336q47 0 47 21q0 4 -3 12q-14 18 -23 33q-55 61 -144 61h-10q1 -57 38.5 -92t94.5 -35zM570 134q55 -54 138 -54q109 0 186 133l73 -39q-100 -177 -259 -177q-153 0 -224 109q-89 -106 -212 -106q-121 0 -198.5 76t-77.5 197q0 120 77.5 197t198.5 77
q141 0 216 -103q38 -52 38 -86q0 -48 -39 -76q-35 -26 -84 -26q-111 0 -170 96q-29 47 -34 99q-119 -55 -119 -178q0 -83 54.5 -137t137.5 -54q99 0 170 108q16 45 43 45q21 0 45 -36q14 -31 18 -38q8 -13 22 -27z" />
    <glyph glyph-name="r.vow.dot" unicode="&#x1056;" horiz-adv-x="1155" 
d="M514 241q-29 0 -29 28q0 30 29 30q30 0 30 -30q0 -28 -30 -28zM270 4q-29 0 -29 31q0 11 9 19.5t20 8.5q29 0 29 -28q0 -31 -29 -31zM270 483q-29 0 -29 28q0 31 29 31t29 -31q0 -28 -29 -28zM439 415q-30 0 -30 30q0 12 9 20.5t21 8.5q29 0 29 -29q0 -30 -29 -30z
M495 341q-31 0 -31 30q0 12 9.5 21t21.5 9q11 0 20.5 -9.5t9.5 -20.5q0 -30 -30 -30zM366 464q-31 0 -31 30q0 13 9.5 22t21.5 9q11 0 19.5 -10t8.5 -21q0 -30 -28 -30zM439 129q29 0 29 -30q0 -29 -29 -29q-12 0 -21 8.5t-9 20.5q0 30 30 30zM495 203q12 0 21 -9t9 -21
q0 -11 -9.5 -20.5t-20.5 -9.5q-12 0 -21.5 9t-9.5 21q0 30 31 30zM366 80q28 0 28 -30q0 -11 -8.5 -21t-19.5 -10q-12 0 -21.5 9t-9.5 22q0 30 31 30zM35 241q-30 0 -30 28q0 30 30 30q29 0 29 -30q0 -28 -29 -28zM110 415q-29 0 -29 30q0 29 29 29q12 0 21 -8.5t9 -20.5
q0 -30 -30 -30zM54 341q-30 0 -30 30q0 11 9.5 20.5t20.5 9.5q12 0 21.5 -9t9.5 -21q0 -30 -31 -30zM183 464q-28 0 -28 30q0 11 8.5 21t19.5 10q12 0 21.5 -9t9.5 -22q0 -30 -31 -30zM110 129q30 0 30 -30q0 -12 -9 -20.5t-21 -8.5q-29 0 -29 29q0 30 29 30zM54 203
q31 0 31 -30q0 -12 -9.5 -21t-21.5 -9q-11 0 -20.5 9.5t-9.5 20.5q0 12 9 21t21 9zM183 80q31 0 31 -30q0 -13 -9.5 -22t-21.5 -9q-11 0 -19.5 10t-8.5 21q0 30 28 30zM745 0q134 0 212 77t78 197q0 65 -40 113q-23 27 -58 41h-29q-28 1 -35.5 9.5t-7.5 19.5q0 32 43 29
q19 0 48 -23l25 68q-37 28 -93 28q-41 0 -69 -26t-28 -59q0 -4 -1 -13t-1 -15q0 -40 51 -80q9 -11 39.5 -12.5t40.5 -8.5q33 -33 33 -71q0 -84 -55 -138t-159 -54q-78 0 -132 54l-60 -59q78 -77 198 -77z" />
    <glyph glyph-name="rr.vow.dot" unicode="&#x1057;" horiz-adv-x="1456" 
d="M830 204q3 2 8 2q23 0 49 -55q29 -29 72.5 -49t79.5 -20q104 0 159 54t55 138q0 38 -33 71q-10 7 -40.5 8.5t-39.5 12.5q-51 40 -51 80q0 6 1 15t1 13q0 33 28 59t69 26q56 0 93 -28l-25 -68q-27 21 -48 23q-43 3 -43 -29q0 -11 7.5 -19.5t35.5 -9.5h29q35 -14 58 -41
q40 -48 40 -113q0 -120 -78 -197t-212 -77q-57 0 -113 19q-60 21 -95 57q-84 -86 -225 -86q-100 0 -174 61l54 64q59 -49 137 -42q90 8 153 68q6 9 16 23q6 39 32 40zM514 241q-29 0 -29 28q0 30 29 30q30 0 30 -30q0 -28 -30 -28zM270 4q-29 0 -29 31q0 11 9 19.5t20 8.5
q29 0 29 -28q0 -31 -29 -31zM270 483q-29 0 -29 28q0 31 29 31t29 -31q0 -28 -29 -28zM439 415q-30 0 -30 30q0 12 9 20.5t21 8.5q29 0 29 -29q0 -30 -29 -30zM495 341q-31 0 -31 30q0 12 9.5 21t21.5 9q11 0 20.5 -9.5t9.5 -20.5q0 -30 -30 -30zM366 464q-31 0 -31 30
q0 13 9.5 22t21.5 9q11 0 19.5 -10t8.5 -21q0 -30 -28 -30zM439 129q29 0 29 -30q0 -29 -29 -29q-12 0 -21 8.5t-9 20.5q0 30 30 30zM495 203q12 0 21 -9t9 -21q0 -11 -9.5 -20.5t-20.5 -9.5q-12 0 -21.5 9t-9.5 21q0 30 31 30zM366 80q28 0 28 -30q0 -11 -8.5 -21
t-19.5 -10q-12 0 -21.5 9t-9.5 22q0 30 31 30zM35 241q-30 0 -30 28q0 30 30 30q29 0 29 -30q0 -28 -29 -28zM110 415q-29 0 -29 30q0 29 29 29q12 0 21 -8.5t9 -20.5q0 -30 -30 -30zM54 341q-30 0 -30 30q0 11 9.5 20.5t20.5 9.5q12 0 21.5 -9t9.5 -21q0 -30 -31 -30z
M183 464q-28 0 -28 30q0 11 8.5 21t19.5 10q12 0 21.5 -9t9.5 -22q0 -30 -31 -30zM110 129q30 0 30 -30q0 -12 -9 -20.5t-21 -8.5q-29 0 -29 29q0 30 29 30zM54 203q31 0 31 -30q0 -12 -9.5 -21t-21.5 -9q-11 0 -20.5 9.5t-9.5 20.5q0 12 9 21t21 9zM183 80q31 0 31 -30
q0 -13 -9.5 -22t-21.5 -9q-11 0 -19.5 10t-8.5 21q0 30 28 30z" />
    <glyph glyph-name="l.vow.dot" unicode="&#x1058;" horiz-adv-x="659" 
d="M514 241q-29 0 -29 28q0 30 29 30q30 0 30 -30q0 -28 -30 -28zM270 4q-29 0 -29 31q0 11 9 19.5t20 8.5q29 0 29 -28q0 -31 -29 -31zM270 483q-29 0 -29 28q0 31 29 31t29 -31q0 -28 -29 -28zM439 415q-30 0 -30 30q0 12 9 20.5t21 8.5q29 0 29 -29q0 -30 -29 -30z
M495 341q-31 0 -31 30q0 12 9.5 21t21.5 9q11 0 20.5 -9.5t9.5 -20.5q0 -30 -30 -30zM366 464q-31 0 -31 30q0 13 9.5 22t21.5 9q11 0 19.5 -10t8.5 -21q0 -30 -28 -30zM439 129q29 0 29 -30q0 -29 -29 -29q-12 0 -21 8.5t-9 20.5q0 30 30 30zM495 203q12 0 21 -9t9 -21
q0 -11 -9.5 -20.5t-20.5 -9.5q-12 0 -21.5 9t-9.5 21q0 30 31 30zM366 80q28 0 28 -30q0 -11 -8.5 -21t-19.5 -10q-12 0 -21.5 9t-9.5 22q0 30 31 30zM35 241q-30 0 -30 28q0 30 30 30q29 0 29 -30q0 -28 -29 -28zM110 415q-29 0 -29 30q0 29 29 29q12 0 21 -8.5t9 -20.5
q0 -30 -30 -30zM54 341q-30 0 -30 30q0 11 9.5 20.5t20.5 9.5q12 0 21.5 -9t9.5 -21q0 -30 -31 -30zM183 464q-28 0 -28 30q0 11 8.5 21t19.5 10q12 0 21.5 -9t9.5 -22q0 -30 -31 -30zM110 129q30 0 30 -30q0 -12 -9 -20.5t-21 -8.5q-29 0 -29 29q0 30 29 30zM54 203
q31 0 31 -30q0 -12 -9.5 -21t-21.5 -9q-11 0 -20.5 9.5t-9.5 20.5q0 12 9 21t21 9zM183 80q31 0 31 -30q0 -13 -9.5 -22t-21.5 -9q-11 0 -19.5 10t-8.5 21q0 30 28 30zM269 -427q50 0 95 17q58 23 100 76l-54 51l-27 -29q-11 -12 -39 -29l-37 -12l-38 -4q-56 0 -97.5 42
t-41.5 98q0 26 3 29q18 -25 55.5 -43.5t82.5 -18.5q106 0 160 51q29 27 29 61q0 31 -48 78q-58 58 -143 58q-86 0 -149 -63.5t-63 -149.5q0 -92 60.5 -152t151.5 -60zM269 -75q43 0 85 -27q23 -21 33 -38q0 -10 -49 -35q-46 -10 -69 -9l-24 1q-20 1 -41 11q-13 10 -44 38
q34 59 109 59z" />
    <glyph glyph-name="ll.vow.dot" unicode="&#x1059;" horiz-adv-x="689" 
d="M514 241q-29 0 -29 28q0 30 29 30q30 0 30 -30q0 -28 -30 -28zM270 4q-29 0 -29 31q0 11 9 19.5t20 8.5q29 0 29 -28q0 -31 -29 -31zM270 483q-29 0 -29 28q0 31 29 31t29 -31q0 -28 -29 -28zM439 415q-30 0 -30 30q0 12 9 20.5t21 8.5q29 0 29 -29q0 -30 -29 -30z
M495 341q-31 0 -31 30q0 12 9.5 21t21.5 9q11 0 20.5 -9.5t9.5 -20.5q0 -30 -30 -30zM366 464q-31 0 -31 30q0 13 9.5 22t21.5 9q11 0 19.5 -10t8.5 -21q0 -30 -28 -30zM439 129q29 0 29 -30q0 -29 -29 -29q-12 0 -21 8.5t-9 20.5q0 30 30 30zM495 203q12 0 21 -9t9 -21
q0 -11 -9.5 -20.5t-20.5 -9.5q-12 0 -21.5 9t-9.5 21q0 30 31 30zM366 80q28 0 28 -30q0 -11 -8.5 -21t-19.5 -10q-12 0 -21.5 9t-9.5 22q0 30 31 30zM35 241q-30 0 -30 28q0 30 30 30q29 0 29 -30q0 -28 -29 -28zM110 415q-29 0 -29 30q0 29 29 29q12 0 21 -8.5t9 -20.5
q0 -30 -30 -30zM54 341q-30 0 -30 30q0 11 9.5 20.5t20.5 9.5q12 0 21.5 -9t9.5 -21q0 -30 -31 -30zM183 464q-28 0 -28 30q0 11 8.5 21t19.5 10q12 0 21.5 -9t9.5 -22q0 -30 -31 -30zM110 129q30 0 30 -30q0 -12 -9 -20.5t-21 -8.5q-29 0 -29 29q0 30 29 30zM54 203
q31 0 31 -30q0 -12 -9.5 -21t-21.5 -9q-11 0 -20.5 9.5t-9.5 20.5q0 12 9 21t21 9zM183 80q31 0 31 -30q0 -13 -9.5 -22t-21.5 -9q-11 0 -19.5 10t-8.5 21q0 30 28 30zM661 -297q-47 -52 -101 -52q-52 0 -79 67q-36 14 -70 13l-28 -43q-6 -10 -39 -29l-37 -12l-38 -4
q-56 0 -97.5 42t-41.5 98q0 26 3 29q18 -25 55.5 -43.5t82.5 -18.5q106 0 160 51q29 27 29 61q0 31 -48 78q-58 58 -143 58q-86 0 -149 -63.5t-63 -149.5q0 -92 60.5 -152t151.5 -60q50 0 94 17t76 49l13 -14q16 -18 40 -29q35 -16 83 -16q65 0 107 27q1 1 54 49zM269 -75
q43 0 85 -27q23 -21 33 -38q0 -10 -49 -35q-46 -10 -69 -9l-24 1q-20 1 -41 11q-13 10 -44 38q34 59 109 59z" />
    <glyph glyph-name="mon.nga" unicode="&#x105a;" horiz-adv-x="655" 
d="M286 -295q-3 -5 -3 -8q0 -6 18 8q25 20 46 15q-9 -92 -70 -92q-28 0 -48.5 19.5t-20.5 47.5q0 27 16 51q5 7 34 42l23 27v-2q20 21 24 27q10 15 9 35q-5 38 -38 38q-41 0 -41 -39q0 -18 39 -50l-46 -59q-13 8 -35 26q-33 33 -33 83t33 81.5t83 31.5q49 0 81 -32t32 -81
q-1 -49 -50 -107q-19 -20 -53 -62zM517 139q-30 -63 -98.5 -101t-141.5 -38q-121 0 -198 77t-77 197q0 121 77 197t198 76q160 0 258 -177l-71 -39q-76 134 -187 134q-83 0 -137 -54t-54 -137t54 -136.5t137 -53.5q111 0 187 133l71 -39z" />
    <glyph glyph-name="mon.jha" unicode="&#x105b;" horiz-adv-x="832" 
d="M528 28q-24 4 -63 24q-21 10 -37.5 38t-16.5 52v13l-33 11q-41 7 -70 49q-28 39 -30 83q-5 85 66 142q-45 14 -75 14q-82 0 -135.5 -54.5t-53.5 -136.5q0 -81 50.5 -135t132.5 -54q36 0 90 11l12 -81q-48 -15 -96 -15q-120 0 -197 77.5t-77 196.5t77 196t197 77
q128 0 203.5 -71t75.5 -199q0 -30 -20 -93q-12 -12 -37 -19q0 -21 4 -29q6 -14 26 -19l48 -12zM399 409q-47 -43 -48 -102q-1 -41 35 -65q31 -21 73 -19q6 33 6 55q0 81 -66 131zM661 -426q-9 0 -23 3l-141 30q-64 13 -66 61l-1 44v305h82v-325l114 -27v858h83v-904
q0 -45 -48 -45z" />
    <glyph glyph-name="mon.bba" unicode="&#x105c;" horiz-adv-x="670" 
d="M545 273q0 -119 -76 -196.5t-195 -77.5q-122 0 -199 76t-77 198q0 119 78.5 196t197.5 77t195 -77t76 -196zM387 273q0 -49 -32.5 -82t-81.5 -33q-51 0 -83.5 32t-32.5 83q0 50 33 82t83 32q49 0 81.5 -32.5t32.5 -81.5zM464 273q0 82 -54.5 136.5t-135.5 54.5
q-83 0 -138.5 -54t-55.5 -137q0 -84 54.5 -138t139.5 -54q81 0 135.5 55.5t54.5 136.5zM319 273q0 20 -13.5 33.5t-33.5 13.5t-33.5 -13.5t-13.5 -33.5q0 -21 13 -34t34 -13q20 0 33.5 13.5t13.5 33.5z" />
    <glyph glyph-name="mon.bbe" unicode="&#x105d;" horiz-adv-x="670" 
d="M485 97l-3 -343q-1 -62 -36 -94q-27 -24 -31 -27q-21 -16 -36 -17l-155 -12q-82 4 -108 12q-37 11 -81 52t-44 117q0 52 24 84.5t38 46.5q36 34 75 37q80 7 88 7q93 0 160 -96l-71 -51q-5 20 -23 39.5t-41 26.5q-18 5 -38 5q-43 0 -77.5 -20.5t-36.5 -45.5
q0 -3 -4.5 -27.5t-3.5 -28.5q14 -44 63 -61q9 -3 80 -16l114 8q15 -2 38 16q29 23 34 59v267q-59 -32 -136 -32q-122 0 -199 76t-77 199q0 85 41.5 153.5t111.5 95.5l58 -65q-129 -53 -129 -184q0 -64 36 -114q66 71 158 75q90 2 163 -62q27 46 27 101t-36 111
q-40 61 -93 72l55 70l24 -12q131 -66 131 -241q0 -108 -60 -181zM389 128q-52 42 -114 42q-66 -9 -106 -54q49 -30 105 -30q61 0 115 42z" />
    <glyph glyph-name="mon.na.med.dot" unicode="&#x105e;" horiz-adv-x="659" 
d="M234 -202q-14 1 -27 1q-63 0 -98 -26q-37 -17 -37 -53t45 -56h117v134zM276 -418l-217 -2q-86 52 -86 137q0 60 47 103q22 33 84 50q58 16 130 13v108h81v-119q74 -17 114 -53l-33 -89q-36 30 -81 48v-148q0 -48 -39 -48zM514 241q-29 0 -29 28q0 30 29 30q30 0 30 -30
q0 -28 -30 -28zM270 4q-29 0 -29 31q0 11 9 19.5t20 8.5q29 0 29 -28q0 -31 -29 -31zM270 483q-29 0 -29 28q0 31 29 31t29 -31q0 -28 -29 -28zM439 415q-30 0 -30 30q0 12 9 20.5t21 8.5q29 0 29 -29q0 -30 -29 -30zM495 341q-31 0 -31 30q0 12 9.5 21t21.5 9
q11 0 20.5 -9.5t9.5 -20.5q0 -30 -30 -30zM366 464q-31 0 -31 30q0 13 9.5 22t21.5 9q11 0 19.5 -10t8.5 -21q0 -30 -28 -30zM439 129q29 0 29 -30q0 -29 -29 -29q-12 0 -21 8.5t-9 20.5q0 30 30 30zM495 203q12 0 21 -9t9 -21q0 -11 -9.5 -20.5t-20.5 -9.5q-12 0 -21.5 9
t-9.5 21q0 30 31 30zM366 80q28 0 28 -30q0 -11 -8.5 -21t-19.5 -10q-12 0 -21.5 9t-9.5 22q0 30 31 30zM35 241q-30 0 -30 28q0 30 30 30q29 0 29 -30q0 -28 -29 -28zM110 415q-29 0 -29 30q0 29 29 29q12 0 21 -8.5t9 -20.5q0 -30 -30 -30zM54 341q-30 0 -30 30
q0 11 9.5 20.5t20.5 9.5q12 0 21.5 -9t9.5 -21q0 -30 -31 -30zM183 464q-28 0 -28 30q0 11 8.5 21t19.5 10q12 0 21.5 -9t9.5 -22q0 -30 -31 -30zM110 129q30 0 30 -30q0 -12 -9 -20.5t-21 -8.5q-29 0 -29 29q0 30 29 30zM54 203q31 0 31 -30q0 -12 -9.5 -21t-21.5 -9
q-11 0 -20.5 9.5t-9.5 20.5q0 12 9 21t21 9zM183 80q31 0 31 -30q0 -13 -9.5 -22t-21.5 -9q-11 0 -19.5 10t-8.5 21q0 30 28 30z" />
    <glyph glyph-name="mon.ma.med.dot" unicode="&#x105f;" horiz-adv-x="659" 
d="M294 -182q-38 17 -84 17q-45 0 -79 -16q-45 -21 -45 -61q0 -53 71 -72q22 -5 50 -5q69 0 109 40l65 -52q-45 -45 -92 -61q-36 -12 -78 -12q-78 0 -138 41q-69 46 -69 120q0 75 69 120q61 40 140 40q17 0 42 -5v103h82v-171zM514 241q-29 0 -29 28q0 30 29 30q30 0 30 -30
q0 -28 -30 -28zM270 4q-29 0 -29 31q0 11 9 19.5t20 8.5q29 0 29 -28q0 -31 -29 -31zM270 483q-29 0 -29 28q0 31 29 31t29 -31q0 -28 -29 -28zM439 415q-30 0 -30 30q0 12 9 20.5t21 8.5q29 0 29 -29q0 -30 -29 -30zM495 341q-31 0 -31 30q0 12 9.5 21t21.5 9
q11 0 20.5 -9.5t9.5 -20.5q0 -30 -30 -30zM366 464q-31 0 -31 30q0 13 9.5 22t21.5 9q11 0 19.5 -10t8.5 -21q0 -30 -28 -30zM439 129q29 0 29 -30q0 -29 -29 -29q-12 0 -21 8.5t-9 20.5q0 30 30 30zM495 203q12 0 21 -9t9 -21q0 -11 -9.5 -20.5t-20.5 -9.5q-12 0 -21.5 9
t-9.5 21q0 30 31 30zM366 80q28 0 28 -30q0 -11 -8.5 -21t-19.5 -10q-12 0 -21.5 9t-9.5 22q0 30 31 30zM35 241q-30 0 -30 28q0 30 30 30q29 0 29 -30q0 -28 -29 -28zM110 415q-29 0 -29 30q0 29 29 29q12 0 21 -8.5t9 -20.5q0 -30 -30 -30zM54 341q-30 0 -30 30
q0 11 9.5 20.5t20.5 9.5q12 0 21.5 -9t9.5 -21q0 -30 -31 -30zM183 464q-28 0 -28 30q0 11 8.5 21t19.5 10q12 0 21.5 -9t9.5 -22q0 -30 -31 -30zM110 129q30 0 30 -30q0 -12 -9 -20.5t-21 -8.5q-29 0 -29 29q0 30 29 30zM54 203q31 0 31 -30q0 -12 -9.5 -21t-21.5 -9
q-11 0 -20.5 9.5t-9.5 20.5q0 12 9 21t21 9zM183 80q31 0 31 -30q0 -13 -9.5 -22t-21.5 -9q-11 0 -19.5 10t-8.5 21q0 30 28 30z" />
    <glyph glyph-name="mon.la.med.dot" unicode="&#x1060;" horiz-adv-x="659" 
d="M514 241q-29 0 -29 28q0 30 29 30q30 0 30 -30q0 -28 -30 -28zM270 4q-29 0 -29 31q0 11 9 19.5t20 8.5q29 0 29 -28q0 -31 -29 -31zM270 483q-29 0 -29 28q0 31 29 31t29 -31q0 -28 -29 -28zM439 415q-30 0 -30 30q0 12 9 20.5t21 8.5q29 0 29 -29q0 -30 -29 -30z
M495 341q-31 0 -31 30q0 12 9.5 21t21.5 9q11 0 20.5 -9.5t9.5 -20.5q0 -30 -30 -30zM366 464q-31 0 -31 30q0 13 9.5 22t21.5 9q11 0 19.5 -10t8.5 -21q0 -30 -28 -30zM439 129q29 0 29 -30q0 -29 -29 -29q-12 0 -21 8.5t-9 20.5q0 30 30 30zM495 203q12 0 21 -9t9 -21
q0 -11 -9.5 -20.5t-20.5 -9.5q-12 0 -21.5 9t-9.5 21q0 30 31 30zM366 80q28 0 28 -30q0 -11 -8.5 -21t-19.5 -10q-12 0 -21.5 9t-9.5 22q0 30 31 30zM35 241q-30 0 -30 28q0 30 30 30q29 0 29 -30q0 -28 -29 -28zM110 415q-29 0 -29 30q0 29 29 29q12 0 21 -8.5t9 -20.5
q0 -30 -30 -30zM54 341q-30 0 -30 30q0 11 9.5 20.5t20.5 9.5q12 0 21.5 -9t9.5 -21q0 -30 -31 -30zM183 464q-28 0 -28 30q0 11 8.5 21t19.5 10q12 0 21.5 -9t9.5 -22q0 -30 -31 -30zM110 129q30 0 30 -30q0 -12 -9 -20.5t-21 -8.5q-29 0 -29 29q0 30 29 30zM54 203
q31 0 31 -30q0 -12 -9.5 -21t-21.5 -9q-11 0 -20.5 9.5t-9.5 20.5q0 12 9 21t21 9zM183 80q31 0 31 -30q0 -13 -9.5 -22t-21.5 -9q-11 0 -19.5 10t-8.5 21q0 30 28 30zM51 -418q-17 0 -30 9t-13 23q0 8 4 16l210 381h90l-180 -347h262v-82h-343z" />
    <glyph glyph-name="sgaw.sha" unicode="&#x1061;" horiz-adv-x="670" 
d="M294 94q0 57 -61 90q-52 29 -112 25l-21 -7q5 -17 17 -33q67 -95 142 -95q18 0 27 8l8 6v6zM276 -418h-124v82h82v333q-110 13 -171.5 87t-61.5 187q0 120 77 197t198 77q120 0 198 -77t78 -197v-680l-89 1q3 17 3 47v632q0 82 -53.5 137t-136.5 55t-137 -55t-54 -137v-6
q30 9 66 9q89 0 155 -51q72 -55 72 -141q0 -76 -63 -88v-364q0 -48 -39 -48z" />
    <glyph glyph-name="sgaw.eu.vow.dot" unicode="&#x1062;" horiz-adv-x="874" 
d="M514 241q-29 0 -29 28q0 30 29 30q30 0 30 -30q0 -28 -30 -28zM270 4q-29 0 -29 31q0 11 9 19.5t20 8.5q29 0 29 -28q0 -31 -29 -31zM270 483q-29 0 -29 28q0 31 29 31t29 -31q0 -28 -29 -28zM439 415q-30 0 -30 30q0 12 9 20.5t21 8.5q29 0 29 -29q0 -30 -29 -30z
M495 341q-31 0 -31 30q0 12 9.5 21t21.5 9q11 0 20.5 -9.5t9.5 -20.5q0 -30 -30 -30zM366 464q-31 0 -31 30q0 13 9.5 22t21.5 9q11 0 19.5 -10t8.5 -21q0 -30 -28 -30zM439 129q29 0 29 -30q0 -29 -29 -29q-12 0 -21 8.5t-9 20.5q0 30 30 30zM495 203q12 0 21 -9t9 -21
q0 -11 -9.5 -20.5t-20.5 -9.5q-12 0 -21.5 9t-9.5 21q0 30 31 30zM366 80q28 0 28 -30q0 -11 -8.5 -21t-19.5 -10q-12 0 -21.5 9t-9.5 22q0 30 31 30zM35 241q-30 0 -30 28q0 30 30 30q29 0 29 -30q0 -28 -29 -28zM110 415q-29 0 -29 30q0 29 29 29q12 0 21 -8.5t9 -20.5
q0 -30 -30 -30zM54 341q-30 0 -30 30q0 11 9.5 20.5t20.5 9.5q12 0 21.5 -9t9.5 -21q0 -30 -31 -30zM183 464q-28 0 -28 30q0 11 8.5 21t19.5 10q12 0 21.5 -9t9.5 -22q0 -30 -31 -30zM110 129q30 0 30 -30q0 -12 -9 -20.5t-21 -8.5q-29 0 -29 29q0 30 29 30zM54 203
q31 0 31 -30q0 -12 -9.5 -21t-21.5 -9q-11 0 -20.5 9.5t-9.5 20.5q0 12 9 21t21 9zM183 80q31 0 31 -30q0 -13 -9.5 -22t-21.5 -9q-11 0 -19.5 10t-8.5 21q0 30 28 30zM603 558h153v-558h-87v483h-66v75z" />
    <glyph glyph-name="sgaw.hathi.ton.dot" unicode="&#x1063;" horiz-adv-x="1305" 
d="M514 241q-29 0 -29 28q0 30 29 30q30 0 30 -30q0 -28 -30 -28zM270 4q-29 0 -29 31q0 11 9 19.5t20 8.5q29 0 29 -28q0 -31 -29 -31zM270 483q-29 0 -29 28q0 31 29 31t29 -31q0 -28 -29 -28zM439 415q-30 0 -30 30q0 12 9 20.5t21 8.5q29 0 29 -29q0 -30 -29 -30z
M495 341q-31 0 -31 30q0 12 9.5 21t21.5 9q11 0 20.5 -9.5t9.5 -20.5q0 -30 -30 -30zM366 464q-31 0 -31 30q0 13 9.5 22t21.5 9q11 0 19.5 -10t8.5 -21q0 -30 -28 -30zM439 129q29 0 29 -30q0 -29 -29 -29q-12 0 -21 8.5t-9 20.5q0 30 30 30zM495 203q12 0 21 -9t9 -21
q0 -11 -9.5 -20.5t-20.5 -9.5q-12 0 -21.5 9t-9.5 21q0 30 31 30zM366 80q28 0 28 -30q0 -11 -8.5 -21t-19.5 -10q-12 0 -21.5 9t-9.5 22q0 30 31 30zM35 241q-30 0 -30 28q0 30 30 30q29 0 29 -30q0 -28 -29 -28zM110 415q-29 0 -29 30q0 29 29 29q12 0 21 -8.5t9 -20.5
q0 -30 -30 -30zM54 341q-30 0 -30 30q0 11 9.5 20.5t20.5 9.5q12 0 21.5 -9t9.5 -21q0 -30 -31 -30zM183 464q-28 0 -28 30q0 11 8.5 21t19.5 10q12 0 21.5 -9t9.5 -22q0 -30 -31 -30zM110 129q30 0 30 -30q0 -12 -9 -20.5t-21 -8.5q-29 0 -29 29q0 30 29 30zM54 203
q31 0 31 -30q0 -12 -9.5 -21t-21.5 -9q-11 0 -20.5 9.5t-9.5 20.5q0 12 9 21t21 9zM183 80q31 0 31 -30q0 -13 -9.5 -22t-21.5 -9q-11 0 -19.5 10t-8.5 21q0 30 28 30zM725 339q75 134 186 134q82 0 137 -55t55 -137q0 -83 -55 -137.5t-137 -54.5q-111 0 -186 133l-48 -25
h-3l-21 -14v-582h82v465q79 -61 176 -61q120 0 197 77.5t77 198.5q0 120 -77 197t-197 77q-161 0 -260 -177z" />
    <glyph glyph-name="sgaw.kepho.ton.dot" unicode="&#x1064;" horiz-adv-x="914" 
d="M514 241q-29 0 -29 28q0 30 29 30q30 0 30 -30q0 -28 -30 -28zM270 4q-29 0 -29 31q0 11 9 19.5t20 8.5q29 0 29 -28q0 -31 -29 -31zM270 483q-29 0 -29 28q0 31 29 31t29 -31q0 -28 -29 -28zM439 415q-30 0 -30 30q0 12 9 20.5t21 8.5q29 0 29 -29q0 -30 -29 -30z
M495 341q-31 0 -31 30q0 12 9.5 21t21.5 9q11 0 20.5 -9.5t9.5 -20.5q0 -30 -30 -30zM366 464q-31 0 -31 30q0 13 9.5 22t21.5 9q11 0 19.5 -10t8.5 -21q0 -30 -28 -30zM439 129q29 0 29 -30q0 -29 -29 -29q-12 0 -21 8.5t-9 20.5q0 30 30 30zM495 203q12 0 21 -9t9 -21
q0 -11 -9.5 -20.5t-20.5 -9.5q-12 0 -21.5 9t-9.5 21q0 30 31 30zM366 80q28 0 28 -30q0 -11 -8.5 -21t-19.5 -10q-12 0 -21.5 9t-9.5 22q0 30 31 30zM35 241q-30 0 -30 28q0 30 30 30q29 0 29 -30q0 -28 -29 -28zM110 415q-29 0 -29 30q0 29 29 29q12 0 21 -8.5t9 -20.5
q0 -30 -30 -30zM54 341q-30 0 -30 30q0 11 9.5 20.5t20.5 9.5q12 0 21.5 -9t9.5 -21q0 -30 -31 -30zM183 464q-28 0 -28 30q0 11 8.5 21t19.5 10q12 0 21.5 -9t9.5 -22q0 -30 -31 -30zM110 129q30 0 30 -30q0 -12 -9 -20.5t-21 -8.5q-29 0 -29 29q0 30 29 30zM54 203
q31 0 31 -30q0 -12 -9.5 -21t-21.5 -9q-11 0 -20.5 9.5t-9.5 20.5q0 12 9 21t21 9zM183 80q31 0 31 -30q0 -13 -9.5 -22t-21.5 -9q-11 0 -19.5 10t-8.5 21q0 30 28 30zM573 558h183v-470l119 -2l-2 -86h-204v483h-96v75z" />
    <glyph glyph-name="pwo.tha" unicode="&#x1065;" horiz-adv-x="651" 
d="M261 0q-164 0 -239 139l-21 39l72 39q75 -133 188 -133q83 0 136.5 53.5t53.5 136.5q0 82 -54.5 136.5t-135.5 54.5q-113 0 -188 -134l-72 39q101 177 260 177q119 0 196 -77t77 -196q0 -120 -76.5 -197t-196.5 -77z" />
    <glyph glyph-name="pwo.pwa" unicode="&#x1066;" horiz-adv-x="663" 
d="M435 -418h-323v82h283v363q-54 -24 -121 -24q-122 0 -199 76t-77 199q0 169 159 247l52 -63q-63 -24 -98 -79q-31 -48 -31 -105q0 -85 54.5 -138.5t139.5 -53.5q81 0 135.5 55t54.5 137q0 52 -37.5 106t-91.5 77l57 61l24 -12q44 -22 80 -73q50 -70 49 -159
q0 -116 -72 -193l1 -455q0 -48 -39 -48z" />
    <glyph glyph-name="pwo.eu.vow.dot" unicode="&#x1067;" horiz-adv-x="969" 
d="M752 143q-32 0 -32 -33t32 -33q34 0 34 33t-34 33zM780 211v287h78v-374h-1q1 -7 1 -14q0 -44 -31.5 -74t-74.5 -30q-44 0 -74 30t-30 74q0 45 29 75t75 30q15 0 28 -4zM514 241q-29 0 -29 28q0 30 29 30q30 0 30 -30q0 -28 -30 -28zM270 4q-29 0 -29 31q0 11 9 19.5
t20 8.5q29 0 29 -28q0 -31 -29 -31zM270 483q-29 0 -29 28q0 31 29 31t29 -31q0 -28 -29 -28zM439 415q-30 0 -30 30q0 12 9 20.5t21 8.5q29 0 29 -29q0 -30 -29 -30zM495 341q-31 0 -31 30q0 12 9.5 21t21.5 9q11 0 20.5 -9.5t9.5 -20.5q0 -30 -30 -30zM366 464
q-31 0 -31 30q0 13 9.5 22t21.5 9q11 0 19.5 -10t8.5 -21q0 -30 -28 -30zM439 129q29 0 29 -30q0 -29 -29 -29q-12 0 -21 8.5t-9 20.5q0 30 30 30zM495 203q12 0 21 -9t9 -21q0 -11 -9.5 -20.5t-20.5 -9.5q-12 0 -21.5 9t-9.5 21q0 30 31 30zM366 80q28 0 28 -30
q0 -11 -8.5 -21t-19.5 -10q-12 0 -21.5 9t-9.5 22q0 30 31 30zM35 241q-30 0 -30 28q0 30 30 30q29 0 29 -30q0 -28 -29 -28zM110 415q-29 0 -29 30q0 29 29 29q12 0 21 -8.5t9 -20.5q0 -30 -30 -30zM54 341q-30 0 -30 30q0 11 9.5 20.5t20.5 9.5q12 0 21.5 -9t9.5 -21
q0 -30 -31 -30zM183 464q-28 0 -28 30q0 11 8.5 21t19.5 10q12 0 21.5 -9t9.5 -22q0 -30 -31 -30zM110 129q30 0 30 -30q0 -12 -9 -20.5t-21 -8.5q-29 0 -29 29q0 30 29 30zM54 203q31 0 31 -30q0 -12 -9.5 -21t-21.5 -9q-11 0 -20.5 9.5t-9.5 20.5q0 12 9 21t21 9zM183 80
q31 0 31 -30q0 -13 -9.5 -22t-21.5 -9q-11 0 -19.5 10t-8.5 21q0 30 28 30z" />
    <glyph glyph-name="pwo.ue.vow.dot" unicode="&#x1068;" horiz-adv-x="1000" 
d="M770 87v291h78v-378h-270v87h192zM504 241q-29 0 -29 28q0 30 29 30q30 0 30 -30q0 -28 -30 -28zM260 4q-29 0 -29 31q0 11 9 19.5t20 8.5q29 0 29 -28q0 -31 -29 -31zM260 483q-29 0 -29 28q0 31 29 31t29 -31q0 -28 -29 -28zM429 415q-30 0 -30 30q0 12 9 20.5t21 8.5
q29 0 29 -29q0 -30 -29 -30zM485 341q-31 0 -31 30q0 12 9.5 21t21.5 9q11 0 20.5 -9.5t9.5 -20.5q0 -30 -30 -30zM356 464q-31 0 -31 30q0 13 9.5 22t21.5 9q11 0 19.5 -10t8.5 -21q0 -30 -28 -30zM429 129q29 0 29 -30q0 -29 -29 -29q-12 0 -21 8.5t-9 20.5q0 30 30 30z
M485 203q12 0 21 -9t9 -21q0 -11 -9.5 -20.5t-20.5 -9.5q-12 0 -21.5 9t-9.5 21q0 30 31 30zM356 80q28 0 28 -30q0 -11 -8.5 -21t-19.5 -10q-12 0 -21.5 9t-9.5 22q0 30 31 30zM25 241q-30 0 -30 28q0 30 30 30q29 0 29 -30q0 -28 -29 -28zM100 415q-29 0 -29 30
q0 29 29 29q12 0 21 -8.5t9 -20.5q0 -30 -30 -30zM44 341q-30 0 -30 30q0 11 9.5 20.5t20.5 9.5q12 0 21.5 -9t9.5 -21q0 -30 -31 -30zM173 464q-28 0 -28 30q0 11 8.5 21t19.5 10q12 0 21.5 -9t9.5 -22q0 -30 -31 -30zM100 129q30 0 30 -30q0 -12 -9 -20.5t-21 -8.5
q-29 0 -29 29q0 30 29 30zM44 203q31 0 31 -30q0 -12 -9.5 -21t-21.5 -9q-11 0 -20.5 9.5t-9.5 20.5q0 12 9 21t21 9zM173 80q31 0 31 -30q0 -13 -9.5 -22t-21.5 -9q-11 0 -19.5 10t-8.5 21q0 30 28 30zM802 406q-44 0 -74 30t-30 74q0 45 29 75t75 30q45 0 75.5 -30
t30.5 -75q0 -44 -31.5 -74t-74.5 -30zM802 543q-32 0 -32 -33t32 -33q34 0 34 33t-34 33z" />
    <glyph glyph-name="pwo.tone1.dot" unicode="&#x1069;" horiz-adv-x="1000" 
d="M614 491q47 29 96 29q50 0 89.5 -25.5t57.5 -71.5q12 -32 11 -64q-1 -51 -37 -106q-26 -39 -73 -89q-13 -16 -40 -46q-6 -9 -8 -15q-3 -12 11 -19q9 -4 28 -5q15 2 19.5 7t10.5 22h70q-5 -65 -46 -88q-25 -15 -66 -15q-49 0 -81 23q-37 26 -37 72q0 37 23 73q10 16 49 60
l8 8q43 49 47 54q20 28 26 65q-3 27 -19.5 46.5t-42.5 19.5q-22 0 -46 -17zM514 241q-29 0 -29 28q0 30 29 30q30 0 30 -30q0 -28 -30 -28zM270 4q-29 0 -29 31q0 11 9 19.5t20 8.5q29 0 29 -28q0 -31 -29 -31zM270 483q-29 0 -29 28q0 31 29 31t29 -31q0 -28 -29 -28z
M439 415q-30 0 -30 30q0 12 9 20.5t21 8.5q29 0 29 -29q0 -30 -29 -30zM495 341q-31 0 -31 30q0 12 9.5 21t21.5 9q11 0 20.5 -9.5t9.5 -20.5q0 -30 -30 -30zM366 464q-31 0 -31 30q0 13 9.5 22t21.5 9q11 0 19.5 -10t8.5 -21q0 -30 -28 -30zM439 129q29 0 29 -30
q0 -29 -29 -29q-12 0 -21 8.5t-9 20.5q0 30 30 30zM495 203q12 0 21 -9t9 -21q0 -11 -9.5 -20.5t-20.5 -9.5q-12 0 -21.5 9t-9.5 21q0 30 31 30zM366 80q28 0 28 -30q0 -11 -8.5 -21t-19.5 -10q-12 0 -21.5 9t-9.5 22q0 30 31 30zM35 241q-30 0 -30 28q0 30 30 30
q29 0 29 -30q0 -28 -29 -28zM110 415q-29 0 -29 30q0 29 29 29q12 0 21 -8.5t9 -20.5q0 -30 -30 -30zM54 341q-30 0 -30 30q0 11 9.5 20.5t20.5 9.5q12 0 21.5 -9t9.5 -21q0 -30 -31 -30zM183 464q-28 0 -28 30q0 11 8.5 21t19.5 10q12 0 21.5 -9t9.5 -22q0 -30 -31 -30z
M110 129q30 0 30 -30q0 -12 -9 -20.5t-21 -8.5q-29 0 -29 29q0 30 29 30zM54 203q31 0 31 -30q0 -12 -9.5 -21t-21.5 -9q-11 0 -20.5 9.5t-9.5 20.5q0 12 9 21t21 9zM183 80q31 0 31 -30q0 -13 -9.5 -22t-21.5 -9q-11 0 -19.5 10t-8.5 21q0 30 28 30z" />
    <glyph glyph-name="pwo.tone2.dot" unicode="&#x106a;" horiz-adv-x="1000" 
d="M717 -3q-47 0 -84 37q-40 39 -41 101l87 -1q9 -49 50 -49q22 0 36.5 15.5t17.5 38.5l-1 384h82v-390q0 -41 -23 -75t-61 -51q-25 -10 -63 -10zM514 241q-29 0 -29 28q0 30 29 30q30 0 30 -30q0 -28 -30 -28zM270 4q-29 0 -29 31q0 11 9 19.5t20 8.5q29 0 29 -28
q0 -31 -29 -31zM270 483q-29 0 -29 28q0 31 29 31t29 -31q0 -28 -29 -28zM439 415q-30 0 -30 30q0 12 9 20.5t21 8.5q29 0 29 -29q0 -30 -29 -30zM495 341q-31 0 -31 30q0 12 9.5 21t21.5 9q11 0 20.5 -9.5t9.5 -20.5q0 -30 -30 -30zM366 464q-31 0 -31 30q0 13 9.5 22
t21.5 9q11 0 19.5 -10t8.5 -21q0 -30 -28 -30zM439 129q29 0 29 -30q0 -29 -29 -29q-12 0 -21 8.5t-9 20.5q0 30 30 30zM495 203q12 0 21 -9t9 -21q0 -11 -9.5 -20.5t-20.5 -9.5q-12 0 -21.5 9t-9.5 21q0 30 31 30zM366 80q28 0 28 -30q0 -11 -8.5 -21t-19.5 -10
q-12 0 -21.5 9t-9.5 22q0 30 31 30zM35 241q-30 0 -30 28q0 30 30 30q29 0 29 -30q0 -28 -29 -28zM110 415q-29 0 -29 30q0 29 29 29q12 0 21 -8.5t9 -20.5q0 -30 -30 -30zM54 341q-30 0 -30 30q0 11 9.5 20.5t20.5 9.5q12 0 21.5 -9t9.5 -21q0 -30 -31 -30zM183 464
q-28 0 -28 30q0 11 8.5 21t19.5 10q12 0 21.5 -9t9.5 -22q0 -30 -31 -30zM110 129q30 0 30 -30q0 -12 -9 -20.5t-21 -8.5q-29 0 -29 29q0 30 29 30zM54 203q31 0 31 -30q0 -12 -9.5 -21t-21.5 -9q-11 0 -20.5 9.5t-9.5 20.5q0 12 9 21t21 9zM183 80q31 0 31 -30
q0 -13 -9.5 -22t-21.5 -9q-11 0 -19.5 10t-8.5 21q0 30 28 30z" />
    <glyph glyph-name="pwo.tone3.dot" unicode="&#x106b;" horiz-adv-x="1000" 
d="M717 523q-47 0 -84 -37q-40 -39 -41 -101l87 1q9 49 50 49q22 0 36.5 -15.5t17.5 -38.5l-1 -384h82v390q0 41 -23 75t-61 51q-25 10 -63 10zM514 241q-29 0 -29 28q0 30 29 30q30 0 30 -30q0 -28 -30 -28zM270 4q-29 0 -29 31q0 11 9 19.5t20 8.5q29 0 29 -28
q0 -31 -29 -31zM270 483q-29 0 -29 28q0 31 29 31t29 -31q0 -28 -29 -28zM439 415q-30 0 -30 30q0 12 9 20.5t21 8.5q29 0 29 -29q0 -30 -29 -30zM495 341q-31 0 -31 30q0 12 9.5 21t21.5 9q11 0 20.5 -9.5t9.5 -20.5q0 -30 -30 -30zM366 464q-31 0 -31 30q0 13 9.5 22
t21.5 9q11 0 19.5 -10t8.5 -21q0 -30 -28 -30zM439 129q29 0 29 -30q0 -29 -29 -29q-12 0 -21 8.5t-9 20.5q0 30 30 30zM495 203q12 0 21 -9t9 -21q0 -11 -9.5 -20.5t-20.5 -9.5q-12 0 -21.5 9t-9.5 21q0 30 31 30zM366 80q28 0 28 -30q0 -11 -8.5 -21t-19.5 -10
q-12 0 -21.5 9t-9.5 22q0 30 31 30zM35 241q-30 0 -30 28q0 30 30 30q29 0 29 -30q0 -28 -29 -28zM110 415q-29 0 -29 30q0 29 29 29q12 0 21 -8.5t9 -20.5q0 -30 -30 -30zM54 341q-30 0 -30 30q0 11 9.5 20.5t20.5 9.5q12 0 21.5 -9t9.5 -21q0 -30 -31 -30zM183 464
q-28 0 -28 30q0 11 8.5 21t19.5 10q12 0 21.5 -9t9.5 -22q0 -30 -31 -30zM110 129q30 0 30 -30q0 -12 -9 -20.5t-21 -8.5q-29 0 -29 29q0 30 29 30zM54 203q31 0 31 -30q0 -12 -9.5 -21t-21.5 -9q-11 0 -20.5 9.5t-9.5 20.5q0 12 9 21t21 9zM183 80q31 0 31 -30
q0 -13 -9.5 -22t-21.5 -9q-11 0 -19.5 10t-8.5 21q0 30 28 30z" />
    <glyph glyph-name="pwo.tone4.dot" unicode="&#x106c;" horiz-adv-x="988" 
d="M739 -3q47 0 85.5 38t39.5 100l-87 -1q-9 -49 -50 -49q-22 0 -36.5 15.5t-17.5 38.5l1 384h-82v-390q0 -41 23 -75t61 -51q25 -10 63 -10zM514 241q-29 0 -29 28q0 30 29 30q30 0 30 -30q0 -28 -30 -28zM270 4q-29 0 -29 31q0 11 9 19.5t20 8.5q29 0 29 -28
q0 -31 -29 -31zM270 483q-29 0 -29 28q0 31 29 31t29 -31q0 -28 -29 -28zM439 415q-30 0 -30 30q0 12 9 20.5t21 8.5q29 0 29 -29q0 -30 -29 -30zM495 341q-31 0 -31 30q0 12 9.5 21t21.5 9q11 0 20.5 -9.5t9.5 -20.5q0 -30 -30 -30zM366 464q-31 0 -31 30q0 13 9.5 22
t21.5 9q11 0 19.5 -10t8.5 -21q0 -30 -28 -30zM439 129q29 0 29 -30q0 -29 -29 -29q-12 0 -21 8.5t-9 20.5q0 30 30 30zM495 203q12 0 21 -9t9 -21q0 -11 -9.5 -20.5t-20.5 -9.5q-12 0 -21.5 9t-9.5 21q0 30 31 30zM366 80q28 0 28 -30q0 -11 -8.5 -21t-19.5 -10
q-12 0 -21.5 9t-9.5 22q0 30 31 30zM35 241q-30 0 -30 28q0 30 30 30q29 0 29 -30q0 -28 -29 -28zM110 415q-29 0 -29 30q0 29 29 29q12 0 21 -8.5t9 -20.5q0 -30 -30 -30zM54 341q-30 0 -30 30q0 11 9.5 20.5t20.5 9.5q12 0 21.5 -9t9.5 -21q0 -30 -31 -30zM183 464
q-28 0 -28 30q0 11 8.5 21t19.5 10q12 0 21.5 -9t9.5 -22q0 -30 -31 -30zM110 129q30 0 30 -30q0 -12 -9 -20.5t-21 -8.5q-29 0 -29 29q0 30 29 30zM54 203q31 0 31 -30q0 -12 -9.5 -21t-21.5 -9q-11 0 -20.5 9.5t-9.5 20.5q0 12 9 21t21 9zM183 80q31 0 31 -30
q0 -13 -9.5 -22t-21.5 -9q-11 0 -19.5 10t-8.5 21q0 30 28 30z" />
    <glyph glyph-name="pwo.tone5.dot" unicode="&#x106d;" horiz-adv-x="1000" 
d="M514 241q-29 0 -29 28q0 30 29 30q30 0 30 -30q0 -28 -30 -28zM270 4q-29 0 -29 31q0 11 9 19.5t20 8.5q29 0 29 -28q0 -31 -29 -31zM270 483q-29 0 -29 28q0 31 29 31t29 -31q0 -28 -29 -28zM439 415q-30 0 -30 30q0 12 9 20.5t21 8.5q29 0 29 -29q0 -30 -29 -30z
M495 341q-31 0 -31 30q0 12 9.5 21t21.5 9q11 0 20.5 -9.5t9.5 -20.5q0 -30 -30 -30zM366 464q-31 0 -31 30q0 13 9.5 22t21.5 9q11 0 19.5 -10t8.5 -21q0 -30 -28 -30zM439 129q29 0 29 -30q0 -29 -29 -29q-12 0 -21 8.5t-9 20.5q0 30 30 30zM495 203q12 0 21 -9t9 -21
q0 -11 -9.5 -20.5t-20.5 -9.5q-12 0 -21.5 9t-9.5 21q0 30 31 30zM366 80q28 0 28 -30q0 -11 -8.5 -21t-19.5 -10q-12 0 -21.5 9t-9.5 22q0 30 31 30zM35 241q-30 0 -30 28q0 30 30 30q29 0 29 -30q0 -28 -29 -28zM110 415q-29 0 -29 30q0 29 29 29q12 0 21 -8.5t9 -20.5
q0 -30 -30 -30zM54 341q-30 0 -30 30q0 11 9.5 20.5t20.5 9.5q12 0 21.5 -9t9.5 -21q0 -30 -31 -30zM183 464q-28 0 -28 30q0 11 8.5 21t19.5 10q12 0 21.5 -9t9.5 -22q0 -30 -31 -30zM110 129q30 0 30 -30q0 -12 -9 -20.5t-21 -8.5q-29 0 -29 29q0 30 29 30zM54 203
q31 0 31 -30q0 -12 -9.5 -21t-21.5 -9q-11 0 -20.5 9.5t-9.5 20.5q0 12 9 21t21 9zM183 80q31 0 31 -30q0 -13 -9.5 -22t-21.5 -9q-11 0 -19.5 10t-8.5 21q0 30 28 30zM664 116q24 -17 46 -17q26 0 42.5 19.5t19.5 46.5q-9 51 -50 94q-8 8 -23 25l-8 8q-39 44 -49 60
q-23 36 -23 73q0 46 37 72q32 23 81 23q66 0 96 -44q13 -19 16 -59h-70q-6 17 -10.5 22t-19.5 7q-44 -2 -39 -24q2 -6 8 -15l45 -51q70 -73 93 -134q12 -30 12 -56q3 -68 -43.5 -114.5t-114.5 -46.5q-49 0 -96 29z" />
    <glyph glyph-name="pwo.nna" unicode="&#x106e;" horiz-adv-x="1194" 
d="M637 468q55 47 161 47q119 0 195 -77.5t76 -196.5q0 -164 -137 -238q-33 -7 -73 -18l-46 62q31 9 68 23q107 74 107 171q0 80 -55 135t-135 55q-57 0 -100 -25q36 -53 41 -165q3 -61 -18 -122q-28 -81 -89 -126l-53 63q84 67 79 185q-4 86 -45 135q-24 28 -50 28
q-22 0 -49 -22q35 -61 35 -141q0 -176 -157 -248l-53 63q129 78 129 185q0 80 -55 135t-135 55q-83 0 -138.5 -53.5t-55.5 -136.5q0 -107 129 -183l-57 -63l-24 12q-130 65 -130 234q0 120 77.5 197t198.5 77q110 0 184 -67q52 51 95 51q39 0 80 -31z" />
    <glyph glyph-name="pwo.ywa" unicode="&#x106f;" horiz-adv-x="1141" 
d="M906 -418h-124v82h82v358q-54 -25 -121 -25q-36 0 -72 10l15 84q42 -11 57 -11q81 0 136.5 56t55.5 138q0 81 -55 135.5t-137 54.5q-85 0 -137.5 -49t-52.5 -132v-9q0 -122 -78 -198.5t-200 -76.5q-124 0 -200 75.5t-76 199.5q0 172 161 249l51 -66q-66 -26 -100 -80
q-29 -47 -29 -103q0 -83 55 -137.5t138 -54.5q89 0 143 61q48 55 48 131v24q-9 88 -125 159l54 64l26 -15q54 -32 90 -84q83 125 232 125q121 0 198.5 -76.5t77.5 -196.5q0 -117 -74 -194v-450q0 -48 -39 -48z" />
    <glyph glyph-name="pwo.ghwa" unicode="&#x1070;" horiz-adv-x="1147" 
d="M915 -418h-123v82h83v360q-58 -26 -127 -26q-148 0 -232 125q-86 -126 -234 -126q-121 0 -199.5 77t-78.5 197q0 63 41 114q18 14 105 84l-12 6q-15 0 -47 -25l-40 79q36 27 103 27q37 0 65 -25.5t28 -61.5t-49 -75q-9 -9 -74 -54q-30 -33 -30 -69q0 -81 53 -133.5
t135 -52.5q81 0 134 52.5t53 133.5q0 110 -136 185l42 78l39 -21q136 -74 145 -224h2v-16q0 -82 53 -134t134 -52q82 0 135 52t53 134q0 79 -54 131.5t-134 52.5q-27 0 -73 -15l6 96q48 8 67 8q122 0 200 -75.5t78 -197.5q0 -117 -72 -192v-451q0 -48 -39 -48z" />
    <glyph glyph-name="geba.i.vow.dot" unicode="&#x1071;" horiz-adv-x="659" 
d="M514 241q-29 0 -29 28q0 30 29 30q30 0 30 -30q0 -28 -30 -28zM270 4q-29 0 -29 31q0 11 9 19.5t20 8.5q29 0 29 -28q0 -31 -29 -31zM270 483q-29 0 -29 28q0 31 29 31t29 -31q0 -28 -29 -28zM439 415q-30 0 -30 30q0 12 9 20.5t21 8.5q29 0 29 -29q0 -30 -29 -30z
M495 341q-31 0 -31 30q0 12 9.5 21t21.5 9q11 0 20.5 -9.5t9.5 -20.5q0 -30 -30 -30zM366 464q-31 0 -31 30q0 13 9.5 22t21.5 9q11 0 19.5 -10t8.5 -21q0 -30 -28 -30zM439 129q29 0 29 -30q0 -29 -29 -29q-12 0 -21 8.5t-9 20.5q0 30 30 30zM495 203q12 0 21 -9t9 -21
q0 -11 -9.5 -20.5t-20.5 -9.5q-12 0 -21.5 9t-9.5 21q0 30 31 30zM366 80q28 0 28 -30q0 -11 -8.5 -21t-19.5 -10q-12 0 -21.5 9t-9.5 22q0 30 31 30zM35 241q-30 0 -30 28q0 30 30 30q29 0 29 -30q0 -28 -29 -28zM110 415q-29 0 -29 30q0 29 29 29q12 0 21 -8.5t9 -20.5
q0 -30 -30 -30zM54 341q-30 0 -30 30q0 11 9.5 20.5t20.5 9.5q12 0 21.5 -9t9.5 -21q0 -30 -31 -30zM183 464q-28 0 -28 30q0 11 8.5 21t19.5 10q12 0 21.5 -9t9.5 -22q0 -30 -31 -30zM110 129q30 0 30 -30q0 -12 -9 -20.5t-21 -8.5q-29 0 -29 29q0 30 29 30zM54 203
q31 0 31 -30q0 -12 -9.5 -21t-21.5 -9q-11 0 -20.5 9.5t-9.5 20.5q0 12 9 21t21 9zM183 80q31 0 31 -30q0 -13 -9.5 -22t-21.5 -9q-11 0 -19.5 10t-8.5 21q0 30 28 30zM262 789q0 -44 -30 -73.5t-74 -29.5q-45 0 -75 29t-30 74t30 76t75 31q44 0 74 -31.5t30 -75.5zM125 789
q0 -31 33 -31t33 31q0 35 -33 35t-33 -35zM542 789q0 -44 -30 -73.5t-74 -29.5q-45 0 -75 29t-30 74t30 76t75 31q44 0 74 -31.5t30 -75.5zM405 789q0 -31 33 -31t33 31q0 35 -33 35t-33 -35z" />
    <glyph glyph-name="kayah.oe.vow.dot" unicode="&#x1072;" horiz-adv-x="659" 
d="M514 241q-29 0 -29 28q0 30 29 30q30 0 30 -30q0 -28 -30 -28zM270 4q-29 0 -29 31q0 11 9 19.5t20 8.5q29 0 29 -28q0 -31 -29 -31zM270 483q-29 0 -29 28q0 31 29 31t29 -31q0 -28 -29 -28zM439 415q-30 0 -30 30q0 12 9 20.5t21 8.5q29 0 29 -29q0 -30 -29 -30z
M495 341q-31 0 -31 30q0 12 9.5 21t21.5 9q11 0 20.5 -9.5t9.5 -20.5q0 -30 -30 -30zM366 464q-31 0 -31 30q0 13 9.5 22t21.5 9q11 0 19.5 -10t8.5 -21q0 -30 -28 -30zM439 129q29 0 29 -30q0 -29 -29 -29q-12 0 -21 8.5t-9 20.5q0 30 30 30zM495 203q12 0 21 -9t9 -21
q0 -11 -9.5 -20.5t-20.5 -9.5q-12 0 -21.5 9t-9.5 21q0 30 31 30zM366 80q28 0 28 -30q0 -11 -8.5 -21t-19.5 -10q-12 0 -21.5 9t-9.5 22q0 30 31 30zM35 241q-30 0 -30 28q0 30 30 30q29 0 29 -30q0 -28 -29 -28zM110 415q-29 0 -29 30q0 29 29 29q12 0 21 -8.5t9 -20.5
q0 -30 -30 -30zM54 341q-30 0 -30 30q0 11 9.5 20.5t20.5 9.5q12 0 21.5 -9t9.5 -21q0 -30 -31 -30zM183 464q-28 0 -28 30q0 11 8.5 21t19.5 10q12 0 21.5 -9t9.5 -22q0 -30 -31 -30zM110 129q30 0 30 -30q0 -12 -9 -20.5t-21 -8.5q-29 0 -29 29q0 30 29 30zM54 203
q31 0 31 -30q0 -12 -9.5 -21t-21.5 -9q-11 0 -20.5 9.5t-9.5 20.5q0 12 9 21t21 9zM183 80q31 0 31 -30q0 -13 -9.5 -22t-21.5 -9q-11 0 -19.5 10t-8.5 21q0 30 28 30zM452 702q-11 -18 -37 -51q-59 -61 -142 -61q-86 0 -144 59t-58 145t58.5 144.5t145.5 58.5q85 0 142 -59
q22 -22 35 -48l-71 -46q-28 72 -108 72q-54 0 -87.5 -34t-33.5 -88q0 -51 33.5 -84.5t84.5 -33.5q82 0 111 69z" />
    <glyph glyph-name="kayah.u.vow.dot" unicode="&#x1073;" horiz-adv-x="659" 
d="M15 704l281 247q32 -28 244 -196q14 -11 60 -48l-13 -65l-289 220l-271 -222zM514 241q-29 0 -29 28q0 30 29 30q30 0 30 -30q0 -28 -30 -28zM270 4q-29 0 -29 31q0 11 9 19.5t20 8.5q29 0 29 -28q0 -31 -29 -31zM270 483q-29 0 -29 28q0 31 29 31t29 -31q0 -28 -29 -28z
M439 415q-30 0 -30 30q0 12 9 20.5t21 8.5q29 0 29 -29q0 -30 -29 -30zM495 341q-31 0 -31 30q0 12 9.5 21t21.5 9q11 0 20.5 -9.5t9.5 -20.5q0 -30 -30 -30zM366 464q-31 0 -31 30q0 13 9.5 22t21.5 9q11 0 19.5 -10t8.5 -21q0 -30 -28 -30zM439 129q29 0 29 -30
q0 -29 -29 -29q-12 0 -21 8.5t-9 20.5q0 30 30 30zM495 203q12 0 21 -9t9 -21q0 -11 -9.5 -20.5t-20.5 -9.5q-12 0 -21.5 9t-9.5 21q0 30 31 30zM366 80q28 0 28 -30q0 -11 -8.5 -21t-19.5 -10q-12 0 -21.5 9t-9.5 22q0 30 31 30zM35 241q-30 0 -30 28q0 30 30 30
q29 0 29 -30q0 -28 -29 -28zM110 415q-29 0 -29 30q0 29 29 29q12 0 21 -8.5t9 -20.5q0 -30 -30 -30zM54 341q-30 0 -30 30q0 11 9.5 20.5t20.5 9.5q12 0 21.5 -9t9.5 -21q0 -30 -31 -30zM183 464q-28 0 -28 30q0 11 8.5 21t19.5 10q12 0 21.5 -9t9.5 -22q0 -30 -31 -30z
M110 129q30 0 30 -30q0 -12 -9 -20.5t-21 -8.5q-29 0 -29 29q0 30 29 30zM54 203q31 0 31 -30q0 -12 -9.5 -21t-21.5 -9q-11 0 -20.5 9.5t-9.5 20.5q0 12 9 21t21 9zM183 80q31 0 31 -30q0 -13 -9.5 -22t-21.5 -9q-11 0 -19.5 10t-8.5 21q0 30 28 30z" />
    <glyph glyph-name="kayah.ee.vow.dot" unicode="&#x1074;" horiz-adv-x="659" 
d="M514 241q-29 0 -29 28q0 30 29 30q30 0 30 -30q0 -28 -30 -28zM270 4q-29 0 -29 31q0 11 9 19.5t20 8.5q29 0 29 -28q0 -31 -29 -31zM270 483q-29 0 -29 28q0 31 29 31t29 -31q0 -28 -29 -28zM439 415q-30 0 -30 30q0 12 9 20.5t21 8.5q29 0 29 -29q0 -30 -29 -30z
M495 341q-31 0 -31 30q0 12 9.5 21t21.5 9q11 0 20.5 -9.5t9.5 -20.5q0 -30 -30 -30zM366 464q-31 0 -31 30q0 13 9.5 22t21.5 9q11 0 19.5 -10t8.5 -21q0 -30 -28 -30zM439 129q29 0 29 -30q0 -29 -29 -29q-12 0 -21 8.5t-9 20.5q0 30 30 30zM495 203q12 0 21 -9t9 -21
q0 -11 -9.5 -20.5t-20.5 -9.5q-12 0 -21.5 9t-9.5 21q0 30 31 30zM366 80q28 0 28 -30q0 -11 -8.5 -21t-19.5 -10q-12 0 -21.5 9t-9.5 22q0 30 31 30zM35 241q-30 0 -30 28q0 30 30 30q29 0 29 -30q0 -28 -29 -28zM110 415q-29 0 -29 30q0 29 29 29q12 0 21 -8.5t9 -20.5
q0 -30 -30 -30zM54 341q-30 0 -30 30q0 11 9.5 20.5t20.5 9.5q12 0 21.5 -9t9.5 -21q0 -30 -31 -30zM183 464q-28 0 -28 30q0 11 8.5 21t19.5 10q12 0 21.5 -9t9.5 -22q0 -30 -31 -30zM110 129q30 0 30 -30q0 -12 -9 -20.5t-21 -8.5q-29 0 -29 29q0 30 29 30zM54 203
q31 0 31 -30q0 -12 -9.5 -21t-21.5 -9q-11 0 -20.5 9.5t-9.5 20.5q0 12 9 21t21 9zM183 80q31 0 31 -30q0 -13 -9.5 -22t-21.5 -9q-11 0 -19.5 10t-8.5 21q0 30 28 30zM363 984q17 -11 51 -37q61 -60 61 -142q0 -86 -59 -144.5t-145 -58.5t-144.5 59t-58.5 145t59 143
q22 21 48 35l46 -71q-72 -28 -72 -108q0 -54 33.5 -88t88.5 -34q51 0 84.5 34t33.5 85q0 82 -69 111z" />
    <glyph glyph-name="shan.ka" unicode="&#x1075;" horiz-adv-x="670" 
d="M28 64q45 -64 105 -64q52 0 89 37t37 90q0 52 -37 89t-89 37q-19 0 -37 -5q-18 16 -7 81q21 81 98 115q37 17 90 17q83 0 138 -55q48 -48 48 -131q0 -86 -49 -133q-19 -19 -29 -26q-15 -12 -36 -22l41 -74q53 24 85 59q74 78 70 194q-3 124 -76 196q-79 77 -195 77
q-121 0 -195 -76q-81 -84 -81 -195q0 -35 14 -67q21 -46 64 -45q12 1 28 4q12 2 28 2q43 0 43 -43q0 -42 -43 -42q-13 0 -36 19z" />
    <glyph glyph-name="shan.kha" unicode="&#x1076;" horiz-adv-x="663" 
d="M469 77q-78 -77 -205 -77q-143 0 -224 113q-33 45 -33 87q0 50 34.5 75.5t83.5 25.5q87 0 160.5 -58t82.5 -137q49 36 70 69q24 40 26 98q3 81 -52.5 135t-137.5 56q-8 -55 -34.5 -79t-84.5 -23q-56 1 -79 13q-31 16 -45 66l7 55l98 39q-23 -28 -23 -63q2 -14 15.5 -25
t30.5 -11q12 0 35 14q1 10 12 62q12 33 45 37q10 1 22 1q57 0 105 -20q41 -17 62 -33t47 -49q57 -76 57 -167q0 -130 -75 -204zM133 221q-40 -1 -40 -17q0 -10 23 -48q62 -69 146 -73l21 -1q-1 52 -56 104q-39 36 -94 35z" />
    <glyph glyph-name="shan.ga" unicode="&#x1077;" horiz-adv-x="670" 
d="M28 64l68 39q23 -19 36 -19q43 0 43 42q0 43 -43 43q-15 0 -29 -2.5t-27 -3.5q-43 -2 -64 45q-14 32 -14 67q0 111 81 195q74 76 195 76q116 0 195 -77q73 -72 76 -196q4 -116 -70 -194q-32 -35 -85 -59l-39 50q-36 46 -36 112q0 57 28 103q31 51 87 74q1 1 1 3
q0 8 -6.5 24.5t-9.5 19.5q-55 55 -138 55q-85 0 -134 -46q-42 -39 -54 -86q-11 -65 7 -81q18 5 37 5q52 0 89 -37t37 -89q0 -53 -37 -90t-89 -37q-60 0 -105 64zM441 271q-46 -42 -46 -72q0 -29 9 -45q6 -8 13 -17q36 43 36 79q0 24 -12 55z" />
    <glyph glyph-name="shan.ca" unicode="&#x1078;" horiz-adv-x="1141" 
d="M275 0q55 0 118 27l-31 75q-57 -18 -87 -18q-85 0 -139.5 53t-54.5 137q0 82 56 136.5t138 54.5q84 0 137 -53t53 -138v-9l2 -3q6 -120 81.5 -191t195.5 -71q121 0 198.5 77t77.5 197q0 124 -76 198.5t-200 74.5q-150 0 -235 -127q-84 127 -234 127q-122 0 -199 -75.5
t-77 -197.5q0 -120 77.5 -197t198.5 -77zM744 465q83 0 138.5 -54t55.5 -137t-55.5 -136.5t-138.5 -53.5t-136.5 53.5t-53.5 136.5t53.5 137t136.5 54z" />
    <glyph glyph-name="shan.za" unicode="&#x1079;" horiz-adv-x="1142" 
d="M1020 274q0 -120 -77.5 -197t-198.5 -77q-120 0 -195.5 71t-81.5 191l-2 3v9q0 85 -53 138t-137 53q-82 0 -138 -54.5t-56 -136.5q0 -25 20 -65q7 7 17 16q32 13 67 13q71 0 121 -46q53 -49 52 -123q5 -53 -28 -66l-52 -8q-114 0 -196.5 82.5t-82.5 196.5q0 122 77 197.5
t199 75.5q150 0 234 -127q85 127 235 127q124 0 200 -74.5t76 -198.5zM938 274q0 83 -55.5 137t-138.5 54t-136.5 -54t-53.5 -137t53.5 -136.5t136.5 -53.5t138.5 53.5t55.5 136.5zM272 88q2 0 2 3q0 14 -26 39q-30 29 -61 30q-25 0 -44 -9q63 -63 129 -63z" />
    <glyph glyph-name="shan.nya" unicode="&#x107a;" horiz-adv-x="1144" 
d="M744 -1q-114 0 -186 59v-383h120v-88h-213v690q-1 82 -54.5 135t-135.5 53t-138 -55t-56 -136q0 -89 56.5 -145t144.5 -51l-13 -83l-41 8q-104 19 -166.5 92.5t-62.5 178.5q0 120 77.5 196.5t198.5 76.5q122 0 199.5 -75.5t77.5 -197.5q0 -84 54 -138t138 -54
q83 0 138.5 54.5t55.5 137.5t-55.5 137t-138.5 54q-28 0 -88 -21l6 93q42 10 82 10q121 0 198.5 -76.5t77.5 -196.5q0 -122 -77 -198.5t-199 -76.5z" />
    <glyph glyph-name="shan.da" unicode="&#x107b;" horiz-adv-x="1142" 
d="M-1 274q0 -120 77.5 -197t198.5 -77q120 0 195.5 71t81.5 191l2 3v9q0 85 53 138t137 53q82 0 138 -54.5t56 -136.5q0 -25 -20 -65q-7 7 -17 16q-32 13 -67 13q-71 0 -121 -46q-53 -49 -52 -123q-5 -53 28 -66l52 -8q114 0 196.5 82.5t82.5 196.5q0 122 -77 197.5
t-199 75.5q-150 0 -234 -127q-85 127 -235 127q-124 0 -200 -74.5t-76 -198.5zM81 274q0 83 55.5 137t138.5 54t136.5 -54t53.5 -137t-53.5 -136.5t-136.5 -53.5t-138.5 53.5t-55.5 136.5zM747 88q-2 0 -2 3q0 14 26 39q30 29 61 30q25 0 44 -9q-63 -63 -129 -63z" />
    <glyph glyph-name="shan.na" unicode="&#x107c;" horiz-adv-x="1194" 
d="M462 240q-225 -23 -349 -78q55 -81 161 -81q71 0 124 44.5t64 114.5zM987 171q-142 65 -355 74q9 -74 62.5 -119t129.5 -45q81 0 136 56q15 16 27 34zM1007 328q-12 46 -47 81q-55 55 -136 55q-83 0 -138 -54q-41 -40 -52 -94q144 -8 228 -26q118 -25 226 -85
q-19 -77 -69 -128q-77 -78 -195 -78q-113 0 -190 67.5t-85 179.5h-5q-9 -110 -84.5 -178.5t-185.5 -68.5q-122 0 -199 76q-50 50 -68 119q107 64 226 92q80 18 227 28q-10 55 -50 95q-55 55 -136 55q-83 0 -138 -54q-36 -35 -48 -81l-71 50q19 51 60 90q78 77 197 77
q118 0 195 -77q61 -62 73 -151h9q12 89 76 151q78 77 197 77q118 0 195 -77q20 -20 51 -73z" />
    <glyph glyph-name="shan.pha" unicode="&#x107d;" horiz-adv-x="1092" 
d="M887 171q-26 17 -52 35q-53 29 -113 29q-54 0 -165 -67v0q60 -87 167 -87q81 0 136 56q15 16 27 34zM527 469q78 77 197 77q118 0 195 -77q20 -20 51 -73l-63 -68q-12 46 -47 81q-55 55 -136 55q-83 0 -138 -54q-41 -40 -52 -94q-4 -33 0 -67q89 65 191 65
q137 0 263 -109q-19 -77 -69 -128q-77 -78 -195 -78q-148 0 -227 108q-34 -48 -85 -76q-66 -36 -134 -33l-37 1q-12 1 -39 9q-63 20 -92 40q-38 26 -79 90q-32 49 -32 136q0 38 13 85q10 35 32 68q11 10 44 -9l46 -27q14 -3 26 -3q34 0 52 17t18 42q0 53 -57 70l-19 3
q-21 0 -36 -11l24 81l25 3q32 0 63 -18q77 -43 77 -124q0 -34 -17 -65q-39 -72 -123 -72q-28 0 -75 18l-9 -28l-3 -31q2 -85 57 -137q52 -49 137 -55q66 -4 142 64q12 11 32 46l7 11q-4 21 -6 44l2 72q12 89 76 151zM994 -1z" />
    <glyph glyph-name="shan.fa" unicode="&#x107e;" horiz-adv-x="1092" 
d="M887 171q-26 17 -52 35q-53 29 -113 29q-54 0 -165 -67q-3 -2 28 -33q55 -54 139 -54q81 0 136 56q15 16 27 34zM545 -406l-216 67l32 84l136 -46l121 317q-74 27 -121 91q-34 -48 -85 -76q-66 -36 -134 -33l-37 1q-12 1 -39 9q-63 20 -92 40q-38 26 -79 90
q-32 49 -32 136q0 38 13 85q10 35 32 68q11 10 44 -9l46 -27q14 -3 26 -3q34 0 52 17t18 42q0 53 -57 70l-19 3q-21 0 -36 -11l24 81l25 3q32 0 63 -18q77 -43 77 -124q0 -34 -17 -65q-39 -72 -123 -72q-28 0 -75 18l-9 -28l-3 -31q2 -85 57 -137q52 -49 137 -55
q66 -4 142 64q12 11 32 46l7 11q-4 21 -6 44l2 72q12 89 76 151q78 77 197 77q118 0 195 -77q20 -20 51 -73l-63 -68q-12 46 -47 81q-55 55 -136 55q-83 0 -138 -54q-43 -42 -52 -94q-5 -32 0 -67q89 65 191 65q137 0 263 -109q-19 -77 -69 -128q-77 -78 -195 -78h-16z" />
    <glyph glyph-name="shan.ba" unicode="&#x107f;" horiz-adv-x="670" 
d="M269 2q121 0 198.5 77t77.5 197q0 170 -159 248l-52 -65q48 -16 88.5 -73.5t40.5 -109.5q0 -84 -54.5 -138t-139.5 -54q-127 0 -175 120q123 8 172 104q26 49 26 99q0 51 -27 87.5t-77 36.5q-27 0 -61 -22q-129 -85 -129 -233q0 -120 75.5 -197t195.5 -77zM79 276
q0 96 100 165q7 5 11 5q24 0 24 -48q0 -17 -8 -42q-8 -28 -19 -40q-47 -47 -108 -47v7z" />
    <glyph glyph-name="shan.tha" unicode="&#x1080;" horiz-adv-x="1117" 
d="M111 148q69 -66 141 -66q42 0 84 23t67 61q-50 44 -123 44q-61 0 -122 -28q-56 -25 -47 -34zM444 290q1 78 -58 127q-55 47 -134 47q-108 0 -186 -129l-72 42l21 36q78 134 237 134q122 0 199.5 -76t77.5 -197v-15q0 -81 55 -130t136 -49q84 0 139.5 54.5t55.5 139.5
q0 82 -56 136t-139 54q-33 0 -107 -27l-27 80l38 13q41 15 96 15q125 0 201 -73.5t76 -197.5q0 -123 -77.5 -200t-199.5 -77q-150 0 -234 128q-84 -126 -234 -126q-135 0 -245 138l35 51q28 42 102 77q64 30 99 30q73 0 98 -4q63 -12 102 -56z" />
    <glyph glyph-name="shan.ha" unicode="&#x1081;" horiz-adv-x="670" 
d="M214 -417q-3 0 -10.5 1.5t-12.5 1.5h-121q-31 0 -48 18t-18 44l-1 43v56h82v-75l94 3v308l-47 24q-130 67 -130 234q0 120 77.5 197t198.5 77q119 0 195 -77.5t76 -196.5q0 -176 -157 -248l-53 63q129 78 129 185q0 80 -55 135t-135 55q-83 0 -138.5 -53.5t-55.5 -136.5
q0 -92 95 -161v173h83v-625q0 -45 -48 -45z" />
    <glyph glyph-name="shan.wa.med.dot" unicode="&#x1082;" horiz-adv-x="659" 
d="M514 241q-29 0 -29 28q0 30 29 30q30 0 30 -30q0 -28 -30 -28zM270 4q-29 0 -29 31q0 11 9 19.5t20 8.5q29 0 29 -28q0 -31 -29 -31zM270 483q-29 0 -29 28q0 31 29 31t29 -31q0 -28 -29 -28zM439 415q-30 0 -30 30q0 12 9 20.5t21 8.5q29 0 29 -29q0 -30 -29 -30z
M495 341q-31 0 -31 30q0 12 9.5 21t21.5 9q11 0 20.5 -9.5t9.5 -20.5q0 -30 -30 -30zM366 464q-31 0 -31 30q0 13 9.5 22t21.5 9q11 0 19.5 -10t8.5 -21q0 -30 -28 -30zM439 129q29 0 29 -30q0 -29 -29 -29q-12 0 -21 8.5t-9 20.5q0 30 30 30zM495 203q12 0 21 -9t9 -21
q0 -11 -9.5 -20.5t-20.5 -9.5q-12 0 -21.5 9t-9.5 21q0 30 31 30zM366 80q28 0 28 -30q0 -11 -8.5 -21t-19.5 -10q-12 0 -21.5 9t-9.5 22q0 30 31 30zM35 241q-30 0 -30 28q0 30 30 30q29 0 29 -30q0 -28 -29 -28zM110 415q-29 0 -29 30q0 29 29 29q12 0 21 -8.5t9 -20.5
q0 -30 -30 -30zM54 341q-30 0 -30 30q0 11 9.5 20.5t20.5 9.5q12 0 21.5 -9t9.5 -21q0 -30 -31 -30zM183 464q-28 0 -28 30q0 11 8.5 21t19.5 10q12 0 21.5 -9t9.5 -22q0 -30 -31 -30zM110 129q30 0 30 -30q0 -12 -9 -20.5t-21 -8.5q-29 0 -29 29q0 30 29 30zM54 203
q31 0 31 -30q0 -12 -9.5 -21t-21.5 -9q-11 0 -20.5 9.5t-9.5 20.5q0 12 9 21t21 9zM183 80q31 0 31 -30q0 -13 -9.5 -22t-21.5 -9q-11 0 -19.5 10t-8.5 21q0 30 28 30zM427 -230q-3 1 -6 1t-3 -3q-4 -48 -36.5 -78t-80.5 -30q-54 0 -87.5 33.5t-33.5 88.5q0 51 33.5 84.5
t84.5 33.5q11 0 33 -3v87q-18 2 -30 2q-86 0 -144 -59t-58 -145t59 -144.5t145 -58.5q78 0 130.5 46t67.5 124q-35 13 -74 21z" />
    <glyph glyph-name="shan.aa.vow.dot" unicode="&#x1083;" horiz-adv-x="880" 
d="M514 241q-29 0 -29 28q0 30 29 30q30 0 30 -30q0 -28 -30 -28zM270 4q-29 0 -29 31q0 11 9 19.5t20 8.5q29 0 29 -28q0 -31 -29 -31zM270 483q-29 0 -29 28q0 31 29 31t29 -31q0 -28 -29 -28zM439 415q-30 0 -30 30q0 12 9 20.5t21 8.5q29 0 29 -29q0 -30 -29 -30z
M495 341q-31 0 -31 30q0 12 9.5 21t21.5 9q11 0 20.5 -9.5t9.5 -20.5q0 -30 -30 -30zM366 464q-31 0 -31 30q0 13 9.5 22t21.5 9q11 0 19.5 -10t8.5 -21q0 -30 -28 -30zM439 129q29 0 29 -30q0 -29 -29 -29q-12 0 -21 8.5t-9 20.5q0 30 30 30zM495 203q12 0 21 -9t9 -21
q0 -11 -9.5 -20.5t-20.5 -9.5q-12 0 -21.5 9t-9.5 21q0 30 31 30zM366 80q28 0 28 -30q0 -11 -8.5 -21t-19.5 -10q-12 0 -21.5 9t-9.5 22q0 30 31 30zM35 241q-30 0 -30 28q0 30 30 30q29 0 29 -30q0 -28 -29 -28zM110 415q-29 0 -29 30q0 29 29 29q12 0 21 -8.5t9 -20.5
q0 -30 -30 -30zM54 341q-30 0 -30 30q0 11 9.5 20.5t20.5 9.5q12 0 21.5 -9t9.5 -21q0 -30 -31 -30zM183 464q-28 0 -28 30q0 11 8.5 21t19.5 10q12 0 21.5 -9t9.5 -22q0 -30 -31 -30zM110 129q30 0 30 -30q0 -12 -9 -20.5t-21 -8.5q-29 0 -29 29q0 30 29 30zM54 203
q31 0 31 -30q0 -12 -9.5 -21t-21.5 -9q-11 0 -20.5 9.5t-9.5 20.5q0 12 9 21t21 9zM183 80q31 0 31 -30q0 -13 -9.5 -22t-21.5 -9q-11 0 -19.5 10t-8.5 21q0 30 28 30zM603 558h150v-889h154v-89h-239v893h-65v85z" />
    <glyph glyph-name="shan.e.vow.dot" unicode="&#x1084;" horiz-adv-x="1248" 
d="M1048 445q0 -30 -29 -30q-30 0 -30 30q0 12 9 20.5t21 8.5q29 0 29 -29zM1105 371q0 -30 -30 -30q-31 0 -31 30q0 12 9.5 21t21.5 9q11 0 20.5 -9.5t9.5 -20.5zM974 494q0 -30 -28 -30q-31 0 -31 30q0 13 9.5 22t21.5 9q11 0 19.5 -10t8.5 -21zM1124 269q0 -28 -30 -28
q-29 0 -29 28q0 30 29 30q30 0 30 -30zM879 511q0 -28 -29 -28t-29 28q0 31 29 31t29 -31zM794 494q0 -30 -31 -30q-28 0 -28 30q0 11 8.5 21t19.5 10q12 0 21.5 -9t9.5 -22zM1105 173q0 -11 -9.5 -20.5t-20.5 -9.5q-12 0 -21.5 9t-9.5 21q0 30 31 30q12 0 21 -9t9 -21z
M720 445q0 -30 -30 -30q-29 0 -29 30q0 29 29 29q12 0 21 -8.5t9 -20.5zM1048 99q0 -29 -29 -29q-12 0 -21 8.5t-9 20.5q0 30 30 30q29 0 29 -30zM665 371q0 -30 -31 -30q-30 0 -30 30q0 11 9.5 20.5t20.5 9.5q12 0 21.5 -9t9.5 -21zM974 50q0 -11 -8.5 -21t-19.5 -10
q-12 0 -21.5 9t-9.5 22q0 30 31 30q28 0 28 -30zM644 269q0 -28 -29 -28q-30 0 -30 28q0 30 30 30q29 0 29 -30zM879 35q0 -31 -29 -31t-29 31q0 11 9 19.5t20 8.5q29 0 29 -28zM794 50q0 -13 -9.5 -22t-21.5 -9q-11 0 -19.5 10t-8.5 21q0 30 28 30q31 0 31 -30zM665 173
q0 -12 -9.5 -21t-21.5 -9q-11 0 -20.5 9.5t-9.5 20.5q0 12 9 21t21 9q31 0 31 -30zM720 99q0 -12 -9 -20.5t-21 -8.5q-29 0 -29 29q0 30 29 30q30 0 30 -30zM501 83q-40 -35 -105 -63q-89 -23 -143 -19l-70 4l-38 12l-34 17l-38 22l-34 33q-35 43 -35 81q0 55 53 105
q2 5 -12 20q-20 21 -29 38q-15 29 -15 64q1 66 81 124l24 14q61 34 147 34q85 0 149 -22q20 -8 52 -29q25 -17 45 -40l-39 -63q-10 13 -49 34l-35 18l-40 17l-42 7h-35l-43 -1l-24 -6l-20 -6l-27 -14q-33 -16 -43 -55q-3 -15 8 -33.5t29 -28.5q4 -3 35 18q36 24 73 24
q77 0 117.5 -24t66.5 -82l-20 -42q-52 -69 -143 -69q-71 0 -134 42q-26 -17 -34 -48q0 -11 32 -42q20 -14 55 -27l30 -8l36 -3l56 2q22 0 39 6l31 10l27 14q18 9 50 40zM335 275q-8 22 -20 27q-1 0 -32 5q-12 2 -21 2q-27 0 -53 -24q-3 -3 -3 -6q0 -10 26 -20.5t47 -9.5
q22 1 56 26z" />
    <glyph glyph-name="shan.eabove.vow.dot" unicode="&#x1085;" horiz-adv-x="659" 
d="M514 241q-29 0 -29 28q0 30 29 30q30 0 30 -30q0 -28 -30 -28zM270 4q-29 0 -29 31q0 11 9 19.5t20 8.5q29 0 29 -28q0 -31 -29 -31zM270 483q-29 0 -29 28q0 31 29 31t29 -31q0 -28 -29 -28zM439 415q-30 0 -30 30q0 12 9 20.5t21 8.5q29 0 29 -29q0 -30 -29 -30z
M495 341q-31 0 -31 30q0 12 9.5 21t21.5 9q11 0 20.5 -9.5t9.5 -20.5q0 -30 -30 -30zM366 464q-31 0 -31 30q0 13 9.5 22t21.5 9q11 0 19.5 -10t8.5 -21q0 -30 -28 -30zM439 129q29 0 29 -30q0 -29 -29 -29q-12 0 -21 8.5t-9 20.5q0 30 30 30zM495 203q12 0 21 -9t9 -21
q0 -11 -9.5 -20.5t-20.5 -9.5q-12 0 -21.5 9t-9.5 21q0 30 31 30zM366 80q28 0 28 -30q0 -11 -8.5 -21t-19.5 -10q-12 0 -21.5 9t-9.5 22q0 30 31 30zM35 241q-30 0 -30 28q0 30 30 30q29 0 29 -30q0 -28 -29 -28zM110 415q-29 0 -29 30q0 29 29 29q12 0 21 -8.5t9 -20.5
q0 -30 -30 -30zM54 341q-30 0 -30 30q0 11 9.5 20.5t20.5 9.5q12 0 21.5 -9t9.5 -21q0 -30 -31 -30zM183 464q-28 0 -28 30q0 11 8.5 21t19.5 10q12 0 21.5 -9t9.5 -22q0 -30 -31 -30zM110 129q30 0 30 -30q0 -12 -9 -20.5t-21 -8.5q-29 0 -29 29q0 30 29 30zM54 203
q31 0 31 -30q0 -12 -9.5 -21t-21.5 -9q-11 0 -20.5 9.5t-9.5 20.5q0 12 9 21t21 9zM183 80q31 0 31 -30q0 -13 -9.5 -22t-21.5 -9q-11 0 -19.5 10t-8.5 21q0 30 28 30zM450 642q-28 -25 -76 -46q-64 -16 -103 -14l-52 4l-27 8l-25 12l-27 17l-25 24q-25 31 -25 58
q0 40 38 77q1 1 -20 27.5t-20 60.5q0 48 59 90l17 10q44 25 107 25q62 0 107 -16q16 -6 39 -21q18 -12 32 -29l-41 -64q-7 10 -32 23l-23 12l-26 10l-28 5h-22l-29 -1l-15 -4l-13 -3l-18 -9q-21 -11 -28 -37q0 -16 24 -30q3 -2 23 11q24 16 48 16q50 0 76.5 -15.5
t43.5 -53.5l-13 -28q-34 -45 -93 -45q-47 0 -88 27q-6 -4 -13 -9t-9 -15q0 -7 20 -27q14 -9 36 -18l20 -5l23 -2l37 1q15 1 25 4l21 7l17 9q12 6 33 26zM326 782q-6 14 -14 17q0 1 -20 4q-28 4 -49 -15q-2 -1 -2 -4q0 -6 17 -13t31 -6q15 1 37 17z" />
    <glyph glyph-name="shan.finaly.vow.dot" unicode="&#x1086;" horiz-adv-x="659" 
d="M514 241q-29 0 -29 28q0 30 29 30q30 0 30 -30q0 -28 -30 -28zM270 4q-29 0 -29 31q0 11 9 19.5t20 8.5q29 0 29 -28q0 -31 -29 -31zM270 483q-29 0 -29 28q0 31 29 31t29 -31q0 -28 -29 -28zM439 415q-30 0 -30 30q0 12 9 20.5t21 8.5q29 0 29 -29q0 -30 -29 -30z
M495 341q-31 0 -31 30q0 12 9.5 21t21.5 9q11 0 20.5 -9.5t9.5 -20.5q0 -30 -30 -30zM366 464q-31 0 -31 30q0 13 9.5 22t21.5 9q11 0 19.5 -10t8.5 -21q0 -30 -28 -30zM439 129q29 0 29 -30q0 -29 -29 -29q-12 0 -21 8.5t-9 20.5q0 30 30 30zM495 203q12 0 21 -9t9 -21
q0 -11 -9.5 -20.5t-20.5 -9.5q-12 0 -21.5 9t-9.5 21q0 30 31 30zM366 80q28 0 28 -30q0 -11 -8.5 -21t-19.5 -10q-12 0 -21.5 9t-9.5 22q0 30 31 30zM35 241q-30 0 -30 28q0 30 30 30q29 0 29 -30q0 -28 -29 -28zM110 415q-29 0 -29 30q0 29 29 29q12 0 21 -8.5t9 -20.5
q0 -30 -30 -30zM54 341q-30 0 -30 30q0 11 9.5 20.5t20.5 9.5q12 0 21.5 -9t9.5 -21q0 -30 -31 -30zM183 464q-28 0 -28 30q0 11 8.5 21t19.5 10q12 0 21.5 -9t9.5 -22q0 -30 -31 -30zM110 129q30 0 30 -30q0 -12 -9 -20.5t-21 -8.5q-29 0 -29 29q0 30 29 30zM54 203
q31 0 31 -30q0 -12 -9.5 -21t-21.5 -9q-11 0 -20.5 9.5t-9.5 20.5q0 12 9 21t21 9zM183 80q31 0 31 -30q0 -13 -9.5 -22t-21.5 -9q-11 0 -19.5 10t-8.5 21q0 30 28 30zM325 1010q62 0 95 -34q44 -46 45 -88q2 -73 -44 -152l-16 -29q-62 -107 -128 -151l-25 1l25 38l36 61
l20 41l15 45q4 24 5 22q-2 5 -28 -1q-50 0 -87 37t-37 87q0 45 39 86q36 37 85 37zM324 940q-14 0 -34.5 -13t-20.5 -45q0 -18 18 -40q14 -13 32 -13q64 -3 66 55q2 56 -61 56z" />
    <glyph glyph-name="shan.tone2.dot" unicode="&#x1087;" horiz-adv-x="1000" 
d="M514 241q-29 0 -29 28q0 30 29 30q30 0 30 -30q0 -28 -30 -28zM270 4q-29 0 -29 31q0 11 9 19.5t20 8.5q29 0 29 -28q0 -31 -29 -31zM270 483q-29 0 -29 28q0 31 29 31t29 -31q0 -28 -29 -28zM439 415q-30 0 -30 30q0 12 9 20.5t21 8.5q29 0 29 -29q0 -30 -29 -30z
M495 341q-31 0 -31 30q0 12 9.5 21t21.5 9q11 0 20.5 -9.5t9.5 -20.5q0 -30 -30 -30zM366 464q-31 0 -31 30q0 13 9.5 22t21.5 9q11 0 19.5 -10t8.5 -21q0 -30 -28 -30zM439 129q29 0 29 -30q0 -29 -29 -29q-12 0 -21 8.5t-9 20.5q0 30 30 30zM495 203q12 0 21 -9t9 -21
q0 -11 -9.5 -20.5t-20.5 -9.5q-12 0 -21.5 9t-9.5 21q0 30 31 30zM366 80q28 0 28 -30q0 -11 -8.5 -21t-19.5 -10q-12 0 -21.5 9t-9.5 22q0 30 31 30zM35 241q-30 0 -30 28q0 30 30 30q29 0 29 -30q0 -28 -29 -28zM110 415q-29 0 -29 30q0 29 29 29q12 0 21 -8.5t9 -20.5
q0 -30 -30 -30zM54 341q-30 0 -30 30q0 11 9.5 20.5t20.5 9.5q12 0 21.5 -9t9.5 -21q0 -30 -31 -30zM183 464q-28 0 -28 30q0 11 8.5 21t19.5 10q12 0 21.5 -9t9.5 -22q0 -30 -31 -30zM110 129q30 0 30 -30q0 -12 -9 -20.5t-21 -8.5q-29 0 -29 29q0 30 29 30zM54 203
q31 0 31 -30q0 -12 -9.5 -21t-21.5 -9q-11 0 -20.5 9.5t-9.5 20.5q0 12 9 21t21 9zM183 80q31 0 31 -30q0 -13 -9.5 -22t-21.5 -9q-11 0 -19.5 10t-8.5 21q0 30 28 30zM762 6q-50 6 -74 30q-30 30 -30 74q0 45 29 75t75 30q43 0 75 -30q41 -38 41 -75q0 -2 1 -15.5t1 -24.5
q0 -169 -222 -290q-4 -2 -7 -2q-7 0 -7 9q0 20 27 45q40 37 72 82q36 49 36 74q0 16 -17 18zM762 143q-32 0 -32 -33t32 -33q34 0 34 33t-34 33z" />
    <glyph glyph-name="shan.tone3.dot" unicode="&#x1088;" horiz-adv-x="1000" 
d="M514 241q-29 0 -29 28q0 30 29 30q30 0 30 -30q0 -28 -30 -28zM270 4q-29 0 -29 31q0 11 9 19.5t20 8.5q29 0 29 -28q0 -31 -29 -31zM270 483q-29 0 -29 28q0 31 29 31t29 -31q0 -28 -29 -28zM439 415q-30 0 -30 30q0 12 9 20.5t21 8.5q29 0 29 -29q0 -30 -29 -30z
M495 341q-31 0 -31 30q0 12 9.5 21t21.5 9q11 0 20.5 -9.5t9.5 -20.5q0 -30 -30 -30zM366 464q-31 0 -31 30q0 13 9.5 22t21.5 9q11 0 19.5 -10t8.5 -21q0 -30 -28 -30zM439 129q29 0 29 -30q0 -29 -29 -29q-12 0 -21 8.5t-9 20.5q0 30 30 30zM495 203q12 0 21 -9t9 -21
q0 -11 -9.5 -20.5t-20.5 -9.5q-12 0 -21.5 9t-9.5 21q0 30 31 30zM366 80q28 0 28 -30q0 -11 -8.5 -21t-19.5 -10q-12 0 -21.5 9t-9.5 22q0 30 31 30zM35 241q-30 0 -30 28q0 30 30 30q29 0 29 -30q0 -28 -29 -28zM110 415q-29 0 -29 30q0 29 29 29q12 0 21 -8.5t9 -20.5
q0 -30 -30 -30zM54 341q-30 0 -30 30q0 11 9.5 20.5t20.5 9.5q12 0 21.5 -9t9.5 -21q0 -30 -31 -30zM183 464q-28 0 -28 30q0 11 8.5 21t19.5 10q12 0 21.5 -9t9.5 -22q0 -30 -31 -30zM110 129q30 0 30 -30q0 -12 -9 -20.5t-21 -8.5q-29 0 -29 29q0 30 29 30zM54 203
q31 0 31 -30q0 -12 -9.5 -21t-21.5 -9q-11 0 -20.5 9.5t-9.5 20.5q0 12 9 21t21 9zM183 80q31 0 31 -30q0 -13 -9.5 -22t-21.5 -9q-11 0 -19.5 10t-8.5 21q0 30 28 30zM762 6q-50 6 -74 30q-30 30 -30 74q0 45 29 75t75 30q43 0 75 -30q41 -38 41 -75q0 -2 1 -15.5t1 -24.5
q0 -169 -222 -290q-4 -2 -7 -2q-7 0 -7 9q0 20 27 45q40 37 72 82q36 49 36 74q0 16 -17 18zM762 143q-32 0 -32 -33t32 -33q34 0 34 33t-34 33zM772 306q-44 0 -74 30t-30 74q0 45 29 75t75 30q45 0 75.5 -30t30.5 -75q0 -44 -31.5 -74t-74.5 -30zM772 443q-32 0 -32 -33
t32 -33q34 0 34 33t-34 33z" />
    <glyph glyph-name="shan.tone5.dot" unicode="&#x1089;" horiz-adv-x="1000" 
d="M514 241q-29 0 -29 28q0 30 29 30q30 0 30 -30q0 -28 -30 -28zM270 4q-29 0 -29 31q0 11 9 19.5t20 8.5q29 0 29 -28q0 -31 -29 -31zM270 483q-29 0 -29 28q0 31 29 31t29 -31q0 -28 -29 -28zM439 415q-30 0 -30 30q0 12 9 20.5t21 8.5q29 0 29 -29q0 -30 -29 -30z
M495 341q-31 0 -31 30q0 12 9.5 21t21.5 9q11 0 20.5 -9.5t9.5 -20.5q0 -30 -30 -30zM366 464q-31 0 -31 30q0 13 9.5 22t21.5 9q11 0 19.5 -10t8.5 -21q0 -30 -28 -30zM439 129q29 0 29 -30q0 -29 -29 -29q-12 0 -21 8.5t-9 20.5q0 30 30 30zM495 203q12 0 21 -9t9 -21
q0 -11 -9.5 -20.5t-20.5 -9.5q-12 0 -21.5 9t-9.5 21q0 30 31 30zM366 80q28 0 28 -30q0 -11 -8.5 -21t-19.5 -10q-12 0 -21.5 9t-9.5 22q0 30 31 30zM35 241q-30 0 -30 28q0 30 30 30q29 0 29 -30q0 -28 -29 -28zM110 415q-29 0 -29 30q0 29 29 29q12 0 21 -8.5t9 -20.5
q0 -30 -30 -30zM54 341q-30 0 -30 30q0 11 9.5 20.5t20.5 9.5q12 0 21.5 -9t9.5 -21q0 -30 -31 -30zM183 464q-28 0 -28 30q0 11 8.5 21t19.5 10q12 0 21.5 -9t9.5 -22q0 -30 -31 -30zM110 129q30 0 30 -30q0 -12 -9 -20.5t-21 -8.5q-29 0 -29 29q0 30 29 30zM54 203
q31 0 31 -30q0 -12 -9.5 -21t-21.5 -9q-11 0 -20.5 9.5t-9.5 20.5q0 12 9 21t21 9zM183 80q31 0 31 -30q0 -13 -9.5 -22t-21.5 -9q-11 0 -19.5 10t-8.5 21q0 30 28 30zM772 6q-44 0 -74 30t-30 74q0 45 29 75t75 30q45 0 75.5 -30t30.5 -75q0 -44 -31.5 -74t-74.5 -30z
M772 143q-32 0 -32 -33t32 -33q34 0 34 33t-34 33z" />
    <glyph glyph-name="shan.tone6.dot" unicode="&#x108a;" horiz-adv-x="1233" 
d="M514 241q-29 0 -29 28q0 30 29 30q30 0 30 -30q0 -28 -30 -28zM270 4q-29 0 -29 31q0 11 9 19.5t20 8.5q29 0 29 -28q0 -31 -29 -31zM270 483q-29 0 -29 28q0 31 29 31t29 -31q0 -28 -29 -28zM439 415q-30 0 -30 30q0 12 9 20.5t21 8.5q29 0 29 -29q0 -30 -29 -30z
M495 341q-31 0 -31 30q0 12 9.5 21t21.5 9q11 0 20.5 -9.5t9.5 -20.5q0 -30 -30 -30zM366 464q-31 0 -31 30q0 13 9.5 22t21.5 9q11 0 19.5 -10t8.5 -21q0 -30 -28 -30zM439 129q29 0 29 -30q0 -29 -29 -29q-12 0 -21 8.5t-9 20.5q0 30 30 30zM495 203q12 0 21 -9t9 -21
q0 -11 -9.5 -20.5t-20.5 -9.5q-12 0 -21.5 9t-9.5 21q0 30 31 30zM366 80q28 0 28 -30q0 -11 -8.5 -21t-19.5 -10q-12 0 -21.5 9t-9.5 22q0 30 31 30zM35 241q-30 0 -30 28q0 30 30 30q29 0 29 -30q0 -28 -29 -28zM110 415q-29 0 -29 30q0 29 29 29q12 0 21 -8.5t9 -20.5
q0 -30 -30 -30zM54 341q-30 0 -30 30q0 11 9.5 20.5t20.5 9.5q12 0 21.5 -9t9.5 -21q0 -30 -31 -30zM183 464q-28 0 -28 30q0 11 8.5 21t19.5 10q12 0 21.5 -9t9.5 -22q0 -30 -31 -30zM110 129q30 0 30 -30q0 -12 -9 -20.5t-21 -8.5q-29 0 -29 29q0 30 29 30zM54 203
q31 0 31 -30q0 -12 -9.5 -21t-21.5 -9q-11 0 -20.5 9.5t-9.5 20.5q0 12 9 21t21 9zM183 80q31 0 31 -30q0 -13 -9.5 -22t-21.5 -9q-11 0 -19.5 10t-8.5 21q0 30 28 30zM874 124q-10 48 -36 70q-33 28 -76 24q-45 -4 -72.5 -35.5t-23.5 -76.5q4 -44 37 -73q41 -38 78 -34
q33 2 67 5q62 12 116 58q73 63 126 185q2 3 2 6q0 7 -8 7q-21 0 -44 -31q-35 -44 -77 -81q-47 -40 -71 -40q-15 0 -18 16zM738 112q-3 31 30 34t36 -28q3 -35 -30 -38t-36 32zM874 424q-10 48 -36 70q-33 28 -76 24q-45 -4 -72.5 -35.5t-23.5 -76.5q4 -44 37 -73
q41 -38 78 -34q33 2 67 5q62 12 116 58q73 63 126 185q2 3 2 6q0 7 -8 7q-21 0 -44 -31q-35 -44 -77 -81q-47 -40 -71 -40q-15 0 -18 16zM738 412q-3 31 30 34t36 -28q3 -35 -30 -38t-36 32z" />
    <glyph glyph-name="shan.cc.tone2.dot" unicode="&#x108b;" horiz-adv-x="1000" 
d="M514 241q-29 0 -29 28q0 30 29 30q30 0 30 -30q0 -28 -30 -28zM270 4q-29 0 -29 31q0 11 9 19.5t20 8.5q29 0 29 -28q0 -31 -29 -31zM270 483q-29 0 -29 28q0 31 29 31t29 -31q0 -28 -29 -28zM439 415q-30 0 -30 30q0 12 9 20.5t21 8.5q29 0 29 -29q0 -30 -29 -30z
M495 341q-31 0 -31 30q0 12 9.5 21t21.5 9q11 0 20.5 -9.5t9.5 -20.5q0 -30 -30 -30zM366 464q-31 0 -31 30q0 13 9.5 22t21.5 9q11 0 19.5 -10t8.5 -21q0 -30 -28 -30zM439 129q29 0 29 -30q0 -29 -29 -29q-12 0 -21 8.5t-9 20.5q0 30 30 30zM495 203q12 0 21 -9t9 -21
q0 -11 -9.5 -20.5t-20.5 -9.5q-12 0 -21.5 9t-9.5 21q0 30 31 30zM366 80q28 0 28 -30q0 -11 -8.5 -21t-19.5 -10q-12 0 -21.5 9t-9.5 22q0 30 31 30zM35 241q-30 0 -30 28q0 30 30 30q29 0 29 -30q0 -28 -29 -28zM110 415q-29 0 -29 30q0 29 29 29q12 0 21 -8.5t9 -20.5
q0 -30 -30 -30zM54 341q-30 0 -30 30q0 11 9.5 20.5t20.5 9.5q12 0 21.5 -9t9.5 -21q0 -30 -31 -30zM183 464q-28 0 -28 30q0 11 8.5 21t19.5 10q12 0 21.5 -9t9.5 -22q0 -30 -31 -30zM110 129q30 0 30 -30q0 -12 -9 -20.5t-21 -8.5q-29 0 -29 29q0 30 29 30zM54 203
q31 0 31 -30q0 -12 -9.5 -21t-21.5 -9q-11 0 -20.5 9.5t-9.5 20.5q0 12 9 21t21 9zM183 80q31 0 31 -30q0 -13 -9.5 -22t-21.5 -9q-11 0 -19.5 10t-8.5 21q0 30 28 30zM772 166q-44 0 -74 30t-30 74q0 45 29 75t75 30q45 0 75.5 -30t30.5 -75q0 -44 -31.5 -74t-74.5 -30z
M772 303q-32 0 -32 -33t32 -33q34 0 34 33t-34 33z" />
    <glyph glyph-name="shan.cc.tone3.dot" unicode="&#x108c;" horiz-adv-x="1300" 
d="M514 241q-29 0 -29 28q0 30 29 30q30 0 30 -30q0 -28 -30 -28zM270 4q-29 0 -29 31q0 11 9 19.5t20 8.5q29 0 29 -28q0 -31 -29 -31zM270 483q-29 0 -29 28q0 31 29 31t29 -31q0 -28 -29 -28zM439 415q-30 0 -30 30q0 12 9 20.5t21 8.5q29 0 29 -29q0 -30 -29 -30z
M495 341q-31 0 -31 30q0 12 9.5 21t21.5 9q11 0 20.5 -9.5t9.5 -20.5q0 -30 -30 -30zM366 464q-31 0 -31 30q0 13 9.5 22t21.5 9q11 0 19.5 -10t8.5 -21q0 -30 -28 -30zM439 129q29 0 29 -30q0 -29 -29 -29q-12 0 -21 8.5t-9 20.5q0 30 30 30zM495 203q12 0 21 -9t9 -21
q0 -11 -9.5 -20.5t-20.5 -9.5q-12 0 -21.5 9t-9.5 21q0 30 31 30zM366 80q28 0 28 -30q0 -11 -8.5 -21t-19.5 -10q-12 0 -21.5 9t-9.5 22q0 30 31 30zM35 241q-30 0 -30 28q0 30 30 30q29 0 29 -30q0 -28 -29 -28zM110 415q-29 0 -29 30q0 29 29 29q12 0 21 -8.5t9 -20.5
q0 -30 -30 -30zM54 341q-30 0 -30 30q0 11 9.5 20.5t20.5 9.5q12 0 21.5 -9t9.5 -21q0 -30 -31 -30zM183 464q-28 0 -28 30q0 11 8.5 21t19.5 10q12 0 21.5 -9t9.5 -22q0 -30 -31 -30zM110 129q30 0 30 -30q0 -12 -9 -20.5t-21 -8.5q-29 0 -29 29q0 30 29 30zM54 203
q31 0 31 -30q0 -12 -9.5 -21t-21.5 -9q-11 0 -20.5 9.5t-9.5 20.5q0 12 9 21t21 9zM183 80q31 0 31 -30q0 -13 -9.5 -22t-21.5 -9q-11 0 -19.5 10t-8.5 21q0 30 28 30zM772 166q-44 0 -74 30t-30 74q0 45 29 75t75 30q45 0 75.5 -30t30.5 -75q0 -44 -31.5 -74t-74.5 -30z
M772 303q-32 0 -32 -33t32 -33q34 0 34 33t-34 33zM1072 166q-44 0 -74 30t-30 74q0 45 29 75t75 30q45 0 75.5 -30t30.5 -75q0 -44 -31.5 -74t-74.5 -30zM1072 303q-32 0 -32 -33t32 -33q34 0 34 33t-34 33z" />
    <glyph glyph-name="shan.ce.tone.dot" unicode="&#x108d;" horiz-adv-x="663" 
d="M514 241q-29 0 -29 28q0 30 29 30q30 0 30 -30q0 -28 -30 -28zM270 4q-29 0 -29 31q0 11 9 19.5t20 8.5q29 0 29 -28q0 -31 -29 -31zM270 483q-29 0 -29 28q0 31 29 31t29 -31q0 -28 -29 -28zM439 415q-30 0 -30 30q0 12 9 20.5t21 8.5q29 0 29 -29q0 -30 -29 -30z
M495 341q-31 0 -31 30q0 12 9.5 21t21.5 9q11 0 20.5 -9.5t9.5 -20.5q0 -30 -30 -30zM366 464q-31 0 -31 30q0 13 9.5 22t21.5 9q11 0 19.5 -10t8.5 -21q0 -30 -28 -30zM439 129q29 0 29 -30q0 -29 -29 -29q-12 0 -21 8.5t-9 20.5q0 30 30 30zM495 203q12 0 21 -9t9 -21
q0 -11 -9.5 -20.5t-20.5 -9.5q-12 0 -21.5 9t-9.5 21q0 30 31 30zM366 80q28 0 28 -30q0 -11 -8.5 -21t-19.5 -10q-12 0 -21.5 9t-9.5 22q0 30 31 30zM35 241q-30 0 -30 28q0 30 30 30q29 0 29 -30q0 -28 -29 -28zM110 415q-29 0 -29 30q0 29 29 29q12 0 21 -8.5t9 -20.5
q0 -30 -30 -30zM54 341q-30 0 -30 30q0 11 9.5 20.5t20.5 9.5q12 0 21.5 -9t9.5 -21q0 -30 -31 -30zM183 464q-28 0 -28 30q0 11 8.5 21t19.5 10q12 0 21.5 -9t9.5 -22q0 -30 -31 -30zM110 129q30 0 30 -30q0 -12 -9 -20.5t-21 -8.5q-29 0 -29 29q0 30 29 30zM54 203
q31 0 31 -30q0 -12 -9.5 -21t-21.5 -9q-11 0 -20.5 9.5t-9.5 20.5q0 12 9 21t21 9zM183 80q31 0 31 -30q0 -13 -9.5 -22t-21.5 -9q-11 0 -19.5 10t-8.5 21q0 30 28 30zM81 -61v-87h443v87h-443z" />
    <glyph glyph-name="pl.fa" unicode="&#x108e;" horiz-adv-x="667" 
d="M274 546q-122 0 -199 -76t-77 -198q0 -119 78.5 -196t197.5 -77t195 77t76 196t-76 196.5t-195 77.5zM274 81q-83 0 -138.5 54t-55.5 137q0 63 36 114q63 -68 158 -78q94 0 163 63q27 -45 27 -99q0 -82 -54.5 -136.5t-135.5 -54.5zM275 380q-66 9 -106 54q49 30 105 30
q61 0 115 -42q-46 -36 -114 -42z" />
    <glyph glyph-name="pl.tone5.dot" unicode="&#x108f;" horiz-adv-x="1000" 
d="M504 241q-29 0 -29 28q0 30 29 30q30 0 30 -30q0 -28 -30 -28zM260 4q-29 0 -29 31q0 11 9 19.5t20 8.5q29 0 29 -28q0 -31 -29 -31zM260 483q-29 0 -29 28q0 31 29 31t29 -31q0 -28 -29 -28zM429 415q-30 0 -30 30q0 12 9 20.5t21 8.5q29 0 29 -29q0 -30 -29 -30z
M485 341q-31 0 -31 30q0 12 9.5 21t21.5 9q11 0 20.5 -9.5t9.5 -20.5q0 -30 -30 -30zM356 464q-31 0 -31 30q0 13 9.5 22t21.5 9q11 0 19.5 -10t8.5 -21q0 -30 -28 -30zM429 129q29 0 29 -30q0 -29 -29 -29q-12 0 -21 8.5t-9 20.5q0 30 30 30zM485 203q12 0 21 -9t9 -21
q0 -11 -9.5 -20.5t-20.5 -9.5q-12 0 -21.5 9t-9.5 21q0 30 31 30zM356 80q28 0 28 -30q0 -11 -8.5 -21t-19.5 -10q-12 0 -21.5 9t-9.5 22q0 30 31 30zM25 241q-30 0 -30 28q0 30 30 30q29 0 29 -30q0 -28 -29 -28zM100 415q-29 0 -29 30q0 29 29 29q12 0 21 -8.5t9 -20.5
q0 -30 -30 -30zM44 341q-30 0 -30 30q0 11 9.5 20.5t20.5 9.5q12 0 21.5 -9t9.5 -21q0 -30 -31 -30zM173 464q-28 0 -28 30q0 11 8.5 21t19.5 10q12 0 21.5 -9t9.5 -22q0 -30 -31 -30zM100 129q30 0 30 -30q0 -12 -9 -20.5t-21 -8.5q-29 0 -29 29q0 30 29 30zM44 203
q31 0 31 -30q0 -12 -9.5 -21t-21.5 -9q-11 0 -20.5 9.5t-9.5 20.5q0 12 9 21t21 9zM173 80q31 0 31 -30q0 -13 -9.5 -22t-21.5 -9q-11 0 -19.5 10t-8.5 21q0 30 28 30zM765 6q49 6 73 30q30 30 30 74q0 45 -29 75t-74 30q-44 0 -76 -30q-41 -38 -41 -75q0 -2 -1 -15.5
t-1 -24.5q0 -169 222 -290q4 -2 7 -2q7 0 7 9q0 20 -27 45q-40 37 -72 82q-36 49 -36 74q0 16 18 18zM765 143q31 0 31 -33t-31 -33q-35 0 -35 33t35 33zM755 306q43 0 73 30t30 74q0 45 -29 75t-74 30q-46 0 -76.5 -30t-30.5 -75q0 -44 31.5 -74t75.5 -30zM755 443
q31 0 31 -33t-31 -33q-35 0 -35 33t35 33z" />
    <glyph glyph-name="sd.zero" unicode="&#x1090;" horiz-adv-x="600" 
d="M304 -1q-126 0 -203 90q-73 85 -73 212q0 126 74 212q78 90 202 90q123 0 199 -91q72 -86 72 -211q0 -123 -73 -210q-77 -92 -198 -92zM304 511q-85 0 -140 -64q-54 -60 -54 -146q0 -88 53.5 -149t140.5 -61q83 0 138 64q52 61 52 146q0 88 -56 149t-134 61z" />
    <glyph glyph-name="sd.one" unicode="&#x1091;" horiz-adv-x="600" 
d="M459 6h-188v434l-104 -47l51 78q52 79 83 135h58v-513l163 15z" />
    <glyph glyph-name="sd.two" unicode="&#x1092;" horiz-adv-x="600" 
d="M266 525q-146 0 -146 -151l-94 10l-17 104q17 0 27 -6l27 -9q28 63 71.5 95t134.5 32q90 0 165 -54q60 -43 60 -151q0 -20 -54 -84q-23 -27 -93 -84l-65 -53l-39 -36q-40 -36 -55 -58l12 -71l-33 -7l-35 -3q-20 -2 -33 4q-9 5 -16 15q12 115 117 198l108 86l46 42
q47 42 47 78q0 46 -46 77q-41 26 -89 26z" />
    <glyph glyph-name="sd.three" unicode="&#x1093;" horiz-adv-x="600" 
d="M503 33q-6 -17 -38 -30q-28 -11 -49 -11q-27 0 -27 20l3 12l7 39l3 34q5 57 -44 101q-44 39 -77 39l-18 -3l-109 -233l-83 99h29l197 474l-24 65l107 -96l-90 -242q61 -8 93 -25q94 -51 94 -164v-37l-6 -27l20 -11z" />
    <glyph glyph-name="sd.four" unicode="&#x1094;" horiz-adv-x="600" 
d="M272 305l-144 -306l-111 129l51 -15l231 453l39 48l101 -85l78 -401l57 24l-146 -150l-63 441l-30 -6z" />
    <glyph glyph-name="sd.five" unicode="&#x1095;" horiz-adv-x="600" 
d="M367 129v151h-75l-36 -3q-18 -1 -47 -4l-24 -15q-6 -6 -10 -23l-8 -51l6 -34q6 -33 33 -51l54 -2l77 -1zM424 -1h-176q-40 0 -62 12q-18 8 -50 40q-46 42 -65 138l2 48q0 25 18 52q22 35 60 62l19 13l164 6l34 5l-1 246l85 -50v-199h72v-92h-72v-241z" />
    <glyph glyph-name="sd.six" unicode="&#x1096;" horiz-adv-x="600" 
d="M521 243h-72v-199l-86 -50l2 246l-74 5l-124 6l-30 22q-23 17 -48 50q-14 22 -18 52l-4 51q25 126 114 174q28 15 64 15h175l29 -39v-241h72v-92zM363 335v151l-30 33h-79q-44 0 -51 -3q-28 -18 -33 -43l-6 -42l7 -51q0 -14 11 -24l22 -14l47 -4h31l39 -3h42z" />
    <glyph glyph-name="sd.seven" unicode="&#x1097;" horiz-adv-x="600" 
d="M516 486l-318 -373l13 -32l284 11l-17 -89h-345l-54 29l-4 60l334 385l-30 51l-301 -12l34 96h315l45 -57z" />
    <glyph glyph-name="sd.eight" unicode="&#x1098;" horiz-adv-x="600" 
d="M544 193q0 -39 -18 -72q-11 -21 -54 -58q-73 -65 -175 -65q-110 0 -177 62q-36 32 -52.5 59.5t-16.5 76.5q0 76 87 123l-33 23q-23 20 -23 61q0 58 35 106t90 73l21 -42l10 -29l5 -18q-60 -39 -60 -77q0 -31 36 -52t78 -21t77 24t35 55q0 40 -61 68l6 29q13 62 43 55
q53 -23 84.5 -69.5t31.5 -104.5q0 -34 -21 -53q-10 -10 -51 -32q103 -16 103 -122zM445 191q0 27 -67 67q-38 22 -86 22q-37 0 -82 -22q-65 -32 -65 -65q0 -24 19 -52.5t39 -42.5q34 -23 89 -23q67 0 105 31q48 48 48 85z" />
    <glyph glyph-name="sd.nine" unicode="&#x1099;" horiz-adv-x="600" 
d="M544 387q0 38 -18 72q-11 20 -54 58q-73 65 -175 65q-110 0 -177 -62q-36 -32 -52.5 -59.5t-16.5 -76.5q0 -77 87 -123l-33 -23q-23 -21 -23 -61q0 -59 35 -107t90 -72l21 42l10 29l5 18q-60 38 -60 76q0 31 36 52.5t78 21.5t77 -24.5t35 -55.5q0 -39 -61 -67l6 -29
q13 -63 43 -55q53 22 84.5 69t31.5 105q0 34 -21 53q-10 9 -51 32q103 15 103 122zM445 389q0 -27 -67 -67q-38 -22 -86 -22q-37 0 -82 21q-65 32 -65 66q0 23 20 53q18 27 38 42q34 23 89 23q67 0 105 -31q48 -48 48 -85z" />
    <glyph glyph-name="KTT_1" unicode="&#x109a;" horiz-adv-x="969" 
d="M514 241q-30 0 -30 28q0 30 30 30q29 0 29 -30q0 -28 -29 -28zM270 4q-30 0 -30 31q0 11 9 19.5t21 8.5q29 0 29 -28q0 -31 -29 -31zM270 483q-30 0 -30 28q0 31 30 31q29 0 29 -31q0 -28 -29 -28zM438 415q-29 0 -29 30q0 12 9 20.5t20 8.5q30 0 30 -29q0 -30 -30 -30z
M495 341q-31 0 -31 30q0 12 9.5 21t21.5 9q11 0 20 -9.5t9 -20.5q0 -30 -29 -30zM366 464q-32 0 -32 30q0 13 9.5 22t22.5 9q10 0 18.5 -10t8.5 -21q0 -30 -27 -30zM438 129q30 0 30 -30q0 -29 -30 -29q-11 0 -20 8.5t-9 20.5q0 30 29 30zM495 203q12 0 20.5 -9t8.5 -21
q0 -11 -9 -20.5t-20 -9.5q-12 0 -21.5 9t-9.5 21q0 30 31 30zM366 80q27 0 27 -30q0 -11 -8.5 -21t-18.5 -10q-13 0 -22.5 9t-9.5 22q0 30 32 30zM34 241q-29 0 -29 28q0 30 29 30q30 0 30 -30q0 -28 -30 -28zM110 415q-30 0 -30 30q0 29 30 29q11 0 20 -8.5t9 -20.5
q0 -30 -29 -30zM53 341q-29 0 -29 30q0 11 9 20.5t20 9.5q12 0 21.5 -9t9.5 -21q0 -30 -31 -30zM182 464q-27 0 -27 30q0 11 8.5 21t18.5 10q13 0 22.5 -9t9.5 -22q0 -30 -32 -30zM110 129q29 0 29 -30q0 -12 -9 -20.5t-20 -8.5q-30 0 -30 29q0 30 30 30zM53 203
q31 0 31 -30q0 -12 -9.5 -21t-21.5 -9q-11 0 -20 9.5t-9 20.5q0 12 8.5 21t20.5 9zM182 80q32 0 32 -30q0 -13 -9.5 -22t-22.5 -9q-10 0 -18.5 10t-8.5 21q0 30 27 30zM751 406q-44 0 -73.5 30t-29.5 74q0 45 29 75t74 30t76 -30t31 -75q0 -44 -31.5 -74t-75.5 -30zM751 543
q-31 0 -31 -33t31 -33q35 0 35 33t-35 33z" />
    <glyph glyph-name="KTT_3" unicode="&#x109b;" horiz-adv-x="972" 
d="M514 241q-30 0 -30 28q0 30 30 30q29 0 29 -30q0 -28 -29 -28zM270 4q-30 0 -30 31q0 11 9 19.5t21 8.5q29 0 29 -28q0 -31 -29 -31zM270 483q-30 0 -30 28q0 31 30 31q29 0 29 -31q0 -28 -29 -28zM438 415q-29 0 -29 30q0 12 9 20.5t20 8.5q30 0 30 -29q0 -30 -30 -30z
M495 341q-31 0 -31 30q0 12 9.5 21t21.5 9q11 0 20 -9.5t9 -20.5q0 -30 -29 -30zM366 464q-32 0 -32 30q0 13 9.5 22t22.5 9q10 0 18.5 -10t8.5 -21q0 -30 -27 -30zM438 129q30 0 30 -30q0 -29 -30 -29q-11 0 -20 8.5t-9 20.5q0 30 29 30zM495 203q12 0 20.5 -9t8.5 -21
q0 -11 -9 -20.5t-20 -9.5q-12 0 -21.5 9t-9.5 21q0 30 31 30zM366 80q27 0 27 -30q0 -11 -8.5 -21t-18.5 -10q-13 0 -22.5 9t-9.5 22q0 30 32 30zM34 241q-29 0 -29 28q0 30 29 30q30 0 30 -30q0 -28 -30 -28zM110 415q-30 0 -30 30q0 29 30 29q11 0 20 -8.5t9 -20.5
q0 -30 -29 -30zM53 341q-29 0 -29 30q0 11 9 20.5t20 9.5q12 0 21.5 -9t9.5 -21q0 -30 -31 -30zM182 464q-27 0 -27 30q0 11 8.5 21t18.5 10q13 0 22.5 -9t9.5 -22q0 -30 -32 -30zM110 129q29 0 29 -30q0 -12 -9 -20.5t-20 -8.5q-30 0 -30 29q0 30 30 30zM53 203
q31 0 31 -30q0 -12 -9.5 -21t-21.5 -9q-11 0 -20 9.5t-9 20.5q0 12 8.5 21t20.5 9zM182 80q32 0 32 -30q0 -13 -9.5 -22t-22.5 -9q-10 0 -18.5 10t-8.5 21q0 30 27 30zM701 668q-49 6 -73 30q-30 30 -30 74q0 45 29 75t74 30q44 0 76 -30q41 -38 41 -75q0 -2 1 -15.5
t1 -24.5q0 -169 -222 -290q-5 -2 -8 -2q-7 0 -7 9q0 20 27 45q40 37 73 82q35 49 35 74q0 16 -17 18zM701 805q-31 0 -31 -33t31 -33q35 0 35 33t-35 33z" />
    <glyph glyph-name="VSAT_A" unicode="&#x109c;" horiz-adv-x="1200" 
d="M514 241q-29 0 -29 28q0 30 29 30q30 0 30 -30q0 -28 -30 -28zM270 4q-29 0 -29 31q0 11 9 19.5t20 8.5q29 0 29 -28q0 -31 -29 -31zM270 483q-29 0 -29 28q0 31 29 31t29 -31q0 -28 -29 -28zM439 415q-30 0 -30 30q0 12 9 20.5t21 8.5q29 0 29 -29q0 -30 -29 -30z
M495 341q-31 0 -31 30q0 12 9.5 21t21.5 9q11 0 20.5 -9.5t9.5 -20.5q0 -30 -30 -30zM366 464q-31 0 -31 30q0 13 9.5 22t21.5 9q11 0 19.5 -10t8.5 -21q0 -30 -28 -30zM439 129q29 0 29 -30q0 -29 -29 -29q-12 0 -21 8.5t-9 20.5q0 30 30 30zM495 203q12 0 21 -9t9 -21
q0 -11 -9.5 -20.5t-20.5 -9.5q-12 0 -21.5 9t-9.5 21q0 30 31 30zM366 80q28 0 28 -30q0 -11 -8.5 -21t-19.5 -10q-12 0 -21.5 9t-9.5 22q0 30 31 30zM35 241q-30 0 -30 28q0 30 30 30q29 0 29 -30q0 -28 -29 -28zM110 415q-29 0 -29 30q0 29 29 29q12 0 21 -8.5t9 -20.5
q0 -30 -30 -30zM54 341q-30 0 -30 30q0 11 9.5 20.5t20.5 9.5q12 0 21.5 -9t9.5 -21q0 -30 -31 -30zM183 464q-28 0 -28 30q0 11 8.5 21t19.5 10q12 0 21.5 -9t9.5 -22q0 -30 -31 -30zM110 129q30 0 30 -30q0 -12 -9 -20.5t-21 -8.5q-29 0 -29 29q0 30 29 30zM54 203
q31 0 31 -30q0 -12 -9.5 -21t-21.5 -9q-11 0 -20.5 9.5t-9.5 20.5q0 12 9 21t21 9zM183 80q31 0 31 -30q0 -13 -9.5 -22t-21.5 -9q-11 0 -19.5 10t-8.5 21q0 30 28 30zM874 421q-10 -48 -36 -70q-33 -27 -76 -24q-45 4 -72.5 36t-23.5 77q4 43 37 72q41 38 78 35
q33 -3 67 -6q62 -12 116 -58q73 -63 126 -184q2 -4 2 -7q0 -7 -8 -7q-21 0 -44 31q-35 44 -77 81q-47 40 -71 40q-15 0 -18 -16zM738 433q-3 -31 30 -34t36 29q3 34 -30 37t-36 -32zM874 121q-10 -48 -36 -70q-33 -27 -76 -24q-45 4 -72.5 36t-23.5 77q4 43 37 72
q41 38 78 35q33 -3 67 -6q62 -12 116 -58q73 -63 126 -184q2 -4 2 -7q0 -7 -8 -7q-21 0 -44 31q-35 44 -77 81q-47 40 -71 40q-15 0 -18 -16zM738 133q-3 -31 30 -34t36 29q3 34 -30 37t-36 -32z" />
    <glyph glyph-name="VSAT_AI" unicode="&#x109d;" horiz-adv-x="659" 
d="M514 241q-29 0 -29 28q0 30 29 30q30 0 30 -30q0 -28 -30 -28zM270 4q-29 0 -29 31q0 11 9 19.5t20 8.5q29 0 29 -28q0 -31 -29 -31zM270 483q-29 0 -29 28q0 31 29 31t29 -31q0 -28 -29 -28zM439 415q-30 0 -30 30q0 12 9 20.5t21 8.5q29 0 29 -29q0 -30 -29 -30z
M495 341q-31 0 -31 30q0 12 9.5 21t21.5 9q11 0 20.5 -9.5t9.5 -20.5q0 -30 -30 -30zM366 464q-31 0 -31 30q0 13 9.5 22t21.5 9q11 0 19.5 -10t8.5 -21q0 -30 -28 -30zM439 129q29 0 29 -30q0 -29 -29 -29q-12 0 -21 8.5t-9 20.5q0 30 30 30zM495 203q12 0 21 -9t9 -21
q0 -11 -9.5 -20.5t-20.5 -9.5q-12 0 -21.5 9t-9.5 21q0 30 31 30zM366 80q28 0 28 -30q0 -11 -8.5 -21t-19.5 -10q-12 0 -21.5 9t-9.5 22q0 30 31 30zM35 241q-30 0 -30 28q0 30 30 30q29 0 29 -30q0 -28 -29 -28zM110 415q-29 0 -29 30q0 29 29 29q12 0 21 -8.5t9 -20.5
q0 -30 -30 -30zM54 341q-30 0 -30 30q0 11 9.5 20.5t20.5 9.5q12 0 21.5 -9t9.5 -21q0 -30 -31 -30zM183 464q-28 0 -28 30q0 11 8.5 21t19.5 10q12 0 21.5 -9t9.5 -22q0 -30 -31 -30zM110 129q30 0 30 -30q0 -12 -9 -20.5t-21 -8.5q-29 0 -29 29q0 30 29 30zM54 203
q31 0 31 -30q0 -12 -9.5 -21t-21.5 -9q-11 0 -20.5 9.5t-9.5 20.5q0 12 9 21t21 9zM183 80q31 0 31 -30q0 -13 -9.5 -22t-21.5 -9q-11 0 -19.5 10t-8.5 21q0 30 28 30zM518 527h-84v250l-1 9q-2 15 -17.5 30.5t-36.5 15.5q-44 0 -53 -51l-90 -2q1 26 16 57q39 82 128 82
q56 0 99 -42q18 -18 28 -39l11 -55v-255z" />
    <glyph glyph-name="shan.one" unicode="&#x109e;" horiz-adv-x="475" 
d="M98 585q0 45 31 75.5t76 30.5q43 0 74 -31.5t31 -74.5t-31 -74t-74 -31q-45 0 -76 30.5t-31 74.5zM166 585q0 -16 11 -27t28 -11q16 0 28.5 11t12.5 27q0 17 -12 28.5t-29 11.5q-39 0 -39 -40zM389 -420h-210l3 758l-71 1l1 80l156 1v-753h120z" />
    <glyph glyph-name="shan.xcla" unicode="&#x109f;" horiz-adv-x="805" 
d="M505 580l-44 -5l-35 1l-34 10q-60 16 -123 116l-12 37l-7 45q0 121 126 197l42 15l44 5l25 -1q15 -1 25 -7l52 -20q58 -23 89 -104l-17 -15l-40 -27q-12 37 -53 72q-35 29 -82 29q-57 0 -97.5 -41.5t-40.5 -98.5q0 -30 3 -32q0 -9 13 -35q4 -20 46 -49l18 -12l19 -7
l42 -8q23 0 36 7q72 -13 118 -55q23 -22 67 -88v-930h-213v682q0 74 -55.5 130t-130.5 56q-77 0 -131.5 -54.5t-54.5 -131.5q0 -76 53 -132q49 -54 133 -54h11l-11 -94q-113 0 -196 83.5t-83 196.5q0 114 82.5 196.5t196.5 82.5q115 0 197 -82.5t82 -196.5v-628h39v844
l-29 44z" />
    <glyph glyph-name="lang_mymr" unicode="&#x1700;" horiz-adv-x="1135" 
d="M154 302q-21 -11 -29 -24v1q-24 -38 -24 -104q0 -17 4 -37q33 33 79 33q45 0 76 -33q4 20 4 37q0 66 -24 103v-1q-15 18 -30 26l22 58q54 -38 71 -107q8 -36 8 -79v-366q0 -54 -40 -54h-229q-42 0 -42 55v740q0 54 42 54h226q41 5 41 -54v-119h-46v117h-215v-734h217v221
q-33 -38 -81 -38q-90 0 -120 108q-9 32 -9 70q0 89 35 147q24 24 47 38zM482 351q26 -8 48 -28l-24 -52q-31 27 -55 27q-21 0 -28 -10q2 -12 41 -30q2 -2 5 -2q74 -29 97 -64q11 -18 10 -39q-2 -58 -34 -102v1q-26 -38 -67 -49v-248h-48v247q-27 6 -47 22q-12 7 -20 22l-5 6
q-5 8 -24 49q-3 12 -3 27q0 43 33 59q19 9 48 9q30 0 49 -31q17 -27 17 -59v-41q23 13 33 28t17 33l-1 -1q4 25 -22 46q-18 15 -59.5 34.5t-58.5 33.5q-28 22 -23 46q10 51 55 66q-58 29 -58 124q0 58 26.5 94.5t68.5 36.5q51 0 78 -56q4 -10 9 -25l-42 -26q-3 10 -13 29
l-1 2q-13 19 -32 19q-48 0 -48 -74q0 -26 10 -46q12 -26 36 -26h4l9 9zM878 66q16 -8 27 -8q30 0 55 32q24 37 24 85q0 42 -18 77q-22 42 -61 42q-34 0 -57 -32q-7 -10 -16 -34q3 -18 3 -53q0 -67 -30 -118q-35 -60 -98 -60q-44 0 -77 33q-29 29 -42 75q-10 32 -10 70
q0 89 40 150q10 15 42 36l18 -59q-16 -8 -29 -24l1 1q-25 -42 -25 -104q0 -17 4 -37q37 33 78 33q45 0 77 -34q4 20 4 38q0 65 -24 103v-1q-15 18 -30 26l19 58q30 -18 47 -42q4 -6 10 -19l1 1l1 1q33 50 93 50q57 0 91 -51t34 -126q0 -77 -33.5 -126t-91.5 -49q-20 0 -38 7
zM184 111q-31 0 -55 -28q24 -27 55 -27q27 0 52 27q-24 28 -52 28zM707 111q-29 0 -54 -28q27 -27 54 -27q28 0 53 27q-24 28 -53 28zM410 135q-28 0 -28 -15q11 -48 45 -57v43q0 29 -17 29z" />
    <glyph glyph-name="TL_KA" unicode="&#x1950;" horiz-adv-x="667" 
d="M447 402q0 69 -34 100q-31 28 -92 28q-72 0 -127 -30q-49 -28 -87 -72h-85l-24 186h94l12 -103h2q51 59 101 81t127 22q103 0 153 -42q56 -49 56 -164v-409h-96v403z" />
    <glyph glyph-name="TL_XA" unicode="&#x1951;" horiz-adv-x="661" 
d="M448 284l-182 -18q-87 -9 -126 -32q-43 -26 -43 -77q0 -90 124 -90q109 0 168 44t59 115v58zM23 428l-24 186h93l12 -105h3q46 60 91 82.5t119 22.5q114 0 172 -68q55 -63 55 -179v-266l-81 -101h-15v94h-3q-74 -108 -235 -108q-148 0 -196 101q-15 31 -15 68
q0 87 64 133q59 44 175 54l210 19q0 86 -37.5 127.5t-122.5 41.5q-67 0 -104.5 -21.5t-74.5 -80.5h-86z" />
    <glyph glyph-name="TL_NGA" unicode="&#x1952;" horiz-adv-x="670" 
d="M536 0h-96v342q0 191 -158 191q-83 0 -136 -54t-53 -137v-342h-96v499l81 101h15v-100h3q75 114 217 114q113 0 170 -68q53 -63 53 -179v-367z" />
    <glyph glyph-name="TL_TSA" unicode="&#x1953;" horiz-adv-x="900" 
d="M339 258q0 -191 150 -191q78 0 129 54t51 125v96q0 191 -150 191q-77 0 -130 -54q-22 -22 -35 -56q-15 -40 -15 -69v-96zM335 503q43 59 93 85t122 26q110 0 165 -70q50 -64 50 -177v-266l-81 -101h-15v100h-3q-72 -114 -212 -114q-210 0 -210 247v192q0 49 -5 67
q-11 38 -47 38q-27 0 -49 -30q-16 -22 -35 -72h-86l-24 186h94l12 -92h2q17 30 20 35q12 20 26 31q31 26 80 26q72 0 95 -69q6 -21 8 -42z" />
    <glyph glyph-name="TL_SA" unicode="&#x1954;" horiz-adv-x="882" 
d="M339 257q0 -190 157 -190q80 0 128 55q45 53 45 132v346h96v-499l-81 -101h-15v95h-3q-63 -109 -195 -109q-227 0 -227 255v184q0 49 -5 67q-11 38 -47 38q-27 0 -49 -30q-16 -22 -35 -72h-86l-24 186h94l12 -92h2q17 30 20 35q12 20 26 31q31 26 80 26q107 0 107 -139
v-218z" />
    <glyph glyph-name="TL_YA" unicode="&#x1955;" horiz-adv-x="800" 
d="M674 50q0 -62 -60 -62q-34 0 -62 19t-101 81q-23 20 -71 58q-25 17 -44 17q-28 0 -75 -40q-13 -11 -41 -35l-36 -31q-29 -25 -45 -37q-30 -23 -49 -28q-15 -4 -32 -4q-61 0 -61 62v550h96v-496l93 75q53 43 70 53q42 27 81 27q43 0 103 -46q16 -13 43 -34l95 -75v496h96
v-550z" />
    <glyph glyph-name="TL_TA" unicode="&#x1956;" horiz-adv-x="1000" 
d="M483 240q0 -125 -62.5 -189.5t-178.5 -64.5q-239 0 -239 255v258l80 101h16v-95h2q57 109 177 109q142 0 188 -116h6q41 85 126 108q29 8 64 8q206 0 206 -255v-359h-96v343q0 190 -137 190q-103 0 -140 -111q-12 -34 -12 -76v-106zM242 67q145 0 145 190v86
q0 190 -136 190q-103 0 -140 -111q-12 -34 -12 -76v-89q0 -101 36.5 -145.5t106.5 -44.5z" />
    <glyph glyph-name="TL_THA" unicode="&#x1957;" horiz-adv-x="1000" 
d="M83 600h16v-95h2q57 109 177 109q140 0 188 -116h6q41 85 126 108q30 8 65 8q205 0 205 -255v-261l-78 -98h-14v95h-4q-56 -109 -176 -109q-142 0 -191 116h-5q-59 -116 -191 -116q-206 0 -206 255v258zM483 247q0 -180 138 -180q66 0 108.5 53t42.5 121v102
q0 190 -137 190q-103 0 -140 -111q-12 -34 -12 -76v-99zM99 257q0 -190 137 -190q102 0 140 111q11 34 11 76v89q0 190 -136 190q-103 0 -140 -111q-12 -34 -12 -76v-89z" />
    <glyph glyph-name="TL_LA" unicode="&#x1958;" horiz-adv-x="700" 
d="M469 0v130q-56 -41 -105 -41q-33 0 -78 25q-37 24 -115 65q-18 7 -31 7q-49 0 -49 -50q0 -53 49 -53q14 0 46 8v-72q-22 -9 -59 -9q-63 0 -96 33q-36 34 -36 93q0 87 76 115q26 9 63 9q65 0 140 -47q24 -16 49 -32q32 -17 55 -17q41 0 76 22l15 10v404h96v-600h-96z" />
    <glyph glyph-name="TL_PA" unicode="&#x1959;" horiz-adv-x="673" 
d="M467 0h-14v95h-3q-67 -109 -207 -109q-239 0 -239 255v359h96v-343q0 -190 167 -190q83 0 134.5 52t51.5 135v346h96v-499z" />
    <glyph glyph-name="TL_PHA" unicode="&#x195a;" horiz-adv-x="1000" 
d="M868 97l-77 -97h-15v95h-3q-56 -109 -177 -109q-142 0 -190 116h-6q-44 -86 -126 -108q-29 -8 -65 -8q-206 0 -206 255v359h96v-343q0 -190 137 -190q102 0 140 111q11 34 11 76v346h92v-95h3q57 109 178 109q208 0 208 -255v-262zM772 343q0 190 -137 190
q-48 0 -85.5 -29.5t-53.5 -76.5q-13 -36 -13 -73v-97q0 -190 138 -190q50 0 87 31t53 80q11 34 11 76v89z" />
    <glyph glyph-name="TL_MA" unicode="&#x195b;" horiz-adv-x="673" 
d="M457 0h-14v95h-3q-67 -109 -207 -109q-239 0 -239 255v359h96v-228h353v228h96v-499zM257 67q83 0 134.5 52t51.5 135v42h-353v-39q0 -190 167 -190z" />
    <glyph glyph-name="TL_FA" unicode="&#x195c;" horiz-adv-x="1000" 
d="M777 95h-4q-56 -109 -177 -109q-142 0 -190 116h-5q-45 -86 -126 -108q-30 -8 -66 -8q-206 0 -206 255v359h96v-343q0 -190 137 -190q102 0 140 111q11 34 11 76v346h92v-95h3q57 109 178 109q208 0 208 -255v-359q0 -99 -55 -150q-46 -42 -132 -42q-46 0 -70 11v86
q28 -15 64 -15q102 0 102 115v90zM772 343q0 190 -137 190q-103 0 -140 -111q-12 -34 -12 -76v-89q0 -190 138 -190q50 0 87 31t53 80q11 34 11 76v89z" />
    <glyph glyph-name="TL_VA" unicode="&#x195d;" horiz-adv-x="673" 
d="M548 100l-80 -100h-15v95h-3q-66 -109 -206 -109q-241 0 -241 255v258l80 101h16v-100h2q78 114 221 114q113 0 171 -68q55 -63 55 -179v-267zM99 354v-97q0 -190 168 -190q83 0 134 53t51 134v88q0 191 -160 191q-86 0 -139.5 -54.5t-53.5 -124.5z" />
    <glyph glyph-name="TL_HA" unicode="&#x195e;" horiz-adv-x="1000" 
d="M251 533q-103 0 -139 -106q-13 -36 -13 -73v-97q0 -190 137 -190q102 0 140 111q11 34 11 76v99q0 180 -136 180zM483 0q0 -101 -55 -150q-47 -42 -132 -42q-45 0 -69 11v86q24 -15 63 -15q76 0 95 61q7 23 7 54v90h-4q-56 -109 -178 -109q-207 0 -207 255v258l80 101h16
v-95h2q57 109 177 109q142 0 188 -116h6q45 86 126 108q30 8 65 8q205 0 205 -255v-359h-96v343q0 190 -137 190q-48 0 -85.5 -29.5t-53.5 -76.5q-13 -36 -13 -73v-354z" />
    <glyph glyph-name="TL_QA" unicode="&#x195f;" horiz-adv-x="900" 
d="M244 402q0 102 -30 122q-10 6 -20 6q-42 0 -70 -63q-8 -18 -16 -39h-86l-24 186h94l12 -92h2q24 48 47 68q28 24 75 24q85 0 105 -114h2q74 114 210 114q104 0 162 -63.5t58 -183.5v-367h-96v342q0 191 -150 191q-81 0 -130.5 -54.5t-49.5 -136.5v-259q0 -101 -56 -150
q-49 -42 -135 -42q-44 0 -68 11v86q23 -14 63 -14q101 0 101 109v319z" />
    <glyph glyph-name="TL_KHA" unicode="&#x1960;" horiz-adv-x="667" 
d="M448 94h-4q-74 -108 -235 -108q-63 0 -113 23q-58 26 -82 78q-15 31 -15 68q0 87 64 133q59 44 175 54l210 19q0 87 -36 128q-39 44 -124 44q-93 0 -143 -55q-18 -20 -36 -47h-86l-24 185h93l12 -105h3q43 58 91 81.5t119 23.5q114 0 172 -69q55 -64 55 -180v-367
q0 -101 -56 -150q-49 -42 -136 -42q-45 0 -69 11v86q24 -15 64 -15q101 0 101 115v89zM448 284l-182 -18q-87 -9 -126 -32q-43 -26 -43 -77q0 -90 124 -90q109 0 168 44t59 115v58z" />
    <glyph glyph-name="TL_TSHA" unicode="&#x1961;" horiz-adv-x="890" 
d="M339 257q0 -190 157 -190q80 0 128 55q45 53 45 132v346h96v-600q0 -101 -56 -150q-49 -42 -136 -42q-45 0 -69 11v86q26 -15 64 -15q101 0 101 110v95h-3q-63 -109 -195 -109q-227 0 -227 255v184q0 49 -5 67q-11 38 -47 38q-27 0 -49 -30q-16 -22 -35 -72h-86l-24 186
h94l12 -92h2q17 30 20 35q12 20 26 31q31 26 80 26q107 0 107 -139v-218z" />
    <glyph glyph-name="TL_NA" unicode="&#x1962;" horiz-adv-x="726" 
d="M588 0h-95v490q-12 -24 -41 -60l-347 -430h-108v600h96v-485q7 17 31 46l354 439h110v-600z" />
    <glyph glyph-name="TL_A" unicode="&#x1963;" horiz-adv-x="261" 
d="M-154 900q121 0 185 -63t64 -184v-653h-96v640q0 92 -41 137q-39 41 -112 41v82z" />
    <glyph glyph-name="TL_I" unicode="&#x1964;" horiz-adv-x="625" 
d="M246 900q121 0 185 -63t64 -184v-653h-78q-97 0 -192 57q-99 59 -132 145v-202h-96v653q0 247 249 247zM158 301q0 -77 59 -135q52 -52 131 -73q27 -7 51 -8v437q-49 0 -101 -26q-98 -50 -128 -130q-12 -30 -12 -65zM399 607v33q0 92 -41 137q-39 41 -112 41
q-75 0 -111 -41q-42 -47 -42 -137v-245q33 90 121 150t185 62z" />
    <glyph glyph-name="TL_EE" unicode="&#x1965;" horiz-adv-x="625" 
d="M246 900q121 0 185 -63t64 -184v-653h-96v640q0 92 -41 137q-39 41 -112 41q-75 0 -111 -41q-42 -47 -42 -137v-640h-96v653q0 247 249 247z" />
    <glyph glyph-name="TL_EH" unicode="&#x1966;" horiz-adv-x="625" 
d="M399 640q0 92 -41 137q-39 41 -112 41q-75 0 -111 -41q-42 -47 -42 -137v-640h-96v653q0 247 249 247q121 0 185 -63t64 -184v-703q0 -116 -53 -171t-169 -55q-80 0 -120 14v83q39 -15 108 -15q80 0 111 40q27 35 27 111v683z" />
    <glyph glyph-name="TL_U" unicode="&#x1967;" horiz-adv-x="300" 
d="M284 -413h-70q-99 0 -150.5 47.5t-51.5 127.5h74q0 -51 41 -80q36 -25 88 -25h69v-70zM298 -276q-88 0 -135 42q-56 50 -56 150v684h96v-679q0 -63 24 -89t77 -26h268v-82h-274z" />
    <glyph glyph-name="TL_OO" unicode="&#x1968;" horiz-adv-x="261" 
d="M188 -276q-191 0 -191 192v684h96v-679q0 -63 24 -89t77 -26h268v-82h-274z" />
    <glyph glyph-name="TL_O" unicode="&#x1969;" horiz-adv-x="628" 
d="M246 -276q-249 0 -249 247v629h96v-604q0 -91 42 -142q38 -48 111 -48q80 0 119 59q34 49 34 131v604h96v-629q0 -121 -64 -184t-185 -63z" />
    <glyph glyph-name="TL_UE" unicode="&#x196a;" horiz-adv-x="628" 
d="M158 301q0 -78 58 -136q52 -51 132 -72q27 -7 51 -8v437q-47 0 -101 -25q-140 -66 -140 -196zM399 607v33q0 92 -41 137q-39 41 -112 41q-75 0 -111 -41q-42 -47 -42 -137v-245q31 88 120.5 149t185.5 63zM-3 653q0 247 249 247q121 0 185 -63t64 -184v-653h-77
q-92 0 -188 54q-105 59 -137 148v-245q0 -76 28 -111q30 -40 110 -40q70 0 108 15v-83q-40 -14 -120 -14q-116 0 -169 55t-53 171v703z" />
    <glyph glyph-name="TL_E" unicode="&#x196b;" horiz-adv-x="625" 
d="M-3 653q0 247 249 247q121 0 185 -63t64 -184v-653h-96v640q0 92 -41 137q-39 41 -112 41q-75 0 -111 -41q-42 -47 -42 -137v-683q0 -76 28 -111q30 -40 110 -40q70 0 108 15v-83q-40 -14 -120 -14q-116 0 -169 55t-53 171v703z" />
    <glyph glyph-name="TL_AUE" unicode="&#x196c;" horiz-adv-x="261" 
d="M462 888v-83h-268q-54 0 -76 -24q-25 -27 -25 -90v-691h-96v696q0 102 57 150q50 42 134 42h274z" />
    <glyph glyph-name="TL_AI" unicode="&#x196d;" horiz-adv-x="872" 
d="M499 67q160 0 160 190v343h96v-359q0 -124 -67.5 -189.5t-185.5 -65.5q-88 0 -145 30q-17 9 -28 21v-5q0 -100 -116 -133q-35 -9 -75 -9q-44 0 -68 10v87q25 -15 62 -15q56 0 77 25q25 29 25 89v339q0 49 -5 67q-11 38 -47 38q-27 0 -49 -30q-16 -22 -35 -72h-86l-24 186
h94l12 -92h2q17 30 20 35q12 20 26 31q31 26 80 26q107 0 107 -139v-218q0 -190 170 -190z" />
    <glyph glyph-name="TL_T_TWO" unicode="&#x1970;" horiz-adv-x="753" 
d="M688 6q-34 -19 -90 -19q-158 0 -158 176v355h-187q-7 -159 -23 -267q-19 -124 -61 -188q-47 -71 -127 -71q-26 0 -43 8v83q15 -11 32 -11q56 0 87 108q29 104 43 338h-113v82h488v-420q0 -55 17 -81q20 -31 72 -31q35 0 63 20v-82z" />
    <glyph glyph-name="TL_T_THREE" unicode="&#x1971;" horiz-adv-x="628" 
d="M99 316l157 18q74 9 110 33.5t36 75.5q0 90 -106 90q-88 0 -147 -45q-50 -38 -50 -114v-58zM480 70q-49 -66 -164 -78q-37 -4 -80 -4q-116 0 -174.5 64t-58.5 181v147q0 115 87 178q77 56 207 56q93 0 150 -47q54 -45 54 -122q0 -86 -56 -133q-52 -43 -158 -54l-188 -19
q0 -87 38.5 -127.5t125.5 -40.5q107 0 175 57q24 20 42 47v-105z" />
    <glyph glyph-name="TL_T_FOUR" unicode="&#x1972;" horiz-adv-x="802" 
d="M452 394q0 74 -38 108q-35 31 -110 31q-92 0 -148.5 -44t-56.5 -115v-117q0 -190 168 -190q83 0 134 53t51 134v140zM456 109l-7 -14q-54 -109 -206 -109q-240 0 -240 255v139q0 120 99 182q83 52 209 52q237 0 237 -193v-256q0 -46 21 -72t68 -26q35 0 63 20v-82
q-34 -19 -90 -19q-132 0 -154 123z" />
    <glyph glyph-name="TL_T_FIVE" unicode="&#x1973;" horiz-adv-x="649" 
d="M386 616q73 0 117.5 -43t44.5 -116v-222q0 -125 -75 -188q-70 -59 -198 -59q-272 0 -272 247v365h96v-352q0 -92 48 -136q44 -42 128 -42t128 42q49 45 49 136v65q-22 -8 -59 -8q-77 0 -121 42.5t-44 115.5q0 49 24 88t69 55q29 10 65 10zM390 380q35 0 55 22t20 58
q0 78 -76 78q-77 0 -77 -77q0 -37 21 -59t57 -22z" />
    <glyph glyph-name="TL_T_SIX" unicode="&#x1974;" horiz-adv-x="628" 
d="M3 380q0 115 87 178q77 56 207 56q93 0 150 -47q54 -45 54 -122v-17h-99v15q0 90 -106 90q-88 0 -147 -45q-50 -38 -50 -114v-135q0 -87 38.5 -127.5t125.5 -40.5q107 0 175 57q24 20 42 47v-105q-49 -66 -164 -78q-37 -4 -80 -4q-116 0 -174.5 64t-58.5 181v147z" />
    <glyph glyph-name="uni200A" unicode="&#x200a;" horiz-adv-x="125" 
 />
    <glyph glyph-name="uni200B" unicode="&#x200b;" 
 />
    <glyph glyph-name="uni200C" unicode="&#x200c;" 
d="M18 854v-1053h-36v1053h36z" />
    <glyph glyph-name="uni200D" unicode="&#x200d;" 
d="M18 -199h-36v907l-65 -66l-24 24l84 83l-84 82l24 23l83 -83l83 83l24 -23l-84 -82l84 -83l-24 -24l-65 66v-907z" />
    <glyph glyph-name="uni200E" unicode="&#x200e;" 
d="M210 750l-106 -105l-23 24l66 63h-129v-931h-36v966h165l-66 64l23 23z" />
    <glyph glyph-name="uni200F" unicode="&#x200f;" 
d="M18 -199h-36v931h-129l66 -63l-23 -24l-106 105l106 104l23 -23l-66 -64h165v-966z" />
    <glyph glyph-name="uni2012" unicode="&#x2012;" horiz-adv-x="539" 
d="M495 247h-451v63h451v-63z" />
    <glyph glyph-name="endash" unicode="&#x2013;" horiz-adv-x="556" 
d="M-2 224v70h556v-70h-556z" />
    <glyph glyph-name="emdash" unicode="&#x2014;" horiz-adv-x="1000" 
d="M0 224v70h1000v-70h-1000z" />
    <glyph glyph-name="uni2015" unicode="&#x2015;" horiz-adv-x="1000" 
d="M1000 247h-1000v63h1000v-63z" />
    <glyph glyph-name="quoteleft" unicode="&#x2018;" horiz-adv-x="222" 
d="M62 465v71q0 26 2.5 47t7.5 39t12 34t17 32h59q-22 -32 -34 -64t-12 -64h43v-95h-95z" />
    <glyph glyph-name="quoteright" unicode="&#x2019;" horiz-adv-x="222" 
d="M160 617q0 -26 -2 -47t-7 -39t-12 -34.5t-17 -31.5h-60q22 32 34 64t12 63h-43v96h95v-71z" />
    <glyph glyph-name="quotesinglbase" unicode="&#x201a;" horiz-adv-x="222" 
d="M160 25q0 -26 -2 -47t-7 -39.5t-12 -34.5t-17 -32h-60q22 32 34 64t12 64h-43v95h95v-70z" />
    <glyph glyph-name="quotedblleft" unicode="&#x201c;" horiz-adv-x="333" 
d="M198 465v71q0 26 2.5 47t7 39t11.5 34t17 32h60q-22 -32 -34 -64t-12 -64h43v-95h-95zM36 465v71q0 26 2.5 47t7.5 39t12 34t17 32h59q-22 -32 -34 -64t-12 -64h43v-95h-95z" />
    <glyph glyph-name="quotedblright" unicode="&#x201d;" horiz-adv-x="333" 
d="M296 617q0 -26 -2.5 -47t-7 -39t-12 -34.5t-17.5 -31.5h-59q22 32 34 64t12 64h-43v95h95v-71zM134 617q0 -26 -2 -47t-7 -39t-12 -34.5t-17 -31.5h-60q22 32 34 64t12 64h-43v95h95v-71z" />
    <glyph glyph-name="bullet" unicode="&#x2022;" horiz-adv-x="350" 
d="M53 351q0 51 36.5 87t87.5 36t87.5 -36t36.5 -87q0 -52 -36.5 -88t-87.5 -36t-87.5 36t-36.5 88z" />
    <glyph glyph-name="ellipsis" unicode="&#x2026;" horiz-adv-x="1000" 
d="M448 124h104v-124h-104v124zM781 124h104v-124h-104v124zM115 124h104v-124h-104v124z" />
    <glyph glyph-name="guilsinglleft" unicode="&#x2039;" horiz-adv-x="400" 
d="M306 517v-93l-147 -131l147 -131v-93l-229 204v40z" />
    <glyph glyph-name="guilsinglright" unicode="&#x203a;" horiz-adv-x="333" 
d="M174 259l-129 221h73l148 -218l-148 -227h-73z" />
    <glyph glyph-name="Euro" unicode="&#x20ac;" horiz-adv-x="556" 
d="M337 62q48 0 77.5 24t36.5 69l90 -7q-6 -33 -21.5 -62t-40.5 -50t-61 -33.5t-83 -12.5q-59 0 -102 19t-72.5 53t-46.5 80.5t-24 102.5h-83l20 63h58q0 4 -0.5 15t-0.5 23q0 13 0.5 26t0.5 16h-78l20 62h63q7 60 24.5 106t48 78t72.5 48t98 16q48 0 83.5 -12t61 -33.5
t40.5 -50t22 -61.5l-91 -7q-6 44 -36 68.5t-81 24.5q-33 0 -59 -9.5t-45.5 -31t-31.5 -54.5t-18 -82h218l-19 -62h-202q-1 -8 -1 -19.5v-22.5v-20t1 -18h221l-19 -63h-198q5 -39 15 -73t29 -58.5t47 -38t67 -13.5z" />
    <glyph glyph-name="trademark" unicode="&#x2122;" horiz-adv-x="1000" 
d="M536 729l85 -125l80 125h83v-282h-55v236l-95 -148h-27l-99 148v-236h-56v282h84zM397 729v-46h-99v-236h-56v236h-98v46h253z" />
    <glyph glyph-name="minus" unicode="&#xe7;" horiz-adv-x="333" 
d="M32 215v88h270v-88h-270z" />
    <glyph glyph-name="minus" unicode="&#x2212;" horiz-adv-x="333" 
d="M32 215v88h270v-88h-270z" />
    <glyph glyph-name="dottedcircle" unicode="&#x25cc;" horiz-adv-x="659" 
d="M514 241q-29 0 -29 28q0 30 29 30q30 0 30 -30q0 -28 -30 -28zM270 4q-29 0 -29 31q0 11 9 19.5t20 8.5q29 0 29 -28q0 -31 -29 -31zM270 483q-29 0 -29 28q0 31 29 31t29 -31q0 -28 -29 -28zM439 415q-30 0 -30 30q0 12 9 20.5t21 8.5q29 0 29 -29q0 -30 -29 -30z
M495 341q-31 0 -31 30q0 12 9.5 21t21.5 9q11 0 20.5 -9.5t9.5 -20.5q0 -30 -30 -30zM366 464q-31 0 -31 30q0 13 9.5 22t21.5 9q11 0 19.5 -10t8.5 -21q0 -30 -28 -30zM439 129q29 0 29 -30q0 -29 -29 -29q-12 0 -21 8.5t-9 20.5q0 30 30 30zM495 203q12 0 21 -9t9 -21
q0 -11 -9.5 -20.5t-20.5 -9.5q-12 0 -21.5 9t-9.5 21q0 30 31 30zM366 80q28 0 28 -30q0 -11 -8.5 -21t-19.5 -10q-12 0 -21.5 9t-9.5 22q0 30 31 30zM35 241q-30 0 -30 28q0 30 30 30q29 0 29 -30q0 -28 -29 -28zM110 415q-29 0 -29 30q0 29 29 29q12 0 21 -8.5t9 -20.5
q0 -30 -30 -30zM54 341q-30 0 -30 30q0 11 9.5 20.5t20.5 9.5q12 0 21.5 -9t9.5 -21q0 -30 -31 -30zM183 464q-28 0 -28 30q0 11 8.5 21t19.5 10q12 0 21.5 -9t9.5 -22q0 -30 -31 -30zM110 129q30 0 30 -30q0 -12 -9 -20.5t-21 -8.5q-29 0 -29 29q0 30 29 30zM54 203
q31 0 31 -30q0 -12 -9.5 -21t-21.5 -9q-11 0 -20.5 9.5t-9.5 20.5q0 12 9 21t21 9zM183 80q31 0 31 -30q0 -13 -9.5 -22t-21.5 -9q-11 0 -19.5 10t-8.5 21q0 30 28 30z" />
    <glyph glyph-name="CKT_GA" unicode="&#xaa60;" horiz-adv-x="1149" 
d="M1030 264q0 -115 -82 -197t-197 -82l-52 7q-33 13 -28 67q-1 73 49 120.5t124 47.5q41 0 82 -19q21 31 21 56q0 82 -56.5 136t-138.5 54q-85 0 -138.5 -52.5t-53.5 -137.5v-14h-4q-8 -150 -180 -246l-38 71q133 76 133 189q0 83 -54.5 136.5t-137.5 53.5
q-84 0 -139.5 -53t-55.5 -137q0 -114 140 -189l-40 -72l-37 19q-146 75 -146 242q0 124 76.5 198.5t201.5 74.5q151 0 237 -128q85 128 236 128q123 0 200.5 -75t77.5 -198zM886 140q-18 9 -44 9q-31 -1 -61 -30q-26 -26 -26 -39q0 -2 2 -2q66 0 129 62z" />
    <glyph glyph-name="CKT_CA" unicode="&#xaa61;" horiz-adv-x="1144" 
d="M342 549q22 -6 70 -30q63 -32 99 -93q81 129 234 129q115 0 196.5 -82t81.5 -197q0 -114 -82 -196.5t-196 -82.5q-63 0 -120 22q-64 24 -96 70l-56 -79l-78 65q39 44 46 54q19 28 31 65q3 17 3 37q0 112 -65 176q-56 54 -133 54q-85 0 -134 -46q-45 -42 -54 -86
q-5 -24 -5 -42q0 -28 12 -39q18 5 37 5q52 0 89 -37t37 -89q0 -53 -36.5 -90t-89.5 -37q-60 0 -105 64l68 39q23 -19 36 -19q43 0 43 42q0 43 -43 43q-10 0 -28.5 -3t-27.5 -3q-43 -2 -64 45q-14 31 -14 67q0 113 82 197t194 84q41 0 68 -7zM744 462q-77 0 -131.5 -54.5
t-54.5 -131.5q0 -64 54 -132q54 -54 132 -54q77 0 132 54.5t55 131.5q0 76 -55.5 131t-131.5 55z" />
    <glyph glyph-name="CKT_CHA" unicode="&#xaa62;" horiz-adv-x="665" 
d="M140 254l-65 -116v264q27 2 43 21t16 47q0 26 -18.5 46t-45.5 22v0v0h-5q-29 0 -49.5 -20t-20.5 -48q0 -14 5 -27v-7l1 -435h67q37 47 111 158l57 -100q25 -45 80 -59q99 10 164 88t65 185q0 108 -64 184t-171 87v-88q71 -11 112.5 -60.5t41.5 -122.5q0 -81 -54 -136
q-37 -38 -100 -48l-96 162q-3 4 -32 5q-30 2 -42 -2z" />
    <glyph glyph-name="CKT_JA" unicode="&#xaa63;" horiz-adv-x="1118" 
d="M442 374q-8 13 -27 32q-55 55 -138 55q-85 0 -134 -46q-45 -42 -54 -86q-5 -24 -5 -42q0 -28 12 -39q18 5 37 5q52 0 89 -37t37 -89q0 -53 -36.5 -90t-89.5 -37q-60 0 -105 64l68 39q23 -19 36 -19q43 0 43 42q0 43 -43 43q-10 0 -29 -3t-27 -3q-43 -2 -64 45
q-14 32 -14 67q0 117 79.5 194t196.5 77q151 0 228 -118q14 20 35 41q79 77 197 77q120 0 195.5 -76.5t75.5 -196.5t-76 -197t-195 -77q-154 0 -231 115q-10 -18 -30 -47q-33 -35 -86 -59l-19 21q-14 19 -21 53q-12 54 -12 97q0 123 107 195zM465 291q-60 -45 -60 -122
q0 -46 7 -39q37 35 48 103q7 40 5 58zM734 464q-71 0 -126 -43.5t-65 -112.5q-17 -120 67 -185q52 -42 124 -42q81 0 135.5 55t54.5 137t-54 136.5t-136 54.5z" />
    <glyph glyph-name="CKT_JHA" unicode="&#xaa64;" horiz-adv-x="1118" 
d="M1005 273q0 -120 -76 -197t-195 -77q-122 0 -199 76q-20 19 -35 43q-14 -22 -30 -38q-74 -76 -196 -76q-120 0 -195.5 76.5t-75.5 197.5q0 148 129 233q34 22 61 22q50 0 78 -38q26 -34 26 -86q0 -49 -26 -99q-50 -96 -172 -104q48 -120 175 -120q69 0 120 40.5t65 107.5
q8 37 0 78q-9 45 -45 88t-79 61l57 61l24 -12q56 -28 89 -77q12 17 32 36q79 77 197 77q120 0 195.5 -76.5t75.5 -196.5zM924 273q0 82 -54 136.5t-136 54.5q-83 0 -138 -54q-68 -67 -54 -173q10 -70 65 -113t127 -43q81 0 135.5 55t54.5 137zM219 400q0 48 -24 48
q-4 0 -11 -5q-100 -69 -100 -165v-7q62 0 108 47q10 10 19 39q8 26 8 43z" />
    <glyph glyph-name="CKT_NYA" unicode="&#xaa65;" horiz-adv-x="1147" 
d="M558 -345v623q0 77 54.5 131.5t131.5 54.5q78 0 132 -54t54 -132q0 -79 -53.5 -132.5t-132.5 -53.5l-6 -4l6 -89q115 0 197 82t82 197t-82 197t-197 82t-197 -82q-9 -9 -36 -52q-32 56 -95 87l-24 12l-57 -61q52 -22 90.5 -75t38.5 -108q0 -82 -54 -137t-136 -55
q-85 0 -139.5 53.5t-54.5 138.5q0 53 27 99q26 -26 62 -26t61.5 25.5t25.5 61.5t-25.5 61.5t-61.5 25.5q-6 0 -11 -1l-1 1l-3 -2q-34 -6 -55 -33q-101 -77 -101 -212q0 -123 76.5 -199t199.5 -76q117 0 191 72v-2v-340q0 -58 -70 -58h-190q-120 4 -120 38v73h-87v-72
q0 -67 41 -97q49 -35 166 -30h290q63 0 63 68z" />
    <glyph glyph-name="CKT_TTA" unicode="&#xaa66;" horiz-adv-x="1142" 
d="M272 341q29 0 49 -20t20 -49q0 -28 -20.5 -46.5t-48.5 -18.5q-27 0 -46 19t-19 46q0 29 18 49t47 20zM744 0q-55 0 -118 27l31 75q57 -18 87 -18q85 0 139.5 52.5t54.5 137.5q0 82 -55.5 136.5t-138.5 54.5q-85 0 -137.5 -53t-52.5 -138v-9l-2 -3q-6 -120 -81 -191
t-196 -71t-198.5 76.5t-77.5 197.5q0 124 75.5 198.5t200.5 74.5q150 0 235 -127q84 127 234 127q123 0 199.5 -75.5t76.5 -197.5q0 -121 -77.5 -197.5t-198.5 -76.5zM275 465q-84 0 -139 -54t-55 -137t55 -136.5t139 -53.5q83 0 136.5 53.5t53.5 136.5t-53.5 137t-136.5 54
z" />
    <glyph glyph-name="CKT_TTHA" unicode="&#xaa67;" horiz-adv-x="1143" 
d="M744 0q-150 0 -234 129q-85 -129 -235 -129q-121 0 -198.5 76.5t-77.5 197.5q0 124 75.5 198.5t200.5 74.5q150 0 235 -127q84 127 234 127q123 0 199.5 -75.5t76.5 -197.5q0 -121 -77.5 -197.5t-198.5 -76.5zM744 465q-85 0 -137.5 -53t-52.5 -138q0 -83 53.5 -136.5
t136.5 -53.5q85 0 139.5 52.5t54.5 137.5q0 82 -55.5 136.5t-138.5 54.5zM275 465q-84 0 -139 -54t-55 -137t55 -136.5t139 -53.5q83 0 136.5 53.5t53.5 136.5t-53.5 137t-136.5 54zM272 341q29 0 49 -20t20 -49q0 -28 -20.5 -46.5t-48.5 -18.5q-27 0 -46 19t-19 46
q0 29 18 49t47 20z" />
    <glyph glyph-name="CKT_DDA" unicode="&#xaa68;" horiz-adv-x="1144" 
d="M282 341q29 0 49 -20t20 -49q0 -28 -20.5 -46.5t-48.5 -18.5q-27 0 -46 19t-19 46q0 29 18 49t47 20zM-1 274q0 -121 77.5 -197.5t198.5 -76.5t196 71t81 191l2 3v9q0 85 52.5 138t137.5 53q83 0 138.5 -54.5t55.5 -136.5q0 -25 -20 -65q-7 7 -17 16q-32 13 -67 13
q-73 0 -123.5 -48t-49.5 -121q-5 -53 28 -66l52 -8q115 0 197 82t82 197q0 122 -76.5 197.5t-199.5 75.5q-150 0 -234 -127q-85 127 -235 127q-125 0 -200.5 -74.5t-75.5 -198.5zM81 274q0 83 55 137t139 54q83 0 136.5 -54t53.5 -137t-53.5 -136.5t-136.5 -53.5
q-84 0 -139 53.5t-55 136.5zM747 88q-2 0 -2 3q0 21 32.5 45t54.5 24q24 0 44 -9q-63 -63 -129 -63z" />
    <glyph glyph-name="CKT_DDHA" unicode="&#xaa69;" horiz-adv-x="1138" 
d="M272 341q29 0 49 -20t20 -49q0 -28 -20.5 -46.5t-48.5 -18.5q-27 0 -46 19t-19 46q0 29 18 49t47 20zM744 0q-150 0 -234 129q-85 -129 -235 -129q-121 0 -198.5 76.5t-77.5 197.5q0 124 75.5 198.5t200.5 74.5q150 0 235 -127q84 127 234 127q123 0 199.5 -75.5
t76.5 -197.5q0 -121 -77.5 -197.5t-198.5 -76.5zM938 274q0 82 -55.5 136.5t-138.5 54.5q-85 0 -137.5 -53t-52.5 -138q28 6 55 6q84 0 142 -50q55 -49 74 -132q113 55 113 176zM275 465q-84 0 -139 -54t-55 -137t55 -136.5t139 -53.5q83 0 136.5 53.5t53.5 136.5t-53.5 137
t-136.5 54zM591 174q59 -74 154 -78q-30 62 -64 83.5t-105 25.5q-2 -10 15 -31z" />
    <glyph glyph-name="CKT_DHA" unicode="&#xaa6a;" horiz-adv-x="1138" 
d="M744 0q-150 0 -234 129q-85 -129 -235 -129q-121 0 -198.5 76.5t-77.5 197.5q0 124 75.5 198.5t200.5 74.5q150 0 235 -127q84 127 234 127q123 0 199.5 -75.5t76.5 -197.5q0 -121 -77.5 -197.5t-198.5 -76.5zM938 274q0 82 -55.5 136.5t-138.5 54.5q-85 0 -137.5 -53
t-52.5 -138q28 6 55 6q84 0 142 -50q55 -49 74 -132q113 55 113 176zM275 465q-84 0 -139 -54t-55 -137t55 -136.5t139 -53.5q83 0 136.5 53.5t53.5 136.5t-53.5 137t-136.5 54zM591 174q59 -74 154 -78q-30 62 -64 83.5t-105 25.5q-2 -10 15 -31z" />
    <glyph glyph-name="CKT_NA" unicode="&#xaa6b;" horiz-adv-x="684" 
d="M390 0l-42 72q136 75 136 186q0 84 -53.5 139t-136.5 55q-123 0 -180 -122q117 -9 168 -102q27 -49 27 -100q0 -47 -27 -84q-29 -41 -75 -41q-30 0 -86 41q-103 75 -103 214q0 20 2 39q-61 18 -92 94q-24 58 -24 122q0 27 5 36q26 0 81 -4q-3 -14 -3 -30q0 -48 25 -104
q19 -43 24 -43q1 0 2 1q20 49 58 87q78 77 198 77q119 0 195 -77.5t76 -197.5q0 -159 -175 -258zM100 269v-11q0 -88 63 -145q15 -8 33 -21q8 -3 12 -3q21 0 21 46q0 58 -35.5 96t-93.5 38z" />
    <glyph glyph-name="CKT_SA" unicode="&#xaa6c;" horiz-adv-x="1151" 
d="M759 -1q122 0 196.5 77t74.5 198q0 168 -129 232l-24 12l-57 -61q52 -22 90.5 -75t38.5 -108q0 -82 -54 -137t-136 -55q-85 0 -139 54q-19 46 -19 112q19 32 28 87q3 16 -5 43.5t-25 46.5q-35 39 -89 39q-55 0 -89 -37.5t-34 -91.5q0 -17 32 -81q0 -86 -55 -142
q-27 -26 -90 -26q-85 0 -139.5 53.5t-54.5 138.5q0 62 35.5 112t93.5 72l-52 63q-159 -78 -159 -247q0 -123 76.5 -199t199.5 -76q100 0 180 81q25 51 31 72q8 25 11 78q3 33 -18 72q-13 26 -17 53q-1 12 15 22.5t30 10.5q18 0 33.5 -13t9.5 -29q-10 -34 -27 -90
q-2 -10 -3 -26q-1 -99 41 -159q77 -76 199 -76z" />
    <glyph glyph-name="CKT_HA" unicode="&#xaa6d;" horiz-adv-x="1027" 
d="M903 278q0 -115 -82 -197t-197 -82l-6 89l6 4q80 0 133 53t53 133q0 78 -54 132t-132 54q-76 0 -131 -55t-55 -131v-492q-20 -99 -68 -145q-63 -61 -148 -61q-91 0 -150 60q-57 57 -63 149h84q4 -57 37.5 -91t89.5 -34q53 0 87 34q32 31 41 85v495q0 4 -1 10.5t-1 10.5
q-27 -13 -58 -13q-57 0 -97 40.5t-40 97.5t40 97t97 40q45 0 81.5 -26t49.5 -69q86 91 205 91q116 0 197.5 -81.5t81.5 -197.5zM359 424q0 28 -20 48t-48 20q-29 0 -49 -19.5t-20 -48.5t20 -49t49 -20t48.5 20t19.5 49z" />
    <glyph glyph-name="CKT_LLA" unicode="&#xaa6e;" horiz-adv-x="1142" 
d="M1020 274q0 -123 -76.5 -199t-199.5 -76q-129 0 -204 73.5t-75 201.5q0 83 -53 136t-136 53q-86 0 -138.5 -53t-52.5 -139v-6q30 9 66 9q89 0 155 -51q72 -55 72 -141q0 -91 -89 -91q-14 0 -31 3q-257 45 -257 277q0 119 77.5 197.5t196.5 78.5q123 0 200 -75.5
t77 -197.5q0 -84 54 -138t138 -54t139 54.5t55 137.5t-55 137t-139 54q-28 0 -88 -21l6 93q42 10 82 10q121 0 198.5 -76t77.5 -197zM294 88v6q0 57 -61 90q-45 25 -84 25q-28 0 -53 -13q3 -12 23 -40q59 -82 140 -82q16 0 27 8z" />
    <glyph glyph-name="CKT_FA" unicode="&#xaa6f;" horiz-adv-x="1141" 
d="M1020 274q0 -121 -77.5 -197.5t-198.5 -76.5t-196 71t-81 191l-2 3v9q0 85 -52.5 138t-137.5 53q-83 0 -138.5 -54.5t-55.5 -136.5q0 -74 43.5 -125.5t116.5 -62.5q-1 5 -1 9q0 37 25.5 62.5t62.5 25.5q36 0 61.5 -25.5t25.5 -62.5q0 -36 -25.5 -62t-61.5 -25h-3
q-22 -8 -50 -8q-121 0 -198.5 76.5t-77.5 197.5q0 122 76.5 197.5t199.5 75.5q150 0 234 -127q85 127 235 127q125 0 200.5 -74.5t75.5 -198.5zM938 274q0 83 -55 137t-139 54q-83 0 -136.5 -54t-53.5 -137t53.5 -136.5t136.5 -53.5q84 0 139 53.5t55 136.5z" />
    <glyph glyph-name="redupli" unicode="&#xaa70;" horiz-adv-x="474" 
d="M341 659q-85 38 -148 38t-150 -39q-3 4 -39 63q98 53 183 53q88 0 190 -53zM342 802q-99 32 -150 32q-57 0 -149 -32q-7 12 -19 31l-20 30q95 50 183 50q92 0 190 -50z" />
    <glyph glyph-name="CKT_XA" unicode="&#xaa71;" horiz-adv-x="1150" 
d="M125 153q26 29 65 29q36 0 61.5 -25.5t25.5 -62.5q0 -36 -25.5 -62t-61.5 -25h-4q-11 2 -57 25q-128 76 -128 232q0 124 76.5 198.5t201.5 74.5q151 0 237 -128q85 128 236 128q123 0 200.5 -75t77.5 -198q0 -121 -78 -198t-200 -77q-36 0 -72 9q3 27 15 83q42 -8 57 -8
q86 0 140.5 53t54.5 138q0 82 -56.5 136t-138.5 54q-85 0 -138.5 -52.5t-53.5 -137.5v-14h-4q-8 -150 -180 -246l-38 71q133 76 133 189q0 83 -54.5 136.5t-137.5 53.5q-84 0 -139.5 -53t-55.5 -137q0 -61 41 -111z" />
    <glyph glyph-name="CKT_ZA" unicode="&#xaa72;" horiz-adv-x="1348" 
d="M1225 273q0 -120 -76 -197t-195 -77q-154 0 -231 115q-10 -18 -30 -47q-33 -35 -86 -59l-19 21q-14 20 -21 53q38 24 71 65q35 45 42 85q3 17 3 38q0 16 -2 36q-3 15 -10 44q-4 16 -36 56q-44 55 -138 55q-83 0 -138 -53.5t-55 -136.5q0 -49 14 -95q9 -28 19 -55
q12 -36 12 -55q0 -37 -27 -53q-17 -6 -53 -13q-3 0 -0.5 -16.5t-2.5 -19.5q-10 -7 -36 -5q-21 1 -33 3q-3 0 -3.5 19t-3.5 19q-72 4 -106 24q-21 13 -46 53q-32 52 -32 107q0 42 18 77q22 42 71 42q67 0 105 -82l44 -94q-23 136 -23 144q0 121 77.5 197.5t198.5 76.5
q114 0 192 -76q18 -18 33 -41q14 20 35 41q79 77 197 77q120 0 195.5 -76.5t75.5 -196.5zM1144 273q0 82 -54 136.5t-136 54.5q-71 0 -126 -43.5t-65 -112.5q-17 -120 67 -185q52 -42 124 -42q81 0 135.5 55t54.5 137zM155 76q9 3 9 13q0 1 -16 43q-9 24 -13 37
q-10 18 -27 18q-12 0 -12 -16q0 -22 20 -66q22 -35 39 -29z" />
    <glyph glyph-name="CKT_RA" unicode="&#xaa73;" horiz-adv-x="821" 
d="M424 3q121 0 197 77t76 198q0 112 -70 190q-72 82 -183 82q-13 0 -25 -1v-81q83 0 139 -53.5t56 -136.5q0 -82 -54 -137t-136 -55q-84 0 -139 54l-210 390h-78v-524h78v379l150 -305q77 -77 199 -77z" />
    <glyph glyph-name="KT_OAY" unicode="&#xaa74;" horiz-adv-x="805" 
d="M425 387l-3 -232q43 51 43 123q0 54 -40 109zM413 -315q-45 -92 -130 -92q-58 0 -99 41.5t-41 99.5t41 99.5t99 41.5q17 0 50 -10l2 144q-29 -6 -61 -6q-123 0 -199.5 76t-76.5 199q0 169 159 247l53 -63q-59 -22 -94 -71.5t-35 -112.5q0 -85 54 -138.5t139 -53.5
q33 0 61 9l1 366l29 68l52 -19q68 -25 101 -94q28 -58 28 -138q-1 -121 -76 -198q-22 -22 -49 -39l-3 -229l186 -149v814l-29 44l-69 59l-45 -5l-35 1l-34 10q-61 18 -122 116l-13 37l-6 45q0 121 125 197l42 15l45 5l24 -1q14 -1 25 -7l52 -20q59 -23 89 -104l-16 -15
l-41 -27q-13 43 -51.5 72t-83.5 29q-57 0 -97 -41t-40 -99q0 -30 2 -32q0 -9 14 -35q4 -19 46 -49l17 -12l19 -7l42 -8q23 0 36 7q73 -13 118 -55q22 -21 67 -88v-880q-10 -56 -70 -56q-20 0 -43 7zM338 -264q0 22 -15.5 37t-37.5 15t-36.5 -15t-14.5 -37t14.5 -37t36.5 -15
t37.5 15t15.5 37z" />
    <glyph glyph-name="KT_QN" unicode="&#xaa75;" horiz-adv-x="1295" 
d="M910 52l-2 -240l186 -149v814l-29 44l-69 59l-45 -5l-35 1l-34 10q-61 18 -122 116l-13 37l-6 45q0 121 125 197l42 15l45 5l24 -1q14 -1 25 -7l52 -20q59 -23 89 -104l-16 -15l-41 -27q-13 43 -51.5 72t-83.5 29q-57 0 -97 -41t-40 -99q0 -30 2 -32q0 -9 14 -35
q4 -19 46 -49l17 -12l19 -7l42 -8q23 0 36 7q73 -13 118 -55q22 -21 67 -88v-880q-10 -56 -70 -56q-20 0 -43 7l-159 105q-45 -92 -130 -92q-58 0 -99 41.5t-41 99.5t41 99.5t99 41.5q17 0 50 -10l2 144q-38 -10 -81 -10q-24 0 -46 3l-21 89q31 -10 67 -10q81 0 135.5 55
t54.5 137t-54 136.5t-136 54.5q-80 0 -140.5 -56t-58.5 -135q3 -116 -70 -194q-33 -36 -85 -59l-41 74q31 15 65 48q49 47 49 133q0 83 -51.5 134.5t-134.5 51.5q-85 0 -134 -46q-45 -42 -54 -86q-5 -24 -5 -42q0 -28 12 -39q18 5 37 5q52 0 89 -37t37 -89q0 -53 -36.5 -90
t-89.5 -37q-60 0 -105 64l68 39q23 -19 36 -19q43 0 43 42q0 43 -43 43q-10 0 -29 -3t-27 -3q-43 -2 -64 45q-14 32 -14 67q0 117 79.5 194t196.5 77t195 -77q26 -26 41 -52q44 76 121 107q55 22 113 22q120 0 195.5 -76.5t75.5 -196.5q0 -141 -105 -221zM828 -264
q0 22 -15.5 37t-37.5 15t-36.5 -15t-14.5 -37t14.5 -37t36.5 -15t37.5 15t15.5 37z" />
    </font>
</defs>
</svg>
