<?xml version="1.0" standalone="no"?>
<!DOCTYPE svg PUBLIC "-//W3C//DTD SVG 1.1//EN" "http://www.w3.org/Graphics/SVG/1.1/DTD/svg11.dtd" >
<svg>
<metadata>
Created by FontForge 20110222 at Mon Mar 30 19:25:05 2015
 By deploy user
Copyright (c) 2014 by NamKhone, PJailon. All rights reserved.
</metadata>
<defs>
<font id="NKSSmart2" horiz-adv-x="1" >
  <font-face 
    font-family="NK SSmart2"
    font-weight="400"
    font-stretch="normal"
    units-per-em="1000"
    panose-1="2 0 5 3 0 0 0 2 0 3"
    ascent="800"
    descent="-200"
    x-height="568"
    cap-height="812"
    bbox="-1054 -422 2925 1014"
    underline-thickness="50"
    underline-position="-380"
    unicode-range="U+0020-AA7B"
  />
<missing-glyph horiz-adv-x="318" 
 />
    <glyph glyph-name=".notdef" horiz-adv-x="318" 
 />
    <glyph glyph-name="space" unicode=" " horiz-adv-x="318" 
 />
    <glyph glyph-name="exclam" unicode="!" horiz-adv-x="308" 
d="M203 220h-93l-10 592h113zM100 0v123h113v-123h-113z" />
    <glyph glyph-name="quotedbl" unicode="&#x22;" horiz-adv-x="418" 
d="M333 547h-60l-30 145v120h120v-120zM145 547h-60l-30 145v120h118v-120z" />
    <glyph glyph-name="numbersign" unicode="#" horiz-adv-x="763" 
d="M558 495l-25 -157h107v-101h-128l-40 -237h-100l40 237h-117l-43 -237h-97l40 237h-107v101h125l27 157h-112v102h130l39 215h100l-39 -215h119l36 215h104l-39 -215h99v-102h-119zM342 495l-27 -157h117l26 157h-116z" />
    <glyph glyph-name="dollar" unicode="$" horiz-adv-x="763" 
d="M733 240q0 -145 -73 -198q-60 -40 -233 -44v-98h-89v98q-170 0 -228 35q-78 49 -78 195v34h110v-34q0 -90 28 -113q32 -27 168 -27v279q-158 3 -215 31q-85 44 -85 182q0 148 77 195q62 38 223 38v99h89v-99q166 0 218 -30q70 -41 70 -176v-34h-110v34q0 80 -32 96
q-31 20 -146 20v-266q163 -4 218 -30q88 -44 88 -187zM338 723q-113 0 -145 -16q-45 -25 -45 -114q0 -93 52 -120q32 -16 138 -16v266zM625 228q0 95 -48 120q-30 14 -150 19v-279q120 0 155 20q43 29 43 120z" />
    <glyph glyph-name="percent" unicode="%" horiz-adv-x="975" 
d="M950 145q0 -95 -43 -125q-37 -27 -144 -27q-108 0 -140 27q-41 30 -41 125v117q0 95 40 126q33 27 140 27q108 0 145 -25q43 -33 43 -127v-118zM253 -7h-91l558 819h95zM393 550q0 -97 -41 -123q-42 -29 -147 -29q-102 0 -135 20q-47 30 -47 130v119q0 95 42 126
q33 25 140 25q105 0 137 -20q51 -31 51 -130v-118zM868 265q0 53 -18 63q-17 12 -88 12q-65 0 -79 -10q-20 -12 -20 -65v-117q0 -56 20 -70q14 -10 79 -10q70 0 86 12q20 13 20 68v117zM312 670q0 53 -19 63q-16 12 -88 12q-65 0 -80 -10q-20 -12 -20 -65v-118q0 -59 20 -72
q13 -8 80 -8q70 0 87 11q20 14 20 69v118z" />
    <glyph glyph-name="ampersand" unicode="&#x26;" horiz-adv-x="870" 
d="M812 -5l-119 98q-35 -63 -125 -86q-58 -14 -181 -14q-172 0 -229 32q-88 50 -88 225q0 130 40 172q23 23 115 46q-18 17 -30 32t-19.5 31.5t-10.5 38.5t-3 52q0 118 66 160q54 36 190 36q124 0 177 -38q62 -47 62 -168v-60h-109v60q0 71 -25 91q-21 20 -105 20
q-75 0 -105 -13q-43 -23 -43 -88q0 -60 53 -104l304 -250q1 7 1 15.5t2 19.5q0 9 -1.5 29.5t-1.5 34.5h101q2 -14 2 -31.5v-38.5q0 -34 -2.5 -59.5t-5.5 -47.5l151 -118zM298 408q-80 -16 -100 -45q-20 -26 -20 -115q0 -110 34 -135q36 -23 175 -23q108 0 133 5q77 13 88 63
z" />
    <glyph glyph-name="quotesingle" unicode="'" horiz-adv-x="223" 
d="M142 547h-60l-29 145v120h119v-120z" />
    <glyph glyph-name="parenleft" unicode="(" horiz-adv-x="355" 
d="M250 -162q-115 0 -157 77q-33 58 -33 180v467q0 121 33 180q42 76 157 76h37v-78h-37q-55 0 -73 -58q-9 -34 -9 -105v-497q0 -72 9 -105q18 -58 73 -58h37v-79h-37z" />
    <glyph glyph-name="parenright" unicode=")" horiz-adv-x="355" 
d="M295 95q0 -123 -32 -180q-45 -77 -158 -77h-38v79h38q55 0 73 58q9 33 9 105v497q0 71 -9 105q-18 58 -73 58h-38v78h38q113 0 158 -76q32 -57 32 -180v-467z" />
    <glyph glyph-name="asterisk" unicode="*" horiz-adv-x="763" 
d="M445 575l98 -132l-61 -43l-99 137l-105 -135l-63 41l103 132l-163 60l27 72l163 -57v162h75v-162l165 57l25 -74z" />
    <glyph glyph-name="plus" unicode="+" horiz-adv-x="767" 
d="M425 245v-250h-83v250h-250v83h250v250h83v-250h250v-83h-250z" />
    <glyph glyph-name="comma" unicode="," horiz-adv-x="283" 
d="M213 48q0 -86 -81 -133h-59q19 7 49 33q33 32 38 55q-10 -3 -18 -3q-67 0 -67 58q0 59 67 59q71 0 71 -69z" />
    <glyph glyph-name="uni00AD" unicode="-" horiz-adv-x="383" 
d="M50 253v67h283v-67h-283z" />
    <glyph glyph-name="period" unicode="." horiz-adv-x="283" 
d="M208 58q0 -58 -66 -58q-67 0 -67 58q0 59 67 59q66 0 66 -59z" />
    <glyph glyph-name="slash" unicode="/" horiz-adv-x="810" 
d="M147 -122h-124l637 934h125z" />
    <glyph glyph-name="zero" unicode="0" horiz-adv-x="767" 
d="M702 183q0 -85 -57.5 -134t-167.5 -49h-190q-105 0 -162.5 49t-57.5 134v447q0 85 57.5 134t162.5 49h190q110 0 167.5 -49t57.5 -134v-447zM585 610q0 122 -133 122h-137q-133 0 -133 -122v-407q0 -121 133 -121h137q133 0 133 121v407z" />
    <glyph glyph-name="one" unicode="1" horiz-adv-x="767" 
d="M380 0v705l-193 -110l-45 83l235 135h120v-813h-117z" />
    <glyph glyph-name="two" unicode="2" horiz-adv-x="767" 
d="M67 0v160q0 172 278 250q133 38 172 62q68 43 68 126q0 134 -150 134h-112q-141 0 -141 -112v-20h-115v30q0 90 57.5 136.5t162.5 46.5h193q123 0 177 -58q45 -50 45 -153q0 -115 -70 -175q-49 -44 -160 -74q-160 -41 -205 -70q-85 -46 -85 -143v-48h520v-92h-635z" />
    <glyph glyph-name="three" unicode="3" horiz-adv-x="767" 
d="M693 183q0 -183 -201 -183h-214q-220 0 -220 183v40h115v-30q0 -111 140 -111h125q139 0 139 111v95q0 99 -120 99h-105v81h105q120 0 120 97v55q0 112 -139 112h-125q-140 0 -140 -112v-20h-115v30q0 183 220 183h214q201 0 201 -183v-83q0 -97 -108 -120
q108 -24 108 -120v-124z" />
    <glyph glyph-name="four" unicode="4" horiz-adv-x="767" 
d="M638 142v-142h-115v142h-495v81l427 590h97q86 0 86 -95v-495h84v-81h-84zM523 742h-15l-370 -519h385v519z" />
    <glyph glyph-name="five" unicode="5" horiz-adv-x="767" 
d="M698 173q0 -173 -205 -173h-220q-203 0 -203 173v50h115v-40q0 -58 33 -81q29 -20 100 -20h130q72 0 102 21.5t30 79.5v167q0 97 -110 97h-147q-85 0 -113 -65h-140v431h598v-81h-483v-277q30 73 138 73h204q171 0 171 -155v-200z" />
    <glyph glyph-name="six" unicode="6" horiz-adv-x="767" 
d="M702 173q0 -173 -204 -173h-228q-203 0 -203 173v462q0 178 203 178h228q204 0 204 -173v-40h-117v30q0 60 -31 81t-102 21h-137q-133 0 -133 -107v-183q31 66 136 66h214q170 0 170 -155v-180zM585 325q0 58 -31 80t-102 22h-137q-133 0 -133 -122v-122q0 -58 33 -81
q28 -20 100 -20h137q71 0 102 21.5t31 79.5v142z" />
    <glyph glyph-name="seven" unicode="7" horiz-adv-x="767" 
d="M453 0h-123l253 732h-303q-115 0 -115 -102v-30h-115v40q0 173 182 173h470v-95z" />
    <glyph glyph-name="eight" unicode="8" horiz-adv-x="767" 
d="M702 173q0 -173 -204 -173h-228q-203 0 -203 173v120q0 110 98 140q-78 29 -78 129v78q0 173 201 173h192q202 0 202 -173v-78q0 -100 -79 -129q99 -33 99 -140v-120zM567 630q0 58 -32 80t-103 22h-97q-72 0 -100 -20q-33 -24 -33 -82v-60q0 -58 33 -82q28 -20 100 -20
h97q71 0 103 22t32 80v60zM585 277q0 110 -137 110h-130q-136 0 -136 -110v-94q0 -58 33 -81q28 -20 100 -20h137q71 0 102 21.5t31 79.5v94z" />
    <glyph glyph-name="nine" unicode="9" horiz-adv-x="767" 
d="M702 178q0 -178 -204 -178h-228q-203 0 -203 173v40h115v-30q0 -58 33 -81q28 -20 100 -20h137q70 0 101.5 23t31.5 83v184q-32 -67 -137 -67h-211q-170 0 -170 155v180q0 173 203 173h228q204 0 204 -173v-462zM585 630q0 60 -31 81t-102 21h-137q-72 0 -100 -20
q-33 -24 -33 -82v-142q0 -58 33 -81q28 -20 100 -20h137q133 0 133 121v122z" />
    <glyph glyph-name="colon" unicode=":" horiz-adv-x="283" 
d="M208 508q0 -58 -66 -58q-67 0 -67 58q0 59 67 59q66 0 66 -59zM208 58q0 -58 -66 -58q-67 0 -67 58q0 59 67 59q66 0 66 -59z" />
    <glyph glyph-name="uni037E" unicode=";" horiz-adv-x="283" 
d="M208 508q0 -58 -66 -58q-67 0 -67 58q0 59 67 59q66 0 66 -59zM213 48q0 -86 -81 -133h-59q19 7 49 33q33 32 38 55q-10 -3 -18 -3q-67 0 -67 58q0 59 67 59q71 0 71 -69z" />
    <glyph glyph-name="less" unicode="&#x3c;" horiz-adv-x="767" 
d="M112 243v85l541 220v-101l-413 -162l413 -160v-102z" />
    <glyph glyph-name="equal" unicode="=" horiz-adv-x="767" 
d="M675 337h-583v83h583v-83zM675 153h-583v84h583v-84z" />
    <glyph glyph-name="greater" unicode="&#x3e;" horiz-adv-x="767" 
d="M112 23v102l410 160l-410 162v101l541 -220v-85z" />
    <glyph glyph-name="question" unicode="?" horiz-adv-x="805" 
d="M727 602q0 -90 -54 -139q-28 -26 -115 -58q-56 -22 -75 -45q-16 -22 -16 -85v-50h-122v87q0 63 32 95q26 26 101 55q74 28 95 45q32 26 32 91q0 134 -158 134h-99q-148 0 -148 -112v-62h-122v72q0 90 62 136.5t168 46.5h184q130 0 188 -58q47 -48 47 -153zM493 67
q0 -32 -25 -54.5t-63 -22.5t-63 22.5t-25 54.5q0 33 25 55.5t63 22.5q40 0 64 -22.5t24 -55.5z" />
    <glyph glyph-name="at" unicode="@" horiz-adv-x="1072" 
d="M972 495q0 -122 -69 -218q-75 -105 -191 -105q-95 0 -112 61q-63 -58 -123 -60q-77 -1 -124 55q-45 57 -41 134q5 101 73 180q70 78 170 83q35 2 70 -18t52 -49l15 45h95l-100 -315q-12 -35 50 -35q66 0 108 82q35 68 35 152q0 111 -108 185q-99 68 -220 68
q-142 0 -249 -107q-105 -106 -105 -258q0 -132 104 -220q98 -85 231 -83q79 0 190 36l34 -80q-60 -21 -115 -31t-105 -12q-180 -3 -304 103q-133 114 -133 294q0 190 135 316q137 129 317 129q158 0 283 -85q137 -97 137 -247zM635 482q-7 61 -75 61q-63 0 -107 -63
q-41 -57 -43 -122q-2 -40 24 -73t66 -33q62 0 105 88q37 77 30 142z" />
    <glyph glyph-name="A" unicode="A" horiz-adv-x="758" 
d="M642 0l-64 168h-398l-62 -168h-116l301 812h144l310 -812h-115zM378 703l-166 -443h333z" />
    <glyph glyph-name="B" unicode="B" horiz-adv-x="768" 
d="M707 230q0 -230 -200 -230h-440v812h420q113 0 158 -54q38 -48 38 -163q0 -130 -83 -168q107 -30 107 -197zM573 607q0 71 -31 93q-24 17 -99 17h-268v-252h258q40 0 67.5 6t43.5 21.5t22.5 43t6.5 71.5zM598 222q0 81 -21 110q-27 36 -109 36h-293v-271h283q79 0 105 20
q35 25 35 105z" />
    <glyph glyph-name="C" unicode="C" horiz-adv-x="737" 
d="M713 203q0 -130 -81 -175q-62 -35 -209 -35h-130q-115 0 -180 68.5t-65 190.5v308q0 158 99 217q71 41 250 41h75q130 0 181 -56q49 -54 49 -180v-35h-109v31q0 82 -26.5 113.5t-108.5 31.5h-51q-147 0 -194 -26q-56 -32 -56 -134v-218q0 -150 21 -193q27 -62 132 -62
h110q95 0 130 13q55 25 55 112v72h108v-84z" />
    <glyph glyph-name="D" unicode="D" horiz-adv-x="812" 
d="M760 307q0 -307 -265 -307h-425v812h403q119 0 182 -44q105 -71 105 -270v-191zM652 532q0 61 -27 108q-42 77 -137 77h-310v-620h295q110 0 147 61q32 47 32 165v209z" />
    <glyph glyph-name="E" unicode="E" horiz-adv-x="623" 
d="M45 0v812h538v-95h-430v-255h412v-92h-412v-273h430v-97h-538z" />
    <glyph glyph-name="F" unicode="F" horiz-adv-x="612" 
d="M178 717v-264h397v-88h-397v-365h-108v812h515v-95h-407z" />
    <glyph glyph-name="G" unicode="G" horiz-adv-x="770" 
d="M735 233q0 -141 -67 -193q-58 -47 -211 -47h-89q-180 0 -243 52q-77 62 -77 242v246q0 285 247 285h213q225 0 225 -185v-70h-110v54q0 33 -7.5 53t-25 32.5t-48 16.5t-79.5 4h-113q-128 0 -160 -36q-33 -37 -33 -164v-255q0 -106 41 -143q44 -35 154 -35h86
q117 0 152 25q37 25 37 113v90h-260v97h368v-182z" />
    <glyph glyph-name="H" unicode="H" horiz-adv-x="828" 
d="M645 0v365h-460v-365h-108v812h108v-350h460v350h108v-812h-108z" />
    <glyph glyph-name="I" unicode="I" horiz-adv-x="263" 
d="M78 0v812h109v-812h-109z" />
    <glyph glyph-name="J" unicode="J" horiz-adv-x="628" 
d="M550 200q0 -118 -72 -165q-58 -42 -183 -42t-187 34q-76 41 -76 155v123h108v-98q0 -37 6 -60.5t21.5 -36t42.5 -16.5t68 -4q84 0 112 12q52 20 52 86l1 624h107v-612z" />
    <glyph glyph-name="K" unicode="K" horiz-adv-x="752" 
d="M625 0l-372 368h-66v-368h-109v812h109v-349h68l332 349h143l-380 -390l427 -422h-152z" />
    <glyph glyph-name="L" unicode="L" horiz-adv-x="622" 
d="M82 0v812h108v-715h413v-97h-521z" />
    <glyph glyph-name="M" unicode="M" horiz-adv-x="1062" 
d="M877 0v705l-294 -705h-103l-295 705v-705h-110v812h175l280 -667l282 667h175v-812h-110z" />
    <glyph glyph-name="N" unicode="N" horiz-adv-x="865" 
d="M627 0l-445 713v-713h-109v812h165l444 -717v717h110v-812h-165z" />
    <glyph glyph-name="O" unicode="O" horiz-adv-x="743" 
d="M698 260q0 -73 -14 -124t-46.5 -82.5t-84 -46t-126.5 -14.5h-110q-75 0 -127 14.5t-84.5 46t-46.5 82.5t-14 124v283q0 157 58 215q59 60 214 60h110q156 0 213 -60q58 -58 58 -215v-283zM590 543q0 109 -33 145q-32 35 -130 35h-110q-99 0 -132 -35q-32 -33 -32 -145
v-283q0 -107 40 -142q34 -28 124 -28h110q91 0 125 28q38 35 38 142v283z" />
    <glyph glyph-name="P" unicode="P" horiz-adv-x="733" 
d="M688 563q0 -253 -206 -253h-309v-310h-110v812h424q115 0 161 -72q40 -57 40 -177zM580 552q0 106 -27 135q-25 30 -106 30h-274v-310h230q100 0 132 18q45 28 45 127z" />
    <glyph glyph-name="Q" unicode="Q" horiz-adv-x="815" 
d="M768 33l-61 40q-72 -80 -237 -80h-127q-171 0 -235 74q-55 68 -55 240v223q0 153 67 220.5t223 67.5h127q162 0 227 -65q65 -61 65 -223v-223q0 -99 -17 -154l70 -43zM652 562q0 78 -29 116q-36 45 -135 45h-155q-96 0 -133 -38t-37 -137v-258q0 -123 34 -162
q35 -38 136 -38h155q94 0 132 38l-252 162l50 75l230 -148q2 8 3 19.5t1 30.5v295z" />
    <glyph glyph-name="R" unicode="R" horiz-adv-x="777" 
d="M718 575q0 -178 -111 -210q101 -30 101 -147v-218h-110v177q0 75 -25.5 108t-100.5 33h-289v-318h-108v812h383q70 0 120 -12t81 -39.5t45 -72.5t14 -113zM610 585q0 80 -25 102q-27 30 -127 30h-275v-302h275q99 0 127 38q25 30 25 132z" />
    <glyph glyph-name="S" unicode="S" horiz-adv-x="698" 
d="M663 233q0 -160 -81 -206q-59 -34 -240 -34q-167 0 -229 37q-78 48 -78 188v23t2 24h108q-2 -125 37 -153q26 -22 160 -22q136 0 170 18q43 24 43 129q0 68 -21 93t-72 30q-29 2 -59 3.5t-58 3.5q-177 13 -215 30q-92 40 -92 183q0 155 77 202q58 36 232 36
q165 0 223 -33q87 -48 78 -207h-108q-2 100 -37 124q-31 21 -160 21q-125 0 -161 -23q-34 -23 -34 -102q0 -96 54 -120q23 -8 163 -15q175 -6 223 -35q75 -41 75 -195z" />
    <glyph glyph-name="T" unicode="T" horiz-adv-x="643" 
d="M377 717v-717h-109v717h-263v95h635v-95h-263z" />
    <glyph glyph-name="U" unicode="U" horiz-adv-x="815" 
d="M738 230q0 -150 -91 -200q-64 -37 -239 -37q-171 0 -233 32q-97 50 -97 205v582h109v-582q0 -107 66 -128q25 -12 155 -12q137 0 170 17q52 25 52 123v582h108v-582z" />
    <glyph glyph-name="V" unicode="V" horiz-adv-x="713" 
d="M430 0h-145l-297 812h119l251 -717l249 717h116z" />
    <glyph glyph-name="W" unicode="W" horiz-adv-x="1233" 
d="M973 0h-153l-207 702l-210 -702h-150l-255 812h114l215 -715l213 715h148l212 -715l220 715h115z" />
    <glyph glyph-name="X" unicode="X" horiz-adv-x="723" 
d="M608 0l-241 360l-247 -360h-135l297 420l-272 392h132l225 -334l223 334h128l-265 -392l284 -420h-129z" />
    <glyph glyph-name="Y" unicode="Y" horiz-adv-x="702" 
d="M400 338v-338h-108v338l-305 474h126l237 -365l235 365h130z" />
    <glyph glyph-name="Z" unicode="Z" horiz-adv-x="707" 
d="M28 0v90l502 627h-487v95h625v-94l-503 -621h513v-97h-650z" />
    <glyph glyph-name="bracketleft" unicode="[" horiz-adv-x="353" 
d="M60 -162v980h227v-95h-119v-790h119v-95h-227z" />
    <glyph glyph-name="backslash" unicode="\" horiz-adv-x="318" 
d="M245 0l-273 812h103l272 -812h-102z" />
    <glyph glyph-name="bracketright" unicode="]" horiz-adv-x="353" 
d="M67 -162v95h118v790h-118v95h226v-980h-226z" />
    <glyph glyph-name="asciicircum" unicode="^" horiz-adv-x="767" 
d="M552 283l-169 397l-170 -397h-106l231 529h90l230 -529h-106z" />
    <glyph glyph-name="underscore" unicode="_" horiz-adv-x="767" 
d="M0 -150v67h767v-67h-767z" />
    <glyph glyph-name="grave" unicode="`" horiz-adv-x="377" 
d="M265 638l-190 102l57 80l170 -132z" />
    <glyph glyph-name="a" unicode="a" horiz-adv-x="633" 
d="M460 0v50q-47 -57 -182 -57q-115 0 -161 32q-64 38 -64 143q0 112 60 152q47 32 170 32q135 0 177 -47v83q0 65 -38 89q-27 15 -105 15q-74 0 -94 -7q-46 -12 -46 -60v-28h-107v20q0 100 68 135q50 23 169 23q131 0 183 -30q72 -40 72 -160v-385h-102zM457 172
q0 66 -44 85q-26 10 -120 10q-76 0 -103 -14q-32 -16 -32 -73q0 -68 34 -88q23 -14 101 -14q84 0 112 12q52 20 52 82z" />
    <glyph glyph-name="b" unicode="b" horiz-adv-x="638" 
d="M583 285q0 -157 -38 -215q-50 -77 -192 -77q-131 0 -176 65v-58h-104v812h104v-292q45 60 176 60q140 0 190 -80q40 -62 40 -215zM478 285q0 135 -26 172q-27 40 -124 40q-100 0 -128 -49q-22 -36 -22 -163t30 -167t120 -40q102 0 130 49q20 38 20 158z" />
    <glyph glyph-name="c" unicode="c" horiz-adv-x="608" 
d="M563 178q0 -111 -71 -153q-54 -32 -179 -32q-170 0 -220 72q-40 55 -40 230q0 152 44 210q53 70 203 70q127 0 180 -28q73 -40 73 -152v-23h-101v25q0 63 -39 83q-25 12 -108 12q-102 0 -128 -47q-19 -33 -19 -173q0 -119 24 -152q26 -42 141 -42q84 0 107 17
q32 20 32 87v33h101v-37z" />
    <glyph glyph-name="d" unicode="d" horiz-adv-x="638" 
d="M462 0v62q-49 -69 -177 -69q-145 0 -195 82q-37 58 -37 210t37 213q50 82 195 82q130 0 177 -60v292h101v-812h-101zM462 285q0 110 -19 150q-30 62 -131 62q-99 0 -125 -37q-29 -38 -29 -175q0 -130 34 -172q28 -35 120 -35q95 0 121 40q29 42 29 167z" />
    <glyph glyph-name="e" unicode="e" horiz-adv-x="628" 
d="M572 155q0 -102 -77 -138q-55 -24 -175 -24q-163 0 -217 64q-46 56 -46 226q0 177 51 234q54 58 212 58q150 0 198 -47q54 -53 54 -206v-65h-410q0 -120 25 -150q25 -29 133 -29q90 0 115 10q32 12 32 65v30h105v-28zM465 342q-3 105 -27 126q-26 24 -118 24
q-102 0 -132 -32q-21 -23 -26 -118h303z" />
    <glyph glyph-name="f" unicode="f" horiz-adv-x="343" 
d="M198 490v-490h-103v490h-87v83h87v59q0 53 9 89t31.5 57.5t59.5 30.5t92 9h33t28 -1v-85q-26 1 -42 2t-19 1q-57 0 -73 -20t-16 -75v-67h150v-83h-150z" />
    <glyph glyph-name="g" unicode="g" horiz-adv-x="637" 
d="M567 -62q0 -190 -259 -190q-120 0 -171 34q-70 43 -64 165h102q0 -77 35 -99q23 -16 98 -16q82 0 115 18q42 22 42 95v103q-50 -60 -177 -60q-136 0 -188 72q-45 63 -45 222q0 156 42 218q50 75 191 75q127 0 177 -67v60h102v-630zM465 282q0 121 -23 160q-30 50 -134 50
q-105 0 -131 -52q-17 -33 -17 -158q0 -122 15 -152q27 -57 133 -57q107 0 139 60q18 37 18 149z" />
    <glyph glyph-name="h" unicode="h" horiz-adv-x="645" 
d="M467 0v385q0 70 -34 93q-26 19 -95 19q-48 0 -79 -8.5t-49 -27t-25.5 -50t-7.5 -78.5v-333h-102v812h102v-292q48 60 170 60q121 0 168 -40q53 -45 53 -162v-378h-101z" />
    <glyph glyph-name="i" unicode="i" horiz-adv-x="250" 
d="M73 703v109h104v-109h-104zM73 0v573h104v-573h-104z" />
    <glyph glyph-name="j" unicode="j" horiz-adv-x="243" 
d="M73 703v109h104v-109h-104zM177 -63q0 -79 -24 -117q-30 -47 -108 -47q-25 0 -50 7v80q10 0 15 -2h10q43 0 50 35q2 7 2.5 24.5t0.5 47.5v607h104v-635z" />
    <glyph glyph-name="k" unicode="k" horiz-adv-x="545" 
d="M440 0l-242 268h-21v-268h-104v812h104v-460h21l205 221h127l-250 -263l295 -310h-135z" />
    <glyph glyph-name="l" unicode="l" horiz-adv-x="248" 
d="M73 0v812h104v-812h-104z" />
    <glyph glyph-name="m" unicode="m" horiz-adv-x="1012" 
d="M838 0v365q0 70 -18 97q-25 30 -98 30q-90 0 -127.5 -32t-37.5 -113v-347h-102v378q0 64 -17 82q-21 32 -101 32q-164 0 -164 -152v-340h-101v568h101v-71q59 78 184 78q138 0 178 -85q55 85 200 85q113 0 159 -46.5t46 -155.5v-373h-102z" />
    <glyph glyph-name="n" unicode="n" horiz-adv-x="645" 
d="M467 0v382q0 70 -34 93q-23 17 -95 17q-50 0 -80.5 -7.5t-49 -27t-25 -50t-6.5 -77.5v-330h-102v568h102v-53q48 60 170 60q60 0 102.5 -9t68 -32.5t38 -62t12.5 -96.5v-375h-101z" />
    <glyph glyph-name="o" unicode="o" horiz-adv-x="633" 
d="M578 283q0 -180 -50 -235q-46 -55 -211 -55q-164 0 -212 55q-48 57 -48 235q0 180 48 237q48 55 212 55q165 0 211 -55q50 -55 50 -237zM472 283q0 142 -24 175q-23 34 -131 34q-107 0 -132 -34q-23 -33 -23 -175q0 -140 23 -173q25 -32 132 -32q110 0 131 32
q24 33 24 173z" />
    <glyph glyph-name="p" unicode="p" horiz-adv-x="637" 
d="M582 282q0 -170 -52 -232q-50 -62 -180 -62q-127 0 -177 64v-299h-101v815h101v-63q44 70 177 70q147 0 197 -83q35 -57 35 -210zM475 282q0 128 -22 165q-26 45 -126 45q-109 0 -135 -52q-19 -37 -19 -158q0 -114 22 -152q32 -57 132 -57q91 0 120 39q28 41 28 170z" />
    <glyph glyph-name="q" unicode="q" horiz-adv-x="640" 
d="M465 -247v294q-50 -59 -162 -59q-140 0 -190 54q-56 61 -56 240q0 156 40 216q51 77 206 77q109 0 162 -68v61h102v-815h-102zM463 282q0 125 -21 161q-30 49 -139 49q-83 0 -111 -35q-30 -40 -30 -175q0 -127 20 -160q28 -49 135 -49q98 0 125 52q21 37 21 157z" />
    <glyph glyph-name="r" unicode="r" horiz-adv-x="495" 
d="M382 363v45q0 47 -19.5 65.5t-67.5 18.5q-130 0 -130 -139v-353h-102v568h99v-55q45 62 151 62q167 0 167 -163v-49h-98z" />
    <glyph glyph-name="s" unicode="s" horiz-adv-x="598" 
d="M557 163q0 -106 -74 -145q-50 -25 -173 -25q-125 0 -178 22q-82 30 -82 117v60h105v-54q0 -16 6.5 -27t23.5 -17.5t47.5 -8.5t77.5 -2q75 0 90 5q50 14 50 72q0 65 -33 78q-10 4 -107 10q-150 10 -177 20q-80 30 -80 135q0 115 69 149q50 23 188 23q108 0 155 -20
q77 -30 77 -118v-29h-107v29q0 35 -32 45q-16 5 -93 5q-92 0 -112 -7q-38 -13 -38 -53q0 -62 23 -80q17 -12 85 -14q172 -6 202 -18q87 -30 87 -152z" />
    <glyph glyph-name="t" unicode="t" horiz-adv-x="413" 
d="M413 165q0 -172 -171 -172q-104 0 -139 35q-33 39 -33 142v318h-77v84h77v135h102v-135h220v-84h-220v-345q0 -48 25 -58q13 -7 46 -7q52 0 64 25q8 17 8 62v48h98v-48z" />
    <glyph glyph-name="u" unicode="u" horiz-adv-x="633" 
d="M455 0v60q-52 -67 -172 -67q-116 0 -163.5 48.5t-47.5 163.5v363h101v-363q0 -70 15 -93q24 -34 94 -34q95 0 126 22q49 28 49 120v348h101v-568h-103z" />
    <glyph glyph-name="v" unicode="v" horiz-adv-x="507" 
d="M320 0h-135l-193 568h105l156 -481l150 481h112z" />
    <glyph glyph-name="w" unicode="w" horiz-adv-x="833" 
d="M670 0h-138l-117 478l-117 -478h-138l-158 568h105l123 -478l120 478h135l118 -478l124 478h106z" />
    <glyph glyph-name="x" unicode="x" horiz-adv-x="508" 
d="M397 0l-142 217l-143 -217h-125l213 297l-190 271h117l128 -196l123 196h120l-186 -271l208 -297h-123z" />
    <glyph glyph-name="y" unicode="y" horiz-adv-x="490" 
d="M330 -38q-30 -109 -58 -147q-47 -67 -142 -67q13 0 -47 5v82q10 -2 20 -2.5t19 -0.5q53 0 80 61q6 15 30 107h-29l-213 568h108l170 -478l122 478h108z" />
    <glyph glyph-name="z" unicode="z" horiz-adv-x="508" 
d="M27 0v87l331 398h-303v83h425v-85l-328 -398h330v-85h-455z" />
    <glyph glyph-name="braceleft" unicode="{" horiz-adv-x="378" 
d="M233 -162q-31 0 -60 25q-36 35 -36 110v174q0 63 -14 93q-16 33 -71 42v95q55 5 71 40q14 30 14 91v175q0 75 36 110q29 25 60 25h99v-95h-55q-32 0 -32 -56v-175q0 -105 -73 -164q73 -63 73 -163v-173q0 -59 32 -59h55v-95h-99z" />
    <glyph glyph-name="bar" unicode="|" horiz-adv-x="298" 
d="M100 0v812h98v-812h-98z" />
    <glyph glyph-name="braceright" unicode="}" horiz-adv-x="378" 
d="M327 282q-55 -9 -72 -42q-13 -30 -13 -93v-174q0 -75 -37 -110q-27 -25 -60 -25h-98v95h55q31 0 31 59v173q0 100 74 163q-74 59 -74 164v175q0 56 -31 56h-55v95h98q33 0 60 -25q37 -35 37 -110v-175q0 -61 13 -91q17 -35 72 -40v-95z" />
    <glyph glyph-name="asciitilde" unicode="~" horiz-adv-x="650" 
d="M595 380q5 -62 -33 -120q-37 -57 -100 -57q-50 0 -104 30l-130 77q-18 13 -38 13t-33.5 -27.5t-8.5 -63.5h-95q7 166 129 178q43 3 76 -15l157 -88q23 -14 47 -10q50 0 41 83h92z" />
    <glyph glyph-name="cent" unicode="&#xa2;" horiz-adv-x="556" 
d="M262 138v405q-81 -12 -99 -111q-6 -38 -6 -86.5t6 -86.5q19 -107 99 -121zM322 139q74 16 85 100l89 -6q-13 -103 -102 -147q-31 -15 -72 -19v-82h-60v82q-103 9 -153 86q-44 70 -44 187q0 136 59 206q50 58 138 66v76h60v-76q109 -11 152 -98q13 -27 19 -58l-90 -7
q-7 44 -30 65.5t-51 27.5v-403z" />
    <glyph glyph-name="cent" unicode="&#xc7;" horiz-adv-x="556" 
d="M262 138v405q-81 -12 -99 -111q-6 -38 -6 -86.5t6 -86.5q19 -107 99 -121zM322 139q74 16 85 100l89 -6q-13 -103 -102 -147q-31 -15 -72 -19v-82h-60v82q-103 9 -153 86q-44 70 -44 187q0 136 59 206q50 58 138 66v76h60v-76q109 -11 152 -98q13 -27 19 -58l-90 -7
q-7 44 -30 65.5t-51 27.5v-403z" />
    <glyph glyph-name="sterling" unicode="&#xa3;" horiz-adv-x="556" 
d="M539 152q-5 -39 -18.5 -67.5t-35.5 -47.5t-50 -28t-61 -9h-341v75q44 23 65 62t21 98v70h-91v63h91v137q0 45 11.5 81t36 60.5t61.5 38t87 13.5q34 0 64 -7t54.5 -21t41.5 -35t26 -49l-85 -28q-5 15 -14.5 28t-22.5 21.5t-28.5 13.5t-33.5 5q-56 0 -83 -28t-27 -89v-141
h199v-63h-199v-61q0 -28 -5.5 -53.5t-16.5 -48t-26 -40t-35 -27.5h236q19 0 35 4.5t29 14.5t22 26.5t13 40.5z" />
    <glyph glyph-name="sterling" unicode="&#xc9;" horiz-adv-x="556" 
d="M539 152q-5 -39 -18.5 -67.5t-35.5 -47.5t-50 -28t-61 -9h-341v75q44 23 65 62t21 98v70h-91v63h91v137q0 45 11.5 81t36 60.5t61.5 38t87 13.5q34 0 64 -7t54.5 -21t41.5 -35t26 -49l-85 -28q-5 15 -14.5 28t-22.5 21.5t-28.5 13.5t-33.5 5q-56 0 -83 -28t-27 -89v-141
h199v-63h-199v-61q0 -28 -5.5 -53.5t-16.5 -48t-26 -40t-35 -27.5h236q19 0 35 4.5t29 14.5t22 26.5t13 40.5z" />
    <glyph glyph-name="yen" unicode="&#xa5;" horiz-adv-x="556" 
d="M353 346h156v-61h-187v-75h187v-62h-187v-148h-87v148h-186v62h186l1 75h-187v61h157l-206 342h97l181 -316l183 316h98z" />
    <glyph glyph-name="brokenbar" unicode="&#xa6;" horiz-adv-x="259" 
d="M89 345v380h81v-380h-81zM89 -212v380h81v-380h-81z" />
    <glyph glyph-name="copyright" unicode="&#xa9;" horiz-adv-x="736" 
d="M721 345q0 -49 -12.5 -94t-35.5 -84.5t-55 -71.5t-71.5 -54.5t-84.5 -35.5t-94 -13q-48 0 -93.5 13t-84.5 35.5t-71.5 54.5t-55.5 71.5t-35.5 84.5t-12.5 94t12.5 94t35.5 84.5t55.5 71.5t71.5 55t84 35.5t94 12.5q73 0 137.5 -27.5t112.5 -75.5t75.5 -112.5t27.5 -137.5
zM676 345q0 42 -11 81.5t-31 73.5t-48.5 62t-62.5 48t-73 31t-82 11q-63 0 -119 -24t-97.5 -66t-66 -97.5t-24.5 -119.5t24.5 -120t66 -97.5t97.5 -65.5t119 -24q43 0 82 11t73 31t62.5 48t48.5 62t31 73.5t11 81.5zM243 346q0 -35 8 -64.5t24.5 -50.5t41 -32.5t56.5 -11.5
q24 0 42.5 6.5t32 17.5t23 24.5t16.5 27.5l56 -17q-10 -21 -24.5 -40.5t-34.5 -35t-47 -25t-64 -9.5q-49 0 -85.5 15.5t-60.5 43.5t-35.5 66.5t-11.5 84.5q0 48 11.5 86t35.5 65t59.5 41.5t83.5 14.5q37 0 64 -8.5t46.5 -23t33 -33t22.5 -37.5l-56 -16q-6 13 -15 25
t-22.5 21.5t-31 15t-40.5 5.5q-34 0 -58 -11.5t-39.5 -31.5t-23 -49t-7.5 -64z" />
    <glyph glyph-name="copyright" unicode="&#xe2;" horiz-adv-x="736" 
d="M721 345q0 -49 -12.5 -94t-35.5 -84.5t-55 -71.5t-71.5 -54.5t-84.5 -35.5t-94 -13q-48 0 -93.5 13t-84.5 35.5t-71.5 54.5t-55.5 71.5t-35.5 84.5t-12.5 94t12.5 94t35.5 84.5t55.5 71.5t71.5 55t84 35.5t94 12.5q73 0 137.5 -27.5t112.5 -75.5t75.5 -112.5t27.5 -137.5
zM676 345q0 42 -11 81.5t-31 73.5t-48.5 62t-62.5 48t-73 31t-82 11q-63 0 -119 -24t-97.5 -66t-66 -97.5t-24.5 -119.5t24.5 -120t66 -97.5t97.5 -65.5t119 -24q43 0 82 11t73 31t62.5 48t48.5 62t31 73.5t11 81.5zM243 346q0 -35 8 -64.5t24.5 -50.5t41 -32.5t56.5 -11.5
q24 0 42.5 6.5t32 17.5t23 24.5t16.5 27.5l56 -17q-10 -21 -24.5 -40.5t-34.5 -35t-47 -25t-64 -9.5q-49 0 -85.5 15.5t-60.5 43.5t-35.5 66.5t-11.5 84.5q0 48 11.5 86t35.5 65t59.5 41.5t83.5 14.5q37 0 64 -8.5t46.5 -23t33 -33t22.5 -37.5l-56 -16q-6 13 -15 25
t-22.5 21.5t-31 15t-40.5 5.5q-34 0 -58 -11.5t-39.5 -31.5t-23 -49t-7.5 -64z" />
    <glyph glyph-name="guillemotleft" unicode="&#xab;" horiz-adv-x="556" 
d="M432 69l-165 178v31l165 181h82v-15l-165 -182l166 -179v-14h-83zM204 69l-164 178v31l164 181h82v-15l-164 -182l165 -179v-14h-83z" />
    <glyph glyph-name="guillemotleft" unicode="&#xe3;" horiz-adv-x="556" 
d="M432 69l-165 178v31l165 181h82v-15l-165 -182l166 -179v-14h-83zM204 69l-164 178v31l164 181h82v-15l-164 -182l165 -179v-14h-83z" />
    <glyph glyph-name="registered" unicode="&#xae;" horiz-adv-x="870" 
d="M853 407q0 -177 -123 -300q-122 -122 -298 -122q-179 0 -300 122q-124 123 -124 300q0 173 124 296q123 124 300 124q175 0 298 -124q123 -123 123 -296zM768 408q0 139 -98 237q-97 100 -238 100q-142 0 -242 -100q-98 -98 -98 -237q0 -140 98 -241q100 -100 242 -100
q141 0 238 100q98 101 98 241zM560 167l-132 201h-76v-201h-82v478h210q173 0 173 -130q0 -127 -138 -140l138 -208h-93zM572 515q0 58 -105 58h-115v-133h113q107 0 107 75z" />
    <glyph glyph-name="registered" unicode="&#xe9;" horiz-adv-x="870" 
d="M853 407q0 -177 -123 -300q-122 -122 -298 -122q-179 0 -300 122q-124 123 -124 300q0 173 124 296q123 124 300 124q175 0 298 -124q123 -123 123 -296zM768 408q0 139 -98 237q-97 100 -238 100q-142 0 -242 -100q-98 -98 -98 -237q0 -140 98 -241q100 -100 242 -100
q141 0 238 100q98 101 98 241zM560 167l-132 201h-76v-201h-82v478h210q173 0 173 -130q0 -127 -138 -140l138 -208h-93zM572 515q0 58 -105 58h-115v-133h113q107 0 107 75z" />
    <glyph glyph-name="degree" unicode="&#xb0;" horiz-adv-x="399" 
d="M339 559q0 -29 -11 -54.5t-30 -44t-44.5 -29.5t-54.5 -11t-54 11t-44.5 29.5t-30.5 44t-11 54.5t11 54.5t30.5 44.5t44.5 29.5t54 10.5t54.5 -10.5t44.5 -29.5t30 -44.5t11 -54.5zM286 559q0 18 -6.5 34t-18.5 28t-27.5 19t-34.5 7q-18 0 -34 -7t-27.5 -19t-18.5 -28
t-7 -34t7 -34t18.5 -28t27.5 -19t34 -7q19 0 34.5 7t27.5 19t18.5 28t6.5 34z" />
    <glyph glyph-name="degree" unicode="&#xea;" horiz-adv-x="399" 
d="M339 559q0 -29 -11 -54.5t-30 -44t-44.5 -29.5t-54.5 -11t-54 11t-44.5 29.5t-30.5 44t-11 54.5t11 54.5t30.5 44.5t44.5 29.5t54 10.5t54.5 -10.5t44.5 -29.5t30 -44.5t11 -54.5zM286 559q0 18 -6.5 34t-18.5 28t-27.5 19t-34.5 7q-18 0 -34 -7t-27.5 -19t-18.5 -28
t-7 -34t7 -34t18.5 -28t27.5 -19t34 -7q19 0 34.5 7t27.5 19t18.5 28t6.5 34z" />
    <glyph glyph-name="paragraph" unicode="&#xb6;" horiz-adv-x="537" 
d="M432 638v-767h-55v767h-106v-767h-55v468q-39 0 -71.5 11t-56 32.5t-36.5 54t-13 75.5q0 41 12 73.5t35.5 55.5t57 35t76.5 12h275v-50h-63z" />
    <glyph glyph-name="paragraph" unicode="&#xf1;" horiz-adv-x="537" 
d="M432 638v-767h-55v767h-106v-767h-55v468q-39 0 -71.5 11t-56 32.5t-36.5 54t-13 75.5q0 41 12 73.5t35.5 55.5t57 35t76.5 12h275v-50h-63z" />
    <glyph glyph-name="guillemotright" unicode="&#xbb;" horiz-adv-x="556" 
d="M350 69h-82v14l165 179l-164 182v15h81l165 -181v-31zM123 69h-83v14l165 179l-164 182v15h82l164 -181v-31z" />
    <glyph glyph-name="guillemotright" unicode="&#xf5;" horiz-adv-x="556" 
d="M350 69h-82v14l165 179l-164 182v15h81l165 -181v-31zM123 69h-83v14l165 179l-164 182v15h82l164 -181v-31z" />
    <glyph glyph-name="Odieresis" unicode="&#xd6;" horiz-adv-x="777" 
d="M730 347q0 -80 -23.5 -146t-67.5 -113t-107.5 -72.5t-143.5 -25.5q-85 0 -149 26.5t-106.5 74.5t-64 113.5t-21.5 142.5q0 81 22.5 146t66 110.5t107 70t146.5 24.5q82 0 145.5 -25t107 -70.5t66 -110.5t22.5 -145zM634 347q0 62 -15.5 113t-46.5 87t-77 55.5t-106 19.5
q-62 0 -108 -19.5t-77.5 -55.5t-46.5 -87t-15 -113t15.5 -113.5t46.5 -89t77.5 -58t106.5 -20.5q64 0 111 21t77 58.5t44 89t14 112.5zM444 747v90h80v-90h-80zM252 747v90h80v-90h-80z" />
    <glyph glyph-name="Odieresis" unicode="&#x2202;" horiz-adv-x="777" 
d="M730 347q0 -80 -23.5 -146t-67.5 -113t-107.5 -72.5t-143.5 -25.5q-85 0 -149 26.5t-106.5 74.5t-64 113.5t-21.5 142.5q0 81 22.5 146t66 110.5t107 70t146.5 24.5q82 0 145.5 -25t107 -70.5t66 -110.5t22.5 -145zM634 347q0 62 -15.5 113t-46.5 87t-77 55.5t-106 19.5
q-62 0 -108 -19.5t-77.5 -55.5t-46.5 -87t-15 -113t15.5 -113.5t46.5 -89t77.5 -58t106.5 -20.5q64 0 111 21t77 58.5t44 89t14 112.5zM444 747v90h80v-90h-80zM252 747v90h80v-90h-80z" />
    <glyph glyph-name="multiply" unicode="&#xd7;" horiz-adv-x="583" 
d="M69 161l173 173l-172 172l51 50l171 -172l171 171l51 -51l-171 -170l172 -172l-50 -51l-172 172l-174 -173z" />
    <glyph glyph-name="multiply" unicode="&#x2211;" horiz-adv-x="583" 
d="M69 161l173 173l-172 172l51 50l171 -172l171 171l51 -51l-171 -170l172 -172l-50 -51l-172 172l-174 -173z" />
    <glyph glyph-name="Udieresis" unicode="&#xba;" horiz-adv-x="722" 
d="M357 -10q-57 0 -107.5 15.5t-89 47t-61 81t-22.5 116.5v438h93v-430q0 -52 14 -88.5t39 -59.5t59 -33.5t74 -10.5t76 10.5t62.5 34t42 61.5t15.5 92v424h93v-429q0 -69 -23 -119.5t-62 -84t-91.5 -49.5t-111.5 -16zM416 747v90h80v-90h-80zM224 747v90h81v-90h-81z" />
    <glyph glyph-name="Udieresis" unicode="&#xdc;" horiz-adv-x="722" 
d="M357 -10q-57 0 -107.5 15.5t-89 47t-61 81t-22.5 116.5v438h93v-430q0 -52 14 -88.5t39 -59.5t59 -33.5t74 -10.5t76 10.5t62.5 34t42 61.5t15.5 92v424h93v-429q0 -69 -23 -119.5t-62 -84t-91.5 -49.5t-111.5 -16zM416 747v90h80v-90h-80zM224 747v90h81v-90h-81z" />
    <glyph glyph-name="odieresis" unicode="&#xf6;" horiz-adv-x="556" 
d="M513 265q0 -139 -61 -207t-177 -68q-55 0 -98.5 16.5t-73.5 51t-46 86t-16 121.5q0 273 237 273q61 0 106 -17t73.5 -51t42 -85.5t13.5 -119.5zM421 265q0 61 -9.5 101t-28 64t-45 33.5t-59.5 9.5t-60.5 -10t-46.5 -34t-29 -64t-10 -100q0 -62 11 -102t29.5 -64t44.5 -34
t56 -10q34 0 61 9.5t46 33.5t29.5 64.5t10.5 102.5zM335 595v90h80v-90h-80zM143 595v90h81v-90h-81z" />
    <glyph glyph-name="divide" unicode="&#xf7;" horiz-adv-x="548" 
d="M233 468v89h82v-89h-82zM31 297v71h486v-71h-486zM233 109v89h82v-89h-82z" />
    <glyph glyph-name="divide" unicode="&#x25ca;" horiz-adv-x="548" 
d="M233 468v89h82v-89h-82zM31 297v71h486v-71h-486zM233 109v89h82v-89h-82z" />
    <glyph glyph-name="udieresis" unicode="&#xfc;" horiz-adv-x="556" 
d="M155 528v-335q0 -38 6 -64t18.5 -42t33.5 -22.5t51 -6.5q32 0 57 11t42.5 32t27.5 51.5t10 69.5v306h88v-415v-35t0.5 -34.5t1 -28.5t1.5 -15h-83q-1 2 -1.5 13t-1 25t-1 28.5t-0.5 23.5h-2q-12 -23 -27.5 -41.5t-35.5 -31.5t-45.5 -20t-60.5 -7q-43 0 -75 11t-52.5 33.5
t-30 57.5t-9.5 84v352h88zM329 595v90h80v-90h-80zM137 595v90h80v-90h-80z" />
    <glyph glyph-name="Amacron" unicode="&#xb7;" horiz-adv-x="666" 
d="M569 0l-79 201h-313l-79 -201h-97l281 688h106l276 -688h-95zM374 501q-8 20 -15 40t-12.5 36t-9 27t-3.5 14q-1 -3 -4.5 -14t-9.5 -27.5t-13 -36.5l-14 -40l-88 -226h257zM468 767h-268v62h268v-62z" />
    <glyph glyph-name="Amacron" unicode="&#x100;" horiz-adv-x="666" 
d="M569 0l-79 201h-313l-79 -201h-97l281 688h106l276 -688h-95zM374 501q-8 20 -15 40t-12.5 36t-9 27t-3.5 14q-1 -3 -4.5 -14t-9.5 -27.5t-13 -36.5l-14 -40l-88 -226h257zM468 767h-268v62h268v-62z" />
    <glyph glyph-name="amacron" unicode="&#x101;" horiz-adv-x="556" 
d="M202 -10q-80 0 -120 42t-40 115q0 53 20 86.5t52 52.5t73 26t83 8l119 2v29q0 33 -7 56t-21 37t-35.5 20.5t-50.5 6.5q-25 0 -45.5 -3.5t-35.5 -13t-24.5 -26t-12.5 -41.5l-92 9q5 31 19 57t39 45t63 29.5t91 10.5q100 0 150.5 -45.5t50.5 -132.5v-227q0 -39 10 -59
t39 -20q7 0 14.5 1t14.5 3v-55q-17 -4 -33.5 -6t-34.5 -2q-25 0 -43 6.5t-29 20t-17 33.5t-7 46h-3q-14 -25 -31 -45.5t-39.5 -35t-51 -22.5t-65.5 -8zM222 56q42 0 73.5 15.5t52 39.5t31 52t10.5 54v44l-97 -2q-32 -1 -61 -5t-51 -16t-35 -34t-13 -58q0 -43 23.5 -66.5
t66.5 -23.5zM406 604h-268v62h268v-62z" />
    <glyph glyph-name="Emacron" unicode="&#x112;" horiz-adv-x="666" 
d="M82 0v688h522v-76h-429v-221h400v-75h-400v-240h449v-76h-542zM478 767h-269v62h269v-62z" />
    <glyph glyph-name="Emacron" unicode="&#x201e;" horiz-adv-x="666" 
d="M82 0v688h522v-76h-429v-221h400v-75h-400v-240h449v-76h-542zM478 767h-269v62h269v-62z" />
    <glyph glyph-name="emacron" unicode="&#x113;" horiz-adv-x="556" 
d="M134 246q0 -42 8.5 -77t26.5 -60t46 -39t67 -14q57 0 91.5 23t46.5 58l77 -22q-8 -22 -23 -44t-40 -40t-62.5 -29.5t-89.5 -11.5q-117 0 -178.5 70t-61.5 208q0 74 18.5 125.5t51 83.5t75.5 46.5t91 14.5q67 0 111.5 -21.5t71.5 -59.5t38.5 -89t11.5 -111v-11h-377z
M420 313q-7 83 -42 121.5t-101 38.5q-22 0 -46 -7t-44.5 -25t-35 -49t-16.5 -79h285zM412 604h-268v62h268v-62z" />
    <glyph glyph-name="emacron" unicode="&#x2030;" horiz-adv-x="556" 
d="M134 246q0 -42 8.5 -77t26.5 -60t46 -39t67 -14q57 0 91.5 23t46.5 58l77 -22q-8 -22 -23 -44t-40 -40t-62.5 -29.5t-89.5 -11.5q-117 0 -178.5 70t-61.5 208q0 74 18.5 125.5t51 83.5t75.5 46.5t91 14.5q67 0 111.5 -21.5t71.5 -59.5t38.5 -89t11.5 -111v-11h-377z
M420 313q-7 83 -42 121.5t-101 38.5q-22 0 -46 -7t-44.5 -25t-35 -49t-16.5 -79h285zM412 604h-268v62h268v-62z" />
    <glyph glyph-name="florin" unicode="&#x192;" horiz-adv-x="556" 
d="M454 641q-8 2 -23 4.5t-30 2.5q-16 0 -27 -4.5t-19 -14.5t-14 -25.5t-10 -37.5l-13 -67h103l-12 -64h-104l-124 -647h-88l124 647h-74l13 64h74l14 74q6 29 15.5 54t27 43.5t44 29t66.5 10.5q15 0 35 -2.5t37 -7.5z" />
    <glyph glyph-name="tilde" unicode="&#x2dc;" horiz-adv-x="333" 
d="M240 586q-20 0 -40.5 9t-39.5 20t-36.5 20.5t-32.5 9.5q-27 0 -40 -15.5t-18 -43.5h-44q2 22 7 45.5t16 42.5t29 31t47 12q22 0 42.5 -9t39.5 -20t35.5 -20t31.5 -9q26 0 39.5 15.5t17.5 42.5h45q-2 -21 -7 -44.5t-15.5 -42.5t-28.5 -31.5t-48 -12.5z" />
    <glyph glyph-name="ka" unicode="&#x1000;" horiz-adv-x="1041" 
d="M857 68q-80 -77 -179 -77q-19 0 -47 5q-8 1 -18 3q-29 9 -29 38q0 41 39 41q8 0 27 -5t29 -5q68 0 122 55q51 53 51 126q0 74 -51 126.5t-123 52.5q-75 0 -127 -55q-43 -41 -50 -116v-16q0 -164 -122 -240q-11 -4 -21 -4q-17 0 -28 12t-11 28q0 19 19 31q78 50 84 161
q-2 11 0 24q-4 70 -55 122t-121 52q-73 0 -125 -55t-52 -131q0 -47 25 -95.5t69 -77.5q17 -12 17 -31q0 -17 -11 -29t-28 -12q-11 0 -22 5q-59 42 -94 109t-35 131q0 108 75 185.5t181 77.5q140 0 214 -121q17 26 36 46q77 77 180 77q104 0 179 -74.5t75 -182.5t-73 -181z
" />
    <glyph glyph-name="kha" unicode="&#x1001;" horiz-adv-x="610" 
d="M490 243q0 -104 -75.5 -179.5t-179.5 -75.5q-143 0 -221 124q-18 35 -18 76q0 18 6 23q73 72 162 72q41 0 83 -15q85 -32 128 -129q37 47 37 104q0 74 -51.5 124.5t-125.5 50.5q-83 0 -138 -66l-15 -18l-2 3q-1 0 2 2q3 3 3 -1q-11 -24 -33 -24q-17 0 -30.5 12.5
t-13.5 29.5q0 10 6 17q-1 1 -1 4l1 1q4 5 22 28q79 91 199 91q109 0 182 -73.5t73 -180.5zM309 83q-22 85 -90 110q-36 13 -61 13q-43 0 -84 -40q0 1 11 -16q3 -6 15 -19q56 -64 135 -64q33 0 74 16z" />
    <glyph glyph-name="ga" unicode="&#x1002;" horiz-adv-x="610" 
d="M498 241q0 -141 -90 -241q-12 -12 -29 -12q-16 0 -28.5 12t-12.5 28q0 15 12 28q69 73 69 185q0 81 -47 125q-56 51 -130 51q-70 0 -119 -46q-54 -50 -54 -130q0 -113 71 -185q11 -13 11 -28q0 -17 -12.5 -28.5t-28.5 -11.5t-29 12q-91 100 -91 241q0 49 22 102.5
t56 85.5q72 67 173 67q107 0 187 -73q70 -65 70 -182z" />
    <glyph glyph-name="gha" unicode="&#x1003;" horiz-adv-x="1033" 
d="M669 -12q-104 0 -181 78q-19 21 -35 45q-75 -123 -215 -123q-83 0 -154.5 57t-88.5 132q-9 16 -4 51q9 50 33 65q15 18 49 30q63 27 66 60q0 16 -25 29q-16 9 -33 7q-20 -1 -20 -13q0 -40 -39 -40q-40 0 -40 40q0 37 36.5 62t81.5 25q30 0 50 -11q70 -36 66 -102
q-2 -60 -57 -101q-11 -7 -59 -26q-12 -4 -21 -15q-14 -22 -11.5 -34.5t-1.5 -21.5q12 -43 64 -79t108 -36q71 0 121.5 51t54.5 122q-1 13 0 23q-5 111 -84 161q-19 14 -19 33q0 15 11 27.5t29 12.5q9 0 20 -6q122 -74 122 -240v-15q7 -73 50 -115q55 -54 126 -54
q70 0 122 52t52 125q0 74 -52.5 127t-119.5 53q-8 0 -15.5 -0.5t-19 -4t-21.5 -3.5q-37 0 -37 41q0 25 26 35.5t65 10.5q100 0 179 -79q73 -73 73 -180q0 -106 -75 -181t-177 -75z" />
    <glyph glyph-name="nga" unicode="&#x1004;" horiz-adv-x="610" 
d="M468 377q0 -3 -4 -3h-1v3v1q7 -11 7 -21q0 -17 -13 -29t-29 -12q-22 0 -35 23q-1 1 0 3l-10 12q-53 64 -137 64q-76 0 -126.5 -50.5t-50.5 -123.5q0 -72 52.5 -124.5t124.5 -52.5q92 0 134 57q4 5 11 16q10 29 38 29q40 0 40 -38q0 -17 -23 -52q-65 -91 -200 -91
q-105 0 -180.5 76t-75.5 180q0 106 73.5 179.5t182.5 73.5q60 0 117 -29q50 -27 81 -61l13 -15l6 -10l1 -2q3 -2 4 -3z" />
    <glyph glyph-name="ca" unicode="&#x1005;" horiz-adv-x="611" 
d="M499 241q0 -104 -76.5 -178.5t-179.5 -74.5q-102 0 -176.5 74.5t-74.5 183.5q0 108 73.5 179.5t179.5 71.5q108 0 181 -75.5t73 -180.5zM369 121q51 48 51 120q0 73 -49.5 124.5t-121.5 51.5q-26 0 -51 -7q76 -66 76 -167q0 -102 -79 -170q23 -6 46 -6q72 0 128 54z
M195 243q0 79 -75 125q0 -1 -1 -4l-5 -7q-32 -55 -38 -108q-7 -80 47 -132q72 49 72 126z" />
    <glyph glyph-name="cha" unicode="&#x1006;" horiz-adv-x="1023" 
d="M912 244q0 -104 -76 -179t-180 -75q-137 0 -213 116q-78 -118 -214 -118q-119 0 -196 90q-9 12 -23 31q-24 40 -8 77q68 64 145 64q33 0 73 -11q92 -26 128 -125q45 42 56 97q-2 17 -2 33q0 17 2 35q-12 60 -61 99.5t-114 39.5q-84 0 -137 -64l-14 -12q2 -10 -10 -18
t-22 -8q-17 0 -30 12t-13 29q0 9 4 17q-1 3 0 3v1q1 1 23 29q30 34 80 61q59 29 119 29q139 0 214 -110q74 112 213 112q104 0 180 -75t76 -180zM833 244q0 72 -52.5 123.5t-124.5 51.5q-67 0 -114 -39.5t-59 -100.5q3 -18 3 -35q0 -16 -3 -33q12 -61 61 -102.5t112 -41.5
q72 0 124.5 52.5t52.5 124.5zM279 73q-21 70 -84 90q-23 9 -46 9q-36 0 -71 -23q7 -9 17 -18q53 -64 134 -64q25 0 50 6z" />
    <glyph glyph-name="ja" unicode="&#x1007;" horiz-adv-x="591" 
d="M509 146q0 -17 -12.5 -28.5t-28.5 -11.5q-18 0 -36 22q-10 18 -23 38q-46 -29 -119 -26q-50 3 -88 40t-38 80q0 44 38 72.5t85 28.5q60 0 115 -60q-2 43 -30 69q-56 51 -126 51q-74 0 -125.5 -52t-51.5 -123q0 -73 52 -126.5t130 -53.5q55 0 87 26q13 9 25 9q38 0 38 -40
q0 -37 -63 -57q-47 -14 -90 -14q-111 0 -184.5 75t-73.5 179q0 105 75 180t179 75q99 0 180 -70q16 -13 34 -55q22 -46 22 -85q0 -28 -17 -62q46 -66 46 -81zM362 231q-43 52 -79 52q-32 0 -39 -22q-5 -17 11 -29.5t38 -13.5q43 -2 69 13z" />
    <glyph glyph-name="jha" unicode="&#x1008;" horiz-adv-x="777" 
d="M668 -237q0 -71 -45.5 -118.5t-113.5 -47.5q-70 0 -116.5 45.5t-46.5 115.5v260q-36 -16 -93 -16q-109 0 -180 74.5t-72 183.5q-1 107 72.5 178.5t180.5 72.5q108 1 180 -74t73 -184q2 -113 -80 -192v-298q0 -35 23 -58.5t59 -23.5q34 0 57 23.5t23 58.5v709q0 39 40 40
q39 1 39 -40v-709zM429 256q2 72 -50 123.5t-126 52.5q-26 0 -46 -9q75 -65 76 -166q1 -97 -79 -169q22 -8 46 -8q72 -1 125 51t54 125zM204 257q2 80 -75 125q-19 -16 -37 -59.5t-18 -69.5q-1 -65 58 -122q71 48 72 126z" />
    <glyph glyph-name="nya" unicode="&#x1009;" horiz-adv-x="610" 
d="M906 -273q1 -14 1 -27q0 -103 -97 -103h-650q-87 0 -128.5 42.5t-41.5 129.5v320q0 18 22 30.5t45 12.5q16 0 22 -5q44 -60 135 -60q71 0 123.5 53t52.5 126q0 74 -51 123t-125 49q-85 0 -138 -64l-12 -12q1 -10 -11.5 -18t-22.5 -8q-16 0 -29.5 12t-13.5 29q0 10 7 17
q-3 3 -3 4h3v-1q-3 0 -3 1l3 1q1 1 21 28q76 90 199 90q107 0 181 -73t74 -178t-76.5 -181.5t-178.5 -76.5q-81 0 -145 41v-260q0 -55 19 -73.5t72 -18.5h650q21 0 16 42t41 42q34 0 39 -34z" />
    <glyph glyph-name="nnya" unicode="&#x100a;" horiz-adv-x="1007" 
d="M906 -273q1 -14 1 -27q0 -103 -97 -103h-650q-87 0 -128.5 42.5t-41.5 129.5v320q0 18 22 30.5t45 12.5q16 0 22 -5q44 -60 135 -60q67 0 119.5 50.5t56.5 120.5q-2 11 0 22q-5 68 -55 113t-121 45q-85 0 -138 -64l-12 -12q1 -10 -11.5 -18t-22.5 -8q-16 0 -29.5 12
t-13.5 29q0 10 7 17q-3 3 -3 4h3v-1q-3 0 -3 1l3 1q1 1 21 28q76 90 199 90q107 0 181 -73t74 -178v-13q7 -72 49 -112q53 -54 125 -54q71 0 123 52t52 127q0 74 -51.5 125.5t-118.5 51.5q-10 0 -18.5 -0.5t-19.5 -4.5t-21 -4q-36 0 -36 42q0 25 25.5 35t67.5 10
q100 0 178 -77q72 -73 72 -178q0 -107 -75 -182.5t-178 -75.5t-180 78q-20 18 -35 44q-77 -122 -214 -122q-81 0 -145 41v-260q0 -55 19 -73.5t72 -18.5h650q21 0 16 42t41 42q34 0 39 -34z" />
    <glyph glyph-name="tta" unicode="&#x100b;" horiz-adv-x="610" 
d="M540 -381h-111q-39 0 -39 40v103q-61 -25 -143 -22q-116 2 -213 62q-16 11 -16 34v140q0 44 33 44q18 0 35 -18q62 -65 160 -66q62 -3 127 47l17 13v32q-61 -40 -144 -40q-105 0 -180.5 76t-75.5 180q0 106 73.5 179.5t182.5 73.5q60 0 117 -29q50 -27 81 -61l13 -15
l6 -10l1 -2q3 -2 4 -3q0 -3 -4 -3q6 -8 6 -17q0 -17 -13 -29t-29 -12q-22 0 -35 23q-1 1 0 3l-10 12q-53 64 -137 64q-76 0 -126.5 -50.5t-50.5 -123.5q0 -72 52.5 -124.5t124.5 -52.5q87 0 137 60q13 13 30 13h16q40 0 40 -39v-125q0 -20 -17 -33q-68 -49 -95 -62
q-50 -24 -113 -23q-91 2 -147 34v-34q67 -39 151 -41q92 -1 124 25l31 25q17 13 33 13q33 0 33 -44v-138h71q40 0 40 -41q0 -38 -40 -38z" />
    <glyph glyph-name="ttha" unicode="&#x100c;" horiz-adv-x="610" 
d="M469 -209q0 -85 -42 -128.5t-131 -43.5h-201q-50 0 -80 48q-27 43 -27 102q0 65 43.5 106.5t109.5 41.5q68 0 119 -47q12 -12 12 -30q0 -14 -12 -27t-28 -13q-15 0 -27 12q-27 27 -64 27q-49 0 -70 -39q-10 -19 -10 -48q0 -54 34 -54h201q54 0 73.5 20t19.5 73v241
q-65 -44 -145 -44q-105 0 -179.5 76t-74.5 182q0 105 72.5 178t181.5 73q118 0 197 -90q8 -11 24 -29q0 -1 -3 -1q8 -11 8 -25q0 -38 -41 -38q-20 0 -34 20q-1 4 0 5q2 0 3 -1q2 -1 0 -4q0 -1 -1 0l-3 5l-14 15q-53 64 -136 64q-75 0 -125.5 -50t-50.5 -122q0 -73 52 -126
t124 -53q84 0 131 55q5 10 24 10q22 0 46 -13t24 -31v-297z" />
    <glyph glyph-name="dda" unicode="&#x100d;" horiz-adv-x="580" 
d="M527 -363q0 -40 -40 -40h-111q-39 0 -39 40v240q-43 -25 -130 -31q-109 -4 -157 27l-35 26q-25 17 -25 35v167q0 39 39 39h15q19 0 31 -13q50 -60 138 -60q72 0 124.5 52.5t52.5 124.5q0 73 -51.5 123.5t-125.5 50.5q-86 0 -138 -64l-11 -12q1 -2 0 -3q-11 -23 -34 -23
q-16 0 -29.5 12t-13.5 29q0 9 7 17q-3 0 -4 3q1 1 4 3l1 2q2 5 19 25q30 34 81 61q58 29 118 29q108 0 182 -73.5t74 -179.5q0 -104 -76.5 -180t-179.5 -76q-89 0 -145 46v-78q55 -39 136 -36q36 1 82 17q40 13 80 27q10 3 20 3q32 0 32 -40v-253l69 3q40 0 40 -40z" />
    <glyph glyph-name="ddha" unicode="&#x100e;" horiz-adv-x="610" 
d="M499 251q0 -107 -76.5 -185t-185.5 -78q-80 0 -151.5 54.5t-90.5 126.5q0 7 -1 17q-7 37 3 64q11 32 24 42q17 18 52 31q64 28 67 60q0 17 -26 31q-13 7 -28 3q-17 -5 -17 -17q0 -40 -39 -40q-40 0 -40 40t35 67t79 27t80 -35t34 -79q-3 -59 -60 -101q-15 -9 -57 -26
q-13 -5 -19 -13t-14 -29q-2 -4 -0.5 -10.5t0.5 -16.5q11 -45 62 -81t107 -36q77 0 130 55t53 129q0 117 -91 173q-18 14 -18 33q0 15 11.5 27.5t27.5 12.5q9 0 20 -6q61 -37 95 -102.5t34 -137.5z" />
    <glyph glyph-name="nna" unicode="&#x100f;" horiz-adv-x="1157" 
d="M1002 388q43 -65 43 -144q0 -138 -109 -214q-64 -42 -141 -42q-39 0 -74 11q-28 9 -28 38q0 40 38 40q10 0 30.5 -5.5t31.5 -5.5q53 0 98 31q74 50 74 146q0 56 -30 99q-51 76 -140 76q-57 0 -103 -35l-27 -17q-9 -9 -27 -38q0 -8 -6 -18q-19 -34 -19 -67q0 -43 19 -81
q6 -9 6 -18v-32q0 -50 -35 -87t-84 -37t-83.5 37t-34.5 87v34q0 11 2 16q20 39 20 81q0 20 -10 43.5t-11 34.5q-8 12 -21 33q-5 7 -37 28q-46 34 -103 34q-89 0 -139 -74q-31 -43 -31 -98q0 -90 74 -140q53 -37 107 -37q10 0 28 5t26 5q37 0 37 -40q0 -29 -28.5 -38
t-62.5 -9q-81 0 -153 48q-107 73 -107 208q0 77 43 142q75 106 207 106q82 0 150 -45q16 -11 22 -17q35 65 105 65q71 0 105 -65l20 15q69 49 151 49q131 0 207 -108zM560 134q-27 48 -24 110q2 52 24 94v39q0 16 -12.5 29t-28.5 13q-17 0 -28.5 -13t-11.5 -29v-40
q22 -49 22 -94q0 -60 -22 -105v-26q0 -18 11.5 -32t28.5 -14q16 0 28.5 14t12.5 32v22z" />
    <glyph glyph-name="ta" unicode="&#x1010;" horiz-adv-x="1046" 
d="M859 64q-83 -83 -206 -74l-24 1q-5 0 -5 1t5 1h1h1l-1 -1v-1q-14 0 -28.5 15.5t-14.5 32.5q0 22 37 31h4h3q11 -2 28 -3q87 -6 144 52q55 53 55 125q0 73 -53 125t-126 52t-126 -51q-46 -47 -55 -102q11 -109 -64.5 -194.5t-186.5 -85.5q-105 0 -181 76t-76 182t73 178.5
t184 72.5q140 0 213 -119q79 121 219 121q107 0 180 -75q77 -76 77 -180q0 -103 -77 -180zM420 222q-2 22 0 48q-10 63 -59 105.5t-114 42.5q-78 0 -128 -49t-50 -123t52.5 -126.5t125.5 -52.5q65 0 115 45t58 110z" />
    <glyph glyph-name="tha" unicode="&#x1011;" horiz-adv-x="1035" 
d="M923 244q1 -104 -73 -179t-181 -75q-135 0 -212 114q-77 -116 -215 -116q-102 0 -177 76t-75 180q0 107 72 180t180 73q137 0 212 -114q73 114 215 114q105 0 178.5 -74t75.5 -179zM846 244q0 73 -52 123.5t-125 50.5q-67 0 -114.5 -40.5t-57.5 -105.5q2 -29 0 -59
q11 -62 60 -104t112 -42q72 0 124.5 53t52.5 124zM418 210q-4 18 -4 34q0 17 2 34q-10 60 -59.5 100t-114.5 40q-73 0 -123 -50t-50 -124q0 -72 51.5 -124.5t121.5 -52.5q65 0 114.5 41t61.5 102z" />
    <glyph glyph-name="da" unicode="&#x1012;" horiz-adv-x="610" 
d="M443 366q4 -16 4 -29q0 -59 -49 -97q49 -41 49 -94q0 -13 -4 -25q-26 -129 -220 -131q-164 -3 -215 122q-4 9 -4 16q0 39 43 39q26 0 36 -27q29 -74 140 -73q130 1 144 70q8 46 -64 67q-5 -1 -8 -1h-37q-40 0 -40 40q0 39 40 39h37h6h1q75 12 65 67q-16 70 -144 70
q-126 0 -140 -69q-8 -32 -38 -32q-20 0 -32 12.5t-9 33.5q27 135 219 133q195 -1 220 -131z" />
    <glyph glyph-name="dha" unicode="&#x1013;" horiz-adv-x="610" 
d="M499 244q0 -104 -75.5 -179t-181.5 -75q-104 0 -178 75.5t-74 178.5q0 107 73 180t179 73t181.5 -74t75.5 -179zM420 244q0 72 -52 123t-126 51q-73 0 -123 -50t-50 -124q0 -38 17 -73q58 70 155 70q100 0 162 -72q17 37 17 75zM352 106q-41 56 -111 56q-68 0 -104 -55
v-1q54 -39 105 -39q61 0 110 39z" />
    <glyph glyph-name="na" unicode="&#x1014;" horiz-adv-x="610" 
d="M474 161q9 -77 -51 -129q-27 -22 -91 -34v-361q0 -40 -39 -40q-40 0 -40 40v351q-61 -1 -122 12q-78 17 -106 52q-33 45 -33 95q0 41 23 79q36 52 109 52q62 0 116 -37q25 -18 52 -62q24 -38 31 -60.5t9 -44.5q71 20 64 79q-7 56 -60 86q-20 12 -45.5 17t-48.5 10
q-89 22 -119 74q-13 21 -13 47q0 42 31 73q39 37 97 37q64 0 98.5 -33t34.5 -53q0 -34 -36 -34q-15 0 -29 7q-7 8 -22 21t-46 13q-26 0 -40.5 -14t-6.5 -24q14 -23 69 -37q31 -6 62.5 -14t57.5 -23q83 -53 94 -145zM253 66q-1 13 -7 30q-20 58 -53 80q-39 25 -72 25
q-26 0 -39 -20q-9 -15 -9 -34q0 -24 16 -45q32 -40 164 -36z" />
    <glyph glyph-name="pa" unicode="&#x1015;" horiz-adv-x="610" 
d="M501 250q0 -107 -74 -183.5t-181 -76.5q-106 0 -181 76.5t-75 183.5q0 67 35 134t94 107q11 8 22 8q17 0 28 -13t11 -29q0 -19 -17 -33q-94 -62 -94 -174q0 -74 51.5 -128.5t125.5 -54.5q73 0 124.5 55t51.5 128q0 116 -96 174q-18 14 -18 33q0 15 11 27.5t28 12.5
q10 0 21 -6q62 -37 97.5 -103t35.5 -138z" />
    <glyph glyph-name="pha" unicode="&#x1016;" horiz-adv-x="610" 
d="M501 251q0 -107 -74 -184t-181 -77q-106 0 -181 77t-75 184q0 66 34 132.5t94 107.5q11 8 22 8q17 0 28 -13t11 -29q0 -19 -17 -33q-93 -60 -93 -173q0 -74 51.5 -129t125.5 -55q84 0 137 71q-96 35 -124 130q-10 33 -10 65q0 86 70 155q12 11 28 11t29 -12
q125 -85 125 -236zM422 251q0 92 -70 155q-23 -35 -23 -76q0 -48 28 -81q22 -27 61 -39q4 21 4 41z" />
    <glyph glyph-name="ba" unicode="&#x1017;" horiz-adv-x="610" 
d="M501 251q0 -107 -74 -184t-181 -77q-106 0 -181 77t-75 184q0 69 29 131q33 71 93 109q35 22 48 6q8 -8 13 -48q13 -89 69 -88q28 0 47.5 23t19.5 50q0 5 -1 15.5t-1 16.5q0 35 31 35q14 0 28 -8q135 -77 135 -242zM422 251q0 73 -44 129q-40 -94 -132 -97q-44 -1 -83 25
t-56 69q-38 -55 -38 -126q0 -74 51.5 -129t125.5 -55q73 0 124.5 55t51.5 129z" />
    <glyph glyph-name="bha" unicode="&#x1018;" horiz-adv-x="1007" 
d="M824 61q-78 -75 -178 -75q-42 0 -67.5 10t-25.5 34q0 42 36 42q10 0 18.5 -3t19.5 -5t21 -2q67 0 120 55q51 50 51 123q0 76 -52.5 128.5t-123.5 52.5q-72 0 -124 -54q-43 -43 -49 -109v-18q0 -106 -73 -179t-183 -73q-60 0 -118 30q-50 25 -81 61q-8 10 -24 31v1
q-4 10 -4 18q0 17 13.5 29.5t29.5 12.5q23 0 34 -24q0 -1 -4 -1l-2 1v2l1 1l5 -4l12 -14q54 -65 138 -65q71 0 121 46t56 113q-1 14 0 30q-6 66 -58 114t-119 48q-96 0 -136 -57q-4 -3 -10 -12q-5 -32 -38 -32q-41 0 -41 39q0 16 22 51q67 90 203 90q137 0 214 -119
q17 23 36 44q77 77 179 77t178 -77q75 -74 75 -182q0 -106 -72 -179z" />
    <glyph glyph-name="ma" unicode="&#x1019;" horiz-adv-x="610" 
d="M501 251q0 -107 -74 -184t-181 -77q-120 0 -198 94q-11 9 -15 23q-43 60 -43 144q0 66 35 132.5t94 107.5q11 8 22 8q17 0 28 -13t11 -29q0 -19 -17 -33q-44 -28 -69 -76.5t-25 -96.5q0 -29 9 -57q64 76 168 76q102 0 166 -77q10 29 10 58q0 115 -96 173q-18 14 -18 33
q0 15 11 27.5t28 12.5q10 0 21 -6q62 -37 97.5 -102.5t35.5 -137.5zM369 121q-48 69 -123 69q-77 0 -126 -69q52 -54 126 -54q70 0 123 54z" />
    <glyph glyph-name="ya" unicode="&#x101a;" horiz-adv-x="1043" 
d="M676 -12q-103 0 -180 76q-19 20 -36 46q-74 -120 -214 -120q-106 0 -181 77t-75 184q0 66 35 132.5t94 107.5q11 8 22 8q17 0 28 -13t11 -29q0 -19 -17 -33q-44 -28 -69 -76.5t-25 -96.5q0 -74 52 -129t125 -55q70 0 121 51t55 122q-2 13 0 23q-6 111 -84 161
q-19 14 -19 33q0 15 11 27.5t28 12.5q10 0 21 -6q122 -74 122 -240v-15q7 -75 50 -117q52 -53 127 -53q72 0 123 51.5t51 126.5q0 74 -52.5 127t-120.5 53q-26 0 -36 -4t-20 -4q-39 0 -39 41q0 27 29 37q8 3 38 7q12 2 27 2q99 0 179 -79q73 -73 73 -181q0 -106 -75 -180.5
t-179 -74.5z" />
    <glyph glyph-name="ra" unicode="&#x101b;" horiz-adv-x="618" 
d="M572 -398h-98q-39 0 -39 40v580q0 98 -51 148.5t-122 50.5q-59 0 -108 -37.5t-63 -97.5q105 2 159 -58q60 -67 60 -150q0 -32 -11 -61t-38 -29q-65 0 -98 15t-81 63q-67 67 -72 162q-6 13 -2 26q5 98 74 169q76 76 179 76t178 -75t75 -202v-541h58q41 0 41 -40
q0 -39 -41 -39zM230 68q5 56 -40 108q-30 35 -99 31q12 -60 71 -108q30 -27 68 -31z" />
    <glyph glyph-name="la" unicode="&#x101c;" horiz-adv-x="1035" 
d="M852 423q72 -73 72 -179t-74.5 -181t-177.5 -75q-62 0 -119.5 31.5t-91.5 86.5q-28 44 -38 103q-4 8 -4 19q2 89 -51.5 142t-124.5 53q-70 0 -121.5 -51.5t-51.5 -127.5q0 -73 50 -123q53 -54 118 -54q27 0 37.5 5.5t20.5 5.5q38 0 38 -41q0 -26 -28 -36.5t-66 -10.5
q-98 0 -176 76q-72 72 -72 178q0 107 75 182t176 75t180 -77q50 -51 69 -140q7 -12 6 -23q-6 -85 51 -142q53 -52 123 -52q71 0 123.5 51t52.5 126q0 74 -52.5 126t-121.5 52q-25 0 -34.5 -5.5t-19.5 -5.5q-38 0 -38 42q0 25 27 36t63 11q102 0 180 -77z" />
    <glyph glyph-name="wa" unicode="&#x101d;" horiz-adv-x="610" 
d="M498 244q1 -104 -74.5 -179t-181.5 -75q-102 0 -177 75t-75 179q0 107 73 180t179 73t180.5 -74t75.5 -179zM420 244q0 72 -52 123t-126 51q-73 0 -123 -50t-50 -124q0 -72 51.5 -124.5t121.5 -52.5q74 0 126 52.5t52 124.5z" />
    <glyph glyph-name="sa" unicode="&#x101e;" horiz-adv-x="1011" 
d="M825 424q72 -73 72 -180q0 -106 -75 -181t-178 -75t-180 76q-19 19 -34 45q-37 -52 -94 -86q-61 -35 -121 -35q-132 0 -201 94q-25 36 -25 49q0 38 41 38q33 0 38 -31q5 -4 11 -10q45 -61 136 -61q71 0 123.5 53t52.5 126q0 72 -51 122t-125 50q-38 0 -87.5 -24
t-63.5 -55q-11 -23 -33 -23q-16 0 -30 12t-14 29q0 11 8 22h1q1 1 1 -1l-1 1l1 -1l-2 -4h-4q3 3 6 8l19 25q77 90 199 90q109 0 181 -68t71 -169q0 -88 52 -141t125 -53q72 0 123.5 51.5t51.5 126.5q0 76 -51.5 127.5t-119.5 51.5q-27 0 -40 -5q-9 -4 -19 -4q-38 0 -38 42
q0 27 29 37q26 8 66 8q101 0 179 -77z" />
    <glyph glyph-name="ha" unicode="&#x101f;" horiz-adv-x="1040" 
d="M854 66q-78 -78 -178 -78q-23 0 -45 4q-45 8 -45 42q0 39 38 39q9 0 16.5 -1.5t20.5 -4.5q8 -1 18 -1q67 0 121 55q51 50 51 123q0 77 -52.5 128.5t-124.5 51.5q-81 0 -133 -62q-34 -40 -40 -100v-18q0 -50 -21 -100.5t-54 -82.5q-80 -71 -186 -71q-102 0 -176 68.5
t-74 185.5q0 144 90 243q12 12 29 12q15 0 28 -11.5t13 -28.5q0 -16 -12 -28q-69 -71 -69 -187q0 -83 50.5 -130t120.5 -47q74 0 132 52q42 38 50 112q-2 13 0 30q-8 99 -74 170q-10 12 -10 28q0 14 12 27t28 13q15 0 29 -12q35 -41 61 -94q76 111 206 111q103 0 178.5 -76
t75.5 -184q0 -105 -74 -178z" />
    <glyph glyph-name="lla" unicode="&#x1020;" horiz-adv-x="610" 
d="M498 -24q0 -20 -17 -33l-31 -23q-91 -66 -206 -62q-90 2 -147 36v-125q0 -55 18.5 -73.5t73.5 -18.5h213q26 0 17 35q-1 5 -9 0l-2 -1q-21 -11 -30 -11q-36 0 -36 39q0 24 22 37t46 13q74 0 87 -62q2 -13 2 -25q0 -44 -27.5 -74.5t-69.5 -30.5h-213q-89 0 -130 42.5
t-41 129.5v207q0 44 33 44q17 0 33 -16q70 -67 162 -68q92 -3 156 47l17 13v54q-69 -62 -173 -62q-105 0 -180.5 76t-75.5 180q0 106 73.5 179.5t182.5 73.5q60 0 117 -29q50 -27 81 -61l13 -15l6 -10l1 -2q3 -2 4 -3q0 -3 -4 -3q6 -8 6 -17q0 -17 -13 -29t-29 -12
q-22 0 -35 23q-1 1 0 3l-10 12q-53 64 -137 64q-76 0 -126.5 -50.5t-50.5 -123.5q0 -72 52.5 -124.5t124.5 -52.5q92 0 134 57q11 15 34 16q-7 0 44 0q40 0 40 -39v-125z" />
    <glyph glyph-name="a.let" unicode="&#x1021;" horiz-adv-x="944" 
d="M792 394q43 -64 43 -143q0 -139 -109 -213q-72 -48 -152 -48q-38 0 -87 17q-7 1 -14 5q-30 18 -14 52q14 113 125 165q30 15 69 15q49 0 100 -23q2 15 2 29q0 56 -30 99q-50 73 -139 73q-91 0 -143 -64q-6 -6 -13 -20q-2 -62 -48 -99q48 -43 48 -96q0 -11 -3 -22
q-27 -130 -222 -131q-162 -2 -213 122q-3 9 -3 16q0 39 41 39q26 0 36 -27q30 -74 139 -73q132 1 145 70q6 26 -20 46q-18 16 -42 21q-4 -1 -9 -1h-37q-40 0 -40 40q0 39 40 39h42q24 6 36 14q26 14 32 37q-4 9 -2 17q-20 68 -145 68q-123 0 -137 -68q-8 -32 -38 -32
q-20 0 -32 12.5t-8 33.5q26 133 215 133q139 0 195 -69q13 12 35 28q68 45 150 45q131 0 207 -107zM725 147q-38 19 -69 19q-22 0 -40 -9q-58 -26 -76 -85q17 -5 35 -5q41 0 84 22.5t66 57.5z" />
    <glyph glyph-name="shan.a" unicode="&#x1022;" horiz-adv-x="1031" 
d="M311 67q23 8 34 19q6 5 12 9.5t12 8.5q52 56 52 147q1 38 -13 68t-39 55q-49 51 -125 51q-39 0 -70 -13.5t-55 -35.5q-19 -19 -36 -53t-17 -72v-5q5 1 8 1h4q26 0 48.5 -10t40.5 -27t27.5 -39t9.5 -47t-9.5 -47t-27.5 -39t-40.5 -26.5t-48.5 -9.5q-23 0 -43.5 7t-43.5 28
q-9 29 3.5 47t44.5 11q21 -22 40 -22q18 0 32.5 17t14.5 36q0 18 -13 31t-33 14q-4 2 -4.5 2t-8.5 -1q-9 0 -22.5 1t-26.5 8.5t-21.5 23t-9.5 46.5q-2 109 75 179q36 35 82 51.5t100 16.5q111 0 181 -69l6 -6l9 -13l6 6h-4q89 84 202 84q54 -1 98.5 -17.5t80.5 -52.5
q72 -71 72 -177q0 -108 -73 -180q-71 -68 -178 -70q-21 0 -40 2.5t-39 7.5q-10 11 -12 22.5t2.5 22t14 17t21.5 8.5l27 -4q5 -1 11.5 -1h14.5q77 0 125 50q51 52 50 125q0 37 -12.5 67t-37.5 55q-48 51 -125 51q-80 0 -130 -50q-11 -10 -18.5 -20.5t-12.5 -20.5
q13 -38 13 -84q0 -63 -17.5 -112t-54.5 -88q-15 -16 -32.5 -28t-46.5 -24q-18 1 -28.5 8.5t-14.5 17t-2 21t11 21.5z" />
    <glyph glyph-name="i.let" unicode="&#x1023;" horiz-adv-x="1042" 
d="M931 234q0 -164 -122 -238q-11 -6 -20 -6q-17 0 -28 12t-11 27q0 20 18 32q84 53 84 173q0 76 -50.5 130.5t-125.5 54.5q-67 0 -117.5 -48t-57.5 -117q1 -21 1 -78q0 -9 -4 -30q-6 -34 -38 -34q-18 0 -31 13.5t-9 34.5q3 17 3 22q0 7 -1 40q-2 6 -2 12q0 12 2 22
q-6 71 -56 121t-120 50q-73 0 -125 -55t-52 -131q0 -47 25 -95.5t69 -77.5q17 -12 17 -31q0 -17 -11 -29t-28 -12q-11 0 -22 5q-59 42 -94 109t-35 131q0 108 75 185.5t181 77.5q144 -1 217 -125q78 118 213 118q108 0 181.5 -77.5t73.5 -185.5zM949 -361q0 -42 -40 -42
h-129q-28 0 -29 85v91q0 37 -4 53q-31 90 -126 91q-108 2 -120 -73v-8q0 -38 -3 -58q-4 -31 -38 -31q-18 0 -31 12t-9 33q2 5 2 10v17q-2 5 -2 12t2 16q-12 74 -123 76q-52 0 -87 -23t-35 -64q0 -59 25 -94q9 -12 9 -24q0 -41 -41 -41q-34 0 -57 65q-15 49 -15 94
q0 74 57 119t144 45q109 0 164 -62q57 58 158 58q155 -3 201 -148q9 -34 1 -180l86 9q40 3 40 -38z" />
    <glyph glyph-name="ii.let" unicode="&#x1024;" horiz-adv-x="1235" 
d="M1124 -363q0 -40 -38 -40q-40 0 -40 40v737q-9 86 -64 133q-76 67 -141 133q-40 47 -50.5 78t-10.5 61q0 64 47 115q44 46 120 46q120 0 165 -96q5 -8 5 -17q0 -17 -13 -28t-30 -11q-23 0 -34 23q-26 52 -91 52q-40 0 -65 -25.5t-25 -59.5q0 -54 60 -108q59 -49 135 -127
q70 -80 70 -169v-737zM930 -277q0 -54 -19 -84q-28 -42 -93 -42h-718q-38 0 -69.5 41t-31.5 92q0 16 2 29q30 137 245 137q192 0 366 -53q29 -7 29 -35q0 -40 -39 -40q-6 0 -12 1q-161 47 -344 47q-150 0 -167 -73q-6 -24 0 -44q7 -22 21 -22h718q21 0 27 8.5t6 37.5v530
q0 74 -50.5 124.5t-122.5 50.5q-75 0 -127 -55q-43 -41 -50 -116v-16q0 -164 -122 -240q-11 -4 -21 -4q-17 0 -28 12t-11 28q0 19 19 31q78 50 84 161q-2 11 0 24q-4 70 -55 122t-121 52q-73 0 -125 -55t-52 -131q0 -47 25 -95.5t69 -77.5q17 -12 17 -31q0 -17 -11 -29
t-28 -12q-11 0 -22 5q-59 42 -94 109t-35 131q0 108 75 185.5t181 77.5q140 0 214 -121q17 26 36 46q77 77 180 77q104 0 179 -75t75 -178v-530z" />
    <glyph glyph-name="u.let" unicode="&#x1025;" horiz-adv-x="610" 
d="M469 246q0 -105 -75.5 -181.5t-179.5 -76.5q-79 0 -145 42v-261q0 -55 19 -73.5t72 -18.5h214q20 0 15.5 42t40.5 42q34 0 38 -34q1 -13 1 -25q0 -49 -26.5 -77t-68.5 -28h-214q-87 0 -128.5 42.5t-41.5 129.5v319q0 18 23 30.5t46 12.5q15 0 21 -7q45 -57 134 -57
q71 0 123.5 53t52.5 126q0 72 -51 122t-125 50q-84 0 -136 -64l-14 -16q-5 -5 -6 -4q0 3 2 5q3 1 3 -1q2 -8 -12.5 -16t-22.5 -8q-17 0 -29 12t-12 26t9 26v-1q0 1 1 0h-1h-1l-1 1l1 1q5 8 21 28q79 90 198 90q110 0 182.5 -73t72.5 -178z" />
    <glyph glyph-name="uu.let" unicode="&#x1026;" horiz-adv-x="610" 
d="M469 246q0 -105 -75.5 -181.5t-179.5 -76.5q-79 0 -145 42v-261q0 -55 19 -73.5t72 -18.5h214q20 0 15.5 42t40.5 42q34 0 38 -34q1 -13 1 -25q0 -49 -26.5 -77t-68.5 -28h-214q-87 0 -128.5 42.5t-41.5 129.5v319q0 18 23 30.5t46 12.5q15 0 21 -7q45 -57 134 -57
q71 0 123.5 53t52.5 126q0 72 -51 122t-125 50q-84 0 -136 -64l-14 -16q-5 -5 -6 -4q0 3 2 5q3 1 3 -1q2 -8 -12.5 -16t-22.5 -8q-17 0 -29 12t-12 26t9 26v-1q0 1 1 0h-1h-1l-1 1l1 1q5 8 21 28q79 90 198 90q110 0 182.5 -73t72.5 -178zM424 734q0 -83 -59 -142.5
t-146 -60.5q-83 -2 -143 58q-8 7 -12 15q-48 57 -48 130q0 87 58.5 147.5t144.5 60.5q85 0 145 -61.5t60 -146.5zM344 734q0 53 -37 90.5t-88 37.5q-52 0 -87.5 -36.5t-35.5 -91.5q0 -20 7 -40q44 45 110 46q67 1 123 -51q8 22 8 45zM285 628q-31 34 -70 34t-65 -33
q31 -21 68 -21q36 0 67 20z" />
    <glyph glyph-name="e.let" unicode="&#x1027;" horiz-adv-x="590" 
d="M480 332q0 -26 -22 -36q-50 -47 -110 -57q62 -11 119 -67q8 -6 8 -25q0 -23 -18 -50q-10 -14 -24 -29q-79 -81 -197 -78q-45 1 -91 18q-27 2 -36 19q-58 29 -90 89.5t-29 129.5q7 146 128 216q7 7 13 9q52 28 118 26q107 -1 170 -69q16 -19 49 -57q6 -7 5 -9
q2 -2 4.5 -13t2.5 -17zM390 340l-4 4q-35 43 -57 56q-31 19 -80 19q-31 0 -60 -9q18 -66 80 -87q24 -7 45 -7q40 0 76 24zM284 239q-20 2 -40 10q-94 33 -124 117q-47 -50 -52 -123q-4 -74 52 -127q45 105 164 123zM388 137q-35 24 -74 24q-20 0 -40 -5q-63 -18 -84 -83
q24 -6 47 -6q84 -1 137 54q5 3 14 16z" />
    <glyph glyph-name="mon.e" unicode="&#x1028;" horiz-adv-x="610" 
d="M398 327q-15 26 -40 48q-50 43 -114 43q-71 0 -123 -52t-52 -123v-396q0 -71 52 -123.5t123 -52.5q72 0 124 51t52 125q0 40 40 40q39 0 39 -40q0 -108 -74.5 -182t-180.5 -74q-104 0 -179 76t-75 180v396q0 105 75 179.5t179 74.5t180 -74q30 -31 48 -66q25 -51 26 -113
q1 -104 -74 -179q-72 -71 -170 -75q-15 -1 -26 1q-55 11 -84 78q-4 13 -7 31q4 32 21 43q29 19 91 42q45 20 45 38v8q0 26 -29 42q-19 5 -32 3.5t-25.5 -25t-12.5 -33t3 -29.5q-7 -15 -20 -17h-7q-27 2 -36 30l-3 22v4q0 44 53 90q29 21 63 21q61 0 100 -69q7 -20 6 -44
q-10 -94 -144 -120q-6 -13 20 -38q6 -1 16 -1t22 2q57 7 100 51q52 52 52 124q0 46 -22 83z" />
    <glyph glyph-name="o.let" unicode="&#x1029;" horiz-adv-x="1143" 
d="M951 -184q0 -92 -64.5 -154.5t-155.5 -62.5h-523q-96 0 -157 65t-61 158v902q0 95 60 156.5t157 61.5h651q78 0 128 -63q2 -2 -10 -34t-17 -34q-39 51 -101 51h-651q-63 0 -100.5 -37t-37.5 -101v-902q0 -61 39 -102.5t100 -41.5h523q69 0 104.5 45.5t35.5 92.5l-1 191
q-34 -10 -58 -10q-103 0 -181 75q-19 20 -33 45q-89 -119 -215 -120q-131 -1 -202 93q-24 33 -24 49q0 38 42 39q31 0 37 -32q3 -2 11 -9q43 -60 136 -63q71 -1 123 53t53 127q2 73 -50 123t-126 50q-36 0 -85 -25q-52 -24 -67 -54q-10 -24 -32 -25q-39 0 -45 43q0 6 13 26
l17 24q73 88 199 90q107 0 179 -67t72 -171q0 -82 48.5 -138t129.5 -57q75 -1 124.5 52t50.5 128q1 71 -50 124.5t-120 54.5q-25 0 -41 -5q-8 -5 -18 -5q-38 0 -39 41q-1 47 94 47q107 0 178.5 -75t72.5 -182q3 -106 -74 -182q-19 -20 -39 -33v-222z" />
    <glyph glyph-name="au.let" unicode="&#x102a;" horiz-adv-x="2164" 
d="M1171 64q-18 19 -34 45q-90 -119 -216 -121q-131 -1 -198 94q-26 35 -27 49q0 37 42 38q29 2 37 -31q2 -1 11 -10q43 -60 135 -61q73 -1 124.5 52t52.5 127q1 72 -50.5 122t-126.5 50q-36 0 -84 -24q-52 -24 -67 -55q-7 -25 -32 -25q-42 0 -42 43q0 13 7 22q1 0 1 -1
l-1 -4h-2h-1q1 3 4 8l21 25q74 89 196 90q107 2 180 -64.5t73 -172.5q0 -82 48 -137.5t131 -56.5q73 -2 123 51.5t51 126.5q2 73 -49.5 126t-122.5 53q-12 0 -30 -4.5t-27 -4.5q-38 0 -39 42q-1 44 94 45q105 2 177.5 -74t73.5 -183q2 -105 -74 -182q-25 -13 -25 -25v-221
q0 -92 -64.5 -154.5t-154.5 -62.5h-523q-97 0 -158 65t-61 158v902q0 95 60.5 156.5t155.5 61.5h653q78 0 128 -63q0 -7 -11.5 -37t-15.5 -31q-37 51 -101 51h-653q-62 0 -99 -37t-37 -101v-902q0 -61 38.5 -102.5t100.5 -41.5h523q68 0 107 46q33 42 33 92v184
q-36 -10 -75 -10q-103 -2 -180 74zM469 368q8 -12 8 -26q0 -40 -40 -41q-7 0 -22 9q-10 7 -14 17q-43 52 -63 66q-35 25 -89 26q-74 2 -124.5 -49.5t-56.5 -126.5q-5 -72 52 -127q38 90 133 116q33 9 63 9q81 2 151 -69q8 -5 8 -25q0 -23 -18 -50q-10 -15 -24 -29
q-79 -80 -197 -78q-49 0 -91 18q-26 0 -36 19q-59 30 -90.5 90t-28.5 129q5 108 78 179.5t181 71.5q105 0 170 -69q7 -7 28 -32l18 -24h2l1 -2zM388 137q-34 24 -74 24q-96 0 -124 -88q24 -6 47 -6q81 -1 137 54zM2064 389q41 -61 43 -143q1 -135 -110 -212
q-68 -46 -153 -47q-57 -1 -96 24q-12 11 -15 31q0 37 41 42q12 0 23 -10q2 0 13 -3.5t36 -6.5q67 0 127 53q54 49 54 129q0 53 -30 97q-50 73 -138 74q-54 1 -104 -34q-26 -17 -59 -60t-45 -73q-15 -39 -44 -33q-36 6 -37 40q-1 22 61 114q86 125 226 125q131 0 207 -107z
M2005 806q4 -39 -36 -42q-38 -3 -41 36q0 28 -37 46q-28 15 -61 16t-57.5 -21t-27.5 -48q-10 -55 52 -113q10 -8 116 -69q18 -11 22 -33q0 -42 -39 -42q-12 0 -85 41q-50 27 -68 44q-79 71 -79 156q0 69 48.5 116t117.5 49q60 1 115 -39t60 -97z" />
    <glyph glyph-name="aa.vow.alt.dot" unicode="&#x102b;" horiz-adv-x="733" 
d="M639 23q0 -37 -39 -40q-40 -1 -40 40v759q0 35 -33 57q-28 19 -65 21q-35 1 -66 -21t-33 -56q-1 -39 -40 -40q-37 -2 -38 38q-1 62 59 111q54 44 119 46q65 1 120.5 -45.5t55.5 -110.5v-759zM72 209l-60 -11q-6 23 -6 55q0 15 1 29.5t5 26.5l60 -10q-4 -11 -4.5 -22
t-0.5 -24q0 -12 0.5 -23t4.5 -21zM152 92l-34 -50q-48 31 -78 79l49 36q24 -40 63 -65zM469 121q-29 -48 -76 -79l-35 50q40 25 64 65zM152 414q-39 -24 -63 -64l-49 36q15 24 34.5 43.5t43.5 34.5zM469 386l-47 -36q-25 40 -64 64l35 50q24 -15 43 -34.5t33 -43.5zM504 253
q0 -29 -6 -55l-59 11q6 21 6 44q0 24 -6 46l59 10q6 -26 6 -56zM309 6q-30 -6 -54 -6q-25 0 -55 6l10 60q12 -4 23 -4.5t22 -0.5t22 0.5t22 4.5zM309 502l-10 -61q-11 3 -22 4.5t-22 1.5t-22 -1.5t-23 -4.5l-10 61q30 7 55 7q24 0 54 -7z" />
    <glyph glyph-name="aa.vow.dot" unicode="&#x102c;" horiz-adv-x="1146" 
d="M1026 383q42 -61 44 -143q0 -136 -108 -211q-68 -47 -155 -48q-57 -1 -95 25q-13 11 -16 31q0 36 40 42q12 0 24 -9q3 0 14 -4.5t34 -6.5q67 0 127 52q55 49 55 129q0 53 -30 98q-51 72 -137 73q-55 1 -105 -33q-26 -18 -59 -60t-45 -74q-15 -38 -45 -33q-34 7 -35 40
q-1 22 61 115q84 124 224 124q133 0 207 -107zM72 209l-60 -11q-6 23 -6 55q0 15 1 29.5t5 26.5l60 -10q-4 -11 -4.5 -22t-0.5 -24q0 -12 0.5 -23t4.5 -21zM152 92l-34 -50q-48 31 -78 79l49 36q24 -40 63 -65zM469 121q-29 -48 -76 -79l-35 50q40 25 64 65zM152 414
q-39 -24 -63 -64l-49 36q15 24 34.5 43.5t43.5 34.5zM469 386l-47 -36q-25 40 -64 64l35 50q24 -15 43 -34.5t33 -43.5zM504 253q0 -29 -6 -55l-59 11q6 21 6 44q0 24 -6 46l59 10q6 -26 6 -56zM309 6q-30 -6 -54 -6q-25 0 -55 6l10 60q12 -4 23 -4.5t22 -0.5t22 0.5t22 4.5
zM309 502l-10 -61q-11 3 -22 4.5t-22 1.5t-22 -1.5t-23 -4.5l-10 61q30 7 55 7q24 0 54 -7z" />
    <glyph glyph-name="i.vow.dot" unicode="&#x102d;" horiz-adv-x="578" 
d="M452 731q1 -87 -58.5 -144.5t-146.5 -59.5q-82 -1 -141.5 59t-60.5 145t58.5 145t143.5 62q85 1 144 -60t61 -147zM373 731q1 51 -36.5 88.5t-89.5 38.5q-50 2 -86 -36t-37 -91q-1 -52 35.5 -89.5t87.5 -37.5q53 0 89 37t37 90zM72 209l-60 -11q-6 23 -6 55q0 15 1 29.5
t5 26.5l60 -10q-4 -11 -4.5 -22t-0.5 -24q0 -12 0.5 -23t4.5 -21zM152 92l-34 -50q-48 31 -78 79l49 36q24 -40 63 -65zM469 121q-29 -48 -76 -79l-35 50q40 25 64 65zM152 414q-39 -24 -63 -64l-49 36q15 24 34.5 43.5t43.5 34.5zM469 386l-47 -36q-25 40 -64 64l35 50
q24 -15 43 -34.5t33 -43.5zM504 253q0 -29 -6 -55l-59 11q6 21 6 44q0 24 -6 46l59 10q6 -26 6 -56zM309 6q-30 -6 -54 -6q-25 0 -55 6l10 60q12 -4 23 -4.5t22 -0.5t22 0.5t22 4.5zM309 502l-10 -61q-11 3 -22 4.5t-22 1.5t-22 -1.5t-23 -4.5l-10 61q30 7 55 7q24 0 54 -7z
" />
    <glyph glyph-name="ii.vow.dot" unicode="&#x102e;" horiz-adv-x="582" 
d="M457 739q1 -87 -58.5 -144t-145.5 -61q-79 -1 -141 59q-9 7 -14 15q-46 58 -48 131q-1 84 58.5 144.5t144.5 62.5t144 -59t60 -148zM378 739q0 52 -36 89.5t-89 38.5q-50 1 -86.5 -36.5t-37.5 -91.5q0 -21 7 -40q44 44 110 45q66 2 124 -51q8 21 8 46zM319 632
q-32 34 -70 35q-36 1 -64 -34q30 -21 68 -21q36 0 66 20zM72 209l-60 -11q-6 23 -6 55q0 15 1 29.5t5 26.5l60 -10q-4 -11 -4.5 -22t-0.5 -24q0 -12 0.5 -23t4.5 -21zM152 92l-34 -50q-48 31 -78 79l49 36q24 -40 63 -65zM469 121q-29 -48 -76 -79l-35 50q40 25 64 65z
M152 414q-39 -24 -63 -64l-49 36q15 24 34.5 43.5t43.5 34.5zM469 386l-47 -36q-25 40 -64 64l35 50q24 -15 43 -34.5t33 -43.5zM504 253q0 -29 -6 -55l-59 11q6 21 6 44q0 24 -6 46l59 10q6 -26 6 -56zM309 6q-30 -6 -54 -6q-25 0 -55 6l10 60q12 -4 23 -4.5t22 -0.5
t22 0.5t22 4.5zM309 502l-10 -61q-11 3 -22 4.5t-22 1.5t-22 -1.5t-23 -4.5l-10 61q30 7 55 7q24 0 54 -7z" />
    <glyph glyph-name="u.vow.dot" unicode="&#x102f;" horiz-adv-x="578" 
d="M216 -240v229h78v-229q0 -12 2 -23.5t5 -21t7.5 -16.5t10.5 -10q11 -6 21.5 -7.5t26.5 -1.5q13 0 22 0.5t16 2.5q7 1 13.5 1.5t12.5 3.5q33 9 33 42q0 5 -0.5 10.5t-3.5 10.5q-13 36 -55 36q-5 0 -17 -3q15 4 27 4q22 0 41.5 -9.5t33.5 -29.5q19 -26 19 -55
q0 -47 -36 -76q-22 -17 -55 -17q-4 1 -7.5 1h-5.5q-13 0 -27 -0.5t-29 -0.5q-30 -1 -49.5 2.5t-36.5 14.5q-14 10 -23.5 25t-14.5 33.5t-7 39.5t-2 44zM72 209l-60 -11q-3 11 -4.5 25t-1.5 30q0 15 1 29.5t5 26.5l60 -10q-4 -11 -4.5 -22t-0.5 -24q0 -12 0.5 -23t4.5 -21z
M152 92l-34 -50q-48 32 -78 79l49 36q24 -40 63 -65zM422 157l47 -36q-29 -48 -76 -79l-35 50q39 24 64 65zM118 464l34 -50q-39 -24 -63 -64l-49 36q30 47 78 78zM469 386l-47 -36q-25 39 -64 64l35 50q47 -30 76 -78zM504 253q0 -29 -6 -55l-59 11q6 21 6 44q0 24 -6 46
l59 10q6 -26 6 -56zM299 66l10 -60q-30 -6 -54 -6q-25 0 -55 6l10 60q12 -4 23 -4.5t22 -0.5t22 0.5t22 4.5zM309 502l-10 -61q-11 3 -22 4.5t-22 1.5t-22 -1.5t-23 -4.5l-10 61q15 3 28.5 5t26.5 2q7 0 20.5 -2t33.5 -5z" />
    <glyph glyph-name="uu.vow.dot" unicode="&#x1030;" horiz-adv-x="592" 
d="M198 -396h-77v392h77v-392zM280 -236v229h79v-229q0 -13 1.5 -24t4.5 -20.5t7.5 -16t10.5 -9.5q11 -7 22 -8.5t27 -1.5q13 0 21.5 1t15.5 2q8 1 14.5 1.5t11.5 3.5q34 8 34 42q0 4 -1 9.5t-3 12.5q-12 35 -56 35q-3 0 -7.5 -1t-9.5 -2q14 4 27 4q45 0 76 -39
q18 -25 18 -55q0 -47 -36 -76q-23 -18 -54 -18q-5 1 -8 1.5t-6 0.5q-13 0 -27 -0.5t-29 -1.5q-30 0 -49.5 3.5t-35.5 14.5q-15 10 -24.5 25.5t-14.5 33.5t-7 39t-2 44zM72 209l-60 -11q-3 11 -4.5 25t-1.5 30q0 15 1 29.5t5 26.5l60 -10q-4 -11 -4.5 -22t-0.5 -24
q0 -12 0.5 -23t4.5 -21zM152 92l-34 -50q-48 32 -78 79l49 36q24 -40 63 -65zM422 157l47 -36q-29 -48 -76 -79l-35 50q39 24 64 65zM118 464l34 -50q-39 -24 -63 -64l-49 36q30 47 78 78zM469 386l-47 -36q-25 39 -64 64l35 50q47 -30 76 -78zM504 253q0 -29 -6 -55l-59 11
q6 21 6 44q0 24 -6 46l59 10q6 -26 6 -56zM299 66l10 -60q-30 -6 -54 -6q-25 0 -55 6l10 60q12 -4 23 -4.5t22 -0.5t22 0.5t22 4.5zM309 502l-10 -61q-11 3 -22 4.5t-22 1.5t-22 -1.5t-23 -4.5l-10 61q15 3 28.5 5t26.5 2q7 0 20.5 -2t33.5 -5z" />
    <glyph glyph-name="e.vow.dot" unicode="&#x1031;" horiz-adv-x="1095" 
d="M481 380q8 -12 8 -26q0 -38 -40 -40q-7 0 -22 8q-10 7 -14 17q-43 53 -63 67q-35 25 -89 26q-74 1 -124.5 -50.5t-56.5 -125.5q-5 -73 52 -128q38 90 133 116q33 10 63 10q81 2 151 -70q8 -5 8 -24q0 -22 -18 -50q-10 -16 -24 -30q-79 -80 -197 -79q-49 0 -91 20
q-26 0 -36 18q-59 31 -90.5 90.5t-28.5 128.5q4 109 77.5 180.5t181.5 71.5q105 0 170 -70q7 -7 28 -31l18 -25h2l1 -2zM400 149q-34 24 -74 24q-96 0 -124 -86q24 -8 47 -8q81 -1 137 54zM589 209l-59 -11q-5 23 -5 55q0 15 1 29.5t4 26.5l59 -10q-2 -11 -3 -22t-1 -24
q0 -12 1 -23t3 -21zM670 92l-34 -50q-48 31 -78 79l49 36q23 -40 63 -65zM988 121q-30 -48 -78 -79l-33 50q39 25 62 65zM670 414q-40 -24 -63 -64l-49 36q15 24 34 43.5t44 34.5zM988 386l-49 -36q-23 40 -62 64l33 50q25 -15 44 -34.5t34 -43.5zM1022 253q0 -29 -5 -55
l-60 11q5 21 5 44q0 24 -5 46l60 10q5 -26 5 -56zM828 6q-31 -6 -55 -6t-55 6l10 60q12 -4 23 -4.5t22 -0.5q12 0 23 0.5t22 4.5zM828 502l-10 -61q-11 3 -22 4.5t-23 1.5q-11 0 -22 -1.5t-23 -4.5l-10 61q31 7 55 7t55 -7z" />
    <glyph glyph-name="ai.vow.dot" unicode="&#x1032;" horiz-adv-x="582" 
d="M394 620q12 -10 14 -31q0 -17 -11.5 -29t-28.5 -12q-14 0 -24 8l-244 187q-12 10 -15 30q0 17 11.5 30t28.5 13q14 0 25 -9zM72 209l-60 -11q-6 23 -6 55q0 15 1 29.5t5 26.5l60 -10q-4 -11 -4.5 -22t-0.5 -24q0 -12 0.5 -23t4.5 -21zM152 92l-34 -50q-48 31 -78 79
l49 36q24 -40 63 -65zM469 121q-29 -48 -76 -79l-35 50q40 25 64 65zM152 414q-39 -24 -63 -64l-49 36q15 24 34.5 43.5t43.5 34.5zM469 386l-47 -36q-25 40 -64 64l35 50q24 -15 43 -34.5t33 -43.5zM504 253q0 -29 -6 -55l-59 11q6 21 6 44q0 24 -6 46l59 10q6 -26 6 -56z
M309 6q-30 -6 -54 -6q-25 0 -55 6l10 60q12 -4 23 -4.5t22 -0.5t22 0.5t22 4.5zM309 502l-10 -61q-11 3 -22 4.5t-22 1.5t-22 -1.5t-23 -4.5l-10 61q30 7 55 7q24 0 54 -7z" />
    <glyph glyph-name="mon.ii.vow.dot" unicode="&#x1033;" horiz-adv-x="578" 
d="M452 731q1 -87 -58.5 -144.5t-146.5 -59.5q-82 -1 -141.5 59t-60.5 145t58.5 145t143.5 62q85 1 144 -60t61 -147zM373 732q1 51 -36.5 88.5t-89.5 38.5q-50 2 -86 -36t-37 -91q-1 -52 35.5 -89.5t87.5 -37.5q53 0 89 37t37 90zM72 209l-60 -11q-6 23 -6 55q0 15 1 29.5
t5 26.5l60 -10q-4 -11 -4.5 -22t-0.5 -24q0 -12 0.5 -23t4.5 -21zM152 92l-34 -50q-48 31 -78 79l49 36q24 -40 63 -65zM469 121q-29 -48 -76 -79l-35 50q40 25 64 65zM152 414q-39 -24 -63 -64l-49 36q15 24 34.5 43.5t43.5 34.5zM469 386l-47 -36q-25 40 -64 64l35 50
q24 -15 43 -34.5t33 -43.5zM504 253q0 -29 -6 -55l-59 11q6 21 6 44q0 24 -6 46l59 10q6 -26 6 -56zM309 6q-30 -6 -54 -6q-25 0 -55 6l10 60q12 -4 23 -4.5t22 -0.5t22 0.5t22 4.5zM309 502l-10 -61q-11 3 -22 4.5t-22 1.5t-22 -1.5t-23 -4.5l-10 61q30 7 55 7q24 0 54 -7z
M319 734q2 -30 -20 -51t-52 -22q-30 -2 -49.5 20.5t-20.5 52.5q-1 29 19.5 49t50.5 21t51 -20t21 -50zM265 734q1 15 -18 16q-15 0 -16 -16q-1 -19 16 -19q18 -1 18 19z" />
    <glyph glyph-name="mon.o.vow.dot" unicode="&#x1034;" horiz-adv-x="582" 
d="M343 807q11 9 25 9q17 0 28.5 -13t11.5 -30q-3 -20 -15 -30l-244 -187q-10 -8 -24 -8q-17 0 -28.5 12t-11.5 29q2 21 14 31zM72 209l-60 -11q-6 23 -6 55q0 15 1 29.5t5 26.5l60 -10q-4 -11 -4.5 -22t-0.5 -24q0 -12 0.5 -23t4.5 -21zM152 92l-34 -50q-48 31 -78 79
l49 36q24 -40 63 -65zM469 121q-29 -48 -76 -79l-35 50q40 25 64 65zM152 414q-39 -24 -63 -64l-49 36q15 24 34.5 43.5t43.5 34.5zM469 386l-47 -36q-25 40 -64 64l35 50q24 -15 43 -34.5t33 -43.5zM504 253q0 -29 -6 -55l-59 11q6 21 6 44q0 24 -6 46l59 10q6 -26 6 -56z
M309 6q-30 -6 -54 -6q-25 0 -55 6l10 60q12 -4 23 -4.5t22 -0.5t22 0.5t22 4.5zM309 502l-10 -61q-11 3 -22 4.5t-22 1.5t-22 -1.5t-23 -4.5l-10 61q30 7 55 7q24 0 54 -7z" />
    <glyph glyph-name="eabove.vow.dot" unicode="&#x1035;" horiz-adv-x="582" 
d="M244 599q12 0 22.5 1.5t20 4t20 8t23.5 13.5q11 12 18.5 21t13.5 17q0 11 -49 35q-17 4 -33 7t-36 2l-24 -1q-20 -1 -40 -11q-27 -8 -51 -33q38 -64 115 -64zM445 832q8 -20 17 -26q7 -7 16.5 -10.5t21.5 -3.5q27 0 41.5 17t14.5 40q0 27 -20 43q29 -26 29 -67
q0 -10 -1.5 -20t-5.5 -19q-25 -57 -87 -57q-19 0 -36 8q-31 13 -47 49l-28 46q-5 6 -15 15t-26 18l-37 12l-38 4q-58 0 -97 -42q-22 -19 -32 -43.5t-10 -54.5q0 -18 3 -20q4 5 18 12l38 19q22 11 42.5 17t39.5 6q53 0 93 -12.5t67 -38.5q29 -28 29 -61q0 -17 -12.5 -36.5
t-34.5 -42.5q-30 -29 -64.5 -43.5t-79.5 -14.5q-43 0 -80 16t-68 48q-32 32 -48 68.5t-16 81.5q0 84 58 148q30 31 67.5 47.5t86.5 16.5q28 0 51 -5t44 -13q17 -7 32 -14.5t26 -17.5q31 -27 48 -70zM71 209l-60 -11q-2 11 -3.5 25t-1.5 30q0 15 1 29.5t4 26.5l60 -10
q-3 -11 -3.5 -22t-0.5 -24q0 -12 0.5 -23t3.5 -21zM151 92l-33 -50q-48 32 -78 79l49 36q11 -20 26.5 -36.5t35.5 -28.5zM421 157l48 -36q-29 -48 -77 -79l-34 50q40 25 63 65zM118 464l33 -50q-20 -12 -35.5 -27.5t-26.5 -36.5l-49 36q15 24 34 43.5t44 34.5zM469 386
l-48 -36q-25 40 -63 64l34 50q25 -15 44 -34.5t33 -43.5zM503 253q0 -14 -1.5 -28t-3.5 -27l-59 11q6 21 6 44q0 24 -6 46l59 10q2 -13 3.5 -27t1.5 -29zM299 66l10 -60q-30 -6 -54 -6q-25 0 -55 6l10 60q11 -4 22 -4.5t23 -0.5q11 0 22 0.5t22 4.5zM309 502l-10 -61
q-11 3 -22 4.5t-22 1.5q-12 0 -23 -1.5t-22 -4.5l-10 61q15 3 28.5 5t26.5 2q7 0 20.5 -2t33.5 -5z" />
    <glyph glyph-name="anusvara.dot" unicode="&#x1036;" horiz-adv-x="582" 
d="M352 677q2 -44 -30.5 -75t-75.5 -32q-43 -2 -72 30.5t-30 76.5q-1 42 29 71.5t73 30.5q43 2 73.5 -29t32.5 -73zM273 677q1 22 -27 23q-22 1 -23 -23q-1 -27 23 -28q26 -1 27 28zM72 209l-60 -11q-6 23 -6 55q0 15 1 29.5t5 26.5l60 -10q-4 -11 -4.5 -22t-0.5 -24
q0 -12 0.5 -23t4.5 -21zM152 92l-34 -50q-48 31 -78 79l49 36q24 -40 63 -65zM469 121q-29 -48 -76 -79l-35 50q40 25 64 65zM152 414q-39 -24 -63 -64l-49 36q15 24 34.5 43.5t43.5 34.5zM469 386l-47 -36q-25 40 -64 64l35 50q24 -15 43 -34.5t33 -43.5zM504 253
q0 -29 -6 -55l-59 11q6 21 6 44q0 24 -6 46l59 10q6 -26 6 -56zM309 6q-30 -6 -54 -6q-25 0 -55 6l10 60q12 -4 23 -4.5t22 -0.5t22 0.5t22 4.5zM309 502l-10 -61q-11 3 -22 4.5t-22 1.5t-22 -1.5t-23 -4.5l-10 61q30 7 55 7q24 0 54 -7z" />
    <glyph glyph-name="aukmyit.dot" unicode="&#x1037;" horiz-adv-x="592" 
d="M370 -188q0 -38 -28.5 -68t-66.5 -30t-65 31.5t-27 71.5t25.5 63t66.5 23q39 0 67 -27t28 -64zM302 -188q0 24 -27 24q-23 0 -23 -17q0 -35 23 -35q27 0 27 28zM72 209l-60 -11q-6 23 -6 55q0 15 1 29.5t5 26.5l60 -10q-4 -11 -4.5 -22t-0.5 -24q0 -12 0.5 -23t4.5 -21z
M152 92l-34 -50q-48 31 -78 79l49 36q24 -40 63 -65zM469 121q-29 -48 -76 -79l-35 50q40 25 64 65zM152 414q-39 -24 -63 -64l-49 36q15 24 34.5 43.5t43.5 34.5zM469 386l-47 -36q-25 40 -64 64l35 50q24 -15 43 -34.5t33 -43.5zM504 253q0 -29 -6 -55l-59 11q6 21 6 44
q0 24 -6 46l59 10q6 -26 6 -56zM309 6q-30 -6 -54 -6q-25 0 -55 6l10 60q12 -4 23 -4.5t22 -0.5t22 0.5t22 4.5zM309 502l-10 -61q-11 3 -22 4.5t-22 1.5t-22 -1.5t-23 -4.5l-10 61q30 7 55 7q24 0 54 -7z" />
    <glyph glyph-name="visarga.dot" unicode="&#x1038;" horiz-adv-x="847" 
d="M756 396q0 -44 -30.5 -76t-73.5 -32q-44 0 -73.5 31t-29.5 75q0 45 28.5 73.5t74.5 29.5q40 2 70 -28.5t34 -72.5zM756 96q0 -44 -30.5 -76t-73.5 -32q-44 0 -73.5 31t-29.5 75q0 45 28.5 73.5t74.5 30.5q40 1 70 -29.5t34 -72.5zM678 393q-1 25 -26 25q-23 0 -24 -24
q-1 -26 24 -27q24 -1 26 26zM678 93q-1 25 -26 25q-23 0 -24 -24q-1 -26 24 -27q24 -1 26 26zM72 209l-60 -11q-6 23 -6 55q0 15 1 29.5t5 26.5l60 -10q-4 -11 -4.5 -22t-0.5 -24q0 -12 0.5 -23t4.5 -21zM152 92l-34 -50q-48 31 -78 79l49 36q24 -40 63 -65zM469 121
q-29 -48 -76 -79l-35 50q40 25 64 65zM152 414q-39 -24 -63 -64l-49 36q15 24 34.5 43.5t43.5 34.5zM469 386l-47 -36q-25 40 -64 64l35 50q24 -15 43 -34.5t33 -43.5zM504 253q0 -29 -6 -55l-59 11q6 21 6 44q0 24 -6 46l59 10q6 -26 6 -56zM309 6q-30 -6 -54 -6
q-25 0 -55 6l10 60q12 -4 23 -4.5t22 -0.5t22 0.5t22 4.5zM309 502l-10 -61q-11 3 -22 4.5t-22 1.5t-22 -1.5t-23 -4.5l-10 61q30 7 55 7q24 0 54 -7z" />
    <glyph glyph-name="virama" unicode="&#x1039;" horiz-adv-x="1241" 
d="M1060 658h-88v60h150v-80q0 -12 -1 -36t-1 -36h-60v92zM82 -369h-40q-27 -1 -41 -1v152h60v-91h90v-60h-69zM853 -369h119v60h88v91h60v-70q0 -13 1 -40t1 -41l-310 -4zM1 717h150v-59h-90v-92h-60v151zM1 346h60v-151h-60v151zM1060 532h60v-151h-60v151zM1060 346h60
v-151h-60v151zM778 658v60h150v-60h-150zM1060 162h60v-152h-60v152zM1 162h60v-152h-60v152zM1060 -24h60v-151h-60v151zM1 -24h60v-151h-60v151zM1 532h60v-151h-60v151zM195 -369v60h150v-60h-150zM390 -369v60h149v-60h-149zM778 -369v60h150v-60h-150zM584 -369v60h149
v-60h-149zM195 658v60h150v-60h-150zM584 658v60h149v-60h-149zM390 658v60h149v-60h-149zM577 -188v-81h-52v81h-90v51h90v80h52v-80h76v-51h-76zM362 209l-60 -11q-5 23 -5 55q0 15 1 29.5t4 26.5l60 -10q-3 -11 -3.5 -22t-0.5 -24q0 -12 0.5 -23t3.5 -21zM442 92l-33 -50
q-48 31 -78 79l49 36q23 -40 62 -65zM760 121q-29 -48 -77 -79l-34 50q40 25 63 65zM442 414q-39 -24 -62 -64l-49 36q15 24 34 43.5t44 34.5zM760 386l-48 -36q-24 40 -63 64l34 50q25 -15 44 -34.5t33 -43.5zM794 253q0 -29 -5 -55l-59 11q6 21 6 44q0 24 -6 46l59 10
q5 -26 5 -56zM600 6q-30 -6 -54 -6q-25 0 -55 6l10 60q11 -4 22 -4.5t23 -0.5q11 0 22 0.5t22 4.5zM600 502l-10 -61q-11 3 -22 4.5t-22 1.5q-12 0 -23 -1.5t-22 -4.5l-10 61q30 7 55 7q24 0 54 -7z" />
    <glyph glyph-name="asat.dot" unicode="&#x103a;" horiz-adv-x="586" 
d="M539 780q-23 -57 -86 -57q-19 0 -36 8q-31 14 -48 49q-6 22 -18.5 41t-30.5 32.5t-40.5 21t-48.5 7.5q-28 0 -53 -11t-43.5 -30t-29.5 -45t-11 -57q0 -28 11 -53t30.5 -43t45.5 -29t56 -11q12 0 21 1t15 4q15 -1 25.5 -9.5t12.5 -19.5t-5 -22.5t-26 -18.5q-11 -3 -23 -5
t-24 -2q-86 0 -148 61q-63 62 -63 151q0 88 62 150t150 62q69 0 118 -33.5t75 -95.5q4 -10 7.5 -16t8.5 -10q7 -7 17 -10t21 -3q28 0 42.5 16.5t14.5 39.5q0 27 -20 43q15 -13 22 -29t7 -38q0 -9 -2 -19t-6 -20zM72 209l-60 -11q-3 11 -4.5 25t-1.5 30q0 15 1 29.5t5 26.5
l60 -10q-4 -11 -4.5 -22t-0.5 -24q0 -12 0.5 -23t4.5 -21zM152 92l-34 -50q-48 32 -78 79l49 36q24 -40 63 -65zM422 157l47 -36q-29 -48 -76 -79l-35 50q39 24 64 65zM118 464l34 -50q-39 -24 -63 -64l-49 36q30 47 78 78zM469 386l-47 -36q-25 39 -64 64l35 50
q47 -30 76 -78zM504 253q0 -29 -6 -55l-59 11q6 21 6 44q0 24 -6 46l59 10q6 -26 6 -56zM299 66l10 -60q-30 -6 -54 -6q-25 0 -55 6l10 60q12 -4 23 -4.5t22 -0.5t22 0.5t22 4.5zM309 502l-10 -61q-11 3 -22 4.5t-22 1.5t-22 -1.5t-23 -4.5l-10 61q15 3 28.5 5t26.5 2
q7 0 20.5 -2t33.5 -5z" />
    <glyph glyph-name="ya.med.dot" unicode="&#x103b;" horiz-adv-x="774" 
d="M663 331v-340v-229q0 -51 -6 -75q-11 -44 -42 -67q-6 -4 -16 -7.5t-21 -6t-23.5 -3t-24.5 -0.5q-13 0 -27 0.5t-29 0.5q-20 -2 -37 1.5t-31 14.5q-18 14 -27 33t-9 42q0 30 19 56q29 39 76 39q8 0 14 -1t12 -3q-12 3 -19 3q-41 0 -54 -36q-4 -11 -4 -23q0 -32 34 -40
q5 -3 12 -4t14 -1q2 0 6.5 -0.5t10 -1t11.5 -1t11 -0.5q22 -1 35.5 4t21 15t10.5 25t4 36v229l1 511h78v-171zM72 209l-60 -11q-3 11 -4.5 25t-1.5 30q0 15 1 29.5t5 26.5l60 -10q-4 -11 -4.5 -22t-0.5 -24q0 -12 0.5 -23t4.5 -21zM152 92l-34 -50q-48 32 -78 79l49 36
q24 -40 63 -65zM422 157l47 -36q-29 -48 -76 -79l-35 50q39 24 64 65zM118 464l34 -50q-39 -24 -63 -64l-49 36q30 47 78 78zM469 386l-47 -36q-25 39 -64 64l35 50q47 -30 76 -78zM504 253q0 -29 -6 -55l-59 11q6 21 6 44q0 24 -6 46l59 10q6 -26 6 -56zM299 66l10 -60
q-30 -6 -54 -6q-25 0 -55 6l10 60q12 -4 23 -4.5t22 -0.5t22 0.5t22 4.5zM309 502l-10 -61q-11 3 -22 4.5t-22 1.5t-22 -1.5t-23 -4.5l-10 61q15 3 28.5 5t26.5 2q7 0 20.5 -2t33.5 -5z" />
    <glyph glyph-name="ra.med.dot" unicode="&#x103c;" horiz-adv-x="788" 
d="M161 942h328q20 0 40.5 -1.5t38.5 -7t33 -15t25 -24.5q5 -7 8 -16.5t5.5 -21t3.5 -23.5t1 -24q0 -17 -0.5 -31.5t-0.5 -25.5q2 -20 -2 -36.5t-15 -30.5q-14 -19 -33 -28t-42 -9q-31 0 -56 19q-39 29 -39 77q0 7 1 13t3 13q-1 -6 -1.5 -11t-0.5 -9q0 -41 35 -53
q11 -5 23 -5q32 0 40 34q3 5 4.5 12t1.5 14v7t0.5 10.5t1 11.5t0.5 10q0 22 -4.5 35.5t-14.5 21t-25 10.5t-36 5h-316q-10 2 -22 0.5t-22.5 -5.5t-18.5 -9t-12 -11q-5 -11 -8 -29.5t-3 -35.5q0 -9 0.5 -15t0.5 -10l5 -955q0 -4 -1.5 -14t-1.5 -20v-16.5t1.5 -13t4 -10.5
t6.5 -11q18 -26 68 -26h329q25 0 45 6.5t25 18.5q7 11 8.5 21.5t1.5 26.5q0 24 -3 38q-1 7 -1.5 13.5t-4.5 12.5q-8 34 -41 34q-10 0 -22 -5q-35 -13 -35 -55q0 -3 1 -7.5t2 -10.5q-3 8 -3.5 14.5t-0.5 12.5q0 23 9 42t30 34q26 19 55 19q47 0 76 -37q17 -23 17 -53
q-1 -6 -1 -9v-5q0 -13 0.5 -27t0.5 -30q1 -29 -2.5 -49t-14.5 -36q-22 -31 -66 -42q-28 -6 -72 -6h-337q-22 0 -39.5 1.5t-31.5 4.5q-23 6 -40 16.5t-27 25.5q-4 7 -7.5 16.5t-6 21t-3.5 23.5t-1 24q0 15 1 29.5t1 27.5l-3 955v39q0 40 3.5 64.5t15.5 42.5q21 31 66 42
q28 6 72 6zM208 209l-60 -11q-6 23 -6 55q0 15 1 29.5t5 26.5l60 -10q-4 -11 -4.5 -22t-0.5 -24q0 -12 0.5 -23t4.5 -21zM288 92l-34 -50q-47 31 -77 79l49 36q11 -20 27 -36.5t35 -28.5zM557 157l49 -36q-29 -48 -77 -79l-35 50q39 25 63 65zM254 464l34 -50
q-19 -12 -35 -27.5t-27 -36.5l-49 36q28 48 77 78zM606 386l-49 -36q-24 40 -63 64l35 50q47 -30 77 -78zM640 253q0 -38 -6 -55l-58 11q2 11 3 22t1 22q0 12 -1 23.5t-3 22.5l58 10q6 -17 6 -56zM436 66l10 -60q-30 -6 -55 -6q-24 0 -54 6l10 60q11 -4 22 -4.5t22 -0.5
t22 0.5t23 4.5zM446 502l-10 -61q-24 6 -45 6q-23 0 -44 -6l-10 61q20 3 33.5 5t20.5 2q13 0 26.5 -2t28.5 -5z" />
    <glyph glyph-name="wa.med.dot" unicode="&#x103d;" horiz-adv-x="606" 
d="M439 -222q1 -78 -52 -129t-130 -53q-74 -2 -127 52t-54 130t51.5 129.5t129.5 54.5q76 1 128.5 -53.5t53.5 -130.5zM368 -222q2 46 -31 79.5t-80 33.5q-49 0 -79.5 -32t-31.5 -81q-1 -47 32.5 -80.5t78.5 -33.5q47 0 78.5 33.5t32.5 80.5zM72 209l-60 -11q-6 23 -6 55
q0 15 1 29.5t5 26.5l60 -10q-4 -11 -4.5 -22t-0.5 -24q0 -12 0.5 -23t4.5 -21zM152 92l-34 -50q-48 31 -78 79l49 36q24 -40 63 -65zM469 121q-29 -48 -76 -79l-35 50q40 25 64 65zM152 414q-39 -24 -63 -64l-49 36q15 24 34.5 43.5t43.5 34.5zM469 386l-47 -36
q-25 40 -64 64l35 50q24 -15 43 -34.5t33 -43.5zM504 253q0 -29 -6 -55l-59 11q6 21 6 44q0 24 -6 46l59 10q6 -26 6 -56zM309 6q-30 -6 -54 -6q-25 0 -55 6l10 60q12 -4 23 -4.5t22 -0.5t22 0.5t22 4.5zM309 502l-10 -61q-11 3 -22 4.5t-22 1.5t-22 -1.5t-23 -4.5l-10 61
q30 7 55 7q24 0 54 -7z" />
    <glyph glyph-name="ha.med.dot" unicode="&#x103e;" horiz-adv-x="582" 
d="M304 -240v229h-78v-229q0 -12 -2 -23.5t-5 -21t-7.5 -16.5t-10.5 -10q-11 -6 -21.5 -7.5t-26.5 -1.5q-13 0 -22 1t-16 2t-13.5 1.5t-12.5 3.5q-33 9 -33 42q0 5 0.5 10.5t3.5 10.5q13 36 55 36q4 0 8 -1t9 -2q-15 4 -27 4q-46 0 -75 -39q-19 -24 -19 -55q0 -47 36 -76
q22 -17 55 -17q5 1 8 1h5q13 0 27 -0.5t30 -0.5q29 -1 49 2.5t36 14.5q14 10 23.5 25.5t14.5 33.5t7 39t2 44zM72 209l-60 -11q-3 11 -4.5 25t-1.5 30q0 15 1 29.5t5 26.5l60 -10q-4 -11 -4.5 -22t-0.5 -24q0 -12 0.5 -23t4.5 -21zM152 92l-34 -50q-48 32 -78 79l49 36
q24 -40 63 -65zM422 157l47 -36q-29 -48 -76 -79l-35 50q39 24 64 65zM118 464l34 -50q-39 -24 -63 -64l-49 36q30 47 78 78zM469 386l-47 -36q-25 39 -64 64l35 50q47 -30 76 -78zM504 253q0 -29 -6 -55l-59 11q6 21 6 44q0 24 -6 46l59 10q6 -26 6 -56zM299 66l10 -60
q-30 -6 -54 -6q-25 0 -55 6l10 60q12 -4 23 -4.5t22 -0.5t22 0.5t22 4.5zM309 502l-10 -61q-11 3 -22 4.5t-22 1.5t-22 -1.5t-23 -4.5l-10 61q15 3 28.5 5t26.5 2q7 0 20.5 -2t33.5 -5z" />
    <glyph glyph-name="great.sa" unicode="&#x103f;" horiz-adv-x="1435" 
d="M1253 428q72 -74 72 -180q0 -108 -75 -182.5t-177 -74.5q-104 0 -182 76q-16 17 -33 44q-14 -28 -34 -49q-77 -74 -180 -74t-180 76q-23 23 -37 45q-71 -121 -212 -121q-132 0 -201 94q-25 36 -25 49q0 38 41 38q33 0 38 -31q5 -4 11 -10q45 -61 136 -61q71 0 123.5 53
t52.5 126q0 72 -51 122t-125 50q-38 0 -87.5 -24t-63.5 -55q-11 -23 -33 -23q-16 0 -30 12t-14 29q0 11 8 22h1q1 1 1 -1l-1 1l1 -1l-2 -4h-4q3 3 6 8l19 25q77 90 199 90q109 0 183.5 -73t71.5 -178q0 -78 49 -127q52 -53 125 -53q72 0 123.5 51.5t51.5 126.5
q0 76 -51.5 127.5t-119.5 51.5q-27 0 -40 -5q-9 -4 -19 -4q-38 0 -38 42q0 27 29 37q26 8 66 8q101 0 179 -77q65 -66 72 -158q-3 -93 50 -145.5t126 -52.5q72 0 123 52t51 128q0 74 -51 126.5t-120 52.5q-26 0 -40 -6q-8 -4 -18 -4q-39 0 -39 42q0 28 29 37q25 8 66 8
q101 0 179 -76z" />
    <glyph glyph-name="m.zero" unicode="&#x1040;" horiz-adv-x="640" 
d="M297 81q55 9 97 53q50 52 52 123q1 70 -53 122q-25 27 -96 48v82q84 -8 151 -75q74 -74 75 -177q3 -104 -72 -179q-68 -68 -154 -77v80zM228 81q-57 9 -98 53q-50 52 -51 123q-1 70 53 122q26 25 96 47v83q-85 -9 -151 -75q-75 -74 -76 -177q-1 -104 76 -180
q63 -65 151 -74v78z" />
    <glyph glyph-name="m.one" unicode="&#x1041;" horiz-adv-x="580" 
d="M469 244q0 -104 -75.5 -180t-179.5 -76q-141 0 -213 108q-12 18 -12 35q0 38 40 38q28 0 37 -29q2 -2 10 -13q43 -60 138 -60q71 0 123.5 53t52.5 124q0 74 -51 124.5t-125 50.5q-89 0 -139 -63q-5 -6 -11 -14v-3q-11 -23 -34 -23q-16 0 -29.5 12t-13.5 29q0 10 7 20
q-3 0 -3 2q3 1 3 3l2 1q7 10 18 24q79 92 200 92q107 0 181 -74t74 -181z" />
    <glyph glyph-name="m.two" unicode="&#x1042;" horiz-adv-x="510" 
d="M373 -176q0 -111 -73 -173q-59 -53 -130 -53q-67 0 -135 46q-73 52 -71 112q1 36 37 36q40 0 40 -40q0 -31 47 -55q41 -20 80 -20q46 0 82 35q44 41 44 112v635q0 40 40 40q39 0 39 -40v-635z" />
    <glyph glyph-name="m.three" unicode="&#x1043;" horiz-adv-x="580" 
d="M469 244q0 -104 -75.5 -180t-179.5 -76q-41 0 -79 11l216 -346q7 -11 7 -22q0 -17 -12 -28t-30 -11q-19 0 -31 17l-290 457q-4 5 -4 11q0 16 26.5 33.5t47.5 17.5q9 0 13 -5q46 -56 136 -56q71 0 123.5 53t52.5 124q0 74 -51 124.5t-125 50.5q-89 0 -139 -63
q-5 -6 -11 -14v-3q-11 -23 -34 -23q-16 0 -29.5 12t-13.5 29q0 10 7 20q-3 0 -3 2q3 1 3 3l2 1q7 10 18 24q79 92 200 92q107 0 181 -74t74 -181z" />
    <glyph glyph-name="m.four" unicode="&#x1044;" horiz-adv-x="580" 
d="M467 379q0 -2 -3 -2q6 -10 6 -20q0 -17 -13 -29t-29 -12q-22 0 -35 23v3q-1 2 -10 14q-50 63 -139 63q-74 0 -124.5 -50.5t-50.5 -124.5q0 -72 52 -124.5t123 -52.5q90 0 134 55q3 6 14 6q21 0 46.5 -17.5t25.5 -33.5q0 -6 -2 -11l-289 -457q-13 -17 -32 -17
q-17 0 -29 11t-12 28q0 11 7 22l214 346q-37 -11 -77 -11q-103 0 -178.5 76t-75.5 180q0 107 73 181t181 74q120 0 200 -92q10 -14 18 -24l2 -1q0 -2 3 -3z" />
    <glyph glyph-name="m.five" unicode="&#x1045;" horiz-adv-x="610" 
d="M499 -153q0 -104 -75.5 -180t-179.5 -76t-179 74t-75 182q0 40 40 40q39 0 39 -40q0 -74 52 -125t123 -51t123.5 52.5t52.5 123.5v396q0 71 -52.5 123t-123.5 52q-75 0 -126 -52q47 -4 80 -37t33 -85q0 -51 -35.5 -86t-85.5 -35t-86.5 36.5t-36.5 84.5q0 16 4 29
q12 97 84 160.5t169 63.5q104 0 179.5 -74.5t75.5 -179.5v-396zM154 244q0 44 -44 44q-42 0 -42 -44q0 -43 42 -43q44 0 44 43zM66 253v-12v5v7z" />
    <glyph glyph-name="m.six" unicode="&#x1046;" horiz-adv-x="610" 
d="M499 238q0 -105 -75.5 -180.5t-179.5 -75.5t-179 75.5t-75 180.5v412q0 104 75 179t179 75q106 0 180.5 -73t74.5 -181q0 -40 -39 -40q-40 0 -40 40q0 74 -52 125t-124 51q-71 0 -123 -52.5t-52 -123.5v-412q0 -71 52 -124t123 -53q64 0 114 43.5t60 105.5l-122 43
q-4 1 -6 3q-39 5 -66 32q-34 34 -34 85q0 53 35.5 87t85.5 34q49 0 86 -36t37 -85q0 -41 -28 -74l66 -23q27 -10 27 -38zM353 373q0 44 -42 44q-43 0 -43 -44q0 -42 43 -42q42 0 42 42z" />
    <glyph glyph-name="m.seven" unicode="&#x1047;" horiz-adv-x="602" 
d="M477 141q-45 -82 -86 -164q-48 -96 -48 -201q0 -19 4 -38q5 -51 49 -59q33 -7 33 -38q0 -18 -13.5 -30t-34.5 -10q-38 6 -69 39q-36 37 -43 88q-2 23 -2 46q0 113 46 218q46 90 90 180q17 38 17 76q0 66 -48 116q-53 55 -132 55q-67 0 -117 -46q-54 -46 -54 -125
q0 -37 13 -71q4 -9 4 -16q0 -39 -43 -39q-25 0 -35 27q-18 45 -18 94q0 114 80 189q74 67 171 67q112 0 189 -80q69 -75 69 -169q0 -54 -22 -109z" />
    <glyph glyph-name="m.eight" unicode="&#x1048;" horiz-adv-x="610" 
d="M501 234q0 -65 -35.5 -131t-95.5 -107q-11 -8 -22 -8q-17 0 -28 12t-11 29q0 20 17 32q44 29 70 78t26 95q0 74 -53 129.5t-125 55.5q-86 0 -137 -71q95 -37 123 -131q17 -56 17 -110q0 -40 -11 -67q-24 -54 -78 -54q-20 0 -38 10q-60 36 -95 101t-35 137q0 108 73 185.5
t181 77.5q106 0 181.5 -77.5t75.5 -185.5zM174 101q-5 45 -20 93q-17 59 -81 82q-4 -20 -4 -42q0 -48 27.5 -97t65.5 -75q11 -8 12 12q2 10 0 27z" />
    <glyph glyph-name="m.nine" unicode="&#x1049;" horiz-adv-x="610" 
d="M499 -153q0 -108 -74.5 -182t-180.5 -74q-104 0 -179 76t-75 180v396q0 105 75 179.5t179 74.5t179.5 -74.5t75.5 -179.5q0 -27 -27 -37l-66 -24q28 -33 28 -75q0 -48 -37 -84t-86 -36q-50 0 -85.5 34.5t-35.5 85.5q0 52 34 86q28 26 66 33q2 1 6 2l122 43
q-10 61 -60 104t-114 43q-71 0 -123 -52t-52 -123v-396q0 -71 52 -123.5t123 -52.5q72 0 124 51t52 125q0 40 40 40q39 0 39 -40zM353 107q0 43 -42 43q-43 0 -43 -43t43 -43q42 0 42 43z" />
    <glyph glyph-name="littlesection.sig" unicode="&#x104a;" horiz-adv-x="246" 
d="M136 28q0 -40 -39 -40q-40 0 -40 40v431q0 40 40 40q39 0 39 -40v-431z" />
    <glyph glyph-name="section.sig" unicode="&#x104b;" horiz-adv-x="416" 
d="M303 28q0 -40 -39 -40q-40 0 -40 40v431q0 40 40 40q39 0 39 -40v-431zM136 28q0 -40 -39 -40q-40 0 -40 40v431q0 40 40 40q39 0 39 -40v-431z" />
    <glyph glyph-name="locative.sig" unicode="&#x104c;" horiz-adv-x="610" 
d="M498 244q0 -104 -76 -180t-181 -76q-103 0 -172 61v-53l16 -13q64 -47 156 -47q93 0 162 68q16 16 34 16q33 0 33 -44v-207q0 -85 -41.5 -128.5t-130.5 -43.5h-213q-42 0 -70 30.5t-28 74.5q0 12 3 25q13 62 85 62q26 0 48 -13t22 -37q0 -39 -36 -39q-9 0 -19 3
q-14 9 -16 10q-6 1 -6 -1q-9 -35 17 -35h213q55 0 74 20t19 72v125q-63 -37 -150 -37q-116 0 -204 63l-31 23q-16 13 -16 33v125q0 39 39 39q50 0 44 0q22 -1 32 -16q42 -57 136 -57q73 0 125.5 52.5t52.5 124.5q0 73 -51.5 123.5t-126.5 50.5q-84 0 -137 -64l-11 -12
q2 -2 0 -3q-12 -23 -34 -23q-16 0 -29.5 12t-13.5 29q0 9 5 17q-1 0 -2 3q1 1 2 3l3 2q2 5 19 25q31 34 81 61q57 29 117 29q110 0 183.5 -73.5t73.5 -179.5zM542 768q-22 -53 -80 -53q-19 0 -35 7q-29 14 -44 46q-5 21 -17 39t-29 30.5t-38 19.5t-45 7q-26 0 -49.5 -10.5
t-41.5 -28t-28 -42t-10 -53.5q0 -26 10.5 -49.5t29 -40.5t42.5 -27.5t52 -10.5q12 0 20.5 1t13.5 4q13 1 22.5 -6t12 -17t-3.5 -21.5t-24 -20.5q-11 -3 -22 -5t-22 -2q-80 0 -138 57q-60 58 -60 142q0 42 14 76t44 64t64.5 44t76.5 14q64 0 110 -31t70 -90q4 -9 7.5 -14.5
t7.5 -9.5q7 -7 16.5 -9.5t19.5 -2.5q26 0 40 15.5t14 36.5q0 26 -20 41q28 -24 28 -63q0 -9 -2 -18t-6 -19z" />
    <glyph glyph-name="completed.sig" unicode="&#x104d;" horiz-adv-x="773" 
d="M664 -237q0 -74 -26 -112q-37 -54 -109 -54h-415q-46 0 -78.5 38.5t-32.5 94.5q0 48 25 90q41 74 137 74q72 0 128 -46q14 -12 14 -29t-11.5 -29t-29.5 -12q-13 0 -26 9q-33 29 -76 29q-46 0 -65 -32.5t-19 -61.5q0 -45 34 -45h415q30 0 43 18.5t13 67.5v611
q0 85 -56 144q-15 16 -120 96q-90 69 -90 165q0 59 47 111.5t123 52.5q105 0 164 -94q5 -11 5 -22q0 -17 -12 -28t-30 -11q-20 0 -32 19q-35 59 -95 59q-36 0 -62 -26.5t-26 -61.5q0 -62 80 -129q105 -88 127 -115q56 -67 56 -160v-611zM497 -226q0 -40 -39 -40
q-40 0 -40 40v448q0 98 -51 148.5t-121 50.5q-60 0 -109 -37.5t-63 -97.5q105 2 160 -58q59 -67 59 -150q0 -32 -11 -61t-38 -29q-65 0 -98 15t-81 63q-66 67 -71 162q-7 13 -3 26q5 106 83 177q73 68 172 68q101 0 176 -75t75 -202v-448zM213 68q5 56 -40 108
q-30 35 -99 31q12 -60 71 -108q30 -27 68 -31z" />
    <glyph glyph-name="aforementioned.sig" unicode="&#x104e;" horiz-adv-x="580" 
d="M469 -363q0 -40 -39 -40q-40 0 -40 40v392q-64 -41 -146 -41q-103 0 -178.5 76t-75.5 180q0 107 73 181t181 74q120 0 200 -92q10 -14 18 -24l2 -1q0 -2 3 -3q0 -2 -3 -2q6 -10 6 -20q0 -17 -13 -29t-29 -12q-22 0 -35 23v3q-1 2 -10 14q-50 63 -139 63
q-74 0 -124.5 -50.5t-50.5 -124.5q0 -72 52 -124.5t123 -52.5q90 0 134 55q5 9 23 9q23 0 45.5 -13.5t22.5 -30.5v-450z" />
    <glyph glyph-name="genetive.sig" unicode="&#x104f;" horiz-adv-x="1078" 
d="M829 28q0 -40 -39 -40q-40 0 -40 40v346q0 108 -56 159q-65 47 -130 95q-45 34 -63 83q-14 38 -14 71q0 67 50 113.5t117 46.5q64 0 119 -42q48 -38 48 -74q0 -38 -41 -38q-23 0 -34 23q-26 51 -89 51q-21 0 -38 -6q-52 -23 -52 -77q0 -18 9 -40q18 -49 61 -79t88 -56
q104 -66 104 -230v-346zM648 28q0 -40 -39 -40q-40 0 -40 40v272q0 37 -18 73q-22 49 -58 49q-29 0 -55 -16l36 -42q0 -2 -1 -2q2 -2 4.5 -13t2.5 -17q0 -26 -22 -36q-50 -47 -110 -57q62 -11 119 -67q8 -6 8 -25q0 -23 -18 -50q-10 -14 -24 -29q-79 -81 -197 -78
q-45 1 -91 18q-27 2 -36 19q-58 29 -90 89.5t-29 129.5q7 146 128 216q7 7 13 9q52 28 118 26q79 -1 131 -36q38 29 116 32q68 1 112 -61q40 -58 40 -132v-272zM390 340l-4 4q-35 43 -57 56q-31 19 -80 19q-31 0 -60 -9q18 -66 80 -87q24 -7 45 -7q40 0 76 24zM284 239
q-20 2 -40 10q-94 33 -124 117q-47 -50 -52 -123q-4 -74 52 -127q45 105 164 123zM388 137q-35 24 -74 24q-20 0 -40 -5q-63 -18 -84 -83q24 -6 47 -6q84 -1 137 54q5 3 14 16z" />
    <glyph glyph-name="ga.sha" unicode="&#x1050;" horiz-adv-x="610" 
d="M509 253q0 -144 -91 -242q-11 -12 -29 -12q-16 0 -28 12t-12 28q0 15 11 28q68 73 69 186q2 77 -48.5 125.5t-127.5 49.5q-74 1 -124 -49.5t-50 -125.5q0 -110 71 -186q9 -10 11 -28q0 -16 -12 -28t-28 -12q-19 0 -29 12q-92 99 -92 242q0 47 22 101.5t56 85.5
q71 67 173 67q115 0 186.5 -70.5t71.5 -183.5zM327 228q0 -69 -69 -71q-65 -1 -69 70q-3 61 69 67q63 0 69 -66zM280 227q0 17 -22 23q-18 0 -24 -23q0 -18 24 -24q20 0 22 24z" />
    <glyph glyph-name="pa.ssa" unicode="&#x1051;" horiz-adv-x="610" 
d="M511 261q1 -108 -73 -184t-182 -77q-107 -1 -181.5 76.5t-74.5 184.5q0 67 34 133q55 105 117 116q16 0 28 -13q9 -10 11 -29q0 -17 -17 -31q-93 -64 -94 -176q-1 -75 51 -129t126 -54t124.5 54t51.5 129q0 61 -25 103q-19 32 -74 75q-13 10 -15 29q0 41 39 41
q11 0 21 -6q61 -35 96.5 -102.5t36.5 -139.5zM327 270q0 -70 -69 -71q-65 -1 -69 69q-3 61 69 69q63 0 69 -67zM280 268q0 18 -22 24q-18 0 -24 -24q0 -18 24 -24q20 0 22 24z" />
    <glyph glyph-name="r.vol" unicode="&#x1052;" horiz-adv-x="610" 
d="M2 266q0 158 129 240q11 5 21 5q39 0 39 -40q-3 -22 -18 -32q-93 -61 -92 -173q2 -78 54.5 -132.5t128.5 -53.5q54 2 106.5 36t63.5 83v27q-11 23 -16 29t-17 12q-38 15 -57 26q-58 44 -60 101q-2 45 33.5 80.5t80.5 34.5q43 -2 79 -29t35 -66q-1 -42 -39 -41
q-40 1 -40 41q0 13 -17 17q-18 2 -36 -7.5t-18 -26.5q4 -30 68 -59q32 -15 50 -32q39 -28 30 -106q-2 -11 -2 -17q-23 -76 -93.5 -129.5t-150.5 -52.5q-109 1 -185.5 78t-76.5 187z" />
    <glyph glyph-name="rr.vol" unicode="&#x1053;" horiz-adv-x="610" 
d="M264 80q54 -1 105.5 34.5t64.5 84.5v27q-1 5 -14 28q-2 6 -36 19q-25 9 -40 20q-56 41 -60 101q-3 45 32.5 79t81.5 36q38 1 77 -28q36 -27 37 -67t-39 -41q-39 -1 -40 41q0 13 -17 17q-17 3 -35 -7t-19 -27q1 -31 68 -59l16 -8q19 -7 34 -24q35 -24 30 -106q0 -6 -2 -17
q-20 -76 -91.5 -128.5t-152.5 -53.5q-86 -1 -154.5 52t-96.5 137l-3 9q-8 71 31 107q17 15 50 32q64 24 68 59q0 17 -19 26.5t-37 7.5q-12 -4 -14 -17q0 -40 -40 -41q-39 -1 -40 41t37 68q34 25 77 27q45 1 80 -34.5t33 -80.5q-1 -57 -61 -101q-12 -9 -56 -26
q-13 -6 -18 -12t-16 -33q16 -62 66 -101t113 -41z" />
    <glyph glyph-name="l.vol" unicode="&#x1054;" horiz-adv-x="590" 
d="M481 131l-2 -3h-1l-18 -24q-21 -25 -28 -32q-65 -70 -170 -70q-108 0 -181.5 72t-78.5 180q-2 69 29 129t91 90q10 18 35 18q43 20 92 20q118 1 197 -79q14 -14 23 -30q19 -28 19 -50q0 -19 -9 -24q-69 -71 -150 -70q-30 0 -63 10q-95 26 -133 116q-59 -55 -53 -127
q7 -75 57.5 -126.5t124.5 -50.5q54 2 89 27q20 14 63 66q4 10 14 17q15 9 22 9q40 -1 40 -40q0 -15 -8 -27zM387 379q-57 55 -137 54q-23 0 -47 -6q28 -88 124 -88q40 0 74 25z" />
    <glyph glyph-name="ll.vol" unicode="&#x1055;" horiz-adv-x="903" 
d="M450 199q17 -1 40 -27q17 -19 36 -40q52 -53 125 -52q53 2 89 27q20 14 63 66q4 10 14 17q15 9 22 9q40 -1 40 -40q0 -15 -8 -27l-1 -1l-2 -3h-1l-18 -24q-21 -25 -28 -32q-65 -70 -170 -70q-108 0 -182 72q-15 18 -16 20l-21 -22q-65 -70 -170 -70q-108 0 -181.5 72
t-78.5 180q-2 69 29 129t91 90q10 18 35 18q43 20 92 20q118 1 197 -79q14 -14 23 -30q19 -28 19 -50q0 -19 -9 -24q-69 -71 -150 -70q-30 0 -63 10q-95 26 -133 116q-59 -55 -53 -127q7 -75 57.5 -126.5t124.5 -50.5q54 2 89 27q20 14 63 66q4 10 14 17q15 9 22 9zM387 379
q-57 55 -137 54q-23 0 -47 -6q28 -88 124 -88q40 0 74 25z" />
    <glyph glyph-name="r.vow.dot" unicode="&#x1056;" horiz-adv-x="1048" 
d="M533 79q-5 5 34.5 24.5t36.5 25.5q59 -59 119 -58q52 0 106 33.5t65 81.5q-2 10 0 21q0 39 -34 50q-52 22 -58 26q-56 41 -58 101q-1 65 66 103q20 10 50 10q44 0 78 -21q41 -26 40 -66q0 -42 -40 -40q-39 1 -39 40q-2 13 -20 13q-20 0 -33 -6q-24 -15 -24 -29
q3 -36 65 -60q36 -14 49 -30q27 -19 33 -66q7 -33 -3 -51q-20 -80 -90.5 -135t-152.5 -54q-118 1 -190 87zM72 209l-60 -11q-6 23 -6 55q0 15 1 29.5t5 26.5l60 -10q-4 -11 -4.5 -22t-0.5 -24q0 -12 0.5 -23t4.5 -21zM152 92l-34 -50q-48 31 -78 79l49 36q24 -40 63 -65z
M469 121q-29 -48 -76 -79l-35 50q40 25 64 65zM152 414q-39 -24 -63 -64l-49 36q15 24 34.5 43.5t43.5 34.5zM469 386l-47 -36q-25 40 -64 64l35 50q24 -15 43 -34.5t33 -43.5zM504 253q0 -29 -6 -55l-59 11q6 21 6 44q0 24 -6 46l59 10q6 -26 6 -56zM309 6q-30 -6 -54 -6
q-25 0 -55 6l10 60q12 -4 23 -4.5t22 -0.5t22 0.5t22 4.5zM309 502l-10 -61q-11 3 -22 4.5t-22 1.5t-22 -1.5t-23 -4.5l-10 61q30 7 55 7q24 0 54 -7z" />
    <glyph glyph-name="rr.vow.dot" unicode="&#x1057;" horiz-adv-x="1518" 
d="M929 200q7 21 12.5 46.5t42.5 31.5q19 2 30 -9t11 -18q5 -70 55 -122t122 -51q53 1 105.5 33.5t65.5 81.5q-1 11 0 20q0 40 -34 50q-53 23 -59 27q-56 42 -57 102q-4 65 66 101q21 11 50 11q44 0 78 -22q42 -25 40 -65q-1 -43 -40 -40q-39 1 -39 40q-1 14 -20 14
q-20 0 -32 -8q-26 -13 -26 -29q4 -34 67 -60q33 -13 49 -30q26 -18 33 -65q6 -33 -4 -51q-20 -79 -91.5 -134.5t-151.5 -54.5q-140 1 -216 123q-81 -123 -216 -123q-103 0 -176 74q-54 54 -69 120q-2 11 16 22t36 11q17 0 23 -10q8 -18 17 -35q17 -37 32 -52q51 -51 121 -51
q73 0 126 54q18 19 33 68zM72 209l-60 -11q-6 23 -6 55q0 15 1 29.5t5 26.5l60 -10q-4 -11 -4.5 -22t-0.5 -24q0 -12 0.5 -23t4.5 -21zM152 92l-34 -50q-48 31 -78 79l49 36q24 -40 63 -65zM469 121q-29 -48 -76 -79l-35 50q40 25 64 65zM152 414q-39 -24 -63 -64l-49 36
q15 24 34.5 43.5t43.5 34.5zM469 386l-47 -36q-25 40 -64 64l35 50q24 -15 43 -34.5t33 -43.5zM504 253q0 -29 -6 -55l-59 11q6 21 6 44q0 24 -6 46l59 10q6 -26 6 -56zM309 6q-30 -6 -54 -6q-25 0 -55 6l10 60q12 -4 23 -4.5t22 -0.5t22 0.5t22 4.5zM309 502l-10 -61
q-11 3 -22 4.5t-22 1.5t-22 -1.5t-23 -4.5l-10 61q30 7 55 7q24 0 54 -7z" />
    <glyph glyph-name="l.vow.dot" unicode="&#x1058;" horiz-adv-x="592" 
d="M409 -337q-60 -60 -156 -62q-84 -2 -144 48t-61 131q-1 79 64 131q58 50 141 50q116 0 176 -87q10 -26 14 -46q2 -27 -7 -36q-61 -45 -129 -46q-114 -2 -165 100q-24 -28 -25 -66q-2 -51 43 -81q39 -28 93 -29q57 -2 116 51q8 18 28 19q12 0 25 -12q7 -6 11 -25
q-6 -14 -24 -40zM199 -116q27 -70 106 -70q38 0 75 24h-11q-2 1 -10 11q-43 43 -106 43q-27 0 -54 -8zM72 209l-60 -11q-6 23 -6 55q0 15 1 29.5t5 26.5l60 -10q-4 -11 -4.5 -22t-0.5 -24q0 -12 0.5 -23t4.5 -21zM152 92l-34 -50q-48 31 -78 79l49 36q24 -40 63 -65z
M469 121q-29 -48 -76 -79l-35 50q40 25 64 65zM152 414q-39 -24 -63 -64l-49 36q15 24 34.5 43.5t43.5 34.5zM469 386l-47 -36q-25 40 -64 64l35 50q24 -15 43 -34.5t33 -43.5zM504 253q0 -29 -6 -55l-59 11q6 21 6 44q0 24 -6 46l59 10q6 -26 6 -56zM309 6q-30 -6 -54 -6
q-25 0 -55 6l10 60q12 -4 23 -4.5t22 -0.5t22 0.5t22 4.5zM309 502l-10 -61q-11 3 -22 4.5t-22 1.5t-22 -1.5t-23 -4.5l-10 61q30 7 55 7q24 0 54 -7z" />
    <glyph glyph-name="ll.vow.dot" unicode="&#x1059;" horiz-adv-x="610" 
d="M723 -297q-6 -14 -24 -40q-62 -60 -159 -62q-84 -1 -145 55q-53 -53 -147 -55q-83 -1 -143 49t-61 131q-2 79 62 132q61 49 142 49q117 0 177 -88q11 -25 13 -46q2 -18 -11 -31q-67 -50 -124 -51q-115 -2 -166 101q-23 -28 -24 -66q-1 -51 43 -81q39 -29 92 -30
q59 -1 117 51q9 18 29 20q11 0 26 -14q9 -24 52 -40q38 -17 68 -17q59 -1 118 51q9 18 28 20q13 0 24 -13q8 -6 13 -25zM370 -172l-18 21q-63 44 -104 44q-24 0 -56 -10q28 -75 113 -75q23 0 65 20zM72 209l-60 -11q-6 23 -6 55q0 15 1 29.5t5 26.5l60 -10q-4 -11 -4.5 -22
t-0.5 -24q0 -12 0.5 -23t4.5 -21zM152 92l-34 -50q-48 31 -78 79l49 36q24 -40 63 -65zM469 121q-29 -48 -76 -79l-35 50q40 25 64 65zM152 414q-39 -24 -63 -64l-49 36q15 24 34.5 43.5t43.5 34.5zM469 386l-47 -36q-25 40 -64 64l35 50q24 -15 43 -34.5t33 -43.5zM504 253
q0 -29 -6 -55l-59 11q6 21 6 44q0 24 -6 46l59 10q6 -26 6 -56zM309 6q-30 -6 -54 -6q-25 0 -55 6l10 60q12 -4 23 -4.5t22 -0.5t22 0.5t22 4.5zM309 502l-10 -61q-11 3 -22 4.5t-22 1.5t-22 -1.5t-23 -4.5l-10 61q30 7 55 7q24 0 54 -7z" />
    <glyph glyph-name="mon.nga" unicode="&#x105a;" horiz-adv-x="610" 
d="M468 377q0 -3 -4 -3h-1v3v1q7 -11 7 -21q0 -17 -13 -29t-29 -12q-22 0 -35 23q-1 1 0 3l-10 12q-53 64 -137 64q-76 0 -126.5 -50.5t-50.5 -123.5q0 -72 52.5 -124.5t124.5 -52.5q92 0 134 57q4 5 11 16q10 29 38 29q40 0 40 -38q0 -17 -23 -52q-65 -91 -200 -91
q-105 0 -180.5 76t-75.5 180q0 106 73.5 179.5t182.5 73.5q60 0 117 -29q50 -27 81 -61l13 -15l6 -10l1 -2q3 -2 4 -3zM222 -13h58q39 0 94 -33q38 -31 43 -48q20 -29 20 -85v-153h10q39 -2 39 -7q11 -14 11 -26v-7q0 -23 -18 -31q-2 -3 -62 -3h-9q-16 2 -37 17
q-14 11 -14 34v193q0 28 -31 53q-40 20 -102 20h-4q-61 -2 -84 -57v-1q11 3 31 3h3q55 0 76 -41q11 -19 11 -36q0 -15 -17 -33q-25 -19 -64 -19q-52 0 -93 26q-24 23 -26 34q-11 12 -11 52q3 92 99 133q36 15 77 15zM130 -177q-1 -20 21 -34q18 -8 40 -8q17 2 17 11v1
q0 14 -23 24q-18 6 -55 6z" />
    <glyph glyph-name="mon.jha" unicode="&#x105b;" horiz-adv-x="731" 
d="M363 231q-43 52 -79 52q-32 0 -38 -22q-6 -17 10 -29.5t38 -13.5q43 -2 69 13zM289 -7q-21 -3 -40 -3q-111 0 -184.5 75t-73.5 179q0 105 75 180t180 75q98 0 180 -70q15 -13 33 -55q22 -46 22 -85q0 -28 -17 -62q46 -66 46 -81q0 -17 -12 -28.5t-29 -11.5q-18 0 -36 22
q-10 18 -23 38q-46 -29 -119 -26q-50 3 -87.5 40t-37.5 80q0 44 37.5 72.5t84.5 28.5q60 0 115 -60q-2 43 -30 69q-56 51 -126 51q-74 0 -125.5 -52t-51.5 -123q0 -73 52 -126.5t130 -53.5q55 0 87 26q13 9 25 9q38 0 38 -40q0 -30 -41 -49q5 -10 5 -28v-263l167 -47v782
q0 36 38 37q38 3 38 -37v-830q0 -40 -32 -40q-11 0 -16 3l-243 65q-28 8 -28 37v155l-93 -163q-31 -53 -83 -61q-17 -2 -52 18q-26 16 -44 32l-68 85q-7 11 -10 24q0 16 12 28q11 7 28 10q18 0 42 -30q16 -22 34 -47q33 -42 51 -45q13 3 24 22z" />
    <glyph glyph-name="mon.bba" unicode="&#x105c;" horiz-adv-x="610" 
d="M498 244q1 -104 -74.5 -179t-181.5 -75q-102 0 -177 75t-75 179q0 107 73 180t179 73t180.5 -74t75.5 -179zM419 246q0 71 -52 122t-125 51q-74 0 -124 -50t-50 -123t52 -125.5t122 -52.5q73 0 125 52.5t52 125.5zM338 247q0 -38 -29 -68t-67 -30t-65 31t-27 71
t25.5 63.5t66.5 23.5q39 0 67.5 -27.5t28.5 -63.5zM269 246q0 23 -27 23q-23 0 -23 -17q0 -34 23 -34q27 0 27 28z" />
    <glyph glyph-name="mon.bbe" unicode="&#x105d;" horiz-adv-x="610" 
d="M369 121q-48 69 -123 69q-77 0 -126 -69q52 -54 126 -54q70 0 123 54zM394 38q-64 -48 -148 -48q-120 0 -198 94q-11 9 -15 23q-43 60 -43 144q0 66 35 132.5t94 107.5q11 8 22 8q17 0 28 -13t11 -29q0 -19 -17 -33q-44 -28 -69 -76.5t-25 -96.5q0 -29 9 -57
q64 76 168 76q102 0 166 -77q10 29 10 58q0 115 -96 173q-18 14 -18 33q0 15 11 27.5t28 12.5q10 0 21 -6q62 -37 97.5 -102.5t35.5 -137.5q0 -66 -28 -120v-307q0 -111 -73 -173q-59 -53 -130 -53q-31 0 -62 10q-69 18 -98 68q-29 38 -28 98q0 66 68 112q48 26 94.5 24.5
t73 -26t32.5 -60.5q4 -36 -9.5 -62t-36 -35t-57.5 -2q-37 8 -42 35q0 34 37 28q22 -8 37 -3.5t13 27.5q-5 30 -53.5 30.5t-71 -29t-14.5 -58.5q5 -35 40 -60q38 -18 75 -18q46 0 82 35q44 41 44 112v214z" />
    <glyph glyph-name="mon.na.med.dot" unicode="&#x105e;" horiz-adv-x="578" 
d="M72 209l-60 -11q-6 23 -6 55q0 15 1 29.5t5 26.5l60 -10q-4 -11 -4.5 -22t-0.5 -24q0 -12 0.5 -23t4.5 -21zM152 92l-34 -50q-48 31 -78 79l49 36q24 -40 63 -65zM469 121q-29 -48 -76 -79l-35 50q40 25 64 65zM152 414q-39 -24 -63 -64l-49 36q15 24 34.5 43.5
t43.5 34.5zM469 386l-47 -36q-25 40 -64 64l35 50q24 -15 43 -34.5t33 -43.5zM504 253q0 -29 -6 -55l-59 11q6 21 6 44q0 24 -6 46l59 10q6 -26 6 -56zM309 6q-30 -6 -54 -6q-25 0 -55 6l10 60q12 -4 23 -4.5t22 -0.5t22 0.5t22 4.5zM309 502l-10 -61q-11 3 -22 4.5t-22 1.5
t-22 -1.5t-23 -4.5l-10 61q30 7 55 7q24 0 54 -7zM302 -226q4 -155 -143 -176q-137 1 -167.5 91t36.5 157q66 51 194 55v48q0 42 41 41q39 -2 39 -41v-50q165 -20 206 -112q22 -39 -17 -62q-37 -5 -57 38q-34 54 -132 59v-48zM222 -230v52q-115 -4 -139 -39
q-31 -44 -7 -77.5t81 -28.5q67 21 65 93z" />
    <glyph glyph-name="mon.ma.med.dot" unicode="&#x105f;" horiz-adv-x="578" 
d="M309 502l-10 -61q-11 3 -22 4.5t-22 1.5t-22 -1.5t-23 -4.5l-10 61q30 7 55 7q24 0 54 -7zM309 6q-30 -6 -54 -6q-25 0 -55 6l10 60q12 -4 23 -4.5t22 -0.5t22 0.5t22 4.5zM504 253q0 -29 -6 -55l-59 11q6 21 6 44q0 24 -6 46l59 10q6 -26 6 -56zM469 386l-47 -36
q-25 40 -64 64l35 50q24 -15 43 -34.5t33 -43.5zM152 414q-39 -24 -63 -64l-49 36q15 24 34.5 43.5t43.5 34.5zM469 121q-29 -48 -76 -79l-35 50q40 25 64 65zM152 92l-34 -50q-48 31 -78 79l49 36q24 -40 63 -65zM72 209l-60 -11q-6 23 -6 55q0 15 1 29.5t5 26.5l60 -10
q-4 -11 -4.5 -22t-0.5 -24q0 -12 0.5 -23t4.5 -21zM224 -102v51q0 39 39 41q41 1 41 -41v-99v-1q-1 -31 -47 -25q-35 5 -72 5q-43 -2 -69 -12.5t-41 -30t-13 -47.5q15 -60 183 -60q102 3 135 21.5t54 40.5q17 14 41 10q39 -11 29 -39q-14 -30 -38 -50q-59 -59 -221 -62
q-97 0 -143 13q-105 29 -119 126q-3 67 37 108q52 57 165 54q20 -1 39 -3z" />
    <glyph glyph-name="mon.la.med.dot" unicode="&#x1060;" horiz-adv-x="578" 
d="M534 -211q-81 -186 -256.5 -189t-245.5 69q-49 42 -56 100q-7 44 35 58q31 -9 134 19.5t207 162.5q14 36 52 27q33 -15 23 -48q-33 -77 -124 -146t-234 -93q26 -65 173.5 -68.5t220.5 121.5q12 30 36 27q35 -3 35 -40zM71 209l-60 -11q-5 23 -5 55q0 15 1 29.5t4 26.5
l60 -10q-3 -11 -3.5 -22t-0.5 -24q0 -12 0.5 -23t3.5 -21zM151 92l-33 -50q-48 31 -78 79l49 36q23 -40 62 -65zM469 121q-29 -48 -77 -79l-34 50q40 25 63 65zM151 414q-39 -24 -62 -64l-49 36q15 24 34.5 43.5t43.5 34.5zM469 386l-48 -36q-24 40 -63 64l34 50
q25 -15 44 -34.5t33 -43.5zM504 253q0 -29 -6 -55l-59 11q6 21 6 44q0 24 -6 46l59 10q6 -26 6 -56zM309 6q-30 -6 -54 -6q-25 0 -55 6l10 60q11 -4 22.5 -4.5t22.5 -0.5t22 0.5t22 4.5zM309 502l-10 -61q-11 3 -22 4.5t-22 1.5t-22.5 -1.5t-22.5 -4.5l-10 61q30 7 55 7
q24 0 54 -7z" />
    <glyph glyph-name="sgaw.sha" unicode="&#x1061;" horiz-adv-x="670" 
d="M77 65q-73 73 -73 186q0 112 74 184q38 37 84 54.5t102 16.5q56 0 101.5 -17t81.5 -54q36 -36 53 -80t17 -99v-611h-74l-1 611q0 70 -52 122q-26 27 -57 39.5t-69 12.5q-80 0 -132 -51q-44 -41 -49 -103q112 0 183 -71q13 -13 21.5 -29t18.5 -38q8 -22 16 -53t13 -83
l-19 -2v-229q0 -22 -2 -44t-7 -41.5t-14 -36t-24 -26.5q-16 -11 -36 -15t-49 -3q-16 1 -29.5 1h-27.5h-5t-8 -1q-15 0 -29 4.5t-25 13.5q-37 28 -37 76q0 29 19 55q15 19 34.5 29t41.5 10q11 0 27 -4q-12 3 -18 3q-43 0 -55 -36q-4 -11 -4 -21q0 -33 34 -42q5 -3 12 -4
t13 -2q7 -1 16 -1.5t22 -0.5q17 0 27.5 1t21.5 8q6 3 10.5 9.5t7.5 16t4.5 21t1.5 24.5v235q-96 0 -161 65zM131 121q46 -47 123 -50q-13 47 -44 76q-13 13 -28 22.5t-31.5 16t-32.5 10t-31 4.5q6 -24 17 -43.5t27 -35.5z" />
    <glyph glyph-name="sgaw.eu.vow.dot" unicode="&#x1062;" horiz-adv-x="822" 
d="M687 486v-486h-78v395q-18 -18 -18 -41q0 -7 1.5 -14t4.5 -13.5t6 -11.5t6 -7q-6 0 -13.5 3t-15.5 11l-17 17q-8 14 -13 27t-5 29q0 46 36 75q23 18 54 18q6 -1 8.5 -1.5t5.5 -0.5h38zM26 278q11 0 19.5 -7t8.5 -18t-8 -20t-20 -9q-11 0 -18.5 8.5t-7.5 20.5q0 11 7.5 18
t18.5 7zM251 496q11 0 18.5 -8t7.5 -21q0 -10 -8.5 -17t-17.5 -7q-11 0 -19 7t-8 17q0 12 8 20.5t19 8.5zM251 57q11 0 18.5 -8t7.5 -18q0 -11 -8.5 -19.5t-17.5 -8.5q-11 0 -19 8t-8 20q0 11 8 18.5t19 7.5zM95 118q10 0 19 -8t9 -18t-8.5 -18.5t-19.5 -8.5q-12 0 -19 8.5
t-7 18.5q0 12 7 19t19 7zM43 187q13 0 21.5 -8t8.5 -20q0 -5 -2.5 -10t-6 -9t-9 -7t-12.5 -3q-9 0 -18 10q-8 9 -8 19q0 12 8.5 20t17.5 8zM162 74q13 0 21 -7.5t8 -20.5q0 -5 -2 -10t-6 -9t-9.5 -6.5t-11.5 -2.5q-10 0 -17.5 8.5t-7.5 19.5q0 13 7.5 20.5t17.5 7.5zM95 382
q-12 0 -19 7t-7 20q0 10 7 18.5t19 8.5q10 0 19 -8t9 -19q0 -13 -9 -20t-19 -7zM43 312q-9 0 -17.5 8.5t-8.5 19.5q0 5 2.5 10t6 9t8.5 7t9 3q13 0 21.5 -9t8.5 -20t-8.5 -19.5t-21.5 -8.5zM162 426q-10 0 -17.5 8t-7.5 19q0 10 7 19t18 9q6 0 11.5 -2.5t9.5 -6.5t6 -9
t2 -10q0 -13 -8 -20t-21 -7zM466 278q12 0 19.5 -7t7.5 -18t-7.5 -20t-19.5 -9q-10 0 -18 8.5t-8 20.5q0 11 8 18t18 7zM397 118q12 0 19.5 -8t7.5 -18t-7 -18.5t-20 -8.5q-10 0 -18 8.5t-8 18.5q0 12 8 19t18 7zM449 187q9 0 18 -8t9 -20q0 -10 -9 -19q-9 -10 -18 -10
q-13 0 -20.5 9t-7.5 20q0 12 7.5 20t20.5 8zM330 74q10 0 18 -7.5t8 -20.5q0 -5 -2 -10t-5.5 -9t-8.5 -6.5t-10 -2.5q-13 0 -21 8.5t-8 19.5q0 13 8 20.5t21 7.5zM397 382q-10 0 -18 7t-8 20q0 10 8 18.5t18 8.5q12 0 19.5 -8t7.5 -19q0 -13 -7.5 -20t-19.5 -7zM449 312
q-13 0 -20.5 8.5t-7.5 19.5q0 10 8 19.5t20 9.5q9 0 18 -9q9 -10 9 -20q0 -11 -9 -19.5t-18 -8.5zM330 426q-13 0 -21 8t-8 19q0 5 2.5 10t6 9t9 6.5t11.5 2.5q5 0 9.5 -2.5t8.5 -6.5t6 -9t2 -10q0 -13 -8 -20t-18 -7z" />
    <glyph glyph-name="sgaw.hathi.ton.dot" unicode="&#x1063;" horiz-adv-x="1278" 
d="M635 -408v562l78 36q12 -25 20.5 -36t21.5 -25q57 -54 144 -54q85 0 139 57q57 57 57 141q0 83 -57 139q-56 57 -139 57q-84 0 -143 -56q-13 -13 -22 -26t-21 -37q-26 12 -40 18.5t-39 15.5q13 32 27.5 52t32.5 38q83 80 205 80t200 -80q79 -78 79 -201q0 -63 -20 -113.5
t-60 -90.5q-79 -79 -199 -79q-107 0 -181 56q0 -94 -0.5 -211.5t-0.5 -242.5h-82zM40 306q12 0 21 -8.5t9 -20.5q0 -13 -9 -22t-21 -9q-13 0 -21.5 9t-8.5 22q0 12 8.5 20.5t21.5 8.5zM289 547q12 0 21 -8.5t9 -22.5q0 -11 -9 -20t-21 -9q-13 0 -21.5 9t-8.5 20
q0 14 8.5 22.5t21.5 8.5zM289 59q12 0 21 -8.5t9 -20.5q0 -13 -9 -22t-21 -9q-13 0 -21.5 9t-8.5 22q0 12 8.5 20.5t21.5 8.5zM117 128q12 0 21 -8.5t9 -22.5q0 -11 -9 -20t-21 -9q-13 0 -21.5 9t-8.5 20q0 14 8.5 22.5t21.5 8.5zM59 204q14 0 23 -8.5t9 -22.5q0 -11 -9 -21
t-23 -10q-11 0 -20.5 10t-9.5 21q0 14 9.5 22.5t20.5 8.5zM191 78q14 0 23 -8.5t9 -22.5q0 -11 -9 -21t-23 -10q-11 0 -19.5 10t-8.5 21q0 14 8.5 22.5t19.5 8.5zM117 420q-13 0 -21.5 8.5t-8.5 22.5q0 11 8.5 20t21.5 9q12 0 21 -9t9 -20q0 -14 -9 -22.5t-21 -8.5zM59 344
q-11 0 -20.5 9t-9.5 22q0 11 9.5 21t20.5 10q14 0 23 -10t9 -21q0 -13 -9 -22t-23 -9zM191 470q-11 0 -19.5 8.5t-8.5 22.5q0 11 8.5 21t19.5 10q14 0 23 -10t9 -21q0 -14 -9 -22.5t-23 -8.5zM529 306q13 0 21.5 -8.5t8.5 -20.5q0 -13 -8.5 -22t-21.5 -9q-12 0 -21 9t-9 22
q0 12 9 20.5t21 8.5zM452 128q13 0 21.5 -8.5t8.5 -22.5q0 -11 -8.5 -20t-21.5 -9q-12 0 -21 9t-9 20q0 14 9 22.5t21 8.5zM510 204q11 0 20.5 -8.5t9.5 -22.5q0 -11 -9.5 -21t-20.5 -10q-14 0 -23 10t-9 21q0 14 9 22.5t23 8.5zM378 78q11 0 19.5 -8.5t8.5 -22.5
q0 -11 -8.5 -21t-19.5 -10q-14 0 -23 10t-9 21q0 14 9 22.5t23 8.5zM452 420q-12 0 -21 8.5t-9 22.5q0 11 9 20t21 9q13 0 21.5 -9t8.5 -20q0 -14 -8.5 -22.5t-21.5 -8.5zM510 344q-14 0 -23 9t-9 22q0 11 9 21t23 10q11 0 20.5 -10t9.5 -21q0 -13 -9.5 -22t-20.5 -9z
M378 470q-14 0 -23 8.5t-9 22.5q0 11 9 21t23 10q11 0 19.5 -10t8.5 -21q0 -14 -8.5 -22.5t-19.5 -8.5z" />
    <glyph glyph-name="sgaw.kepho.ton.dot" unicode="&#x1064;" horiz-adv-x="914" 
d="M315 -11h-16q-17 0 16 0zM40 306q12 0 21 -8.5t9 -20.5q0 -13 -9 -22t-21 -9q-13 0 -21.5 9t-8.5 22q0 12 8.5 20.5t21.5 8.5zM289 547q12 0 21 -8.5t9 -22.5q0 -11 -9 -20t-21 -9q-13 0 -21.5 9t-8.5 20q0 14 8.5 22.5t21.5 8.5zM289 59q12 0 21 -8.5t9 -20.5
q0 -13 -9 -22t-21 -9q-13 0 -21.5 9t-8.5 22q0 12 8.5 20.5t21.5 8.5zM117 128q12 0 21 -8.5t9 -22.5q0 -11 -9 -20t-21 -9q-13 0 -21.5 9t-8.5 20q0 14 8.5 22.5t21.5 8.5zM59 204q14 0 23 -8.5t9 -22.5q0 -11 -9 -21t-23 -10q-11 0 -20.5 10t-9.5 21q0 14 9.5 22.5
t20.5 8.5zM191 78q14 0 23 -8.5t9 -22.5q0 -11 -9 -21t-23 -10q-11 0 -19.5 10t-8.5 21q0 14 8.5 22.5t19.5 8.5zM117 420q-13 0 -21.5 8.5t-8.5 22.5q0 11 8.5 20t21.5 9q12 0 21 -9t9 -20q0 -14 -9 -22.5t-21 -8.5zM59 344q-11 0 -20.5 9t-9.5 22q0 11 9.5 21t20.5 10
q14 0 23 -10t9 -21q0 -13 -9 -22t-23 -9zM191 470q-11 0 -19.5 8.5t-8.5 22.5q0 11 8.5 21t19.5 10q14 0 23 -10t9 -21q0 -14 -9 -22.5t-23 -8.5zM529 306q13 0 21.5 -8.5t8.5 -20.5q0 -13 -8.5 -22t-21.5 -9q-12 0 -21 9t-9 22q0 12 9 20.5t21 8.5zM452 128q13 0 21.5 -8.5
t8.5 -22.5q0 -11 -8.5 -20t-21.5 -9q-12 0 -21 9t-9 20q0 14 9 22.5t21 8.5zM510 204q11 0 20.5 -8.5t9.5 -22.5q0 -11 -9.5 -21t-20.5 -10q-14 0 -23 10t-9 21q0 14 9 22.5t23 8.5zM378 78q11 0 19.5 -8.5t8.5 -22.5q0 -11 -8.5 -21t-19.5 -10q-14 0 -23 10t-9 21
q0 14 9 22.5t23 8.5zM452 420q-12 0 -21 8.5t-9 22.5q0 11 9 20t21 9q13 0 21.5 -9t8.5 -20q0 -14 -8.5 -22.5t-21.5 -8.5zM510 344q-14 0 -23 9t-9 22q0 11 9 21t23 10q11 0 20.5 -10t9.5 -21q0 -13 -9.5 -22t-20.5 -9zM378 470q-14 0 -23 8.5t-9 22.5q0 11 9 21t23 10
q11 0 19.5 -10t8.5 -21q0 -14 -8.5 -22.5t-19.5 -8.5zM953 -10q-62 0 -111 -0.5t-112 -0.5l-1 484h-138v86h223v-485h139v-84z" />
    <glyph glyph-name="pwo.tha" unicode="&#x1065;" horiz-adv-x="651" 
d="M82 192q10 -25 19 -36t22 -25q58 -55 147 -55q85 0 139 57q59 58 59 143q0 84 -59 141q-54 57 -139 57q-87 0 -146 -56q-25 -26 -42 -63q-27 11 -41 17.5t-41 17.5q15 31 30 52t33 38q83 80 207 80q122 0 202 -80q79 -79 79 -204q0 -124 -80 -206q-80 -80 -201 -80
q-130 0 -208 79q-35 33 -61 87z" />
    <glyph glyph-name="pwo.pwa" unicode="&#x1066;" horiz-adv-x="670" 
d="M156 -323h259v334q-56 -26 -127 -26q-124 0 -207 80q-81 79 -81 204q0 146 80 232q18 18 37.5 31t51.5 29q11 -28 18 -42t16 -40q-23 -12 -37.5 -21t-24.5 -19q-56 -64 -56 -170q0 -87 58 -142q58 -57 145 -57q84 0 141 57t57 142q0 103 -57 168q-13 11 -27.5 21.5
t-40.5 22.5l42 78q52 -24 87 -59q80 -91 80 -231q0 -118 -70 -195q0 -105 -0.5 -207t-0.5 -210q-2 -48 -70 -64h-273v84z" />
    <glyph glyph-name="pwo.eu.vow.dot" unicode="&#x1067;" horiz-adv-x="939" 
d="M630 94q0 21 8.5 40t22.5 32.5t33.5 22t41.5 8.5q18 0 21 -1q0 79 -0.5 168.5t-0.5 193.5h83v-194v-125v-78v-42v-18.5v-6.5q0 -22 -8.5 -41.5t-22 -33.5t-32.5 -22.5t-40 -8.5q-44 0 -75 31t-31 75zM697 94q0 -16 11.5 -27.5t27.5 -11.5t28 11.5t12 27.5t-12 28t-28 12
t-27.5 -12t-11.5 -28zM40 306q12 0 21 -8.5t9 -20.5q0 -13 -9 -22t-21 -9q-13 0 -21.5 9t-8.5 22q0 12 8.5 20.5t21.5 8.5zM289 547q12 0 21 -8.5t9 -22.5q0 -11 -9 -20t-21 -9q-13 0 -21.5 9t-8.5 20q0 14 8.5 22.5t21.5 8.5zM289 59q12 0 21 -8.5t9 -20.5q0 -13 -9 -22
t-21 -9q-13 0 -21.5 9t-8.5 22q0 12 8.5 20.5t21.5 8.5zM117 128q12 0 21 -8.5t9 -22.5q0 -11 -9 -20t-21 -9q-13 0 -21.5 9t-8.5 20q0 14 8.5 22.5t21.5 8.5zM59 204q14 0 23 -8.5t9 -22.5q0 -11 -9 -21t-23 -10q-11 0 -20.5 10t-9.5 21q0 14 9.5 22.5t20.5 8.5zM191 78
q14 0 23 -8.5t9 -22.5q0 -11 -9 -21t-23 -10q-11 0 -19.5 10t-8.5 21q0 14 8.5 22.5t19.5 8.5zM117 420q-13 0 -21.5 8.5t-8.5 22.5q0 11 8.5 20t21.5 9q12 0 21 -9t9 -20q0 -14 -9 -22.5t-21 -8.5zM59 344q-11 0 -20.5 9t-9.5 22q0 11 9.5 21t20.5 10q14 0 23 -10t9 -21
q0 -13 -9 -22t-23 -9zM191 470q-11 0 -19.5 8.5t-8.5 22.5q0 11 8.5 21t19.5 10q14 0 23 -10t9 -21q0 -14 -9 -22.5t-23 -8.5zM529 306q13 0 21.5 -8.5t8.5 -20.5q0 -13 -8.5 -22t-21.5 -9q-12 0 -21 9t-9 22q0 12 9 20.5t21 8.5zM452 128q13 0 21.5 -8.5t8.5 -22.5
q0 -11 -8.5 -20t-21.5 -9q-12 0 -21 9t-9 20q0 14 9 22.5t21 8.5zM510 204q11 0 20.5 -8.5t9.5 -22.5q0 -11 -9.5 -21t-20.5 -10q-14 0 -23 10t-9 21q0 14 9 22.5t23 8.5zM378 78q11 0 19.5 -8.5t8.5 -22.5q0 -11 -8.5 -21t-19.5 -10q-14 0 -23 10t-9 21q0 14 9 22.5t23 8.5
zM452 420q-12 0 -21 8.5t-9 22.5q0 11 9 20t21 9q13 0 21.5 -9t8.5 -20q0 -14 -8.5 -22.5t-21.5 -8.5zM510 344q-14 0 -23 9t-9 22q0 11 9 21t23 10q11 0 20.5 -10t9.5 -21q0 -13 -9.5 -22t-20.5 -9zM378 470q-14 0 -23 8.5t-9 22.5q0 11 9 21t23 10q11 0 19.5 -10t8.5 -21
q0 -14 -8.5 -22.5t-19.5 -8.5z" />
    <glyph glyph-name="pwo.ue.vow.dot" unicode="&#x1068;" horiz-adv-x="966" 
d="M866 379v-389h-262v85h178q0 62 1 141.5t1 162.5h82zM40 306q12 0 21 -8.5t9 -20.5q0 -13 -9 -22t-21 -9q-13 0 -21.5 9t-8.5 22q0 12 8.5 20.5t21.5 8.5zM289 547q12 0 21 -8.5t9 -22.5q0 -11 -9 -20t-21 -9q-13 0 -21.5 9t-8.5 20q0 14 8.5 22.5t21.5 8.5zM289 59
q12 0 21 -8.5t9 -20.5q0 -13 -9 -22t-21 -9q-13 0 -21.5 9t-8.5 22q0 12 8.5 20.5t21.5 8.5zM117 128q12 0 21 -8.5t9 -22.5q0 -11 -9 -20t-21 -9q-13 0 -21.5 9t-8.5 20q0 14 8.5 22.5t21.5 8.5zM59 204q14 0 23 -8.5t9 -22.5q0 -11 -9 -21t-23 -10q-11 0 -20.5 10t-9.5 21
q0 14 9.5 22.5t20.5 8.5zM191 78q14 0 23 -8.5t9 -22.5q0 -11 -9 -21t-23 -10q-11 0 -19.5 10t-8.5 21q0 14 8.5 22.5t19.5 8.5zM117 420q-13 0 -21.5 8.5t-8.5 22.5q0 11 8.5 20t21.5 9q12 0 21 -9t9 -20q0 -14 -9 -22.5t-21 -8.5zM59 344q-11 0 -20.5 9t-9.5 22
q0 11 9.5 21t20.5 10q14 0 23 -10t9 -21q0 -13 -9 -22t-23 -9zM191 470q-11 0 -19.5 8.5t-8.5 22.5q0 11 8.5 21t19.5 10q14 0 23 -10t9 -21q0 -14 -9 -22.5t-23 -8.5zM529 306q13 0 21.5 -8.5t8.5 -20.5q0 -13 -8.5 -22t-21.5 -9q-12 0 -21 9t-9 22q0 12 9 20.5t21 8.5z
M452 128q13 0 21.5 -8.5t8.5 -22.5q0 -11 -8.5 -20t-21.5 -9q-12 0 -21 9t-9 20q0 14 9 22.5t21 8.5zM510 204q11 0 20.5 -8.5t9.5 -22.5q0 -11 -9.5 -21t-20.5 -10q-14 0 -23 10t-9 21q0 14 9 22.5t23 8.5zM378 78q11 0 19.5 -8.5t8.5 -22.5q0 -11 -8.5 -21t-19.5 -10
q-14 0 -23 10t-9 21q0 14 9 22.5t23 8.5zM452 420q-12 0 -21 8.5t-9 22.5q0 11 9 20t21 9q13 0 21.5 -9t8.5 -20q0 -14 -8.5 -22.5t-21.5 -8.5zM510 344q-14 0 -23 9t-9 22q0 11 9 21t23 10q11 0 20.5 -10t9.5 -21q0 -13 -9.5 -22t-20.5 -9zM378 470q-14 0 -23 8.5t-9 22.5
q0 11 9 21t23 10q11 0 19.5 -10t8.5 -21q0 -14 -8.5 -22.5t-19.5 -8.5zM710 530q0 21 8.5 40.5t23 33.5t34 22.5t41.5 8.5q21 0 40.5 -8.5t33 -22.5t22 -33.5t8.5 -40.5q0 -22 -8 -41.5t-22 -34t-33.5 -23t-40.5 -8.5q-22 0 -41.5 8.5t-34 23t-23 34t-8.5 41.5zM778 530
q0 -16 11.5 -27.5t27.5 -11.5t28.5 11.5t12.5 27.5t-12.5 28.5t-28.5 12.5t-27.5 -12.5t-11.5 -28.5z" />
    <glyph glyph-name="pwo.tone1.dot" unicode="&#x1069;" horiz-adv-x="971" 
d="M611 506q48 29 98 29q35 0 65 -12.5t51.5 -34t33.5 -52t12 -65.5q-2 -30 -12.5 -57.5t-26 -51t-33.5 -45t-36 -40.5q-10 -10 -22.5 -26t-22.5 -26q-7 -9 -8.5 -15.5t0.5 -10.5t11 -8.5t28 -5.5q6 1 14 3t17 27h71q-3 -42 -16 -61t-30.5 -29t-35.5 -12.5t-32 -2.5
q-60 0 -90.5 29t-30.5 68t22 71.5t52 63.5l8 9q12 13 24 25.5t22 26t17.5 30.5t11.5 39q-3 27 -20 47t-44 20q-22 0 -47 -17zM40 306q12 0 21 -8.5t9 -20.5q0 -13 -9 -22t-21 -9q-13 0 -21.5 9t-8.5 22q0 12 8.5 20.5t21.5 8.5zM289 547q12 0 21 -8.5t9 -22.5q0 -11 -9 -20
t-21 -9q-13 0 -21.5 9t-8.5 20q0 14 8.5 22.5t21.5 8.5zM289 59q12 0 21 -8.5t9 -20.5q0 -13 -9 -22t-21 -9q-13 0 -21.5 9t-8.5 22q0 12 8.5 20.5t21.5 8.5zM117 128q12 0 21 -8.5t9 -22.5q0 -11 -9 -20t-21 -9q-13 0 -21.5 9t-8.5 20q0 14 8.5 22.5t21.5 8.5zM59 204
q14 0 23 -8.5t9 -22.5q0 -11 -9 -21t-23 -10q-11 0 -20.5 10t-9.5 21q0 14 9.5 22.5t20.5 8.5zM191 78q14 0 23 -8.5t9 -22.5q0 -11 -9 -21t-23 -10q-11 0 -19.5 10t-8.5 21q0 14 8.5 22.5t19.5 8.5zM117 420q-13 0 -21.5 8.5t-8.5 22.5q0 11 8.5 20t21.5 9q12 0 21 -9
t9 -20q0 -14 -9 -22.5t-21 -8.5zM59 344q-11 0 -20.5 9t-9.5 22q0 11 9.5 21t20.5 10q14 0 23 -10t9 -21q0 -13 -9 -22t-23 -9zM191 470q-11 0 -19.5 8.5t-8.5 22.5q0 11 8.5 21t19.5 10q14 0 23 -10t9 -21q0 -14 -9 -22.5t-23 -8.5zM529 306q13 0 21.5 -8.5t8.5 -20.5
q0 -13 -8.5 -22t-21.5 -9q-12 0 -21 9t-9 22q0 12 9 20.5t21 8.5zM452 128q13 0 21.5 -8.5t8.5 -22.5q0 -11 -8.5 -20t-21.5 -9q-12 0 -21 9t-9 20q0 14 9 22.5t21 8.5zM510 204q11 0 20.5 -8.5t9.5 -22.5q0 -11 -9.5 -21t-20.5 -10q-14 0 -23 10t-9 21q0 14 9 22.5t23 8.5z
M378 78q11 0 19.5 -8.5t8.5 -22.5q0 -11 -8.5 -21t-19.5 -10q-14 0 -23 10t-9 21q0 14 9 22.5t23 8.5zM452 420q-12 0 -21 8.5t-9 22.5q0 11 9 20t21 9q13 0 21.5 -9t8.5 -20q0 -14 -8.5 -22.5t-21.5 -8.5zM510 344q-14 0 -23 9t-9 22q0 11 9 21t23 10q11 0 20.5 -10
t9.5 -21q0 -13 -9.5 -22t-20.5 -9zM378 470q-14 0 -23 8.5t-9 22.5q0 11 9 21t23 10q11 0 19.5 -10t8.5 -21q0 -14 -8.5 -22.5t-19.5 -8.5z" />
    <glyph glyph-name="pwo.tone2.dot" unicode="&#x106a;" horiz-adv-x="967" 
d="M717 -9q-18 0 -43 10t-43 28t-29.5 42t-12.5 61l89 -1q5 -26 18.5 -38t32.5 -12q21 0 36.5 15.5t18.5 39.5q0 101 -0.5 206t-0.5 217h84v-429q0 -29 -11.5 -54.5t-30 -44t-44 -29.5t-64.5 -11zM40 306q12 0 21 -8.5t9 -20.5q0 -13 -9 -22t-21 -9q-13 0 -21.5 9t-8.5 22
q0 12 8.5 20.5t21.5 8.5zM289 547q12 0 21 -8.5t9 -22.5q0 -11 -9 -20t-21 -9q-13 0 -21.5 9t-8.5 20q0 14 8.5 22.5t21.5 8.5zM289 59q12 0 21 -8.5t9 -20.5q0 -13 -9 -22t-21 -9q-13 0 -21.5 9t-8.5 22q0 12 8.5 20.5t21.5 8.5zM117 128q12 0 21 -8.5t9 -22.5
q0 -11 -9 -20t-21 -9q-13 0 -21.5 9t-8.5 20q0 14 8.5 22.5t21.5 8.5zM59 204q14 0 23 -8.5t9 -22.5q0 -11 -9 -21t-23 -10q-11 0 -20.5 10t-9.5 21q0 14 9.5 22.5t20.5 8.5zM191 78q14 0 23 -8.5t9 -22.5q0 -11 -9 -21t-23 -10q-11 0 -19.5 10t-8.5 21q0 14 8.5 22.5
t19.5 8.5zM117 420q-13 0 -21.5 8.5t-8.5 22.5q0 11 8.5 20t21.5 9q12 0 21 -9t9 -20q0 -14 -9 -22.5t-21 -8.5zM59 344q-11 0 -20.5 9t-9.5 22q0 11 9.5 21t20.5 10q14 0 23 -10t9 -21q0 -13 -9 -22t-23 -9zM191 470q-11 0 -19.5 8.5t-8.5 22.5q0 11 8.5 21t19.5 10
q14 0 23 -10t9 -21q0 -14 -9 -22.5t-23 -8.5zM529 306q13 0 21.5 -8.5t8.5 -20.5q0 -13 -8.5 -22t-21.5 -9q-12 0 -21 9t-9 22q0 12 9 20.5t21 8.5zM452 128q13 0 21.5 -8.5t8.5 -22.5q0 -11 -8.5 -20t-21.5 -9q-12 0 -21 9t-9 20q0 14 9 22.5t21 8.5zM510 204
q11 0 20.5 -8.5t9.5 -22.5q0 -11 -9.5 -21t-20.5 -10q-14 0 -23 10t-9 21q0 14 9 22.5t23 8.5zM378 78q11 0 19.5 -8.5t8.5 -22.5q0 -11 -8.5 -21t-19.5 -10q-14 0 -23 10t-9 21q0 14 9 22.5t23 8.5zM452 420q-12 0 -21 8.5t-9 22.5q0 11 9 20t21 9q13 0 21.5 -9t8.5 -20
q0 -14 -8.5 -22.5t-21.5 -8.5zM510 344q-14 0 -23 9t-9 22q0 11 9 21t23 10q11 0 20.5 -10t9.5 -21q0 -13 -9.5 -22t-20.5 -9zM378 470q-14 0 -23 8.5t-9 22.5q0 11 9 21t23 10q11 0 19.5 -10t8.5 -21q0 -14 -8.5 -22.5t-19.5 -8.5z" />
    <glyph glyph-name="pwo.tone3.dot" unicode="&#x106b;" horiz-adv-x="967" 
d="M727 559q29 0 54.5 -11t44 -29.5t30 -44t11.5 -54.5v-429h-84q0 112 0.5 217t0.5 206q-3 24 -18.5 39.5t-36.5 15.5q-19 0 -32.5 -12t-18.5 -38l-89 -1q1 37 12.5 61t29.5 42t43 28t53 10zM40 306q12 0 21 -8.5t9 -20.5q0 -13 -9 -22t-21 -9q-13 0 -21.5 9t-8.5 22
q0 12 8.5 20.5t21.5 8.5zM289 547q12 0 21 -8.5t9 -22.5q0 -11 -9 -20t-21 -9q-13 0 -21.5 9t-8.5 20q0 14 8.5 22.5t21.5 8.5zM289 59q12 0 21 -8.5t9 -20.5q0 -13 -9 -22t-21 -9q-13 0 -21.5 9t-8.5 22q0 12 8.5 20.5t21.5 8.5zM117 128q12 0 21 -8.5t9 -22.5
q0 -11 -9 -20t-21 -9q-13 0 -21.5 9t-8.5 20q0 14 8.5 22.5t21.5 8.5zM59 204q14 0 23 -8.5t9 -22.5q0 -11 -9 -21t-23 -10q-11 0 -20.5 10t-9.5 21q0 14 9.5 22.5t20.5 8.5zM191 78q14 0 23 -8.5t9 -22.5q0 -11 -9 -21t-23 -10q-11 0 -19.5 10t-8.5 21q0 14 8.5 22.5
t19.5 8.5zM117 420q-13 0 -21.5 8.5t-8.5 22.5q0 11 8.5 20t21.5 9q12 0 21 -9t9 -20q0 -14 -9 -22.5t-21 -8.5zM59 344q-11 0 -20.5 9t-9.5 22q0 11 9.5 21t20.5 10q14 0 23 -10t9 -21q0 -13 -9 -22t-23 -9zM191 470q-11 0 -19.5 8.5t-8.5 22.5q0 11 8.5 21t19.5 10
q14 0 23 -10t9 -21q0 -14 -9 -22.5t-23 -8.5zM529 306q13 0 21.5 -8.5t8.5 -20.5q0 -13 -8.5 -22t-21.5 -9q-12 0 -21 9t-9 22q0 12 9 20.5t21 8.5zM452 128q13 0 21.5 -8.5t8.5 -22.5q0 -11 -8.5 -20t-21.5 -9q-12 0 -21 9t-9 20q0 14 9 22.5t21 8.5zM510 204
q11 0 20.5 -8.5t9.5 -22.5q0 -11 -9.5 -21t-20.5 -10q-14 0 -23 10t-9 21q0 14 9 22.5t23 8.5zM378 78q11 0 19.5 -8.5t8.5 -22.5q0 -11 -8.5 -21t-19.5 -10q-14 0 -23 10t-9 21q0 14 9 22.5t23 8.5zM452 420q-12 0 -21 8.5t-9 22.5q0 11 9 20t21 9q13 0 21.5 -9t8.5 -20
q0 -14 -8.5 -22.5t-21.5 -8.5zM510 344q-14 0 -23 9t-9 22q0 11 9 21t23 10q11 0 20.5 -10t9.5 -21q0 -13 -9.5 -22t-20.5 -9zM378 470q-14 0 -23 8.5t-9 22.5q0 11 9 21t23 10q11 0 19.5 -10t8.5 -21q0 -14 -8.5 -22.5t-19.5 -8.5z" />
    <glyph glyph-name="pwo.tone4.dot" unicode="&#x106c;" horiz-adv-x="1009" 
d="M909 134q-3 -39 -14.5 -63t-30 -42t-43.5 -28t-53 -10q-29 0 -55 11t-45 30t-30.5 44.5t-11.5 54.5v428h85l-1 -422q3 -24 18.5 -39.5t36.5 -15.5q19 0 33.5 12t19.5 39zM40 306q12 0 21 -8.5t9 -20.5q0 -13 -9 -22t-21 -9q-13 0 -21.5 9t-8.5 22q0 12 8.5 20.5t21.5 8.5
zM289 547q12 0 21 -8.5t9 -22.5q0 -11 -9 -20t-21 -9q-13 0 -21.5 9t-8.5 20q0 14 8.5 22.5t21.5 8.5zM289 59q12 0 21 -8.5t9 -20.5q0 -13 -9 -22t-21 -9q-13 0 -21.5 9t-8.5 22q0 12 8.5 20.5t21.5 8.5zM117 128q12 0 21 -8.5t9 -22.5q0 -11 -9 -20t-21 -9q-13 0 -21.5 9
t-8.5 20q0 14 8.5 22.5t21.5 8.5zM59 204q14 0 23 -8.5t9 -22.5q0 -11 -9 -21t-23 -10q-11 0 -20.5 10t-9.5 21q0 14 9.5 22.5t20.5 8.5zM191 78q14 0 23 -8.5t9 -22.5q0 -11 -9 -21t-23 -10q-11 0 -19.5 10t-8.5 21q0 14 8.5 22.5t19.5 8.5zM117 420q-13 0 -21.5 8.5
t-8.5 22.5q0 11 8.5 20t21.5 9q12 0 21 -9t9 -20q0 -14 -9 -22.5t-21 -8.5zM59 344q-11 0 -20.5 9t-9.5 22q0 11 9.5 21t20.5 10q14 0 23 -10t9 -21q0 -13 -9 -22t-23 -9zM191 470q-11 0 -19.5 8.5t-8.5 22.5q0 11 8.5 21t19.5 10q14 0 23 -10t9 -21q0 -14 -9 -22.5
t-23 -8.5zM529 306q13 0 21.5 -8.5t8.5 -20.5q0 -13 -8.5 -22t-21.5 -9q-12 0 -21 9t-9 22q0 12 9 20.5t21 8.5zM452 128q13 0 21.5 -8.5t8.5 -22.5q0 -11 -8.5 -20t-21.5 -9q-12 0 -21 9t-9 20q0 14 9 22.5t21 8.5zM510 204q11 0 20.5 -8.5t9.5 -22.5q0 -11 -9.5 -21
t-20.5 -10q-14 0 -23 10t-9 21q0 14 9 22.5t23 8.5zM378 78q11 0 19.5 -8.5t8.5 -22.5q0 -11 -8.5 -21t-19.5 -10q-14 0 -23 10t-9 21q0 14 9 22.5t23 8.5zM452 420q-12 0 -21 8.5t-9 22.5q0 11 9 20t21 9q13 0 21.5 -9t8.5 -20q0 -14 -8.5 -22.5t-21.5 -8.5zM510 344
q-14 0 -23 9t-9 22q0 11 9 21t23 10q11 0 20.5 -10t9.5 -21q0 -13 -9.5 -22t-20.5 -9zM378 470q-14 0 -23 8.5t-9 22.5q0 11 9 21t23 10q11 0 19.5 -10t8.5 -21q0 -14 -8.5 -22.5t-19.5 -8.5z" />
    <glyph glyph-name="pwo.tone5.dot" unicode="&#x106d;" horiz-adv-x="971" 
d="M662 123q25 -17 47 -17q27 0 44 20t20 47q-4 22 -11.5 39t-17.5 30.5t-22 26t-24 25.5l-8 9q-30 31 -52 63.5t-22 71.5t30.5 68t90.5 29q14 0 32 -2.5t35.5 -13t30.5 -29.5t16 -60h-71q-9 25 -17 27t-14 3q-19 -1 -28 -5.5t-11 -8.5t-0.5 -10.5t8.5 -15.5
q10 -10 22.5 -26t22.5 -26q18 -19 36 -40.5t33.5 -45t26 -51t12.5 -57.5q0 -35 -12 -65.5t-33.5 -52t-51.5 -34t-65 -12.5q-50 0 -98 29zM40 306q12 0 21 -8.5t9 -20.5q0 -13 -9 -22t-21 -9q-13 0 -21.5 9t-8.5 22q0 12 8.5 20.5t21.5 8.5zM289 547q12 0 21 -8.5t9 -22.5
q0 -11 -9 -20t-21 -9q-13 0 -21.5 9t-8.5 20q0 14 8.5 22.5t21.5 8.5zM289 59q12 0 21 -8.5t9 -20.5q0 -13 -9 -22t-21 -9q-13 0 -21.5 9t-8.5 22q0 12 8.5 20.5t21.5 8.5zM117 128q12 0 21 -8.5t9 -22.5q0 -11 -9 -20t-21 -9q-13 0 -21.5 9t-8.5 20q0 14 8.5 22.5t21.5 8.5
zM59 204q14 0 23 -8.5t9 -22.5q0 -11 -9 -21t-23 -10q-11 0 -20.5 10t-9.5 21q0 14 9.5 22.5t20.5 8.5zM191 78q14 0 23 -8.5t9 -22.5q0 -11 -9 -21t-23 -10q-11 0 -19.5 10t-8.5 21q0 14 8.5 22.5t19.5 8.5zM117 420q-13 0 -21.5 8.5t-8.5 22.5q0 11 8.5 20t21.5 9
q12 0 21 -9t9 -20q0 -14 -9 -22.5t-21 -8.5zM59 344q-11 0 -20.5 9t-9.5 22q0 11 9.5 21t20.5 10q14 0 23 -10t9 -21q0 -13 -9 -22t-23 -9zM191 470q-11 0 -19.5 8.5t-8.5 22.5q0 11 8.5 21t19.5 10q14 0 23 -10t9 -21q0 -14 -9 -22.5t-23 -8.5zM529 306q13 0 21.5 -8.5
t8.5 -20.5q0 -13 -8.5 -22t-21.5 -9q-12 0 -21 9t-9 22q0 12 9 20.5t21 8.5zM452 128q13 0 21.5 -8.5t8.5 -22.5q0 -11 -8.5 -20t-21.5 -9q-12 0 -21 9t-9 20q0 14 9 22.5t21 8.5zM510 204q11 0 20.5 -8.5t9.5 -22.5q0 -11 -9.5 -21t-20.5 -10q-14 0 -23 10t-9 21
q0 14 9 22.5t23 8.5zM378 78q11 0 19.5 -8.5t8.5 -22.5q0 -11 -8.5 -21t-19.5 -10q-14 0 -23 10t-9 21q0 14 9 22.5t23 8.5zM452 420q-12 0 -21 8.5t-9 22.5q0 11 9 20t21 9q13 0 21.5 -9t8.5 -20q0 -14 -8.5 -22.5t-21.5 -8.5zM510 344q-14 0 -23 9t-9 22q0 11 9 21t23 10
q11 0 20.5 -10t9.5 -21q0 -13 -9.5 -22t-20.5 -9zM378 470q-14 0 -23 8.5t-9 22.5q0 11 9 21t23 10q11 0 19.5 -10t8.5 -21q0 -14 -8.5 -22.5t-19.5 -8.5z" />
    <glyph glyph-name="pwo.nna" unicode="&#x106e;" horiz-adv-x="1253" 
d="M812 81q20 -3 31.5 -4t27.5 -1q87 0 141 57q58 58 58 143q0 84 -58 141q-54 57 -141 57q-86 0 -145 -56l-4 -4q4 -12 7.5 -34t6 -44t3.5 -42t1 -32q0 -44 -5.5 -79t-17 -65t-29 -59t-46.5 -68l-73 54q25 34 40 56t25 45.5t15.5 51.5t5.5 66q0 11 -1 30t-3 40.5t-5.5 42
t-8.5 34.5q-7 24 -21 40.5t-34 16.5q-19 0 -33 -12.5t-18 -28.5q39 -64 39 -151q0 -142 -80 -231q-17 -18 -36.5 -32t-51.5 -27q-13 25 -20 37.5t-21 39.5q27 12 40.5 22t27.5 23q57 64 57 168q0 84 -57 141q-56 57 -141 57q-86 0 -145 -56q-58 -57 -58 -142q0 -106 56 -170
q12 -13 25 -21t38 -20q-11 -27 -18 -40.5t-16 -39.5q-56 24 -90 59q-80 86 -80 232q0 124 81 204q83 80 207 80q104 0 178 -58q15 22 46.5 39.5t67.5 17.5q34 0 65 -17t47 -38q33 25 80 40.5t99 15.5q123 0 203 -80q79 -79 79 -204q0 -124 -80 -206q-80 -80 -202 -80
q-40 0 -86 9z" />
    <glyph glyph-name="pwo.ywa" unicode="&#x106f;" horiz-adv-x="1118" 
d="M677 81q20 -3 31.5 -4t27.5 -1q87 0 141 57q58 58 58 143q0 84 -58 141q-54 57 -141 57q-86 0 -145 -56q-21 -23 -34 -45q7 -23 10 -49.5t3 -54.5q0 -125 -79 -204q-80 -80 -203 -80q-124 0 -207 80q-81 79 -81 204q0 146 80 232q18 18 37.5 31t51.5 29q12 -28 18.5 -42
t15.5 -40q-22 -12 -37 -21t-25 -19q-55 -64 -55 -170q0 -87 57 -142q60 -57 145 -57t141 57q58 57 58 142q0 104 -58 168q-12 11 -26.5 21.5t-40.5 22.5l40 78q53 -24 88 -59q9 -10 17 -21t9 -12l13 13q83 80 207 80q123 0 203 -80q79 -79 79 -204q0 -119 -70 -196
q0 -107 -0.5 -210.5t-0.5 -213.5q-2 -48 -69 -64q-33 0 -64.5 0.5t-73.5 0.5v87h124v336q-56 -26 -128 -26q-40 0 -86 9z" />
    <glyph glyph-name="pwo.ghwa" unicode="&#x1070;" horiz-adv-x="1118" 
d="M740 -320h124v331q-56 -26 -128 -26q-124 0 -207 80l-20 20q-1 -1 -7 -7.5t-11 -11.5q-80 -80 -203 -80q-124 0 -207 80q-81 79 -81 204q1 35 10.5 53.5t24 27.5t29 9.5t24.5 0.5q8 0 10.5 -0.5t5.5 1.5q23 1 37.5 16.5t14.5 36.5q0 22 -15.5 36.5t-36.5 14.5t-47 -26
l-50 80q24 20 46.5 28.5t48.5 8.5q29 0 55 -11t44.5 -30t30 -44.5t11.5 -54.5t-11.5 -55t-30 -45t-44.5 -30.5t-55 -11.5q-4 0 -10.5 0.5t-5.5 0.5v-6q0 -87 57 -142q60 -57 145 -57t141 57q58 57 58 142q0 104 -58 168q-12 11 -26.5 22t-40.5 23l41 77q52 -24 87 -59
q80 -91 80 -231q0 -52 -14 -97q5 -10 14.5 -23t20.5 -23q29 -27 65.5 -42t79.5 -15q85 0 141 57q58 57 58 142t-58 143q-56 57 -141 57q-28 0 -59 -5l-27 80q29 8 47.5 9.5t38.5 1.5q122 0 202 -81q80 -80 80 -205q0 -118 -70 -195q0 -105 -0.5 -207t-0.5 -211
q-2 -48 -69 -64q-33 0 -64.5 0.5t-73.5 0.5v87z" />
    <glyph glyph-name="geba.i.vow.dot" unicode="&#x1071;" horiz-adv-x="659" 
d="M60 808q0 21 8.5 40.5t23 33.5t34 22.5t41.5 8.5q21 0 40.5 -8.5t33.5 -22.5t22.5 -33.5t8.5 -40.5q0 -22 -8.5 -41.5t-22.5 -34t-33.5 -23t-40.5 -8.5q-22 0 -41.5 8.5t-34 23t-23 34t-8.5 41.5zM128 808q0 -16 11.5 -27.5t27.5 -11.5t28.5 11.5t12.5 27.5t-12.5 28.5
t-28.5 12.5t-27.5 -12.5t-11.5 -28.5zM299 808q0 21 8.5 40.5t22.5 33.5t34 22.5t42 8.5q21 0 40.5 -8.5t33 -22.5t22 -33.5t8.5 -40.5q0 -22 -8 -41.5t-22 -34t-33.5 -23t-40.5 -8.5q-22 0 -42 8.5t-34 23t-22.5 34t-8.5 41.5zM367 808q0 -16 11.5 -27.5t27.5 -11.5
t28.5 11.5t12.5 27.5t-12.5 28.5t-28.5 12.5t-27.5 -12.5t-11.5 -28.5zM40 306q12 0 21 -8.5t9 -20.5q0 -13 -9 -22t-21 -9q-13 0 -21.5 9t-8.5 22q0 12 8.5 20.5t21.5 8.5zM289 547q12 0 21 -8.5t9 -22.5q0 -11 -9 -20t-21 -9q-13 0 -21.5 9t-8.5 20q0 14 8.5 22.5
t21.5 8.5zM289 59q12 0 21 -8.5t9 -20.5q0 -13 -9 -22t-21 -9q-13 0 -21.5 9t-8.5 22q0 12 8.5 20.5t21.5 8.5zM117 128q12 0 21 -8.5t9 -22.5q0 -11 -9 -20t-21 -9q-13 0 -21.5 9t-8.5 20q0 14 8.5 22.5t21.5 8.5zM59 204q14 0 23 -8.5t9 -22.5q0 -11 -9 -21t-23 -10
q-11 0 -20.5 10t-9.5 21q0 14 9.5 22.5t20.5 8.5zM191 78q14 0 23 -8.5t9 -22.5q0 -11 -9 -21t-23 -10q-11 0 -19.5 10t-8.5 21q0 14 8.5 22.5t19.5 8.5zM117 420q-13 0 -21.5 8.5t-8.5 22.5q0 11 8.5 20t21.5 9q12 0 21 -9t9 -20q0 -14 -9 -22.5t-21 -8.5zM59 344
q-11 0 -20.5 9t-9.5 22q0 11 9.5 21t20.5 10q14 0 23 -10t9 -21q0 -13 -9 -22t-23 -9zM191 470q-11 0 -19.5 8.5t-8.5 22.5q0 11 8.5 21t19.5 10q14 0 23 -10t9 -21q0 -14 -9 -22.5t-23 -8.5zM529 306q13 0 21.5 -8.5t8.5 -20.5q0 -13 -8.5 -22t-21.5 -9q-12 0 -21 9t-9 22
q0 12 9 20.5t21 8.5zM452 128q13 0 21.5 -8.5t8.5 -22.5q0 -11 -8.5 -20t-21.5 -9q-12 0 -21 9t-9 20q0 14 9 22.5t21 8.5zM510 204q11 0 20.5 -8.5t9.5 -22.5q0 -11 -9.5 -21t-20.5 -10q-14 0 -23 10t-9 21q0 14 9 22.5t23 8.5zM378 78q11 0 19.5 -8.5t8.5 -22.5
q0 -11 -8.5 -21t-19.5 -10q-14 0 -23 10t-9 21q0 14 9 22.5t23 8.5zM452 420q-12 0 -21 8.5t-9 22.5q0 11 9 20t21 9q13 0 21.5 -9t8.5 -20q0 -14 -8.5 -22.5t-21.5 -8.5zM510 344q-14 0 -23 9t-9 22q0 11 9 21t23 10q11 0 20.5 -10t9.5 -21q0 -13 -9.5 -22t-20.5 -9z
M378 470q-14 0 -23 8.5t-9 22.5q0 11 9 21t23 10q11 0 19.5 -10t8.5 -21q0 -14 -8.5 -22.5t-19.5 -8.5z" />
    <glyph glyph-name="kayah.oe.vow.dot" unicode="&#x1072;" horiz-adv-x="659" 
d="M476 695q-13 -17 -20 -26.5t-16 -17.5q-60 -63 -147 -63q-90 0 -150 62q-60 59 -60 151q0 89 61 149q62 62 151 62q88 0 148 -62q26 -26 44 -65l-74 -41q-9 22 -15.5 30.5t-14.5 17.5q-35 36 -90 36q-58 0 -92.5 -35t-34.5 -92q0 -55 34.5 -89.5t89.5 -34.5q53 0 90 34
q10 9 21 29zM40 306q12 0 21 -8.5t9 -20.5q0 -13 -9 -22t-21 -9q-13 0 -21.5 9t-8.5 22q0 12 8.5 20.5t21.5 8.5zM289 547q12 0 21 -8.5t9 -22.5q0 -11 -9 -20t-21 -9q-13 0 -21.5 9t-8.5 20q0 14 8.5 22.5t21.5 8.5zM289 59q12 0 21 -8.5t9 -20.5q0 -13 -9 -22t-21 -9
q-13 0 -21.5 9t-8.5 22q0 12 8.5 20.5t21.5 8.5zM117 128q12 0 21 -8.5t9 -22.5q0 -11 -9 -20t-21 -9q-13 0 -21.5 9t-8.5 20q0 14 8.5 22.5t21.5 8.5zM59 204q14 0 23 -8.5t9 -22.5q0 -11 -9 -21t-23 -10q-11 0 -20.5 10t-9.5 21q0 14 9.5 22.5t20.5 8.5zM191 78
q14 0 23 -8.5t9 -22.5q0 -11 -9 -21t-23 -10q-11 0 -19.5 10t-8.5 21q0 14 8.5 22.5t19.5 8.5zM117 420q-13 0 -21.5 8.5t-8.5 22.5q0 11 8.5 20t21.5 9q12 0 21 -9t9 -20q0 -14 -9 -22.5t-21 -8.5zM59 344q-11 0 -20.5 9t-9.5 22q0 11 9.5 21t20.5 10q14 0 23 -10t9 -21
q0 -13 -9 -22t-23 -9zM191 470q-11 0 -19.5 8.5t-8.5 22.5q0 11 8.5 21t19.5 10q14 0 23 -10t9 -21q0 -14 -9 -22.5t-23 -8.5zM529 306q13 0 21.5 -8.5t8.5 -20.5q0 -13 -8.5 -22t-21.5 -9q-12 0 -21 9t-9 22q0 12 9 20.5t21 8.5zM452 128q13 0 21.5 -8.5t8.5 -22.5
q0 -11 -8.5 -20t-21.5 -9q-12 0 -21 9t-9 20q0 14 9 22.5t21 8.5zM510 204q11 0 20.5 -8.5t9.5 -22.5q0 -11 -9.5 -21t-20.5 -10q-14 0 -23 10t-9 21q0 14 9 22.5t23 8.5zM378 78q11 0 19.5 -8.5t8.5 -22.5q0 -11 -8.5 -21t-19.5 -10q-14 0 -23 10t-9 21q0 14 9 22.5t23 8.5
zM452 420q-12 0 -21 8.5t-9 22.5q0 11 9 20t21 9q13 0 21.5 -9t8.5 -20q0 -14 -8.5 -22.5t-21.5 -8.5zM510 344q-14 0 -23 9t-9 22q0 11 9 21t23 10q11 0 20.5 -10t9.5 -21q0 -13 -9.5 -22t-20.5 -9zM378 470q-14 0 -23 8.5t-9 22.5q0 11 9 21t23 10q11 0 19.5 -10t8.5 -21
q0 -14 -8.5 -22.5t-19.5 -8.5z" />
    <glyph glyph-name="kayah.u.vow.dot" unicode="&#x1073;" horiz-adv-x="659" 
d="M40 306q12 0 21 -8.5t9 -20.5q0 -13 -9 -22t-21 -9q-13 0 -21.5 9t-8.5 22q0 12 8.5 20.5t21.5 8.5zM289 547q12 0 21 -8.5t9 -22.5q0 -11 -9 -20t-21 -9q-13 0 -21.5 9t-8.5 20q0 14 8.5 22.5t21.5 8.5zM289 59q12 0 21 -8.5t9 -20.5q0 -13 -9 -22t-21 -9q-13 0 -21.5 9
t-8.5 22q0 12 8.5 20.5t21.5 8.5zM117 128q12 0 21 -8.5t9 -22.5q0 -11 -9 -20t-21 -9q-13 0 -21.5 9t-8.5 20q0 14 8.5 22.5t21.5 8.5zM59 204q14 0 23 -8.5t9 -22.5q0 -11 -9 -21t-23 -10q-11 0 -20.5 10t-9.5 21q0 14 9.5 22.5t20.5 8.5zM191 78q14 0 23 -8.5t9 -22.5
q0 -11 -9 -21t-23 -10q-11 0 -19.5 10t-8.5 21q0 14 8.5 22.5t19.5 8.5zM117 420q-13 0 -21.5 8.5t-8.5 22.5q0 11 8.5 20t21.5 9q12 0 21 -9t9 -20q0 -14 -9 -22.5t-21 -8.5zM59 344q-11 0 -20.5 9t-9.5 22q0 11 9.5 21t20.5 10q14 0 23 -10t9 -21q0 -13 -9 -22t-23 -9z
M191 470q-11 0 -19.5 8.5t-8.5 22.5q0 11 8.5 21t19.5 10q14 0 23 -10t9 -21q0 -14 -9 -22.5t-23 -8.5zM529 306q13 0 21.5 -8.5t8.5 -20.5q0 -13 -8.5 -22t-21.5 -9q-12 0 -21 9t-9 22q0 12 9 20.5t21 8.5zM452 128q13 0 21.5 -8.5t8.5 -22.5q0 -11 -8.5 -20t-21.5 -9
q-12 0 -21 9t-9 20q0 14 9 22.5t21 8.5zM510 204q11 0 20.5 -8.5t9.5 -22.5q0 -11 -9.5 -21t-20.5 -10q-14 0 -23 10t-9 21q0 14 9 22.5t23 8.5zM378 78q11 0 19.5 -8.5t8.5 -22.5q0 -11 -8.5 -21t-19.5 -10q-14 0 -23 10t-9 21q0 14 9 22.5t23 8.5zM452 420q-12 0 -21 8.5
t-9 22.5q0 11 9 20t21 9q13 0 21.5 -9t8.5 -20q0 -14 -8.5 -22.5t-21.5 -8.5zM510 344q-14 0 -23 9t-9 22q0 11 9 21t23 10q11 0 20.5 -10t9.5 -21q0 -13 -9.5 -22t-20.5 -9zM378 470q-14 0 -23 8.5t-9 22.5q0 11 9 21t23 10q11 0 19.5 -10t8.5 -21q0 -14 -8.5 -22.5
t-19.5 -8.5zM-33 703l329 268q46 -40 85.5 -71.5t79 -62.5t79 -62.5t85.5 -70.5l-13 -65l-316 229l-317 -229z" />
    <glyph glyph-name="kayah.ee.vow.dot" unicode="&#x1074;" horiz-adv-x="659" 
d="M385 1013q24 -13 36.5 -23t23.5 -21q58 -61 58 -149q0 -86 -61 -150q-62 -63 -148 -63q-88 0 -150 62q-60 60 -60 151q0 88 61 149q14 14 28 23t40 22l25 -75q-14 -9 -20.5 -15t-14.5 -12q-35 -35 -35 -92q0 -27 9.5 -49.5t25.5 -39.5t38.5 -26t49.5 -9q56 0 90.5 33.5
t36.5 90.5q0 54 -34 91q-8 7 -13 11.5t-22 13.5zM40 306q12 0 21 -8.5t9 -20.5q0 -13 -9 -22t-21 -9q-13 0 -21.5 9t-8.5 22q0 12 8.5 20.5t21.5 8.5zM289 547q12 0 21 -8.5t9 -22.5q0 -11 -9 -20t-21 -9q-13 0 -21.5 9t-8.5 20q0 14 8.5 22.5t21.5 8.5zM289 59
q12 0 21 -8.5t9 -20.5q0 -13 -9 -22t-21 -9q-13 0 -21.5 9t-8.5 22q0 12 8.5 20.5t21.5 8.5zM117 128q12 0 21 -8.5t9 -22.5q0 -11 -9 -20t-21 -9q-13 0 -21.5 9t-8.5 20q0 14 8.5 22.5t21.5 8.5zM59 204q14 0 23 -8.5t9 -22.5q0 -11 -9 -21t-23 -10q-11 0 -20.5 10t-9.5 21
q0 14 9.5 22.5t20.5 8.5zM191 78q14 0 23 -8.5t9 -22.5q0 -11 -9 -21t-23 -10q-11 0 -19.5 10t-8.5 21q0 14 8.5 22.5t19.5 8.5zM117 420q-13 0 -21.5 8.5t-8.5 22.5q0 11 8.5 20t21.5 9q12 0 21 -9t9 -20q0 -14 -9 -22.5t-21 -8.5zM59 344q-11 0 -20.5 9t-9.5 22
q0 11 9.5 21t20.5 10q14 0 23 -10t9 -21q0 -13 -9 -22t-23 -9zM191 470q-11 0 -19.5 8.5t-8.5 22.5q0 11 8.5 21t19.5 10q14 0 23 -10t9 -21q0 -14 -9 -22.5t-23 -8.5zM529 306q13 0 21.5 -8.5t8.5 -20.5q0 -13 -8.5 -22t-21.5 -9q-12 0 -21 9t-9 22q0 12 9 20.5t21 8.5z
M452 128q13 0 21.5 -8.5t8.5 -22.5q0 -11 -8.5 -20t-21.5 -9q-12 0 -21 9t-9 20q0 14 9 22.5t21 8.5zM510 204q11 0 20.5 -8.5t9.5 -22.5q0 -11 -9.5 -21t-20.5 -10q-14 0 -23 10t-9 21q0 14 9 22.5t23 8.5zM378 78q11 0 19.5 -8.5t8.5 -22.5q0 -11 -8.5 -21t-19.5 -10
q-14 0 -23 10t-9 21q0 14 9 22.5t23 8.5zM452 420q-12 0 -21 8.5t-9 22.5q0 11 9 20t21 9q13 0 21.5 -9t8.5 -20q0 -14 -8.5 -22.5t-21.5 -8.5zM510 344q-14 0 -23 9t-9 22q0 11 9 21t23 10q11 0 20.5 -10t9.5 -21q0 -13 -9.5 -22t-20.5 -9zM378 470q-14 0 -23 8.5t-9 22.5
q0 11 9 21t23 10q11 0 19.5 -10t8.5 -21q0 -14 -8.5 -22.5t-19.5 -8.5z" />
    <glyph glyph-name="shan.ka" unicode="&#x1075;" horiz-adv-x="610" 
d="M310 67q12 4 18.5 7t18.5 12q7 5 11.5 9.5t10.5 9.5q51 55 51 146q0 71 -51 121q-51 51 -123 51q-80 0 -129 -50q-27 -25 -38 -55t-11 -67v-7q1 0 5.5 0.5t6.5 0.5q26 0 49 -9.5t40.5 -26t27 -38.5t9.5 -47t-9.5 -47t-27 -38.5t-40.5 -26t-49 -9.5q-46 0 -84 34
q-9 18 -7 32t10.5 21t21 9t22.5 -3q18 -22 39 -22q19 0 33 17q14 15 14 35q0 19 -13 31.5t-33 13.5q-4 2 -5 2t-8 -1q-9 0 -22 1t-25.5 8t-21.5 22.5t-9 47.5q-2 106 72 176q73 69 182 68q55 0 98.5 -16t79.5 -52q70 -69 69 -176q-1 -64 -17 -112t-53 -88q-13 -15 -34 -28.5
t-44 -22.5q-10 -2 -20 2t-17.5 12.5t-8 22t10.5 30.5z" />
    <glyph glyph-name="shan.kha" unicode="&#x1076;" horiz-adv-x="609" 
d="M118 122q54 -47 129 -47q53 2 91 22q-3 10 -15 25q-5 8 -10 14l-10 12q-51 51 -122 51q-58 0 -97 -27q6 -14 13.5 -26t20.5 -24zM247 493q107 1 178 -70q70 -70 68 -178q0 -110 -69 -179q-68 -70 -177 -72q-111 0 -181 71q-13 13 -25 27t-20 30q-9 18 -17 35t-8 33
q0 35 41.5 56.5t143.5 20.5q107 -2 176 -68q12 -11 20.5 -23.5t16.5 -26.5q11 17 18.5 43t7.5 53q0 72 -49 124q-48 46 -116 49h3q-2 -19 -11.5 -41t-25.5 -38q-17 -17 -38.5 -26.5t-46.5 -9.5q-63 0 -98 51q-17 25 -20.5 51.5t0.5 49.5q3 10 13.5 14t22 3.5t21 -7
t12.5 -17.5q-3 -19 2 -30t12 -20q19 -20 36 -20t33 15q13 14 13 35t-22 40q22 10 39 16q9 3 20.5 5.5t26.5 3.5z" />
    <glyph glyph-name="shan.ga" unicode="&#x1077;" horiz-adv-x="610" 
d="M420 249q0 18 -3 32l-11 -12q-25 -30 -35 -62.5t-4 -66.5l3 -17q3 -12 5 -13q45 52 45 139zM-10 249q-2 106 73 176q72 68 182 67q56 0 100 -16t80 -51q70 -69 69 -176q-2 -63 -18.5 -111t-51.5 -87q-15 -16 -32.5 -28t-44.5 -23q-23 35 -32 55.5t-16 34.5t-8 23.5
t-2 17.5q-3 15 -3 31q0 43 15.5 80t44.5 72q7 8 18.5 20.5t19.5 19.5l-2 2q-1 1 -2 1.5t-3 2.5q-3 5 -5 7l-3 3q-51 50 -124 50q-79 0 -130 -49q-26 -25 -37.5 -55t-11.5 -67v-6q2 0 6 0.5t6 0.5q27 0 50 -9.5t40.5 -26t27 -38.5t9.5 -47q0 -24 -9.5 -46t-27 -38.5
t-40.5 -26t-50 -9.5q-46 0 -84 34q-8 12 -7.5 24t7.5 21t19.5 13t28.5 1q18 -23 38 -23q19 0 33 17t14 35q0 19 -12.5 31.5t-32.5 13.5q-5 2 -6 2t-7 -1q-9 0 -22.5 1t-26 8t-21.5 22.5t-9 46.5z" />
    <glyph glyph-name="shan.ca" unicode="&#x1078;" horiz-adv-x="1015" 
d="M634 418q-74 0 -124 -49q-50 -53 -50 -125q0 -76 50 -126t124 -49q80 0 129 47q49 50 48 128q0 74 -48 126q-49 48 -129 48zM294 74q18 2 28 -6.5t13 -21.5t-1.5 -25.5t-17.5 -19.5q-20 -5 -38 -6t-37 -1q-109 0 -177 70q-70 70 -70 180t70 179q70 70 177 70
q56 -1 101 -18t82 -52q6 -6 12 -14q4 -6 3 -2q1 2 6 5.5t11 10.5q71 70 178 70q111 -2 181 -70q73 -69 73 -179t-71 -180t-183 -70q-108 0 -178 70q-69 69 -69 180q0 56 13 83q-8 20 -30 43q-50 48 -129 48q-74 0 -125 -49q-25 -26 -36.5 -57t-10.5 -68q0 -75 47 -126
q49 -51 125 -49q14 0 25 1t28 4z" />
    <glyph glyph-name="shan.za" unicode="&#x1079;" horiz-adv-x="1015" 
d="M117 118q24 -22 54 -34q14 -6 28 -9t25 -5q0 1 -9 12q-5 6 -8.5 11t-8.5 9q-44 45 -107 49q9 -14 26 -33zM634 418q-74 0 -124 -50q-50 -51 -50 -123q0 -77 50 -127q50 -49 124 -48q80 0 128 46q49 50 48 129q0 74 -48 124q-48 49 -128 49zM321 2l-21 -4q-12 -2 -22.5 -2
t-21.5 -1h-13q-109 0 -177 70q-70 70 -70 180q0 109 70 178t177 69q55 0 100 -17t82 -52l14 -19q5 6 9 10l9 9q71 69 177 69q110 -1 180 -69q73 -69 73 -178q0 -110 -71 -181q-71 -69 -182 -69q-107 0 -177 70q-69 69 -69 180q0 52 13 81q-5 10 -14 21t-17 22
q-48 49 -127 49q-75 0 -126 -50q-25 -25 -35.5 -56t-10.5 -67v-16h5q108 0 177 -72q30 -30 45 -65q19 -38 23 -90z" />
    <glyph glyph-name="shan.nya" unicode="&#x107a;" horiz-adv-x="1014" 
d="M531 467q31 13 59 18.5t58 5.5q107 0 179 -70q71 -71 71 -181t-72 -182q-36 -37 -80.5 -53.5t-97.5 -16.5q-90 0 -156 42v-331q0 -19 7 -24t25 -3h51q17 1 27.5 -7t11.5 -20.5t-1 -25t-38 -18.5h-84q-72 0 -72 65q0 60 -1 125t-1 109q0 74 0.5 127.5t2.5 94.5
q1 28 1.5 50.5t0.5 39.5q0 40 -4 66t-12 52q-5 8 -12.5 16t-18.5 19q-25 26 -55 38.5t-69 12.5t-70.5 -11.5t-59.5 -35.5q-51 -51 -51 -129q4 -38 14.5 -70.5t35.5 -58.5q26 -26 58 -37t73 -11q18 0 33.5 3t37.5 12q13 3 22 -2t14.5 -15t5 -23t-7.5 -25l-7.5 -4t-21 -8.5
t-33 -8.5t-43.5 -4q-115 0 -184 69q-72 72 -72 183t72 182q74 71 184 69q108 0 180 -70l15 -18q28 -34 36 -71.5t10 -70.5t0.5 -55.5t0.5 -39.5q1 -17 5.5 -29t19.5 -26q53 -48 130 -48q75 0 125 50q52 52 50 127q0 75 -50 125q-51 51 -125 51q-22 0 -40 -3q-4 -2 -11 -4.5
t-14 -4.5q-8 -4 -17 -7q-10 -2 -21.5 2.5t-19.5 14t-8 23.5t14 30z" />
    <glyph glyph-name="shan.da" unicode="&#x107b;" horiz-adv-x="1015" 
d="M765 118q9 9 16 20t9 14q-26 -2 -55 -14t-50 -36l-16 -21q-6 -6 -8.5 -9t-1.5 -2q62 4 106 48zM246 421q-40 0 -72.5 -11.5t-56.5 -37.5q-51 -51 -48 -126q1 -39 11 -71t36 -58q25 -26 56.5 -37t73.5 -10q75 0 124 48q26 28 39 58.5t13 69.5q1 38 -13 69t-39 56t-55 37.5
t-69 12.5zM581 -3l-20 4q5 56 23 90q11 19 22 35.5t24 31.5q70 73 178 73h5q1 7 1.5 10t0.5 5q0 73 -50 125q-49 50 -124 50q-39 0 -71 -11.5t-58 -37.5q-20 -21 -30 -42q12 -39 12 -84q0 -110 -69 -181q-70 -71 -179 -73q-112 0 -183 72q-72 70 -72 182t73 180
q72 71 182 71q55 -1 99.5 -18.5t80.5 -52.5l15 -18q3 4 7 8.5t9 9.5q70 71 184 71q109 -2 178 -71q71 -70 71 -180t-72 -181q-73 -73 -177 -73h-14q-13 0 -23.5 1.5t-22.5 3.5z" />
    <glyph glyph-name="shan.na" unicode="&#x107c;" horiz-adv-x="1138" 
d="M476 233q-2 -51 -23.5 -95.5t-56 -77.5t-79.5 -52t-95 -19q-143 0 -213 124q-11 29 -5 57q92 110 303 130q71 1 90 0q-5 22 -19 43t-36.5 38t-52.5 27.5t-67 10.5q-82 0 -138 -66q-22 -38 -45 -38q-17 0 -30.5 12.5t-13.5 29.5q0 9 6 17q-1 1 -1 4l1 1q2 2 7.5 9.5
t14.5 18.5q78 91 199 91q46 0 88 -15.5t75.5 -42.5t56.5 -63t31 -77h18h22q8 41 31 77t56.5 63t75.5 42.5t88 15.5q121 0 199 -91q9 -11 14.5 -18.5t7.5 -9.5l1 -1q0 -3 -1 -4q6 -8 6 -17q0 -17 -13.5 -29.5t-30.5 -12.5q-23 0 -45 38q-56 66 -138 66q-37 0 -67 -10.5
t-52.5 -27.5t-36.5 -38t-19 -43q19 1 90 0q211 -20 303 -130q6 -28 -5 -57q-70 -124 -213 -124q-50 0 -95 19t-79.5 52t-56 77.5t-23.5 95.5h-34zM580 233q29 -152 184 -165q20 0 42 5t42.5 15.5t35.5 25.5t16.5 20t1.5 18q-32 31 -91.5 55t-162.5 29q-34 0 -68 -3zM406 233
q-34 3 -68 3q-103 -5 -162.5 -29t-91.5 -55q0 -13 1.5 -18t16.5 -20t35.5 -25.5t42.5 -15.5t42 -5q155 13 184 165z" />
    <glyph glyph-name="shan.pha" unicode="&#x107d;" horiz-adv-x="1042" 
d="M838 161q0 19 -59 37q-54 16 -103 16q-91 0 -159 -51q39 -55 67 -71q32 -18 94 -21q119 -6 160 90zM919 329q1 -16 -6.5 -26t-19 -14.5t-24 -1t-22.5 15.5q-43 114 -169 114q-37 0 -68 -12t-58 -38q-11 -12 -20.5 -26.5t-14.5 -34.5q-19 -46 -19 -81q63 65 186 65
q57 0 109 -12q33 -7 82 -42q36 -26 36 -69q0 -40 -30 -78q-68 -95 -203 -95q-141 0 -217 113l-9 -12q-76 -101 -205 -101q-113 0 -185 69q-65 67 -65 180q0 41 6.5 75.5t24.5 63.5q27 45 74 65q5 1 9 1.5t7 0.5q45 0 68 -63q12 -11 22 -11q23 0 23 26q0 20 -24 44
q27 37 51 37q18 0 31 -22q19 -31 19 -63q0 -42 -28 -70q-29 -29 -77 -28h-3q-14 0 -39 13q-30 18 -36 46q-2 6 -5 6q-9 0 -28 -29q-13 -20 -19 -43t-6 -49q0 -77 51 -125q54 -50 129 -50q73 0 126 50q48 49 48 125q0 79 40 136q75 113 217 113q79 0 145 -40q72 -44 96 -123z
" />
    <glyph glyph-name="shan.fa" unicode="&#x107e;" horiz-adv-x="1063" 
d="M845 166q0 18 -58 38q-55 17 -105 17q-91 0 -160 -53q40 -57 68 -74q32 -18 94 -21q121 -6 161 93zM466 105l-10 -12q-74 -102 -206 -102q-117 0 -185 70q-72 71 -72 185q0 82 37 143q28 45 74 67q5 1 9 1.5t6 0.5q47 0 70 -65q11 -11 23 -11q23 0 23 26q0 21 -24 46
q25 38 51 38q17 0 31 -23q10 -17 14.5 -32.5t4.5 -32.5q0 -42 -29 -72t-76 -28h-3q-16 0 -40 13q-32 19 -37 48q-1 5 -5 5q-10 0 -28 -31q-25 -40 -25 -93q0 -79 51 -128q27 -26 59.5 -39t70.5 -13q76 0 126 51t50 129q0 82 40 140q77 116 217 116q80 0 148 -41
q74 -46 95 -127l-72 -27q-42 118 -171 118q-37 0 -68 -12.5t-57 -39.5q-11 -11 -20.5 -26.5t-17.5 -35.5q-17 -49 -17 -84q64 68 187 68q55 0 111 -14q34 -7 82 -43q36 -26 36 -71q0 -10 -5 -24.5t-10 -26.5q-3 -7 -7 -14.5t-8 -14.5q-14 -19 -30 -35t-35.5 -28.5t-43 -21
t-50.5 -11.5v-234q0 -25 -1 -43t-4 -30q-9 -43 -40 -66q-7 -5 -16 -8t-20.5 -5t-23 -3t-22.5 -1q-17 0 -31 0.5t-25 0.5q-36 -5 -64 16q-37 26 -37 74q0 29 19 53q15 21 33.5 30.5t41.5 9.5q12 0 25 -4q-12 2 -19 2q-39 0 -52 -34q-2 -7 -3 -12.5t-1 -10.5q0 -31 33 -39
q5 -4 11.5 -4.5t12.5 -0.5q2 0 6.5 -0.5t10.5 -1t11.5 -1t9.5 -0.5q22 -1 35.5 3.5t20 14t9.5 24.5t5 36v234q-61 7 -108.5 36.5t-80.5 77.5z" />
    <glyph glyph-name="shan.ba" unicode="&#x107f;" horiz-adv-x="591" 
d="M116 374q-50 -54 -49 -141q0 -29 8.5 -55.5t22.5 -45.5q2 2 10.5 8t17.5 13q25 24 37 54t12 67q0 65 -43 112q-8 -5 -16 -12zM315 409q-15 13 -18 26.5t2.5 23.5t18.5 15.5t28 2.5q14 -6 25.5 -12t21.5 -12q8 -6 16.5 -12t16.5 -14q37 -37 54 -84.5t16 -109.5
q0 -105 -73 -171q-71 -68 -181 -68q-109 0 -179 68q-71 67 -71 171q0 61 17 108t55 86q13 15 31.5 25.5t37.5 20.5l5 5q14 -9 22.5 -16t18.5 -17q72 -69 73 -171q0 -107 -88 -187v2l-5 -5q8 -2 16.5 -5.5t19.5 -7.5q12 -2 24 -3t23 -1q77 0 128 45q50 46 50 121
q0 86 -49 143q-11 10 -25 18t-31 15z" />
    <glyph glyph-name="shan.tha" unicode="&#x1080;" horiz-adv-x="1029" 
d="M117 116q50 -49 130 -47q52 0 91 21q-5 15 -14 27.5t-22 24.5q-51 51 -122 51q-29 0 -53.5 -7t-43.5 -19q6 -11 15 -25t19 -26zM12 346q23 49 54 79q71 71 181 71q54 -1 98 -18t79 -53q70 -70 68 -180q0 -50 -12 -89q10 -21 30 -40q52 -48 128 -47q76 0 124 49
q49 51 49 127q-2 75 -49 125q-50 50 -124 50q-21 0 -38 -2.5t-30 -7.5q-13 -6 -28 -0.5t-22.5 17.5t-4.5 26.5t24 25.5q58 17 99 17q107 -2 177 -71q70 -70 70 -180t-71 -181q-70 -71 -176 -73q-113 0 -182 72l-9 9q-9 6 -9 9q-2 -3 -6 -8.5t-9 -8.5q-69 -71 -176 -73
q-109 0 -182 72q-14 13 -24 26t-21 32q-9 17 -17 34.5t-8 33.5q0 18 9.5 33t32.5 25q22 11 56 16t87 5q106 0 177 -70q5 -5 10 -11.5t11 -14.5l15 -24q28 42 28 97q0 74 -51 125q-25 25 -54.5 37.5t-68.5 12.5t-70.5 -11.5t-58.5 -37.5q-5 -6 -12 -15.5t-12 -18.5l-12 -22
q-7 -9 -19 -12.5t-23 -1t-19.5 13t-8.5 31.5z" />
    <glyph glyph-name="shan.ha" unicode="&#x1081;" horiz-adv-x="626" 
d="M271 149q-4 22 -17.5 32t-32.5 10q-4 0 -7 -0.5t-6 -1.5q-37 -10 -37 -54q-2 -6 1.5 -16.5t10.5 -20t17 -16t21 -4.5q4 0 20 5q8 1 14 7t10.5 13.5t6 15t1.5 14.5q0 4 -2 16zM179 -243v243l-40 13l-33 18q-16 9 -28.5 21t-22.5 28q-52 72 -52 160q0 55 18.5 98.5
t54.5 84.5q73 83 178 83q100 0 176 -81q37 -40 56.5 -84t19.5 -101v-190q-3 -16 -14 -24.5t-24 -9t-25.5 7.5t-19.5 26v190q0 36 -11 62.5t-33 52.5q-52 61 -125 61q-66 0 -126 -62q-11 -15 -19 -28.5t-13 -27t-7.5 -28.5t-2.5 -33q0 -17 3 -33.5t10 -30.5q6 16 15 31.5
t20.5 29t25 23.5t27.5 14q8 1 16 3.5t19 2.5q21 0 40.5 -7.5t35.5 -21.5t28.5 -33t18.5 -42q3 -8 3.5 -17.5t0.5 -19.5q0 -25 -7 -47.5t-19 -41t-29 -31t-37 -16.5v-8v-235q0 -24 -2 -42t-6 -32q-14 -45 -44 -68q-14 -10 -23.5 -13.5t-15.5 -3.5q-10 1 -18 1h-18
q-19 -2 -36 1.5t-31 14.5q-19 14 -28 33t-9 42q0 30 19 56q30 39 77 39q7 0 13.5 -1t12.5 -3q-12 3 -19 3q-42 0 -54 -35q-4 -12 -4 -23q0 -33 34 -41q5 -3 12 -4t13 -1v-3q4 -1 12 4t16.5 15t14.5 25.5t6 35.5z" />
    <glyph glyph-name="shan.wa.med.dot" unicode="&#x1082;" horiz-adv-x="592" 
d="M339 430q-13 0 -21 8t-8 19q0 10 8.5 19t20.5 9q10 0 18 -9t8 -19q0 -13 -8 -20t-18 -7zM458 316q-14 0 -21 8.5t-7 19.5q0 10 8 19.5t20 9.5q9 0 18 -10q9 -9 9 -19q0 -11 -8.5 -19.5t-18.5 -8.5zM406 385q-11 0 -18.5 7.5t-7.5 20.5q0 10 7.5 18t18.5 8t19 -7.5
t8 -18.5q0 -13 -8 -20.5t-19 -7.5zM339 78q10 0 18 -7.5t8 -20.5q0 -10 -7.5 -19.5t-18.5 -9.5q-13 0 -21 9t-8 20q0 13 8 20.5t21 7.5zM458 191q10 0 18.5 -7.5t8.5 -20.5q0 -11 -9 -20t-18 -9q-14 0 -21 9t-7 20q0 28 28 28zM406 122q11 0 19 -8t8 -19q0 -10 -7.5 -18
t-19.5 -8q-11 0 -18.5 8t-7.5 18q0 13 7.5 20t18.5 7zM475 282q11 0 19 -7t8 -18t-8 -20t-19 -9t-18.5 8.5t-7.5 20.5q0 11 7.5 18t18.5 7zM171 430q-10 0 -17.5 8t-7.5 19q0 10 7 19t18 9q13 0 21 -9t8 -19q0 -13 -8 -20t-21 -7zM52 316q-10 0 -18 8.5t-8 19.5
q0 10 8.5 19.5t17.5 9.5q13 0 21.5 -9t8.5 -20t-8.5 -19.5t-21.5 -8.5zM104 385q-26 0 -26 28q0 10 7 18t19 8q10 0 18.5 -7.5t8.5 -18.5q0 -13 -8.5 -20.5t-18.5 -7.5zM171 78q13 0 21 -7.5t8 -20.5q0 -10 -8 -19.5t-21 -9.5q-10 0 -17.5 9t-7.5 20q0 13 7.5 20.5t17.5 7.5
zM52 191q13 0 21.5 -7.5t8.5 -20.5q0 -11 -8.5 -20t-21.5 -9q-10 0 -18 9q-8 10 -8 20q0 13 8 20.5t18 7.5zM104 122q10 0 18.5 -8t8.5 -19q0 -10 -8 -18t-19 -8q-12 0 -19 8t-7 18q0 27 26 27zM260 60q11 0 18.5 -7.5t7.5 -17.5q0 -11 -8.5 -20t-17.5 -9q-11 0 -19 8.5
t-8 20.5q0 11 8 18t19 7zM260 499q11 0 18.5 -7.5t7.5 -20.5q0 -10 -8.5 -17.5t-17.5 -7.5q-11 0 -19 7t-8 18q0 13 8 20.5t19 7.5zM35 282q11 0 19.5 -7t8.5 -18t-8 -20t-20 -9q-11 0 -19 8.5t-8 20.5q0 11 8 18t19 7zM526 -199q4 -8 5.5 -17t1.5 -18q0 -17 -6 -31t-19 -26
q17 15 17 38q0 8 -2.5 16.5t-9.5 15t-16 11t-22 4.5q-18 0 -31 -11l-13 -22q-21 -53 -64.5 -81.5t-100.5 -28.5q-75 0 -128 54q-26 26 -40 57.5t-14 68.5q0 75 54 129q27 26 58.5 39t68.5 13l39 -5l-4 -60q-12 4 -31 4q-25 0 -47.5 -9t-39.5 -25t-26.5 -37t-9.5 -46
q0 -26 9 -47.5t25 -38.5t38 -26.5t46 -9.5q22 0 41 7t34.5 18.5t26 28t15.5 35.5q7 14 17.5 25t22.5 15q17 7 32 7q52 0 73 -47z" />
    <glyph glyph-name="shan.aa.vow.dot" unicode="&#x1083;" horiz-adv-x="801" 
d="M578 342l-16 18q-9 13 -14 26.5t-5 28.5q0 47 37 76q22 17 53 17q6 -1 8.5 -1h5.5h38l1 -511v-229q0 -13 1.5 -24.5t5 -21t8 -16t9.5 -9.5q12 -7 22.5 -8t26.5 -1q13 0 22 0.5t16 1.5t13.5 2t11.5 4q34 8 34 42q0 5 -1 10t-3 11q-13 35 -55 35q-3 0 -7.5 -0.5t-10.5 -1.5
q7 2 14 3t13 1q23 0 42 -9.5t34 -30.5q10 -12 14.5 -25.5t4.5 -29.5q0 -47 -37 -75q-23 -18 -54 -18q-5 1 -8 1h-5q-13 0 -27.5 -0.5t-29.5 -0.5q-29 -1 -49 2.5t-36 15.5q-14 10 -23.5 25t-14.5 33.5t-7 39.5t-2 44v229v419q-19 -17 -19 -40q0 -7 1.5 -14.5t4.5 -14
t6.5 -11t6.5 -6.5q-7 0 -14.5 3t-15.5 10zM30 282q11 0 19.5 -6.5t8.5 -18.5q0 -11 -8 -19.5t-20 -8.5q-11 0 -19 8t-8 20q0 11 8 18t19 7zM255 500q11 0 18 -8t7 -21q0 -10 -8 -17t-17 -7q-11 0 -19 7t-8 17q0 13 8 21t19 8zM255 61q11 0 18 -8t7 -18q0 -11 -8 -19.5
t-17 -8.5q-11 0 -19 8t-8 20q0 11 8 18.5t19 7.5zM98 122q11 0 19.5 -8t8.5 -18t-8.5 -18.5t-19.5 -8.5q-12 0 -18.5 8t-6.5 19q0 12 6.5 19t18.5 7zM47 191q13 0 21.5 -7.5t8.5 -20.5q0 -10 -8.5 -19.5t-21.5 -9.5q-10 0 -18 10q-8 9 -8 19q0 13 8.5 20.5t17.5 7.5zM166 78
q13 0 21 -7.5t8 -20.5q0 -5 -2.5 -9.5t-6 -9t-9 -7t-11.5 -2.5q-10 0 -18 9t-8 19q0 13 8 20.5t18 7.5zM98 386q-12 0 -18.5 7.5t-6.5 20.5q0 9 6.5 17.5t18.5 8.5q11 0 19.5 -8t8.5 -18q0 -13 -8.5 -20.5t-19.5 -7.5zM47 316q-9 0 -17.5 8.5t-8.5 20.5q0 5 2 9.5t6 9t8.5 7
t9.5 2.5q13 0 21.5 -9.5t8.5 -18.5q0 -12 -8.5 -20.5t-21.5 -8.5zM166 431q-10 0 -18 8t-8 19q0 9 7.5 18t18.5 9q13 0 21 -9t8 -18q0 -13 -8 -20t-21 -7zM470 282q11 0 19 -6.5t8 -18.5q0 -11 -8 -19.5t-19 -8.5t-18.5 8t-7.5 20q0 11 7.5 18t18.5 7zM401 122q12 0 19.5 -8
t7.5 -18t-7.5 -18.5t-19.5 -8.5q-11 0 -18.5 8t-7.5 19q0 12 7.5 19t18.5 7zM452 191q10 0 18.5 -7.5t8.5 -20.5q0 -9 -8 -19t-19 -10q-13 0 -20 9.5t-7 19.5q0 13 7 20.5t20 7.5zM333 78q10 0 18 -7.5t8 -20.5q0 -5 -2 -10t-5.5 -9t-8 -6.5t-10.5 -2.5q-12 0 -20 9t-8 19
q0 13 8 20.5t20 7.5zM401 386q-11 0 -18.5 7.5t-7.5 20.5q0 9 7.5 17.5t18.5 8.5q12 0 19.5 -8t7.5 -18q0 -13 -7.5 -20.5t-19.5 -7.5zM452 316q-13 0 -20 8.5t-7 20.5q0 5 2 9.5t6 9t9 7t10 2.5q10 0 19 -9q8 -9 8 -19q0 -12 -8.5 -20.5t-18.5 -8.5zM333 431q-12 0 -20 8
t-8 19q0 4 2 9t6 9t9.5 6.5t10.5 2.5t10 -2.5t8.5 -6.5t5.5 -9t2 -9q0 -13 -8 -20t-18 -7z" />
    <glyph glyph-name="shan.e.vow.dot" unicode="&#x1084;" horiz-adv-x="1117" 
d="M865 436q-13 0 -21 8t-8 19q0 10 8 19t21 9q10 0 18 -9t8 -19q0 -13 -8 -20t-18 -7zM985 322q-13 0 -21 8.5t-8 19.5q0 10 7.5 19t21.5 9q10 0 18 -9t8 -19q0 -12 -8 -20t-18 -8zM932 391q-11 0 -19 7.5t-8 20.5q0 10 8 18t19 8q12 0 19.5 -7.5t7.5 -18.5
q0 -13 -7.5 -20.5t-19.5 -7.5zM865 83q10 0 18 -7t8 -20q0 -11 -8 -20t-18 -9q-13 0 -21 9t-8 20q0 13 8 20t21 7zM985 196q10 0 18 -7t8 -21q0 -9 -9 -19q-8 -9 -17 -9q-13 0 -21 9t-8 19q0 14 8 21t21 7zM932 127q12 0 19.5 -7.5t7.5 -18.5q0 -10 -7.5 -18t-19.5 -8
q-11 0 -19 7.5t-8 18.5q0 13 8 19.5t19 6.5zM1000 288q12 0 20 -7t8 -18t-7.5 -20t-20.5 -9q-11 0 -18 8.5t-7 20.5q0 11 7 18t18 7zM697 436q-10 0 -18 8t-8 19q0 10 8.5 19t17.5 9q13 0 21 -9t8 -19q0 -13 -8 -20t-21 -7zM578 322q-10 0 -18.5 8.5t-8.5 19.5q0 8 9 19
q9 9 18 9q13 0 21 -9t8 -19q0 -12 -8 -20t-21 -8zM631 391q-11 0 -19 7.5t-8 20.5q0 10 8 18t19 8t18.5 -7.5t7.5 -18.5q0 -13 -7.5 -20.5t-18.5 -7.5zM697 83q13 0 21 -7t8 -20q0 -11 -8 -20t-21 -9q-10 0 -18 9t-8 20q0 13 8 20t18 7zM578 196q13 0 21 -7t8 -21
q0 -10 -7.5 -19t-21.5 -9q-10 0 -18 9q-9 9 -9 19q0 14 8.5 21t18.5 7zM631 127q11 0 18.5 -7.5t7.5 -18.5t-8.5 -18.5t-17.5 -7.5q-11 0 -19 7.5t-8 18.5q0 13 8 19.5t19 6.5zM786 66q10 0 18.5 -7.5t8.5 -17.5q0 -12 -8 -20.5t-19 -8.5q-12 0 -19.5 8.5t-7.5 20.5
q0 11 7.5 18t19.5 7zM786 505q10 0 18.5 -7.5t8.5 -20.5q0 -11 -8 -18t-19 -7q-12 0 -19.5 7t-7.5 18q0 13 7.5 20.5t19.5 7.5zM562 288q11 0 19 -7t8 -18t-8 -20t-19 -9q-12 0 -20 8.5t-8 20.5q0 11 8 18t20 7zM409 188q26 17 46 7t20 -39q-13 -29 -26 -47t-28 -32
q-76 -74 -183 -74q-45 0 -87 8t-74 25t-52 43t-21 61q-1 11 1.5 29t11.5 37q5 8 11 17t15 18q17 18 8 14q8 -1 -6 13q-15 15 -25 32t-13 36t-3 36q0 21 11.5 45.5t38.5 46.5q26 22 70.5 37.5t113.5 15.5q54 0 101.5 -18.5t81.5 -53.5q17 -17 30.5 -34t27.5 -46
q-12 -7 -19.5 -11.5t-12.5 -6.5l-30 -15l-42 48q-16 18 -37 32q-20 13 -44 19.5t-58 8.5q-57 -3 -98 -14q-42 -11 -54 -41q-7 -18 -2.5 -34.5t18 -29t36.5 -20t54 -7.5h154q15 -5 22.5 -15t7.5 -20.5t-7.5 -20.5t-22.5 -14h-154q-26 0 -49 -7t-38.5 -19.5t-21 -30.5t2.5 -40
q13 -24 53.5 -36.5t100.5 -12.5q27 -1 52 6t48 20t40 31.5t31 52.5z" />
    <glyph glyph-name="shan.eabove.vow.dot" unicode="&#x1085;" horiz-adv-x="607" 
d="M456 852q7 -7 16.5 -10t21.5 -3q27 0 41.5 16.5t14.5 40.5q0 26 -20 42q15 -13 22.5 -29t7.5 -38q0 -9 -2 -19t-6 -20q-25 -57 -87 -57q-19 0 -36 8q-32 16 -47 49q-53 53 -129 53h-29q-14 0 -23.5 -1t-18 -4t-16.5 -9.5t-19 -18.5q-4 -8 -7 -24q0 -33 65 -45h144l-1 -74
h-39l-41 1l-32 -1h-22l-16 -5q-22 -4 -36 -12t-23 -19l-9 -22q0 -26 21 -40q30 -21 109 -21q26 0 44.5 2.5t31.5 8.5t26.5 18t28.5 29l43 -58l-48 -35l-57 -24l-30 -8l-42 -2h-30q-6 0 -9 1t-5 2q-44 10 -76 22.5t-53 36.5q-13 15 -19.5 33.5t-5.5 37.5l2 17l1 6q2 16 10 28
t22 21l54 20l-46 16q-18 6 -29.5 23t-11.5 48q0 12 0.5 19.5t4.5 13.5q8 20 25.5 36t41 27t51 16.5t53.5 4.5l30 -2q34 -2 63.5 -11.5t57.5 -23.5l46 -35q11 -17 22 -26zM35 286q11 0 19.5 -7t8.5 -17q0 -12 -8 -21t-20 -9q-11 0 -19 8.5t-8 21.5q0 10 8 17t19 7zM260 503
q11 0 18.5 -7.5t7.5 -20.5q0 -9 -8.5 -16.5t-17.5 -7.5q-11 0 -19 7.5t-8 16.5q0 13 8 20.5t19 7.5zM260 64q11 0 18.5 -7.5t7.5 -17.5q0 -11 -8.5 -19.5t-17.5 -8.5q-11 0 -19 8t-8 20q0 11 8 18t19 7zM104 126q10 0 18.5 -8t8.5 -18t-8 -18.5t-19 -8.5q-12 0 -19 8t-7 19
q0 12 7 19t19 7zM52 195q13 0 21.5 -7.5t8.5 -20.5q0 -5 -2.5 -10t-6.5 -9t-9 -6.5t-12 -2.5q-10 0 -18 8q-8 10 -8 20q0 13 8 20.5t18 7.5zM171 82q14 0 21.5 -7.5t7.5 -20.5q0 -10 -7.5 -19t-21.5 -9q-10 0 -17.5 8.5t-7.5 19.5q0 13 7.5 20.5t17.5 7.5zM104 390
q-12 0 -19 7.5t-7 19.5q0 10 7 18.5t19 8.5q10 0 18.5 -8t8.5 -19q0 -12 -8.5 -19.5t-18.5 -7.5zM52 320q-10 0 -18 8.5t-8 21.5q0 4 2.5 9t6 9t8 6.5t9.5 2.5q13 0 21.5 -9t8.5 -18q0 -14 -8.5 -22t-21.5 -8zM171 435q-10 0 -17.5 8t-7.5 18t7 19.5t18 9.5q14 0 21.5 -9.5
t7.5 -19.5q0 -12 -7.5 -19t-21.5 -7zM475 286q11 0 19 -7t8 -17q0 -12 -8 -21t-19 -9t-18.5 8.5t-7.5 21.5q0 10 7.5 17t18.5 7zM406 126q13 0 20 -8t7 -18t-7 -18.5t-20 -8.5q-10 0 -18 8t-8 19q0 12 8 19t18 7zM458 195q9 0 18 -7.5t9 -20.5q0 -10 -9 -20q-9 -8 -18 -8
q-13 0 -20.5 9t-7.5 19q0 13 7.5 20.5t20.5 7.5zM339 82q10 0 18 -7.5t8 -20.5q0 -5 -2 -10t-5.5 -9t-8.5 -6.5t-10 -2.5q-13 0 -21 8.5t-8 19.5q0 13 8 20.5t21 7.5zM406 390q-10 0 -18 7.5t-8 19.5q0 10 8 18.5t18 8.5q13 0 20 -8t7 -19q0 -12 -7 -19.5t-20 -7.5zM458 320
q-13 0 -20.5 8.5t-7.5 21.5q0 4 2 9t6 9t9 6.5t11 2.5q9 0 18 -9q9 -10 9 -18q0 -14 -9 -22t-18 -8zM339 435q-13 0 -21 8t-8 18q0 5 2 10t6.5 9t9.5 7t11 3q5 0 9.5 -3t8 -6.5t6 -9t2.5 -10.5q0 -12 -8 -19t-18 -7z" />
    <glyph glyph-name="shan.finaly.vow.dot" unicode="&#x1086;" horiz-adv-x="603" 
d="M339 425q-13 0 -21 8t-8 19q0 9 8.5 18.5t20.5 9.5q10 0 18 -9t8 -19q0 -13 -8 -20t-18 -7zM458 311q-14 0 -21 8.5t-7 19.5q0 10 8 19t20 9q9 0 18 -9t9 -19q0 -12 -8.5 -20t-18.5 -8zM406 380q-11 0 -18.5 7.5t-7.5 20.5q0 10 7.5 18t18.5 8t19 -7.5t8 -18.5
q0 -13 -8 -20.5t-19 -7.5zM339 72q10 0 18 -7t8 -21q0 -10 -7.5 -19t-18.5 -9q-13 0 -21 8.5t-8 19.5q0 14 8 21t21 7zM458 186q10 0 18.5 -8t8.5 -21q0 -9 -9 -19q-9 -9 -18 -9q-14 0 -21 9t-7 19q0 13 7 21t21 8zM406 116q11 0 19 -7.5t8 -18.5q0 -10 -7.5 -18.5
t-19.5 -8.5q-11 0 -18.5 8.5t-7.5 18.5q0 13 7.5 19.5t18.5 6.5zM475 276q11 0 19 -6.5t8 -17.5q0 -12 -8 -20.5t-19 -8.5t-18.5 8t-7.5 21q0 11 7.5 17.5t18.5 6.5zM171 425q-10 0 -17.5 8t-7.5 19q0 10 7 19t18 9q13 0 21 -9.5t8 -18.5q0 -13 -8 -20t-21 -7zM52 311
q-10 0 -18 8.5t-8 19.5q0 10 8.5 19t17.5 9q13 0 21.5 -8.5t8.5 -19.5q0 -12 -8.5 -20t-21.5 -8zM104 380q-26 0 -26 28q0 10 7 18t19 8q10 0 18.5 -7.5t8.5 -18.5q0 -13 -8.5 -20.5t-18.5 -7.5zM171 72q13 0 21 -7t8 -21q0 -9 -8 -18.5t-21 -9.5q-10 0 -17.5 8.5t-7.5 19.5
q0 14 7.5 21t17.5 7zM52 186q13 0 21.5 -8t8.5 -21q0 -9 -8.5 -18.5t-21.5 -9.5q-9 0 -18 9q-8 10 -8 19q0 13 8 21t18 8zM104 116q10 0 18.5 -7.5t8.5 -18.5q0 -10 -8 -18.5t-19 -8.5q-12 0 -19 8.5t-7 18.5q0 26 26 26zM260 55q11 0 18.5 -7.5t7.5 -18.5t-8.5 -19.5
t-17.5 -8.5q-11 0 -19 8.5t-8 19.5t8 18.5t19 7.5zM260 494q11 0 18.5 -7.5t7.5 -21.5q0 -10 -8.5 -17t-17.5 -7q-11 0 -19 7t-8 17q0 13 8 21t19 8zM35 276q11 0 19.5 -6.5t8.5 -17.5q0 -12 -8 -20.5t-20 -8.5q-11 0 -19 8t-8 21q0 11 8 17.5t19 6.5zM370 819
q1 -43 -13 -85t-37 -81q-11 -20 -23.5 -37t-26.5 -33q-14 -15 -41 -36t-70 -48q32 37 52 62.5t31 40.5q10 15 17.5 29t14.5 28t11 26.5t7 23.5q2 5 3 9.5t2 7.5q1 4 1 6q-12 -2 -20 -3.5t-12 -1.5q-35 8 -57 30.5t-22 60.5q0 41 26 67q27 27 65 27q39 0 65 -27
q25 -26 27 -66zM281 845q-28 0 -28 -30q0 -29 28 -29q31 2 31 29q0 30 -31 30z" />
    <glyph glyph-name="shan.tone2.dot" unicode="&#x1087;" horiz-adv-x="301" 
d="M182 91q1 -43 -13 -81t-37 -76q-22 -38 -51 -70q-14 -17 -50 -44t-97 -65q49 45 76 74t36 43q10 14 18 28.5t16 30.5q7 14 12 28l10 28q5 18 -4 15q-6 -2 -11.5 -2h-10.5q-35 8 -56 29.5t-21 60.5q0 20 5.5 36.5t19.5 30.5q27 29 66 29q38 0 64 -28q13 -14 20 -30t8 -37z
M92 116q-29 0 -29 -30q0 -28 29 -28q31 2 31 28q0 30 -31 30z" />
    <glyph glyph-name="shan.tone3.dot" unicode="&#x1088;" horiz-adv-x="304" 
d="M192 98q1 -43 -13 -81.5t-37 -76.5q-11 -19 -24 -36.5t-27 -33.5t-51 -43t-96 -66q48 45 75.5 74t37.5 43q9 14 17 28.5t16 30.5q7 15 12 29t10 27q8 20 -4 15q-12 -3 -22 -3q-35 10 -56.5 31t-21.5 61q0 38 26 67q27 28 66 28q38 0 65 -27q26 -29 27 -67zM103 122
q-29 0 -29 -29t29 -29q30 1 30 29q0 29 -30 29zM60 381q0 -14 10 -23.5t25 -9.5q14 0 25 9.5t11 23.5q0 17 -11 26.5t-25 9.5q-15 0 -25 -9.5t-10 -26.5zM0 381q0 41 27 67q30 28 68 27q39 -2 66 -26.5t27 -67.5q0 -41 -27 -67.5t-66 -26.5q-42 0 -68 26.5t-27 67.5z" />
    <glyph glyph-name="shan.tone5.dot" unicode="&#x1089;" horiz-adv-x="326" 
d="M64 99q0 -15 10.5 -24t25.5 -9q14 0 25 10.5t11 22.5q0 14 -11 26t-25 12t-25 -12t-11 -26zM5 99q0 40 26.5 67.5t68.5 27.5q39 0 66 -27.5t27 -67.5q0 -19 -7 -36.5t-20 -30.5t-30 -20.5t-36 -7.5q-41 1 -68 28.5t-27 66.5z" />
    <glyph glyph-name="shan.tone6.dot" unicode="&#x108a;" horiz-adv-x="531" 
d="M103 291q-41 0 -66 27q-26 26 -26 64q0 41 28 66q28 26 65 26q42 0 63.5 -21t30.5 -56q0 -10 -3 -22q-3 -14 23 -5q13 5 27 10t29 13q15 7 29.5 14.5t28.5 17.5t43 38t75 77q-39 -60 -66 -97t-44 -52q-30 -28 -70 -51q-38 -22 -81 -36.5t-86 -12.5zM80 380q0 -30 27 -30
q31 -2 31 30q0 29 -31 29q-27 0 -27 -29zM103 6q-39 0 -66 27q-26 26 -26 63q0 39 28 67q26 26 65 26q42 0 63.5 -21.5t30.5 -56.5q0 -10 -3 -22q-3 -11 23 -5q13 4 27 9t29 13t29.5 15.5t28.5 17.5q14 9 43 37t75 79q-39 -59 -66 -96t-44 -52q-16 -14 -33 -27t-37 -25
q-38 -22 -81 -36t-86 -13zM80 93q0 -29 27 -29q31 2 31 29q0 29 -31 29q-27 0 -27 -29z" />
    <glyph glyph-name="shan.cc.tone2.dot" unicode="&#x108b;" horiz-adv-x="864" 
d="M338 431q-13 0 -21 8t-8 19q0 10 8.5 19t20.5 9q11 0 18.5 -9t7.5 -19q0 -14 -7.5 -20.5t-18.5 -6.5zM457 317q-14 0 -21 8.5t-7 19.5q0 10 8.5 19.5t19.5 9.5q10 0 18 -10q9 -9 9 -19q0 -11 -8.5 -19.5t-18.5 -8.5zM405 386q-11 0 -18.5 7t-7.5 21q0 10 7.5 18t18.5 8
q12 0 20 -7.5t8 -18.5q0 -14 -8 -21t-20 -7zM338 79q11 0 18.5 -8t7.5 -21q0 -10 -7.5 -19t-18.5 -9q-13 0 -21 8.5t-8 19.5q0 13 8 21t21 8zM457 191q10 0 18.5 -7t8.5 -20q0 -10 -9 -20q-8 -9 -18 -9q-14 0 -21 9t-7 20q0 27 28 27zM405 123q12 0 20 -8t8 -19
q0 -10 -7.5 -18t-20.5 -8q-11 0 -18.5 8t-7.5 18q0 13 7.5 20t18.5 7zM475 282q11 0 18.5 -6.5t7.5 -17.5t-7.5 -20t-18.5 -9t-19 8.5t-8 20.5q0 11 8 17.5t19 6.5zM170 431q-10 0 -17.5 8t-7.5 19q0 10 7 19t18 9q14 0 21.5 -9t7.5 -19q0 -27 -29 -27zM52 317
q-10 0 -18.5 8.5t-8.5 19.5q0 10 8.5 19.5t18.5 9.5q13 0 21 -9.5t8 -19.5q0 -11 -8 -19.5t-21 -8.5zM103 386q-25 0 -25 28q0 10 6.5 18t18.5 8q11 0 19.5 -7.5t8.5 -18.5q0 -14 -8.5 -21t-19.5 -7zM170 79q14 0 21.5 -8t7.5 -21q0 -10 -7.5 -19t-21.5 -9q-10 0 -17.5 8.5
t-7.5 19.5q0 13 7.5 21t17.5 8zM52 191q13 0 21 -7t8 -20q0 -11 -8 -20t-21 -9q-11 0 -18 9q-9 9 -9 20q0 13 8.5 20t18.5 7zM103 123q11 0 19.5 -8t8.5 -19q0 -10 -8.5 -18t-19.5 -8q-12 0 -18.5 8t-6.5 18q0 27 25 27zM260 61q10 0 17.5 -7.5t7.5 -17.5q0 -12 -8.5 -20.5
t-16.5 -8.5q-12 0 -20 8.5t-8 20.5q0 10 8 17.5t20 7.5zM260 500q10 0 17.5 -7.5t7.5 -21.5q0 -10 -8.5 -17t-16.5 -7q-12 0 -20 7t-8 17q0 13 8 21t20 8zM35 282q11 0 19 -6.5t8 -17.5t-8 -20t-19 -9q-12 0 -19.5 8.5t-7.5 20.5q0 11 7.5 17.5t19.5 6.5zM625 277
q0 -14 10 -24t25 -10q14 0 24.5 10t10.5 24q0 15 -10 25.5t-25 10.5q-14 0 -24.5 -10.5t-10.5 -25.5zM565 277q0 19 7.5 36t20 29.5t30 20t37.5 7.5q19 0 36 -7.5t29.5 -20t20 -29.5t7.5 -36q0 -20 -7.5 -37.5t-20 -30.5t-29.5 -20.5t-36 -7.5q-40 0 -67 28q-28 31 -28 68z
" />
    <glyph glyph-name="shan.cc.tone3.dot" unicode="&#x108c;" horiz-adv-x="1105" 
d="M342 431q-13 0 -21 8t-8 19q0 10 8.5 19t20.5 9q10 0 18 -9t8 -19q0 -14 -8 -20.5t-18 -6.5zM460 317q-13 0 -20 8.5t-7 19.5q0 10 8 19.5t19 9.5q10 0 19 -10q9 -9 9 -19q0 -11 -8.5 -19.5t-19.5 -8.5zM409 386q-11 0 -19 7t-8 21q0 10 8 18t19 8t19 -7.5t8 -18.5
q0 -14 -8 -21t-19 -7zM342 79q10 0 18 -8t8 -21q0 -10 -7.5 -19t-18.5 -9q-13 0 -21 8.5t-8 19.5q0 13 8 21t21 8zM460 191q11 0 19.5 -7t8.5 -20q0 -10 -9 -20q-9 -9 -19 -9q-13 0 -20 9t-7 20q0 27 27 27zM409 123q11 0 19 -8t8 -19q0 -10 -7 -18t-20 -8q-11 0 -19 8
t-8 18q0 13 8 20t19 7zM478 282q11 0 19 -6.5t8 -17.5t-8 -20t-19 -9t-18.5 8.5t-7.5 20.5q0 11 7.5 17.5t18.5 6.5zM174 431q-10 0 -18 8t-8 19q0 10 7.5 19t18.5 9q13 0 21 -9t8 -19q0 -14 -8 -20.5t-21 -6.5zM55 317q-10 0 -18 8.5t-8 19.5q0 10 8 19.5t18 9.5
q13 0 21 -9.5t8 -19.5q0 -11 -8 -19.5t-21 -8.5zM106 386q-25 0 -25 28q0 10 7 18t18 8t19.5 -7.5t8.5 -18.5q0 -14 -8.5 -21t-19.5 -7zM174 79q13 0 21 -8t8 -21q0 -10 -8 -19t-21 -9q-10 0 -18 8.5t-8 19.5q0 13 8 21t18 8zM55 191q13 0 21 -7t8 -20q0 -11 -8 -20t-21 -9
q-9 0 -18 9q-8 10 -8 20q0 13 8 20t18 7zM106 123q11 0 19.5 -8t8.5 -19q0 -10 -8 -18t-20 -8q-11 0 -18 8t-7 18q0 27 25 27zM263 61q11 0 18.5 -7.5t7.5 -17.5q0 -12 -8.5 -20.5t-17.5 -8.5q-11 0 -19 8.5t-8 20.5q0 10 8 17.5t19 7.5zM263 500q11 0 18.5 -7.5t7.5 -21.5
q0 -10 -8.5 -17t-17.5 -7q-11 0 -19 7t-8 17q0 13 8 21t19 8zM38 282q11 0 19.5 -6.5t8.5 -17.5t-8.5 -20t-19.5 -9q-12 0 -19.5 8.5t-7.5 20.5q0 11 7.5 17.5t19.5 6.5zM868 271q0 -14 10 -24.5t24 -10.5t25.5 10t11.5 25t-11.5 25t-25.5 10t-24 -10t-10 -25zM808 271
q0 19 7 35.5t20 29t30 20t37 7.5q20 1 37 -6.5t29.5 -20.5t19.5 -30t7 -35q0 -40 -26.5 -68t-66.5 -28t-67 28t-27 68zM627 271q0 -14 10 -24.5t24 -10.5q15 0 25.5 10t10.5 25t-11 25t-25 10t-24 -10t-10 -25zM566 271q0 19 7.5 35.5t20.5 29t30 20t37 7.5q19 1 36 -6.5
t30 -20.5t20 -30t7 -35q0 -20 -7 -37.5t-20 -30.5t-30 -20.5t-36 -7.5q-40 0 -67 28q-28 30 -28 68z" />
    <glyph glyph-name="shan.ce.tone.dot" unicode="&#x108d;" horiz-adv-x="608" 
d="M334 428q-13 0 -21 8t-8 19q0 9 8.5 18.5t20.5 9.5q10 0 18 -9t8 -19q0 -13 -8 -20t-18 -7zM453 313q-13 0 -20.5 9t-7.5 20q0 10 8.5 19t19.5 9q9 0 18 -9q9 -11 9 -19q0 -12 -8.5 -20.5t-18.5 -8.5zM401 383q-11 0 -18.5 7.5t-7.5 20.5q0 10 7.5 18t18.5 8
q12 0 19.5 -7.5t7.5 -18.5q0 -13 -7.5 -20.5t-19.5 -7.5zM334 75q10 0 18 -7.5t8 -20.5q0 -10 -7.5 -19t-18.5 -9q-13 0 -21 8.5t-8 19.5q0 13 8 20.5t21 7.5zM453 188q10 0 18.5 -7.5t8.5 -20.5q0 -10 -9 -19t-18 -9q-13 0 -20.5 8.5t-7.5 19.5q0 28 28 28zM401 119
q12 0 19.5 -7.5t7.5 -18.5q0 -10 -7.5 -18.5t-19.5 -8.5q-11 0 -18.5 8.5t-7.5 18.5q0 13 7.5 19.5t18.5 6.5zM470 279q11 0 19 -6.5t8 -17.5q0 -12 -8 -20.5t-19 -8.5t-18.5 8t-7.5 21q0 11 7.5 17.5t18.5 6.5zM166 428q-10 0 -17.5 8t-7.5 19q0 10 7 19t18 9q13 0 21 -9.5
t8 -18.5q0 -13 -8 -20t-21 -7zM47 313q-10 0 -18 9t-8 20q0 9 8.5 18.5t17.5 9.5q13 0 21.5 -9t8.5 -19q0 -12 -8.5 -20.5t-21.5 -8.5zM99 383q-26 0 -26 28q0 10 7 18t19 8q10 0 18.5 -7.5t8.5 -18.5q0 -13 -8.5 -20.5t-18.5 -7.5zM166 75q13 0 21 -7.5t8 -20.5
q0 -9 -8 -18.5t-21 -9.5q-10 0 -17.5 8.5t-7.5 19.5q0 13 7.5 20.5t17.5 7.5zM47 188q13 0 21.5 -7.5t8.5 -20.5q0 -10 -8.5 -19t-21.5 -9q-9 0 -18 9q-8 10 -8 19q0 13 8 20.5t18 7.5zM99 119q10 0 18.5 -7.5t8.5 -18.5q0 -10 -8 -18.5t-19 -8.5q-12 0 -19 8.5t-7 18.5
q0 26 26 26zM255 58q11 0 18.5 -7.5t7.5 -18.5t-8.5 -19.5t-17.5 -8.5q-11 0 -19 8.5t-8 19.5t8 18.5t19 7.5zM255 497q11 0 18.5 -7.5t7.5 -21.5q0 -10 -8.5 -17t-17.5 -7q-11 0 -19 7t-8 17q0 13 8 21t19 8zM30 279q11 0 19.5 -6.5t8.5 -17.5q0 -12 -8 -20.5t-20 -8.5
q-11 0 -19 8t-8 21q0 11 8 17.5t19 6.5zM52 -132v75h430v-74h-110t-105 -1h-215z" />
    <glyph glyph-name="pl.fa" unicode="&#x108e;" horiz-adv-x="605" 
d="M264 435q-40 0 -72 -12t-52 -31q20 -20 52 -32t72 -12q73 0 118 44q-21 20 -52 31.5t-66 11.5zM264 77q78 0 126 49q52 55 52 129q1 24 -14 72q-68 -56 -164 -56q-102 2 -170 56q-5 -12 -8.5 -32t-3.5 -40q0 -38 12 -70.5t38 -58.5q50 -49 132 -49zM264 512
q109 0 182 -73q72 -72 71 -184q0 -114 -70 -183q-72 -72 -183 -72t-186 72q-74 70 -74 183q0 116 73 186q71 71 187 71z" />
    <glyph glyph-name="pl.tone5.dot" unicode="&#x108f;" horiz-adv-x="868" 
d="M574 101q1 40 28 67q25 27 63 27q39 0 66 -28q27 -27 27 -67q0 -41 -22 -61q-20 -20 -56 -31q-5 0 -11 1t-11 3q-14 3 -5 -15l10 -28t12 -29q8 -16 15.5 -30t17.5 -28q18 -29 114 -117q-119 76 -149 109q-14 16 -26.5 33t-23.5 36q-22 38 -36 76.5t-13 81.5zM663 125
q-31 0 -31 -29t31 -28q28 0 28 28q0 29 -28 29zM337 422q-13 0 -21 8t-8 19q0 10 8.5 19.5t20.5 9.5q11 0 18.5 -9.5t7.5 -19.5q0 -13 -7.5 -20t-18.5 -7zM456 308q-14 0 -21 8.5t-7 19.5t8.5 20t19.5 9q9 0 18 -10q9 -9 9 -19q0 -11 -8.5 -19.5t-18.5 -8.5zM404 377
q-11 0 -18.5 7.5t-7.5 20.5q0 10 7.5 18.5t18.5 8.5q12 0 20 -8t8 -19q0 -13 -8 -20.5t-20 -7.5zM337 70q11 0 18.5 -7.5t7.5 -20.5q0 -10 -7.5 -19t-18.5 -9q-13 0 -21 8.5t-8 19.5q0 13 8 20.5t21 7.5zM456 183q10 0 18.5 -7.5t8.5 -20.5q0 -10 -9 -20q-8 -9 -18 -9
q-14 0 -21 9t-7 20q0 28 28 28zM404 114q12 0 20 -8t8 -19q0 -10 -7.5 -18t-20.5 -8q-11 0 -18.5 8t-7.5 18q0 13 7.5 20t18.5 7zM474 274q11 0 18.5 -7t7.5 -18t-7.5 -20t-18.5 -9t-19 8.5t-8 20.5q0 11 8 18t19 7zM169 422q-10 0 -17.5 8t-7.5 19q0 10 7 19.5t18 9.5
q14 0 21.5 -9.5t7.5 -19.5q0 -27 -29 -27zM51 308q-10 0 -18.5 8.5t-8.5 19.5q0 10 8.5 19.5t18.5 9.5q13 0 21 -9t8 -20t-8 -19.5t-21 -8.5zM102 377q-25 0 -25 28q0 10 6.5 18.5t18.5 8.5q11 0 19.5 -8t8.5 -19q0 -13 -8.5 -20.5t-19.5 -7.5zM169 70q29 0 29 -28
q0 -10 -7.5 -19t-21.5 -9q-10 0 -17.5 8.5t-7.5 19.5q0 13 7.5 20.5t17.5 7.5zM51 183q13 0 21 -7.5t8 -20.5q0 -10 -8 -19.5t-21 -9.5q-11 0 -18 9q-9 9 -9 20q0 13 8.5 20.5t18.5 7.5zM102 114q11 0 19.5 -8t8.5 -19q0 -10 -8.5 -18t-19.5 -8q-12 0 -18.5 8t-6.5 18
q0 27 25 27zM258 52q11 0 18.5 -7t7.5 -18t-8 -19t-18 -8q-11 0 -19 7.5t-8 19.5q0 11 8 18t19 7zM258 491q11 0 18.5 -7.5t7.5 -20.5q0 -10 -8 -17.5t-18 -7.5q-11 0 -19 7t-8 18q0 13 8 20.5t19 7.5zM34 274q10 0 18.5 -7t8.5 -18t-8 -20t-19 -9q-12 0 -19.5 8.5
t-7.5 20.5q0 11 7.5 18t19.5 7zM700 389q0 17 -9.5 26.5t-25.5 9.5q-15 0 -26.5 -9.5t-11.5 -26.5q0 -14 12 -24.5t26 -10.5t24.5 10.5t10.5 24.5zM761 389q0 -40 -27 -68t-69 -28q-40 0 -67.5 28t-27.5 68q0 42 28 68t67 26q42 1 69 -26t27 -68z" />
    <glyph glyph-name="sd.zero" unicode="&#x1090;" horiz-adv-x="607" 
d="M440 194v338q0 30 -13.5 56t-37.5 45.5t-57.5 30.5t-74.5 11t-75 -11t-58 -30.5t-37.5 -45.5t-13.5 -56v-338q0 -30 13.5 -56t37.5 -45t58 -30t75 -11t74.5 11t57.5 30t37.5 45t13.5 56zM514 532v-338q0 -39 -19 -73.5t-53 -60t-81.5 -40t-103.5 -14.5t-103.5 14.5
t-81.5 40t-53 60t-19 73.5v338q0 39 19 73t53 59.5t81.5 40.5t103.5 15t103.5 -15t81.5 -40.5t53 -59.5t19 -73z" />
    <glyph glyph-name="sd.one" unicode="&#x1091;" horiz-adv-x="460" 
d="M165 11v629l-155 -66q-28 2 -31 13.5t5 28.5l247 108l5 -1v-629l145 46q24 -3 31 -11.5t3 -30.5l-245 -87h-5z" />
    <glyph glyph-name="sd.two" unicode="&#x1092;" horiz-adv-x="601" 
d="M90 0q-10 -12 -29 -14.5t-41 14.5q-5 14 -5 57q0 53 32 96t79.5 79.5t103.5 69t103.5 65.5t79.5 68t32 77q0 60 -50.5 91.5t-132.5 31.5q-39 0 -73 -7.5t-59.5 -23t-40.5 -40.5t-15 -60v-9q-6 -5 -15 -10t-18.5 -7t-19 1.5t-16.5 15.5v198q6 9 15.5 15t19.5 6.5t19 -4.5
t14 -17v-54h2q28 26 75.5 44t111.5 18q56 0 103.5 -15t81.5 -40.5t53 -60t19 -73.5q0 -48 -32 -87.5t-80.5 -74.5t-104.5 -67.5t-104.5 -67.5t-80.5 -74t-32 -87q0 -16 1.5 -28t3.5 -26z" />
    <glyph glyph-name="sd.three" unicode="&#x1093;" horiz-adv-x="663" 
d="M229 275l-146 -275q-9 -15 -23 -20t-27.5 -3.5t-23.5 8.5t-11 15l358 698q9 14 24 20t30 5.5t26.5 -7t13.5 -18.5l-180 -344q20 5 32 7.5t34 2.5q57 0 102.5 -13.5t78 -38t50 -58.5t17.5 -74v-180q-6 -9 -16 -13.5t-21 -4.5t-21 4.5t-15 13.5v180q0 30 -13.5 52.5t-38 37
t-58.5 21.5t-75 7q-32 0 -53 -5t-44 -18z" />
    <glyph glyph-name="sd.four" unicode="&#x1094;" horiz-adv-x="735" 
d="M102 3q-8 -3 -20.5 -6.5t-25 -4.5t-24.5 1t-18 10l313 689q19 26 43 23t40 -23l71 -593l185 76q13 3 20.5 -3.5t11 -17t4 -22t-1.5 -19.5l-285 -113h-5l-64 561z" />
    <glyph glyph-name="sd.five" unicode="&#x1095;" horiz-adv-x="610" 
d="M438 189v133h-167q-91 0 -142 -36.5t-51 -96.5t51 -91.5t133 -31.5t129 31.5t47 91.5zM271 389h167v309q3 10 13.5 15.5t22 6t22 -4.5t15.5 -17v-309h63q12 -7 16.5 -16.5t4 -19t-6 -18t-14.5 -13.5h-63v-133q0 -39 -18 -73.5t-50.5 -60t-78.5 -40t-102 -14.5
t-103.5 14.5t-81.5 40t-53 60t-19 73.5t19 75t53.5 63.5t83.5 44.5t110 17z" />
    <glyph glyph-name="sd.six" unicode="&#x1096;" horiz-adv-x="632" 
d="M271 385h167v134q0 59 -47 91t-129 32t-133 -32t-51 -91q0 -60 51 -97t142 -37zM511 519v-134h73q15 -5 20.5 -15t4 -20.5t-8.5 -19.5t-16 -12h-73v-308q-5 -11 -15 -15.5t-21 -4t-21 5.5t-16 14v308h-167q-61 0 -110 16.5t-83.5 44.5t-53.5 64.5t-19 75.5t19 73t53 59.5
t81.5 40.5t103.5 15t102 -15t78.5 -40.5t50.5 -59.5t18 -73z" />
    <glyph glyph-name="sd.seven" unicode="&#x1097;" horiz-adv-x="512" 
d="M91 45h336q10 -2 13.5 -9.5t3 -15.5t-5 -14t-11.5 -6h-427v1l335 649h-325q-13 10 -14.5 23.5t14.5 23.5h418l4 -2z" />
    <glyph glyph-name="sd.eight" unicode="&#x1098;" horiz-adv-x="610" 
d="M445 188q0 31 -13.5 58t-37.5 47.5t-57.5 32t-74.5 11.5t-75 -11.5t-58 -32t-37.5 -47.5t-13.5 -58q0 -30 13.5 -56t37.5 -45.5t58 -30.5t75 -11t74.5 11t57.5 30.5t37.5 45.5t13.5 56zM519 188q0 -39 -19 -73t-53 -59.5t-81.5 -40t-103.5 -14.5t-103.5 14.5t-81.5 40
t-53 59.5t-19 73q0 57 36 102.5t99 69.5q-62 23 -98.5 65.5t-36.5 99.5q0 60 34 108.5t87 80.5q13 5 23.5 3.5t16.5 -7t8 -13.5t-2 -17q-40 -26 -67 -67t-27 -87q0 -32 13.5 -58.5t37.5 -45.5t58 -30t75 -11q40 0 74 11t58 30t37.5 45.5t13.5 58.5q0 46 -26.5 87t-66.5 67
q-3 7 -1.5 15t7 14t15.5 8.5t24 -3.5q53 -32 87.5 -80.5t34.5 -108.5q0 -57 -36.5 -99.5t-98.5 -65.5q63 -24 99 -69.5t36 -102.5z" />
    <glyph glyph-name="sd.nine" unicode="&#x1099;" horiz-adv-x="616" 
d="M78 523q0 -30 13.5 -56.5t37.5 -46t58 -30.5t75 -11t74.5 11t57.5 30.5t37.5 46t13.5 56.5t-13.5 56t-37.5 45.5t-57.5 30.5t-74.5 11t-75 -11t-58 -30.5t-37.5 -45.5t-13.5 -56zM5 523q0 39 19 73t53 59.5t81.5 40.5t103.5 15t103.5 -15t81.5 -40.5t53 -59.5t19 -73
q0 -55 -36 -98.5t-99 -67.5q62 -23 98.5 -67t36.5 -102q0 -60 -34.5 -109.5t-87.5 -78.5q-14 -3 -24.5 -0.5t-16.5 8t-7.5 12t3.5 11.5q40 26 66.5 67.5t26.5 89.5q0 31 -13.5 58t-37.5 47t-58 31t-74 11q-41 0 -75 -11t-58 -31t-37.5 -47t-13.5 -58q0 -48 27 -89.5
t67 -67.5q3 -5 2.5 -12t-6 -12.5t-16 -8t-26.5 1.5q-53 29 -87 78.5t-34 109.5q0 58 36.5 102t98.5 67q-63 24 -99 67.5t-36 98.5z" />
    <glyph glyph-name="KTT_1" unicode="&#x109a;" horiz-adv-x="854" 
d="M334 421q-14 0 -21.5 8t-7.5 19q0 10 8.5 19t20.5 9q10 0 18 -9t8 -19q0 -13 -8 -20t-18 -7zM453 307q-14 0 -21 8.5t-7 19.5q0 10 8.5 19.5t19.5 9.5q9 0 18 -10q8 -10 8 -19q0 -11 -8 -19.5t-18 -8.5zM401 376q-11 0 -18.5 7.5t-7.5 20.5q0 10 7.5 18t18.5 8
q12 0 19.5 -7.5t7.5 -18.5q0 -13 -7.5 -20.5t-19.5 -7.5zM334 69q10 0 18 -7.5t8 -20.5q0 -11 -7.5 -19.5t-18.5 -8.5q-14 0 -21.5 8.5t-7.5 19.5q0 28 29 28zM453 182q10 0 18 -7.5t8 -20.5q0 -9 -8 -20q-9 -9 -18 -9q-14 0 -21 9t-7 20q0 28 28 28zM401 113q12 0 19.5 -8
t7.5 -19q0 -10 -7 -18t-20 -8q-11 0 -18.5 8t-7.5 18q0 14 7.5 20.5t18.5 6.5zM470 272q11 0 19 -6.5t8 -17.5t-8 -20t-19 -9t-18.5 8.5t-7.5 20.5q0 11 7.5 17.5t18.5 6.5zM166 421q-10 0 -17.5 8t-7.5 19q0 10 7 19t18 9q13 0 21 -9t8 -19q0 -13 -8 -20t-21 -7zM47 307
q-10 0 -18 8.5t-8 19.5q0 10 8.5 19.5t17.5 9.5q13 0 21.5 -9t8.5 -20t-8.5 -19.5t-21.5 -8.5zM98 376q-25 0 -25 28q0 10 7 18t18 8t19.5 -7.5t8.5 -18.5q0 -13 -8.5 -20.5t-19.5 -7.5zM166 69q13 0 21 -7.5t8 -20.5q0 -11 -8 -19.5t-21 -8.5q-10 0 -17.5 8.5t-7.5 19.5
q0 13 7.5 20.5t17.5 7.5zM47 182q13 0 21.5 -7.5t8.5 -20.5q0 -10 -8.5 -19.5t-21.5 -9.5q-9 0 -18 9q-8 11 -8 20q0 13 8 20.5t18 7.5zM98 113q11 0 19.5 -8t8.5 -19q0 -10 -8 -18t-20 -8q-11 0 -18 8t-7 18q0 27 25 27zM255 51q11 0 18.5 -7t7.5 -18q0 -12 -8.5 -19
t-17.5 -7q-11 0 -19 7t-8 19q0 11 8 18t19 7zM255 490q11 0 18.5 -7.5t7.5 -21.5q0 -10 -8.5 -16.5t-17.5 -6.5q-11 0 -19 6.5t-8 16.5q0 14 8 21.5t19 7.5zM30 272q11 0 19.5 -6.5t8.5 -17.5t-8.5 -20t-19.5 -9t-19 8.5t-8 20.5q0 11 8 17.5t19 6.5zM628 383
q0 -14 11 -23.5t25 -9.5t25.5 9.5t11.5 23.5q0 17 -11 27t-26 10q-14 0 -25 -10t-11 -27zM569 383q-1 40 28 67q29 29 67 27q40 -1 66.5 -26.5t26.5 -67.5q0 -41 -26.5 -67.5t-66.5 -26.5t-67 26.5t-28 67.5z" />
    <glyph glyph-name="KTT_3" unicode="&#x109b;" horiz-adv-x="844" 
d="M342 427q-13 0 -21 8t-8 19q0 9 8.5 18t20.5 9q10 0 18 -8.5t8 -18.5q0 -13 -8 -20t-18 -7zM460 313q-13 0 -20 8t-7 19t8 20t19 9q10 0 19 -9q9 -11 9 -20q0 -11 -8.5 -19t-19.5 -8zM409 382q-11 0 -18.5 7.5t-7.5 20.5q0 10 7.5 18t18.5 8t19 -7.5t8 -18.5
q0 -13 -8 -20.5t-19 -7.5zM342 74q10 0 18 -7.5t8 -20.5q0 -10 -7.5 -19t-18.5 -9q-13 0 -21 8.5t-8 19.5q0 13 8 20.5t21 7.5zM460 187q11 0 19.5 -7.5t8.5 -20.5q0 -10 -9 -19q-9 -10 -19 -10q-13 0 -20 9.5t-7 19.5q0 28 27 28zM409 118q11 0 19 -7.5t8 -18.5
q0 -10 -7.5 -18.5t-19.5 -8.5q-11 0 -18.5 8t-7.5 19q0 13 7.5 19.5t18.5 6.5zM478 278q11 0 19 -6.5t8 -18.5q0 -11 -8 -19.5t-19 -8.5t-18.5 8t-7.5 20q0 11 7.5 18t18.5 7zM174 427q-10 0 -18 8t-8 19q0 10 7.5 18.5t18.5 8.5q13 0 21 -8.5t8 -18.5q0 -13 -8 -20t-21 -7z
M55 313q-10 0 -18 8t-8 19t8 20t18 9q13 0 21 -9t8 -20t-8 -19t-21 -8zM106 382q-25 0 -25 28q0 10 7 18t18 8t19.5 -7.5t8.5 -18.5q0 -13 -8.5 -20.5t-19.5 -7.5zM174 74q13 0 21 -7.5t8 -20.5q0 -10 -8 -19t-21 -9q-10 0 -18 8.5t-8 19.5q0 13 8 20.5t18 7.5zM55 187
q13 0 21 -7.5t8 -20.5q0 -10 -8 -19.5t-21 -9.5q-11 0 -18 10q-8 10 -8 19q0 13 8 20.5t18 7.5zM106 118q11 0 19.5 -7.5t8.5 -18.5q0 -10 -8 -18.5t-20 -8.5q-11 0 -18 8t-7 19q0 26 25 26zM263 57q11 0 18.5 -7.5t7.5 -18.5t-8.5 -20t-17.5 -9q-11 0 -19 9t-8 20t8 18.5
t19 7.5zM263 496q11 0 18.5 -7.5t7.5 -21.5q0 -10 -8.5 -17t-17.5 -7q-11 0 -19 7t-8 17q0 13 8 21t19 8zM38 278q11 0 19.5 -6.5t8.5 -18.5q0 -11 -8 -19.5t-20 -8.5q-11 0 -19 8t-8 20q0 11 8 18t19 7zM733 502q1 -43 -13.5 -85t-36.5 -82q-20 -36 -50 -69
q-14 -16 -50.5 -43t-98.5 -66q49 46 77 74.5t38 41.5q10 14 18 28.5t15 30.5t12 29.5t9 27.5q9 26 -4 23q-12 -3 -21 -3q-35 9 -57 30q-22 22 -22 62q0 39 27 66q28 28 65 28q38 0 65 -27q26 -27 27 -66zM644 526q-29 0 -28 -28q1 -30 28 -31q29 0 29 31q0 28 -29 28z" />
    <glyph glyph-name="VSAT_A" unicode="&#x109c;" horiz-adv-x="1053" 
d="M341 423q-13 0 -21 8t-8 19q0 9 8.5 18.5t20.5 9.5q10 0 18 -9t8 -19q0 -13 -8 -20t-18 -7zM459 309q-13 0 -20 8.5t-7 19.5q0 10 8 19t19 9q10 0 19 -9t9 -19q0 -12 -8.5 -20t-19.5 -8zM408 378q-11 0 -18.5 7.5t-7.5 20.5q0 10 7.5 18t18.5 8t19.5 -7.5t8.5 -18.5
q0 -13 -8.5 -20.5t-19.5 -7.5zM341 71q10 0 18 -7.5t8 -21.5q0 -10 -7.5 -19t-18.5 -9q-13 0 -21 8.5t-8 19.5q0 14 8 21.5t21 7.5zM459 184q11 0 19.5 -8t8.5 -21q0 -9 -9 -19q-8 -9 -19 -9q-13 0 -20 9t-7 19q0 13 7 21t20 8zM408 115q11 0 19.5 -8t8.5 -19q0 -10 -8 -18
t-20 -8q-11 0 -18.5 8t-7.5 18q0 13 7.5 20t18.5 7zM477 274q12 0 19.5 -6.5t7.5 -17.5q0 -12 -7.5 -20.5t-19.5 -8.5q-11 0 -18.5 8t-7.5 21q0 11 7.5 17.5t18.5 6.5zM173 423q-10 0 -18 8t-8 19q0 9 7.5 18.5t18.5 9.5q13 0 21 -9t8 -19q0 -13 -8 -20t-21 -7zM54 309
q-10 0 -18 8.5t-8 19.5q0 10 8.5 19t17.5 9q14 0 22 -8.5t8 -19.5q0 -12 -8 -20t-22 -8zM105 378q-24 0 -24 28q0 10 6.5 18t17.5 8t19.5 -7.5t8.5 -18.5q0 -13 -8.5 -20.5t-19.5 -7.5zM173 71q13 0 21 -7.5t8 -21.5q0 -10 -8 -19t-21 -9q-10 0 -18 8.5t-8 19.5q0 14 8 21.5
t18 7.5zM54 184q14 0 22 -8t8 -21q0 -10 -8 -19t-22 -9q-10 0 -17 9q-9 10 -9 19q0 13 8 21t18 8zM105 115q11 0 19.5 -8t8.5 -19q0 -10 -8 -18t-20 -8q-11 0 -17.5 8t-6.5 18q0 27 24 27zM262 53q11 0 18.5 -7.5t7.5 -18.5t-8.5 -19t-17.5 -8q-11 0 -19 8t-8 19t8 18.5
t19 7.5zM262 492q11 0 18.5 -7.5t7.5 -21.5q0 -10 -8.5 -17t-17.5 -7q-11 0 -19 7t-8 17q0 13 8 21t19 8zM37 274q11 0 19.5 -6.5t8.5 -17.5q0 -12 -8 -20.5t-20 -8.5q-11 0 -19 8t-8 21q0 11 8 17.5t19 6.5zM635 193q43 2 85.5 -12t80.5 -37q20 -11 37 -24t34 -27
q16 -14 43.5 -49t65.5 -92q-46 47 -74.5 72t-42.5 35q-27 19 -58 34q-29 13 -56 21t-23 -5q2 -6 2 -11v-9q-9 -35 -30 -57t-63 -22q-40 0 -66 26q-27 27 -27 66q0 38 26 64q13 13 29 20t37 7zM612 104q0 -15 6.5 -21t20.5 -6q30 1 30 27q0 30 -30 30q-27 0 -27 -30zM635 478
q43 1 85.5 -13t80.5 -36q39 -22 71 -51q16 -14 43 -49.5t66 -97.5q-90 96 -117 114q-34 22 -58 33q-15 8 -29 12.5t-27 9.5q-27 8 -23 -4q2 -6 2 -11.5v-10.5q-9 -35 -30 -58q-11 -11 -26.5 -16.5t-36.5 -5.5q-39 0 -66 27t-27 67t26 64q26 25 66 26zM612 390q0 -29 27 -29
q30 1 30 29q0 31 -30 31q-27 0 -27 -31z" />
    <glyph glyph-name="VSAT_AI" unicode="&#x109d;" horiz-adv-x="599" 
d="M339 430q-13 0 -21 8t-8 19q0 9 8.5 18.5t20.5 9.5q10 0 18 -9t8 -19q0 -14 -8 -20.5t-18 -6.5zM458 315q-14 0 -21 9t-7 20q0 10 8 19t20 9q9 0 18 -9q9 -11 9 -19q0 -12 -8.5 -20.5t-18.5 -8.5zM406 385q-11 0 -18.5 7.5t-7.5 20.5q0 10 7.5 18t18.5 8t19 -7.5t8 -18.5
q0 -13 -8 -20.5t-19 -7.5zM339 77q10 0 18 -7.5t8 -20.5q0 -10 -7.5 -19t-18.5 -9q-13 0 -21 8.5t-8 19.5q0 13 8 20.5t21 7.5zM458 190q10 0 18.5 -7.5t8.5 -20.5q0 -10 -9 -19t-18 -9q-14 0 -21 8.5t-7 19.5q0 28 28 28zM406 121q11 0 19 -7.5t8 -18.5q0 -10 -7.5 -18.5
t-19.5 -8.5q-11 0 -18.5 8.5t-7.5 18.5q0 13 7.5 19.5t18.5 6.5zM475 281q11 0 19 -6.5t8 -17.5q0 -12 -8 -20.5t-19 -8.5t-18.5 8t-7.5 21q0 11 7.5 17.5t18.5 6.5zM171 430q-10 0 -17.5 8t-7.5 19q0 10 7 19t18 9q13 0 21 -9.5t8 -18.5q0 -14 -8 -20.5t-21 -6.5zM52 315
q-10 0 -18 9t-8 20q0 9 8.5 18.5t17.5 9.5q13 0 21.5 -9t8.5 -19q0 -12 -8.5 -20.5t-21.5 -8.5zM104 385q-26 0 -26 28q0 10 7 18t19 8q10 0 18.5 -7.5t8.5 -18.5q0 -13 -8.5 -20.5t-18.5 -7.5zM171 77q13 0 21 -7.5t8 -20.5q0 -9 -8 -18.5t-21 -9.5q-10 0 -17.5 8.5
t-7.5 19.5q0 13 7.5 20.5t17.5 7.5zM52 190q13 0 21.5 -7.5t8.5 -20.5q0 -10 -8.5 -19t-21.5 -9q-9 0 -18 9q-8 10 -8 19q0 13 8 20.5t18 7.5zM104 121q10 0 18.5 -7.5t8.5 -18.5q0 -10 -8 -18.5t-19 -8.5q-12 0 -19 8.5t-7 18.5q0 26 26 26zM260 60q11 0 18.5 -7.5
t7.5 -18.5t-8.5 -19.5t-17.5 -8.5q-11 0 -19 8.5t-8 19.5t8 18.5t19 7.5zM260 499q11 0 18.5 -7.5t7.5 -21.5q0 -10 -8.5 -17t-17.5 -7q-11 0 -19 7t-8 17q0 13 8 21t19 8zM35 281q11 0 19.5 -6.5t8.5 -17.5q0 -12 -8 -20.5t-20 -8.5q-11 0 -19 8t-8 21q0 11 8 17.5t19 6.5z
M281 790l-80 -2q2 34 12 55.5t27 38.5t39.5 26t48.5 9t49 -10t40 -27t27 -40t10 -49v-291h-76l2 286q-3 22 -17.5 35.5t-33.5 13.5q-17 0 -30 -10t-18 -35z" />
    <glyph glyph-name="shan.one" unicode="&#x109e;" horiz-adv-x="475" 
d="M73 756q0 -16 11.5 -27t27.5 -11t28.5 11t12.5 27q0 18 -12.5 29t-28.5 11t-27.5 -10.5t-11.5 -29.5zM5 756q0 22 8.5 41.5t23 34t34 22.5t41.5 8q21 0 40.5 -8.5t33.5 -22.5t22.5 -33.5t8.5 -41.5t-8.5 -41t-22.5 -33.5t-33.5 -22.5t-40.5 -8q-22 0 -41.5 8t-34 22.5
t-23 33.5t-8.5 41zM375 -319v-87h-234l-1 829h-139v86h223v-828h151z" />
    <glyph glyph-name="shan.xcla" unicode="&#x109f;" horiz-adv-x="865" 
d="M561 -295q-2 -22 7.5 -28.5t27.5 -4.5h83v682q0 51 -11 87t-30 62t-43 46t-50 40q-22 16 -44 36t-40.5 45t-31 57t-15.5 73q1 43 16 81.5t45 67.5q61 61 151 61q89 0 147 -61q14 -14 23.5 -27t20.5 -39l-77 -34q-12 27 -26 41q-34 37 -90 37q-57 0 -92 -35.5t-35 -93.5
q3 -29 13 -52t25 -42.5t34.5 -36.5t40.5 -34q28 -22 55 -48t49 -61t35.5 -82.5t13.5 -112.5v-657q0 -45 -20 -62t-63 -17h-120q-80 0 -82 73q-1 35 -1 87v111t1 119.5t1.5 113t1 92t0.5 55.5q0 46 -4.5 74.5t-14.5 58.5q-6 9 -13.5 18.5t-19.5 21.5q-54 57 -141 57
q-88 0 -145 -56t-57 -142q0 -89 56 -145q29 -29 65 -42t81 -13q19 0 38 3t44 13l20 -38q4 -7 9 -17l12 -24q-36 -12 -64 -17t-59 -5q-130 0 -208 78q-80 80 -80 207q0 124 81 204q83 80 207 80q62 0 113.5 -19t89.5 -61l19 -21q15 -22 25 -47.5t16 -58t8 -74t2 -95.5
q-1 -60 -1.5 -127.5t-0.5 -132.5t0.5 -122.5t1.5 -96.5z" />
    <glyph glyph-name="lang_mymr" unicode="&#x1700;" horiz-adv-x="3073" 
d="M1264 -179q-2 25 -27 25q-23 0 -24 -24q0 -26 24 -27t27 26zM1341 -176q0 -45 -30 -76q-28 -28 -74 -28q-48 0 -73 27q-30 28 -30 75q0 43 29 74q28 28 74 30q40 1 70 -29q31 -32 34 -73zM2847 93q0 25 -26 25q-24 0 -24 -24q-2 -26 24 -27q24 -2 26 26zM2847 393
q0 25 -26 25q-24 0 -24 -24q-1 -25 24 -27q25 0 26 26zM2925 96q0 -45 -31 -76q-26 -26 -73 -26q-49 0 -74 25q-29 29 -29 75q0 45 28 73q29 29 75 31q40 1 70 -30q29 -31 34 -72zM2925 396q0 -45 -31 -76q-30 -32 -73 -32q-44 0 -74 31q-29 31 -29 75q0 45 28 73t75 30
q41 2 70 -29t34 -72zM2536 806q4 -39 -37 -42q-36 -3 -41 36q0 28 -35 46q-15 8 -30.5 11.5t-32.5 4.5q-32 0 -55 -19q-25 -19 -30 -50q-9 -55 53 -113q10 -8 115 -69q21 -13 22 -33q0 -42 -39 -42q-11 0 -85 41q-51 29 -67 44q-40 37 -60 75t-20 81q1 35 12.5 63.5
t36.5 52.5q49 47 117 49q60 1 115 -39t61 -97zM2587 407l13 -15l6 -10l1 -2l4 -3q0 -3 -4 -3h-1v3v1q7 -12 7 -21q0 -17 -13 -29t-29 -12q-21 0 -35 23v3l-10 12q-55 64 -137 64q-76 0 -127 -51q-50 -52 -50 -123q0 -72 52 -124q52 -53 125 -53q46 0 80 14t54 43l11 16
q11 29 38 29q40 0 40 -38q0 -19 -23 -52q-32 -46 -81.5 -65.5t-118.5 -19.5q-108 -1 -181 70q-70 70 -70 180t69 179q73 74 182 74q62 0 117 -29q25 -14 45.5 -29t35.5 -32zM1818 -32v-329q0 -39 -40 -40q-39 -2 -39 40v329q0 31 39 33q40 0 40 -33zM2035 -401h-118
q-39 0 -39 40v329q0 31 39 33q41 0 41 -33v-290h77q38 0 40 -41q0 -38 -40 -38zM1667 135q53 -49 132 -49q54 2 93 23q-3 11 -15 26q-5 8 -10 14.5t-11 12.5q-52 52 -126 52q-59 0 -99 -28q6 -14 14 -26.5t22 -24.5zM1799 517q110 1 183 -72q72 -72 70 -183q0 -114 -71 -185
q-70 -72 -182 -74q-115 0 -187 73q-14 14 -26 28.5t-20 30.5q-10 18 -18 35.5t-8 34.5q0 36 43 58.5t147 21.5q111 -1 183 -71q11 -11 19.5 -24t17.5 -27q11 17 19.5 43.5t8.5 55.5q0 73 -52 127q-48 48 -119 51h3q-1 -20 -11.5 -42.5t-27.5 -39.5t-39 -27t-48 -10
q-34 0 -58.5 13.5t-42.5 39.5q-17 25 -23 53.5t2 63.5l72 -20q-3 -20 2 -31.5t13 -20.5q19 -21 37 -21q17 0 33 16q13 14 13 36t-22 41q11 5 21 9.5t19 7.5t21 5.5t28 3.5zM1402 806q5 -39 -37 -42q-35 -3 -41 36q0 28 -34 46q-15 8 -30.5 11.5t-32.5 4.5q-33 0 -56 -19
q-24 -19 -30 -50q-9 -54 53 -113q10 -8 115 -69q20 -12 23 -33q0 -42 -40 -42q-11 0 -84 41q-51 29 -68 44q-40 37 -60 75t-19 81q0 68 48 116q51 48 118 49q60 2 114 -39q57 -41 61 -97zM1330 121q-48 69 -123 69q-77 0 -126 -69q52 -54 126 -54q69 0 123 54zM1462 251
q0 -107 -74 -184q-68 -71 -181 -71q-125 0 -198 88q-10 7 -15 23q-38 61 -38 144q0 34 6 66t24 66q35 67 94 108q13 8 22 8q17 0 28 -13t11 -29q0 -19 -17 -33q-44 -29 -69 -77q-25 -47 -25 -96q0 -36 9 -57q64 76 168 76q103 0 166 -77q5 18 7.5 32.5t2.5 25.5
q0 114 -96 173q-18 13 -18 33q0 15 11 27.5t28 12.5q5 0 10.5 -1t10.5 -5q61 -37 97 -103q36 -65 36 -137zM529 219l-4 -5q8 -66 43 -98.5t83 -36.5q37 -3 56 3.5t33 14.5q28 15 34 56q5 32 -44 50t-145 18q-14 0 -28.5 -0.5t-27.5 -1.5zM349 214l-4 5q-8 1 -20 1h-23
q-52 0 -90.5 -6t-65.5 -16q-50 -19 -45 -45q5 -20 18 -34t27 -22q13 -8 30 -12.5t47 -5.5q51 -2 85.5 33.5t40.5 101.5zM431 301v-22h13v22q14 82 60 143q42 35 79 51.5t72 16.5q65 -1 114.5 -25.5t91.5 -75.5l-66 -36q-26 34 -60.5 48.5t-79.5 12.5q-32 -1 -57 -13t-42 -38
q-35 -52 -32 -106h21h16t15 1q22 2 40.5 1.5t35.5 0.5q41 0 77 -4.5t63.5 -18.5t45 -39.5t22.5 -67.5q-5 -67 -55.5 -109.5t-154.5 -42.5q-34 0 -60 7.5t-46 21.5q-42 27 -61 59q-10 17 -17.5 34.5t-11.5 37.5q-5 19 -7 33.5t-3 25.5h-12q-1 -11 -3 -25.5t-7 -33.5
q-7 -36 -29 -72q-11 -17 -26.5 -31t-35.5 -28q-21 -14 -44.5 -19t-62.5 -10q-13 -1 -33 1.5t-41.5 8.5t-42 15t-34.5 22q-26 23 -42 47.5t-15 58.5q1 42 20.5 67t54 38.5t82 17.5t103.5 4h41h20t14 -1q2 24 -7 52.5t-26 53.5q-18 26 -42.5 38t-56.5 13q-46 2 -80.5 -12.5
t-59.5 -48.5l-66 36q79 101 206 101q72 -2 154 -66q23 -29 36.5 -66t21.5 -79z" />
    <glyph glyph-name="TL_KA" unicode="&#x1950;" horiz-adv-x="518" 
d="M374 402q0 36 -7.5 60.5t-20.5 39.5t-31.5 21.5t-41.5 6.5q-31 0 -56 -8t-46 -22.5t-38 -32.5t-31 -39h-68l-20 186h76l9 -103h2q15 22 31.5 41t37 33t48 21.5t65.5 7.5q39 0 69.5 -9.5t52.5 -33t33.5 -63.5t11.5 -100v-409h-76v403z" />
    <glyph glyph-name="TL_XA" unicode="&#x1951;" horiz-adv-x="551" 
d="M406 284l-145 -18q-67 -7 -101 -32.5t-34 -76.5q0 -47 26.5 -68.5t72.5 -21.5q45 0 78 11.5t57 33.5q46 44 46 114v58zM66 428l-19 186h75l9 -105h3q16 26 32 46t35 33t43.5 19.5t57.5 6.5q88 0 134.5 -63.5t46.5 -183.5v-266l-65 -101h-12v94h-2q-30 -54 -75.5 -81
t-112.5 -27q-38 0 -69.5 12.5t-53.5 34.5t-34 53.5t-12 68.5q0 44 13 77t38 56t60 36t80 18l168 19q0 89 -30.5 129t-97.5 40q-25 0 -45.5 -4.5t-37.5 -16.5t-31 -32t-29 -49h-69z" />
    <glyph glyph-name="TL_NGA" unicode="&#x1952;" horiz-adv-x="576" 
d="M509 0h-77v342q0 191 -126 191q-66 0 -109 -54t-43 -137v-342h-76v499l64 101h12v-100h3q60 114 173 114q88 0 133.5 -63.5t45.5 -183.5v-367z" />
    <glyph glyph-name="TL_TSA" unicode="&#x1953;" horiz-adv-x="695" 
d="M287 258q0 -191 120 -191q63 0 103 54q37 49 41 125v96q0 191 -120 191q-32 0 -56.5 -13.5t-47.5 -40.5q-18 -25 -27.5 -56.5t-12.5 -68.5v-96zM284 503q14 25 31 46t38 35.5t46 22t57 7.5q83 0 127.5 -63.5t44.5 -183.5v-266l-65 -101h-12v100h-2q-29 -57 -73 -85.5
t-97 -28.5q-82 0 -125 63.5t-43 183.5v192q0 55 -8 80t-33 25q-12 0 -22 -8t-18 -22.5t-14.5 -32.5t-13.5 -39h-68l-20 186h76l9 -92h2q9 20 17 37t19.5 29t26.5 19t38 7q20 0 34.5 -9.5t25 -24.5t15.5 -35.5t7 -41.5z" />
    <glyph glyph-name="TL_SA" unicode="&#x1954;" horiz-adv-x="706" 
d="M287 257q0 -190 126 -190q30 0 55.5 14t44 38.5t28.5 58.5t10 76v346h77v-499l-65 -101h-12v95h-2q-51 -109 -156 -109q-182 0 -182 255v184q0 55 -8 80t-33 25q-12 0 -22 -8t-18 -22.5t-14.5 -32.5t-13.5 -39h-68l-20 186h76l9 -92h2q9 20 17 37t19.5 29t26.5 19t38 7
t39.5 -10.5t26.5 -29t14.5 -44t4.5 -55.5v-218z" />
    <glyph glyph-name="TL_YA" unicode="&#x1955;" horiz-adv-x="697" 
d="M619 50q0 -27 -12 -44.5t-36 -17.5q-14 0 -25.5 4t-25 15.5t-32 30t-47.5 50.5q-19 20 -33 34.5t-24 23.5t-18.5 13t-16.5 4q-9 0 -17.5 -4t-19 -13t-24 -23.5t-32.5 -34.5q-29 -32 -47.5 -50.5t-32 -30t-25 -15.5t-25.5 -4q-24 0 -36 17.5t-12 44.5v550h76v-496l75 75
q17 18 33 33t30 25.5t28 16t30 5.5q13 0 26 -5.5t26.5 -15.5t29 -25t34.5 -34l76 -75v496h77v-550z" />
    <glyph glyph-name="TL_TA" unicode="&#x1956;" horiz-adv-x="826" 
d="M450 240q0 -62 -12 -109.5t-37.5 -80t-61.5 -48.5t-81 -16q-96 0 -144 64.5t-48 190.5v258l64 101h13v-95h2q45 109 141 109q56 0 94 -29t57 -87h5q9 25 24 46t33.5 37.5t42.5 24.5t52 8q164 0 164 -255v-359h-76v343q0 190 -110 190q-26 0 -48.5 -14t-38.5 -38.5
t-25.5 -58.5t-9.5 -76v-106zM258 67q56 0 86 45t30 145v86q0 190 -109 190q-27 0 -49.5 -14t-38 -38.5t-25 -58.5t-9.5 -76v-89q0 -52 7.5 -88t22 -58t36 -33t49.5 -11z" />
    <glyph glyph-name="TL_THA" unicode="&#x1957;" horiz-adv-x="826" 
d="M130 600h13v-95h2q45 109 141 109q56 0 94 -29t57 -87h5q9 25 24 46t33.5 37.5t42.5 24.5t52 8q164 0 164 -255v-261l-62 -98h-11v95h-3q-45 -109 -141 -109q-56 0 -94.5 28.5t-58.5 87.5h-4q-24 -59 -64.5 -87.5t-88.5 -28.5q-165 0 -165 255v258zM450 247
q3 -180 111 -180q53 0 86 52q31 48 35 122v102q0 190 -110 190q-26 0 -48.5 -14t-38.5 -38.5t-25.5 -58.5t-9.5 -76v-99zM143 257q0 -190 110 -190q26 0 48 14t38 38.5t25.5 58.5t9.5 76v89q0 190 -109 190q-27 0 -49.5 -14t-38 -38.5t-25 -58.5t-9.5 -76v-89z" />
    <glyph glyph-name="TL_LA" unicode="&#x1958;" horiz-adv-x="561" 
d="M407 0v130q-9 -8 -18 -15t-19 -13t-21.5 -9.5t-25.5 -3.5q-15 0 -30.5 7t-31.5 18t-32.5 23.5t-31.5 23.5t-29 18t-24 7q-18 0 -28.5 -13t-10.5 -37q0 -23 10.5 -38t28.5 -15q13 0 20 2.5t17 5.5v-72q-4 -2 -17.5 -5.5t-29.5 -3.5q-24 0 -44 8t-33.5 24.5t-21 40
t-7.5 53.5q0 25 7 47.5t20 40t34 27t50 9.5q21 0 41 -6.5t37 -17t33.5 -23.5t30 -24t27.5 -18t26 -7t23 4t20.5 8t17 10l12.5 10v404h77v-600h-77z" />
    <glyph glyph-name="TL_PA" unicode="&#x1959;" horiz-adv-x="581" 
d="M438 0h-12v95h-2q-54 -109 -166 -109q-191 0 -191 255v359h77v-343q0 -190 134 -190q64 0 106 51.5t42 135.5v346h77v-499z" />
    <glyph glyph-name="TL_PHA" unicode="&#x195a;" horiz-adv-x="826" 
d="M758 97l-61 -97h-12v95h-3q-44 -109 -141 -109q-56 0 -94.5 29t-57.5 87h-5q-10 -25 -24.5 -46t-34 -37.5t-42.5 -24.5t-52 -8q-165 0 -165 255v359h77v-343q0 -190 110 -190q26 0 48 14t38 38.5t25.5 58.5t9.5 76v346h73v-95h3q45 109 142 109q166 0 166 -255v-262z
M682 343q0 190 -110 190q-26 0 -48 -13.5t-38 -36.5t-25.5 -56t-10.5 -73v-97q0 -190 111 -190q25 0 48 14t39 38.5t25 58.5t9 76v89z" />
    <glyph glyph-name="TL_MA" unicode="&#x195b;" horiz-adv-x="581" 
d="M438 0h-12v95h-2q-54 -109 -166 -109q-191 0 -191 255v359h77v-228h282v228h77v-499zM278 67q64 0 106 51.5t42 135.5v42h-282v-39q0 -190 134 -190z" />
    <glyph glyph-name="TL_FA" unicode="&#x195c;" horiz-adv-x="826" 
d="M686 95h-4q-44 -109 -141 -109q-55 0 -94 29t-58 87h-4q-11 -25 -25 -46t-33.5 -37.5t-43 -24.5t-52.5 -8q-165 0 -165 255v359h77v-343q0 -190 110 -190q26 0 48 14t38 38.5t25.5 58.5t9.5 76v346h73v-95h3q45 109 142 109q166 0 166 -255v-359q0 -54 -12 -90.5
t-32 -59.5t-47.5 -32.5t-57.5 -9.5q-37 0 -56 11v86q12 -8 24.5 -11.5t26.5 -3.5q20 0 35 6t25.5 19.5t16 36t5.5 53.5v90zM682 343q0 190 -110 190q-26 0 -48.5 -14t-38.5 -38.5t-25.5 -58.5t-9.5 -76v-89q0 -190 111 -190q25 0 48 14t39 38.5t25 58.5t9 76v89z" />
    <glyph glyph-name="TL_VA" unicode="&#x195d;" horiz-adv-x="570" 
d="M502 100l-64 -100h-12v95h-2q-53 -109 -165 -109q-193 0 -193 255v258l64 101h13v-100h2q62 114 177 114q87 0 133.5 -63.5t46.5 -183.5v-267zM186 479q-39 -51 -43 -125v-97q0 -190 135 -190q32 0 59.5 14t47 38.5t30.5 58.5t11 76v88q0 191 -128 191q-68 0 -112 -54z
" />
    <glyph glyph-name="TL_HA" unicode="&#x195e;" horiz-adv-x="826" 
d="M265 533q-27 0 -49 -13.5t-38 -36.5t-25 -56t-10 -73v-97q0 -190 110 -190q26 0 48 14t38 38.5t25.5 58.5t9.5 76v99q-4 180 -109 180zM450 0q0 -54 -11.5 -90.5t-32 -59.5t-48 -32.5t-57.5 -9.5q-36 0 -55 11v86q10 -8 23 -11.5t27 -3.5q20 0 35 6t25 19.5t16 36t6 53.5
v90h-4q-44 -109 -142 -109q-166 0 -166 255v258l64 101h13v-95h2q45 109 141 109q56 0 94 -29t57 -87h5q10 25 24.5 46t33 37.5t42.5 24.5t52 8q164 0 164 -255v-359h-76v343q0 190 -110 190q-26 0 -48 -13.5t-38 -36.5t-25.5 -56t-10.5 -73v-354z" />
    <glyph glyph-name="TL_QA" unicode="&#x195f;" horiz-adv-x="695" 
d="M211 402q0 36 -2.5 60.5t-8 39.5t-13.5 21.5t-16 6.5q-13 0 -23 -8t-18 -22.5t-14.5 -32.5t-13.5 -39h-68l-20 186h76l9 -92h2q9 22 17 38.5t19.5 28.5t26 18.5t34.5 6.5q32 0 54 -26t30 -88h2q30 57 72 85.5t96 28.5q42 0 74 -16t55 -47t35 -77.5t12 -106.5v-367h-77
v342q0 191 -120 191q-61 0 -104 -54q-40 -53 -40 -137v-259q0 -54 -12 -90.5t-32.5 -59t-48.5 -32.5t-60 -10q-35 0 -54 11v86q10 -8 22.5 -11t27.5 -3q41 0 61 24.5t20 84.5v319z" />
    <glyph glyph-name="TL_KHA" unicode="&#x1960;" horiz-adv-x="551" 
d="M406 94h-3q-29 -54 -74.5 -81t-113.5 -27q-37 0 -68.5 12.5t-53.5 34.5t-34 53.5t-12 68.5q0 44 13 77t38 56t60 36t80 18l168 19q0 89 -30.5 130.5t-97.5 41.5q-25 0 -45.5 -5.5t-37.5 -17.5t-31 -32t-29 -47h-69l-19 185h75l9 -105h3q16 27 32 46t35 32t43.5 20t57.5 7
q88 0 134.5 -64.5t46.5 -184.5v-367q0 -54 -12 -90.5t-33 -59.5t-49 -32.5t-59 -9.5q-36 0 -56 11v86q11 -8 23.5 -11.5t28.5 -3.5q20 0 34.5 6t24.5 19.5t15.5 36t5.5 53.5v89zM406 284l-145 -18q-67 -7 -101 -32.5t-34 -76.5q0 -47 26.5 -68.5t72.5 -21.5q45 0 78 11.5
t57 33.5q46 44 46 114v58z" />
    <glyph glyph-name="TL_TSHA" unicode="&#x1961;" horiz-adv-x="712" 
d="M287 257q0 -190 126 -190q30 0 55.5 14t44 38.5t28.5 58.5t10 76v346h77v-600q0 -54 -12 -90.5t-33 -59.5t-49 -32.5t-60 -9.5q-36 0 -55 11v86q11 -8 23.5 -11.5t27.5 -3.5q20 0 35 6t25.5 19t15.5 34t5 51v95h-2q-51 -109 -156 -109q-182 0 -182 255v184q0 55 -8 80
t-33 25q-12 0 -22 -8t-18 -22.5t-14.5 -32.5t-13.5 -39h-68l-20 186h76l9 -92h2q9 20 17 37t19.5 29t26.5 19t38 7t39.5 -10.5t26.5 -29t14.5 -44t4.5 -55.5v-218z" />
    <glyph glyph-name="TL_NA" unicode="&#x1962;" horiz-adv-x="628" 
d="M550 0h-76v490q-5 -14 -11.5 -27t-20.5 -33l-278 -430h-86v600h76v-485q4 9 9 18.5t16 27.5l283 439h88v-600z" />
    <glyph glyph-name="TL_A" unicode="&#x1963;" horiz-adv-x="232" 
d="M-43 900q97 0 148 -63.5t51 -183.5v-653h-77v640q0 48 -8.5 81.5t-24.5 55.5t-39 31.5t-50 9.5v82z" />
    <glyph glyph-name="TL_I" unicode="&#x1964;" horiz-adv-x="554" 
d="M277 900q97 0 148 -63.5t51 -183.5v-653h-62q-38 0 -78 15t-76 42t-64 64t-42 81v-202h-76v653q0 120 50 183.5t149 63.5zM206 301q0 -35 9.5 -64t24 -52.5t34.5 -41.5t41.5 -30.5t43 -19.5t40.5 -8v437q-17 0 -38.5 -6.5t-42.5 -20t-41.5 -32t-36 -43t-25 -54.5
t-9.5 -65zM399 607v33q0 48 -8.5 81.5t-24.5 55.5t-39 31.5t-50 9.5q-28 0 -51 -9.5t-38.5 -31.5t-24.5 -55.5t-9 -81.5v-245q15 49 41.5 88t60.5 66t71 42t72 16z" />
    <glyph glyph-name="TL_EE" unicode="&#x1965;" horiz-adv-x="554" 
d="M277 900q97 0 148 -63.5t51 -183.5v-653h-77v640q0 48 -8.5 81.5t-24.5 55.5t-39 31.5t-50 9.5q-28 0 -51 -9.5t-38.5 -31.5t-24.5 -55.5t-9 -81.5v-640h-76v653q0 120 50 183.5t149 63.5z" />
    <glyph glyph-name="TL_EH" unicode="&#x1966;" horiz-adv-x="554" 
d="M399 640q0 48 -8.5 81.5t-24.5 55.5t-39 31.5t-50 9.5q-28 0 -51 -9.5t-38.5 -31.5t-24.5 -55.5t-9 -81.5v-640h-76v653q0 120 50 183.5t149 63.5q97 0 148 -63.5t51 -183.5v-703q0 -58 -10 -100t-31.5 -70t-55 -42t-81.5 -14q-35 0 -58.5 4t-37.5 10v83q17 -8 39 -11.5
t48 -3.5q33 0 54.5 10t34 30t17 48t4.5 63v683z" />
    <glyph glyph-name="TL_U" unicode="&#x1967;" horiz-adv-x="232" 
d="M219 -413h-56q-39 0 -69.5 12t-50.5 35t-30.5 56t-10.5 72h59q0 -26 8 -45t22.5 -32.5t33 -20.5t39.5 -7h55v-70zM230 -276q-32 0 -59.5 9.5t-48 32.5t-32.5 59.5t-12 90.5v684h76v-679q0 -33 5 -54.5t15 -35t25.5 -19.5t35.5 -6h215v-82h-220z" />
    <glyph glyph-name="TL_OO" unicode="&#x1968;" horiz-adv-x="232" 
d="M230 -276q-32 0 -59 10t-48 32.5t-33 59t-12 90.5v684h76v-679q0 -31 5 -53.5t15 -36t25.5 -19.5t35.5 -6h215v-82h-220z" />
    <glyph glyph-name="TL_O" unicode="&#x1969;" horiz-adv-x="554" 
d="M277 -276q-99 0 -149 63.5t-50 183.5v629h76v-604q0 -46 9 -82t24.5 -60t38.5 -36t51 -12q27 0 50 12t39 36t24.5 60t8.5 82v604h77v-629q0 -120 -51 -183.5t-148 -63.5z" />
    <glyph glyph-name="TL_UE" unicode="&#x196a;" horiz-adv-x="554" 
d="M206 301q0 -35 9.5 -64t24 -53t34.5 -42t41.5 -30t43 -19t40.5 -8v437q-17 0 -38.5 -6.5t-42.5 -19t-41.5 -31.5t-36 -43t-25 -54.5t-9.5 -66.5zM399 607v33q0 48 -8.5 81.5t-24.5 55.5t-39 31.5t-50 9.5q-28 0 -51 -9.5t-38.5 -31.5t-24.5 -55.5t-9 -81.5v-245
q14 49 41 88t61.5 66t72 42t70.5 16zM78 653q0 120 50 183.5t149 63.5q97 0 148 -63.5t51 -183.5v-653h-62q-34 0 -73.5 14t-76.5 40t-66.5 63.5t-43.5 84.5v-245q0 -35 5 -63t17.5 -48t33.5 -30t55 -10q26 0 48 3.5t38 11.5v-83q-13 -6 -36.5 -10t-59.5 -4q-47 0 -80.5 14
t-55 42t-31.5 70t-10 100v703z" />
    <glyph glyph-name="TL_E" unicode="&#x196b;" horiz-adv-x="554" 
d="M78 653q0 120 50 183.5t149 63.5q97 0 148 -63.5t51 -183.5v-653h-77v640q0 48 -8.5 81.5t-24.5 55.5t-39 31.5t-50 9.5q-28 0 -51 -9.5t-38.5 -31.5t-24.5 -55.5t-9 -81.5v-683q0 -35 5 -63t17.5 -48t33.5 -30t55 -10q26 0 48 3.5t38 11.5v-83q-13 -6 -36.5 -10
t-59.5 -4q-47 0 -80.5 14t-55 42t-31.5 70t-10 100v703z" />
    <glyph glyph-name="TL_AUE" unicode="&#x196c;" horiz-adv-x="232" 
d="M450 888v-83h-215q-20 0 -35.5 -5.5t-25.5 -19t-15 -36t-5 -53.5v-691h-76v696q0 54 12 90.5t33 59t48 32.5t59 10h220z" />
    <glyph glyph-name="TL_AI" unicode="&#x196d;" horiz-adv-x="667" 
d="M423 67q67 0 97.5 47.5t30.5 142.5v343h77v-359q0 -63 -14.5 -111t-41 -80t-63.5 -48t-83 -16q-24 0 -45.5 3.5t-39.5 10.5t-31.5 16t-22.5 21v-5q0 -34 -12 -60.5t-32.5 -44.5t-48.5 -27.5t-60 -9.5q-35 0 -54 10v87q20 -15 50 -15q20 0 36 5.5t25.5 19.5t14.5 36t5 53
v339q0 55 -8 80t-33 25q-12 0 -22 -8t-18 -22.5t-14.5 -32.5t-13.5 -39h-68l-20 186h76l9 -92h2q9 20 17 37t19.5 29t26.5 19t38 7t39.5 -10.5t26.5 -29t14.5 -44t4.5 -55.5v-218q0 -95 32.5 -142.5t103.5 -47.5z" />
    <glyph glyph-name="TL_T_TWO" unicode="&#x1970;" horiz-adv-x="584" 
d="M574 6q-27 -19 -72 -19q-126 0 -126 176v355h-150q-2 -73 -6.5 -140.5t-11.5 -126.5t-19 -106.5t-30 -81.5t-43 -52.5t-58 -18.5q-21 0 -35 8v83q12 -11 26 -11q23 0 40 26.5t29 81.5t20.5 139t14.5 199h-91v82h391v-420q0 -60 16.5 -86t54.5 -26q14 0 26.5 5t23.5 15
v-82z" />
    <glyph glyph-name="TL_T_THREE" unicode="&#x1971;" horiz-adv-x="514" 
d="M143 316l126 18q57 7 87 32.5t30 76.5q0 47 -23 68.5t-62 21.5q-40 0 -67.5 -12t-50.5 -33q-21 -20 -30.5 -49.5t-9.5 -64.5v-58zM448 70q-14 -24 -34 -40t-44 -25t-53.5 -13t-63.5 -4q-91 0 -139 62.5t-48 182.5v147q0 60 19 104.5t51 73.5t75 42.5t91 13.5
q38 0 68 -12.5t51 -34.5t32.5 -53.5t11.5 -68.5q0 -44 -11.5 -77t-33.5 -56t-54 -36t-72 -18l-151 -19q0 -89 31.5 -128.5t99.5 -39.5q27 0 51.5 5.5t46.5 18t42 33t34 47.5v-105z" />
    <glyph glyph-name="TL_T_FOUR" unicode="&#x1972;" horiz-adv-x="642" 
d="M426 394q0 39 -8 65.5t-22.5 42.5t-36.5 23.5t-52 7.5q-37 0 -67 -11.5t-52 -32.5t-33.5 -50.5t-11.5 -64.5v-117q0 -190 135 -190q32 0 59.5 14t47 38.5t30.5 58.5t11 76v140zM429 109l-6 -14q-53 -109 -165 -109q-192 0 -192 255v139q0 60 20 104.5t54 73.5t79.5 42.5
t93.5 13.5q93 0 141 -50t48 -143v-256q2 -49 17 -72q16 -26 55 -26q14 0 26.5 5t23.5 15v-82q-27 -19 -72 -19q-106 0 -123 123z" />
    <glyph glyph-name="TL_T_FIVE" unicode="&#x1973;" horiz-adv-x="570" 
d="M373 616q29 0 53 -11t41 -32t26 -50t9 -66v-1v-6v-215q0 -120 -56 -183.5t-162 -63.5q-107 0 -162.5 63.5t-55.5 183.5v365h77v-352q0 -48 10 -81.5t28.5 -55t44 -31.5t58.5 -10q32 0 58 10t44.5 31.5t29 55t10.5 81.5v65q-12 -5 -23 -6.5t-25 -1.5q-29 0 -54 10.5
t-41.5 31t-26.5 50t-10 66.5q0 36 9.5 63.5t25.5 48t39.5 31t52.5 10.5zM376 380q28 0 44 22t16 58q0 37 -16.5 57.5t-44.5 20.5q-29 0 -45 -20t-16 -57t16.5 -59t45.5 -22z" />
    <glyph glyph-name="TL_T_SIX" unicode="&#x1974;" horiz-adv-x="514" 
d="M66 380q0 60 19 104.5t51 73.5t75 42.5t91 13.5q38 0 68 -12.5t51 -34.5t32.5 -53.5t11.5 -68.5v-17h-79v15q0 47 -23 68.5t-62 21.5q-40 0 -67.5 -12t-50.5 -33q-21 -20 -30.5 -49.5t-9.5 -64.5v-135q0 -89 31.5 -128.5t99.5 -39.5q27 0 51.5 5.5t46.5 18t42 33t34 47.5
v-105q-14 -24 -34 -40t-44 -25t-53.5 -13t-63.5 -4q-91 0 -139 62.5t-48 182.5v147z" />
    <glyph glyph-name="uni200A" unicode="&#x200a;" horiz-adv-x="125" 
 />
    <glyph glyph-name="uni200B" unicode="&#x200b;" horiz-adv-x="0" 
 />
    <glyph glyph-name="uni200C" unicode="&#x200c;" horiz-adv-x="0" 
d="M18 854v-1053h-36v1053h36z" />
    <glyph glyph-name="uni200D" unicode="&#x200d;" horiz-adv-x="0" 
d="M18 -199h-36v907l-65 -66l-24 24l84 83l-84 82l24 23l83 -83l83 83l24 -23l-84 -82l84 -83l-24 -24l-65 66v-907z" />
    <glyph glyph-name="uni200E" unicode="&#x200e;" horiz-adv-x="0" 
d="M210 750l-106 -105l-23 24l66 63h-129v-931h-36v966h165l-66 64l23 23z" />
    <glyph glyph-name="uni200F" unicode="&#x200f;" horiz-adv-x="0" 
d="M18 -199h-36v931h-129l66 -63l-23 -24l-106 105l106 104l23 -23l-66 -64h165v-966z" />
    <glyph glyph-name="uni2012" unicode="&#x2012;" horiz-adv-x="539" 
d="M495 247h-451v63h451v-63z" />
    <glyph glyph-name="endash" unicode="&#x2013;" horiz-adv-x="767" 
d="M0 245v83h767v-83h-767z" />
    <glyph glyph-name="emdash" unicode="&#x2014;" horiz-adv-x="1533" 
d="M0 245v83h1533v-83h-1533z" />
    <glyph glyph-name="uni2015" unicode="&#x2015;" horiz-adv-x="1000" 
d="M1000 247h-1000v63h1000v-63z" />
    <glyph glyph-name="quoteleft" unicode="&#x2018;" horiz-adv-x="250" 
d="M198 755q-18 -7 -48 -33q-33 -32 -38 -55q10 3 20 3q65 0 65 -58q0 -59 -67 -59q-68 0 -72 69q-5 83 82 133h58z" />
    <glyph glyph-name="quoteright" unicode="&#x2019;" horiz-adv-x="250" 
d="M197 687q5 -84 -82 -134h-58q18 7 48 34q33 31 38 55q-10 -4 -20 -4q-65 0 -65 59q0 58 67 58q68 0 72 -68z" />
    <glyph glyph-name="quotesinglbase" unicode="&#x201a;" horiz-adv-x="222" 
d="M160 25q0 -26 -2 -47t-7 -39.5t-12 -34.5t-17 -32h-60q22 32 34 64t12 64h-43v95h95v-70z" />
    <glyph glyph-name="quotedblleft" unicode="&#x201c;" horiz-adv-x="442" 
d="M387 755q-19 -7 -49 -33q-33 -32 -38 -55q10 3 20 3q65 0 65 -58q0 -59 -67 -59q-68 0 -71 69q-5 83 81 133h59zM198 755q-18 -7 -48 -33q-33 -32 -38 -55q10 3 20 3q65 0 65 -58q0 -59 -67 -59q-68 0 -72 69q-5 83 82 133h58z" />
    <glyph glyph-name="quotedblright" unicode="&#x201d;" horiz-adv-x="442" 
d="M385 687q5 -84 -82 -134h-58q18 7 48 34q34 31 39 55q-10 -4 -20 -4q-65 0 -65 59q0 58 66 58q69 0 72 -68zM197 687q5 -84 -82 -134h-58q18 7 48 34q33 31 38 55q-10 -4 -20 -4q-65 0 -65 59q0 58 67 58q68 0 72 -68z" />
    <glyph glyph-name="bullet" unicode="&#x2022;" horiz-adv-x="533" 
d="M475 333q0 -86 -62 -148q-60 -60 -146 -60q-85 0 -149 60q-60 63 -60 148q0 87 60 147q62 62 149 62q86 0 146 -62q62 -60 62 -147z" />
    <glyph glyph-name="ellipsis" unicode="&#x2026;" horiz-adv-x="1000" 
d="M448 124h104v-124h-104v124zM781 124h104v-124h-104v124zM115 124h104v-124h-104v124z" />
    <glyph glyph-name="guilsinglleft" unicode="&#x2039;" horiz-adv-x="400" 
d="M306 517v-93l-147 -131l147 -131v-93l-229 204v40z" />
    <glyph glyph-name="guilsinglright" unicode="&#x203a;" horiz-adv-x="333" 
d="M174 259l-129 221h73l148 -218l-148 -227h-73z" />
    <glyph glyph-name="Euro" unicode="&#x20ac;" horiz-adv-x="556" 
d="M337 62q48 0 77.5 24t36.5 69l90 -7q-6 -33 -21.5 -62t-40.5 -50t-61 -33.5t-83 -12.5q-59 0 -102 19t-72.5 53t-46.5 80.5t-24 102.5h-83l20 63h58q0 4 -0.5 15t-0.5 23q0 13 0.5 26t0.5 16h-78l20 62h63q7 60 24.5 106t48 78t72.5 48t98 16q48 0 83.5 -12t61 -33.5
t40.5 -50t22 -61.5l-91 -7q-6 44 -36 68.5t-81 24.5q-33 0 -59 -9.5t-45.5 -31t-31.5 -54.5t-18 -82h218l-19 -62h-202q-1 -8 -1 -19.5v-22.5v-20t1 -18h221l-19 -63h-198q5 -39 15 -73t29 -58.5t47 -38t67 -13.5z" />
    <glyph glyph-name="trademark" unicode="&#x2122;" horiz-adv-x="1000" 
d="M536 729l85 -125l80 125h83v-282h-55v236l-95 -148h-27l-99 148v-236h-56v282h84zM397 729v-46h-99v-236h-56v236h-98v46h253z" />
    <glyph glyph-name="minus" unicode="&#xe7;" horiz-adv-x="333" 
d="M32 215v88h270v-88h-270z" />
    <glyph glyph-name="minus" unicode="&#x2212;" horiz-adv-x="333" 
d="M32 215v88h270v-88h-270z" />
    <glyph glyph-name="dottedcircle" unicode="&#x25cc;" horiz-adv-x="610" 
d="M72 209l-60 -11q-6 23 -6 55q0 15 1 29.5t5 26.5l60 -10q-4 -11 -4.5 -22t-0.5 -24q0 -12 0.5 -23t4.5 -21zM152 92l-34 -50q-48 31 -78 79l49 36q24 -40 63 -65zM469 121q-29 -48 -76 -79l-35 50q40 25 64 65zM152 414q-39 -24 -63 -64l-49 36q15 24 34.5 43.5
t43.5 34.5zM469 386l-47 -36q-25 40 -64 64l35 50q24 -15 43 -34.5t33 -43.5zM504 253q0 -29 -6 -55l-59 11q6 21 6 44q0 24 -6 46l59 10q6 -26 6 -56zM309 6q-30 -6 -54 -6q-25 0 -55 6l10 60q12 -4 23 -4.5t22 -0.5t22 0.5t22 4.5zM309 502l-10 -61q-11 3 -22 4.5t-22 1.5
t-22 -1.5t-23 -4.5l-10 61q30 7 55 7q24 0 54 -7z" />
    <glyph glyph-name="CKT_GA" unicode="&#xaa60;" horiz-adv-x="933" 
d="M330 1q-30 5 -38 26t6 37q7 3 13 7q5 3 10.5 6t8.5 5l22 17q47 53 47 137q1 35 -11.5 63t-35.5 52q-23 23 -51 34.5t-63 11.5q-73 0 -119 -45q-46 -46 -45 -116q2 -43 11.5 -76.5t32.5 -61.5q5 -6 10 -10t10 -7t12.5 -7t18.5 -9q9 -8 12 -19t-0.5 -21.5t-13.5 -17.5
t-26 -7q-46 21 -72 49q-65 71 -65 187q0 101 66 166q34 34 75.5 49t92.5 15q100 -1 165 -64l14 -17q4 5 7.5 8.5t7.5 8.5q64 64 168 64q51 -1 91.5 -16.5t72.5 -47.5q65 -65 65 -166q0 -100 -66 -166q-65 -66 -163 -66h-13q-12 0 -21.5 1.5t-20.5 3.5l-18 3q3 23 8 44t14 39
q8 17 18 32t24 29q63 66 164 66h4q1 5 1.5 8.5t0.5 5.5q0 68 -46 115q-46 46 -115 46q-72 0 -118 -45q-18 -20 -27 -39q5 -17 7.5 -36.5t2.5 -40.5q0 -57 -15 -103.5t-49 -83.5q-14 -16 -30 -26.5t-41 -21.5zM715 120q-21 -22 -45 -32t-53 -13q-3 -3 8 11l17 19
q19 23 46 33.5t50 12.5q-2 -3 -8.5 -12.5t-14.5 -18.5z" />
    </font>
</defs>
</svg>
