<?xml version="1.0" standalone="no"?>
<!DOCTYPE svg PUBLIC "-//W3C//DTD SVG 1.1//EN" "http://www.w3.org/Graphics/SVG/1.1/DTD/svg11.dtd" >
<svg xmlns="http://www.w3.org/2000/svg" xmlns:xlink="http://www.w3.org/1999/xlink" version="1.1">
<metadata>
Created by FontForge 20141024 at Sun Mar 22 12:57:55 2015
 By System Administrator
Keith Stribley 2011 (ThanLwinSoft.org)
</metadata>
<defs>
<font id="ThanLwinFixed" horiz-adv-x="1160" >
  <font-face 
    font-family="ThanLwinFixed"
    font-weight="500"
    font-stretch="normal"
    units-per-em="1024"
    panose-1="2 0 6 9 0 0 0 0 0 0"
    ascent="712"
    descent="-312"
    x-height="500"
    cap-height="700"
    bbox="-894 -507 2860 958"
    underline-thickness="50"
    underline-position="-100"
    unicode-range="U+0020-25CC"
  />
<missing-glyph horiz-adv-x="374" 
d="M34 0v682h272v-682h-272zM68 34h204v614h-204v-614z" />
    <glyph glyph-name=".notdef" horiz-adv-x="374" 
d="M34 0v682h272v-682h-272zM68 34h204v614h-204v-614z" />
    <glyph glyph-name=".null" horiz-adv-x="0" 
 />
    <glyph glyph-name="nonmarkingreturn" horiz-adv-x="341" 
 />
    <glyph glyph-name="u0020" unicode=" " horiz-adv-x="580" 
d="M580 0z" />
    <glyph glyph-name="u0021" unicode="!" horiz-adv-x="580" 
d="M255 700h70v-518h-70v518zM290 0h-1q-23 0 -39 16.5t-16 39.5t16.5 39.5t39.5 16.5t39.5 -16.5t16.5 -39.5t-16.5 -39.5t-39.5 -16.5z" />
    <glyph glyph-name="u0022" unicode="&#x22;" horiz-adv-x="580" 
d="M185 700h70v-175h-70v175zM325 700h70v-175h-70v175z" />
    <glyph glyph-name="u0023" unicode="#" horiz-adv-x="580" 
d="M110 0l24 120h-120l14 70h120l24 120h-120l14 70h120l24 120h70l-24 -120h120l24 120h70l-24 -120h120l-14 -70h-120l-24 -120h120l-14 -70h-120l-24 -120h-70l24 120h-120l-24 -120h-70zM218 190h120l24 120h-120z" />
    <glyph glyph-name="u0024" unicode="$" horiz-adv-x="580" 
d="M540 508h-70q0 51 -42.5 86.5t-102.5 35.5v-245q89 0 152 -56.5t63 -136.5t-63 -136t-152 -56v-70h-70v70q-89 0 -152 56t-63 136h70q0 -51 42.5 -86.5t102.5 -35.5v245q-89 0 -152 56.5t-63 136.5t63 136t152 56v70h70v-70q89 0 152 -56t63 -136zM255 630
q-60 0 -102.5 -35.5t-42.5 -86.5t42.5 -87t102.5 -36v245zM325 315v-245q60 0 102.5 35.5t42.5 86.5t-42.5 87t-102.5 36z" />
    <glyph glyph-name="u0025" unicode="%" horiz-adv-x="580" 
d="M540 500l-408 -500h-92l408 500h92zM165 250h-1q-52 0 -88 36.5t-36 88.5t36 88.5t88 36.5t89 -36.5t37 -88.5t-36.5 -88.5t-88.5 -36.5zM164 320h1q23 0 39 16t16 39q0 22 -16.5 38.5t-39.5 16.5q-22 0 -38 -16t-16 -39t16 -39t38 -16zM415 0h-1q-52 0 -88 36.5
t-36 88.5t36 88.5t88 36.5t89 -36.5t37 -88.5t-36.5 -88.5t-88.5 -36.5zM414 70h1q23 0 39 16t16 39q0 22 -16.5 38.5t-39.5 16.5q-22 0 -38 -16t-16 -39t16 -39t38 -16z" />
    <glyph glyph-name="u0026" unicode="&#x26;" horiz-adv-x="580" 
d="M540 375q0 -155 -73 -265t-177 -110t-177 73t-73 177t73 177t177 73q27 0 46 19t19 46t-19 46t-46 19t-46 -19t-19 -46q0 -23 12 -38l333 -457l-57 -41l-332 457q-26 37 -26 79q0 56 39.5 95.5t95.5 39.5t95.5 -39.5t39.5 -95.5t-39.5 -95.5t-95.5 -39.5q-74 0 -127 -53
t-53 -127t53 -127t127 -53t127 89.5t53 215.5h70z" />
    <glyph glyph-name="u0027" unicode="'" horiz-adv-x="580" 
d="M255 700h70v-175h-70v175z" />
    <glyph glyph-name="u0028" unicode="(" horiz-adv-x="580" 
d="M322 -300q-55 96 -94.5 242.5t-39.5 257.5t39.5 257.5t94.5 242.5l61 -35q-52 -89 -88.5 -225.5t-36.5 -239.5t36.5 -239.5t88.5 -225.5z" />
    <glyph glyph-name="u0029" unicode=")" horiz-adv-x="580" 
d="M258 -300l-61 35q52 89 88.5 225.5t36.5 239.5t-36.5 239.5t-88.5 225.5l61 35q55 -96 94.5 -242.5t39.5 -257.5t-39.5 -257.5t-94.5 -242.5z" />
    <glyph glyph-name="u002a" unicode="*" horiz-adv-x="580" 
d="M357 500l165 -94q-12 -32 -35 -60l-164 96l2 -190q-20 -2 -35 -2t-35 2l2 190l-164 -96q-23 28 -35 60l165 94l-165 94q12 32 35 60l164 -96l-2 190q20 2 35 2t35 -2l-2 -190l164 96q23 -28 35 -60z" />
    <glyph glyph-name="u002b" unicode="+" horiz-adv-x="580" 
d="M40 285h215v215h70v-215h215v-70h-215v-215h-70v215h-215v70z" />
    <glyph glyph-name="u002c" unicode="," horiz-adv-x="580" 
d="M290 0q-23 0 -39.5 16.5t-16.5 39.5t16.5 39.5t39.5 16.5t39.5 -16.5t16.5 -39.5q0 -58 -33 -99t-79 -41q23 0 39.5 24.5t16.5 59.5z" />
    <glyph glyph-name="u002d" unicode="-" horiz-adv-x="580" 
d="M165 285h250v-70h-250v70z" />
    <glyph glyph-name="u002e" unicode="." horiz-adv-x="580" 
d="M290 0h-1q-23 0 -39 16.5t-16 39.5t16.5 39.5t39.5 16.5t39.5 -16.5t16.5 -39.5t-16.5 -39.5t-39.5 -16.5z" />
    <glyph glyph-name="u002f" unicode="/" horiz-adv-x="580" 
d="M540 700l-418 -700h-82l418 700h82z" />
    <glyph glyph-name="u0030" unicode="0" horiz-adv-x="580" 
d="M290 0h-1q-103 0 -176 102.5t-73 247.5t73.5 247.5t176.5 102.5t176.5 -102.5t73.5 -247.5t-73.5 -247.5t-176.5 -102.5zM289 70h1q74 0 127 82t53 198t-53 198t-127 82t-127 -82t-53 -198t52.5 -198t126.5 -82z" />
    <glyph glyph-name="u0031" unicode="1" horiz-adv-x="580" 
d="M188 566l134 134h70v-700h-70v601l-85 -85z" />
    <glyph glyph-name="u0032" unicode="2" horiz-adv-x="580" 
d="M540 0h-500l368 321q26 23 44 62.5t18 73.5q0 74 -53 127t-127 53t-127 -53t-53 -127h-70q0 103 73 176.5t177 73.5t177 -73.5t73 -176.5q0 -47 -25.5 -102.5t-60.5 -86.5l-227 -198h313v-70z" />
    <glyph glyph-name="u0033" unicode="3" horiz-adv-x="580" 
d="M40 508q0 79 73 135.5t177 56.5t177 -56.5t73 -135.5q0 -41 -31 -87.5t-75 -70.5q44 -24 75 -70.5t31 -87.5q0 -79 -73 -135.5t-177 -56.5t-177 56.5t-73 135.5h70q0 -51 53 -86.5t127 -35.5t127 35.5t53 86.5t-53 87t-127 36v70q74 0 127 36t53 87t-53 86.5t-127 35.5
t-127 -35.5t-53 -86.5h-70z" />
    <glyph glyph-name="u0034" unicode="4" horiz-adv-x="580" 
d="M415 700h70v-500h55v-70h-55v-130h-70v130h-375v70zM128 200h287v383z" />
    <glyph glyph-name="u0035" unicode="5" horiz-adv-x="580" 
d="M63 144l64 30q20 -43 68 -73.5t95 -30.5q74 0 127 53t53 127t-53 127t-127 53q-27 0 -61 -12.5t-55 -29.5q-22 -19 -52 -19q-34 0 -58 24t-24 58v144q0 43 31 74t74 31h395v-70h-395q-14 0 -24.5 -10.5t-10.5 -24.5v-144q0 -5 4 -8.5t8 -3.5t7 3q28 24 75.5 41t85.5 17
q104 0 177 -73t73 -177t-73 -177t-177 -73q-66 0 -132.5 42t-94.5 102z" />
    <glyph glyph-name="u0036" unicode="6" horiz-adv-x="580" 
d="M136 447q28 22 73 37.5t81 15.5q104 0 177 -73t73 -177t-73 -177t-177 -73t-177 73t-73 177q0 186 73.5 318t176.5 132q38 0 77 -22l-21 -67q-28 19 -56 19q-42 0 -87 -53.5t-67 -129.5zM290 70h1q74 0 126.5 53t52.5 127t-53 127t-127 53t-127 -53t-53 -127t53 -127
t127 -53z" />
    <glyph glyph-name="u0037" unicode="7" horiz-adv-x="580" 
d="M40 0l385 630h-385v70h500l-421 -700h-79z" />
    <glyph glyph-name="u0038" unicode="8" horiz-adv-x="580" 
d="M146 350q-44 24 -75 70.5t-31 87.5q0 79 73 135.5t177 56.5t177 -56.5t73 -135.5q0 -41 -31 -87.5t-75 -70.5q44 -24 75 -70.5t31 -87.5q0 -79 -73 -135.5t-177 -56.5t-177 56.5t-73 135.5q0 41 31 87.5t75 70.5zM290 385q74 0 127 36.5t53 86.5q0 51 -53 86.5t-127 35.5
t-127 -35.5t-53 -86.5q0 -50 52.5 -86.5t126.5 -36.5h1zM290 70q74 0 127 36t53 86q0 51 -53 87t-127 36t-127 -36t-53 -87q0 -50 52.5 -86t126.5 -36h1z" />
    <glyph glyph-name="u0039" unicode="9" horiz-adv-x="580" 
d="M444 253q-28 -22 -73 -37.5t-81 -15.5q-104 0 -177 73t-73 177t73 177t177 73t177 -73t73 -177q0 -186 -73.5 -318t-176.5 -132q-38 0 -77 22l21 67q28 -19 56 -19q42 0 87 53.5t67 129.5zM290 270h1q74 0 126.5 53t52.5 127t-53 127t-127 53t-127 -53t-53 -127t53 -127
t127 -53z" />
    <glyph glyph-name="u003a" unicode=":" horiz-adv-x="580" 
d="M290 0h-1q-23 0 -39 16.5t-16 39.5t16.5 39.5t39.5 16.5t39.5 -16.5t16.5 -39.5t-16.5 -39.5t-39.5 -16.5zM290 388h-1q-23 0 -39 16.5t-16 39.5t16.5 39.5t39.5 16.5t39.5 -16.5t16.5 -39.5t-16.5 -39.5t-39.5 -16.5z" />
    <glyph glyph-name="u003b" unicode=";" horiz-adv-x="580" 
d="M310 0q-23 0 -39.5 16.5t-16.5 39.5t16.5 39.5t39.5 16.5t39.5 -16.5t16.5 -39.5q0 -58 -33 -99t-79 -41q23 0 39.5 24.5t16.5 59.5zM310 388h-1q-23 0 -39 16.5t-16 39.5t16.5 39.5t39.5 16.5t39.5 -16.5t16.5 -39.5t-16.5 -39.5t-39.5 -16.5z" />
    <glyph glyph-name="u003c" unicode="&#x3c;" horiz-adv-x="580" 
d="M540 0l-500 250l500 250v-78l-343 -172l343 -172v-78z" />
    <glyph glyph-name="u003d" unicode="=" horiz-adv-x="580" 
d="M40 180h500v-70h-500v70zM40 320h500v-70h-500v70z" />
    <glyph glyph-name="u003e" unicode="&#x3e;" horiz-adv-x="580" 
d="M40 0v78l343 172l-343 172v78l500 -250z" />
    <glyph glyph-name="u003f" unicode="?" horiz-adv-x="580" 
d="M78 488q0 88 62 150t150 62t150 -62t62 -150q0 -51 -31 -105t-75 -79q-29 -17 -50 -53t-21 -70h-70q0 51 31 105t75 79q29 17 50 53t21 70q0 58 -42 100t-100 42t-100 -42t-42 -100h-70zM290 0h-1q-23 0 -39 16.5t-16 39.5t16.5 39.5t39.5 16.5t39.5 -16.5t16.5 -39.5
t-16.5 -39.5t-39.5 -16.5z" />
    <glyph glyph-name="u0040" unicode="@" horiz-adv-x="580" 
d="M450 375v-180q23 0 39 34t16 83q0 74 -53 127t-127 53q-103 0 -176.5 -73t-73.5 -177t73.5 -177t176.5 -73q43 0 95 22t82 52l49 -50q-39 -39 -105 -66.5t-121 -27.5q-133 0 -226.5 93.5t-93.5 226.5t93.5 226.5t226.5 93.5q103 0 176.5 -73t73.5 -177
q0 -78 -36.5 -132.5t-88.5 -54.5h-70v13q-26 -13 -55 -13q-52 0 -88.5 36.5t-36.5 88.5t36.5 88.5t88.5 36.5q29 0 55 -13v13h70zM325 195h1q22 0 38 16t16 39t-16 39t-38 16q-23 0 -39.5 -16.5t-16.5 -38.5t16 -38.5t39 -16.5z" />
    <glyph glyph-name="u0041" unicode="A" horiz-adv-x="580" 
d="M40 0l215 700h70l215 -700h-73l-56 180h-242l-56 -180h-73zM190 250h200l-100 326z" />
    <glyph glyph-name="u0042" unicode="B" horiz-adv-x="580" 
d="M40 700h250q104 0 177 -56.5t73 -135.5q0 -41 -31 -87.5t-75 -70.5q44 -24 75 -70.5t31 -87.5q0 -79 -73 -135.5t-177 -56.5h-250v700zM110 630v-245h180q74 0 127 36t53 87t-53 86.5t-127 35.5h-180zM110 315v-245h180q74 0 127 35.5t53 86.5t-53 87t-127 36h-180z" />
    <glyph glyph-name="u0043" unicode="C" horiz-adv-x="580" 
d="M507 525l-61 -35q-22 58 -67.5 99t-88.5 41q-74 0 -127 -82t-53 -198t53 -198t127 -82q43 0 88.5 41t67.5 99l61 -35q-30 -73 -93.5 -124t-123.5 -51q-103 0 -176.5 102.5t-73.5 247.5t73.5 247.5t176.5 102.5q60 0 123.5 -51t93.5 -124z" />
    <glyph glyph-name="u0044" unicode="D" horiz-adv-x="580" 
d="M40 700h250q103 0 176.5 -102.5t73.5 -247.5t-73.5 -247.5t-176.5 -102.5h-250v700zM110 630v-560h180q74 0 127 82t53 198t-53 198t-127 82h-180z" />
    <glyph glyph-name="u0045" unicode="E" horiz-adv-x="580" 
d="M40 700h500v-70h-430v-245h270v-70h-270v-245h430v-70h-500v700z" />
    <glyph glyph-name="u0046" unicode="F" horiz-adv-x="580" 
d="M40 700h500v-70h-430v-245h270v-70h-270v-315h-70v700z" />
    <glyph glyph-name="u0047" unicode="G" horiz-adv-x="580" 
d="M507 525l-61 -35q-22 58 -67.5 99t-88.5 41q-74 0 -127 -82t-53 -198t53 -198t127 -82q43 0 88.5 41t67.5 99l5 8q4 5 4 18q0 14 -10.5 24.5t-24.5 10.5h-189v70h189q44 0 74.5 -30.5t30.5 -74.5q0 -30 -14 -53l-4 -8q-30 -73 -93.5 -124t-123.5 -51q-103 0 -176.5 102.5
t-73.5 247.5t73.5 247.5t176.5 102.5q60 0 123.5 -51t93.5 -124z" />
    <glyph glyph-name="u0048" unicode="H" horiz-adv-x="580" 
d="M40 700h70v-315h360v315h70v-700h-70v315h-360v-315h-70v900v-200z" />
    <glyph glyph-name="u0049" unicode="I" horiz-adv-x="580" 
d="M185 700h210v-70h-70v-560h70v-70h-210v70h70v560h-70v70z" />
    <glyph glyph-name="u004a" unicode="J" horiz-adv-x="580" 
d="M40 250h70q0 -74 53 -127t127 -53t127 53t53 127v450h70v-450q0 -104 -73 -177t-177 -73t-177 73t-73 177z" />
    <glyph glyph-name="u004b" unicode="K" horiz-adv-x="580" 
d="M40 700h70v-305l319 305h111l-375 -350l375 -350h-111l-319 305v-305h-70v700z" />
    <glyph glyph-name="u004c" unicode="L" horiz-adv-x="580" 
d="M40 700h70v-630h430v-70h-500v700z" />
    <glyph glyph-name="u004d" unicode="M" horiz-adv-x="580" 
d="M40 700h70l180 -592l180 592h70v-700h-70v483l-143 -483h-74l-143 483v-483h-70v700z" />
    <glyph glyph-name="u004e" unicode="N" horiz-adv-x="580" 
d="M40 700h70l360 -576v576h70v-700h-70l-360 576v-576h-70v700z" />
    <glyph glyph-name="u004f" unicode="O" horiz-adv-x="580" 
d="M290 0h-1q-103 0 -176 102.5t-73 247.5t73.5 247.5t176.5 102.5t176.5 -102.5t73.5 -247.5t-73.5 -247.5t-176.5 -102.5zM289 70h1q74 0 127 82t53 198t-53 198t-127 82t-127 -82t-53 -198t52.5 -198t126.5 -82z" />
    <glyph glyph-name="u0050" unicode="P" horiz-adv-x="580" 
d="M40 700h250q104 0 177 -56.5t73 -135.5q0 -80 -73.5 -136.5t-176.5 -56.5h-180v-315h-70v700zM110 630v-245h180q74 0 127 36t53 87t-53 86.5t-127 35.5h-180z" />
    <glyph glyph-name="u0051" unicode="Q" horiz-adv-x="580" 
d="M436 66l99 -100l-54 -44l-88 109q-49 -31 -103 -31q-103 0 -176.5 102.5t-73.5 247.5t73.5 247.5t176.5 102.5t176.5 -102.5t73.5 -247.5q0 -74 -30.5 -157t-73.5 -127zM290 70h1q74 0 126.5 82t52.5 198t-53 198t-127 82t-127 -82t-53 -198t53 -198t127 -82z" />
    <glyph glyph-name="u0052" unicode="R" horiz-adv-x="580" 
d="M40 700h250q104 0 177 -56.5t73 -135.5q0 -80 -73.5 -136.5t-176.5 -56.5h-74l324 -315h-106l-324 315v-315h-70v700zM110 630v-245h180q74 0 127 36t53 87t-53 86.5t-127 35.5h-180z" />
    <glyph glyph-name="u0053" unicode="S" horiz-adv-x="580" 
d="M540 508h-70q0 51 -53 86.5t-127 35.5t-127 -35.5t-53 -86.5t53 -87t127 -36q103 0 176.5 -56.5t73.5 -136.5q0 -79 -73 -135.5t-177 -56.5t-177 56.5t-73 135.5h70q0 -51 53 -86.5t127 -35.5t127 35.5t53 86.5t-53 87t-127 36q-103 0 -176.5 56.5t-73.5 136.5
q0 79 73 135.5t177 56.5t177 -56.5t73 -135.5z" />
    <glyph glyph-name="u0054" unicode="T" horiz-adv-x="580" 
d="M40 700h500v-70h-215v-630h-70v630h-215v-70v140z" />
    <glyph glyph-name="u0055" unicode="U" horiz-adv-x="580" 
d="M40 700h70v-508q0 -51 53 -86.5t127 -35.5t127 35.5t53 86.5v508h70v-508q0 -79 -73 -135.5t-177 -56.5t-177 56.5t-73 135.5v508z" />
    <glyph glyph-name="u0056" unicode="V" horiz-adv-x="580" 
d="M40 700h74l176 -492l176 492h74l-250 -700z" />
    <glyph glyph-name="u0057" unicode="W" horiz-adv-x="580" 
d="M40 700h71l71 -349l72 349h71l71 -349l71 349h72l-143 -700l-107 525l-107 -525z" />
    <glyph glyph-name="u0058" unicode="X" horiz-adv-x="580" 
d="M40 700h82l168 -273l168 273h82l-209 -350l209 -350h-82l-168 273l-168 -273h-82l209 350z" />
    <glyph glyph-name="u0059" unicode="Y" horiz-adv-x="580" 
d="M40 700h82l168 -273l168 273h82l-215 -350v-350h-70v350z" />
    <glyph glyph-name="u005a" unicode="Z" horiz-adv-x="580" 
d="M40 700h500v-70l-406 -560h406v-70h-500v70l406 560h-406v-70v140z" />
    <glyph glyph-name="u005b" unicode="[" horiz-adv-x="580" 
d="M185 700h210v-70h-140v-860h140v-70h-210v1000z" />
    <glyph glyph-name="u005c" unicode="\" horiz-adv-x="580" 
d="M40 700h82l418 -700h-82z" />
    <glyph glyph-name="u005d" unicode="]" horiz-adv-x="580" 
d="M395 700v-1000h-210v70h140v860h-140v70h210z" />
    <glyph glyph-name="u005e" unicode="^" horiz-adv-x="580" 
d="M115 550l175 175l175 -175h-99l-76 76l-76 -76h-99z" />
    <glyph glyph-name="u005f" unicode="_" horiz-adv-x="580" 
d="M0 -50h580v-70h-580v70z" />
    <glyph glyph-name="u0060" unicode="`" horiz-adv-x="580" 
d="M164 900l350 -350h-98l-350 350h98z" />
    <glyph glyph-name="u0061" unicode="a" horiz-adv-x="580" 
d="M40 333q0 69 73.5 118t176.5 49t176.5 -49t73.5 -118v-333h-70v51q-31 -21 -83.5 -36t-96.5 -15q-103 0 -176.5 49t-73.5 118t73 117.5t177 48.5h180q0 40 -53 68.5t-127 28.5t-127 -28.5t-53 -68.5h-70zM470 263h-180q-74 0 -127 -28t-53 -68t53 -68.5t127 -28.5
t127 28.5t53 68.5v193v-97z" />
    <glyph glyph-name="u0062" unicode="b" horiz-adv-x="580" 
d="M40 700h70v-277q31 32 83.5 54.5t96.5 22.5q104 0 177 -73t73 -177t-73 -177t-177 -73q-44 0 -96.5 22.5t-83.5 54.5v-77h-70v700zM290 70q74 0 127 53t53 127t-53 127t-127 53t-127 -53t-53 -127t52.5 -127t126.5 -53h1z" />
    <glyph glyph-name="u0063" unicode="c" horiz-adv-x="580" 
d="M507 375l-61 -35q-22 37 -67.5 63.5t-88.5 26.5q-74 0 -127 -53t-53 -127t53 -127t127 -53q43 0 88.5 26.5t67.5 63.5l61 -35q-30 -52 -93.5 -88.5t-123.5 -36.5q-104 0 -177 73t-73 177t73 177t177 73q60 0 123.5 -36.5t93.5 -88.5z" />
    <glyph glyph-name="u0064" unicode="d" horiz-adv-x="580" 
d="M540 700v-700h-70v77q-31 -32 -83.5 -54.5t-96.5 -22.5q-104 0 -177 73t-73 177t73 177t177 73q44 0 96.5 -22.5t83.5 -54.5v277h70zM290 70h1q74 0 126.5 53t52.5 127t-53 127t-127 53t-127 -53t-53 -127t53 -127t127 -53z" />
    <glyph glyph-name="u0065" unicode="e" horiz-adv-x="580" 
d="M540 250h-430q0 -74 53 -127t127 -53q43 0 88.5 26.5t67.5 63.5l61 -35q-30 -52 -93.5 -88.5t-123.5 -36.5q-104 0 -177 73t-73 177t73 177t177 73t177 -73t73 -177zM123 320h334q-19 46 -68 79t-99 33t-99 -33t-68 -79z" />
    <glyph glyph-name="u0066" unicode="f" horiz-adv-x="580" 
d="M228 0v430h-126v70h126v75q0 52 36 88.5t88 36.5t89 -36.5t37 -88.5h-70q0 22 -16.5 38.5t-39.5 16.5q-22 0 -38 -16t-16 -39v-75h180v-70h-180v-430h-70z" />
    <glyph glyph-name="u0067" unicode="g" horiz-adv-x="580" 
d="M540 500v-550q0 -104 -73 -177t-177 -73t-177 73t-73 177h70q0 -74 53 -127t127 -53t127 53t53 127v127q-31 -32 -83.5 -54.5t-96.5 -22.5q-104 0 -177 73t-73 177t73 177t177 73q44 0 96.5 -22.5t83.5 -54.5v77h70zM290 70h1q74 0 126.5 53t52.5 127t-53 127t-127 53
t-127 -53t-53 -127t53 -127t127 -53z" />
    <glyph glyph-name="u0068" unicode="h" horiz-adv-x="580" 
d="M40 700h70v-277q31 32 83.5 54.5t96.5 22.5q104 0 177 -73t73 -177v-250h-70v250q0 74 -53 127t-127 53t-127 -53t-53 -127v-250h-70v700z" />
    <glyph glyph-name="u0069" unicode="i" horiz-adv-x="580" 
d="M255 500h70v-500h-70v500zM290 606h-1q-23 0 -39 16.5t-16 39.5t16.5 39.5t39.5 16.5t39.5 -16.5t16.5 -39.5t-16.5 -39.5t-39.5 -16.5z" />
    <glyph glyph-name="u006a" unicode="j" horiz-adv-x="580" 
d="M165 -175h70q0 -23 16.5 -39t38.5 -16t38.5 16t16.5 39v675h70v-675q0 -52 -36.5 -88.5t-88.5 -36.5t-88.5 36.5t-36.5 88.5zM380 606h-1q-23 0 -39 16.5t-16 39.5t16.5 39.5t39.5 16.5t39.5 -16.5t16.5 -39.5t-16.5 -39.5t-39.5 -16.5z" />
    <glyph glyph-name="u006b" unicode="k" horiz-adv-x="580" 
d="M40 700h70v-394l340 194h90l-385 -250l385 -250h-90l-340 194v-194h-70v700z" />
    <glyph glyph-name="u006c" unicode="l" horiz-adv-x="580" 
d="M255 700h70v-700h-70v700z" />
    <glyph glyph-name="u006d" unicode="m" horiz-adv-x="580" 
d="M40 500h70v-35q35 35 73 35q27 0 58.5 -25t49.5 -61q18 36 49.5 61t58.5 25q59 0 101 -73t42 -177v-250h-70v250q0 74 -21.5 127t-51.5 53t-51.5 -53t-21.5 -127v-250h-70v250q0 74 -21.5 127t-51.5 53t-51.5 -53t-21.5 -127v-250h-70v500z" />
    <glyph glyph-name="u006e" unicode="n" horiz-adv-x="580" 
d="M40 500h70v-77q31 32 83.5 54.5t96.5 22.5q104 0 177 -73t73 -177v-250h-70v250q0 74 -53 127t-127 53t-127 -53t-53 -127v-250h-70v500z" />
    <glyph glyph-name="u006f" unicode="o" horiz-adv-x="580" 
d="M290 0h-1q-103 0 -176 73t-73 177t73 177t177 73t177 -73t73 -177t-73 -177t-177 -73zM289 70h1q74 0 127 53t53 127t-53 127t-127 53t-127 -53t-53 -127t52.5 -127t126.5 -53z" />
    <glyph glyph-name="u0070" unicode="p" horiz-adv-x="580" 
d="M40 500h70v-77q31 32 83.5 54.5t96.5 22.5q104 0 177 -73t73 -177t-73 -177t-177 -73q-44 0 -96.5 22.5t-83.5 54.5v-377h-70v500v300zM290 70q74 0 127 53t53 127t-53 127t-127 53t-127 -53t-53 -127t52.5 -127t126.5 -53h1z" />
    <glyph glyph-name="u0071" unicode="q" horiz-adv-x="580" 
d="M540 500v-800h-70v377q-31 -32 -83.5 -54.5t-96.5 -22.5q-104 0 -177 73t-73 177t73 177t177 73q44 0 96.5 -22.5t83.5 -54.5v77h70zM290 70h1q74 0 126.5 53t52.5 127t-53 127t-127 53t-127 -53t-53 -127t53 -127t127 -53z" />
    <glyph glyph-name="u0072" unicode="r" horiz-adv-x="580" 
d="M40 500h70v-122q60 51 186 86.5t244 35.5v-70q-178 0 -304 -53t-126 -127v-250h-70v500z" />
    <glyph glyph-name="u0073" unicode="s" horiz-adv-x="580" 
d="M540 358h-70q0 30 -53 51t-127 21t-127 -21t-53 -51t53 -51.5t127 -21.5q104 0 177 -42t73 -101t-73 -100.5t-177 -41.5t-177 41.5t-73 100.5h70q0 -30 53 -51t127 -21t127 21t53 51t-53 51.5t-127 21.5q-104 0 -177 42t-73 101t73 100.5t177 41.5t177 -41.5t73 -100.5z
" />
    <glyph glyph-name="u0074" unicode="t" horiz-adv-x="580" 
d="M228 700h70v-200h180v-70h-180v-305q0 -23 16 -39t38 -16q23 0 39.5 16.5t16.5 38.5h70q0 -52 -37 -88.5t-89 -36.5t-88 36.5t-36 88.5v305h-126v70h126v200z" />
    <glyph glyph-name="u0075" unicode="u" horiz-adv-x="580" 
d="M540 0h-70v77q-31 -32 -83.5 -54.5t-96.5 -22.5q-104 0 -177 73t-73 177v250h70v-250q0 -74 53 -127t127 -53t127 53t53 127v250h70v-500z" />
    <glyph glyph-name="u0076" unicode="v" horiz-adv-x="580" 
d="M40 500h78l172 -343l172 343h78l-250 -500z" />
    <glyph glyph-name="u0077" unicode="w" horiz-adv-x="580" 
d="M40 500h73l69 -245l70 245h73l70 -245l69 245h73l-142 -500l-106 372l-107 -372z" />
    <glyph glyph-name="u0078" unicode="x" horiz-adv-x="580" 
d="M40 500h92l158 -183l158 183h92l-204 -250l204 -250h-92l-158 183l-158 -183h-92l204 250z" />
    <glyph glyph-name="u0079" unicode="y" horiz-adv-x="580" 
d="M40 500h76l174 -413l174 413h76l-212 -500l-127 -300h-76l127 300z" />
    <glyph glyph-name="u007a" unicode="z" horiz-adv-x="580" 
d="M40 500h500v-70l-380 -360h380v-70h-500v70l380 360h-380v-70v140z" />
    <glyph glyph-name="u007b" unicode="{" horiz-adv-x="580" 
d="M415 700v-70q-23 0 -39 -89.5t-16 -215.5q0 -29 -13 -66t-32 -59q19 -22 32 -59t13 -66q0 -126 16 -215.5t39 -89.5v-70q-52 0 -88.5 110t-36.5 265q0 52 -36.5 88.5t-88.5 36.5q52 0 88.5 36.5t36.5 88.5q0 155 36.5 265t88.5 110z" />
    <glyph glyph-name="u007c" unicode="|" horiz-adv-x="580" 
d="M255 700h70v-1000h-70v1000z" />
    <glyph glyph-name="u007d" unicode="}" horiz-adv-x="580" 
d="M165 700q52 0 88.5 -110t36.5 -265q0 -52 36.5 -88.5t88.5 -36.5q-52 0 -88.5 -36.5t-36.5 -88.5q0 -155 -36.5 -265t-88.5 -110v70q23 0 39 89.5t16 215.5q0 29 13 66t32 59q-19 22 -32 59t-13 66q0 126 -16 215.5t-39 89.5v70z" />
    <glyph glyph-name="u007e" unicode="~" horiz-adv-x="580" 
d="M40 250q21 36 65 61.5t86 25.5q30 0 66.5 -15t57.5 -36q30 -30 74 -30q25 0 51 15t39 37l61 -35q-21 -36 -65 -61.5t-86 -25.5q-30 0 -66.5 15t-57.5 36q-30 30 -74 30q-25 0 -51 -15t-39 -37z" />
    <glyph glyph-name="u00b0" unicode="&#xb0;" horiz-adv-x="580" 
d="M290 575h-1q-25 0 -43.5 18.5t-18.5 43.5t18.5 44t44.5 19q25 0 43.5 -18.5t18.5 -44.5q0 -25 -18 -43.5t-44 -18.5zM289 624h1q13 0 13 13q0 5 -4 9.5t-9 4.5t-9.5 -4.5t-4.5 -9.5q0 -13 13 -13z" />
    <glyph glyph-name="u00b6" unicode="&#xb6;" horiz-adv-x="580" 
d="M290 700h210v-700h-70v630h-70v-630h-70v340q-74 0 -127 53t-53 127t53 127t127 53z" />
    <glyph glyph-name="u00b7" unicode="&#xb7;" horiz-adv-x="580" 
d="M290 171h-1q-32 0 -55.5 23.5t-23.5 55.5q0 33 23.5 56t56.5 23t55.5 -23t22.5 -56q0 -32 -23 -55.5t-55 -23.5z" />
    <glyph glyph-name="u00d7" unicode="&#xd7;" horiz-adv-x="580" 
d="M88 73l153 152l-153 152l50 50l152 -152l152 152l50 -50l-153 -152l153 -152l-50 -49l-152 152l-152 -152z" />
    <glyph glyph-name="u00f7" unicode="&#xf7;" horiz-adv-x="580" 
d="M40 285h500v-70h-500v70zM290 336h-1q-23 0 -39 16.5t-16 39.5t16.5 39.5t39.5 16.5t39.5 -16.5t16.5 -39.5t-16.5 -39.5t-39.5 -16.5zM290 52h-1q-23 0 -39 16t-16 39t16.5 39.5t39.5 16.5t39.5 -16.5t16.5 -39.5t-16.5 -39t-39.5 -16z" />
    <glyph glyph-name="u1000" unicode="&#x1000;" 
d="M655 378q30 51 93 86.5t122 35.5q104 0 177 -73t73 -177t-73 -177t-177 -73v70q74 0 127 53t53 127t-53 127t-127 53t-127 -53t-53 -127q0 -66 -42 -132.5t-102 -94.5l-30 64q43 20 73.5 68t30.5 95q0 74 -53 127t-127 53t-127 -53t-53 -127q0 -47 30.5 -95t73.5 -68
l-30 -64q-60 28 -102 94.5t-42 132.5q0 104 73 177t177 73q59 0 122 -35.5t93 -86.5z" />
    <glyph glyph-name="u1001" unicode="&#x1001;" horiz-adv-x="580" 
d="M63 356q28 60 94.5 102t132.5 42q104 0 177 -73t73 -177t-73 -177t-177 -73q-60 0 -123.5 36.5t-93.5 88.5q30 29 81.5 49.5t92.5 20.5t92 -20.5t81 -49.5q21 22 35.5 58.5t14.5 66.5q0 74 -53 127t-127 53q-47 0 -95 -30.5t-68 -73.5zM160 125q22 -23 60.5 -39t69.5 -16
q52 0 95 27q-22 23 -60 39t-69 16q-53 0 -96 -27z" />
    <glyph glyph-name="u1002" unicode="&#x1002;" horiz-adv-x="580" 
d="M184 23q-60 28 -102 94.5t-42 132.5q0 104 73 177t177 73t177 -73t73 -177q0 -66 -42 -132.5t-102 -94.5l-30 64q43 20 73.5 68t30.5 95q0 74 -53 127t-127 53t-127 -53t-53 -127q0 -47 30.5 -95t73.5 -68z" />
    <glyph glyph-name="u1003" unicode="&#x1003;" 
d="M655 122q-30 -51 -93 -86.5t-122 -35.5q-104 0 -177 73t-73 177q0 38 17 85.5t41 75.5q3 3 3 7t-3.5 8t-8.5 4t-9 -4l-53 45q25 29 62 29q34 0 58 -24t24 -58q0 -30 -19 -52q-17 -21 -29.5 -55t-12.5 -61q0 -74 53 -127t127 -53t127 53t53 127q0 47 -30.5 95t-73.5 68
l30 64q60 -28 102 -94.5t42 -132.5q0 -74 53 -127t127 -53t127 53t53 127t-53 127t-127 53v70q104 0 177 -73t73 -177t-73 -177t-177 -73q-59 0 -122 35.5t-93 86.5z" />
    <glyph glyph-name="u1004" unicode="&#x1004;" horiz-adv-x="580" 
d="M517 356l-64 -30q-20 43 -68 73.5t-95 30.5q-74 0 -127 -53t-53 -127t53 -127t127 -53q47 0 95 30.5t68 73.5l64 -30q-28 -60 -94.5 -102t-132.5 -42q-104 0 -177 73t-73 177t73 177t177 73q66 0 132.5 -42t94.5 -102z" />
    <glyph glyph-name="u1005" unicode="&#x1005;" horiz-adv-x="580" 
d="M290 0h-1q-103 0 -176 73t-73 177t73 177t177 73t177 -73t73 -177t-73 -177t-177 -73zM223 417q26 -30 45.5 -79t19.5 -88t-19.5 -88t-45.5 -79q33 -13 67 -13q74 0 127 53t53 127t-53 127t-127 53q-34 0 -67 -13zM165 380q-23 -22 -39 -60.5t-16 -69.5t16 -69.5
t39 -60.5q23 22 39 60.5t16 69.5t-16 69.5t-39 60.5z" />
    <glyph glyph-name="u1006" unicode="&#x1006;" 
d="M213 356q28 60 94.5 102t132.5 42q59 0 122 -35.5t93 -86.5q30 51 93 86.5t122 35.5q104 0 177 -73t73 -177t-73 -177t-177 -73q-59 0 -122 35.5t-93 86.5q-30 -51 -93 -86.5t-122 -35.5q-60 0 -123.5 36.5t-93.5 88.5q30 29 81.5 49.5t92.5 20.5t92 -20.5t81 -49.5
q21 22 35.5 58.5t14.5 66.5q0 74 -53 127t-127 53q-47 0 -95 -30.5t-68 -73.5zM310 125q22 -23 60.5 -39t69.5 -16q52 0 95 27q-22 23 -60 39t-69 16q-53 0 -96 -27zM690 250q0 -74 53 -127t127 -53t127 53t53 127t-53 127t-127 53t-127 -52.5t-53 -126.5v-1z" />
    <glyph glyph-name="u1007" unicode="&#x1007;" horiz-adv-x="580" 
d="M467 427l4 -5q22 -19 37.5 -52.5t15.5 -62.5q0 -62 -43 -105.5t-104 -44.5h-2q-23 0 -51.5 10t-45.5 25q-16 13 -27 37.5t-11 44.5q0 44 31 75t75 31q39 0 68 -25l139 -165l-54 -45l-138 165q-10 8 -23 8q-15 0 -25.5 -10.5t-10.5 -25.5q0 -17 12 -27q23 -19 52 -19h1
q33 1 56 24t23 56q0 37 -29 61q-22 22 -59 37.5t-68 15.5q-74 0 -127 -53t-53 -127t53 -127t127 -53q31 0 68 15.5t59 37.5l50 -50q-30 -30 -82 -51.5t-95 -21.5q-104 0 -177 73t-73 177t73 177t177 73q43 0 95 -21.5t82 -51.5z" />
    <glyph glyph-name="u1008" unicode="&#x1008;" 
d="M690 0h-1q-103 0 -176 73t-73 177t73 177t177 73t177 -73t73 -177t-73 -177t-177 -73zM623 417q26 -30 45.5 -79t19.5 -88t-19.5 -88t-45.5 -79q33 -13 67 -13q74 0 127 53t53 127t-53 127t-127 53q-34 0 -67 -13zM565 380q-23 -22 -39 -60.5t-16 -69.5t16 -69.5
t39 -60.5q23 22 39 60.5t16 69.5t-16 69.5t-39 60.5zM726 55h70v-200q0 -22 20 -31l70 -34l40 -20q6 -3 15 -3q14 0 24.5 10.5t10.5 24.5v698h70v-837q0 -14 -10.5 -24.5t-24.5 -10.5q-10 0 -18 5l-107 67l-143 90q-17 11 -17 29v236z" />
    <glyph glyph-name="u1009" unicode="&#x1009;" 
d="M213 356q28 60 94.5 102t132.5 42q104 0 177 -73t73 -177t-73 -177t-177 -73q-38 0 -85.5 17t-75.5 41q-3 3 -7 3t-8 -3.5t-4 -8.5v-344q0 -14 10.5 -24.5t24.5 -10.5h255h465q14 0 24.5 10.5t10.5 24.5h70q0 -43 -31 -74t-74 -31h-325h-395q-43 0 -74 31t-31 74v344
q0 34 24 58t58 24q30 0 52 -19q21 -17 55 -29.5t61 -12.5q74 0 127 53t53 127t-53 127t-127 53q-47 0 -95 -30.5t-68 -73.5z" />
    <glyph glyph-name="u100a" unicode="&#x100a;" 
d="M655 122q-30 -51 -93 -86.5t-122 -35.5q-38 0 -85.5 17t-75.5 41q-3 3 -7 3t-8 -3.5t-4 -8.5v-344q0 -14 10.5 -24.5t24.5 -10.5h255h465q14 0 24.5 10.5t10.5 24.5h70q0 -43 -31 -74t-74 -31h-325h-395q-43 0 -74 31t-31 74v344q0 34 24 58t58 24q30 0 52 -19
q21 -17 55 -29.5t61 -12.5q74 0 127 53t53 127t-53 127t-127 53q-47 0 -95 -30.5t-68 -73.5l-64 30q28 60 94.5 102t132.5 42q104 0 177 -73t73 -177q0 -74 53 -127t127 -53t127 53t53 127t-53 127t-127 53v70q104 0 177 -73t73 -177t-73 -177t-177 -73q-59 0 -122 35.5
t-93 86.5z" />
    <glyph glyph-name="u100b" unicode="&#x100b;" horiz-adv-x="580" 
d="M517 356l-64 -30q-20 43 -68 73.5t-95 30.5q-74 0 -127 -53t-53 -127t53 -127t127 -53q27 0 61 12.5t55 29.5q22 19 52 19q34 0 58 -24t24 -58q0 -37 -29 -62l-60 -51q-28 -24 -75.5 -41t-85.5 -17t-85.5 17t-75.5 41q-3 3 -7 3t-8 -3.5t-4 -8.5t4 -9l60 -50
q21 -17 55 -29.5t61 -12.5t61 12.5t55 29.5q22 19 52 19q34 0 58 -24t24 -58v-70q0 -14 10.5 -24.5t24.5 -10.5v-70q-43 0 -74 31t-31 74v70q0 5 -4 8.5t-8 3.5t-7 -3q-28 -24 -75.5 -41t-85.5 -17t-85.5 17t-75.5 41l-60 51q-29 25 -29 62q0 34 24 58t58 24q30 0 52 -19
q21 -17 55 -29.5t61 -12.5t61 12.5t55 29.5l60 50q4 4 4 9t-4 8.5t-8 3.5t-7 -3q-28 -24 -75.5 -41t-85.5 -17q-104 0 -177 73t-73 177t73 177t177 73q66 0 132.5 -42t94.5 -102z" />
    <glyph glyph-name="u100c" unicode="&#x100c;" horiz-adv-x="580" 
d="M517 356l-64 -30q-20 43 -68 73.5t-95 30.5q-74 0 -127 -53t-53 -127t53 -127t127 -53q27 0 61 12.5t55 29.5q22 19 52 19q34 0 58 -24t24 -58v-344q0 -43 -31 -74t-74 -31h-145h-145q-43 0 -74 31t-31 74t31 74t74 31h145v-70h-145q-14 0 -24.5 -10.5t-10.5 -24.5
t10.5 -24.5t24.5 -10.5h145h145q14 0 24.5 10.5t10.5 24.5v344q0 5 -4 8.5t-8 3.5t-7 -3q-28 -24 -75.5 -41t-85.5 -17q-104 0 -177 73t-73 177t73 177t177 73q66 0 132.5 -42t94.5 -102z" />
    <glyph glyph-name="u100d" unicode="&#x100d;" horiz-adv-x="580" 
d="M63 356q28 60 94.5 102t132.5 42q104 0 177 -73t73 -177t-73 -177t-177 -73q-38 0 -85.5 17t-75.5 41q-3 3 -7 3t-8 -3.5t-4 -8.5t4 -9l60 -50q21 -17 55 -29.5t61 -12.5t61 12.5t55 29.5q22 19 52 19q34 0 58 -24t24 -58v-260q0 -14 10.5 -24.5t24.5 -10.5v-70
q-43 0 -74 31t-31 74v260q0 5 -4 8.5t-8 3.5t-7 -3q-28 -24 -75.5 -41t-85.5 -17t-85.5 17t-75.5 41l-60 51q-29 25 -29 62q0 34 24 58t58 24q30 0 52 -19q21 -17 55 -29.5t61 -12.5q74 0 127 53t53 127t-53 127t-127 53q-47 0 -95 -30.5t-68 -73.5z" />
    <glyph glyph-name="u100e" unicode="&#x100e;" horiz-adv-x="580" 
d="M396 477q60 -28 102 -94.5t42 -132.5q0 -104 -73 -177t-177 -73t-177 73t-73 177q0 38 17 85.5t41 75.5q3 3 3 7t-3.5 8t-8.5 4t-9 -4l-53 45q25 29 62 29q34 0 58 -24t24 -58q0 -30 -19 -52q-17 -21 -29.5 -55t-12.5 -61q0 -74 53 -127t127 -53t127 53t53 127
q0 47 -30.5 95t-73.5 68z" />
    <glyph glyph-name="u100f" unicode="&#x100f;" horiz-adv-x="1740" 
d="M1247 395q31 43 90.5 74t112.5 31q104 0 177 -73t73 -177t-73 -177t-177 -73v70q74 0 127 53t53 127t-53 127t-127 53t-127 -53t-53 -127q0 -104 -36.5 -177t-88.5 -73t-88.5 73t-36.5 177q0 74 -53 127t-127 53t-127 -53t-53 -127t53 -127t127 -53v-70q-104 0 -177 73
t-73 177t73 177t177 73q53 0 112.5 -31t90.5 -74q16 43 46 74t56 31t56 -31t46 -74zM1145 430q-23 -1 -39 -54t-16 -126q0 -74 16.5 -127t39.5 -53q22 0 38 53t16 127t-16 126.5t-38 53.5h-1z" />
    <glyph glyph-name="u1010" unicode="&#x1010;" 
d="M655 378q30 51 93 86.5t122 35.5q104 0 177 -73t73 -177t-73 -177t-177 -73v70q74 0 127 53t53 127t-53 127t-127 53t-127 -53t-53 -127q0 -104 -73 -177t-177 -73t-177 73t-73 177t73 177t177 73q59 0 122 -35.5t93 -86.5zM620 250q0 74 -53 127t-127 53t-127 -53
t-53 -127t53 -127t127 -53t127 52.5t53 126.5v1zM690 250z" />
    <glyph glyph-name="u1011" unicode="&#x1011;" 
d="M655 378q30 51 93 86.5t122 35.5q104 0 177 -73t73 -177t-73 -177t-177 -73q-59 0 -122 35.5t-93 86.5q-30 -51 -93 -86.5t-122 -35.5q-104 0 -177 73t-73 177t73 177t177 73q59 0 122 -35.5t93 -86.5zM620 250q0 74 -53 127t-127 53t-127 -53t-53 -127t53 -127t127 -53
t127 52.5t53 126.5v1zM690 250q0 -74 53 -127t127 -53t127 53t53 127t-53 127t-127 53t-127 -52.5t-53 -126.5v-1z" />
    <glyph glyph-name="u1012" unicode="&#x1012;" horiz-adv-x="580" 
d="M40 358q0 59 73 100.5t177 41.5t177 -41.5t73 -100.5q0 -27 -25.5 -58.5t-60.5 -49.5q35 -18 60.5 -49.5t25.5 -58.5q0 -59 -73 -100.5t-177 -41.5t-177 41.5t-73 100.5h70q0 -30 53 -51t127 -21t127 21t53 51t-53 51.5t-127 21.5v70q74 0 127 21.5t53 51.5t-53 51
t-127 21t-127 -21t-53 -51h-70z" />
    <glyph glyph-name="u1013" unicode="&#x1013;" horiz-adv-x="580" 
d="M290 0h-1q-103 0 -176 73t-73 177t73 177t177 73t177 -73t73 -177t-73 -177t-177 -73zM123 183q30 26 79 45.5t88 19.5t88 -19.5t79 -45.5q13 33 13 67q0 74 -53 127t-127 53t-127 -53t-53 -127q0 -34 13 -67zM160 125q22 -23 60.5 -39t69.5 -16t69.5 16t60.5 39
q-22 23 -60.5 39t-69.5 16t-69.5 -16t-60.5 -39z" />
    <glyph glyph-name="u1014" unicode="&#x1014;" horiz-adv-x="580" 
d="M398 392h-70q0 16 -11 27t-27 11t-27 -11t-11 -27t11 -26.5t27 -10.5q103 0 176.5 -62.5t73.5 -150.5q0 -59 -73 -100.5t-177 -41.5t-177 41.5t-73 100.5t41.5 101t100.5 42t101 -42t42 -101v-542h-70v542q0 30 -21.5 51.5t-51.5 21.5t-51 -21.5t-21 -51.5t53 -51
t127 -21t127 21t53 51q0 59 -53 101t-127 42q-44 0 -76 31.5t-32 75.5t32 76t76 32t76 -32t32 -76z" />
    <glyph glyph-name="u1015" unicode="&#x1015;" horiz-adv-x="580" 
d="M396 477q60 -28 102 -94.5t42 -132.5q0 -104 -73 -177t-177 -73t-177 73t-73 177q0 66 42 132.5t102 94.5l30 -64q-43 -20 -73.5 -68t-30.5 -95q0 -74 53 -127t127 -53t127 53t53 127q0 47 -30.5 95t-73.5 68z" />
    <glyph glyph-name="u1016" unicode="&#x1016;" horiz-adv-x="580" 
d="M184 477l30 -64q-43 -20 -73.5 -68t-30.5 -95q0 -74 53 -127t127 -53q30 0 66.5 14.5t58.5 35.5q-29 30 -49.5 81t-20.5 92t20.5 92.5t49.5 81.5q52 -30 88.5 -93.5t36.5 -123.5q0 -104 -73 -177t-177 -73t-177 73t-73 177q0 66 42 132.5t102 94.5zM415 380
q-27 -43 -27 -96q0 -31 16 -69t39 -60q27 43 27 95q0 31 -16 69.5t-39 60.5z" />
    <glyph glyph-name="u1017" unicode="&#x1017;" horiz-adv-x="580" 
d="M436 453q43 -31 73.5 -90.5t30.5 -112.5q0 -104 -73 -177t-177 -73t-177 73t-73 177q0 53 30.5 112.5t73.5 90.5q23 -31 65.5 -53t80.5 -22t80.5 22t65.5 53zM144 355q-14 -19 -24 -50t-10 -55q0 -74 53 -127t127 -53t127 53t53 127q0 24 -10 55t-24 50
q-27 -20 -69.5 -33.5t-76.5 -13.5t-76.5 13.5t-69.5 33.5z" />
    <glyph glyph-name="u1018" unicode="&#x1018;" 
d="M655 378q30 51 93 86.5t122 35.5q104 0 177 -73t73 -177t-73 -177t-177 -73v70q74 0 127 53t53 127t-53 127t-127 53t-127 -53t-53 -127q0 -104 -73 -177t-177 -73q-66 0 -132.5 42t-94.5 102l64 30q20 -43 68 -73.5t95 -30.5q74 0 127 53t53 127t-53 127t-127 53
q-47 0 -95 -30.5t-68 -73.5l-64 30q28 60 94.5 102t132.5 42q59 0 122 -35.5t93 -86.5z" />
    <glyph glyph-name="u1019" unicode="&#x1019;" horiz-adv-x="580" 
d="M396 477q60 -28 102 -94.5t42 -132.5q0 -104 -73 -177t-177 -73t-177 73t-73 177q0 66 42 132.5t102 94.5l30 -64q-43 -20 -73.5 -68t-30.5 -95q0 -34 13 -67q30 26 79 45.5t88 19.5t88 -19.5t79 -45.5q13 33 13 67q0 47 -30.5 95t-73.5 68zM420 125q-22 23 -60.5 39
t-69.5 16t-69.5 -16t-60.5 -39q22 -23 60.5 -39t69.5 -16t69.5 16t60.5 39z" />
    <glyph glyph-name="u101a" unicode="&#x101a;" 
d="M655 122q-30 -51 -93 -86.5t-122 -35.5q-104 0 -177 73t-73 177q0 66 42 132.5t102 94.5l30 -64q-43 -20 -73.5 -68t-30.5 -95q0 -74 53 -127t127 -53t127 53t53 127q0 47 -30.5 95t-73.5 68l30 64q60 -28 102 -94.5t42 -132.5q0 -74 53 -127t127 -53t127 53t53 127
t-53 127t-127 53v70q104 0 177 -73t73 -177t-73 -177t-177 -73q-59 0 -122 35.5t-93 86.5z" />
    <glyph glyph-name="u101b" unicode="&#x101b;" horiz-adv-x="580" 
d="M290 0q-104 0 -177 73t-73 177t73 177t177 73t177 -73t73 -177v-545q0 -14 10.5 -24.5t24.5 -10.5v-70q-43 0 -74 31t-31 74v545q0 74 -53 127t-127 53t-127 -53t-53 -127v-10q74 -22 127 -92.5t53 -147.5zM141 149q20 -28 48 -48q-20 28 -48 48z" />
    <glyph glyph-name="u101c" unicode="&#x101c;" 
d="M440 0q-104 0 -177 73t-73 177t73 177t177 73t177 -73t73 -177q0 -74 53 -127t127 -53t127 53t53 127t-53 127t-127 53v70q104 0 177 -73t73 -177t-73 -177t-177 -73t-177 73t-73 177q0 74 -53 127t-127 53t-127 -53t-53 -127t53 -127t127 -53v-70z" />
    <glyph glyph-name="u101d" unicode="&#x101d;" horiz-adv-x="580" 
d="M290 0h-1q-103 0 -176 73t-73 177t73 177t177 73t177 -73t73 -177t-73 -177t-177 -73zM289 70h1q74 0 127 53t53 127t-53 127t-127 53t-127 -53t-53 -127t52.5 -127t126.5 -53z" />
    <glyph glyph-name="u101e" unicode="&#x101e;" 
d="M655 122q-30 -51 -93 -86.5t-122 -35.5q-66 0 -132.5 42t-94.5 102l64 30q20 -43 68 -73.5t95 -30.5q74 0 127 53t53 127t-53 127t-127 53q-47 0 -95 -30.5t-68 -73.5l-64 30q28 60 94.5 102t132.5 42q104 0 177 -73t73 -177q0 -74 53 -127t127 -53t127 53t53 127
t-53 127t-127 53v70q104 0 177 -73t73 -177t-73 -177t-177 -73q-59 0 -122 35.5t-93 86.5z" />
    <glyph glyph-name="u101f" unicode="&#x101f;" 
d="M655 378q14 -25 24.5 -62.5t10.5 -65.5q0 -104 -73 -177t-177 -73t-177 73t-73 177q0 66 42 132.5t102 94.5l30 -64q-43 -20 -73.5 -68t-30.5 -95q0 -74 53 -127t127 -53t127 53t53 127q0 47 -30.5 95t-73.5 68l30 64q60 -28 102 -94.5t42 -132.5q0 74 53 127t127 53
t127 -53t53 -127t-53 -127t-127 -53v-70q104 0 177 73t73 177t-73 177t-177 73q-59 0 -122 -35.5t-93 -86.5z" />
    <glyph glyph-name="u1020" unicode="&#x1020;" horiz-adv-x="580" 
d="M517 356l-64 -30q-20 43 -68 73.5t-95 30.5q-74 0 -127 -53t-53 -127t53 -127t127 -53q27 0 61 12.5t55 29.5q22 19 52 19q34 0 58 -24t24 -58q0 -37 -29 -62l-60 -51q-28 -24 -75.5 -41t-85.5 -17t-85.5 17t-75.5 41q-3 3 -7 3t-8 -3.5t-4 -8.5v-225q0 -14 10.5 -24.5
t24.5 -10.5h145h145q14 0 24.5 10.5t10.5 24.5h70q0 -44 -31 -74.5t-74 -30.5h-145h-145q-43 0 -74 30.5t-31 74.5v225q0 34 24 58t58 24q30 0 52 -19q21 -17 55 -29.5t61 -12.5t61 12.5t55 29.5l60 50q4 4 4 9t-4 8.5t-8 3.5t-7 -3q-28 -24 -75.5 -41t-85.5 -17
q-104 0 -177 73t-73 177t73 177t177 73q66 0 132.5 -42t94.5 -102z" />
    <glyph glyph-name="u1021" unicode="&#x1021;" 
d="M190 358q0 59 73 100.5t177 41.5q59 0 122 -20.5t93 -49.5q30 29 93 49.5t122 20.5q104 0 177 -73t73 -177t-73 -177t-177 -73q0 77 53 147.5t127 92.5v10q0 74 -53 127t-127 53t-127 -21t-53 -51q0 -27 -25.5 -58.5t-60.5 -49.5q35 -18 60.5 -49.5t25.5 -58.5
q0 -59 -73 -100.5t-177 -41.5t-177 41.5t-73 100.5h70q0 -30 53 -51t127 -21t127 21t53 51t-53 51.5t-127 21.5v70q74 0 127 21.5t53 51.5t-53 51t-127 21t-127 -21t-53 -51h-70zM1019 149q-28 -20 -48 -48q28 20 48 48z" />
    <glyph glyph-name="u1023" unicode="&#x1023;" 
d="M580 378q30 51 93 86.5t122 35.5q103 0 176.5 -73t73.5 -177t-73.5 -177t-176.5 -73v70q74 0 127 53t53 127t-53 127t-127 53t-127 -53t-53 -127h-70q0 74 -53 127t-127 53t-127 -53t-53 -127t53 -127t127 -53v-70q-103 0 -176.5 73t-73.5 177t73.5 177t176.5 73
q59 0 122 -35.5t93 -86.5zM580 -118q16 28 51 48t68 20q58 0 98.5 -40.5t40.5 -98.5t-40.5 -98.5t-98.5 -40.5v-33h39v-39h-77v111h38q41 0 70.5 29.5t29.5 70.5t-29.5 70.5t-70.5 29.5t-70.5 -29.5t-29.5 -70.5h-38q0 41 -29.5 70.5t-70.5 29.5t-70.5 -29.5t-29.5 -70.5
t29.5 -70.5t70.5 -29.5v-39q-58 0 -98.5 40.5t-40.5 98.5t40.5 98.5t98.5 40.5q33 0 68 -20t51 -48z" />
    <glyph glyph-name="u1024" unicode="&#x1024;" horiz-adv-x="1740" 
d="M784 378q30 51 93.5 86.5t122.5 35.5q104 0 177 -73t73 -177v-545q0 -43 -31 -74t-75 -31h-144h-576q-43 0 -73.5 30.5t-30.5 74.5t30.5 74.5t73.5 30.5h396v-70h-396q-14 0 -24 -10.5t-10 -24.5t10 -24.5t24 -10.5h576h144q14 0 25 10.5t11 24.5v545q0 74 -53 127
t-127 53t-127 -53t-53 -127q0 -66 -42.5 -132.5t-102.5 -94.5l-29 64q43 20 73.5 68t30.5 95q0 74 -53 127t-127 53t-127 -53t-53 -127q0 -47 30 -95t73 -68l-29 -64q-60 28 -102 94.5t-42 132.5q0 104 73 177t177 73q59 0 121.5 -35.5t92.5 -86.5zM1461 849l-54 -50
q-13 13 -34.5 22t-39.5 9q-43 0 -74 -31t-31 -74q0 -44 30 -74l116 -116q10 -10 10 -25v-910h-70v857q0 44 -30 74l-71 70q-21 21 -36 57.5t-15 66.5q0 73 51 124t124 51q30 0 66.5 -15t57.5 -36z" />
    <glyph glyph-name="u1025" unicode="&#x1025;" horiz-adv-x="580" 
d="M63 356q28 60 94.5 102t132.5 42q104 0 177 -73t73 -177t-73 -177t-177 -73q-38 0 -85.5 17t-75.5 41q-3 3 -7 3t-8 -3.5t-4 -8.5v-344q0 -14 10.5 -24.5t24.5 -10.5h145h145q14 0 24.5 10.5t10.5 24.5h70q0 -43 -31 -74t-74 -31h-145h-145q-43 0 -74 31t-31 74v344
q0 34 24 58t58 24q30 0 52 -19q21 -17 55 -29.5t61 -12.5q74 0 127 53t53 127t-53 127t-127 53q-47 0 -95 -30.5t-68 -73.5z" />
    <glyph glyph-name="u1026" unicode="&#x1026;" horiz-adv-x="580" 
d="M63 356q28 60 94.5 102t132.5 42q104 0 177 -73t73 -177t-73 -177t-177 -73q-38 0 -85.5 17t-75.5 41q-3 3 -7 3t-8 -3.5t-4 -8.5v-344q0 -14 10.5 -24.5t24.5 -10.5h145h145q14 0 24.5 10.5t10.5 24.5h70q0 -43 -31 -74t-74 -31h-145h-145q-43 0 -74 31t-31 74v344
q0 34 24 58t58 24q30 0 52 -19q21 -17 55 -29.5t61 -12.5q74 0 127 53t53 127t-53 127t-127 53q-47 0 -95 -30.5t-68 -73.5zM290 550h-1q-72 0 -123.5 51.5t-51.5 123.5q0 73 51.5 124t124.5 51t123.5 -51t50.5 -124q0 -72 -51 -123.5t-123 -51.5zM173 678q21 19 55 32
t62 13t62 -13t55 -32q9 22 9 47q0 53 -37 89.5t-89 36.5t-89 -36.5t-37 -89.5q0 -25 9 -47zM199 638q16 -16 42.5 -27.5t48.5 -11.5t48.5 11.5t42.5 27.5q-16 16 -42.5 27t-48.5 11t-48.5 -11t-42.5 -27z" />
    <glyph glyph-name="u1027" unicode="&#x1027;" horiz-adv-x="580" 
d="M507 375q-30 -29 -81.5 -49.5t-92.5 -20.5t-92 20.5t-81 49.5q-21 -22 -35.5 -58.5t-14.5 -66.5t14.5 -66.5t35.5 -58.5q30 29 81 49.5t92 20.5t92.5 -20.5t81.5 -49.5q-30 -52 -93.5 -88.5t-123.5 -36.5q-104 0 -177 73t-73 177t73 177t177 73q60 0 123.5 -36.5
t93.5 -88.5zM420 125q-43 27 -96 27q-31 0 -69 -16t-60 -39q43 -27 95 -27q31 0 69.5 16t60.5 39zM420 375q-22 23 -60.5 39t-69.5 16q-52 0 -95 -27q22 -23 60 -39t69 -16q53 0 96 27z" />
    <glyph glyph-name="u1029" unicode="&#x1029;" horiz-adv-x="1740" 
d="M1660 735h-70v60q0 14 -10.5 24.5t-24.5 10.5h-435h-435q-14 0 -24.5 -10.5t-10.5 -24.5v-795v-295q0 -14 10.5 -24.5t24.5 -10.5h435h435q14 0 24.5 10.5t10.5 24.5v245h70v-245q0 -43 -31 -74t-74 -31h-435h-435q-43 0 -74 31t-31 74v295v795q0 43 31 74t74 31h435h435
q43 0 74 -31t31 -74v-60zM1195 122q-30 -51 -93 -86.5t-122 -35.5q-66 0 -132.5 42t-94.5 102l64 30q20 -43 68 -73.5t95 -30.5q74 0 127 53t53 127t-53 127t-127 53q-47 0 -95 -30.5t-68 -73.5l-64 30q28 60 94.5 102t132.5 42q104 0 177 -73t73 -177q0 -74 53 -127
t127 -53t127 53t53 127t-53 127t-127 53v70q104 0 177 -73t73 -177t-73 -177t-177 -73q-59 0 -122 35.5t-93 86.5z" />
    <glyph glyph-name="u102a" unicode="&#x102a;" horiz-adv-x="2320" 
d="M574 356l-63 -30q-20 43 -68 73.5t-95 30.5q-74 0 -127 -53t-53 -127q0 -30 14.5 -66.5t35.5 -58.5q30 29 81 49.5t92 20.5t92 -20.5t81 -49.5q-30 -52 -93 -88.5t-123 -36.5q-104 0 -177 73t-73 177t73 177t177 73q66 0 132 -42t94 -102zM477 125q-43 27 -95 27
q-31 0 -69.5 -16t-60.5 -39q43 -27 96 -27q31 0 69 16t60 39zM1758 735h-70v60q0 14 -11 24.5t-25 10.5h-434h-436q-14 0 -24 -10.5t-10 -24.5v-795v-295q0 -14 10 -24.5t24 -10.5h436h434q14 0 25 10.5t11 24.5v245h70v-245q0 -43 -31 -74t-75 -31h-434h-436
q-43 0 -73.5 30.5t-30.5 74.5v295v795q0 44 30.5 74.5t73.5 30.5h436h434q44 0 75 -31t31 -74v-60zM1292 122q-30 -51 -92.5 -86.5t-121.5 -35.5q-66 0 -132.5 42t-94.5 102l63 30q20 -43 68.5 -73.5t95.5 -30.5q74 0 127 53t53 127t-53 127t-127 53q-47 0 -95.5 -30.5
t-68.5 -73.5l-63 30q28 60 94.5 102t132.5 42q104 0 177 -73t73 -177q0 -74 53 -127t127 -53t127 53t53 127t-53 127t-127 53v70q104 0 177 -73t73 -177t-73 -177t-177 -73q-59 0 -122.5 35.5t-93.5 86.5zM1722 378q30 51 93.5 86.5t122.5 35.5q104 0 177 -73t73 -177
t-73 -177t-177 -73v70q74 0 127 53t53 127t-53 127t-127 53t-127 -53t-53 -127zM2096 846l-49 -49q-13 13 -35 22t-40 9q-43 0 -73.5 -30.5t-30.5 -74.5q0 -18 8.5 -40t21.5 -35l149 -148h-99l-99 99q-21 21 -36 57.5t-15 66.5q0 73 50.5 124t123.5 51q30 0 66.5 -15.5
t57.5 -36.5z" />
    <glyph glyph-name="u25cc_u102b" unicode="&#x102b;" 
d="M505 250zM755 250h-70q0 38 -14 69l65 27q19 -43 19 -96zM505 250zM682 427l-50 -50q-24 24 -58 39l27 65q48 -21 81 -54zM505 250zM505 500v-70q-37 0 -69 -14l-27 65q43 19 96 19zM505 250zM328 427l50 -50q-24 -24 -39 -58l-65 27q21 48 54 81zM505 250zM255 250h70
q0 -38 14 -69l-65 -27q-19 43 -19 96zM505 250zM328 73l50 50q24 -24 58 -39l-27 -65q-48 21 -81 54zM505 250zM505 0v70q37 0 69 14l27 -65q-43 -19 -96 -19zM505 250zM682 73l-50 50q24 24 39 58l65 -27q-21 -48 -54 -81zM505 250zM655 725q0 52 36.5 88.5t88.5 36.5
t88.5 -36.5t36.5 -88.5v-725h-70v725q0 23 -16.5 39t-38.5 16t-38.5 -16t-16.5 -39h-70z" />
    <glyph glyph-name="u25cc_u102c" unicode="&#x102c;" 
d="M365 250zM615 250h-70q0 38 -14 69l65 27q19 -43 19 -96zM365 250zM542 427l-50 -50q-24 24 -58 39l27 65q48 -21 81 -54zM365 250zM365 500v-70q-37 0 -69 -14l-27 65q43 19 96 19zM365 250zM188 427l50 -50q-24 -24 -39 -58l-65 27q21 48 54 81zM365 250zM115 250h70
q0 -38 14 -69l-65 -27q-19 43 -19 96zM365 250zM188 73l50 50q24 -24 58 -39l-27 -65q-48 21 -81 54zM365 250zM365 0v70q37 0 69 14l27 -65q-43 -19 -96 -19zM365 250zM542 73l-50 50q24 24 39 58l65 -27q-21 -48 -54 -81zM365 250zM580 378q30 51 93 86.5t122 35.5
q103 0 176.5 -73t73.5 -177t-73.5 -177t-176.5 -73v70q74 0 127 53t53 127t-53 127t-127 53t-127 -53t-53 -127z" />
    <glyph glyph-name="u25cc_u102d" unicode="&#x102d;" horiz-adv-x="580" 
d="M290 250zM540 250h-70q0 38 -14 69l65 27q19 -43 19 -96zM290 250zM467 427l-50 -50q-24 24 -58 39l27 65q48 -21 81 -54zM290 250zM290 500v-70q-38 0 -69 -14l-27 65q43 19 96 19zM290 250zM113 427l50 -50q-24 -24 -39 -58l-65 27q21 48 54 81zM290 250zM40 250h70
q0 -38 14 -69l-65 -27q-19 43 -19 96zM290 250zM113 73l50 50q24 -24 58 -39l-27 -65q-48 21 -81 54zM290 250zM290 0v70q38 0 69 14l27 -65q-43 -19 -96 -19zM290 250zM467 73l-50 50q24 24 39 58l65 -27q-21 -48 -54 -81zM290 250zM290 550h-1q-72 0 -123.5 51.5
t-51.5 123.5q0 73 51.5 124t124.5 51t123.5 -51t50.5 -124q0 -72 -51 -123.5t-123 -51.5zM289 599h1q52 0 89 37t37 89q0 53 -37 89.5t-89 36.5t-89 -36.5t-37 -89.5q0 -52 36.5 -89t88.5 -37z" />
    <glyph glyph-name="u25cc_u102e" unicode="&#x102e;" horiz-adv-x="580" 
d="M290 250zM540 250h-70q0 38 -14 69l65 27q19 -43 19 -96zM290 250zM467 427l-50 -50q-24 24 -58 39l27 65q48 -21 81 -54zM290 250zM290 500v-70q-38 0 -69 -14l-27 65q43 19 96 19zM290 250zM113 427l50 -50q-24 -24 -39 -58l-65 27q21 48 54 81zM290 250zM40 250h70
q0 -38 14 -69l-65 -27q-19 43 -19 96zM290 250zM113 73l50 50q24 -24 58 -39l-27 -65q-48 21 -81 54zM290 250zM290 0v70q38 0 69 14l27 -65q-43 -19 -96 -19zM290 250zM467 73l-50 50q24 24 39 58l65 -27q-21 -48 -54 -81zM290 250zM290 550h-1q-72 0 -123.5 51.5
t-51.5 123.5q0 73 51.5 124t124.5 51t123.5 -51t50.5 -124q0 -72 -51 -123.5t-123 -51.5zM173 678q21 19 55 32t62 13t62 -13t55 -32q9 22 9 47q0 53 -37 89.5t-89 36.5t-89 -36.5t-37 -89.5q0 -25 9 -47zM199 638q16 -16 42.5 -27.5t48.5 -11.5t48.5 11.5t42.5 27.5
q-16 16 -42.5 27t-48.5 11t-48.5 -11t-42.5 -27z" />
    <glyph glyph-name="u25cc_u102f" unicode="&#x102f;" horiz-adv-x="580" 
d="M290 250zM540 250h-70q0 38 -14 69l65 27q19 -43 19 -96zM290 250zM467 427l-50 -50q-24 24 -58 39l27 65q48 -21 81 -54zM290 250zM290 500v-70q-38 0 -69 -14l-27 65q43 19 96 19zM290 250zM113 427l50 -50q-24 -24 -39 -58l-65 27q21 48 54 81zM290 250zM40 250h70
q0 -38 14 -69l-65 -27q-19 43 -19 96zM290 250zM113 73l50 50q24 -24 58 -39l-27 -65q-48 21 -81 54zM290 250zM290 0v70q38 0 69 14l27 -65q-43 -19 -96 -19zM290 250zM467 73l-50 50q24 24 39 58l65 -27q-21 -48 -54 -81zM290 250zM255 -50h70v-245q0 -14 10.5 -24.5
t24.5 -10.5h70v-70h-70q-44 0 -74.5 31t-30.5 74v245z" />
    <glyph glyph-name="u25cc_u1030" unicode="&#x1030;" horiz-adv-x="580" 
d="M290 250zM540 250h-70q0 38 -14 69l65 27q19 -43 19 -96zM290 250zM467 427l-50 -50q-24 24 -58 39l27 65q48 -21 81 -54zM290 250zM290 500v-70q-38 0 -69 -14l-27 65q43 19 96 19zM290 250zM113 427l50 -50q-24 -24 -39 -58l-65 27q21 48 54 81zM290 250zM40 250h70
q0 -38 14 -69l-65 -27q-19 43 -19 96zM290 250zM113 73l50 50q24 -24 58 -39l-27 -65q-48 21 -81 54zM290 250zM290 0v70q38 0 69 14l27 -65q-43 -19 -96 -19zM290 250zM467 73l-50 50q24 24 39 58l65 -27q-21 -48 -54 -81zM290 250zM160 -50h70v-350h-70v350zM360 -50h70
v-245q0 -14 10.5 -24.5t24.5 -10.5h70v-70h-70q-43 0 -74 31t-31 74v245z" />
    <glyph glyph-name="u25cc_u1031" unicode="&#x1031;" 
d="M517 356l-64 -30q-20 43 -68 73.5t-95 30.5q-74 0 -127 -53t-53 -127q0 -30 14.5 -66.5t35.5 -58.5q30 29 81 49.5t92 20.5t92.5 -20.5t81.5 -49.5q-30 -52 -93.5 -88.5t-123.5 -36.5q-104 0 -177 73t-73 177t73 177t177 73q66 0 132.5 -42t94.5 -102zM420 125
q-43 27 -96 27q-31 0 -69 -16t-60 -39q43 -27 95 -27q31 0 69.5 16t60.5 39zM870 250zM1120 250h-70q0 38 -14 69l65 27q19 -43 19 -96zM870 250zM1047 427l-50 -50q-24 24 -58 39l27 65q48 -21 81 -54zM870 250zM870 500v-70q-38 0 -69 -14l-27 65q43 19 96 19zM870 250z
M693 427l50 -50q-24 -24 -39 -58l-65 27q21 48 54 81zM870 250zM620 250h70q0 -38 14 -69l-65 -27q-19 43 -19 96zM870 250zM693 73l50 50q24 -24 58 -39l-27 -65q-48 21 -81 54zM870 250zM870 0v70q38 0 69 14l27 -65q-43 -19 -96 -19zM870 250zM1047 73l-50 50
q24 24 39 58l65 -27q-21 -48 -54 -81zM870 250z" />
    <glyph glyph-name="u25cc_u1032" unicode="&#x1032;" horiz-adv-x="580" 
d="M290 250zM540 250h-70q0 38 -14 69l65 27q19 -43 19 -96zM290 250zM467 427l-50 -50q-24 24 -58 39l27 65q48 -21 81 -54zM290 250zM290 500v-70q-38 0 -69 -14l-27 65q43 19 96 19zM290 250zM113 427l50 -50q-24 -24 -39 -58l-65 27q21 48 54 81zM290 250zM40 250h70
q0 -38 14 -69l-65 -27q-19 43 -19 96zM290 250zM113 73l50 50q24 -24 58 -39l-27 -65q-48 21 -81 54zM290 250zM290 0v70q38 0 69 14l27 -65q-43 -19 -96 -19zM290 250zM467 73l-50 50q24 24 39 58l65 -27q-21 -48 -54 -81zM290 250zM90 900l50 49l350 -350l-50 -49z" />
    <glyph glyph-name="u25cc_u1034" unicode="&#x1034;" horiz-adv-x="580" 
d="M290 250zM540 250h-70q0 38 -14 69l65 27q19 -43 19 -96zM290 250zM467 427l-50 -50q-24 24 -58 39l27 65q48 -21 81 -54zM290 250zM290 500v-70q-38 0 -69 -14l-27 65q43 19 96 19zM290 250zM113 427l50 -50q-24 -24 -39 -58l-65 27q21 48 54 81zM290 250zM40 250h70
q0 -38 14 -69l-65 -27q-19 43 -19 96zM290 250zM113 73l50 50q24 -24 58 -39l-27 -65q-48 21 -81 54zM290 250zM290 0v70q38 0 69 14l27 -65q-43 -19 -96 -19zM290 250zM467 73l-50 50q24 24 39 58l65 -27q-21 -48 -54 -81zM290 250zM140 550l-50 49l350 350l50 -49z" />
    <glyph glyph-name="u25cc_u1036" unicode="&#x1036;" horiz-adv-x="580" 
d="M290 250zM540 250h-70q0 38 -14 69l65 27q19 -43 19 -96zM290 250zM467 427l-50 -50q-24 24 -58 39l27 65q48 -21 81 -54zM290 250zM290 500v-70q-38 0 -69 -14l-27 65q43 19 96 19zM290 250zM113 427l50 -50q-24 -24 -39 -58l-65 27q21 48 54 81zM290 250zM40 250h70
q0 -38 14 -69l-65 -27q-19 43 -19 96zM290 250zM113 73l50 50q24 -24 58 -39l-27 -65q-48 21 -81 54zM290 250zM290 0v70q38 0 69 14l27 -65q-43 -19 -96 -19zM290 250zM467 73l-50 50q24 24 39 58l65 -27q-21 -48 -54 -81zM290 250zM290 646h-1q-32 0 -55.5 23.5
t-23.5 55.5q0 33 23.5 56t56.5 23t55.5 -23t22.5 -56q0 -32 -23 -55.5t-55 -23.5zM289 695h1q12 0 21 9t9 21q0 13 -8.5 21.5t-21.5 8.5t-21.5 -8.5t-8.5 -21.5q0 -12 8.5 -21t20.5 -9z" />
    <glyph glyph-name="u25cc_u1037" unicode="&#x1037;" horiz-adv-x="580" 
d="M290 250zM540 250h-70q0 38 -14 69l65 27q19 -43 19 -96zM290 250zM467 427l-50 -50q-24 24 -58 39l27 65q48 -21 81 -54zM290 250zM290 500v-70q-38 0 -69 -14l-27 65q43 19 96 19zM290 250zM113 427l50 -50q-24 -24 -39 -58l-65 27q21 48 54 81zM290 250zM40 250h70
q0 -38 14 -69l-65 -27q-19 43 -19 96zM290 250zM113 73l50 50q24 -24 58 -39l-27 -65q-48 21 -81 54zM290 250zM290 0v70q38 0 69 14l27 -65q-43 -19 -96 -19zM290 250zM467 73l-50 50q24 24 39 58l65 -27q-21 -48 -54 -81zM290 250zM409 -208h-1q-32 0 -55 23.5t-23 55.5
q0 33 22.5 56t55.5 23t56.5 -23t23.5 -56q0 -32 -23.5 -55.5t-55.5 -23.5zM408 -159h1q12 0 20.5 9t8.5 21q0 13 -8.5 21.5t-21.5 8.5t-21.5 -8.5t-8.5 -21.5q0 -12 9 -21t21 -9z" />
    <glyph glyph-name="u25cc_u1038" unicode="&#x1038;" 
d="M481 250zM731 250h-70q0 38 -14 69l65 27q19 -43 19 -96zM481 250zM658 427l-50 -50q-24 24 -58 39l27 65q48 -21 81 -54zM481 250zM481 500v-70q-37 0 -69 -14l-27 65q43 19 96 19zM481 250zM304 427l50 -50q-24 -24 -39 -58l-65 27q21 48 54 81zM481 250zM231 250h70
q0 -38 14 -69l-65 -27q-19 43 -19 96zM481 250zM304 73l50 50q24 -24 58 -39l-27 -65q-48 21 -81 54zM481 250zM481 0v70q37 0 69 14l27 -65q-43 -19 -96 -19zM481 250zM658 73l-50 50q24 24 39 58l65 -27q-21 -48 -54 -81zM481 250zM850 60h-1q-32 0 -55.5 23.5t-23.5 55.5
q0 33 23.5 56t56.5 23t55.5 -23t22.5 -56q0 -32 -23 -55.5t-55 -23.5zM850 109h1q12 0 20.5 9t8.5 21q0 13 -8.5 21.5t-21.5 8.5t-21.5 -8.5t-8.5 -21.5q0 -12 9 -21t21 -9zM850 282h-1q-32 0 -55.5 23.5t-23.5 55.5q0 33 23.5 56t56.5 23t55.5 -23t22.5 -56
q0 -32 -23 -55.5t-55 -23.5zM850 331h1q12 0 20.5 9t8.5 21q0 13 -8.5 21.5t-21.5 8.5t-21.5 -8.5t-8.5 -21.5q0 -12 9 -21t21 -9z" />
    <glyph glyph-name="u1039" unicode="&#x1039;" horiz-adv-x="1" 
d="M-259 -225zM-84 -225h-49q0 22 -10 48l46 19q13 -33 13 -67zM-259 -225zM-135 -101l-35 -35q-18 18 -41 27l19 46q31 -12 57 -38zM-259 -225zM-259 -50v-49q-22 0 -48 -10l-19 46q33 13 67 13zM-259 -225zM-383 -101l35 -35q-18 -18 -27 -41l-46 19q12 31 38 57z
M-259 -225zM-434 -225h49q0 -22 10 -48l-46 -19q-13 33 -13 67zM-259 -225zM-383 -349l35 35q18 -18 41 -27l-19 -46q-31 12 -57 38zM-259 -225zM-259 -400v49q22 0 48 10l19 -46q-33 -13 -67 -13zM-259 -225zM-135 -349l-35 35q18 18 27 41l46 -19q-12 -31 -38 -57z
M-259 -225z" />
    <glyph glyph-name="u25cc_u103a" unicode="&#x103a;" horiz-adv-x="580" 
d="M290 250zM540 250h-70q0 38 -14 69l65 27q19 -43 19 -96zM290 250zM467 427l-50 -50q-24 24 -58 39l27 65q48 -21 81 -54zM290 250zM290 500v-70q-38 0 -69 -14l-27 65q43 19 96 19zM290 250zM113 427l50 -50q-24 -24 -39 -58l-65 27q21 48 54 81zM290 250zM40 250h70
q0 -38 14 -69l-65 -27q-19 43 -19 96zM290 250zM113 73l50 50q24 -24 58 -39l-27 -65q-48 21 -81 54zM290 250zM290 0v70q38 0 69 14l27 -65q-43 -19 -96 -19zM290 250zM467 73l-50 50q24 24 39 58l65 -27q-21 -48 -54 -81zM290 250zM414 846l-50 -49q-13 13 -34.5 22
t-39.5 9q-44 0 -74.5 -31t-30.5 -74q0 -18 9 -40t22 -35l148 -148h-99l-99 99q-21 21 -36 57.5t-15 66.5q0 73 51 124t124 51q30 0 66.5 -15.5t57.5 -36.5z" />
    <glyph glyph-name="u25cc_u103b" unicode="&#x103b;" 
d="M490 250zM740 250h-70q0 38 -14 69l65 27q19 -43 19 -96zM490 250zM667 427l-50 -50q-24 24 -58 39l27 65q48 -21 81 -54zM490 250zM490 500v-70q-38 0 -69 -14l-27 65q43 19 96 19zM490 250zM313 427l50 -50q-24 -24 -39 -58l-65 27q21 48 54 81zM490 250zM240 250h70
q0 -38 14 -69l-65 -27q-19 43 -19 96zM490 250zM313 73l50 50q24 -24 58 -39l-27 -65q-48 21 -81 54zM490 250zM490 0v70q38 0 69 14l27 -65q-43 -19 -96 -19zM490 250zM667 73l-50 50q24 24 39 58l65 -27q-21 -48 -54 -81zM490 250zM566 55h70v-200q0 -22 20 -31l70 -34
l40 -20q6 -3 15 -3q14 0 24.5 10.5t10.5 24.5v698h70v-837q0 -14 -10.5 -24.5t-24.5 -10.5q-10 0 -18 5l-107 67l-143 90q-17 11 -17 29v236z" />
    <glyph glyph-name="u25cc_u103c" unicode="&#x103c;" 
d="M905 735h-70v60q0 14 -10.5 24.5t-24.5 10.5h-185h-255q-14 0 -24.5 -10.5t-10.5 -24.5v-795v-295q0 -14 10.5 -24.5t24.5 -10.5h255h185q14 0 24.5 10.5t10.5 24.5v245h70v-245q0 -43 -30.5 -74t-74.5 -31h-185h-255q-44 0 -74.5 31t-30.5 74v295v795q0 43 30.5 74
t74.5 31h255h185q44 0 74.5 -31t30.5 -74v-60zM655 250zM905 250h-70q0 38 -14 69l65 27q19 -43 19 -96zM655 250zM832 427l-50 -50q-24 24 -58 39l27 65q48 -21 81 -54zM655 250zM655 500v-70q-37 0 -69 -14l-27 65q43 19 96 19zM655 250zM478 427l50 -50q-24 -24 -39 -58
l-65 27q21 48 54 81zM655 250zM405 250h70q0 -38 14 -69l-65 -27q-19 43 -19 96zM655 250zM478 73l50 50q24 -24 58 -39l-27 -65q-48 21 -81 54zM655 250zM655 0v70q37 0 69 14l27 -65q-43 -19 -96 -19zM655 250zM832 73l-50 50q24 24 39 58l65 -27q-21 -48 -54 -81z
M655 250z" />
    <glyph glyph-name="u25cc_u103d" unicode="&#x103d;" horiz-adv-x="580" 
d="M290 250zM540 250h-70q0 38 -14 69l65 27q19 -43 19 -96zM290 250zM467 427l-50 -50q-24 24 -58 39l27 65q48 -21 81 -54zM290 250zM290 500v-70q-38 0 -69 -14l-27 65q43 19 96 19zM290 250zM113 427l50 -50q-24 -24 -39 -58l-65 27q21 48 54 81zM290 250zM40 250h70
q0 -38 14 -69l-65 -27q-19 43 -19 96zM290 250zM113 73l50 50q24 -24 58 -39l-27 -65q-48 21 -81 54zM290 250zM290 0v70q38 0 69 14l27 -65q-43 -19 -96 -19zM290 250zM467 73l-50 50q24 24 39 58l65 -27q-21 -48 -54 -81zM290 250zM290 -50h1q72 0 123.5 -51.5
t51.5 -123.5q0 -73 -51.5 -124t-124.5 -51t-123.5 51t-50.5 124q0 72 51 123.5t123 51.5zM290 -99h-1q-52 0 -88.5 -37t-36.5 -89q0 -53 37 -89.5t89 -36.5t89 36.5t37 89.5q0 52 -37 89t-89 37z" />
    <glyph glyph-name="u25cc_u103e" unicode="&#x103e;" horiz-adv-x="580" 
d="M290 250zM540 250h-70q0 38 -14 69l65 27q19 -43 19 -96zM290 250zM467 427l-50 -50q-24 24 -58 39l27 65q48 -21 81 -54zM290 250zM290 500v-70q-38 0 -69 -14l-27 65q43 19 96 19zM290 250zM113 427l50 -50q-24 -24 -39 -58l-65 27q21 48 54 81zM290 250zM40 250h70
q0 -38 14 -69l-65 -27q-19 43 -19 96zM290 250zM113 73l50 50q24 -24 58 -39l-27 -65q-48 21 -81 54zM290 250zM290 0v70q38 0 69 14l27 -65q-43 -19 -96 -19zM290 250zM467 73l-50 50q24 24 39 58l65 -27q-21 -48 -54 -81zM290 250zM360 -50v-245q0 -43 -31 -74t-74 -31
h-70v70h70q14 0 24.5 10.5t10.5 24.5v245h70z" />
    <glyph glyph-name="u103f" unicode="&#x103f;" horiz-adv-x="1740" 
d="M805 122q-30 -51 -93 -86.5t-122 -35.5q-66 0 -132.5 42t-94.5 102l64 30q20 -43 68 -73.5t95 -30.5q74 0 127 53t53 127t-53 127t-127 53q-47 0 -95 -30.5t-68 -73.5l-64 30q28 60 94.5 102t132.5 42q104 0 177 -73t73 -177q0 -74 53 -127t127 -53t127 53t53 127
t-53 127t-127 53v70q104 0 177 -73t73 -177t-73 -177t-177 -73q-59 0 -122 35.5t-93 86.5zM1235 122l35 128q0 -74 53 -127t127 -53t127 53t53 127t-53 127t-127 53v70q104 0 177 -73t73 -177t-73 -177t-177 -73q-59 0 -122 35.5t-93 86.5z" />
    <glyph glyph-name="u1040" unicode="&#x1040;" horiz-adv-x="580" 
d="M290 0h-1q-103 0 -176 73t-73 177t73 177t177 73t177 -73t73 -177t-73 -177t-177 -73zM289 70h1q74 0 127 53t53 127t-53 127t-127 53t-127 -53t-53 -127t52.5 -127t126.5 -53z" />
    <glyph glyph-name="u1041" unicode="&#x1041;" horiz-adv-x="580" 
d="M63 356q28 60 94.5 102t132.5 42q104 0 177 -73t73 -177t-73 -177t-177 -73q-66 0 -132.5 42t-94.5 102l64 30q20 -43 68 -73.5t95 -30.5q74 0 127 53t53 127t-53 127t-127 53q-47 0 -95 -30.5t-68 -73.5z" />
    <glyph glyph-name="u1042" unicode="&#x1042;" horiz-adv-x="580" 
d="M40 -150h70q0 -74 53 -127t127 -53t127 53t53 127v650h70v-650q0 -104 -73 -177t-177 -73t-177 73t-73 177z" />
    <glyph glyph-name="u1043" unicode="&#x1043;" horiz-adv-x="580" 
d="M63 356q28 60 94.5 102t132.5 42q104 0 177 -73t73 -177t-73 -177t-177 -73q-66 0 -132.5 42t-94.5 102l64 30q20 -43 68 -73.5t95 -30.5q74 0 127 53t53 127t-53 127t-127 53q-47 0 -95 -30.5t-68 -73.5zM63 144l60 36l327 -544l-60 -36z" />
    <glyph glyph-name="u1044" unicode="&#x1044;" horiz-adv-x="580" 
d="M517 356l-64 -30q-20 43 -68 73.5t-95 30.5q-74 0 -127 -53t-53 -127t53 -127t127 -53q47 0 95 30.5t68 73.5l64 -30q-28 -60 -94.5 -102t-132.5 -42q-104 0 -177 73t-73 177t73 177t177 73q66 0 132.5 -42t94.5 -102zM517 144l-327 -544l-60 36l327 544z" />
    <glyph glyph-name="u1045" unicode="&#x1045;" horiz-adv-x="580" 
d="M40 -150h70q0 -74 53 -127t127 -53t127 53t53 127v400q0 74 -53 127t-127 53q-26 0 -59.5 -12t-53.5 -28h3q58 0 99 -41t41 -99t-41 -99t-99 -41t-99 41t-41 99q0 104 73 177t177 73t177 -73t73 -177v-400q0 -104 -73 -177t-177 -73t-177 73t-73 177zM180 180h1
q28 0 48.5 20.5t20.5 49.5t-20.5 49.5t-49.5 20.5t-49.5 -20.5t-20.5 -49.5q0 -28 21 -49t49 -21z" />
    <glyph glyph-name="u1046" unicode="&#x1046;" horiz-adv-x="580" 
d="M540 650h-70q0 74 -53 127t-127 53t-127 -53t-53 -127v-400q0 -74 53 -127t127 -53t127 53t53 127h-70q-58 0 -99 41t-41 99t41 99t99 41t99 -41t41 -99h-70q0 29 -20.5 49.5t-49.5 20.5t-49.5 -20.5t-20.5 -49.5t20.5 -49.5t49.5 -20.5h70q29 0 49.5 -20.5t20.5 -49.5
q0 -104 -73 -177t-177 -73t-177 73t-73 177v400q0 104 73 177t177 73t177 -73t73 -177z" />
    <glyph glyph-name="u1047" unicode="&#x1047;" horiz-adv-x="580" 
d="M113 73q-30 30 -51.5 82t-21.5 95q0 104 73 177t177 73t177 -73t73 -177q0 -67 -32.5 -150.5t-78.5 -133.5q-38 -41 -65 -111t-27 -126q0 -14 10.5 -24.5t24.5 -10.5h70v-70h-70q-44 0 -74.5 31t-30.5 74q0 67 32.5 150.5t78.5 133.5q38 41 65 111t27 126q0 74 -53 127
t-127 53t-127 -53t-53 -127q0 -31 15.5 -68t37.5 -59z" />
    <glyph glyph-name="u1048" unicode="&#x1048;" horiz-adv-x="580" 
d="M165 33q-52 30 -88.5 93.5t-36.5 123.5q0 104 73 177t177 73t177 -73t73 -177q0 -66 -42 -132.5t-102 -94.5l-30 64q43 20 73.5 68t30.5 95q0 74 -53 127t-127 53q-30 0 -66.5 -14.5t-58.5 -35.5q29 -30 49.5 -81t20.5 -92t-20.5 -92.5t-49.5 -81.5zM165 120q27 43 27 96
q0 31 -16 69t-39 60q-27 -43 -27 -95q0 -31 16 -69.5t39 -60.5z" />
    <glyph glyph-name="u1049" unicode="&#x1049;" horiz-adv-x="580" 
d="M540 250q0 -29 -20.5 -49.5t-49.5 -20.5h-70q-29 0 -49.5 -20.5t-20.5 -49.5t20.5 -49.5t49.5 -20.5t49.5 20.5t20.5 49.5h70q0 -58 -41 -99t-99 -41t-99 41t-41 99t41 99t99 41h70q0 74 -53 127t-127 53t-127 -53t-53 -127v-400q0 -74 53 -127t127 -53t127 53t53 127h70
q0 -104 -73 -177t-177 -73t-177 73t-73 177v400q0 104 73 177t177 73t177 -73t73 -177z" />
    <glyph glyph-name="u104a" unicode="&#x104a;" horiz-adv-x="580" 
d="M255 500h70v-500h-70v500z" />
    <glyph glyph-name="u104b" unicode="&#x104b;" horiz-adv-x="580" 
d="M190 500h70v-500h-70v500zM320 500h70v-500h-70v500z" />
    <glyph glyph-name="u104c" unicode="&#x104c;" horiz-adv-x="580" 
d="M63 356q28 60 94.5 102t132.5 42q104 0 177 -73t73 -177t-73 -177t-177 -73q-38 0 -85.5 17t-75.5 41q-3 3 -7 3t-8 -3.5t-4 -8.5t4 -9l60 -50q21 -17 55 -29.5t61 -12.5t61 12.5t55 29.5q22 19 52 19q34 0 58 -24t24 -58v-225q0 -44 -31 -74.5t-74 -30.5h-145h-145
q-43 0 -74 30.5t-31 74.5h70q0 -14 10.5 -24.5t24.5 -10.5h145h145q14 0 24.5 10.5t10.5 24.5v225q0 5 -4 8.5t-8 3.5t-7 -3q-28 -24 -75.5 -41t-85.5 -17t-85.5 17t-75.5 41l-60 51q-29 25 -29 62q0 34 24 58t58 24q30 0 52 -19q21 -17 55 -29.5t61 -12.5q74 0 127 53
t53 127t-53 127t-127 53q-47 0 -95 -30.5t-68 -73.5zM414 846l-50 -49q-13 13 -34.5 22t-39.5 9q-44 0 -74.5 -31t-30.5 -74q0 -18 9 -40t22 -35l148 -148h-99l-99 99q-21 21 -36 57.5t-15 66.5q0 73 51 124t124 51q30 0 66.5 -15.5t57.5 -36.5z" />
    <glyph glyph-name="u104d" unicode="&#x104d;" 
d="M505 0q-103 0 -176.5 73t-73.5 177t73.5 177t176.5 73t176.5 -73t73.5 -177v-510h-70v510q-3 72 -55.5 122.5t-124.5 50.5q-74 0 -127 -53t-53 -127q0 -45 28 -91.5t68 -67.5q-11 22 -35 46.5t-47 35.5l-84 84q103 0 176.5 -73t73.5 -177zM905 800l-54 -49q-30 30 -74 30
q-43 0 -74 -30.5t-31 -74.5q0 -18 9 -39.5t22 -34.5l173 -174q11 -11 11 -24v-511v-295q0 -44 -30.5 -74.5t-74.5 -30.5h-215h-145q-44 0 -74.5 30.5t-30.5 74.5t30.5 74.5t74.5 30.5h145v-70h-145q-14 0 -24.5 -10.5t-10.5 -24.5t10.5 -24.5t24.5 -10.5h145h215
q14 0 24.5 10.5t10.5 24.5v295v457q0 18 -9 39.5t-22 34.5l-128 129q-21 21 -36.5 57t-15.5 66q0 73 51 124t124 51q30 0 66.5 -15t57.5 -36z" />
    <glyph glyph-name="u104e" unicode="&#x104e;" horiz-adv-x="580" 
d="M517 356l-64 -30q-20 43 -68 73.5t-95 30.5q-74 0 -127 -53t-53 -127t53 -127t127 -53q27 0 61 12.5t55 29.5q22 19 52 19q34 0 58 -24t24 -58v-449h-70v449q0 5 -4 8.5t-8 3.5t-7 -3q-28 -24 -75.5 -41t-85.5 -17q-104 0 -177 73t-73 177t73 177t177 73q66 0 132.5 -42
t94.5 -102z" />
    <glyph glyph-name="u104f" unicode="&#x104f;" 
d="M677 375q-30 -29 -81.5 -49.5t-92.5 -20.5t-92 20.5t-81 49.5q-21 -22 -35.5 -58.5t-14.5 -66.5t14.5 -66.5t35.5 -58.5q30 29 81 49.5t92 20.5t92.5 -20.5t81.5 -49.5q-30 -52 -93.5 -88.5t-123.5 -36.5q-104 0 -177 73t-73 177t73 177t177 73q60 0 123.5 -36.5
t93.5 -88.5zM590 125q-43 27 -96 27q-31 0 -69 -16t-60 -39q43 -27 95 -27q31 0 69.5 16t60.5 39zM590 375q-22 23 -60.5 39t-69.5 16q-52 0 -95 -27q22 -23 60 -39t69 -16q53 0 96 27zM750 500h70v-500h-70v500zM880 0h-4v457q0 18 -9 39.5t-22 34.5l-128 128
q-21 21 -36.5 57.5t-15.5 66.5q0 73 51 124t124 51q30 0 66.5 -15t57.5 -36l-49 -50q-13 13 -35 22t-40 9q-44 0 -74.5 -31t-30.5 -74q0 -18 9 -39.5t22 -34.5l174 -174q10 -10 10 -25v-510h-70z" />
    <glyph glyph-name="u1700" unicode="&#x1700;" horiz-adv-x="580" 
d="M290 250zM540 250h-70q0 38 -14 69l65 27q19 -43 19 -96zM290 250zM467 427l-50 -50q-24 24 -58 39l27 65q48 -21 81 -54zM290 250zM290 500v-70q-38 0 -69 -14l-27 65q43 19 96 19zM290 250zM113 427l50 -50q-24 -24 -39 -58l-65 27q21 48 54 81zM290 250zM40 250h70
q0 -38 14 -69l-65 -27q-19 43 -19 96zM290 250zM113 73l50 50q24 -24 58 -39l-27 -65q-48 21 -81 54zM290 250zM290 0v70q38 0 69 14l27 -65q-43 -19 -96 -19zM290 250zM467 73l-50 50q24 24 39 58l65 -27q-21 -48 -54 -81zM290 250z" />
    <glyph glyph-name="u2000" unicode="&#x2000;" horiz-adv-x="580" 
d="M580 0z" />
    <glyph glyph-name="u2001" unicode="&#x2001;" 
d="M1085 0z" />
    <glyph glyph-name="u2002" unicode="&#x2002;" horiz-adv-x="580" 
d="M546 0z" />
    <glyph glyph-name="u2003" unicode="&#x2003;" 
d="M1092 0z" />
    <glyph glyph-name="u2004" unicode="&#x2004;" horiz-adv-x="580" 
d="M460 0z" />
    <glyph glyph-name="u2005" unicode="&#x2005;" horiz-adv-x="580" 
d="M418 0z" />
    <glyph glyph-name="u2006" unicode="&#x2006;" horiz-adv-x="580" 
d="M376 0z" />
    <glyph glyph-name="u2007" unicode="&#x2007;" horiz-adv-x="580" 
d="M580 0z" />
    <glyph glyph-name="u2008" unicode="&#x2008;" horiz-adv-x="580" 
d="M386 0z" />
    <glyph glyph-name="u2009" unicode="&#x2009;" horiz-adv-x="580" 
d="M391 0z" />
    <glyph glyph-name="u200a" unicode="&#x200a;" horiz-adv-x="580" 
d="M310 0z" />
    <glyph glyph-name="zwsp" unicode="&#x200b;" horiz-adv-x="0" 
 />
    <glyph glyph-name="zwnj" unicode="&#x200c;" horiz-adv-x="0" 
 />
    <glyph glyph-name="zwj" unicode="&#x200d;" horiz-adv-x="0" 
 />
    <glyph glyph-name="lrm" unicode="&#x200e;" horiz-adv-x="0" 
 />
    <glyph glyph-name="rlm" unicode="&#x200f;" horiz-adv-x="0" 
 />
    <glyph glyph-name="u2018" unicode="&#x2018;" horiz-adv-x="580" 
d="M290 644q23 0 39.5 -16.5t16.5 -39.5t-16.5 -39.5t-39.5 -16.5t-39.5 16.5t-16.5 39.5q0 46 33 79t79 33z" />
    <glyph glyph-name="u2019" unicode="&#x2019;" horiz-adv-x="580" 
d="M290 588q-23 0 -39.5 16.5t-16.5 39.5t16.5 39.5t39.5 16.5t39.5 -16.5t16.5 -39.5q0 -46 -33 -79t-79 -33z" />
    <glyph glyph-name="u201c" unicode="&#x201c;" horiz-adv-x="580" 
d="M206 644q23 0 39.5 -16.5t16.5 -39.5t-16.5 -39.5t-39.5 -16.5t-39.5 16.5t-16.5 39.5q0 46 33 79t79 33zM374 644q23 0 39.5 -16.5t16.5 -39.5t-16.5 -39.5t-39.5 -16.5t-39.5 16.5t-16.5 39.5q0 46 33 79t79 33z" />
    <glyph glyph-name="u201d" unicode="&#x201d;" horiz-adv-x="580" 
d="M206 588q-23 0 -39.5 16.5t-16.5 39.5t16.5 39.5t39.5 16.5t39.5 -16.5t16.5 -39.5q0 -46 -33 -79t-79 -33zM374 588q-23 0 -39.5 16.5t-16.5 39.5t16.5 39.5t39.5 16.5t39.5 -16.5t16.5 -39.5q0 -46 -33 -79t-79 -33z" />
    <glyph glyph-name="pdf" unicode="&#x202c;" horiz-adv-x="0" 
 />
    <glyph glyph-name="wj" unicode="&#x2060;" horiz-adv-x="0" 
 />
    <glyph glyph-name="u2212" unicode="&#x2212;" horiz-adv-x="580" 
d="M40 285h500v-70h-500v70z" />
    <glyph glyph-name="u25cc" unicode="&#x25cc;" horiz-adv-x="580" 
d="M290 250zM540 250h-70q0 38 -14 69l65 27q19 -43 19 -96zM290 250zM467 427l-50 -50q-24 24 -58 39l27 65q48 -21 81 -54zM290 250zM290 500v-70q-38 0 -69 -14l-27 65q43 19 96 19zM290 250zM113 427l50 -50q-24 -24 -39 -58l-65 27q21 48 54 81zM290 250zM40 250h70
q0 -38 14 -69l-65 -27q-19 43 -19 96zM290 250zM113 73l50 50q24 -24 58 -39l-27 -65q-48 21 -81 54zM290 250zM290 0v70q38 0 69 14l27 -65q-43 -19 -96 -19zM290 250zM467 73l-50 50q24 24 39 58l65 -27q-21 -48 -54 -81zM290 250z" />
    <glyph glyph-name="u0061_alt" horiz-adv-x="580" 
d="M540 500v-500h-70v77q-31 -32 -83.5 -54.5t-96.5 -22.5q-104 0 -177 73t-73 177t73 177t177 73q44 0 96.5 -22.5t83.5 -54.5v77h70zM290 70h1q74 0 126.5 53t52.5 127t-53 127t-127 53t-127 -53t-53 -127t53 -127t127 -53z" />
    <glyph glyph-name="u100a_alt" 
d="M655 122q-30 -51 -93 -86.5t-122 -35.5q-38 0 -85.5 17t-75.5 41q-3 3 -7 3t-8 -3.5t-4 -8.5v-344q0 -14 10.5 -24.5t24.5 -10.5h255v-70h-255q-43 0 -74 31t-31 74v344q0 34 24 58t58 24q30 0 52 -19q21 -17 55 -29.5t61 -12.5q74 0 127 53t53 127t-53 127t-127 53
q-47 0 -95 -30.5t-68 -73.5l-64 30q28 60 94.5 102t132.5 42q104 0 177 -73t73 -177q0 -74 53 -127t127 -53t127 53t53 127t-53 127t-127 53v70q104 0 177 -73t73 -177t-73 -177t-177 -73q-59 0 -122 35.5t-93 86.5z" />
    <glyph glyph-name="u100b_alt" horiz-adv-x="580" 
d="M517 356l-64 -30q-20 43 -68 73.5t-95 30.5q-74 0 -127 -53t-53 -127t53 -127t127 -53q47 0 95 30.5t68 73.5l64 -30q-28 -60 -94.5 -102t-132.5 -42q-104 0 -177 73t-73 177t73 177t177 73q66 0 132.5 -42t94.5 -102zM174 -50q21 -17 55 -29.5t61 -12.5t61 12.5t55 29.5
q22 19 52 19q34 0 58 -24t24 -58v-182q0 -14 10.5 -24.5t24.5 -10.5v-70q-43 0 -74 31t-31 74v182q0 5 -4 8.5t-8 3.5t-7 -3q-28 -24 -75.5 -41t-85.5 -17t-85.5 17t-75.5 41l-46 39l45 54z" />
    <glyph glyph-name="u1014_alt" horiz-adv-x="580" 
d="M398 392h-70q0 16 -11 27t-27 11t-27 -11t-11 -27t11 -26.5t27 -10.5q103 0 176.5 -62.5t73.5 -150.5q0 -59 -73 -100.5t-177 -41.5t-177 41.5t-73 100.5t41.5 101t100.5 42q22 0 48.5 -9.5t43.5 -23.5l231 -194l-45 -53l-231 193q-21 17 -47 17q-30 0 -51 -21.5
t-21 -51.5t53 -51t127 -21t127 21t53 51q0 59 -53 101t-127 42q-44 0 -76 31.5t-32 75.5t32 76t76 32t76 -32t32 -76z" />
    <glyph glyph-name="u101b_alt" horiz-adv-x="580" 
d="M290 0q-104 0 -177 73t-73 177t73 177t177 73t177 -73t73 -177v-510h-70v510q0 74 -53 127t-127 53t-127 -53t-53 -127v-10q74 -22 127 -92.5t53 -147.5zM141 149q20 -28 48 -48q-20 28 -48 48z" />
    <glyph glyph-name="u101b_long" horiz-adv-x="580" 
d="M290 0q-104 0 -177 73t-73 177t73 177t177 73t177 -73t73 -177v-650h-70v650q0 74 -53 127t-127 53t-127 -53t-53 -127v-10q74 -22 127 -92.5t53 -147.5zM141 149q20 -28 48 -48q-20 28 -48 48z" />
    <glyph glyph-name="u102f_tall" horiz-adv-x="580" 
d="M40 500h70v-795q0 -14 10.5 -24.5t24.5 -10.5h70v-70h-70q-43 0 -74 31t-31 74v795z" />
    <glyph glyph-name="u1030_tall" horiz-adv-x="580" 
d="M40 500h70v-900h-70v900zM170 500h70v-795q0 -14 10.5 -24.5t24.5 -10.5h70v-70h-70q-43 0 -74 31t-31 74v795z" />
    <glyph glyph-name="u103c_narrow" horiz-adv-x="580" 
d="M690 735h-70v60q0 14 -10.5 24.5t-24.5 10.5h-185h-255q-14 0 -24.5 -10.5t-10.5 -24.5v-795v-295q0 -14 10.5 -24.5t24.5 -10.5h255h185q14 0 24.5 10.5t10.5 24.5v245h70v-245q0 -43 -31 -74t-74 -31h-185h-255q-43 0 -74 31t-31 74v295v795q0 43 31 74t74 31h255h185
q43 0 74 -31t31 -74v-60z" />
    <glyph glyph-name="u103c_narrow_upper" horiz-adv-x="580" 
d="M220 900v-70h-75q-14 0 -24.5 -10.5t-10.5 -24.5v-795v-295q0 -14 10.5 -24.5t24.5 -10.5h255h185q14 0 24.5 10.5t10.5 24.5v245h70v-245q0 -43 -31 -74t-74 -31h-185h-255q-43 0 -74 31t-31 74v295v795q0 43 31 74t74 31h75z" />
    <glyph glyph-name="u103c_wide" horiz-adv-x="580" 
d="M1120 735h-70v60q0 14 -10.5 24.5t-24.5 10.5h-435h-435q-14 0 -24.5 -10.5t-10.5 -24.5v-795v-295q0 -14 10.5 -24.5t24.5 -10.5h435h435q14 0 24.5 10.5t10.5 24.5v245h70v-245q0 -43 -31 -74t-74 -31h-435h-435q-43 0 -74 31t-31 74v295v795q0 43 31 74t74 31h435h435
q43 0 74 -31t31 -74v-60z" />
    <glyph glyph-name="u103c_wide_upper" horiz-adv-x="580" 
d="M645 900v-70h-500q-14 0 -24.5 -10.5t-10.5 -24.5v-795v-295q0 -14 10.5 -24.5t24.5 -10.5h435h435q14 0 24.5 10.5t10.5 24.5v245h70v-245q0 -43 -31 -74t-74 -31h-435h-435q-43 0 -74 31t-31 74v295v795q0 43 31 74t74 31h500z" />
    <glyph glyph-name="u103e_small" horiz-adv-x="1" 
d="M-255 -50v-70q0 -44 -30.5 -74.5t-74.5 -30.5h-70v70h70q14 0 24.5 10.5t10.5 24.5v70h70z" />
    <glyph glyph-name="u102b_mark" horiz-adv-x="580" 
d="M-140 725q0 52 36.5 88.5t88.5 36.5t88.5 -36.5t36.5 -88.5v-725h-70v725q0 23 -16 39t-39 16t-39 -16t-16 -39h-70z" />
    <glyph glyph-name="u102c_mark" horiz-adv-x="580" 
d="M-75 378q30 51 93 86.5t122 35.5q104 0 177 -73t73 -177t-73 -177t-177 -73v70q74 0 127 53t53 127t-53 127t-127 53t-127 -53t-53 -127z" />
    <glyph glyph-name="u102d_mark" horiz-adv-x="1" 
d="M-290 550h-1q-72 0 -123.5 51.5t-51.5 123.5q0 73 51.5 124t124.5 51t123.5 -51t50.5 -124q0 -72 -51 -123.5t-123 -51.5zM-291 599h1q52 0 89 37t37 89q0 53 -37 89.5t-89 36.5t-89 -36.5t-37 -89.5q0 -52 36.5 -89t88.5 -37z" />
    <glyph glyph-name="u102e_mark" horiz-adv-x="1" 
d="M-290 550h-1q-72 0 -123.5 51.5t-51.5 123.5q0 73 51.5 124t124.5 51t123.5 -51t50.5 -124q0 -72 -51 -123.5t-123 -51.5zM-407 678q21 19 55 32t62 13t62 -13t55 -32q9 22 9 47q0 53 -37 89.5t-89 36.5t-89 -36.5t-37 -89.5q0 -25 9 -47zM-381 638q16 -16 42.5 -27.5
t48.5 -11.5t48.5 11.5t42.5 27.5q-16 16 -42.5 27t-48.5 11t-48.5 -11t-42.5 -27z" />
    <glyph glyph-name="u102f_mark" horiz-adv-x="1" 
d="M-325 -50h70v-245q0 -14 10.5 -24.5t24.5 -10.5h70v-70h-70q-44 0 -74.5 31t-30.5 74v245z" />
    <glyph glyph-name="u1030_mark" horiz-adv-x="1" 
d="M-420 -50h70v-350h-70v350zM-220 -50h70v-245q0 -14 10.5 -24.5t24.5 -10.5h70v-70h-70q-43 0 -74 31t-31 74v245z" />
    <glyph glyph-name="u1031_mark" horiz-adv-x="580" 
d="M517 356l-64 -30q-20 43 -68 73.5t-95 30.5q-74 0 -127 -53t-53 -127q0 -30 14.5 -66.5t35.5 -58.5q30 29 81 49.5t92 20.5t92.5 -20.5t81.5 -49.5q-30 -52 -93.5 -88.5t-123.5 -36.5q-104 0 -177 73t-73 177t73 177t177 73q66 0 132.5 -42t94.5 -102zM420 125
q-43 27 -96 27q-31 0 -69 -16t-60 -39q43 -27 95 -27q31 0 69.5 16t60.5 39z" />
    <glyph glyph-name="u1032_mark" horiz-adv-x="1" 
d="M-490 900l50 49l350 -350l-50 -49z" />
    <glyph glyph-name="u1034_mark" horiz-adv-x="1" 
d="M-440 550l-50 49l350 350l50 -49z" />
    <glyph glyph-name="u1036_mark" horiz-adv-x="1" 
d="M-290 646h-1q-32 0 -55.5 23.5t-23.5 55.5q0 33 23.5 56t56.5 23t55.5 -23t22.5 -56q0 -32 -23 -55.5t-55 -23.5zM-291 695h1q12 0 21 9t9 21q0 13 -8.5 21.5t-21.5 8.5t-21.5 -8.5t-8.5 -21.5q0 -12 8.5 -21t20.5 -9z" />
    <glyph glyph-name="u1037_mark" horiz-adv-x="580" 
d="M79 -208h-1q-32 0 -55 23.5t-23 55.5q0 33 22.5 56t55.5 23t56.5 -23t23.5 -56q0 -32 -23.5 -55.5t-55.5 -23.5zM78 -159h1q12 0 20.5 9t8.5 21q0 13 -8.5 21.5t-21.5 8.5t-21.5 -8.5t-8.5 -21.5q0 -12 9 -21t21 -9z" />
    <glyph glyph-name="u1038_mark" horiz-adv-x="580" 
d="M79 60h-1q-32 0 -55 23.5t-23 55.5q0 33 22.5 56t55.5 23t56.5 -23t23.5 -56q0 -32 -23.5 -55.5t-55.5 -23.5zM79 109h1q12 0 21 9t9 21q0 13 -8.5 21.5t-21.5 8.5t-21.5 -8.5t-8.5 -21.5q0 -12 8.5 -21t20.5 -9zM79 282h-1q-32 0 -55 23.5t-23 55.5q0 33 22.5 56
t55.5 23t56.5 -23t23.5 -56q0 -32 -23.5 -55.5t-55.5 -23.5zM79 331h1q12 0 21 9t9 21q0 13 -8.5 21.5t-21.5 8.5t-21.5 -8.5t-8.5 -21.5q0 -12 8.5 -21t20.5 -9z" />
    <glyph glyph-name="u103a_mark" horiz-adv-x="1" 
d="M-166 846l-50 -49q-13 13 -34.5 22t-39.5 9q-44 0 -74.5 -31t-30.5 -74q0 -18 9 -40t22 -35l148 -148h-99l-99 99q-21 21 -36 57.5t-15 66.5q0 73 51 124t124 51q30 0 66.5 -15.5t57.5 -36.5z" />
    <glyph glyph-name="u103b_mark" horiz-adv-x="580" 
d="M-214 55h70v-200q0 -22 20 -31l70 -34l40 -20q6 -3 15 -3q14 0 24.5 10.5t10.5 24.5v698h70v-837q0 -14 -10.5 -24.5t-24.5 -10.5q-10 0 -18 5l-107 67l-143 90q-17 11 -17 29v236z" />
    <glyph glyph-name="u103c_mark" horiz-adv-x="580" 
d="M690 735h-70v60q0 14 -10.5 24.5t-24.5 10.5h-185h-255q-14 0 -24.5 -10.5t-10.5 -24.5v-795v-295q0 -14 10.5 -24.5t24.5 -10.5h255h185q14 0 24.5 10.5t10.5 24.5v245h70v-245q0 -43 -31 -74t-74 -31h-185h-255q-43 0 -74 31t-31 74v295v795q0 43 31 74t74 31h255h185
q43 0 74 -31t31 -74v-60z" />
    <glyph glyph-name="u103d_mark" horiz-adv-x="1" 
d="M-290 -50h1q72 0 123.5 -51.5t51.5 -123.5q0 -73 -51.5 -124t-124.5 -51t-123.5 51t-50.5 124q0 72 51 123.5t123 51.5zM-290 -99h-1q-52 0 -88.5 -37t-36.5 -89q0 -53 37 -89.5t89 -36.5t89 36.5t37 89.5q0 52 -37 89t-89 37z" />
    <glyph glyph-name="u103e_mark" horiz-adv-x="1" 
d="M-220 -50v-245q0 -43 -31 -74t-74 -31h-70v70h70q14 0 24.5 10.5t10.5 24.5v245h70z" />
    <glyph glyph-name="u1000_u1031" horiz-adv-x="1740" 
d="M667 356l-64 -30q-20 43 -68 73.5t-95 30.5q-74 0 -127 -53t-53 -127q0 -30 14.5 -66.5t35.5 -58.5q30 29 81 49.5t92 20.5t92.5 -20.5t81.5 -49.5q-30 -52 -93.5 -88.5t-123.5 -36.5q-104 0 -177 73t-73 177t73 177t177 73q66 0 132.5 -42t94.5 -102zM570 125
q-43 27 -96 27q-31 0 -69 -16t-60 -39q43 -27 95 -27q31 0 69.5 16t60.5 39zM1235 378q30 51 93 86.5t122 35.5q104 0 177 -73t73 -177t-73 -177t-177 -73v70q74 0 127 53t53 127t-53 127t-127 53t-127 -53t-53 -127q0 -66 -42 -132.5t-102 -94.5l-30 64q43 20 73.5 68
t30.5 95q0 74 -53 127t-127 53t-127 -53t-53 -127q0 -47 30.5 -95t73.5 -68l-30 -64q-60 28 -102 94.5t-42 132.5q0 104 73 177t177 73q59 0 122 -35.5t93 -86.5z" />
    <glyph glyph-name="u1000_u1031_u1037" horiz-adv-x="1740" 
d="M667 356l-64 -30q-20 43 -68 73.5t-95 30.5q-74 0 -127 -53t-53 -127q0 -30 14.5 -66.5t35.5 -58.5q30 29 81 49.5t92 20.5t92.5 -20.5t81.5 -49.5q-30 -52 -93.5 -88.5t-123.5 -36.5q-104 0 -177 73t-73 177t73 177t177 73q66 0 132.5 -42t94.5 -102zM570 125
q-43 27 -96 27q-31 0 -69 -16t-60 -39q43 -27 95 -27q31 0 69.5 16t60.5 39zM1235 378q30 51 93 86.5t122 35.5q104 0 177 -73t73 -177t-73 -177t-177 -73v70q74 0 127 53t53 127t-53 127t-127 53t-127 -53t-53 -127q0 -66 -42 -132.5t-102 -94.5l-30 64q43 20 73.5 68
t30.5 95q0 74 -53 127t-127 53t-127 -53t-53 -127q0 -47 30.5 -95t73.5 -68l-30 -64q-60 28 -102 94.5t-42 132.5q0 104 73 177t177 73q59 0 122 -35.5t93 -86.5zM1529 -208h-1q-32 0 -55 23.5t-23 55.5q0 33 22.5 56t55.5 23t56.5 -23t23.5 -56q0 -32 -23.5 -55.5
t-55.5 -23.5zM1528 -159h1q12 0 20.5 9t8.5 21q0 13 -8.5 21.5t-21.5 8.5t-21.5 -8.5t-8.5 -21.5q0 -12 9 -21t21 -9z" />
    <glyph glyph-name="u1000_u103b_u1031" horiz-adv-x="2320" 
d="M1067 356l-64 -30q-20 43 -68 73.5t-95 30.5q-74 0 -127 -53t-53 -127q0 -30 14.5 -66.5t35.5 -58.5q30 29 81 49.5t92 20.5t92.5 -20.5t81.5 -49.5q-30 -52 -93.5 -88.5t-123.5 -36.5q-104 0 -177 73t-73 177t73 177t177 73q66 0 132.5 -42t94.5 -102zM970 125
q-43 27 -96 27q-31 0 -69 -16t-60 -39q43 -27 95 -27q31 0 69.5 16t60.5 39zM1635 378q30 51 93 86.5t122 35.5q104 0 177 -73t73 -177t-73 -177t-177 -73v70q74 0 127 53t53 127t-53 127t-127 53t-127 -53t-53 -127q0 -66 -42 -132.5t-102 -94.5l-30 64q43 20 73.5 68
t30.5 95q0 74 -53 127t-127 53t-127 -53t-53 -127q0 -47 30.5 -95t73.5 -68l-30 -64q-60 28 -102 94.5t-42 132.5q0 104 73 177t177 73q59 0 122 -35.5t93 -86.5zM1926 55h70v-200q0 -22 20 -31l70 -34l40 -20q6 -3 15 -3q14 0 24.5 10.5t10.5 24.5v698h70v-837
q0 -14 -10.5 -24.5t-24.5 -10.5q-10 0 -18 5l-107 67l-143 90q-17 11 -17 29v236z" />
    <glyph glyph-name="u1000_u103b_u103d_u1031" horiz-adv-x="2320" 
d="M1067 356l-64 -30q-20 43 -68 73.5t-95 30.5q-74 0 -127 -53t-53 -127q0 -30 14.5 -66.5t35.5 -58.5q30 29 81 49.5t92 20.5t92.5 -20.5t81.5 -49.5q-30 -52 -93.5 -88.5t-123.5 -36.5q-104 0 -177 73t-73 177t73 177t177 73q66 0 132.5 -42t94.5 -102zM970 125
q-43 27 -96 27q-31 0 -69 -16t-60 -39q43 -27 95 -27q31 0 69.5 16t60.5 39zM1635 378q30 51 93 86.5t122 35.5q104 0 177 -73t73 -177t-73 -177t-177 -73v70q74 0 127 53t53 127t-53 127t-127 53t-127 -53t-53 -127q0 -66 -42 -132.5t-102 -94.5l-30 64q43 20 73.5 68
t30.5 95q0 74 -53 127t-127 53t-127 -53t-53 -127q0 -47 30.5 -95t73.5 -68l-30 -64q-60 28 -102 94.5t-42 132.5q0 104 73 177t177 73q59 0 122 -35.5t93 -86.5zM1995 -323q-22 -32 -64.5 -54.5t-80.5 -22.5q-73 0 -124 51t-51 124t51 124t124 51t124 -51t51 -124
q0 -19 -3 -33l106 -44q12 -3 14 -3q14 0 24.5 10.5t10.5 24.5v770h70v-875q0 -14 -10.5 -24.5t-24.5 -10.5q-2 0 -14 3zM1850 -99h-1q-52 0 -88.5 -37t-36.5 -89q0 -53 37 -89.5t89 -36.5t89 36.5t37 89.5q0 52 -37 89t-89 37z" />
    <glyph glyph-name="u1000_u103b_u103d_u103e_u1031" horiz-adv-x="2320" 
d="M1067 356l-64 -30q-20 43 -68 73.5t-95 30.5q-74 0 -127 -53t-53 -127q0 -30 14.5 -66.5t35.5 -58.5q30 29 81 49.5t92 20.5t92.5 -20.5t81.5 -49.5q-30 -52 -93.5 -88.5t-123.5 -36.5q-104 0 -177 73t-73 177t73 177t177 73q66 0 132.5 -42t94.5 -102zM970 125
q-43 27 -96 27q-31 0 -69 -16t-60 -39q43 -27 95 -27q31 0 69.5 16t60.5 39zM1635 378q30 51 93 86.5t122 35.5q104 0 177 -73t73 -177t-73 -177t-177 -73v70q74 0 127 53t53 127t-53 127t-127 53t-127 -53t-53 -127q0 -66 -42 -132.5t-102 -94.5l-30 64q43 20 73.5 68
t30.5 95q0 74 -53 127t-127 53t-127 -53t-53 -127q0 -47 30.5 -95t73.5 -68l-30 -64q-60 28 -102 94.5t-42 132.5q0 104 73 177t177 73q59 0 122 -35.5t93 -86.5zM1680 -268l-11 8l-55 -75q-10 -14 -28 -14q-14 0 -21 6l-51 37l29 40l12 -8q9 -7 20 -7q19 0 29 14l104 145
q22 30 63.5 51t78.5 21q73 0 124 -51t51 -124q0 -19 -3 -33l106 -44q12 -3 14 -3q14 0 24.5 10.5t10.5 24.5v770h70v-875q0 -14 -10.5 -24.5t-24.5 -10.5q-2 0 -14 3l-203 84q-22 -32 -64.5 -54.5t-80.5 -22.5q-56 0 -106.5 38.5t-63.5 93.5zM1850 -99h-1q-52 0 -88.5 -37
t-36.5 -89q0 -53 37 -89.5t89 -36.5t89 36.5t37 89.5q0 52 -37 89t-89 37z" />
    <glyph glyph-name="u1000_u103b_u103e_u1031" horiz-adv-x="2320" 
d="M1067 356l-64 -30q-20 43 -68 73.5t-95 30.5q-74 0 -127 -53t-53 -127q0 -30 14.5 -66.5t35.5 -58.5q30 29 81 49.5t92 20.5t92.5 -20.5t81.5 -49.5q-30 -52 -93.5 -88.5t-123.5 -36.5q-104 0 -177 73t-73 177t73 177t177 73q66 0 132.5 -42t94.5 -102zM970 125
q-43 27 -96 27q-31 0 -69 -16t-60 -39q43 -27 95 -27q31 0 69.5 16t60.5 39zM1635 378q30 51 93 86.5t122 35.5q104 0 177 -73t73 -177t-73 -177t-177 -73v70q74 0 127 53t53 127t-53 127t-127 53t-127 -53t-53 -127q0 -66 -42 -132.5t-102 -94.5l-30 64q43 20 73.5 68
t30.5 95q0 74 -53 127t-127 53t-127 -53t-53 -127q0 -47 30.5 -95t73.5 -68l-30 -64q-60 28 -102 94.5t-42 132.5q0 104 73 177t177 73q59 0 122 -35.5t93 -86.5zM1926 55h70v-200q0 -22 20 -31l70 -34l40 -20q6 -3 15 -3q14 0 24.5 10.5t10.5 24.5v698h70v-837
q0 -14 -10.5 -24.5t-24.5 -10.5q-10 0 -18 5l-107 67l-143 90q-17 11 -17 29v96l-97 -168q-10 -17 -30 -17q-11 0 -18 5l-91 52l35 61l31 -18q7 -5 17 -5q20 0 31 18z" />
    <glyph glyph-name="u1000_u103d_u1031" horiz-adv-x="1740" 
d="M667 356l-64 -30q-20 43 -68 73.5t-95 30.5q-74 0 -127 -53t-53 -127q0 -30 14.5 -66.5t35.5 -58.5q30 29 81 49.5t92 20.5t92.5 -20.5t81.5 -49.5q-30 -52 -93.5 -88.5t-123.5 -36.5q-104 0 -177 73t-73 177t73 177t177 73q66 0 132.5 -42t94.5 -102zM570 125
q-43 27 -96 27q-31 0 -69 -16t-60 -39q43 -27 95 -27q31 0 69.5 16t60.5 39zM1235 378q30 51 93 86.5t122 35.5q104 0 177 -73t73 -177t-73 -177t-177 -73v70q74 0 127 53t53 127t-53 127t-127 53t-127 -53t-53 -127q0 -66 -42 -132.5t-102 -94.5l-30 64q43 20 73.5 68
t30.5 95q0 74 -53 127t-127 53t-127 -53t-53 -127q0 -47 30.5 -95t73.5 -68l-30 -64q-60 28 -102 94.5t-42 132.5q0 104 73 177t177 73q59 0 122 -35.5t93 -86.5zM1450 -50h1q72 0 123.5 -51.5t51.5 -123.5q0 -73 -51.5 -124t-124.5 -51t-123.5 51t-50.5 124q0 72 51 123.5
t123 51.5zM1450 -99h-1q-52 0 -88.5 -37t-36.5 -89q0 -53 37 -89.5t89 -36.5t89 36.5t37 89.5q0 52 -37 89t-89 37z" />
    <glyph glyph-name="u1000_u103d_u103e_u1031" horiz-adv-x="1740" 
d="M667 356l-64 -30q-20 43 -68 73.5t-95 30.5q-74 0 -127 -53t-53 -127q0 -30 14.5 -66.5t35.5 -58.5q30 29 81 49.5t92 20.5t92.5 -20.5t81.5 -49.5q-30 -52 -93.5 -88.5t-123.5 -36.5q-104 0 -177 73t-73 177t73 177t177 73q66 0 132.5 -42t94.5 -102zM570 125
q-43 27 -96 27q-31 0 -69 -16t-60 -39q43 -27 95 -27q31 0 69.5 16t60.5 39zM1235 378q30 51 93 86.5t122 35.5q104 0 177 -73t73 -177t-73 -177t-177 -73v70q74 0 127 53t53 127t-53 127t-127 53t-127 -53t-53 -127q0 -66 -42 -132.5t-102 -94.5l-30 64q43 20 73.5 68
t30.5 95q0 74 -53 127t-127 53t-127 -53t-53 -127q0 -47 30.5 -95t73.5 -68l-30 -64q-60 28 -102 94.5t-42 132.5q0 104 73 177t177 73q59 0 122 -35.5t93 -86.5zM1308 -122q22 30 63.5 51t78.5 21q73 0 124 -51t51 -124t-51 -124t-124 -51q-63 0 -113.5 44.5t-59.5 106.5
l-63 -86q-10 -14 -28 -14q-14 0 -21 6l-51 37l29 40l12 -8q9 -7 20 -7q19 0 29 14zM1450 -99h-1q-52 0 -88.5 -37t-36.5 -89q0 -53 37 -89.5t89 -36.5t89 36.5t37 89.5q0 52 -37 89t-89 37z" />
    <glyph glyph-name="u1000_u103e_u1031" horiz-adv-x="1740" 
d="M667 356l-64 -30q-20 43 -68 73.5t-95 30.5q-74 0 -127 -53t-53 -127q0 -30 14.5 -66.5t35.5 -58.5q30 29 81 49.5t92 20.5t92.5 -20.5t81.5 -49.5q-30 -52 -93.5 -88.5t-123.5 -36.5q-104 0 -177 73t-73 177t73 177t177 73q66 0 132.5 -42t94.5 -102zM570 125
q-43 27 -96 27q-31 0 -69 -16t-60 -39q43 -27 95 -27q31 0 69.5 16t60.5 39zM1235 378q30 51 93 86.5t122 35.5q104 0 177 -73t73 -177t-73 -177t-177 -73v70q74 0 127 53t53 127t-53 127t-127 53t-127 -53t-53 -127q0 -66 -42 -132.5t-102 -94.5l-30 64q43 20 73.5 68
t30.5 95q0 74 -53 127t-127 53t-127 -53t-53 -127q0 -47 30.5 -95t73.5 -68l-30 -64q-60 28 -102 94.5t-42 132.5q0 104 73 177t177 73q59 0 122 -35.5t93 -86.5zM1520 -50v-245q0 -43 -31 -74t-74 -31h-70v70h70q14 0 24.5 10.5t10.5 24.5v245h70z" />
    <glyph glyph-name="u1004_u103a_u1039_u1000" 
d="M655 378q30 51 93 86.5t122 35.5q104 0 177 -73t73 -177t-73 -177t-177 -73v70q74 0 127 53t53 127t-53 127t-127 53t-127 -53t-53 -127q0 -66 -42 -132.5t-102 -94.5l-30 64q43 20 73.5 68t30.5 95q0 74 -53 127t-127 53t-127 -53t-53 -127q0 -47 30.5 -95t73.5 -68
l-30 -64q-60 28 -102 94.5t-42 132.5q0 104 73 177t177 73q59 0 122 -35.5t93 -86.5zM957 606q-10 -23 -35.5 -39.5t-51.5 -16.5q-40 0 -68 28t-28 68q0 21 12 44t29 35q-17 12 -29 35t-12 44q0 40 28 68t68 28q26 0 51.5 -16.5t35.5 -39.5l-31 -14q-7 15 -23 25t-33 10
q-26 0 -43.5 -17.5t-17.5 -43.5t18 -44t43 -18q26 0 51.5 -16t35.5 -39l-31 -15q-7 15 -23 25.5t-33 10.5q-25 0 -43 -18t-18 -44t17.5 -43.5t43.5 -17.5q17 0 33 10t23 25z" />
    <glyph glyph-name="u1004_u103a_u1039_u1000_u1031" horiz-adv-x="1740" 
d="M667 356l-64 -30q-20 43 -68 73.5t-95 30.5q-74 0 -127 -53t-53 -127q0 -30 14.5 -66.5t35.5 -58.5q30 29 81 49.5t92 20.5t92.5 -20.5t81.5 -49.5q-30 -52 -93.5 -88.5t-123.5 -36.5q-104 0 -177 73t-73 177t73 177t177 73q66 0 132.5 -42t94.5 -102zM570 125
q-43 27 -96 27q-31 0 -69 -16t-60 -39q43 -27 95 -27q31 0 69.5 16t60.5 39zM1235 378q30 51 93 86.5t122 35.5q104 0 177 -73t73 -177t-73 -177t-177 -73v70q74 0 127 53t53 127t-53 127t-127 53t-127 -53t-53 -127q0 -66 -42 -132.5t-102 -94.5l-30 64q43 20 73.5 68
t30.5 95q0 74 -53 127t-127 53t-127 -53t-53 -127q0 -47 30.5 -95t73.5 -68l-30 -64q-60 28 -102 94.5t-42 132.5q0 104 73 177t177 73q59 0 122 -35.5t93 -86.5zM1537 606q-10 -23 -35.5 -39.5t-51.5 -16.5q-40 0 -68 28t-28 68q0 21 12 44t29 35q-17 12 -29 35t-12 44
q0 40 28 68t68 28q26 0 51.5 -16.5t35.5 -39.5l-31 -14q-7 15 -23 25t-33 10q-26 0 -43.5 -17.5t-17.5 -43.5t18 -44t43 -18q26 0 51.5 -16t35.5 -39l-31 -15q-7 15 -23 25.5t-33 10.5q-25 0 -43 -18t-18 -44t17.5 -43.5t43.5 -17.5q17 0 33 10t23 25z" />
    <glyph glyph-name="kinzi_u1000_u103b_u1031" horiz-adv-x="1740" 
d="M517 356l-64 -30q-20 43 -68 73.5t-95 30.5q-74 0 -127 -53t-53 -127q0 -30 14.5 -66.5t35.5 -58.5q30 29 81 49.5t92 20.5t92.5 -20.5t81.5 -49.5q-30 -52 -93.5 -88.5t-123.5 -36.5q-104 0 -177 73t-73 177t73 177t177 73q66 0 132.5 -42t94.5 -102zM420 125
q-43 27 -96 27q-31 0 -69 -16t-60 -39q43 -27 95 -27q31 0 69.5 16t60.5 39zM1085 378q30 51 93 86.5t122 35.5q104 0 177 -73t73 -177t-73 -177t-177 -73v70q74 0 127 53t53 127t-53 127t-127 53t-127 -53t-53 -127q0 -66 -42 -132.5t-102 -94.5l-30 64q43 20 73.5 68
t30.5 95q0 74 -53 127t-127 53t-127 -53t-53 -127q0 -47 30.5 -95t73.5 -68l-30 -64q-60 28 -102 94.5t-42 132.5q0 104 73 177t177 73q59 0 122 -35.5t93 -86.5zM1387 606q-10 -23 -35.5 -39.5t-51.5 -16.5q-40 0 -68 28t-28 68q0 21 12 44t29 35q-17 12 -29 35t-12 44
q0 40 28 68t68 28q26 0 51.5 -16.5t35.5 -39.5l-31 -14q-7 15 -23 25t-33 10q-26 0 -43.5 -17.5t-17.5 -43.5t18 -44t43 -18q26 0 51.5 -16t35.5 -39l-31 -15q-7 15 -23 25.5t-33 10.5q-25 0 -43 -18t-18 -44t17.5 -43.5t43.5 -17.5q17 0 33 10t23 25zM1376 55h70v-200
q0 -22 20 -31l70 -34l40 -20q6 -3 15 -3q14 0 24.5 10.5t10.5 24.5v698h70v-837q0 -14 -10.5 -24.5t-24.5 -10.5q-10 0 -18 5l-107 67l-143 90q-17 11 -17 29v236z" />
    <glyph glyph-name="u1004_u103a_u1039_u1000_u102d" 
d="M655 378q30 51 93 86.5t122 35.5q104 0 177 -73t73 -177t-73 -177t-177 -73v70q74 0 127 53t53 127t-53 127t-127 53t-127 -53t-53 -127q0 -66 -42 -132.5t-102 -94.5l-30 64q43 20 73.5 68t30.5 95q0 74 -53 127t-127 53t-127 -53t-53 -127q0 -47 30.5 -95t73.5 -68
l-30 -64q-60 28 -102 94.5t-42 132.5q0 104 73 177t177 73q59 0 122 -35.5t93 -86.5zM782 606q-10 -23 -35.5 -39.5t-51.5 -16.5q-40 0 -68 28t-28 68q0 21 12 44t29 35q-17 12 -29 35t-12 44q0 40 28 68t68 28q26 0 51.5 -16.5t35.5 -39.5l-31 -14q-7 15 -23 25t-33 10
q-25 0 -43 -17.5t-18 -43.5t18 -44t43 -18q26 0 51.5 -16t35.5 -39l-31 -15q-7 15 -23 25.5t-33 10.5q-25 0 -43 -18t-18 -44t18 -43.5t43 -17.5q17 0 33 10t23 25zM1045 550h-1q-72 0 -123 51.5t-51 123.5q0 73 50.5 124t123.5 51t124.5 -51t51.5 -124q0 -72 -51.5 -123.5
t-123.5 -51.5zM1044 599h1q52 0 88.5 37t36.5 89q0 53 -37 89.5t-89 36.5t-89 -36.5t-37 -89.5q0 -52 37 -89t89 -37z" />
    <glyph glyph-name="u1004_u103a_u1039_u1000_u102e" 
d="M655 378q30 51 93 86.5t122 35.5q104 0 177 -73t73 -177t-73 -177t-177 -73v70q74 0 127 53t53 127t-53 127t-127 53t-127 -53t-53 -127q0 -66 -42 -132.5t-102 -94.5l-30 64q43 20 73.5 68t30.5 95q0 74 -53 127t-127 53t-127 -53t-53 -127q0 -47 30.5 -95t73.5 -68
l-30 -64q-60 28 -102 94.5t-42 132.5q0 104 73 177t177 73q59 0 122 -35.5t93 -86.5zM782 606q-10 -23 -35.5 -39.5t-51.5 -16.5q-40 0 -68 28t-28 68q0 21 12 44t29 35q-17 12 -29 35t-12 44q0 40 28 68t68 28q26 0 51.5 -16.5t35.5 -39.5l-31 -14q-7 15 -23 25t-33 10
q-25 0 -43 -17.5t-18 -43.5t18 -44t43 -18q26 0 51.5 -16t35.5 -39l-31 -15q-7 15 -23 25.5t-33 10.5q-25 0 -43 -18t-18 -44t18 -43.5t43 -17.5q17 0 33 10t23 25zM1045 550h-1q-72 0 -123 51.5t-51 123.5q0 73 50.5 124t123.5 51t124.5 -51t51.5 -124q0 -72 -51.5 -123.5
t-123.5 -51.5zM928 678q21 19 55 32t62 13t62 -13t55 -32q9 22 9 47q0 53 -36.5 89.5t-89.5 36.5t-89.5 -36.5t-36.5 -89.5q0 -25 9 -47zM954 638q16 -16 42.5 -27.5t48.5 -11.5t48.5 11.5t42.5 27.5q-16 16 -42.5 27t-48.5 11t-48.5 -11t-42.5 -27z" />
    <glyph glyph-name="u1004_u103a_u1039_u1000_u1036" 
d="M655 378q30 51 93 86.5t122 35.5q104 0 177 -73t73 -177t-73 -177t-177 -73v70q74 0 127 53t53 127t-53 127t-127 53t-127 -53t-53 -127q0 -66 -42 -132.5t-102 -94.5l-30 64q43 20 73.5 68t30.5 95q0 74 -53 127t-127 53t-127 -53t-53 -127q0 -47 30.5 -95t73.5 -68
l-30 -64q-60 28 -102 94.5t-42 132.5q0 104 73 177t177 73q59 0 122 -35.5t93 -86.5zM782 606q-10 -23 -35.5 -39.5t-51.5 -16.5q-40 0 -68 28t-28 68q0 21 12 44t29 35q-17 12 -29 35t-12 44q0 40 28 68t68 28q26 0 51.5 -16.5t35.5 -39.5l-31 -14q-7 15 -23 25t-33 10
q-25 0 -43 -17.5t-18 -43.5t18 -44t43 -18q26 0 51.5 -16t35.5 -39l-31 -15q-7 15 -23 25.5t-33 10.5q-25 0 -43 -18t-18 -44t18 -43.5t43 -17.5q17 0 33 10t23 25zM1045 646h-1q-32 0 -55 23.5t-23 55.5q0 33 22.5 56t55.5 23t56.5 -23t23.5 -56q0 -32 -23.5 -55.5
t-55.5 -23.5zM1044 695h1q12 0 20.5 9t8.5 21q0 13 -8.5 21.5t-21.5 8.5t-21.5 -8.5t-8.5 -21.5q0 -12 9 -21t21 -9z" />
    <glyph glyph-name="u1000_u103c" 
d="M1120 735h-70v60q0 14 -10.5 24.5t-24.5 10.5h-435h-435q-14 0 -24.5 -10.5t-10.5 -24.5v-795v-295q0 -14 10.5 -24.5t24.5 -10.5h435h435q14 0 24.5 10.5t10.5 24.5v245h70v-245q0 -43 -31 -74t-74 -31h-435h-435q-43 0 -74 31t-31 74v295v795q0 43 31 74t74 31h435h435
q43 0 74 -31t31 -74v-60zM655 378q30 51 93 86.5t122 35.5q104 0 177 -73t73 -177t-73 -177t-177 -73v70q74 0 127 53t53 127t-53 127t-127 53t-127 -53t-53 -127q0 -66 -42 -132.5t-102 -94.5l-30 64q43 20 73.5 68t30.5 95q0 74 -53 127t-127 53t-127 -53t-53 -127
q0 -47 30.5 -95t73.5 -68l-30 -64q-60 28 -102 94.5t-42 132.5q0 104 73 177t177 73q59 0 122 -35.5t93 -86.5z" />
    <glyph glyph-name="u1000_u103c_u1031" horiz-adv-x="2320" 
d="M1057 356l-64 -30q-20 43 -68 73.5t-95 30.5q-74 0 -127 -53t-53 -127q0 -30 14.5 -66.5t35.5 -58.5q30 29 81 49.5t92 20.5t92.5 -20.5t81.5 -49.5q-30 -52 -93.5 -88.5t-123.5 -36.5q-104 0 -177 73t-73 177t73 177t177 73q66 0 132.5 -42t94.5 -102zM960 125
q-43 27 -96 27q-31 0 -69 -16t-60 -39q43 -27 95 -27q31 0 69.5 16t60.5 39zM2240 735h-70v60q0 14 -10.5 24.5t-24.5 10.5h-435h-435q-14 0 -24.5 -10.5t-10.5 -24.5v-795v-295q0 -14 10.5 -24.5t24.5 -10.5h435h435q14 0 24.5 10.5t10.5 24.5v245h70v-245q0 -43 -31 -74
t-74 -31h-435h-435q-43 0 -74 31t-31 74v295v795q0 43 31 74t74 31h435h435q43 0 74 -31t31 -74v-60zM1775 378q30 51 93 86.5t122 35.5q104 0 177 -73t73 -177t-73 -177t-177 -73v70q74 0 127 53t53 127t-53 127t-127 53t-127 -53t-53 -127q0 -66 -42 -132.5t-102 -94.5
l-30 64q43 20 73.5 68t30.5 95q0 74 -53 127t-127 53t-127 -53t-53 -127q0 -47 30.5 -95t73.5 -68l-30 -64q-60 28 -102 94.5t-42 132.5q0 104 73 177t177 73q59 0 122 -35.5t93 -86.5z" />
    <glyph glyph-name="u1000_u103c_u1031_u102c" horiz-adv-x="2320" 
d="M667 356l-64 -30q-20 43 -68 73.5t-95 30.5q-74 0 -127 -53t-53 -127q0 -30 14.5 -66.5t35.5 -58.5q30 29 81 49.5t92 20.5t92.5 -20.5t81.5 -49.5q-30 -52 -93.5 -88.5t-123.5 -36.5q-104 0 -177 73t-73 177t73 177t177 73q66 0 132.5 -42t94.5 -102zM570 125
q-43 27 -96 27q-31 0 -69 -16t-60 -39q43 -27 95 -27q31 0 69.5 16t60.5 39zM1850 735h-70v60q0 14 -10.5 24.5t-24.5 10.5h-435h-435q-14 0 -24.5 -10.5t-10.5 -24.5v-795v-295q0 -14 10.5 -24.5t24.5 -10.5h435h435q14 0 24.5 10.5t10.5 24.5v245h70v-245q0 -43 -31 -74
t-74 -31h-435h-435q-43 0 -74 31t-31 74v295v795q0 43 31 74t74 31h435h435q43 0 74 -31t31 -74v-60zM1815 378q30 51 93 86.5t122 35.5q104 0 177 -73t73 -177t-73 -177t-177 -73v70q74 0 127 53t53 127t-53 127t-127 53t-127 -53t-53 -127zM1385 378q30 51 93 86.5
t122 35.5q104 0 177 -73t73 -177t-73 -177t-177 -73v70q74 0 127 53t53 127t-53 127t-127 53t-127 -53t-53 -127q0 -66 -42 -132.5t-102 -94.5l-30 64q43 20 73.5 68t30.5 95q0 74 -53 127t-127 53t-127 -53t-53 -127q0 -47 30.5 -95t73.5 -68l-30 -64q-60 28 -102 94.5
t-42 132.5q0 104 73 177t177 73q59 0 122 -35.5t93 -86.5z" />
    <glyph glyph-name="u1000_u103c_u103d_u1031" horiz-adv-x="2320" 
d="M1057 356l-64 -30q-20 43 -68 73.5t-95 30.5q-74 0 -127 -53t-53 -127q0 -30 14.5 -66.5t35.5 -58.5q30 29 81 49.5t92 20.5t92.5 -20.5t81.5 -49.5q-30 -52 -93.5 -88.5t-123.5 -36.5q-104 0 -177 73t-73 177t73 177t177 73q66 0 132.5 -42t94.5 -102zM960 125
q-43 27 -96 27q-31 0 -69 -16t-60 -39q43 -27 95 -27q31 0 69.5 16t60.5 39zM2240 735h-70v60q0 14 -10.5 24.5t-24.5 10.5h-435h-435q-14 0 -24.5 -10.5t-10.5 -24.5v-795v-295q0 -14 10.5 -24.5t24.5 -10.5h585q-14 20 -24.5 50.5t-10.5 54.5q0 73 51 124t124 51t124 -51
t51 -124t-51 -124t-124 -51h-725q-43 0 -74 31t-31 74v295v795q0 43 31 74t74 31h435h435q43 0 74 -31t31 -74v-60zM1990 -351h1q52 0 88.5 37t36.5 89q0 53 -37 89.5t-89 36.5t-89 -36.5t-37 -89.5q0 -52 37 -89t89 -37zM1775 378q30 51 93 86.5t122 35.5q104 0 177 -73
t73 -177t-73 -177t-177 -73v70q74 0 127 53t53 127t-53 127t-127 53t-127 -53t-53 -127q0 -66 -42 -132.5t-102 -94.5l-30 64q43 20 73.5 68t30.5 95q0 74 -53 127t-127 53t-127 -53t-53 -127q0 -47 30.5 -95t73.5 -68l-30 -64q-60 28 -102 94.5t-42 132.5q0 104 73 177
t177 73q59 0 122 -35.5t93 -86.5z" />
    <glyph glyph-name="u1000_u103c_u103e_u1031" horiz-adv-x="2320" 
d="M1057 356l-64 -30q-20 43 -68 73.5t-95 30.5q-74 0 -127 -53t-53 -127q0 -30 14.5 -66.5t35.5 -58.5q30 29 81 49.5t92 20.5t92.5 -20.5t81.5 -49.5q-30 -52 -93.5 -88.5t-123.5 -36.5q-104 0 -177 73t-73 177t73 177t177 73q66 0 132.5 -42t94.5 -102zM960 125
q-43 27 -96 27q-31 0 -69 -16t-60 -39q43 -27 95 -27q31 0 69.5 16t60.5 39zM2240 735h-70v60q0 14 -10.5 24.5t-24.5 10.5h-435h-435q-14 0 -24.5 -10.5t-10.5 -24.5v-795v-295q0 -14 10.5 -24.5t24.5 -10.5h435h435q14 0 24.5 10.5t10.5 24.5v245h70v-245q0 -43 -31 -74
t-74 -31h-435h-435q-43 0 -74 31t-31 74v295v795q0 43 31 74t74 31h435h435q43 0 74 -31t31 -74v-60zM2025 -50v-70q0 -44 -30.5 -74.5t-74.5 -30.5h-70v70h70q14 0 24.5 10.5t10.5 24.5v70h70zM1775 378q30 51 93 86.5t122 35.5q104 0 177 -73t73 -177t-73 -177t-177 -73
v70q74 0 127 53t53 127t-53 127t-127 53t-127 -53t-53 -127q0 -66 -42 -132.5t-102 -94.5l-30 64q43 20 73.5 68t30.5 95q0 74 -53 127t-127 53t-127 -53t-53 -127q0 -47 30.5 -95t73.5 -68l-30 -64q-60 28 -102 94.5t-42 132.5q0 104 73 177t177 73q59 0 122 -35.5
t93 -86.5z" />
    <glyph glyph-name="u1000_u103c_u103d_u1031_u102c" horiz-adv-x="2320" 
d="M667 356l-64 -30q-20 43 -68 73.5t-95 30.5q-74 0 -127 -53t-53 -127q0 -30 14.5 -66.5t35.5 -58.5q30 29 81 49.5t92 20.5t92.5 -20.5t81.5 -49.5q-30 -52 -93.5 -88.5t-123.5 -36.5q-104 0 -177 73t-73 177t73 177t177 73q66 0 132.5 -42t94.5 -102zM570 125
q-43 27 -96 27q-31 0 -69 -16t-60 -39q43 -27 95 -27q31 0 69.5 16t60.5 39zM1850 735h-70v60q0 14 -10.5 24.5t-24.5 10.5h-435h-435q-14 0 -24.5 -10.5t-10.5 -24.5v-795v-295q0 -14 10.5 -24.5t24.5 -10.5h585q-14 20 -24.5 50.5t-10.5 54.5q0 73 51 124t124 51t124 -51
t51 -124t-51 -124t-124 -51h-725q-43 0 -74 31t-31 74v295v795q0 43 31 74t74 31h435h435q43 0 74 -31t31 -74v-60zM1600 -351h1q52 0 88.5 37t36.5 89q0 53 -37 89.5t-89 36.5t-89 -36.5t-37 -89.5q0 -52 37 -89t89 -37zM1815 378q30 51 93 86.5t122 35.5q104 0 177 -73
t73 -177t-73 -177t-177 -73v70q74 0 127 53t53 127t-53 127t-127 53t-127 -53t-53 -127zM1385 378q30 51 93 86.5t122 35.5q104 0 177 -73t73 -177t-73 -177t-177 -73v70q74 0 127 53t53 127t-53 127t-127 53t-127 -53t-53 -127q0 -66 -42 -132.5t-102 -94.5l-30 64
q43 20 73.5 68t30.5 95q0 74 -53 127t-127 53t-127 -53t-53 -127q0 -47 30.5 -95t73.5 -68l-30 -64q-60 28 -102 94.5t-42 132.5q0 104 73 177t177 73q59 0 122 -35.5t93 -86.5z" />
    <glyph glyph-name="u1000_u103c_u103e_u1031_u102c" horiz-adv-x="2320" 
d="M667 356l-64 -30q-20 43 -68 73.5t-95 30.5q-74 0 -127 -53t-53 -127q0 -30 14.5 -66.5t35.5 -58.5q30 29 81 49.5t92 20.5t92.5 -20.5t81.5 -49.5q-30 -52 -93.5 -88.5t-123.5 -36.5q-104 0 -177 73t-73 177t73 177t177 73q66 0 132.5 -42t94.5 -102zM570 125
q-43 27 -96 27q-31 0 -69 -16t-60 -39q43 -27 95 -27q31 0 69.5 16t60.5 39zM1850 735h-70v60q0 14 -10.5 24.5t-24.5 10.5h-435h-435q-14 0 -24.5 -10.5t-10.5 -24.5v-795v-295q0 -14 10.5 -24.5t24.5 -10.5h435h435q14 0 24.5 10.5t10.5 24.5v245h70v-245q0 -43 -31 -74
t-74 -31h-435h-435q-43 0 -74 31t-31 74v295v795q0 43 31 74t74 31h435h435q43 0 74 -31t31 -74v-60zM1635 -50v-70q0 -44 -30.5 -74.5t-74.5 -30.5h-70v70h70q14 0 24.5 10.5t10.5 24.5v70h70zM1815 378q30 51 93 86.5t122 35.5q104 0 177 -73t73 -177t-73 -177t-177 -73
v70q74 0 127 53t53 127t-53 127t-127 53t-127 -53t-53 -127zM1385 378q30 51 93 86.5t122 35.5q104 0 177 -73t73 -177t-73 -177t-177 -73v70q74 0 127 53t53 127t-53 127t-127 53t-127 -53t-53 -127q0 -66 -42 -132.5t-102 -94.5l-30 64q43 20 73.5 68t30.5 95
q0 74 -53 127t-127 53t-127 -53t-53 -127q0 -47 30.5 -95t73.5 -68l-30 -64q-60 28 -102 94.5t-42 132.5q0 104 73 177t177 73q59 0 122 -35.5t93 -86.5z" />
    <glyph glyph-name="u1000_u103c_u103d" 
d="M1120 735h-70v60q0 14 -10.5 24.5t-24.5 10.5h-435h-435q-14 0 -24.5 -10.5t-10.5 -24.5v-795v-295q0 -14 10.5 -24.5t24.5 -10.5h585q-14 20 -24.5 50.5t-10.5 54.5q0 73 51 124t124 51t124 -51t51 -124t-51 -124t-124 -51h-725q-43 0 -74 31t-31 74v295v795q0 43 31 74
t74 31h435h435q43 0 74 -31t31 -74v-60zM870 -351h1q52 0 88.5 37t36.5 89q0 53 -37 89.5t-89 36.5t-89 -36.5t-37 -89.5q0 -52 37 -89t89 -37zM655 378q30 51 93 86.5t122 35.5q104 0 177 -73t73 -177t-73 -177t-177 -73v70q74 0 127 53t53 127t-53 127t-127 53t-127 -53
t-53 -127q0 -66 -42 -132.5t-102 -94.5l-30 64q43 20 73.5 68t30.5 95q0 74 -53 127t-127 53t-127 -53t-53 -127q0 -47 30.5 -95t73.5 -68l-30 -64q-60 28 -102 94.5t-42 132.5q0 104 73 177t177 73q59 0 122 -35.5t93 -86.5z" />
    <glyph glyph-name="u1000_u103c_u103e" 
d="M1120 735h-70v60q0 14 -10.5 24.5t-24.5 10.5h-435h-435q-14 0 -24.5 -10.5t-10.5 -24.5v-795v-295q0 -14 10.5 -24.5t24.5 -10.5h435h435q14 0 24.5 10.5t10.5 24.5v245h70v-245q0 -43 -31 -74t-74 -31h-435h-435q-43 0 -74 31t-31 74v295v795q0 43 31 74t74 31h435h435
q43 0 74 -31t31 -74v-60zM905 -50v-70q0 -44 -30.5 -74.5t-74.5 -30.5h-70v70h70q14 0 24.5 10.5t10.5 24.5v70h70zM655 378q30 51 93 86.5t122 35.5q104 0 177 -73t73 -177t-73 -177t-177 -73v70q74 0 127 53t53 127t-53 127t-127 53t-127 -53t-53 -127q0 -66 -42 -132.5
t-102 -94.5l-30 64q43 20 73.5 68t30.5 95q0 74 -53 127t-127 53t-127 -53t-53 -127q0 -47 30.5 -95t73.5 -68l-30 -64q-60 28 -102 94.5t-42 132.5q0 104 73 177t177 73q59 0 122 -35.5t93 -86.5z" />
    <glyph glyph-name="u1000_u103c_u102c" horiz-adv-x="1740" 
d="M1270 735h-70v60q0 14 -10.5 24.5t-24.5 10.5h-435h-435q-14 0 -24.5 -10.5t-10.5 -24.5v-795v-295q0 -14 10.5 -24.5t24.5 -10.5h435h435q14 0 24.5 10.5t10.5 24.5v245h70v-245q0 -43 -31 -74t-74 -31h-435h-435q-43 0 -74 31t-31 74v295v795q0 43 31 74t74 31h435h435
q43 0 74 -31t31 -74v-60zM805 378q30 51 93 86.5t122 35.5q104 0 177 -73t73 -177t-73 -177t-177 -73v70q74 0 127 53t53 127t-53 127t-127 53t-127 -53t-53 -127q0 -66 -42 -132.5t-102 -94.5l-30 64q43 20 73.5 68t30.5 95q0 74 -53 127t-127 53t-127 -53t-53 -127
q0 -47 30.5 -95t73.5 -68l-30 -64q-60 28 -102 94.5t-42 132.5q0 104 73 177t177 73q59 0 122 -35.5t93 -86.5zM1235 378q30 51 93 86.5t122 35.5q104 0 177 -73t73 -177t-73 -177t-177 -73v70q74 0 127 53t53 127t-53 127t-127 53t-127 -53t-53 -127z" />
    <glyph glyph-name="u1000_u103c_u102f" 
d="M1120 735h-70v60q0 14 -10.5 24.5t-24.5 10.5h-435h-435q-14 0 -24.5 -10.5t-10.5 -24.5v-795v-295q0 -14 10.5 -24.5t24.5 -10.5h505h185q14 0 24.5 10.5t10.5 24.5v245h70v-245q0 -43 -31 -74t-74 -31h-185h-505q-43 0 -74 31t-31 74v295v795q0 43 31 74t74 31h435h435
q43 0 74 -31t31 -74v-60zM1105 -400q-43 0 -74 31t-31 74v245h70v-245q0 -14 10.5 -24.5t24.5 -10.5v-70zM655 378q30 51 93 86.5t122 35.5q104 0 177 -73t73 -177t-73 -177t-177 -73v70q74 0 127 53t53 127t-53 127t-127 53t-127 -53t-53 -127q0 -66 -42 -132.5t-102 -94.5
l-30 64q43 20 73.5 68t30.5 95q0 74 -53 127t-127 53t-127 -53t-53 -127q0 -47 30.5 -95t73.5 -68l-30 -64q-60 28 -102 94.5t-42 132.5q0 104 73 177t177 73q59 0 122 -35.5t93 -86.5z" />
    <glyph glyph-name="u1000_u103c_u1030" horiz-adv-x="1740" 
d="M1315 735h-70v60q0 14 -10.5 24.5t-24.5 10.5h-435h-435q-14 0 -24.5 -10.5t-10.5 -24.5v-795v-295q0 -14 10.5 -24.5t24.5 -10.5h435h435q14 0 24.5 10.5t10.5 24.5v245h70v-245q0 -43 -30.5 -74t-74.5 -31h-435h-435q-44 0 -74.5 31t-30.5 74v295v795q0 43 30.5 74
t74.5 31h435h435q44 0 74.5 -31t30.5 -74v-60zM850 378q30 51 93 86.5t122 35.5q103 0 176.5 -73t73.5 -177t-73.5 -177t-176.5 -73v70q74 0 127 53t53 127t-53 127t-127 53t-127 -53t-53 -127q0 -66 -42 -132.5t-102 -94.5l-30 64q43 20 73.5 68t30.5 95q0 74 -53 127
t-127 53t-127 -53t-53 -127q0 -47 30.5 -95t73.5 -68l-30 -64q-60 28 -102 94.5t-42 132.5q0 104 73.5 177t176.5 73q59 0 122 -35.5t93 -86.5zM1395 500h70v-900h-70v900zM1525 500h70v-795q0 -14 10.5 -24.5t24.5 -10.5h70v-70h-70q-44 0 -74.5 31t-30.5 74v795z" />
    <glyph glyph-name="u1000_u103c_u103d_u102f" horiz-adv-x="1740" 
d="M1445 735h-70v60q0 14 -10.5 24.5t-24.5 10.5h-435h-435q-14 0 -24.5 -10.5t-10.5 -24.5v-795v-295q0 -14 10.5 -24.5t24.5 -10.5h585q-14 20 -24.5 50.5t-10.5 54.5q0 73 51 124t124 51t124 -51t51 -124t-51 -124t-124 -51h-725q-44 0 -74.5 31t-30.5 74v295v795
q0 43 30.5 74t74.5 31h435h435q44 0 74.5 -31t30.5 -74v-60zM1195 -351h1q52 0 89 37t37 89q0 53 -37 89.5t-89 36.5t-89 -36.5t-37 -89.5q0 -52 36.5 -89t88.5 -37zM980 378q30 51 93 86.5t122 35.5q103 0 176.5 -73t73.5 -177t-73.5 -177t-176.5 -73v70q74 0 127 53
t53 127t-53 127t-127 53t-127 -53t-53 -127q0 -66 -42 -132.5t-102 -94.5l-30 64q43 20 73.5 68t30.5 95q0 74 -53 127t-127 53t-127 -53t-53 -127q0 -47 30.5 -95t73.5 -68l-30 -64q-60 28 -102 94.5t-42 132.5q0 104 73.5 177t176.5 73q59 0 122 -35.5t93 -86.5zM1525 500
h70v-795q0 -14 10.5 -24.5t24.5 -10.5h70v-70h-70q-44 0 -74.5 31t-30.5 74v795z" />
    <glyph glyph-name="u1000_u103c_u103d_u1030" horiz-adv-x="1740" 
d="M1315 735h-70v60q0 14 -10.5 24.5t-24.5 10.5h-435h-435q-14 0 -24.5 -10.5t-10.5 -24.5v-795v-295q0 -14 10.5 -24.5t24.5 -10.5h585q-14 20 -24.5 50.5t-10.5 54.5q0 73 51 124t124 51t124 -51t51 -124t-51 -124t-124 -51h-725q-44 0 -74.5 31t-30.5 74v295v795
q0 43 30.5 74t74.5 31h435h435q44 0 74.5 -31t30.5 -74v-60zM1065 -351h1q52 0 89 37t37 89q0 53 -37 89.5t-89 36.5t-89 -36.5t-37 -89.5q0 -52 36.5 -89t88.5 -37zM850 378q30 51 93 86.5t122 35.5q103 0 176.5 -73t73.5 -177t-73.5 -177t-176.5 -73v70q74 0 127 53
t53 127t-53 127t-127 53t-127 -53t-53 -127q0 -66 -42 -132.5t-102 -94.5l-30 64q43 20 73.5 68t30.5 95q0 74 -53 127t-127 53t-127 -53t-53 -127q0 -47 30.5 -95t73.5 -68l-30 -64q-60 28 -102 94.5t-42 132.5q0 104 73.5 177t176.5 73q59 0 122 -35.5t93 -86.5zM1395 500
h70v-900h-70v900zM1525 500h70v-795q0 -14 10.5 -24.5t24.5 -10.5h70v-70h-70q-44 0 -74.5 31t-30.5 74v795z" />
    <glyph glyph-name="u1000_u103c_u102d_u102f" 
d="M645 900v-70h-500q-14 0 -24.5 -10.5t-10.5 -24.5v-795v-295q0 -14 10.5 -24.5t24.5 -10.5h505h185q14 0 24.5 10.5t10.5 24.5v245h70v-245q0 -43 -31 -74t-74 -31h-185h-505q-43 0 -74 31t-31 74v295v795q0 43 31 74t74 31h500zM1105 -400q-43 0 -74 31t-31 74v245h70
v-245q0 -14 10.5 -24.5t24.5 -10.5v-70zM655 378q30 51 93 86.5t122 35.5q104 0 177 -73t73 -177t-73 -177t-177 -73v70q74 0 127 53t53 127t-53 127t-127 53t-127 -53t-53 -127q0 -66 -42 -132.5t-102 -94.5l-30 64q43 20 73.5 68t30.5 95q0 74 -53 127t-127 53t-127 -53
t-53 -127q0 -47 30.5 -95t73.5 -68l-30 -64q-60 28 -102 94.5t-42 132.5q0 104 73 177t177 73q59 0 122 -35.5t93 -86.5zM870 550h-1q-72 0 -123.5 51.5t-51.5 123.5q0 73 51.5 124t124.5 51t123.5 -51t50.5 -124q0 -72 -51 -123.5t-123 -51.5zM869 599h1q52 0 89 37t37 89
q0 53 -37 89.5t-89 36.5t-89 -36.5t-37 -89.5q0 -52 36.5 -89t88.5 -37z" />
    <glyph glyph-name="u1000_u103c_u103e_u102f" horiz-adv-x="1740" 
d="M1445 735h-70v60q0 14 -10.5 24.5t-24.5 10.5h-435h-435q-14 0 -24.5 -10.5t-10.5 -24.5v-795v-295q0 -14 10.5 -24.5t24.5 -10.5h435h435q14 0 24.5 10.5t10.5 24.5v245h70v-245q0 -43 -30.5 -74t-74.5 -31h-435h-435q-44 0 -74.5 31t-30.5 74v295v795q0 43 30.5 74
t74.5 31h435h435q44 0 74.5 -31t30.5 -74v-60zM1230 -50v-70q0 -44 -31 -74.5t-74 -30.5h-70v70h70q14 0 24.5 10.5t10.5 24.5v70h70zM980 378q30 51 93 86.5t122 35.5q103 0 176.5 -73t73.5 -177t-73.5 -177t-176.5 -73v70q74 0 127 53t53 127t-53 127t-127 53t-127 -53
t-53 -127q0 -66 -42 -132.5t-102 -94.5l-30 64q43 20 73.5 68t30.5 95q0 74 -53 127t-127 53t-127 -53t-53 -127q0 -47 30.5 -95t73.5 -68l-30 -64q-60 28 -102 94.5t-42 132.5q0 104 73.5 177t176.5 73q59 0 122 -35.5t93 -86.5zM1525 500h70v-795q0 -14 10.5 -24.5
t24.5 -10.5h70v-70h-70q-44 0 -74.5 31t-30.5 74v795z" />
    <glyph glyph-name="u1000_u103c_u103e_u1030" horiz-adv-x="1740" 
d="M1315 735h-70v60q0 14 -10.5 24.5t-24.5 10.5h-435h-435q-14 0 -24.5 -10.5t-10.5 -24.5v-795v-295q0 -14 10.5 -24.5t24.5 -10.5h435h435q14 0 24.5 10.5t10.5 24.5v245h70v-245q0 -43 -30.5 -74t-74.5 -31h-435h-435q-44 0 -74.5 31t-30.5 74v295v795q0 43 30.5 74
t74.5 31h435h435q44 0 74.5 -31t30.5 -74v-60zM1100 -50v-70q0 -44 -31 -74.5t-74 -30.5h-70v70h70q14 0 24.5 10.5t10.5 24.5v70h70zM850 378q30 51 93 86.5t122 35.5q103 0 176.5 -73t73.5 -177t-73.5 -177t-176.5 -73v70q74 0 127 53t53 127t-53 127t-127 53t-127 -53
t-53 -127q0 -66 -42 -132.5t-102 -94.5l-30 64q43 20 73.5 68t30.5 95q0 74 -53 127t-127 53t-127 -53t-53 -127q0 -47 30.5 -95t73.5 -68l-30 -64q-60 28 -102 94.5t-42 132.5q0 104 73.5 177t176.5 73q59 0 122 -35.5t93 -86.5zM1395 500h70v-900h-70v900zM1525 500h70
v-795q0 -14 10.5 -24.5t24.5 -10.5h70v-70h-70q-44 0 -74.5 31t-30.5 74v795z" />
    <glyph glyph-name="u1000_u103c_u103e_u102d_u102f" horiz-adv-x="1740" 
d="M970 900v-70h-500q-14 0 -24.5 -10.5t-10.5 -24.5v-795v-295q0 -14 10.5 -24.5t24.5 -10.5h435h435q14 0 24.5 10.5t10.5 24.5v245h70v-245q0 -43 -30.5 -74t-74.5 -31h-435h-435q-44 0 -74.5 31t-30.5 74v295v795q0 43 30.5 74t74.5 31h500zM1230 -50v-70
q0 -44 -31 -74.5t-74 -30.5h-70v70h70q14 0 24.5 10.5t10.5 24.5v70h70zM980 378q30 51 93 86.5t122 35.5q103 0 176.5 -73t73.5 -177t-73.5 -177t-176.5 -73v70q74 0 127 53t53 127t-53 127t-127 53t-127 -53t-53 -127q0 -66 -42 -132.5t-102 -94.5l-30 64q43 20 73.5 68
t30.5 95q0 74 -53 127t-127 53t-127 -53t-53 -127q0 -47 30.5 -95t73.5 -68l-30 -64q-60 28 -102 94.5t-42 132.5q0 104 73.5 177t176.5 73q59 0 122 -35.5t93 -86.5zM1195 550h-1q-72 0 -123 51.5t-51 123.5q0 73 50.5 124t123.5 51t124.5 -51t51.5 -124
q0 -72 -51.5 -123.5t-123.5 -51.5zM1194 599h1q52 0 88.5 37t36.5 89q0 53 -37 89.5t-89 36.5t-89 -36.5t-37 -89.5q0 -52 37 -89t89 -37zM1525 500h70v-795q0 -14 10.5 -24.5t24.5 -10.5h70v-70h-70q-44 0 -74.5 31t-30.5 74v795z" />
    <glyph glyph-name="u1000_u103c_u103e_u102f_u1036" horiz-adv-x="1740" 
d="M1445 735h-70v60q0 14 -10.5 24.5t-24.5 10.5h-435h-435q-14 0 -24.5 -10.5t-10.5 -24.5v-795v-295q0 -14 10.5 -24.5t24.5 -10.5h435h435q14 0 24.5 10.5t10.5 24.5v245h70v-245q0 -43 -30.5 -74t-74.5 -31h-435h-435q-44 0 -74.5 31t-30.5 74v295v795q0 43 30.5 74
t74.5 31h435h435q44 0 74.5 -31t30.5 -74v-60zM1230 -50v-70q0 -44 -31 -74.5t-74 -30.5h-70v70h70q14 0 24.5 10.5t10.5 24.5v70h70zM980 378q30 51 93 86.5t122 35.5q103 0 176.5 -73t73.5 -177t-73.5 -177t-176.5 -73v70q74 0 127 53t53 127t-53 127t-127 53t-127 -53
t-53 -127q0 -66 -42 -132.5t-102 -94.5l-30 64q43 20 73.5 68t30.5 95q0 74 -53 127t-127 53t-127 -53t-53 -127q0 -47 30.5 -95t73.5 -68l-30 -64q-60 28 -102 94.5t-42 132.5q0 104 73.5 177t176.5 73q59 0 122 -35.5t93 -86.5zM1195 646h-1q-32 0 -55 23.5t-23 55.5
q0 33 22.5 56t55.5 23t56.5 -23t23.5 -56q0 -32 -23.5 -55.5t-55.5 -23.5zM1194 695h1q12 0 20.5 9t8.5 21q0 13 -8.5 21.5t-21.5 8.5t-21.5 -8.5t-8.5 -21.5q0 -12 9 -21t21 -9zM1525 500h70v-795q0 -14 10.5 -24.5t24.5 -10.5h70v-70h-70q-44 0 -74.5 31t-30.5 74v795z
" />
    <glyph glyph-name="u1000_u103c_u102f_u1036_u1037" 
d="M645 900v-70h-500q-14 0 -24.5 -10.5t-10.5 -24.5v-795v-295q0 -14 10.5 -24.5t24.5 -10.5h505h185q14 0 24.5 10.5t10.5 24.5v245h70v-245q0 -43 -31 -74t-74 -31h-185h-505q-43 0 -74 31t-31 74v295v795q0 43 31 74t74 31h500zM1105 -400q-43 0 -74 31t-31 74v245h70
v-245q0 -14 10.5 -24.5t24.5 -10.5v-70zM655 378q30 51 93 86.5t122 35.5q104 0 177 -73t73 -177t-73 -177t-177 -73v70q74 0 127 53t53 127t-53 127t-127 53t-127 -53t-53 -127q0 -66 -42 -132.5t-102 -94.5l-30 64q43 20 73.5 68t30.5 95q0 74 -53 127t-127 53t-127 -53
t-53 -127q0 -47 30.5 -95t73.5 -68l-30 -64q-60 28 -102 94.5t-42 132.5q0 104 73 177t177 73q59 0 122 -35.5t93 -86.5zM870 646h-1q-32 0 -55.5 23.5t-23.5 55.5q0 33 23.5 56t56.5 23t55.5 -23t22.5 -56q0 -32 -23 -55.5t-55 -23.5zM869 695h1q12 0 21 9t9 21
q0 13 -8.5 21.5t-21.5 8.5t-21.5 -8.5t-8.5 -21.5q0 -12 8.5 -21t20.5 -9zM1239 -208h-1q-32 0 -55 23.5t-23 55.5q0 33 22.5 56t55.5 23t56.5 -23t23.5 -56q0 -32 -23.5 -55.5t-55.5 -23.5zM1238 -159h1q12 0 20.5 9t8.5 21q0 13 -8.5 21.5t-21.5 8.5t-21.5 -8.5
t-8.5 -21.5q0 -12 9 -21t21 -9z" />
    <glyph glyph-name="u1000_u103c_u102d" 
d="M645 900v-70h-500q-14 0 -24.5 -10.5t-10.5 -24.5v-795v-295q0 -14 10.5 -24.5t24.5 -10.5h435h435q14 0 24.5 10.5t10.5 24.5v245h70v-245q0 -43 -31 -74t-74 -31h-435h-435q-43 0 -74 31t-31 74v295v795q0 43 31 74t74 31h500zM655 378q30 51 93 86.5t122 35.5
q104 0 177 -73t73 -177t-73 -177t-177 -73v70q74 0 127 53t53 127t-53 127t-127 53t-127 -53t-53 -127q0 -66 -42 -132.5t-102 -94.5l-30 64q43 20 73.5 68t30.5 95q0 74 -53 127t-127 53t-127 -53t-53 -127q0 -47 30.5 -95t73.5 -68l-30 -64q-60 28 -102 94.5t-42 132.5
q0 104 73 177t177 73q59 0 122 -35.5t93 -86.5zM870 550h-1q-72 0 -123.5 51.5t-51.5 123.5q0 73 51.5 124t124.5 51t123.5 -51t50.5 -124q0 -72 -51 -123.5t-123 -51.5zM869 599h1q52 0 89 37t37 89q0 53 -37 89.5t-89 36.5t-89 -36.5t-37 -89.5q0 -52 36.5 -89t88.5 -37z
" />
    <glyph glyph-name="u1000_u103c_u103d_u102d" 
d="M645 900v-70h-500q-14 0 -24.5 -10.5t-10.5 -24.5v-795v-295q0 -14 10.5 -24.5t24.5 -10.5h585q-14 20 -24.5 50.5t-10.5 54.5q0 73 51 124t124 51t124 -51t51 -124t-51 -124t-124 -51h-725q-43 0 -74 31t-31 74v295v795q0 43 31 74t74 31h500zM870 -351h1q52 0 88.5 37
t36.5 89q0 53 -37 89.5t-89 36.5t-89 -36.5t-37 -89.5q0 -52 37 -89t89 -37zM655 378q30 51 93 86.5t122 35.5q104 0 177 -73t73 -177t-73 -177t-177 -73v70q74 0 127 53t53 127t-53 127t-127 53t-127 -53t-53 -127q0 -66 -42 -132.5t-102 -94.5l-30 64q43 20 73.5 68
t30.5 95q0 74 -53 127t-127 53t-127 -53t-53 -127q0 -47 30.5 -95t73.5 -68l-30 -64q-60 28 -102 94.5t-42 132.5q0 104 73 177t177 73q59 0 122 -35.5t93 -86.5zM870 550h-1q-72 0 -123.5 51.5t-51.5 123.5q0 73 51.5 124t124.5 51t123.5 -51t50.5 -124q0 -72 -51 -123.5
t-123 -51.5zM869 599h1q52 0 89 37t37 89q0 53 -37 89.5t-89 36.5t-89 -36.5t-37 -89.5q0 -52 36.5 -89t88.5 -37z" />
    <glyph glyph-name="u1000_u103c_u103e_u102d" 
d="M645 900v-70h-500q-14 0 -24.5 -10.5t-10.5 -24.5v-795v-295q0 -14 10.5 -24.5t24.5 -10.5h435h435q14 0 24.5 10.5t10.5 24.5v245h70v-245q0 -43 -31 -74t-74 -31h-435h-435q-43 0 -74 31t-31 74v295v795q0 43 31 74t74 31h500zM905 -50v-70q0 -44 -30.5 -74.5
t-74.5 -30.5h-70v70h70q14 0 24.5 10.5t10.5 24.5v70h70zM655 378q30 51 93 86.5t122 35.5q104 0 177 -73t73 -177t-73 -177t-177 -73v70q74 0 127 53t53 127t-53 127t-127 53t-127 -53t-53 -127q0 -66 -42 -132.5t-102 -94.5l-30 64q43 20 73.5 68t30.5 95q0 74 -53 127
t-127 53t-127 -53t-53 -127q0 -47 30.5 -95t73.5 -68l-30 -64q-60 28 -102 94.5t-42 132.5q0 104 73 177t177 73q59 0 122 -35.5t93 -86.5zM870 550h-1q-72 0 -123.5 51.5t-51.5 123.5q0 73 51.5 124t124.5 51t123.5 -51t50.5 -124q0 -72 -51 -123.5t-123 -51.5zM869 599h1
q52 0 89 37t37 89q0 53 -37 89.5t-89 36.5t-89 -36.5t-37 -89.5q0 -52 36.5 -89t88.5 -37z" />
    <glyph glyph-name="u1000_u103c_u102e" 
d="M645 900v-70h-500q-14 0 -24.5 -10.5t-10.5 -24.5v-795v-295q0 -14 10.5 -24.5t24.5 -10.5h435h435q14 0 24.5 10.5t10.5 24.5v245h70v-245q0 -43 -31 -74t-74 -31h-435h-435q-43 0 -74 31t-31 74v295v795q0 43 31 74t74 31h500zM655 378q30 51 93 86.5t122 35.5
q104 0 177 -73t73 -177t-73 -177t-177 -73v70q74 0 127 53t53 127t-53 127t-127 53t-127 -53t-53 -127q0 -66 -42 -132.5t-102 -94.5l-30 64q43 20 73.5 68t30.5 95q0 74 -53 127t-127 53t-127 -53t-53 -127q0 -47 30.5 -95t73.5 -68l-30 -64q-60 28 -102 94.5t-42 132.5
q0 104 73 177t177 73q59 0 122 -35.5t93 -86.5zM870 550h-1q-72 0 -123.5 51.5t-51.5 123.5q0 73 51.5 124t124.5 51t123.5 -51t50.5 -124q0 -72 -51 -123.5t-123 -51.5zM753 678q21 19 55 32t62 13t62 -13t55 -32q9 22 9 47q0 53 -37 89.5t-89 36.5t-89 -36.5t-37 -89.5
q0 -25 9 -47zM779 638q16 -16 42.5 -27.5t48.5 -11.5t48.5 11.5t42.5 27.5q-16 16 -42.5 27t-48.5 11t-48.5 -11t-42.5 -27z" />
    <glyph glyph-name="u1000_u103c_u103d_u102e" 
d="M645 900v-70h-500q-14 0 -24.5 -10.5t-10.5 -24.5v-795v-295q0 -14 10.5 -24.5t24.5 -10.5h585q-14 20 -24.5 50.5t-10.5 54.5q0 73 51 124t124 51t124 -51t51 -124t-51 -124t-124 -51h-725q-43 0 -74 31t-31 74v295v795q0 43 31 74t74 31h500zM870 -351h1q52 0 88.5 37
t36.5 89q0 53 -37 89.5t-89 36.5t-89 -36.5t-37 -89.5q0 -52 37 -89t89 -37zM655 378q30 51 93 86.5t122 35.5q104 0 177 -73t73 -177t-73 -177t-177 -73v70q74 0 127 53t53 127t-53 127t-127 53t-127 -53t-53 -127q0 -66 -42 -132.5t-102 -94.5l-30 64q43 20 73.5 68
t30.5 95q0 74 -53 127t-127 53t-127 -53t-53 -127q0 -47 30.5 -95t73.5 -68l-30 -64q-60 28 -102 94.5t-42 132.5q0 104 73 177t177 73q59 0 122 -35.5t93 -86.5zM870 550h-1q-72 0 -123.5 51.5t-51.5 123.5q0 73 51.5 124t124.5 51t123.5 -51t50.5 -124q0 -72 -51 -123.5
t-123 -51.5zM753 678q21 19 55 32t62 13t62 -13t55 -32q9 22 9 47q0 53 -37 89.5t-89 36.5t-89 -36.5t-37 -89.5q0 -25 9 -47zM779 638q16 -16 42.5 -27.5t48.5 -11.5t48.5 11.5t42.5 27.5q-16 16 -42.5 27t-48.5 11t-48.5 -11t-42.5 -27z" />
    <glyph glyph-name="u1000_u103c_u103e_u102e" 
d="M645 900v-70h-500q-14 0 -24.5 -10.5t-10.5 -24.5v-795v-295q0 -14 10.5 -24.5t24.5 -10.5h435h435q14 0 24.5 10.5t10.5 24.5v245h70v-245q0 -43 -31 -74t-74 -31h-435h-435q-43 0 -74 31t-31 74v295v795q0 43 31 74t74 31h500zM905 -50v-70q0 -44 -30.5 -74.5
t-74.5 -30.5h-70v70h70q14 0 24.5 10.5t10.5 24.5v70h70zM655 378q30 51 93 86.5t122 35.5q104 0 177 -73t73 -177t-73 -177t-177 -73v70q74 0 127 53t53 127t-53 127t-127 53t-127 -53t-53 -127q0 -66 -42 -132.5t-102 -94.5l-30 64q43 20 73.5 68t30.5 95q0 74 -53 127
t-127 53t-127 -53t-53 -127q0 -47 30.5 -95t73.5 -68l-30 -64q-60 28 -102 94.5t-42 132.5q0 104 73 177t177 73q59 0 122 -35.5t93 -86.5zM870 550h-1q-72 0 -123.5 51.5t-51.5 123.5q0 73 51.5 124t124.5 51t123.5 -51t50.5 -124q0 -72 -51 -123.5t-123 -51.5zM753 678
q21 19 55 32t62 13t62 -13t55 -32q9 22 9 47q0 53 -37 89.5t-89 36.5t-89 -36.5t-37 -89.5q0 -25 9 -47zM779 638q16 -16 42.5 -27.5t48.5 -11.5t48.5 11.5t42.5 27.5q-16 16 -42.5 27t-48.5 11t-48.5 -11t-42.5 -27z" />
    <glyph glyph-name="u1000_u103c_u1032" 
d="M645 900v-70h-500q-14 0 -24.5 -10.5t-10.5 -24.5v-795v-295q0 -14 10.5 -24.5t24.5 -10.5h435h435q14 0 24.5 10.5t10.5 24.5v245h70v-245q0 -43 -31 -74t-74 -31h-435h-435q-43 0 -74 31t-31 74v295v795q0 43 31 74t74 31h500zM655 378q30 51 93 86.5t122 35.5
q104 0 177 -73t73 -177t-73 -177t-177 -73v70q74 0 127 53t53 127t-53 127t-127 53t-127 -53t-53 -127q0 -66 -42 -132.5t-102 -94.5l-30 64q43 20 73.5 68t30.5 95q0 74 -53 127t-127 53t-127 -53t-53 -127q0 -47 30.5 -95t73.5 -68l-30 -64q-60 28 -102 94.5t-42 132.5
q0 104 73 177t177 73q59 0 122 -35.5t93 -86.5zM670 900l50 49l350 -350l-50 -49z" />
    <glyph glyph-name="u1000_u103c_u103d_u1032" 
d="M645 900v-70h-500q-14 0 -24.5 -10.5t-10.5 -24.5v-795v-295q0 -14 10.5 -24.5t24.5 -10.5h585q-14 20 -24.5 50.5t-10.5 54.5q0 73 51 124t124 51t124 -51t51 -124t-51 -124t-124 -51h-725q-43 0 -74 31t-31 74v295v795q0 43 31 74t74 31h500zM870 -351h1q52 0 88.5 37
t36.5 89q0 53 -37 89.5t-89 36.5t-89 -36.5t-37 -89.5q0 -52 37 -89t89 -37zM655 378q30 51 93 86.5t122 35.5q104 0 177 -73t73 -177t-73 -177t-177 -73v70q74 0 127 53t53 127t-53 127t-127 53t-127 -53t-53 -127q0 -66 -42 -132.5t-102 -94.5l-30 64q43 20 73.5 68
t30.5 95q0 74 -53 127t-127 53t-127 -53t-53 -127q0 -47 30.5 -95t73.5 -68l-30 -64q-60 28 -102 94.5t-42 132.5q0 104 73 177t177 73q59 0 122 -35.5t93 -86.5zM670 900l50 49l350 -350l-50 -49z" />
    <glyph glyph-name="u1000_u103c_u103e_u1032" 
d="M645 900v-70h-500q-14 0 -24.5 -10.5t-10.5 -24.5v-795v-295q0 -14 10.5 -24.5t24.5 -10.5h435h435q14 0 24.5 10.5t10.5 24.5v245h70v-245q0 -43 -31 -74t-74 -31h-435h-435q-43 0 -74 31t-31 74v295v795q0 43 31 74t74 31h500zM905 -50v-70q0 -44 -30.5 -74.5
t-74.5 -30.5h-70v70h70q14 0 24.5 10.5t10.5 24.5v70h70zM655 378q30 51 93 86.5t122 35.5q104 0 177 -73t73 -177t-73 -177t-177 -73v70q74 0 127 53t53 127t-53 127t-127 53t-127 -53t-53 -127q0 -66 -42 -132.5t-102 -94.5l-30 64q43 20 73.5 68t30.5 95q0 74 -53 127
t-127 53t-127 -53t-53 -127q0 -47 30.5 -95t73.5 -68l-30 -64q-60 28 -102 94.5t-42 132.5q0 104 73 177t177 73q59 0 122 -35.5t93 -86.5zM670 900l50 49l350 -350l-50 -49z" />
    <glyph glyph-name="u1001_u1031" 
d="M517 356l-64 -30q-20 43 -68 73.5t-95 30.5q-74 0 -127 -53t-53 -127q0 -30 14.5 -66.5t35.5 -58.5q30 29 81 49.5t92 20.5t92.5 -20.5t81.5 -49.5q-30 -52 -93.5 -88.5t-123.5 -36.5q-104 0 -177 73t-73 177t73 177t177 73q66 0 132.5 -42t94.5 -102zM420 125
q-43 27 -96 27q-31 0 -69 -16t-60 -39q43 -27 95 -27q31 0 69.5 16t60.5 39zM643 356q28 60 94.5 102t132.5 42q104 0 177 -73t73 -177t-73 -177t-177 -73q-60 0 -123.5 36.5t-93.5 88.5q30 29 81.5 49.5t92.5 20.5t92 -20.5t81 -49.5q21 22 35.5 58.5t14.5 66.5
q0 74 -53 127t-127 53q-47 0 -95 -30.5t-68 -73.5zM740 125q22 -23 60.5 -39t69.5 -16q52 0 95 27q-22 23 -60 39t-69 16q-53 0 -96 -27z" />
    <glyph glyph-name="u1001_u1031_u1037" 
d="M517 356l-64 -30q-20 43 -68 73.5t-95 30.5q-74 0 -127 -53t-53 -127q0 -30 14.5 -66.5t35.5 -58.5q30 29 81 49.5t92 20.5t92.5 -20.5t81.5 -49.5q-30 -52 -93.5 -88.5t-123.5 -36.5q-104 0 -177 73t-73 177t73 177t177 73q66 0 132.5 -42t94.5 -102zM420 125
q-43 27 -96 27q-31 0 -69 -16t-60 -39q43 -27 95 -27q31 0 69.5 16t60.5 39zM643 356q28 60 94.5 102t132.5 42q104 0 177 -73t73 -177t-73 -177t-177 -73q-60 0 -123.5 36.5t-93.5 88.5q30 29 81.5 49.5t92.5 20.5t92 -20.5t81 -49.5q21 22 35.5 58.5t14.5 66.5
q0 74 -53 127t-127 53q-47 0 -95 -30.5t-68 -73.5zM740 125q22 -23 60.5 -39t69.5 -16q52 0 95 27q-22 23 -60 39t-69 16q-53 0 -96 -27zM949 -208h-1q-32 0 -55 23.5t-23 55.5q0 33 22.5 56t55.5 23t56.5 -23t23.5 -56q0 -32 -23.5 -55.5t-55.5 -23.5zM948 -159h1
q12 0 20.5 9t8.5 21q0 13 -8.5 21.5t-21.5 8.5t-21.5 -8.5t-8.5 -21.5q0 -12 9 -21t21 -9z" />
    <glyph glyph-name="u1001_u103b_u1031" horiz-adv-x="1740" 
d="M917 356l-64 -30q-20 43 -68 73.5t-95 30.5q-74 0 -127 -53t-53 -127q0 -30 14.5 -66.5t35.5 -58.5q30 29 81 49.5t92 20.5t92.5 -20.5t81.5 -49.5q-30 -52 -93.5 -88.5t-123.5 -36.5q-104 0 -177 73t-73 177t73 177t177 73q66 0 132.5 -42t94.5 -102zM820 125
q-43 27 -96 27q-31 0 -69 -16t-60 -39q43 -27 95 -27q31 0 69.5 16t60.5 39zM1043 356q28 60 94.5 102t132.5 42q104 0 177 -73t73 -177t-73 -177t-177 -73q-60 0 -123.5 36.5t-93.5 88.5q30 29 81.5 49.5t92.5 20.5t92 -20.5t81 -49.5q21 22 35.5 58.5t14.5 66.5
q0 74 -53 127t-127 53q-47 0 -95 -30.5t-68 -73.5zM1140 125q22 -23 60.5 -39t69.5 -16q52 0 95 27q-22 23 -60 39t-69 16q-53 0 -96 -27zM1346 55h70v-200q0 -22 20 -31l70 -34l40 -20q6 -3 15 -3q14 0 24.5 10.5t10.5 24.5v698h70v-837q0 -14 -10.5 -24.5t-24.5 -10.5
q-10 0 -18 5l-107 67l-143 90q-17 11 -17 29v236z" />
    <glyph glyph-name="u1001_u103b_u103d_u1031" horiz-adv-x="1740" 
d="M917 356l-64 -30q-20 43 -68 73.5t-95 30.5q-74 0 -127 -53t-53 -127q0 -30 14.5 -66.5t35.5 -58.5q30 29 81 49.5t92 20.5t92.5 -20.5t81.5 -49.5q-30 -52 -93.5 -88.5t-123.5 -36.5q-104 0 -177 73t-73 177t73 177t177 73q66 0 132.5 -42t94.5 -102zM820 125
q-43 27 -96 27q-31 0 -69 -16t-60 -39q43 -27 95 -27q31 0 69.5 16t60.5 39zM1043 356q28 60 94.5 102t132.5 42q104 0 177 -73t73 -177t-73 -177t-177 -73q-60 0 -123.5 36.5t-93.5 88.5q30 29 81.5 49.5t92.5 20.5t92 -20.5t81 -49.5q21 22 35.5 58.5t14.5 66.5
q0 74 -53 127t-127 53q-47 0 -95 -30.5t-68 -73.5zM1140 125q22 -23 60.5 -39t69.5 -16q52 0 95 27q-22 23 -60 39t-69 16q-53 0 -96 -27zM1415 -323q-22 -32 -64.5 -54.5t-80.5 -22.5q-73 0 -124 51t-51 124t51 124t124 51t124 -51t51 -124q0 -19 -3 -33l106 -44
q12 -3 14 -3q14 0 24.5 10.5t10.5 24.5v770h70v-875q0 -14 -10.5 -24.5t-24.5 -10.5q-2 0 -14 3zM1270 -99h-1q-52 0 -88.5 -37t-36.5 -89q0 -53 37 -89.5t89 -36.5t89 36.5t37 89.5q0 52 -37 89t-89 37z" />
    <glyph glyph-name="u1001_u103b_u103d_u103e_u1031" horiz-adv-x="1740" 
d="M917 356l-64 -30q-20 43 -68 73.5t-95 30.5q-74 0 -127 -53t-53 -127q0 -30 14.5 -66.5t35.5 -58.5q30 29 81 49.5t92 20.5t92.5 -20.5t81.5 -49.5q-30 -52 -93.5 -88.5t-123.5 -36.5q-104 0 -177 73t-73 177t73 177t177 73q66 0 132.5 -42t94.5 -102zM820 125
q-43 27 -96 27q-31 0 -69 -16t-60 -39q43 -27 95 -27q31 0 69.5 16t60.5 39zM1043 356q28 60 94.5 102t132.5 42q104 0 177 -73t73 -177t-73 -177t-177 -73q-60 0 -123.5 36.5t-93.5 88.5q30 29 81.5 49.5t92.5 20.5t92 -20.5t81 -49.5q21 22 35.5 58.5t14.5 66.5
q0 74 -53 127t-127 53q-47 0 -95 -30.5t-68 -73.5zM1140 125q22 -23 60.5 -39t69.5 -16q52 0 95 27q-22 23 -60 39t-69 16q-53 0 -96 -27zM1100 -268l-11 8l-55 -75q-10 -14 -28 -14q-14 0 -21 6l-51 37l29 40l12 -8q9 -7 20 -7q19 0 29 14l104 145q22 30 63.5 51t78.5 21
q73 0 124 -51t51 -124q0 -19 -3 -33l106 -44q12 -3 14 -3q14 0 24.5 10.5t10.5 24.5v770h70v-875q0 -14 -10.5 -24.5t-24.5 -10.5q-2 0 -14 3l-203 84q-22 -32 -64.5 -54.5t-80.5 -22.5q-56 0 -106.5 38.5t-63.5 93.5zM1270 -99h-1q-52 0 -88.5 -37t-36.5 -89
q0 -53 37 -89.5t89 -36.5t89 36.5t37 89.5q0 52 -37 89t-89 37z" />
    <glyph glyph-name="u1001_u103b_u103e_u1031" horiz-adv-x="1740" 
d="M917 356l-64 -30q-20 43 -68 73.5t-95 30.5q-74 0 -127 -53t-53 -127q0 -30 14.5 -66.5t35.5 -58.5q30 29 81 49.5t92 20.5t92.5 -20.5t81.5 -49.5q-30 -52 -93.5 -88.5t-123.5 -36.5q-104 0 -177 73t-73 177t73 177t177 73q66 0 132.5 -42t94.5 -102zM820 125
q-43 27 -96 27q-31 0 -69 -16t-60 -39q43 -27 95 -27q31 0 69.5 16t60.5 39zM1043 356q28 60 94.5 102t132.5 42q104 0 177 -73t73 -177t-73 -177t-177 -73q-60 0 -123.5 36.5t-93.5 88.5q30 29 81.5 49.5t92.5 20.5t92 -20.5t81 -49.5q21 22 35.5 58.5t14.5 66.5
q0 74 -53 127t-127 53q-47 0 -95 -30.5t-68 -73.5zM1140 125q22 -23 60.5 -39t69.5 -16q52 0 95 27q-22 23 -60 39t-69 16q-53 0 -96 -27zM1346 55h70v-200q0 -22 20 -31l70 -34l40 -20q6 -3 15 -3q14 0 24.5 10.5t10.5 24.5v698h70v-837q0 -14 -10.5 -24.5t-24.5 -10.5
q-10 0 -18 5l-107 67l-143 90q-17 11 -17 29v96l-97 -168q-10 -17 -30 -17q-11 0 -18 5l-91 52l35 61l31 -18q7 -5 17 -5q20 0 31 18z" />
    <glyph glyph-name="u1001_u103d_u1031" 
d="M517 356l-64 -30q-20 43 -68 73.5t-95 30.5q-74 0 -127 -53t-53 -127q0 -30 14.5 -66.5t35.5 -58.5q30 29 81 49.5t92 20.5t92.5 -20.5t81.5 -49.5q-30 -52 -93.5 -88.5t-123.5 -36.5q-104 0 -177 73t-73 177t73 177t177 73q66 0 132.5 -42t94.5 -102zM420 125
q-43 27 -96 27q-31 0 -69 -16t-60 -39q43 -27 95 -27q31 0 69.5 16t60.5 39zM643 356q28 60 94.5 102t132.5 42q104 0 177 -73t73 -177t-73 -177t-177 -73q-60 0 -123.5 36.5t-93.5 88.5q30 29 81.5 49.5t92.5 20.5t92 -20.5t81 -49.5q21 22 35.5 58.5t14.5 66.5
q0 74 -53 127t-127 53q-47 0 -95 -30.5t-68 -73.5zM740 125q22 -23 60.5 -39t69.5 -16q52 0 95 27q-22 23 -60 39t-69 16q-53 0 -96 -27zM870 -50h1q72 0 123.5 -51.5t51.5 -123.5q0 -73 -51.5 -124t-124.5 -51t-123.5 51t-50.5 124q0 72 51 123.5t123 51.5zM870 -99h-1
q-52 0 -88.5 -37t-36.5 -89q0 -53 37 -89.5t89 -36.5t89 36.5t37 89.5q0 52 -37 89t-89 37z" />
    <glyph glyph-name="u1001_u103d_u103e_u1031" 
d="M517 356l-64 -30q-20 43 -68 73.5t-95 30.5q-74 0 -127 -53t-53 -127q0 -30 14.5 -66.5t35.5 -58.5q30 29 81 49.5t92 20.5t92.5 -20.5t81.5 -49.5q-30 -52 -93.5 -88.5t-123.5 -36.5q-104 0 -177 73t-73 177t73 177t177 73q66 0 132.5 -42t94.5 -102zM420 125
q-43 27 -96 27q-31 0 -69 -16t-60 -39q43 -27 95 -27q31 0 69.5 16t60.5 39zM643 356q28 60 94.5 102t132.5 42q104 0 177 -73t73 -177t-73 -177t-177 -73q-60 0 -123.5 36.5t-93.5 88.5q30 29 81.5 49.5t92.5 20.5t92 -20.5t81 -49.5q21 22 35.5 58.5t14.5 66.5
q0 74 -53 127t-127 53q-47 0 -95 -30.5t-68 -73.5zM740 125q22 -23 60.5 -39t69.5 -16q52 0 95 27q-22 23 -60 39t-69 16q-53 0 -96 -27zM728 -122q22 30 63.5 51t78.5 21q73 0 124 -51t51 -124t-51 -124t-124 -51q-63 0 -113.5 44.5t-59.5 106.5l-63 -86q-10 -14 -28 -14
q-14 0 -21 6l-51 37l29 40l12 -8q9 -7 20 -7q19 0 29 14zM870 -99h-1q-52 0 -88.5 -37t-36.5 -89q0 -53 37 -89.5t89 -36.5t89 36.5t37 89.5q0 52 -37 89t-89 37z" />
    <glyph glyph-name="u1001_u103e_u1031" 
d="M517 356l-64 -30q-20 43 -68 73.5t-95 30.5q-74 0 -127 -53t-53 -127q0 -30 14.5 -66.5t35.5 -58.5q30 29 81 49.5t92 20.5t92.5 -20.5t81.5 -49.5q-30 -52 -93.5 -88.5t-123.5 -36.5q-104 0 -177 73t-73 177t73 177t177 73q66 0 132.5 -42t94.5 -102zM420 125
q-43 27 -96 27q-31 0 -69 -16t-60 -39q43 -27 95 -27q31 0 69.5 16t60.5 39zM643 356q28 60 94.5 102t132.5 42q104 0 177 -73t73 -177t-73 -177t-177 -73q-60 0 -123.5 36.5t-93.5 88.5q30 29 81.5 49.5t92.5 20.5t92 -20.5t81 -49.5q21 22 35.5 58.5t14.5 66.5
q0 74 -53 127t-127 53q-47 0 -95 -30.5t-68 -73.5zM740 125q22 -23 60.5 -39t69.5 -16q52 0 95 27q-22 23 -60 39t-69 16q-53 0 -96 -27zM940 -50v-245q0 -43 -31 -74t-74 -31h-70v70h70q14 0 24.5 10.5t10.5 24.5v245h70z" />
    <glyph glyph-name="u1004_u103a_u1039_u1001" horiz-adv-x="580" 
d="M63 356q28 60 94.5 102t132.5 42q104 0 177 -73t73 -177t-73 -177t-177 -73q-60 0 -123.5 36.5t-93.5 88.5q30 29 81.5 49.5t92.5 20.5t92 -20.5t81 -49.5q21 22 35.5 58.5t14.5 66.5q0 74 -53 127t-127 53q-47 0 -95 -30.5t-68 -73.5zM160 125q22 -23 60.5 -39t69.5 -16
q52 0 95 27q-22 23 -60 39t-69 16q-53 0 -96 -27zM377 606q-10 -23 -35.5 -39.5t-51.5 -16.5q-40 0 -68 28t-28 68q0 21 12 44t29 35q-17 12 -29 35t-12 44q0 40 28 68t68 28q26 0 51.5 -16.5t35.5 -39.5l-31 -14q-7 15 -23 25t-33 10q-26 0 -43.5 -17.5t-17.5 -43.5t18 -44
t43 -18q26 0 51.5 -16t35.5 -39l-31 -15q-7 15 -23 25.5t-33 10.5q-25 0 -43 -18t-18 -44t17.5 -43.5t43.5 -17.5q17 0 33 10t23 25z" />
    <glyph glyph-name="u1004_u103a_u1039_u1001_u1031" 
d="M517 356l-64 -30q-20 43 -68 73.5t-95 30.5q-74 0 -127 -53t-53 -127q0 -30 14.5 -66.5t35.5 -58.5q30 29 81 49.5t92 20.5t92.5 -20.5t81.5 -49.5q-30 -52 -93.5 -88.5t-123.5 -36.5q-104 0 -177 73t-73 177t73 177t177 73q66 0 132.5 -42t94.5 -102zM420 125
q-43 27 -96 27q-31 0 -69 -16t-60 -39q43 -27 95 -27q31 0 69.5 16t60.5 39zM643 356q28 60 94.5 102t132.5 42q104 0 177 -73t73 -177t-73 -177t-177 -73q-60 0 -123.5 36.5t-93.5 88.5q30 29 81.5 49.5t92.5 20.5t92 -20.5t81 -49.5q21 22 35.5 58.5t14.5 66.5
q0 74 -53 127t-127 53q-47 0 -95 -30.5t-68 -73.5zM740 125q22 -23 60.5 -39t69.5 -16q52 0 95 27q-22 23 -60 39t-69 16q-53 0 -96 -27zM957 606q-10 -23 -35.5 -39.5t-51.5 -16.5q-40 0 -68 28t-28 68q0 21 12 44t29 35q-17 12 -29 35t-12 44q0 40 28 68t68 28
q26 0 51.5 -16.5t35.5 -39.5l-31 -14q-7 15 -23 25t-33 10q-26 0 -43.5 -17.5t-17.5 -43.5t18 -44t43 -18q26 0 51.5 -16t35.5 -39l-31 -15q-7 15 -23 25.5t-33 10.5q-25 0 -43 -18t-18 -44t17.5 -43.5t43.5 -17.5q17 0 33 10t23 25z" />
    <glyph glyph-name="kinzi_u1001_u103b_u1031" horiz-adv-x="1740" 
d="M947 356l-64 -30q-20 43 -68 73.5t-95 30.5q-74 0 -127 -53t-53 -127q0 -30 14.5 -66.5t35.5 -58.5q30 29 81 49.5t92 20.5t92.5 -20.5t81.5 -49.5q-30 -52 -93.5 -88.5t-123.5 -36.5q-104 0 -177 73t-73 177t73 177t177 73q66 0 132.5 -42t94.5 -102zM850 125
q-43 27 -96 27q-31 0 -69 -16t-60 -39q43 -27 95 -27q31 0 69.5 16t60.5 39zM1073 356q28 60 94.5 102t132.5 42q104 0 177 -73t73 -177t-73 -177t-177 -73q-60 0 -123.5 36.5t-93.5 88.5q30 29 81.5 49.5t92.5 20.5t92 -20.5t81 -49.5q21 22 35.5 58.5t14.5 66.5
q0 74 -53 127t-127 53q-47 0 -95 -30.5t-68 -73.5zM1170 125q22 -23 60.5 -39t69.5 -16q52 0 95 27q-22 23 -60 39t-69 16q-53 0 -96 -27zM1387 606q-10 -23 -35.5 -39.5t-51.5 -16.5q-40 0 -68 28t-28 68q0 21 12 44t29 35q-17 12 -29 35t-12 44q0 40 28 68t68 28
q26 0 51.5 -16.5t35.5 -39.5l-31 -14q-7 15 -23 25t-33 10q-26 0 -43.5 -17.5t-17.5 -43.5t18 -44t43 -18q26 0 51.5 -16t35.5 -39l-31 -15q-7 15 -23 25.5t-33 10.5q-25 0 -43 -18t-18 -44t17.5 -43.5t43.5 -17.5q17 0 33 10t23 25zM1376 55h70v-200q0 -22 20 -31l70 -34
l40 -20q6 -3 15 -3q14 0 24.5 10.5t10.5 24.5v698h70v-837q0 -14 -10.5 -24.5t-24.5 -10.5q-10 0 -18 5l-107 67l-143 90q-17 11 -17 29v236z" />
    <glyph glyph-name="u1004_u103a_u1039_u1001_u102d" horiz-adv-x="580" 
d="M63 356q28 60 94.5 102t132.5 42q104 0 177 -73t73 -177t-73 -177t-177 -73q-60 0 -123.5 36.5t-93.5 88.5q30 29 81.5 49.5t92.5 20.5t92 -20.5t81 -49.5q21 22 35.5 58.5t14.5 66.5q0 74 -53 127t-127 53q-47 0 -95 -30.5t-68 -73.5zM160 125q22 -23 60.5 -39t69.5 -16
q52 0 95 27q-22 23 -60 39t-69 16q-53 0 -96 -27zM202 606q-10 -23 -35.5 -39.5t-51.5 -16.5q-40 0 -68 28t-28 68q0 21 12 44t29 35q-17 12 -29 35t-12 44q0 40 28 68t68 28q26 0 51.5 -16.5t35.5 -39.5l-31 -14q-7 15 -23 25t-33 10q-25 0 -43 -17.5t-18 -43.5t18 -44
t43 -18q26 0 51.5 -16t35.5 -39l-31 -15q-7 15 -23 25.5t-33 10.5q-25 0 -43 -18t-18 -44t18 -43.5t43 -17.5q17 0 33 10t23 25zM465 550h-1q-72 0 -123 51.5t-51 123.5q0 73 50.5 124t123.5 51t124.5 -51t51.5 -124q0 -72 -51.5 -123.5t-123.5 -51.5zM464 599h1
q52 0 88.5 37t36.5 89q0 53 -37 89.5t-89 36.5t-89 -36.5t-37 -89.5q0 -52 37 -89t89 -37z" />
    <glyph glyph-name="u1004_u103a_u1039_u1001_u102e" horiz-adv-x="580" 
d="M63 356q28 60 94.5 102t132.5 42q104 0 177 -73t73 -177t-73 -177t-177 -73q-60 0 -123.5 36.5t-93.5 88.5q30 29 81.5 49.5t92.5 20.5t92 -20.5t81 -49.5q21 22 35.5 58.5t14.5 66.5q0 74 -53 127t-127 53q-47 0 -95 -30.5t-68 -73.5zM160 125q22 -23 60.5 -39t69.5 -16
q52 0 95 27q-22 23 -60 39t-69 16q-53 0 -96 -27zM202 606q-10 -23 -35.5 -39.5t-51.5 -16.5q-40 0 -68 28t-28 68q0 21 12 44t29 35q-17 12 -29 35t-12 44q0 40 28 68t68 28q26 0 51.5 -16.5t35.5 -39.5l-31 -14q-7 15 -23 25t-33 10q-25 0 -43 -17.5t-18 -43.5t18 -44
t43 -18q26 0 51.5 -16t35.5 -39l-31 -15q-7 15 -23 25.5t-33 10.5q-25 0 -43 -18t-18 -44t18 -43.5t43 -17.5q17 0 33 10t23 25zM465 550h-1q-72 0 -123 51.5t-51 123.5q0 73 50.5 124t123.5 51t124.5 -51t51.5 -124q0 -72 -51.5 -123.5t-123.5 -51.5zM348 678q21 19 55 32
t62 13t62 -13t55 -32q9 22 9 47q0 53 -36.5 89.5t-89.5 36.5t-89.5 -36.5t-36.5 -89.5q0 -25 9 -47zM374 638q16 -16 42.5 -27.5t48.5 -11.5t48.5 11.5t42.5 27.5q-16 16 -42.5 27t-48.5 11t-48.5 -11t-42.5 -27z" />
    <glyph glyph-name="u1004_u103a_u1039_u1001_u1036" horiz-adv-x="580" 
d="M63 356q28 60 94.5 102t132.5 42q104 0 177 -73t73 -177t-73 -177t-177 -73q-60 0 -123.5 36.5t-93.5 88.5q30 29 81.5 49.5t92.5 20.5t92 -20.5t81 -49.5q21 22 35.5 58.5t14.5 66.5q0 74 -53 127t-127 53q-47 0 -95 -30.5t-68 -73.5zM160 125q22 -23 60.5 -39t69.5 -16
q52 0 95 27q-22 23 -60 39t-69 16q-53 0 -96 -27zM202 606q-10 -23 -35.5 -39.5t-51.5 -16.5q-40 0 -68 28t-28 68q0 21 12 44t29 35q-17 12 -29 35t-12 44q0 40 28 68t68 28q26 0 51.5 -16.5t35.5 -39.5l-31 -14q-7 15 -23 25t-33 10q-25 0 -43 -17.5t-18 -43.5t18 -44
t43 -18q26 0 51.5 -16t35.5 -39l-31 -15q-7 15 -23 25.5t-33 10.5q-25 0 -43 -18t-18 -44t18 -43.5t43 -17.5q17 0 33 10t23 25zM465 646h-1q-32 0 -55 23.5t-23 55.5q0 33 22.5 56t55.5 23t56.5 -23t23.5 -56q0 -32 -23.5 -55.5t-55.5 -23.5zM464 695h1q12 0 20.5 9t8.5 21
q0 13 -8.5 21.5t-21.5 8.5t-21.5 -8.5t-8.5 -21.5q0 -12 9 -21t21 -9z" />
    <glyph glyph-name="u1001_u103c" 
d="M1120 735h-70v60q0 14 -10.5 24.5t-24.5 10.5h-185h-255q-14 0 -24.5 -10.5t-10.5 -24.5v-795v-295q0 -14 10.5 -24.5t24.5 -10.5h255h185q14 0 24.5 10.5t10.5 24.5v245h70v-245q0 -43 -31 -74t-74 -31h-185h-255q-43 0 -74 31t-31 74v295v795q0 43 31 74t74 31h255h185
q43 0 74 -31t31 -74v-60zM643 356q28 60 94.5 102t132.5 42q104 0 177 -73t73 -177t-73 -177t-177 -73q-60 0 -123.5 36.5t-93.5 88.5q30 29 81.5 49.5t92.5 20.5t92 -20.5t81 -49.5q21 22 35.5 58.5t14.5 66.5q0 74 -53 127t-127 53q-47 0 -95 -30.5t-68 -73.5zM740 125
q22 -23 60.5 -39t69.5 -16q52 0 95 27q-22 23 -60 39t-69 16q-53 0 -96 -27z" />
    <glyph glyph-name="u1001_u103c_u1031" horiz-adv-x="1740" 
d="M907 356l-64 -30q-20 43 -68 73.5t-95 30.5q-74 0 -127 -53t-53 -127q0 -30 14.5 -66.5t35.5 -58.5q30 29 81 49.5t92 20.5t92.5 -20.5t81.5 -49.5q-30 -52 -93.5 -88.5t-123.5 -36.5q-104 0 -177 73t-73 177t73 177t177 73q66 0 132.5 -42t94.5 -102zM810 125
q-43 27 -96 27q-31 0 -69 -16t-60 -39q43 -27 95 -27q31 0 69.5 16t60.5 39zM1660 735h-70v60q0 14 -10.5 24.5t-24.5 10.5h-185h-255q-14 0 -24.5 -10.5t-10.5 -24.5v-795v-295q0 -14 10.5 -24.5t24.5 -10.5h255h185q14 0 24.5 10.5t10.5 24.5v245h70v-245q0 -43 -31 -74
t-74 -31h-185h-255q-43 0 -74 31t-31 74v295v795q0 43 31 74t74 31h255h185q43 0 74 -31t31 -74v-60zM1183 356q28 60 94.5 102t132.5 42q104 0 177 -73t73 -177t-73 -177t-177 -73q-60 0 -123.5 36.5t-93.5 88.5q30 29 81.5 49.5t92.5 20.5t92 -20.5t81 -49.5
q21 22 35.5 58.5t14.5 66.5q0 74 -53 127t-127 53q-47 0 -95 -30.5t-68 -73.5zM1280 125q22 -23 60.5 -39t69.5 -16q52 0 95 27q-22 23 -60 39t-69 16q-53 0 -96 -27z" />
    <glyph glyph-name="u1001_u103c_u1031_u102c" horiz-adv-x="1740" 
d="M517 356l-64 -30q-20 43 -68 73.5t-95 30.5q-74 0 -127 -53t-53 -127q0 -30 14.5 -66.5t35.5 -58.5q30 29 81 49.5t92 20.5t92.5 -20.5t81.5 -49.5q-30 -52 -93.5 -88.5t-123.5 -36.5q-104 0 -177 73t-73 177t73 177t177 73q66 0 132.5 -42t94.5 -102zM420 125
q-43 27 -96 27q-31 0 -69 -16t-60 -39q43 -27 95 -27q31 0 69.5 16t60.5 39zM1270 735h-70v60q0 14 -10.5 24.5t-24.5 10.5h-185h-255q-14 0 -24.5 -10.5t-10.5 -24.5v-795v-295q0 -14 10.5 -24.5t24.5 -10.5h255h185q14 0 24.5 10.5t10.5 24.5v245h70v-245q0 -43 -31 -74
t-74 -31h-185h-255q-43 0 -74 31t-31 74v295v795q0 43 31 74t74 31h255h185q43 0 74 -31t31 -74v-60zM1235 378q30 51 93 86.5t122 35.5q104 0 177 -73t73 -177t-73 -177t-177 -73v70q74 0 127 53t53 127t-53 127t-127 53t-127 -53t-53 -127zM793 356q28 60 94.5 102
t132.5 42q104 0 177 -73t73 -177t-73 -177t-177 -73q-60 0 -123.5 36.5t-93.5 88.5q30 29 81.5 49.5t92.5 20.5t92 -20.5t81 -49.5q21 22 35.5 58.5t14.5 66.5q0 74 -53 127t-127 53q-47 0 -95 -30.5t-68 -73.5zM890 125q22 -23 60.5 -39t69.5 -16q52 0 95 27q-22 23 -60 39
t-69 16q-53 0 -96 -27z" />
    <glyph glyph-name="u1001_u103c_u103d_u1031" horiz-adv-x="1740" 
d="M907 356l-64 -30q-20 43 -68 73.5t-95 30.5q-74 0 -127 -53t-53 -127q0 -30 14.5 -66.5t35.5 -58.5q30 29 81 49.5t92 20.5t92.5 -20.5t81.5 -49.5q-30 -52 -93.5 -88.5t-123.5 -36.5q-104 0 -177 73t-73 177t73 177t177 73q66 0 132.5 -42t94.5 -102zM810 125
q-43 27 -96 27q-31 0 -69 -16t-60 -39q43 -27 95 -27q31 0 69.5 16t60.5 39zM1660 735h-70v60q0 14 -10.5 24.5t-24.5 10.5h-185h-255q-14 0 -24.5 -10.5t-10.5 -24.5v-795v-295q0 -14 10.5 -24.5t24.5 -10.5h155q-14 20 -24.5 50.5t-10.5 54.5q0 73 51 124t124 51t124 -51
t51 -124t-51 -124t-124 -51h-295q-43 0 -74 31t-31 74v295v795q0 43 31 74t74 31h255h185q43 0 74 -31t31 -74v-60zM1410 -351h1q52 0 88.5 37t36.5 89q0 53 -37 89.5t-89 36.5t-89 -36.5t-37 -89.5q0 -52 37 -89t89 -37zM1183 356q28 60 94.5 102t132.5 42q104 0 177 -73
t73 -177t-73 -177t-177 -73q-60 0 -123.5 36.5t-93.5 88.5q30 29 81.5 49.5t92.5 20.5t92 -20.5t81 -49.5q21 22 35.5 58.5t14.5 66.5q0 74 -53 127t-127 53q-47 0 -95 -30.5t-68 -73.5zM1280 125q22 -23 60.5 -39t69.5 -16q52 0 95 27q-22 23 -60 39t-69 16q-53 0 -96 -27z
" />
    <glyph glyph-name="u1001_u103c_u103e_u1031" horiz-adv-x="1740" 
d="M907 356l-64 -30q-20 43 -68 73.5t-95 30.5q-74 0 -127 -53t-53 -127q0 -30 14.5 -66.5t35.5 -58.5q30 29 81 49.5t92 20.5t92.5 -20.5t81.5 -49.5q-30 -52 -93.5 -88.5t-123.5 -36.5q-104 0 -177 73t-73 177t73 177t177 73q66 0 132.5 -42t94.5 -102zM810 125
q-43 27 -96 27q-31 0 -69 -16t-60 -39q43 -27 95 -27q31 0 69.5 16t60.5 39zM1660 735h-70v60q0 14 -10.5 24.5t-24.5 10.5h-185h-255q-14 0 -24.5 -10.5t-10.5 -24.5v-795v-295q0 -14 10.5 -24.5t24.5 -10.5h255h185q14 0 24.5 10.5t10.5 24.5v245h70v-245q0 -43 -31 -74
t-74 -31h-185h-255q-43 0 -74 31t-31 74v295v795q0 43 31 74t74 31h255h185q43 0 74 -31t31 -74v-60zM1445 -50v-70q0 -44 -30.5 -74.5t-74.5 -30.5h-70v70h70q14 0 24.5 10.5t10.5 24.5v70h70zM1183 356q28 60 94.5 102t132.5 42q104 0 177 -73t73 -177t-73 -177t-177 -73
q-60 0 -123.5 36.5t-93.5 88.5q30 29 81.5 49.5t92.5 20.5t92 -20.5t81 -49.5q21 22 35.5 58.5t14.5 66.5q0 74 -53 127t-127 53q-47 0 -95 -30.5t-68 -73.5zM1280 125q22 -23 60.5 -39t69.5 -16q52 0 95 27q-22 23 -60 39t-69 16q-53 0 -96 -27z" />
    <glyph glyph-name="u1001_u103c_u103d_u1031_u102c" horiz-adv-x="1740" 
d="M517 356l-64 -30q-20 43 -68 73.5t-95 30.5q-74 0 -127 -53t-53 -127q0 -30 14.5 -66.5t35.5 -58.5q30 29 81 49.5t92 20.5t92.5 -20.5t81.5 -49.5q-30 -52 -93.5 -88.5t-123.5 -36.5q-104 0 -177 73t-73 177t73 177t177 73q66 0 132.5 -42t94.5 -102zM420 125
q-43 27 -96 27q-31 0 -69 -16t-60 -39q43 -27 95 -27q31 0 69.5 16t60.5 39zM1270 735h-70v60q0 14 -10.5 24.5t-24.5 10.5h-185h-255q-14 0 -24.5 -10.5t-10.5 -24.5v-795v-295q0 -14 10.5 -24.5t24.5 -10.5h155q-14 20 -24.5 50.5t-10.5 54.5q0 73 51 124t124 51t124 -51
t51 -124t-51 -124t-124 -51h-295q-43 0 -74 31t-31 74v295v795q0 43 31 74t74 31h255h185q43 0 74 -31t31 -74v-60zM1020 -351h1q52 0 88.5 37t36.5 89q0 53 -37 89.5t-89 36.5t-89 -36.5t-37 -89.5q0 -52 37 -89t89 -37zM1235 378q30 51 93 86.5t122 35.5q104 0 177 -73
t73 -177t-73 -177t-177 -73v70q74 0 127 53t53 127t-53 127t-127 53t-127 -53t-53 -127zM793 356q28 60 94.5 102t132.5 42q104 0 177 -73t73 -177t-73 -177t-177 -73q-60 0 -123.5 36.5t-93.5 88.5q30 29 81.5 49.5t92.5 20.5t92 -20.5t81 -49.5q21 22 35.5 58.5t14.5 66.5
q0 74 -53 127t-127 53q-47 0 -95 -30.5t-68 -73.5zM890 125q22 -23 60.5 -39t69.5 -16q52 0 95 27q-22 23 -60 39t-69 16q-53 0 -96 -27z" />
    <glyph glyph-name="u1001_u103c_u103e_u1031_u102c" horiz-adv-x="1740" 
d="M517 356l-64 -30q-20 43 -68 73.5t-95 30.5q-74 0 -127 -53t-53 -127q0 -30 14.5 -66.5t35.5 -58.5q30 29 81 49.5t92 20.5t92.5 -20.5t81.5 -49.5q-30 -52 -93.5 -88.5t-123.5 -36.5q-104 0 -177 73t-73 177t73 177t177 73q66 0 132.5 -42t94.5 -102zM420 125
q-43 27 -96 27q-31 0 -69 -16t-60 -39q43 -27 95 -27q31 0 69.5 16t60.5 39zM1270 735h-70v60q0 14 -10.5 24.5t-24.5 10.5h-185h-255q-14 0 -24.5 -10.5t-10.5 -24.5v-795v-295q0 -14 10.5 -24.5t24.5 -10.5h255h185q14 0 24.5 10.5t10.5 24.5v245h70v-245q0 -43 -31 -74
t-74 -31h-185h-255q-43 0 -74 31t-31 74v295v795q0 43 31 74t74 31h255h185q43 0 74 -31t31 -74v-60zM1055 -50v-70q0 -44 -30.5 -74.5t-74.5 -30.5h-70v70h70q14 0 24.5 10.5t10.5 24.5v70h70zM1235 378q30 51 93 86.5t122 35.5q104 0 177 -73t73 -177t-73 -177t-177 -73
v70q74 0 127 53t53 127t-53 127t-127 53t-127 -53t-53 -127zM793 356q28 60 94.5 102t132.5 42q104 0 177 -73t73 -177t-73 -177t-177 -73q-60 0 -123.5 36.5t-93.5 88.5q30 29 81.5 49.5t92.5 20.5t92 -20.5t81 -49.5q21 22 35.5 58.5t14.5 66.5q0 74 -53 127t-127 53
q-47 0 -95 -30.5t-68 -73.5zM890 125q22 -23 60.5 -39t69.5 -16q52 0 95 27q-22 23 -60 39t-69 16q-53 0 -96 -27z" />
    <glyph glyph-name="u1001_u103c_u103d" 
d="M1120 735h-70v60q0 14 -10.5 24.5t-24.5 10.5h-185h-255q-14 0 -24.5 -10.5t-10.5 -24.5v-795v-295q0 -14 10.5 -24.5t24.5 -10.5h155q-14 20 -24.5 50.5t-10.5 54.5q0 73 51 124t124 51t124 -51t51 -124t-51 -124t-124 -51h-295q-43 0 -74 31t-31 74v295v795q0 43 31 74
t74 31h255h185q43 0 74 -31t31 -74v-60zM870 -351h1q52 0 88.5 37t36.5 89q0 53 -37 89.5t-89 36.5t-89 -36.5t-37 -89.5q0 -52 37 -89t89 -37zM643 356q28 60 94.5 102t132.5 42q104 0 177 -73t73 -177t-73 -177t-177 -73q-60 0 -123.5 36.5t-93.5 88.5q30 29 81.5 49.5
t92.5 20.5t92 -20.5t81 -49.5q21 22 35.5 58.5t14.5 66.5q0 74 -53 127t-127 53q-47 0 -95 -30.5t-68 -73.5zM740 125q22 -23 60.5 -39t69.5 -16q52 0 95 27q-22 23 -60 39t-69 16q-53 0 -96 -27z" />
    <glyph glyph-name="u1001_u103c_u103e" 
d="M1120 735h-70v60q0 14 -10.5 24.5t-24.5 10.5h-185h-255q-14 0 -24.5 -10.5t-10.5 -24.5v-795v-295q0 -14 10.5 -24.5t24.5 -10.5h255h185q14 0 24.5 10.5t10.5 24.5v245h70v-245q0 -43 -31 -74t-74 -31h-185h-255q-43 0 -74 31t-31 74v295v795q0 43 31 74t74 31h255h185
q43 0 74 -31t31 -74v-60zM905 -50v-70q0 -44 -30.5 -74.5t-74.5 -30.5h-70v70h70q14 0 24.5 10.5t10.5 24.5v70h70zM643 356q28 60 94.5 102t132.5 42q104 0 177 -73t73 -177t-73 -177t-177 -73q-60 0 -123.5 36.5t-93.5 88.5q30 29 81.5 49.5t92.5 20.5t92 -20.5t81 -49.5
q21 22 35.5 58.5t14.5 66.5q0 74 -53 127t-127 53q-47 0 -95 -30.5t-68 -73.5zM740 125q22 -23 60.5 -39t69.5 -16q52 0 95 27q-22 23 -60 39t-69 16q-53 0 -96 -27z" />
    <glyph glyph-name="u1001_u103c_u102c" 
d="M690 735h-70v60q0 14 -10.5 24.5t-24.5 10.5h-185h-255q-14 0 -24.5 -10.5t-10.5 -24.5v-795v-295q0 -14 10.5 -24.5t24.5 -10.5h255h185q14 0 24.5 10.5t10.5 24.5v245h70v-245q0 -43 -31 -74t-74 -31h-185h-255q-43 0 -74 31t-31 74v295v795q0 43 31 74t74 31h255h185
q43 0 74 -31t31 -74v-60zM213 356q28 60 94.5 102t132.5 42q104 0 177 -73t73 -177t-73 -177t-177 -73q-60 0 -123.5 36.5t-93.5 88.5q30 29 81.5 49.5t92.5 20.5t92 -20.5t81 -49.5q21 22 35.5 58.5t14.5 66.5q0 74 -53 127t-127 53q-47 0 -95 -30.5t-68 -73.5zM310 125
q22 -23 60.5 -39t69.5 -16q52 0 95 27q-22 23 -60 39t-69 16q-53 0 -96 -27zM655 378q30 51 93 86.5t122 35.5q104 0 177 -73t73 -177t-73 -177t-177 -73v70q74 0 127 53t53 127t-53 127t-127 53t-127 -53t-53 -127z" />
    <glyph glyph-name="u1001_u103c_u102f" 
d="M1120 735h-70v60q0 14 -10.5 24.5t-24.5 10.5h-185h-255q-14 0 -24.5 -10.5t-10.5 -24.5v-795v-295q0 -14 10.5 -24.5t24.5 -10.5h185q14 0 24.5 10.5t10.5 24.5v245h70v-245q0 -43 -30.5 -74t-74.5 -31h-185q-43 0 -74 31t-31 74v295v795q0 43 31 74t74 31h255h185
q43 0 74 -31t31 -74v-60zM1035 -400q-43 0 -74 31t-31 74v245h70v-245q0 -14 10.5 -24.5t24.5 -10.5v-70zM643 356q28 60 94.5 102t132.5 42q104 0 177 -73t73 -177t-73 -177t-177 -73q-60 0 -123.5 36.5t-93.5 88.5q30 29 81.5 49.5t92.5 20.5t92 -20.5t81 -49.5
q21 22 35.5 58.5t14.5 66.5q0 74 -53 127t-127 53q-47 0 -95 -30.5t-68 -73.5zM740 125q22 -23 60.5 -39t69.5 -16q52 0 95 27q-22 23 -60 39t-69 16q-53 0 -96 -27z" />
    <glyph glyph-name="u1001_u103c_u1030" 
d="M735 735h-70v60q0 14 -10.5 24.5t-24.5 10.5h-185h-255q-14 0 -24.5 -10.5t-10.5 -24.5v-795v-295q0 -14 10.5 -24.5t24.5 -10.5h255h185q14 0 24.5 10.5t10.5 24.5v245h70v-245q0 -43 -30.5 -74t-74.5 -31h-185h-255q-44 0 -74.5 31t-30.5 74v295v795q0 43 30.5 74
t74.5 31h255h185q44 0 74.5 -31t30.5 -74v-60zM258 356q28 60 94.5 102t132.5 42q103 0 176.5 -73t73.5 -177t-73.5 -177t-176.5 -73q-60 0 -123.5 36.5t-93.5 88.5q30 29 81.5 49.5t92.5 20.5t92 -20.5t81 -49.5q21 22 35.5 58.5t14.5 66.5q0 74 -53 127t-127 53
q-47 0 -95 -30.5t-68 -73.5zM355 125q22 -23 60.5 -39t69.5 -16q52 0 95 27q-22 23 -60 39t-69 16q-53 0 -96 -27zM815 500h70v-900h-70v900zM945 500h70v-795q0 -14 10.5 -24.5t24.5 -10.5h70v-70h-70q-44 0 -74.5 31t-30.5 74v795z" />
    <glyph glyph-name="u1001_u103c_u103d_u102f" 
d="M865 735h-70v60q0 14 -10.5 24.5t-24.5 10.5h-185h-255q-14 0 -24.5 -10.5t-10.5 -24.5v-795v-295q0 -14 10.5 -24.5t24.5 -10.5h155q-14 20 -24.5 50.5t-10.5 54.5q0 73 51 124t124 51t124 -51t51 -124t-51 -124t-124 -51h-295q-44 0 -74.5 31t-30.5 74v295v795
q0 43 30.5 74t74.5 31h255h185q44 0 74.5 -31t30.5 -74v-60zM615 -351h1q52 0 89 37t37 89q0 53 -37 89.5t-89 36.5t-89 -36.5t-37 -89.5q0 -52 36.5 -89t88.5 -37zM388 356q28 60 94.5 102t132.5 42q103 0 176.5 -73t73.5 -177t-73.5 -177t-176.5 -73q-60 0 -123.5 36.5
t-93.5 88.5q30 29 81.5 49.5t92.5 20.5t92 -20.5t81 -49.5q21 22 35.5 58.5t14.5 66.5q0 74 -53 127t-127 53q-47 0 -95 -30.5t-68 -73.5zM485 125q22 -23 60.5 -39t69.5 -16q52 0 95 27q-22 23 -60 39t-69 16q-53 0 -96 -27zM945 500h70v-795q0 -14 10.5 -24.5t24.5 -10.5
h70v-70h-70q-44 0 -74.5 31t-30.5 74v795z" />
    <glyph glyph-name="u1001_u103c_u103d_u1030" 
d="M735 735h-70v60q0 14 -10.5 24.5t-24.5 10.5h-185h-255q-14 0 -24.5 -10.5t-10.5 -24.5v-795v-295q0 -14 10.5 -24.5t24.5 -10.5h155q-14 20 -24.5 50.5t-10.5 54.5q0 73 51 124t124 51t124 -51t51 -124t-51 -124t-124 -51h-295q-44 0 -74.5 31t-30.5 74v295v795
q0 43 30.5 74t74.5 31h255h185q44 0 74.5 -31t30.5 -74v-60zM485 -351h1q52 0 89 37t37 89q0 53 -37 89.5t-89 36.5t-89 -36.5t-37 -89.5q0 -52 36.5 -89t88.5 -37zM258 356q28 60 94.5 102t132.5 42q103 0 176.5 -73t73.5 -177t-73.5 -177t-176.5 -73q-60 0 -123.5 36.5
t-93.5 88.5q30 29 81.5 49.5t92.5 20.5t92 -20.5t81 -49.5q21 22 35.5 58.5t14.5 66.5q0 74 -53 127t-127 53q-47 0 -95 -30.5t-68 -73.5zM355 125q22 -23 60.5 -39t69.5 -16q52 0 95 27q-22 23 -60 39t-69 16q-53 0 -96 -27zM815 500h70v-900h-70v900zM945 500h70v-795
q0 -14 10.5 -24.5t24.5 -10.5h70v-70h-70q-44 0 -74.5 31t-30.5 74v795z" />
    <glyph glyph-name="u1001_u103c_u102d_u102f" 
d="M650 900v-70h-75q-14 0 -24.5 -10.5t-10.5 -24.5v-795v-295q0 -14 10.5 -24.5t24.5 -10.5h185q14 0 24.5 10.5t10.5 24.5v245h70v-245q0 -43 -30.5 -74t-74.5 -31h-185q-43 0 -74 31t-31 74v295v795q0 43 31 74t74 31h75zM1035 -400q-43 0 -74 31t-31 74v245h70v-245
q0 -14 10.5 -24.5t24.5 -10.5v-70zM643 356q28 60 94.5 102t132.5 42q104 0 177 -73t73 -177t-73 -177t-177 -73q-60 0 -123.5 36.5t-93.5 88.5q30 29 81.5 49.5t92.5 20.5t92 -20.5t81 -49.5q21 22 35.5 58.5t14.5 66.5q0 74 -53 127t-127 53q-47 0 -95 -30.5t-68 -73.5z
M740 125q22 -23 60.5 -39t69.5 -16q52 0 95 27q-22 23 -60 39t-69 16q-53 0 -96 -27zM870 550h-1q-72 0 -123.5 51.5t-51.5 123.5q0 73 51.5 124t124.5 51t123.5 -51t50.5 -124q0 -72 -51 -123.5t-123 -51.5zM869 599h1q52 0 89 37t37 89q0 53 -37 89.5t-89 36.5t-89 -36.5
t-37 -89.5q0 -52 36.5 -89t88.5 -37z" />
    <glyph glyph-name="u1001_u103c_u103e_u102f" 
d="M865 735h-70v60q0 14 -10.5 24.5t-24.5 10.5h-185h-255q-14 0 -24.5 -10.5t-10.5 -24.5v-795v-295q0 -14 10.5 -24.5t24.5 -10.5h255h185q14 0 24.5 10.5t10.5 24.5v245h70v-245q0 -43 -30.5 -74t-74.5 -31h-185h-255q-44 0 -74.5 31t-30.5 74v295v795q0 43 30.5 74
t74.5 31h255h185q44 0 74.5 -31t30.5 -74v-60zM650 -50v-70q0 -44 -31 -74.5t-74 -30.5h-70v70h70q14 0 24.5 10.5t10.5 24.5v70h70zM388 356q28 60 94.5 102t132.5 42q103 0 176.5 -73t73.5 -177t-73.5 -177t-176.5 -73q-60 0 -123.5 36.5t-93.5 88.5q30 29 81.5 49.5
t92.5 20.5t92 -20.5t81 -49.5q21 22 35.5 58.5t14.5 66.5q0 74 -53 127t-127 53q-47 0 -95 -30.5t-68 -73.5zM485 125q22 -23 60.5 -39t69.5 -16q52 0 95 27q-22 23 -60 39t-69 16q-53 0 -96 -27zM945 500h70v-795q0 -14 10.5 -24.5t24.5 -10.5h70v-70h-70q-44 0 -74.5 31
t-30.5 74v795z" />
    <glyph glyph-name="u1001_u103c_u103e_u1030" 
d="M735 735h-70v60q0 14 -10.5 24.5t-24.5 10.5h-185h-255q-14 0 -24.5 -10.5t-10.5 -24.5v-795v-295q0 -14 10.5 -24.5t24.5 -10.5h255h185q14 0 24.5 10.5t10.5 24.5v245h70v-245q0 -43 -30.5 -74t-74.5 -31h-185h-255q-44 0 -74.5 31t-30.5 74v295v795q0 43 30.5 74
t74.5 31h255h185q44 0 74.5 -31t30.5 -74v-60zM520 -50v-70q0 -44 -31 -74.5t-74 -30.5h-70v70h70q14 0 24.5 10.5t10.5 24.5v70h70zM258 356q28 60 94.5 102t132.5 42q103 0 176.5 -73t73.5 -177t-73.5 -177t-176.5 -73q-60 0 -123.5 36.5t-93.5 88.5q30 29 81.5 49.5
t92.5 20.5t92 -20.5t81 -49.5q21 22 35.5 58.5t14.5 66.5q0 74 -53 127t-127 53q-47 0 -95 -30.5t-68 -73.5zM355 125q22 -23 60.5 -39t69.5 -16q52 0 95 27q-22 23 -60 39t-69 16q-53 0 -96 -27zM815 500h70v-900h-70v900zM945 500h70v-795q0 -14 10.5 -24.5t24.5 -10.5h70
v-70h-70q-44 0 -74.5 31t-30.5 74v795z" />
    <glyph glyph-name="u1001_u103c_u103e_u102d_u102f" 
d="M395 900v-70h-75q-14 0 -24.5 -10.5t-10.5 -24.5v-795v-295q0 -14 10.5 -24.5t24.5 -10.5h255h185q14 0 24.5 10.5t10.5 24.5v245h70v-245q0 -43 -30.5 -74t-74.5 -31h-185h-255q-44 0 -74.5 31t-30.5 74v295v795q0 43 30.5 74t74.5 31h75zM650 -50v-70q0 -44 -31 -74.5
t-74 -30.5h-70v70h70q14 0 24.5 10.5t10.5 24.5v70h70zM388 356q28 60 94.5 102t132.5 42q103 0 176.5 -73t73.5 -177t-73.5 -177t-176.5 -73q-60 0 -123.5 36.5t-93.5 88.5q30 29 81.5 49.5t92.5 20.5t92 -20.5t81 -49.5q21 22 35.5 58.5t14.5 66.5q0 74 -53 127t-127 53
q-47 0 -95 -30.5t-68 -73.5zM485 125q22 -23 60.5 -39t69.5 -16q52 0 95 27q-22 23 -60 39t-69 16q-53 0 -96 -27zM615 550h-1q-72 0 -123 51.5t-51 123.5q0 73 50.5 124t123.5 51t124.5 -51t51.5 -124q0 -72 -51.5 -123.5t-123.5 -51.5zM614 599h1q52 0 88.5 37t36.5 89
q0 53 -37 89.5t-89 36.5t-89 -36.5t-37 -89.5q0 -52 37 -89t89 -37zM945 500h70v-795q0 -14 10.5 -24.5t24.5 -10.5h70v-70h-70q-44 0 -74.5 31t-30.5 74v795z" />
    <glyph glyph-name="u1001_u103c_u103e_u102f_u1036" 
d="M865 735h-70v60q0 14 -10.5 24.5t-24.5 10.5h-185h-255q-14 0 -24.5 -10.5t-10.5 -24.5v-795v-295q0 -14 10.5 -24.5t24.5 -10.5h255h185q14 0 24.5 10.5t10.5 24.5v245h70v-245q0 -43 -30.5 -74t-74.5 -31h-185h-255q-44 0 -74.5 31t-30.5 74v295v795q0 43 30.5 74
t74.5 31h255h185q44 0 74.5 -31t30.5 -74v-60zM650 -50v-70q0 -44 -31 -74.5t-74 -30.5h-70v70h70q14 0 24.5 10.5t10.5 24.5v70h70zM388 356q28 60 94.5 102t132.5 42q103 0 176.5 -73t73.5 -177t-73.5 -177t-176.5 -73q-60 0 -123.5 36.5t-93.5 88.5q30 29 81.5 49.5
t92.5 20.5t92 -20.5t81 -49.5q21 22 35.5 58.5t14.5 66.5q0 74 -53 127t-127 53q-47 0 -95 -30.5t-68 -73.5zM485 125q22 -23 60.5 -39t69.5 -16q52 0 95 27q-22 23 -60 39t-69 16q-53 0 -96 -27zM615 646h-1q-32 0 -55 23.5t-23 55.5q0 33 22.5 56t55.5 23t56.5 -23
t23.5 -56q0 -32 -23.5 -55.5t-55.5 -23.5zM614 695h1q12 0 20.5 9t8.5 21q0 13 -8.5 21.5t-21.5 8.5t-21.5 -8.5t-8.5 -21.5q0 -12 9 -21t21 -9zM945 500h70v-795q0 -14 10.5 -24.5t24.5 -10.5h70v-70h-70q-44 0 -74.5 31t-30.5 74v795z" />
    <glyph glyph-name="u1001_u103c_u102f_u1036_u1037" 
d="M650 900v-70h-75q-14 0 -24.5 -10.5t-10.5 -24.5v-795v-295q0 -14 10.5 -24.5t24.5 -10.5h185q14 0 24.5 10.5t10.5 24.5v245h70v-245q0 -43 -30.5 -74t-74.5 -31h-185q-43 0 -74 31t-31 74v295v795q0 43 31 74t74 31h75zM1035 -400q-43 0 -74 31t-31 74v245h70v-245
q0 -14 10.5 -24.5t24.5 -10.5v-70zM643 356q28 60 94.5 102t132.5 42q104 0 177 -73t73 -177t-73 -177t-177 -73q-60 0 -123.5 36.5t-93.5 88.5q30 29 81.5 49.5t92.5 20.5t92 -20.5t81 -49.5q21 22 35.5 58.5t14.5 66.5q0 74 -53 127t-127 53q-47 0 -95 -30.5t-68 -73.5z
M740 125q22 -23 60.5 -39t69.5 -16q52 0 95 27q-22 23 -60 39t-69 16q-53 0 -96 -27zM870 646h-1q-32 0 -55.5 23.5t-23.5 55.5q0 33 23.5 56t56.5 23t55.5 -23t22.5 -56q0 -32 -23 -55.5t-55 -23.5zM869 695h1q12 0 21 9t9 21q0 13 -8.5 21.5t-21.5 8.5t-21.5 -8.5
t-8.5 -21.5q0 -12 8.5 -21t20.5 -9zM1239 -208h-1q-32 0 -55 23.5t-23 55.5q0 33 22.5 56t55.5 23t56.5 -23t23.5 -56q0 -32 -23.5 -55.5t-55.5 -23.5zM1238 -159h1q12 0 20.5 9t8.5 21q0 13 -8.5 21.5t-21.5 8.5t-21.5 -8.5t-8.5 -21.5q0 -12 9 -21t21 -9z" />
    <glyph glyph-name="u1001_u103c_u102d" 
d="M650 900v-70h-75q-14 0 -24.5 -10.5t-10.5 -24.5v-795v-295q0 -14 10.5 -24.5t24.5 -10.5h255h185q14 0 24.5 10.5t10.5 24.5v245h70v-245q0 -43 -31 -74t-74 -31h-185h-255q-43 0 -74 31t-31 74v295v795q0 43 31 74t74 31h75zM643 356q28 60 94.5 102t132.5 42
q104 0 177 -73t73 -177t-73 -177t-177 -73q-60 0 -123.5 36.5t-93.5 88.5q30 29 81.5 49.5t92.5 20.5t92 -20.5t81 -49.5q21 22 35.5 58.5t14.5 66.5q0 74 -53 127t-127 53q-47 0 -95 -30.5t-68 -73.5zM740 125q22 -23 60.5 -39t69.5 -16q52 0 95 27q-22 23 -60 39t-69 16
q-53 0 -96 -27zM870 550h-1q-72 0 -123.5 51.5t-51.5 123.5q0 73 51.5 124t124.5 51t123.5 -51t50.5 -124q0 -72 -51 -123.5t-123 -51.5zM869 599h1q52 0 89 37t37 89q0 53 -37 89.5t-89 36.5t-89 -36.5t-37 -89.5q0 -52 36.5 -89t88.5 -37z" />
    <glyph glyph-name="u1001_u103c_u103d_u102d" 
d="M650 900v-70h-75q-14 0 -24.5 -10.5t-10.5 -24.5v-795v-295q0 -14 10.5 -24.5t24.5 -10.5h155q-14 20 -24.5 50.5t-10.5 54.5q0 73 51 124t124 51t124 -51t51 -124t-51 -124t-124 -51h-295q-43 0 -74 31t-31 74v295v795q0 43 31 74t74 31h75zM870 -351h1q52 0 88.5 37
t36.5 89q0 53 -37 89.5t-89 36.5t-89 -36.5t-37 -89.5q0 -52 37 -89t89 -37zM643 356q28 60 94.5 102t132.5 42q104 0 177 -73t73 -177t-73 -177t-177 -73q-60 0 -123.5 36.5t-93.5 88.5q30 29 81.5 49.5t92.5 20.5t92 -20.5t81 -49.5q21 22 35.5 58.5t14.5 66.5
q0 74 -53 127t-127 53q-47 0 -95 -30.5t-68 -73.5zM740 125q22 -23 60.5 -39t69.5 -16q52 0 95 27q-22 23 -60 39t-69 16q-53 0 -96 -27zM870 550h-1q-72 0 -123.5 51.5t-51.5 123.5q0 73 51.5 124t124.5 51t123.5 -51t50.5 -124q0 -72 -51 -123.5t-123 -51.5zM869 599h1
q52 0 89 37t37 89q0 53 -37 89.5t-89 36.5t-89 -36.5t-37 -89.5q0 -52 36.5 -89t88.5 -37z" />
    <glyph glyph-name="u1001_u103c_u103e_u102d" 
d="M650 900v-70h-75q-14 0 -24.5 -10.5t-10.5 -24.5v-795v-295q0 -14 10.5 -24.5t24.5 -10.5h255h185q14 0 24.5 10.5t10.5 24.5v245h70v-245q0 -43 -31 -74t-74 -31h-185h-255q-43 0 -74 31t-31 74v295v795q0 43 31 74t74 31h75zM905 -50v-70q0 -44 -30.5 -74.5
t-74.5 -30.5h-70v70h70q14 0 24.5 10.5t10.5 24.5v70h70zM643 356q28 60 94.5 102t132.5 42q104 0 177 -73t73 -177t-73 -177t-177 -73q-60 0 -123.5 36.5t-93.5 88.5q30 29 81.5 49.5t92.5 20.5t92 -20.5t81 -49.5q21 22 35.5 58.5t14.5 66.5q0 74 -53 127t-127 53
q-47 0 -95 -30.5t-68 -73.5zM740 125q22 -23 60.5 -39t69.5 -16q52 0 95 27q-22 23 -60 39t-69 16q-53 0 -96 -27zM870 550h-1q-72 0 -123.5 51.5t-51.5 123.5q0 73 51.5 124t124.5 51t123.5 -51t50.5 -124q0 -72 -51 -123.5t-123 -51.5zM869 599h1q52 0 89 37t37 89
q0 53 -37 89.5t-89 36.5t-89 -36.5t-37 -89.5q0 -52 36.5 -89t88.5 -37z" />
    <glyph glyph-name="u1001_u103c_u102e" 
d="M650 900v-70h-75q-14 0 -24.5 -10.5t-10.5 -24.5v-795v-295q0 -14 10.5 -24.5t24.5 -10.5h255h185q14 0 24.5 10.5t10.5 24.5v245h70v-245q0 -43 -31 -74t-74 -31h-185h-255q-43 0 -74 31t-31 74v295v795q0 43 31 74t74 31h75zM643 356q28 60 94.5 102t132.5 42
q104 0 177 -73t73 -177t-73 -177t-177 -73q-60 0 -123.5 36.5t-93.5 88.5q30 29 81.5 49.5t92.5 20.5t92 -20.5t81 -49.5q21 22 35.5 58.5t14.5 66.5q0 74 -53 127t-127 53q-47 0 -95 -30.5t-68 -73.5zM740 125q22 -23 60.5 -39t69.5 -16q52 0 95 27q-22 23 -60 39t-69 16
q-53 0 -96 -27zM870 550h-1q-72 0 -123.5 51.5t-51.5 123.5q0 73 51.5 124t124.5 51t123.5 -51t50.5 -124q0 -72 -51 -123.5t-123 -51.5zM753 678q21 19 55 32t62 13t62 -13t55 -32q9 22 9 47q0 53 -37 89.5t-89 36.5t-89 -36.5t-37 -89.5q0 -25 9 -47zM779 638
q16 -16 42.5 -27.5t48.5 -11.5t48.5 11.5t42.5 27.5q-16 16 -42.5 27t-48.5 11t-48.5 -11t-42.5 -27z" />
    <glyph glyph-name="u1001_u103c_u103d_u102e" 
d="M650 900v-70h-75q-14 0 -24.5 -10.5t-10.5 -24.5v-795v-295q0 -14 10.5 -24.5t24.5 -10.5h155q-14 20 -24.5 50.5t-10.5 54.5q0 73 51 124t124 51t124 -51t51 -124t-51 -124t-124 -51h-295q-43 0 -74 31t-31 74v295v795q0 43 31 74t74 31h75zM870 -351h1q52 0 88.5 37
t36.5 89q0 53 -37 89.5t-89 36.5t-89 -36.5t-37 -89.5q0 -52 37 -89t89 -37zM643 356q28 60 94.5 102t132.5 42q104 0 177 -73t73 -177t-73 -177t-177 -73q-60 0 -123.5 36.5t-93.5 88.5q30 29 81.5 49.5t92.5 20.5t92 -20.5t81 -49.5q21 22 35.5 58.5t14.5 66.5
q0 74 -53 127t-127 53q-47 0 -95 -30.5t-68 -73.5zM740 125q22 -23 60.5 -39t69.5 -16q52 0 95 27q-22 23 -60 39t-69 16q-53 0 -96 -27zM870 550h-1q-72 0 -123.5 51.5t-51.5 123.5q0 73 51.5 124t124.5 51t123.5 -51t50.5 -124q0 -72 -51 -123.5t-123 -51.5zM753 678
q21 19 55 32t62 13t62 -13t55 -32q9 22 9 47q0 53 -37 89.5t-89 36.5t-89 -36.5t-37 -89.5q0 -25 9 -47zM779 638q16 -16 42.5 -27.5t48.5 -11.5t48.5 11.5t42.5 27.5q-16 16 -42.5 27t-48.5 11t-48.5 -11t-42.5 -27z" />
    <glyph glyph-name="u1001_u103c_u103e_u102e" 
d="M650 900v-70h-75q-14 0 -24.5 -10.5t-10.5 -24.5v-795v-295q0 -14 10.5 -24.5t24.5 -10.5h255h185q14 0 24.5 10.5t10.5 24.5v245h70v-245q0 -43 -31 -74t-74 -31h-185h-255q-43 0 -74 31t-31 74v295v795q0 43 31 74t74 31h75zM905 -50v-70q0 -44 -30.5 -74.5
t-74.5 -30.5h-70v70h70q14 0 24.5 10.5t10.5 24.5v70h70zM643 356q28 60 94.5 102t132.5 42q104 0 177 -73t73 -177t-73 -177t-177 -73q-60 0 -123.5 36.5t-93.5 88.5q30 29 81.5 49.5t92.5 20.5t92 -20.5t81 -49.5q21 22 35.5 58.5t14.5 66.5q0 74 -53 127t-127 53
q-47 0 -95 -30.5t-68 -73.5zM740 125q22 -23 60.5 -39t69.5 -16q52 0 95 27q-22 23 -60 39t-69 16q-53 0 -96 -27zM870 550h-1q-72 0 -123.5 51.5t-51.5 123.5q0 73 51.5 124t124.5 51t123.5 -51t50.5 -124q0 -72 -51 -123.5t-123 -51.5zM753 678q21 19 55 32t62 13t62 -13
t55 -32q9 22 9 47q0 53 -37 89.5t-89 36.5t-89 -36.5t-37 -89.5q0 -25 9 -47zM779 638q16 -16 42.5 -27.5t48.5 -11.5t48.5 11.5t42.5 27.5q-16 16 -42.5 27t-48.5 11t-48.5 -11t-42.5 -27z" />
    <glyph glyph-name="u1001_u103c_u1032" 
d="M650 900v-70h-75q-14 0 -24.5 -10.5t-10.5 -24.5v-795v-295q0 -14 10.5 -24.5t24.5 -10.5h255h185q14 0 24.5 10.5t10.5 24.5v245h70v-245q0 -43 -31 -74t-74 -31h-185h-255q-43 0 -74 31t-31 74v295v795q0 43 31 74t74 31h75zM643 356q28 60 94.5 102t132.5 42
q104 0 177 -73t73 -177t-73 -177t-177 -73q-60 0 -123.5 36.5t-93.5 88.5q30 29 81.5 49.5t92.5 20.5t92 -20.5t81 -49.5q21 22 35.5 58.5t14.5 66.5q0 74 -53 127t-127 53q-47 0 -95 -30.5t-68 -73.5zM740 125q22 -23 60.5 -39t69.5 -16q52 0 95 27q-22 23 -60 39t-69 16
q-53 0 -96 -27zM670 900l50 49l350 -350l-50 -49z" />
    <glyph glyph-name="u1001_u103c_u103d_u1032" 
d="M650 900v-70h-75q-14 0 -24.5 -10.5t-10.5 -24.5v-795v-295q0 -14 10.5 -24.5t24.5 -10.5h155q-14 20 -24.5 50.5t-10.5 54.5q0 73 51 124t124 51t124 -51t51 -124t-51 -124t-124 -51h-295q-43 0 -74 31t-31 74v295v795q0 43 31 74t74 31h75zM870 -351h1q52 0 88.5 37
t36.5 89q0 53 -37 89.5t-89 36.5t-89 -36.5t-37 -89.5q0 -52 37 -89t89 -37zM643 356q28 60 94.5 102t132.5 42q104 0 177 -73t73 -177t-73 -177t-177 -73q-60 0 -123.5 36.5t-93.5 88.5q30 29 81.5 49.5t92.5 20.5t92 -20.5t81 -49.5q21 22 35.5 58.5t14.5 66.5
q0 74 -53 127t-127 53q-47 0 -95 -30.5t-68 -73.5zM740 125q22 -23 60.5 -39t69.5 -16q52 0 95 27q-22 23 -60 39t-69 16q-53 0 -96 -27zM670 900l50 49l350 -350l-50 -49z" />
    <glyph glyph-name="u1001_u103c_u103e_u1032" 
d="M650 900v-70h-75q-14 0 -24.5 -10.5t-10.5 -24.5v-795v-295q0 -14 10.5 -24.5t24.5 -10.5h255h185q14 0 24.5 10.5t10.5 24.5v245h70v-245q0 -43 -31 -74t-74 -31h-185h-255q-43 0 -74 31t-31 74v295v795q0 43 31 74t74 31h75zM905 -50v-70q0 -44 -30.5 -74.5
t-74.5 -30.5h-70v70h70q14 0 24.5 10.5t10.5 24.5v70h70zM643 356q28 60 94.5 102t132.5 42q104 0 177 -73t73 -177t-73 -177t-177 -73q-60 0 -123.5 36.5t-93.5 88.5q30 29 81.5 49.5t92.5 20.5t92 -20.5t81 -49.5q21 22 35.5 58.5t14.5 66.5q0 74 -53 127t-127 53
q-47 0 -95 -30.5t-68 -73.5zM740 125q22 -23 60.5 -39t69.5 -16q52 0 95 27q-22 23 -60 39t-69 16q-53 0 -96 -27zM670 900l50 49l350 -350l-50 -49z" />
    <glyph glyph-name="u1002_u1031" 
d="M517 356l-64 -30q-20 43 -68 73.5t-95 30.5q-74 0 -127 -53t-53 -127q0 -30 14.5 -66.5t35.5 -58.5q30 29 81 49.5t92 20.5t92.5 -20.5t81.5 -49.5q-30 -52 -93.5 -88.5t-123.5 -36.5q-104 0 -177 73t-73 177t73 177t177 73q66 0 132.5 -42t94.5 -102zM420 125
q-43 27 -96 27q-31 0 -69 -16t-60 -39q43 -27 95 -27q31 0 69.5 16t60.5 39zM764 23q-60 28 -102 94.5t-42 132.5q0 104 73 177t177 73t177 -73t73 -177q0 -66 -42 -132.5t-102 -94.5l-30 64q43 20 73.5 68t30.5 95q0 74 -53 127t-127 53t-127 -53t-53 -127q0 -47 30.5 -95
t73.5 -68z" />
    <glyph glyph-name="u1002_u1031_u1037" 
d="M517 356l-64 -30q-20 43 -68 73.5t-95 30.5q-74 0 -127 -53t-53 -127q0 -30 14.5 -66.5t35.5 -58.5q30 29 81 49.5t92 20.5t92.5 -20.5t81.5 -49.5q-30 -52 -93.5 -88.5t-123.5 -36.5q-104 0 -177 73t-73 177t73 177t177 73q66 0 132.5 -42t94.5 -102zM420 125
q-43 27 -96 27q-31 0 -69 -16t-60 -39q43 -27 95 -27q31 0 69.5 16t60.5 39zM764 23q-60 28 -102 94.5t-42 132.5q0 104 73 177t177 73t177 -73t73 -177q0 -66 -42 -132.5t-102 -94.5l-30 64q43 20 73.5 68t30.5 95q0 74 -53 127t-127 53t-127 -53t-53 -127q0 -47 30.5 -95
t73.5 -68zM949 -208h-1q-32 0 -55 23.5t-23 55.5q0 33 22.5 56t55.5 23t56.5 -23t23.5 -56q0 -32 -23.5 -55.5t-55.5 -23.5zM948 -159h1q12 0 20.5 9t8.5 21q0 13 -8.5 21.5t-21.5 8.5t-21.5 -8.5t-8.5 -21.5q0 -12 9 -21t21 -9z" />
    <glyph glyph-name="u1002_u103b_u1031" horiz-adv-x="1740" 
d="M917 356l-64 -30q-20 43 -68 73.5t-95 30.5q-74 0 -127 -53t-53 -127q0 -30 14.5 -66.5t35.5 -58.5q30 29 81 49.5t92 20.5t92.5 -20.5t81.5 -49.5q-30 -52 -93.5 -88.5t-123.5 -36.5q-104 0 -177 73t-73 177t73 177t177 73q66 0 132.5 -42t94.5 -102zM820 125
q-43 27 -96 27q-31 0 -69 -16t-60 -39q43 -27 95 -27q31 0 69.5 16t60.5 39zM1164 23q-60 28 -102 94.5t-42 132.5q0 104 73 177t177 73t177 -73t73 -177q0 -66 -42 -132.5t-102 -94.5l-30 64q43 20 73.5 68t30.5 95q0 74 -53 127t-127 53t-127 -53t-53 -127q0 -47 30.5 -95
t73.5 -68zM1346 55h70v-200q0 -22 20 -31l70 -34l40 -20q6 -3 15 -3q14 0 24.5 10.5t10.5 24.5v698h70v-837q0 -14 -10.5 -24.5t-24.5 -10.5q-10 0 -18 5l-107 67l-143 90q-17 11 -17 29v236z" />
    <glyph glyph-name="u1002_u103b_u103d_u1031" horiz-adv-x="1740" 
d="M917 356l-64 -30q-20 43 -68 73.5t-95 30.5q-74 0 -127 -53t-53 -127q0 -30 14.5 -66.5t35.5 -58.5q30 29 81 49.5t92 20.5t92.5 -20.5t81.5 -49.5q-30 -52 -93.5 -88.5t-123.5 -36.5q-104 0 -177 73t-73 177t73 177t177 73q66 0 132.5 -42t94.5 -102zM820 125
q-43 27 -96 27q-31 0 -69 -16t-60 -39q43 -27 95 -27q31 0 69.5 16t60.5 39zM1164 23q-60 28 -102 94.5t-42 132.5q0 104 73 177t177 73t177 -73t73 -177q0 -66 -42 -132.5t-102 -94.5l-30 64q43 20 73.5 68t30.5 95q0 74 -53 127t-127 53t-127 -53t-53 -127q0 -47 30.5 -95
t73.5 -68zM1415 -323q-22 -32 -64.5 -54.5t-80.5 -22.5q-73 0 -124 51t-51 124t51 124t124 51t124 -51t51 -124q0 -19 -3 -33l106 -44q12 -3 14 -3q14 0 24.5 10.5t10.5 24.5v770h70v-875q0 -14 -10.5 -24.5t-24.5 -10.5q-2 0 -14 3zM1270 -99h-1q-52 0 -88.5 -37t-36.5 -89
q0 -53 37 -89.5t89 -36.5t89 36.5t37 89.5q0 52 -37 89t-89 37z" />
    <glyph glyph-name="u1002_u103b_u103d_u103e_u1031" horiz-adv-x="1740" 
d="M917 356l-64 -30q-20 43 -68 73.5t-95 30.5q-74 0 -127 -53t-53 -127q0 -30 14.5 -66.5t35.5 -58.5q30 29 81 49.5t92 20.5t92.5 -20.5t81.5 -49.5q-30 -52 -93.5 -88.5t-123.5 -36.5q-104 0 -177 73t-73 177t73 177t177 73q66 0 132.5 -42t94.5 -102zM820 125
q-43 27 -96 27q-31 0 -69 -16t-60 -39q43 -27 95 -27q31 0 69.5 16t60.5 39zM1164 23q-60 28 -102 94.5t-42 132.5q0 104 73 177t177 73t177 -73t73 -177q0 -66 -42 -132.5t-102 -94.5l-30 64q43 20 73.5 68t30.5 95q0 74 -53 127t-127 53t-127 -53t-53 -127q0 -47 30.5 -95
t73.5 -68zM1100 -268l-11 8l-55 -75q-10 -14 -28 -14q-14 0 -21 6l-51 37l29 40l12 -8q9 -7 20 -7q19 0 29 14l104 145q22 30 63.5 51t78.5 21q73 0 124 -51t51 -124q0 -19 -3 -33l106 -44q12 -3 14 -3q14 0 24.5 10.5t10.5 24.5v770h70v-875q0 -14 -10.5 -24.5t-24.5 -10.5
q-2 0 -14 3l-203 84q-22 -32 -64.5 -54.5t-80.5 -22.5q-56 0 -106.5 38.5t-63.5 93.5zM1270 -99h-1q-52 0 -88.5 -37t-36.5 -89q0 -53 37 -89.5t89 -36.5t89 36.5t37 89.5q0 52 -37 89t-89 37z" />
    <glyph glyph-name="u1002_u103b_u103e_u1031" horiz-adv-x="1740" 
d="M917 356l-64 -30q-20 43 -68 73.5t-95 30.5q-74 0 -127 -53t-53 -127q0 -30 14.5 -66.5t35.5 -58.5q30 29 81 49.5t92 20.5t92.5 -20.5t81.5 -49.5q-30 -52 -93.5 -88.5t-123.5 -36.5q-104 0 -177 73t-73 177t73 177t177 73q66 0 132.5 -42t94.5 -102zM820 125
q-43 27 -96 27q-31 0 -69 -16t-60 -39q43 -27 95 -27q31 0 69.5 16t60.5 39zM1164 23q-60 28 -102 94.5t-42 132.5q0 104 73 177t177 73t177 -73t73 -177q0 -66 -42 -132.5t-102 -94.5l-30 64q43 20 73.5 68t30.5 95q0 74 -53 127t-127 53t-127 -53t-53 -127q0 -47 30.5 -95
t73.5 -68zM1346 55h70v-200q0 -22 20 -31l70 -34l40 -20q6 -3 15 -3q14 0 24.5 10.5t10.5 24.5v698h70v-837q0 -14 -10.5 -24.5t-24.5 -10.5q-10 0 -18 5l-107 67l-143 90q-17 11 -17 29v96l-97 -168q-10 -17 -30 -17q-11 0 -18 5l-91 52l35 61l31 -18q7 -5 17 -5
q20 0 31 18z" />
    <glyph glyph-name="u1002_u103d_u1031" 
d="M517 356l-64 -30q-20 43 -68 73.5t-95 30.5q-74 0 -127 -53t-53 -127q0 -30 14.5 -66.5t35.5 -58.5q30 29 81 49.5t92 20.5t92.5 -20.5t81.5 -49.5q-30 -52 -93.5 -88.5t-123.5 -36.5q-104 0 -177 73t-73 177t73 177t177 73q66 0 132.5 -42t94.5 -102zM420 125
q-43 27 -96 27q-31 0 -69 -16t-60 -39q43 -27 95 -27q31 0 69.5 16t60.5 39zM764 23q-60 28 -102 94.5t-42 132.5q0 104 73 177t177 73t177 -73t73 -177q0 -66 -42 -132.5t-102 -94.5l-30 64q43 20 73.5 68t30.5 95q0 74 -53 127t-127 53t-127 -53t-53 -127q0 -47 30.5 -95
t73.5 -68zM870 -50h1q72 0 123.5 -51.5t51.5 -123.5q0 -73 -51.5 -124t-124.5 -51t-123.5 51t-50.5 124q0 72 51 123.5t123 51.5zM870 -99h-1q-52 0 -88.5 -37t-36.5 -89q0 -53 37 -89.5t89 -36.5t89 36.5t37 89.5q0 52 -37 89t-89 37z" />
    <glyph glyph-name="u1002_u103d_u103e_u1031" 
d="M517 356l-64 -30q-20 43 -68 73.5t-95 30.5q-74 0 -127 -53t-53 -127q0 -30 14.5 -66.5t35.5 -58.5q30 29 81 49.5t92 20.5t92.5 -20.5t81.5 -49.5q-30 -52 -93.5 -88.5t-123.5 -36.5q-104 0 -177 73t-73 177t73 177t177 73q66 0 132.5 -42t94.5 -102zM420 125
q-43 27 -96 27q-31 0 -69 -16t-60 -39q43 -27 95 -27q31 0 69.5 16t60.5 39zM764 23q-60 28 -102 94.5t-42 132.5q0 104 73 177t177 73t177 -73t73 -177q0 -66 -42 -132.5t-102 -94.5l-30 64q43 20 73.5 68t30.5 95q0 74 -53 127t-127 53t-127 -53t-53 -127q0 -47 30.5 -95
t73.5 -68zM728 -122q22 30 63.5 51t78.5 21q73 0 124 -51t51 -124t-51 -124t-124 -51q-63 0 -113.5 44.5t-59.5 106.5l-63 -86q-10 -14 -28 -14q-14 0 -21 6l-51 37l29 40l12 -8q9 -7 20 -7q19 0 29 14zM870 -99h-1q-52 0 -88.5 -37t-36.5 -89q0 -53 37 -89.5t89 -36.5
t89 36.5t37 89.5q0 52 -37 89t-89 37z" />
    <glyph glyph-name="u1002_u103e_u1031" 
d="M517 356l-64 -30q-20 43 -68 73.5t-95 30.5q-74 0 -127 -53t-53 -127q0 -30 14.5 -66.5t35.5 -58.5q30 29 81 49.5t92 20.5t92.5 -20.5t81.5 -49.5q-30 -52 -93.5 -88.5t-123.5 -36.5q-104 0 -177 73t-73 177t73 177t177 73q66 0 132.5 -42t94.5 -102zM420 125
q-43 27 -96 27q-31 0 -69 -16t-60 -39q43 -27 95 -27q31 0 69.5 16t60.5 39zM764 23q-60 28 -102 94.5t-42 132.5q0 104 73 177t177 73t177 -73t73 -177q0 -66 -42 -132.5t-102 -94.5l-30 64q43 20 73.5 68t30.5 95q0 74 -53 127t-127 53t-127 -53t-53 -127q0 -47 30.5 -95
t73.5 -68zM940 -50v-245q0 -43 -31 -74t-74 -31h-70v70h70q14 0 24.5 10.5t10.5 24.5v245h70z" />
    <glyph glyph-name="u1004_u103a_u1039_u1002" horiz-adv-x="580" 
d="M184 23q-60 28 -102 94.5t-42 132.5q0 104 73 177t177 73t177 -73t73 -177q0 -66 -42 -132.5t-102 -94.5l-30 64q43 20 73.5 68t30.5 95q0 74 -53 127t-127 53t-127 -53t-53 -127q0 -47 30.5 -95t73.5 -68zM377 606q-10 -23 -35.5 -39.5t-51.5 -16.5q-40 0 -68 28t-28 68
q0 21 12 44t29 35q-17 12 -29 35t-12 44q0 40 28 68t68 28q26 0 51.5 -16.5t35.5 -39.5l-31 -14q-7 15 -23 25t-33 10q-26 0 -43.5 -17.5t-17.5 -43.5t18 -44t43 -18q26 0 51.5 -16t35.5 -39l-31 -15q-7 15 -23 25.5t-33 10.5q-25 0 -43 -18t-18 -44t17.5 -43.5t43.5 -17.5
q17 0 33 10t23 25z" />
    <glyph glyph-name="u1004_u103a_u1039_u1002_u1031" 
d="M517 356l-64 -30q-20 43 -68 73.5t-95 30.5q-74 0 -127 -53t-53 -127q0 -30 14.5 -66.5t35.5 -58.5q30 29 81 49.5t92 20.5t92.5 -20.5t81.5 -49.5q-30 -52 -93.5 -88.5t-123.5 -36.5q-104 0 -177 73t-73 177t73 177t177 73q66 0 132.5 -42t94.5 -102zM420 125
q-43 27 -96 27q-31 0 -69 -16t-60 -39q43 -27 95 -27q31 0 69.5 16t60.5 39zM764 23q-60 28 -102 94.5t-42 132.5q0 104 73 177t177 73t177 -73t73 -177q0 -66 -42 -132.5t-102 -94.5l-30 64q43 20 73.5 68t30.5 95q0 74 -53 127t-127 53t-127 -53t-53 -127q0 -47 30.5 -95
t73.5 -68zM957 606q-10 -23 -35.5 -39.5t-51.5 -16.5q-40 0 -68 28t-28 68q0 21 12 44t29 35q-17 12 -29 35t-12 44q0 40 28 68t68 28q26 0 51.5 -16.5t35.5 -39.5l-31 -14q-7 15 -23 25t-33 10q-26 0 -43.5 -17.5t-17.5 -43.5t18 -44t43 -18q26 0 51.5 -16t35.5 -39
l-31 -15q-7 15 -23 25.5t-33 10.5q-25 0 -43 -18t-18 -44t17.5 -43.5t43.5 -17.5q17 0 33 10t23 25z" />
    <glyph glyph-name="kinzi_u1002_u103b_u1031" horiz-adv-x="1740" 
d="M947 356l-64 -30q-20 43 -68 73.5t-95 30.5q-74 0 -127 -53t-53 -127q0 -30 14.5 -66.5t35.5 -58.5q30 29 81 49.5t92 20.5t92.5 -20.5t81.5 -49.5q-30 -52 -93.5 -88.5t-123.5 -36.5q-104 0 -177 73t-73 177t73 177t177 73q66 0 132.5 -42t94.5 -102zM850 125
q-43 27 -96 27q-31 0 -69 -16t-60 -39q43 -27 95 -27q31 0 69.5 16t60.5 39zM1194 23q-60 28 -102 94.5t-42 132.5q0 104 73 177t177 73t177 -73t73 -177q0 -66 -42 -132.5t-102 -94.5l-30 64q43 20 73.5 68t30.5 95q0 74 -53 127t-127 53t-127 -53t-53 -127q0 -47 30.5 -95
t73.5 -68zM1387 606q-10 -23 -35.5 -39.5t-51.5 -16.5q-40 0 -68 28t-28 68q0 21 12 44t29 35q-17 12 -29 35t-12 44q0 40 28 68t68 28q26 0 51.5 -16.5t35.5 -39.5l-31 -14q-7 15 -23 25t-33 10q-26 0 -43.5 -17.5t-17.5 -43.5t18 -44t43 -18q26 0 51.5 -16t35.5 -39
l-31 -15q-7 15 -23 25.5t-33 10.5q-25 0 -43 -18t-18 -44t17.5 -43.5t43.5 -17.5q17 0 33 10t23 25zM1376 55h70v-200q0 -22 20 -31l70 -34l40 -20q6 -3 15 -3q14 0 24.5 10.5t10.5 24.5v698h70v-837q0 -14 -10.5 -24.5t-24.5 -10.5q-10 0 -18 5l-107 67l-143 90
q-17 11 -17 29v236z" />
    <glyph glyph-name="u1004_u103a_u1039_u1002_u102d" horiz-adv-x="580" 
d="M184 23q-60 28 -102 94.5t-42 132.5q0 104 73 177t177 73t177 -73t73 -177q0 -66 -42 -132.5t-102 -94.5l-30 64q43 20 73.5 68t30.5 95q0 74 -53 127t-127 53t-127 -53t-53 -127q0 -47 30.5 -95t73.5 -68zM202 606q-10 -23 -35.5 -39.5t-51.5 -16.5q-40 0 -68 28t-28 68
q0 21 12 44t29 35q-17 12 -29 35t-12 44q0 40 28 68t68 28q26 0 51.5 -16.5t35.5 -39.5l-31 -14q-7 15 -23 25t-33 10q-25 0 -43 -17.5t-18 -43.5t18 -44t43 -18q26 0 51.5 -16t35.5 -39l-31 -15q-7 15 -23 25.5t-33 10.5q-25 0 -43 -18t-18 -44t18 -43.5t43 -17.5
q17 0 33 10t23 25zM465 550h-1q-72 0 -123 51.5t-51 123.5q0 73 50.5 124t123.5 51t124.5 -51t51.5 -124q0 -72 -51.5 -123.5t-123.5 -51.5zM464 599h1q52 0 88.5 37t36.5 89q0 53 -37 89.5t-89 36.5t-89 -36.5t-37 -89.5q0 -52 37 -89t89 -37z" />
    <glyph glyph-name="u1004_u103a_u1039_u1002_u102e" horiz-adv-x="580" 
d="M184 23q-60 28 -102 94.5t-42 132.5q0 104 73 177t177 73t177 -73t73 -177q0 -66 -42 -132.5t-102 -94.5l-30 64q43 20 73.5 68t30.5 95q0 74 -53 127t-127 53t-127 -53t-53 -127q0 -47 30.5 -95t73.5 -68zM202 606q-10 -23 -35.5 -39.5t-51.5 -16.5q-40 0 -68 28t-28 68
q0 21 12 44t29 35q-17 12 -29 35t-12 44q0 40 28 68t68 28q26 0 51.5 -16.5t35.5 -39.5l-31 -14q-7 15 -23 25t-33 10q-25 0 -43 -17.5t-18 -43.5t18 -44t43 -18q26 0 51.5 -16t35.5 -39l-31 -15q-7 15 -23 25.5t-33 10.5q-25 0 -43 -18t-18 -44t18 -43.5t43 -17.5
q17 0 33 10t23 25zM465 550h-1q-72 0 -123 51.5t-51 123.5q0 73 50.5 124t123.5 51t124.5 -51t51.5 -124q0 -72 -51.5 -123.5t-123.5 -51.5zM348 678q21 19 55 32t62 13t62 -13t55 -32q9 22 9 47q0 53 -36.5 89.5t-89.5 36.5t-89.5 -36.5t-36.5 -89.5q0 -25 9 -47zM374 638
q16 -16 42.5 -27.5t48.5 -11.5t48.5 11.5t42.5 27.5q-16 16 -42.5 27t-48.5 11t-48.5 -11t-42.5 -27z" />
    <glyph glyph-name="u1004_u103a_u1039_u1002_u1036" horiz-adv-x="580" 
d="M184 23q-60 28 -102 94.5t-42 132.5q0 104 73 177t177 73t177 -73t73 -177q0 -66 -42 -132.5t-102 -94.5l-30 64q43 20 73.5 68t30.5 95q0 74 -53 127t-127 53t-127 -53t-53 -127q0 -47 30.5 -95t73.5 -68zM202 606q-10 -23 -35.5 -39.5t-51.5 -16.5q-40 0 -68 28t-28 68
q0 21 12 44t29 35q-17 12 -29 35t-12 44q0 40 28 68t68 28q26 0 51.5 -16.5t35.5 -39.5l-31 -14q-7 15 -23 25t-33 10q-25 0 -43 -17.5t-18 -43.5t18 -44t43 -18q26 0 51.5 -16t35.5 -39l-31 -15q-7 15 -23 25.5t-33 10.5q-25 0 -43 -18t-18 -44t18 -43.5t43 -17.5
q17 0 33 10t23 25zM465 646h-1q-32 0 -55 23.5t-23 55.5q0 33 22.5 56t55.5 23t56.5 -23t23.5 -56q0 -32 -23.5 -55.5t-55.5 -23.5zM464 695h1q12 0 20.5 9t8.5 21q0 13 -8.5 21.5t-21.5 8.5t-21.5 -8.5t-8.5 -21.5q0 -12 9 -21t21 -9z" />
    <glyph glyph-name="u1002_u103c" 
d="M1120 735h-70v60q0 14 -10.5 24.5t-24.5 10.5h-185h-255q-14 0 -24.5 -10.5t-10.5 -24.5v-795v-295q0 -14 10.5 -24.5t24.5 -10.5h255h185q14 0 24.5 10.5t10.5 24.5v245h70v-245q0 -43 -31 -74t-74 -31h-185h-255q-43 0 -74 31t-31 74v295v795q0 43 31 74t74 31h255h185
q43 0 74 -31t31 -74v-60zM764 23q-60 28 -102 94.5t-42 132.5q0 104 73 177t177 73t177 -73t73 -177q0 -66 -42 -132.5t-102 -94.5l-30 64q43 20 73.5 68t30.5 95q0 74 -53 127t-127 53t-127 -53t-53 -127q0 -47 30.5 -95t73.5 -68z" />
    <glyph glyph-name="u1002_u103c_u1031" horiz-adv-x="1740" 
d="M907 356l-64 -30q-20 43 -68 73.5t-95 30.5q-74 0 -127 -53t-53 -127q0 -30 14.5 -66.5t35.5 -58.5q30 29 81 49.5t92 20.5t92.5 -20.5t81.5 -49.5q-30 -52 -93.5 -88.5t-123.5 -36.5q-104 0 -177 73t-73 177t73 177t177 73q66 0 132.5 -42t94.5 -102zM810 125
q-43 27 -96 27q-31 0 -69 -16t-60 -39q43 -27 95 -27q31 0 69.5 16t60.5 39zM1660 735h-70v60q0 14 -10.5 24.5t-24.5 10.5h-185h-255q-14 0 -24.5 -10.5t-10.5 -24.5v-795v-295q0 -14 10.5 -24.5t24.5 -10.5h255h185q14 0 24.5 10.5t10.5 24.5v245h70v-245q0 -43 -31 -74
t-74 -31h-185h-255q-43 0 -74 31t-31 74v295v795q0 43 31 74t74 31h255h185q43 0 74 -31t31 -74v-60zM1304 23q-60 28 -102 94.5t-42 132.5q0 104 73 177t177 73t177 -73t73 -177q0 -66 -42 -132.5t-102 -94.5l-30 64q43 20 73.5 68t30.5 95q0 74 -53 127t-127 53t-127 -53
t-53 -127q0 -47 30.5 -95t73.5 -68z" />
    <glyph glyph-name="u1002_u103c_u1031_u102c" horiz-adv-x="1740" 
d="M517 356l-64 -30q-20 43 -68 73.5t-95 30.5q-74 0 -127 -53t-53 -127q0 -30 14.5 -66.5t35.5 -58.5q30 29 81 49.5t92 20.5t92.5 -20.5t81.5 -49.5q-30 -52 -93.5 -88.5t-123.5 -36.5q-104 0 -177 73t-73 177t73 177t177 73q66 0 132.5 -42t94.5 -102zM420 125
q-43 27 -96 27q-31 0 -69 -16t-60 -39q43 -27 95 -27q31 0 69.5 16t60.5 39zM1270 735h-70v60q0 14 -10.5 24.5t-24.5 10.5h-185h-255q-14 0 -24.5 -10.5t-10.5 -24.5v-795v-295q0 -14 10.5 -24.5t24.5 -10.5h255h185q14 0 24.5 10.5t10.5 24.5v245h70v-245q0 -43 -31 -74
t-74 -31h-185h-255q-43 0 -74 31t-31 74v295v795q0 43 31 74t74 31h255h185q43 0 74 -31t31 -74v-60zM1235 378q30 51 93 86.5t122 35.5q104 0 177 -73t73 -177t-73 -177t-177 -73v70q74 0 127 53t53 127t-53 127t-127 53t-127 -53t-53 -127zM914 23q-60 28 -102 94.5
t-42 132.5q0 104 73 177t177 73t177 -73t73 -177q0 -66 -42 -132.5t-102 -94.5l-30 64q43 20 73.5 68t30.5 95q0 74 -53 127t-127 53t-127 -53t-53 -127q0 -47 30.5 -95t73.5 -68z" />
    <glyph glyph-name="u1002_u103c_u103d_u1031" horiz-adv-x="1740" 
d="M907 356l-64 -30q-20 43 -68 73.5t-95 30.5q-74 0 -127 -53t-53 -127q0 -30 14.5 -66.5t35.5 -58.5q30 29 81 49.5t92 20.5t92.5 -20.5t81.5 -49.5q-30 -52 -93.5 -88.5t-123.5 -36.5q-104 0 -177 73t-73 177t73 177t177 73q66 0 132.5 -42t94.5 -102zM810 125
q-43 27 -96 27q-31 0 -69 -16t-60 -39q43 -27 95 -27q31 0 69.5 16t60.5 39zM1660 735h-70v60q0 14 -10.5 24.5t-24.5 10.5h-185h-255q-14 0 -24.5 -10.5t-10.5 -24.5v-795v-295q0 -14 10.5 -24.5t24.5 -10.5h155q-14 20 -24.5 50.5t-10.5 54.5q0 73 51 124t124 51t124 -51
t51 -124t-51 -124t-124 -51h-295q-43 0 -74 31t-31 74v295v795q0 43 31 74t74 31h255h185q43 0 74 -31t31 -74v-60zM1410 -351h1q52 0 88.5 37t36.5 89q0 53 -37 89.5t-89 36.5t-89 -36.5t-37 -89.5q0 -52 37 -89t89 -37zM1304 23q-60 28 -102 94.5t-42 132.5q0 104 73 177
t177 73t177 -73t73 -177q0 -66 -42 -132.5t-102 -94.5l-30 64q43 20 73.5 68t30.5 95q0 74 -53 127t-127 53t-127 -53t-53 -127q0 -47 30.5 -95t73.5 -68z" />
    <glyph glyph-name="u1002_u103c_u103e_u1031" horiz-adv-x="1740" 
d="M907 356l-64 -30q-20 43 -68 73.5t-95 30.5q-74 0 -127 -53t-53 -127q0 -30 14.5 -66.5t35.5 -58.5q30 29 81 49.5t92 20.5t92.5 -20.5t81.5 -49.5q-30 -52 -93.5 -88.5t-123.5 -36.5q-104 0 -177 73t-73 177t73 177t177 73q66 0 132.5 -42t94.5 -102zM810 125
q-43 27 -96 27q-31 0 -69 -16t-60 -39q43 -27 95 -27q31 0 69.5 16t60.5 39zM1660 735h-70v60q0 14 -10.5 24.5t-24.5 10.5h-185h-255q-14 0 -24.5 -10.5t-10.5 -24.5v-795v-295q0 -14 10.5 -24.5t24.5 -10.5h255h185q14 0 24.5 10.5t10.5 24.5v245h70v-245q0 -43 -31 -74
t-74 -31h-185h-255q-43 0 -74 31t-31 74v295v795q0 43 31 74t74 31h255h185q43 0 74 -31t31 -74v-60zM1445 -50v-70q0 -44 -30.5 -74.5t-74.5 -30.5h-70v70h70q14 0 24.5 10.5t10.5 24.5v70h70zM1304 23q-60 28 -102 94.5t-42 132.5q0 104 73 177t177 73t177 -73t73 -177
q0 -66 -42 -132.5t-102 -94.5l-30 64q43 20 73.5 68t30.5 95q0 74 -53 127t-127 53t-127 -53t-53 -127q0 -47 30.5 -95t73.5 -68z" />
    <glyph glyph-name="u1002_u103c_u103d_u1031_u102c" horiz-adv-x="1740" 
d="M517 356l-64 -30q-20 43 -68 73.5t-95 30.5q-74 0 -127 -53t-53 -127q0 -30 14.5 -66.5t35.5 -58.5q30 29 81 49.5t92 20.5t92.5 -20.5t81.5 -49.5q-30 -52 -93.5 -88.5t-123.5 -36.5q-104 0 -177 73t-73 177t73 177t177 73q66 0 132.5 -42t94.5 -102zM420 125
q-43 27 -96 27q-31 0 -69 -16t-60 -39q43 -27 95 -27q31 0 69.5 16t60.5 39zM1270 735h-70v60q0 14 -10.5 24.5t-24.5 10.5h-185h-255q-14 0 -24.5 -10.5t-10.5 -24.5v-795v-295q0 -14 10.5 -24.5t24.5 -10.5h155q-14 20 -24.5 50.5t-10.5 54.5q0 73 51 124t124 51t124 -51
t51 -124t-51 -124t-124 -51h-295q-43 0 -74 31t-31 74v295v795q0 43 31 74t74 31h255h185q43 0 74 -31t31 -74v-60zM1020 -351h1q52 0 88.5 37t36.5 89q0 53 -37 89.5t-89 36.5t-89 -36.5t-37 -89.5q0 -52 37 -89t89 -37zM1235 378q30 51 93 86.5t122 35.5q104 0 177 -73
t73 -177t-73 -177t-177 -73v70q74 0 127 53t53 127t-53 127t-127 53t-127 -53t-53 -127zM914 23q-60 28 -102 94.5t-42 132.5q0 104 73 177t177 73t177 -73t73 -177q0 -66 -42 -132.5t-102 -94.5l-30 64q43 20 73.5 68t30.5 95q0 74 -53 127t-127 53t-127 -53t-53 -127
q0 -47 30.5 -95t73.5 -68z" />
    <glyph glyph-name="u1002_u103c_u103e_u1031_u102c" horiz-adv-x="1740" 
d="M517 356l-64 -30q-20 43 -68 73.5t-95 30.5q-74 0 -127 -53t-53 -127q0 -30 14.5 -66.5t35.5 -58.5q30 29 81 49.5t92 20.5t92.5 -20.5t81.5 -49.5q-30 -52 -93.5 -88.5t-123.5 -36.5q-104 0 -177 73t-73 177t73 177t177 73q66 0 132.5 -42t94.5 -102zM420 125
q-43 27 -96 27q-31 0 -69 -16t-60 -39q43 -27 95 -27q31 0 69.5 16t60.5 39zM1270 735h-70v60q0 14 -10.5 24.5t-24.5 10.5h-185h-255q-14 0 -24.5 -10.5t-10.5 -24.5v-795v-295q0 -14 10.5 -24.5t24.5 -10.5h255h185q14 0 24.5 10.5t10.5 24.5v245h70v-245q0 -43 -31 -74
t-74 -31h-185h-255q-43 0 -74 31t-31 74v295v795q0 43 31 74t74 31h255h185q43 0 74 -31t31 -74v-60zM1055 -50v-70q0 -44 -30.5 -74.5t-74.5 -30.5h-70v70h70q14 0 24.5 10.5t10.5 24.5v70h70zM1235 378q30 51 93 86.5t122 35.5q104 0 177 -73t73 -177t-73 -177t-177 -73
v70q74 0 127 53t53 127t-53 127t-127 53t-127 -53t-53 -127zM914 23q-60 28 -102 94.5t-42 132.5q0 104 73 177t177 73t177 -73t73 -177q0 -66 -42 -132.5t-102 -94.5l-30 64q43 20 73.5 68t30.5 95q0 74 -53 127t-127 53t-127 -53t-53 -127q0 -47 30.5 -95t73.5 -68z" />
    <glyph glyph-name="u1002_u103c_u103d" 
d="M1120 735h-70v60q0 14 -10.5 24.5t-24.5 10.5h-185h-255q-14 0 -24.5 -10.5t-10.5 -24.5v-795v-295q0 -14 10.5 -24.5t24.5 -10.5h155q-14 20 -24.5 50.5t-10.5 54.5q0 73 51 124t124 51t124 -51t51 -124t-51 -124t-124 -51h-295q-43 0 -74 31t-31 74v295v795q0 43 31 74
t74 31h255h185q43 0 74 -31t31 -74v-60zM870 -351h1q52 0 88.5 37t36.5 89q0 53 -37 89.5t-89 36.5t-89 -36.5t-37 -89.5q0 -52 37 -89t89 -37zM764 23q-60 28 -102 94.5t-42 132.5q0 104 73 177t177 73t177 -73t73 -177q0 -66 -42 -132.5t-102 -94.5l-30 64q43 20 73.5 68
t30.5 95q0 74 -53 127t-127 53t-127 -53t-53 -127q0 -47 30.5 -95t73.5 -68z" />
    <glyph glyph-name="u1002_u103c_u103e" 
d="M1120 735h-70v60q0 14 -10.5 24.5t-24.5 10.5h-185h-255q-14 0 -24.5 -10.5t-10.5 -24.5v-795v-295q0 -14 10.5 -24.5t24.5 -10.5h255h185q14 0 24.5 10.5t10.5 24.5v245h70v-245q0 -43 -31 -74t-74 -31h-185h-255q-43 0 -74 31t-31 74v295v795q0 43 31 74t74 31h255h185
q43 0 74 -31t31 -74v-60zM905 -50v-70q0 -44 -30.5 -74.5t-74.5 -30.5h-70v70h70q14 0 24.5 10.5t10.5 24.5v70h70zM764 23q-60 28 -102 94.5t-42 132.5q0 104 73 177t177 73t177 -73t73 -177q0 -66 -42 -132.5t-102 -94.5l-30 64q43 20 73.5 68t30.5 95q0 74 -53 127
t-127 53t-127 -53t-53 -127q0 -47 30.5 -95t73.5 -68z" />
    <glyph glyph-name="u1002_u103c_u102c" 
d="M690 735h-70v60q0 14 -10.5 24.5t-24.5 10.5h-185h-255q-14 0 -24.5 -10.5t-10.5 -24.5v-795v-295q0 -14 10.5 -24.5t24.5 -10.5h255h185q14 0 24.5 10.5t10.5 24.5v245h70v-245q0 -43 -31 -74t-74 -31h-185h-255q-43 0 -74 31t-31 74v295v795q0 43 31 74t74 31h255h185
q43 0 74 -31t31 -74v-60zM334 23q-60 28 -102 94.5t-42 132.5q0 104 73 177t177 73t177 -73t73 -177q0 -66 -42 -132.5t-102 -94.5l-30 64q43 20 73.5 68t30.5 95q0 74 -53 127t-127 53t-127 -53t-53 -127q0 -47 30.5 -95t73.5 -68zM655 378q30 51 93 86.5t122 35.5
q104 0 177 -73t73 -177t-73 -177t-177 -73v70q74 0 127 53t53 127t-53 127t-127 53t-127 -53t-53 -127z" />
    <glyph glyph-name="u1002_u103c_u102f" 
d="M1120 735h-70v60q0 14 -10.5 24.5t-24.5 10.5h-185h-255q-14 0 -24.5 -10.5t-10.5 -24.5v-795v-295q0 -14 10.5 -24.5t24.5 -10.5h185q14 0 24.5 10.5t10.5 24.5v245h70v-245q0 -43 -30.5 -74t-74.5 -31h-185q-43 0 -74 31t-31 74v295v795q0 43 31 74t74 31h255h185
q43 0 74 -31t31 -74v-60zM1035 -400q-43 0 -74 31t-31 74v245h70v-245q0 -14 10.5 -24.5t24.5 -10.5v-70zM764 23q-60 28 -102 94.5t-42 132.5q0 104 73 177t177 73t177 -73t73 -177q0 -66 -42 -132.5t-102 -94.5l-30 64q43 20 73.5 68t30.5 95q0 74 -53 127t-127 53
t-127 -53t-53 -127q0 -47 30.5 -95t73.5 -68z" />
    <glyph glyph-name="u1002_u103c_u1030" 
d="M735 735h-70v60q0 14 -10.5 24.5t-24.5 10.5h-185h-255q-14 0 -24.5 -10.5t-10.5 -24.5v-795v-295q0 -14 10.5 -24.5t24.5 -10.5h255h185q14 0 24.5 10.5t10.5 24.5v245h70v-245q0 -43 -30.5 -74t-74.5 -31h-185h-255q-44 0 -74.5 31t-30.5 74v295v795q0 43 30.5 74
t74.5 31h255h185q44 0 74.5 -31t30.5 -74v-60zM379 23q-60 28 -102 94.5t-42 132.5q0 104 73.5 177t176.5 73t176.5 -73t73.5 -177q0 -66 -42 -132.5t-102 -94.5l-30 64q43 20 73.5 68t30.5 95q0 74 -53 127t-127 53t-127 -53t-53 -127q0 -47 30.5 -95t73.5 -68zM815 500h70
v-900h-70v900zM945 500h70v-795q0 -14 10.5 -24.5t24.5 -10.5h70v-70h-70q-44 0 -74.5 31t-30.5 74v795z" />
    <glyph glyph-name="u1002_u103c_u103d_u102f" 
d="M865 735h-70v60q0 14 -10.5 24.5t-24.5 10.5h-185h-255q-14 0 -24.5 -10.5t-10.5 -24.5v-795v-295q0 -14 10.5 -24.5t24.5 -10.5h155q-14 20 -24.5 50.5t-10.5 54.5q0 73 51 124t124 51t124 -51t51 -124t-51 -124t-124 -51h-295q-44 0 -74.5 31t-30.5 74v295v795
q0 43 30.5 74t74.5 31h255h185q44 0 74.5 -31t30.5 -74v-60zM615 -351h1q52 0 89 37t37 89q0 53 -37 89.5t-89 36.5t-89 -36.5t-37 -89.5q0 -52 36.5 -89t88.5 -37zM509 23q-60 28 -102 94.5t-42 132.5q0 104 73.5 177t176.5 73t176.5 -73t73.5 -177q0 -66 -42 -132.5
t-102 -94.5l-30 64q43 20 73.5 68t30.5 95q0 74 -53 127t-127 53t-127 -53t-53 -127q0 -47 30.5 -95t73.5 -68zM945 500h70v-795q0 -14 10.5 -24.5t24.5 -10.5h70v-70h-70q-44 0 -74.5 31t-30.5 74v795z" />
    <glyph glyph-name="u1002_u103c_u103d_u1030" 
d="M735 735h-70v60q0 14 -10.5 24.5t-24.5 10.5h-185h-255q-14 0 -24.5 -10.5t-10.5 -24.5v-795v-295q0 -14 10.5 -24.5t24.5 -10.5h155q-14 20 -24.5 50.5t-10.5 54.5q0 73 51 124t124 51t124 -51t51 -124t-51 -124t-124 -51h-295q-44 0 -74.5 31t-30.5 74v295v795
q0 43 30.5 74t74.5 31h255h185q44 0 74.5 -31t30.5 -74v-60zM485 -351h1q52 0 89 37t37 89q0 53 -37 89.5t-89 36.5t-89 -36.5t-37 -89.5q0 -52 36.5 -89t88.5 -37zM379 23q-60 28 -102 94.5t-42 132.5q0 104 73.5 177t176.5 73t176.5 -73t73.5 -177q0 -66 -42 -132.5
t-102 -94.5l-30 64q43 20 73.5 68t30.5 95q0 74 -53 127t-127 53t-127 -53t-53 -127q0 -47 30.5 -95t73.5 -68zM815 500h70v-900h-70v900zM945 500h70v-795q0 -14 10.5 -24.5t24.5 -10.5h70v-70h-70q-44 0 -74.5 31t-30.5 74v795z" />
    <glyph glyph-name="u1002_u103c_u102d_u102f" 
d="M650 900v-70h-75q-14 0 -24.5 -10.5t-10.5 -24.5v-795v-295q0 -14 10.5 -24.5t24.5 -10.5h185q14 0 24.5 10.5t10.5 24.5v245h70v-245q0 -43 -30.5 -74t-74.5 -31h-185q-43 0 -74 31t-31 74v295v795q0 43 31 74t74 31h75zM1035 -400q-43 0 -74 31t-31 74v245h70v-245
q0 -14 10.5 -24.5t24.5 -10.5v-70zM764 23q-60 28 -102 94.5t-42 132.5q0 104 73 177t177 73t177 -73t73 -177q0 -66 -42 -132.5t-102 -94.5l-30 64q43 20 73.5 68t30.5 95q0 74 -53 127t-127 53t-127 -53t-53 -127q0 -47 30.5 -95t73.5 -68zM870 550h-1q-72 0 -123.5 51.5
t-51.5 123.5q0 73 51.5 124t124.5 51t123.5 -51t50.5 -124q0 -72 -51 -123.5t-123 -51.5zM869 599h1q52 0 89 37t37 89q0 53 -37 89.5t-89 36.5t-89 -36.5t-37 -89.5q0 -52 36.5 -89t88.5 -37z" />
    <glyph glyph-name="u1002_u103c_u103e_u102f" 
d="M865 735h-70v60q0 14 -10.5 24.5t-24.5 10.5h-185h-255q-14 0 -24.5 -10.5t-10.5 -24.5v-795v-295q0 -14 10.5 -24.5t24.5 -10.5h255h185q14 0 24.5 10.5t10.5 24.5v245h70v-245q0 -43 -30.5 -74t-74.5 -31h-185h-255q-44 0 -74.5 31t-30.5 74v295v795q0 43 30.5 74
t74.5 31h255h185q44 0 74.5 -31t30.5 -74v-60zM650 -50v-70q0 -44 -31 -74.5t-74 -30.5h-70v70h70q14 0 24.5 10.5t10.5 24.5v70h70zM509 23q-60 28 -102 94.5t-42 132.5q0 104 73.5 177t176.5 73t176.5 -73t73.5 -177q0 -66 -42 -132.5t-102 -94.5l-30 64q43 20 73.5 68
t30.5 95q0 74 -53 127t-127 53t-127 -53t-53 -127q0 -47 30.5 -95t73.5 -68zM945 500h70v-795q0 -14 10.5 -24.5t24.5 -10.5h70v-70h-70q-44 0 -74.5 31t-30.5 74v795z" />
    <glyph glyph-name="u1002_u103c_u103e_u1030" 
d="M735 735h-70v60q0 14 -10.5 24.5t-24.5 10.5h-185h-255q-14 0 -24.5 -10.5t-10.5 -24.5v-795v-295q0 -14 10.5 -24.5t24.5 -10.5h255h185q14 0 24.5 10.5t10.5 24.5v245h70v-245q0 -43 -30.5 -74t-74.5 -31h-185h-255q-44 0 -74.5 31t-30.5 74v295v795q0 43 30.5 74
t74.5 31h255h185q44 0 74.5 -31t30.5 -74v-60zM520 -50v-70q0 -44 -31 -74.5t-74 -30.5h-70v70h70q14 0 24.5 10.5t10.5 24.5v70h70zM379 23q-60 28 -102 94.5t-42 132.5q0 104 73.5 177t176.5 73t176.5 -73t73.5 -177q0 -66 -42 -132.5t-102 -94.5l-30 64q43 20 73.5 68
t30.5 95q0 74 -53 127t-127 53t-127 -53t-53 -127q0 -47 30.5 -95t73.5 -68zM815 500h70v-900h-70v900zM945 500h70v-795q0 -14 10.5 -24.5t24.5 -10.5h70v-70h-70q-44 0 -74.5 31t-30.5 74v795z" />
    <glyph glyph-name="u1002_u103c_u103e_u102d_u102f" 
d="M395 900v-70h-75q-14 0 -24.5 -10.5t-10.5 -24.5v-795v-295q0 -14 10.5 -24.5t24.5 -10.5h255h185q14 0 24.5 10.5t10.5 24.5v245h70v-245q0 -43 -30.5 -74t-74.5 -31h-185h-255q-44 0 -74.5 31t-30.5 74v295v795q0 43 30.5 74t74.5 31h75zM650 -50v-70q0 -44 -31 -74.5
t-74 -30.5h-70v70h70q14 0 24.5 10.5t10.5 24.5v70h70zM509 23q-60 28 -102 94.5t-42 132.5q0 104 73.5 177t176.5 73t176.5 -73t73.5 -177q0 -66 -42 -132.5t-102 -94.5l-30 64q43 20 73.5 68t30.5 95q0 74 -53 127t-127 53t-127 -53t-53 -127q0 -47 30.5 -95t73.5 -68z
M615 550h-1q-72 0 -123 51.5t-51 123.5q0 73 50.5 124t123.5 51t124.5 -51t51.5 -124q0 -72 -51.5 -123.5t-123.5 -51.5zM614 599h1q52 0 88.5 37t36.5 89q0 53 -37 89.5t-89 36.5t-89 -36.5t-37 -89.5q0 -52 37 -89t89 -37zM945 500h70v-795q0 -14 10.5 -24.5t24.5 -10.5
h70v-70h-70q-44 0 -74.5 31t-30.5 74v795z" />
    <glyph glyph-name="u1002_u103c_u103e_u102f_u1036" 
d="M865 735h-70v60q0 14 -10.5 24.5t-24.5 10.5h-185h-255q-14 0 -24.5 -10.5t-10.5 -24.5v-795v-295q0 -14 10.5 -24.5t24.5 -10.5h255h185q14 0 24.5 10.5t10.5 24.5v245h70v-245q0 -43 -30.5 -74t-74.5 -31h-185h-255q-44 0 -74.5 31t-30.5 74v295v795q0 43 30.5 74
t74.5 31h255h185q44 0 74.5 -31t30.5 -74v-60zM650 -50v-70q0 -44 -31 -74.5t-74 -30.5h-70v70h70q14 0 24.5 10.5t10.5 24.5v70h70zM509 23q-60 28 -102 94.5t-42 132.5q0 104 73.5 177t176.5 73t176.5 -73t73.5 -177q0 -66 -42 -132.5t-102 -94.5l-30 64q43 20 73.5 68
t30.5 95q0 74 -53 127t-127 53t-127 -53t-53 -127q0 -47 30.5 -95t73.5 -68zM615 646h-1q-32 0 -55 23.5t-23 55.5q0 33 22.5 56t55.5 23t56.5 -23t23.5 -56q0 -32 -23.5 -55.5t-55.5 -23.5zM614 695h1q12 0 20.5 9t8.5 21q0 13 -8.5 21.5t-21.5 8.5t-21.5 -8.5t-8.5 -21.5
q0 -12 9 -21t21 -9zM945 500h70v-795q0 -14 10.5 -24.5t24.5 -10.5h70v-70h-70q-44 0 -74.5 31t-30.5 74v795z" />
    <glyph glyph-name="u1002_u103c_u102f_u1036_u1037" 
d="M650 900v-70h-75q-14 0 -24.5 -10.5t-10.5 -24.5v-795v-295q0 -14 10.5 -24.5t24.5 -10.5h185q14 0 24.5 10.5t10.5 24.5v245h70v-245q0 -43 -30.5 -74t-74.5 -31h-185q-43 0 -74 31t-31 74v295v795q0 43 31 74t74 31h75zM1035 -400q-43 0 -74 31t-31 74v245h70v-245
q0 -14 10.5 -24.5t24.5 -10.5v-70zM764 23q-60 28 -102 94.5t-42 132.5q0 104 73 177t177 73t177 -73t73 -177q0 -66 -42 -132.5t-102 -94.5l-30 64q43 20 73.5 68t30.5 95q0 74 -53 127t-127 53t-127 -53t-53 -127q0 -47 30.5 -95t73.5 -68zM870 646h-1q-32 0 -55.5 23.5
t-23.5 55.5q0 33 23.5 56t56.5 23t55.5 -23t22.5 -56q0 -32 -23 -55.5t-55 -23.5zM869 695h1q12 0 21 9t9 21q0 13 -8.5 21.5t-21.5 8.5t-21.5 -8.5t-8.5 -21.5q0 -12 8.5 -21t20.5 -9zM1239 -208h-1q-32 0 -55 23.5t-23 55.5q0 33 22.5 56t55.5 23t56.5 -23t23.5 -56
q0 -32 -23.5 -55.5t-55.5 -23.5zM1238 -159h1q12 0 20.5 9t8.5 21q0 13 -8.5 21.5t-21.5 8.5t-21.5 -8.5t-8.5 -21.5q0 -12 9 -21t21 -9z" />
    <glyph glyph-name="u1002_u103c_u102d" 
d="M650 900v-70h-75q-14 0 -24.5 -10.5t-10.5 -24.5v-795v-295q0 -14 10.5 -24.5t24.5 -10.5h255h185q14 0 24.5 10.5t10.5 24.5v245h70v-245q0 -43 -31 -74t-74 -31h-185h-255q-43 0 -74 31t-31 74v295v795q0 43 31 74t74 31h75zM764 23q-60 28 -102 94.5t-42 132.5
q0 104 73 177t177 73t177 -73t73 -177q0 -66 -42 -132.5t-102 -94.5l-30 64q43 20 73.5 68t30.5 95q0 74 -53 127t-127 53t-127 -53t-53 -127q0 -47 30.5 -95t73.5 -68zM870 550h-1q-72 0 -123.5 51.5t-51.5 123.5q0 73 51.5 124t124.5 51t123.5 -51t50.5 -124
q0 -72 -51 -123.5t-123 -51.5zM869 599h1q52 0 89 37t37 89q0 53 -37 89.5t-89 36.5t-89 -36.5t-37 -89.5q0 -52 36.5 -89t88.5 -37z" />
    <glyph glyph-name="u1002_u103c_u103d_u102d" 
d="M650 900v-70h-75q-14 0 -24.5 -10.5t-10.5 -24.5v-795v-295q0 -14 10.5 -24.5t24.5 -10.5h155q-14 20 -24.5 50.5t-10.5 54.5q0 73 51 124t124 51t124 -51t51 -124t-51 -124t-124 -51h-295q-43 0 -74 31t-31 74v295v795q0 43 31 74t74 31h75zM870 -351h1q52 0 88.5 37
t36.5 89q0 53 -37 89.5t-89 36.5t-89 -36.5t-37 -89.5q0 -52 37 -89t89 -37zM764 23q-60 28 -102 94.5t-42 132.5q0 104 73 177t177 73t177 -73t73 -177q0 -66 -42 -132.5t-102 -94.5l-30 64q43 20 73.5 68t30.5 95q0 74 -53 127t-127 53t-127 -53t-53 -127q0 -47 30.5 -95
t73.5 -68zM870 550h-1q-72 0 -123.5 51.5t-51.5 123.5q0 73 51.5 124t124.5 51t123.5 -51t50.5 -124q0 -72 -51 -123.5t-123 -51.5zM869 599h1q52 0 89 37t37 89q0 53 -37 89.5t-89 36.5t-89 -36.5t-37 -89.5q0 -52 36.5 -89t88.5 -37z" />
    <glyph glyph-name="u1002_u103c_u103e_u102d" 
d="M650 900v-70h-75q-14 0 -24.5 -10.5t-10.5 -24.5v-795v-295q0 -14 10.5 -24.5t24.5 -10.5h255h185q14 0 24.5 10.5t10.5 24.5v245h70v-245q0 -43 -31 -74t-74 -31h-185h-255q-43 0 -74 31t-31 74v295v795q0 43 31 74t74 31h75zM905 -50v-70q0 -44 -30.5 -74.5
t-74.5 -30.5h-70v70h70q14 0 24.5 10.5t10.5 24.5v70h70zM764 23q-60 28 -102 94.5t-42 132.5q0 104 73 177t177 73t177 -73t73 -177q0 -66 -42 -132.5t-102 -94.5l-30 64q43 20 73.5 68t30.5 95q0 74 -53 127t-127 53t-127 -53t-53 -127q0 -47 30.5 -95t73.5 -68zM870 550
h-1q-72 0 -123.5 51.5t-51.5 123.5q0 73 51.5 124t124.5 51t123.5 -51t50.5 -124q0 -72 -51 -123.5t-123 -51.5zM869 599h1q52 0 89 37t37 89q0 53 -37 89.5t-89 36.5t-89 -36.5t-37 -89.5q0 -52 36.5 -89t88.5 -37z" />
    <glyph glyph-name="u1002_u103c_u102e" 
d="M650 900v-70h-75q-14 0 -24.5 -10.5t-10.5 -24.5v-795v-295q0 -14 10.5 -24.5t24.5 -10.5h255h185q14 0 24.5 10.5t10.5 24.5v245h70v-245q0 -43 -31 -74t-74 -31h-185h-255q-43 0 -74 31t-31 74v295v795q0 43 31 74t74 31h75zM764 23q-60 28 -102 94.5t-42 132.5
q0 104 73 177t177 73t177 -73t73 -177q0 -66 -42 -132.5t-102 -94.5l-30 64q43 20 73.5 68t30.5 95q0 74 -53 127t-127 53t-127 -53t-53 -127q0 -47 30.5 -95t73.5 -68zM870 550h-1q-72 0 -123.5 51.5t-51.5 123.5q0 73 51.5 124t124.5 51t123.5 -51t50.5 -124
q0 -72 -51 -123.5t-123 -51.5zM753 678q21 19 55 32t62 13t62 -13t55 -32q9 22 9 47q0 53 -37 89.5t-89 36.5t-89 -36.5t-37 -89.5q0 -25 9 -47zM779 638q16 -16 42.5 -27.5t48.5 -11.5t48.5 11.5t42.5 27.5q-16 16 -42.5 27t-48.5 11t-48.5 -11t-42.5 -27z" />
    <glyph glyph-name="u1002_u103c_u103d_u102e" 
d="M650 900v-70h-75q-14 0 -24.5 -10.5t-10.5 -24.5v-795v-295q0 -14 10.5 -24.5t24.5 -10.5h155q-14 20 -24.5 50.5t-10.5 54.5q0 73 51 124t124 51t124 -51t51 -124t-51 -124t-124 -51h-295q-43 0 -74 31t-31 74v295v795q0 43 31 74t74 31h75zM870 -351h1q52 0 88.5 37
t36.5 89q0 53 -37 89.5t-89 36.5t-89 -36.5t-37 -89.5q0 -52 37 -89t89 -37zM764 23q-60 28 -102 94.5t-42 132.5q0 104 73 177t177 73t177 -73t73 -177q0 -66 -42 -132.5t-102 -94.5l-30 64q43 20 73.5 68t30.5 95q0 74 -53 127t-127 53t-127 -53t-53 -127q0 -47 30.5 -95
t73.5 -68zM870 550h-1q-72 0 -123.5 51.5t-51.5 123.5q0 73 51.5 124t124.5 51t123.5 -51t50.5 -124q0 -72 -51 -123.5t-123 -51.5zM753 678q21 19 55 32t62 13t62 -13t55 -32q9 22 9 47q0 53 -37 89.5t-89 36.5t-89 -36.5t-37 -89.5q0 -25 9 -47zM779 638
q16 -16 42.5 -27.5t48.5 -11.5t48.5 11.5t42.5 27.5q-16 16 -42.5 27t-48.5 11t-48.5 -11t-42.5 -27z" />
    <glyph glyph-name="u1002_u103c_u103e_u102e" 
d="M650 900v-70h-75q-14 0 -24.5 -10.5t-10.5 -24.5v-795v-295q0 -14 10.5 -24.5t24.5 -10.5h255h185q14 0 24.5 10.5t10.5 24.5v245h70v-245q0 -43 -31 -74t-74 -31h-185h-255q-43 0 -74 31t-31 74v295v795q0 43 31 74t74 31h75zM905 -50v-70q0 -44 -30.5 -74.5
t-74.5 -30.5h-70v70h70q14 0 24.5 10.5t10.5 24.5v70h70zM764 23q-60 28 -102 94.5t-42 132.5q0 104 73 177t177 73t177 -73t73 -177q0 -66 -42 -132.5t-102 -94.5l-30 64q43 20 73.5 68t30.5 95q0 74 -53 127t-127 53t-127 -53t-53 -127q0 -47 30.5 -95t73.5 -68zM870 550
h-1q-72 0 -123.5 51.5t-51.5 123.5q0 73 51.5 124t124.5 51t123.5 -51t50.5 -124q0 -72 -51 -123.5t-123 -51.5zM753 678q21 19 55 32t62 13t62 -13t55 -32q9 22 9 47q0 53 -37 89.5t-89 36.5t-89 -36.5t-37 -89.5q0 -25 9 -47zM779 638q16 -16 42.5 -27.5t48.5 -11.5
t48.5 11.5t42.5 27.5q-16 16 -42.5 27t-48.5 11t-48.5 -11t-42.5 -27z" />
    <glyph glyph-name="u1002_u103c_u1032" 
d="M650 900v-70h-75q-14 0 -24.5 -10.5t-10.5 -24.5v-795v-295q0 -14 10.5 -24.5t24.5 -10.5h255h185q14 0 24.5 10.5t10.5 24.5v245h70v-245q0 -43 -31 -74t-74 -31h-185h-255q-43 0 -74 31t-31 74v295v795q0 43 31 74t74 31h75zM764 23q-60 28 -102 94.5t-42 132.5
q0 104 73 177t177 73t177 -73t73 -177q0 -66 -42 -132.5t-102 -94.5l-30 64q43 20 73.5 68t30.5 95q0 74 -53 127t-127 53t-127 -53t-53 -127q0 -47 30.5 -95t73.5 -68zM670 900l50 49l350 -350l-50 -49z" />
    <glyph glyph-name="u1002_u103c_u103d_u1032" 
d="M650 900v-70h-75q-14 0 -24.5 -10.5t-10.5 -24.5v-795v-295q0 -14 10.5 -24.5t24.5 -10.5h155q-14 20 -24.5 50.5t-10.5 54.5q0 73 51 124t124 51t124 -51t51 -124t-51 -124t-124 -51h-295q-43 0 -74 31t-31 74v295v795q0 43 31 74t74 31h75zM870 -351h1q52 0 88.5 37
t36.5 89q0 53 -37 89.5t-89 36.5t-89 -36.5t-37 -89.5q0 -52 37 -89t89 -37zM764 23q-60 28 -102 94.5t-42 132.5q0 104 73 177t177 73t177 -73t73 -177q0 -66 -42 -132.5t-102 -94.5l-30 64q43 20 73.5 68t30.5 95q0 74 -53 127t-127 53t-127 -53t-53 -127q0 -47 30.5 -95
t73.5 -68zM670 900l50 49l350 -350l-50 -49z" />
    <glyph glyph-name="u1002_u103c_u103e_u1032" 
d="M650 900v-70h-75q-14 0 -24.5 -10.5t-10.5 -24.5v-795v-295q0 -14 10.5 -24.5t24.5 -10.5h255h185q14 0 24.5 10.5t10.5 24.5v245h70v-245q0 -43 -31 -74t-74 -31h-185h-255q-43 0 -74 31t-31 74v295v795q0 43 31 74t74 31h75zM905 -50v-70q0 -44 -30.5 -74.5
t-74.5 -30.5h-70v70h70q14 0 24.5 10.5t10.5 24.5v70h70zM764 23q-60 28 -102 94.5t-42 132.5q0 104 73 177t177 73t177 -73t73 -177q0 -66 -42 -132.5t-102 -94.5l-30 64q43 20 73.5 68t30.5 95q0 74 -53 127t-127 53t-127 -53t-53 -127q0 -47 30.5 -95t73.5 -68zM670 900
l50 49l350 -350l-50 -49z" />
    <glyph glyph-name="u1003_u1031" horiz-adv-x="1740" 
d="M667 356l-64 -30q-20 43 -68 73.5t-95 30.5q-74 0 -127 -53t-53 -127q0 -30 14.5 -66.5t35.5 -58.5q30 29 81 49.5t92 20.5t92.5 -20.5t81.5 -49.5q-30 -52 -93.5 -88.5t-123.5 -36.5q-104 0 -177 73t-73 177t73 177t177 73q66 0 132.5 -42t94.5 -102zM570 125
q-43 27 -96 27q-31 0 -69 -16t-60 -39q43 -27 95 -27q31 0 69.5 16t60.5 39zM1235 122q-30 -51 -93 -86.5t-122 -35.5q-104 0 -177 73t-73 177q0 38 17 85.5t41 75.5q3 3 3 7t-3.5 8t-8.5 4t-9 -4l-53 45q25 29 62 29q34 0 58 -24t24 -58q0 -30 -19 -52q-17 -21 -29.5 -55
t-12.5 -61q0 -74 53 -127t127 -53t127 53t53 127q0 47 -30.5 95t-73.5 68l30 64q60 -28 102 -94.5t42 -132.5q0 -74 53 -127t127 -53t127 53t53 127t-53 127t-127 53v70q104 0 177 -73t73 -177t-73 -177t-177 -73q-59 0 -122 35.5t-93 86.5z" />
    <glyph glyph-name="u1003_u1031_u1037" horiz-adv-x="1740" 
d="M667 356l-64 -30q-20 43 -68 73.5t-95 30.5q-74 0 -127 -53t-53 -127q0 -30 14.5 -66.5t35.5 -58.5q30 29 81 49.5t92 20.5t92.5 -20.5t81.5 -49.5q-30 -52 -93.5 -88.5t-123.5 -36.5q-104 0 -177 73t-73 177t73 177t177 73q66 0 132.5 -42t94.5 -102zM570 125
q-43 27 -96 27q-31 0 -69 -16t-60 -39q43 -27 95 -27q31 0 69.5 16t60.5 39zM1235 122q-30 -51 -93 -86.5t-122 -35.5q-104 0 -177 73t-73 177q0 38 17 85.5t41 75.5q3 3 3 7t-3.5 8t-8.5 4t-9 -4l-53 45q25 29 62 29q34 0 58 -24t24 -58q0 -30 -19 -52q-17 -21 -29.5 -55
t-12.5 -61q0 -74 53 -127t127 -53t127 53t53 127q0 47 -30.5 95t-73.5 68l30 64q60 -28 102 -94.5t42 -132.5q0 -74 53 -127t127 -53t127 53t53 127t-53 127t-127 53v70q104 0 177 -73t73 -177t-73 -177t-177 -73q-59 0 -122 35.5t-93 86.5zM1529 -208h-1q-32 0 -55 23.5
t-23 55.5q0 33 22.5 56t55.5 23t56.5 -23t23.5 -56q0 -32 -23.5 -55.5t-55.5 -23.5zM1528 -159h1q12 0 20.5 9t8.5 21q0 13 -8.5 21.5t-21.5 8.5t-21.5 -8.5t-8.5 -21.5q0 -12 9 -21t21 -9z" />
    <glyph glyph-name="u1003_u103b_u1031" horiz-adv-x="2320" 
d="M1067 356l-64 -30q-20 43 -68 73.5t-95 30.5q-74 0 -127 -53t-53 -127q0 -30 14.5 -66.5t35.5 -58.5q30 29 81 49.5t92 20.5t92.5 -20.5t81.5 -49.5q-30 -52 -93.5 -88.5t-123.5 -36.5q-104 0 -177 73t-73 177t73 177t177 73q66 0 132.5 -42t94.5 -102zM970 125
q-43 27 -96 27q-31 0 -69 -16t-60 -39q43 -27 95 -27q31 0 69.5 16t60.5 39zM1635 122q-30 -51 -93 -86.5t-122 -35.5q-104 0 -177 73t-73 177q0 38 17 85.5t41 75.5q3 3 3 7t-3.5 8t-8.5 4t-9 -4l-53 45q25 29 62 29q34 0 58 -24t24 -58q0 -30 -19 -52q-17 -21 -29.5 -55
t-12.5 -61q0 -74 53 -127t127 -53t127 53t53 127q0 47 -30.5 95t-73.5 68l30 64q60 -28 102 -94.5t42 -132.5q0 -74 53 -127t127 -53t127 53t53 127t-53 127t-127 53v70q104 0 177 -73t73 -177t-73 -177t-177 -73q-59 0 -122 35.5t-93 86.5zM1926 55h70v-200q0 -22 20 -31
l70 -34l40 -20q6 -3 15 -3q14 0 24.5 10.5t10.5 24.5v698h70v-837q0 -14 -10.5 -24.5t-24.5 -10.5q-10 0 -18 5l-107 67l-143 90q-17 11 -17 29v236z" />
    <glyph glyph-name="u1003_u103b_u103d_u1031" horiz-adv-x="2320" 
d="M1067 356l-64 -30q-20 43 -68 73.5t-95 30.5q-74 0 -127 -53t-53 -127q0 -30 14.5 -66.5t35.5 -58.5q30 29 81 49.5t92 20.5t92.5 -20.5t81.5 -49.5q-30 -52 -93.5 -88.5t-123.5 -36.5q-104 0 -177 73t-73 177t73 177t177 73q66 0 132.5 -42t94.5 -102zM970 125
q-43 27 -96 27q-31 0 -69 -16t-60 -39q43 -27 95 -27q31 0 69.5 16t60.5 39zM1635 122q-30 -51 -93 -86.5t-122 -35.5q-104 0 -177 73t-73 177q0 38 17 85.5t41 75.5q3 3 3 7t-3.5 8t-8.5 4t-9 -4l-53 45q25 29 62 29q34 0 58 -24t24 -58q0 -30 -19 -52q-17 -21 -29.5 -55
t-12.5 -61q0 -74 53 -127t127 -53t127 53t53 127q0 47 -30.5 95t-73.5 68l30 64q60 -28 102 -94.5t42 -132.5q0 -74 53 -127t127 -53t127 53t53 127t-53 127t-127 53v70q104 0 177 -73t73 -177t-73 -177t-177 -73q-59 0 -122 35.5t-93 86.5zM1995 -323q-22 -32 -64.5 -54.5
t-80.5 -22.5q-73 0 -124 51t-51 124t51 124t124 51t124 -51t51 -124q0 -19 -3 -33l106 -44q12 -3 14 -3q14 0 24.5 10.5t10.5 24.5v770h70v-875q0 -14 -10.5 -24.5t-24.5 -10.5q-2 0 -14 3zM1850 -99h-1q-52 0 -88.5 -37t-36.5 -89q0 -53 37 -89.5t89 -36.5t89 36.5t37 89.5
q0 52 -37 89t-89 37z" />
    <glyph glyph-name="u1003_u103b_u103d_u103e_u1031" horiz-adv-x="2320" 
d="M1067 356l-64 -30q-20 43 -68 73.5t-95 30.5q-74 0 -127 -53t-53 -127q0 -30 14.5 -66.5t35.5 -58.5q30 29 81 49.5t92 20.5t92.5 -20.5t81.5 -49.5q-30 -52 -93.5 -88.5t-123.5 -36.5q-104 0 -177 73t-73 177t73 177t177 73q66 0 132.5 -42t94.5 -102zM970 125
q-43 27 -96 27q-31 0 -69 -16t-60 -39q43 -27 95 -27q31 0 69.5 16t60.5 39zM1635 122q-30 -51 -93 -86.5t-122 -35.5q-104 0 -177 73t-73 177q0 38 17 85.5t41 75.5q3 3 3 7t-3.5 8t-8.5 4t-9 -4l-53 45q25 29 62 29q34 0 58 -24t24 -58q0 -30 -19 -52q-17 -21 -29.5 -55
t-12.5 -61q0 -74 53 -127t127 -53t127 53t53 127q0 47 -30.5 95t-73.5 68l30 64q60 -28 102 -94.5t42 -132.5q0 -74 53 -127t127 -53t127 53t53 127t-53 127t-127 53v70q104 0 177 -73t73 -177t-73 -177t-177 -73q-59 0 -122 35.5t-93 86.5zM1680 -268l-11 8l-55 -75
q-10 -14 -28 -14q-14 0 -21 6l-51 37l29 40l12 -8q9 -7 20 -7q19 0 29 14l104 145q22 30 63.5 51t78.5 21q73 0 124 -51t51 -124q0 -19 -3 -33l106 -44q12 -3 14 -3q14 0 24.5 10.5t10.5 24.5v770h70v-875q0 -14 -10.5 -24.5t-24.5 -10.5q-2 0 -14 3l-203 84
q-22 -32 -64.5 -54.5t-80.5 -22.5q-56 0 -106.5 38.5t-63.5 93.5zM1850 -99h-1q-52 0 -88.5 -37t-36.5 -89q0 -53 37 -89.5t89 -36.5t89 36.5t37 89.5q0 52 -37 89t-89 37z" />
    <glyph glyph-name="u1003_u103b_u103e_u1031" horiz-adv-x="2320" 
d="M1067 356l-64 -30q-20 43 -68 73.5t-95 30.5q-74 0 -127 -53t-53 -127q0 -30 14.5 -66.5t35.5 -58.5q30 29 81 49.5t92 20.5t92.5 -20.5t81.5 -49.5q-30 -52 -93.5 -88.5t-123.5 -36.5q-104 0 -177 73t-73 177t73 177t177 73q66 0 132.5 -42t94.5 -102zM970 125
q-43 27 -96 27q-31 0 -69 -16t-60 -39q43 -27 95 -27q31 0 69.5 16t60.5 39zM1635 122q-30 -51 -93 -86.5t-122 -35.5q-104 0 -177 73t-73 177q0 38 17 85.5t41 75.5q3 3 3 7t-3.5 8t-8.5 4t-9 -4l-53 45q25 29 62 29q34 0 58 -24t24 -58q0 -30 -19 -52q-17 -21 -29.5 -55
t-12.5 -61q0 -74 53 -127t127 -53t127 53t53 127q0 47 -30.5 95t-73.5 68l30 64q60 -28 102 -94.5t42 -132.5q0 -74 53 -127t127 -53t127 53t53 127t-53 127t-127 53v70q104 0 177 -73t73 -177t-73 -177t-177 -73q-59 0 -122 35.5t-93 86.5zM1926 55h70v-200q0 -22 20 -31
l70 -34l40 -20q6 -3 15 -3q14 0 24.5 10.5t10.5 24.5v698h70v-837q0 -14 -10.5 -24.5t-24.5 -10.5q-10 0 -18 5l-107 67l-143 90q-17 11 -17 29v96l-97 -168q-10 -17 -30 -17q-11 0 -18 5l-91 52l35 61l31 -18q7 -5 17 -5q20 0 31 18z" />
    <glyph glyph-name="u1003_u103d_u1031" horiz-adv-x="1740" 
d="M667 356l-64 -30q-20 43 -68 73.5t-95 30.5q-74 0 -127 -53t-53 -127q0 -30 14.5 -66.5t35.5 -58.5q30 29 81 49.5t92 20.5t92.5 -20.5t81.5 -49.5q-30 -52 -93.5 -88.5t-123.5 -36.5q-104 0 -177 73t-73 177t73 177t177 73q66 0 132.5 -42t94.5 -102zM570 125
q-43 27 -96 27q-31 0 -69 -16t-60 -39q43 -27 95 -27q31 0 69.5 16t60.5 39zM1235 122q-30 -51 -93 -86.5t-122 -35.5q-104 0 -177 73t-73 177q0 38 17 85.5t41 75.5q3 3 3 7t-3.5 8t-8.5 4t-9 -4l-53 45q25 29 62 29q34 0 58 -24t24 -58q0 -30 -19 -52q-17 -21 -29.5 -55
t-12.5 -61q0 -74 53 -127t127 -53t127 53t53 127q0 47 -30.5 95t-73.5 68l30 64q60 -28 102 -94.5t42 -132.5q0 -74 53 -127t127 -53t127 53t53 127t-53 127t-127 53v70q104 0 177 -73t73 -177t-73 -177t-177 -73q-59 0 -122 35.5t-93 86.5zM1450 -50h1q72 0 123.5 -51.5
t51.5 -123.5q0 -73 -51.5 -124t-124.5 -51t-123.5 51t-50.5 124q0 72 51 123.5t123 51.5zM1450 -99h-1q-52 0 -88.5 -37t-36.5 -89q0 -53 37 -89.5t89 -36.5t89 36.5t37 89.5q0 52 -37 89t-89 37z" />
    <glyph glyph-name="u1003_u103d_u103e_u1031" horiz-adv-x="1740" 
d="M667 356l-64 -30q-20 43 -68 73.5t-95 30.5q-74 0 -127 -53t-53 -127q0 -30 14.5 -66.5t35.5 -58.5q30 29 81 49.5t92 20.5t92.5 -20.5t81.5 -49.5q-30 -52 -93.5 -88.5t-123.5 -36.5q-104 0 -177 73t-73 177t73 177t177 73q66 0 132.5 -42t94.5 -102zM570 125
q-43 27 -96 27q-31 0 -69 -16t-60 -39q43 -27 95 -27q31 0 69.5 16t60.5 39zM1235 122q-30 -51 -93 -86.5t-122 -35.5q-104 0 -177 73t-73 177q0 38 17 85.5t41 75.5q3 3 3 7t-3.5 8t-8.5 4t-9 -4l-53 45q25 29 62 29q34 0 58 -24t24 -58q0 -30 -19 -52q-17 -21 -29.5 -55
t-12.5 -61q0 -74 53 -127t127 -53t127 53t53 127q0 47 -30.5 95t-73.5 68l30 64q60 -28 102 -94.5t42 -132.5q0 -74 53 -127t127 -53t127 53t53 127t-53 127t-127 53v70q104 0 177 -73t73 -177t-73 -177t-177 -73q-59 0 -122 35.5t-93 86.5zM1308 -122q22 30 63.5 51
t78.5 21q73 0 124 -51t51 -124t-51 -124t-124 -51q-63 0 -113.5 44.5t-59.5 106.5l-63 -86q-10 -14 -28 -14q-14 0 -21 6l-51 37l29 40l12 -8q9 -7 20 -7q19 0 29 14zM1450 -99h-1q-52 0 -88.5 -37t-36.5 -89q0 -53 37 -89.5t89 -36.5t89 36.5t37 89.5q0 52 -37 89t-89 37z
" />
    <glyph glyph-name="u1003_u103e_u1031" horiz-adv-x="1740" 
d="M667 356l-64 -30q-20 43 -68 73.5t-95 30.5q-74 0 -127 -53t-53 -127q0 -30 14.5 -66.5t35.5 -58.5q30 29 81 49.5t92 20.5t92.5 -20.5t81.5 -49.5q-30 -52 -93.5 -88.5t-123.5 -36.5q-104 0 -177 73t-73 177t73 177t177 73q66 0 132.5 -42t94.5 -102zM570 125
q-43 27 -96 27q-31 0 -69 -16t-60 -39q43 -27 95 -27q31 0 69.5 16t60.5 39zM1235 122q-30 -51 -93 -86.5t-122 -35.5q-104 0 -177 73t-73 177q0 38 17 85.5t41 75.5q3 3 3 7t-3.5 8t-8.5 4t-9 -4l-53 45q25 29 62 29q34 0 58 -24t24 -58q0 -30 -19 -52q-17 -21 -29.5 -55
t-12.5 -61q0 -74 53 -127t127 -53t127 53t53 127q0 47 -30.5 95t-73.5 68l30 64q60 -28 102 -94.5t42 -132.5q0 -74 53 -127t127 -53t127 53t53 127t-53 127t-127 53v70q104 0 177 -73t73 -177t-73 -177t-177 -73q-59 0 -122 35.5t-93 86.5zM1520 -50v-245q0 -43 -31 -74
t-74 -31h-70v70h70q14 0 24.5 10.5t10.5 24.5v245h70z" />
    <glyph glyph-name="u1004_u103a_u1039_u1003" 
d="M655 122q-30 -51 -93 -86.5t-122 -35.5q-104 0 -177 73t-73 177q0 38 17 85.5t41 75.5q3 3 3 7t-3.5 8t-8.5 4t-9 -4l-53 45q25 29 62 29q34 0 58 -24t24 -58q0 -30 -19 -52q-17 -21 -29.5 -55t-12.5 -61q0 -74 53 -127t127 -53t127 53t53 127q0 47 -30.5 95t-73.5 68
l30 64q60 -28 102 -94.5t42 -132.5q0 -74 53 -127t127 -53t127 53t53 127t-53 127t-127 53v70q104 0 177 -73t73 -177t-73 -177t-177 -73q-59 0 -122 35.5t-93 86.5zM957 606q-10 -23 -35.5 -39.5t-51.5 -16.5q-40 0 -68 28t-28 68q0 21 12 44t29 35q-17 12 -29 35t-12 44
q0 40 28 68t68 28q26 0 51.5 -16.5t35.5 -39.5l-31 -14q-7 15 -23 25t-33 10q-26 0 -43.5 -17.5t-17.5 -43.5t18 -44t43 -18q26 0 51.5 -16t35.5 -39l-31 -15q-7 15 -23 25.5t-33 10.5q-25 0 -43 -18t-18 -44t17.5 -43.5t43.5 -17.5q17 0 33 10t23 25z" />
    <glyph glyph-name="u1004_u103a_u1039_u1003_u1031" horiz-adv-x="1740" 
d="M667 356l-64 -30q-20 43 -68 73.5t-95 30.5q-74 0 -127 -53t-53 -127q0 -30 14.5 -66.5t35.5 -58.5q30 29 81 49.5t92 20.5t92.5 -20.5t81.5 -49.5q-30 -52 -93.5 -88.5t-123.5 -36.5q-104 0 -177 73t-73 177t73 177t177 73q66 0 132.5 -42t94.5 -102zM570 125
q-43 27 -96 27q-31 0 -69 -16t-60 -39q43 -27 95 -27q31 0 69.5 16t60.5 39zM1235 122q-30 -51 -93 -86.5t-122 -35.5q-104 0 -177 73t-73 177q0 38 17 85.5t41 75.5q3 3 3 7t-3.5 8t-8.5 4t-9 -4l-53 45q25 29 62 29q34 0 58 -24t24 -58q0 -30 -19 -52q-17 -21 -29.5 -55
t-12.5 -61q0 -74 53 -127t127 -53t127 53t53 127q0 47 -30.5 95t-73.5 68l30 64q60 -28 102 -94.5t42 -132.5q0 -74 53 -127t127 -53t127 53t53 127t-53 127t-127 53v70q104 0 177 -73t73 -177t-73 -177t-177 -73q-59 0 -122 35.5t-93 86.5zM1537 606q-10 -23 -35.5 -39.5
t-51.5 -16.5q-40 0 -68 28t-28 68q0 21 12 44t29 35q-17 12 -29 35t-12 44q0 40 28 68t68 28q26 0 51.5 -16.5t35.5 -39.5l-31 -14q-7 15 -23 25t-33 10q-26 0 -43.5 -17.5t-17.5 -43.5t18 -44t43 -18q26 0 51.5 -16t35.5 -39l-31 -15q-7 15 -23 25.5t-33 10.5
q-25 0 -43 -18t-18 -44t17.5 -43.5t43.5 -17.5q17 0 33 10t23 25z" />
    <glyph glyph-name="kinzi_u1003_u103b_u1031" horiz-adv-x="1740" 
d="M517 356l-64 -30q-20 43 -68 73.5t-95 30.5q-74 0 -127 -53t-53 -127q0 -30 14.5 -66.5t35.5 -58.5q30 29 81 49.5t92 20.5t92.5 -20.5t81.5 -49.5q-30 -52 -93.5 -88.5t-123.5 -36.5q-104 0 -177 73t-73 177t73 177t177 73q66 0 132.5 -42t94.5 -102zM420 125
q-43 27 -96 27q-31 0 -69 -16t-60 -39q43 -27 95 -27q31 0 69.5 16t60.5 39zM1085 122q-30 -51 -93 -86.5t-122 -35.5q-104 0 -177 73t-73 177q0 38 17 85.5t41 75.5q3 3 3 7t-3.5 8t-8.5 4t-9 -4l-53 45q25 29 62 29q34 0 58 -24t24 -58q0 -30 -19 -52q-17 -21 -29.5 -55
t-12.5 -61q0 -74 53 -127t127 -53t127 53t53 127q0 47 -30.5 95t-73.5 68l30 64q60 -28 102 -94.5t42 -132.5q0 -74 53 -127t127 -53t127 53t53 127t-53 127t-127 53v70q104 0 177 -73t73 -177t-73 -177t-177 -73q-59 0 -122 35.5t-93 86.5zM1387 606q-10 -23 -35.5 -39.5
t-51.5 -16.5q-40 0 -68 28t-28 68q0 21 12 44t29 35q-17 12 -29 35t-12 44q0 40 28 68t68 28q26 0 51.5 -16.5t35.5 -39.5l-31 -14q-7 15 -23 25t-33 10q-26 0 -43.5 -17.5t-17.5 -43.5t18 -44t43 -18q26 0 51.5 -16t35.5 -39l-31 -15q-7 15 -23 25.5t-33 10.5
q-25 0 -43 -18t-18 -44t17.5 -43.5t43.5 -17.5q17 0 33 10t23 25zM1376 55h70v-200q0 -22 20 -31l70 -34l40 -20q6 -3 15 -3q14 0 24.5 10.5t10.5 24.5v698h70v-837q0 -14 -10.5 -24.5t-24.5 -10.5q-10 0 -18 5l-107 67l-143 90q-17 11 -17 29v236z" />
    </font>
</defs>
</svg>
