<?xml version="1.0" standalone="no"?>
<!DOCTYPE svg PUBLIC "-//W3C//DTD SVG 1.1//EN" "http://www.w3.org/Graphics/SVG/1.1/DTD/svg11.dtd" >
<svg xmlns="http://www.w3.org/2000/svg" xmlns:xlink="http://www.w3.org/1999/xlink" version="1.1">
<metadata>
Created by FontForge 20141024 at Sun Mar 22 11:04:40 2015
 By System Administrator
Copyright 2014 Google Inc. All Rights Reserved.
</metadata>
<defs>
<font id="MyanmarKuttar" horiz-adv-x="760" >
  <font-face 
    font-family="Myanmar Kuttar"
    font-weight="400"
    font-stretch="normal"
    units-per-em="1000"
    panose-1="2 0 5 0 0 0 0 0 0 0"
    ascent="750"
    descent="-250"
    bbox="-801 -370 2770 890"
    underline-thickness="150"
    underline-position="-142"
    unicode-range="U+0020-AA7B"
  />
<missing-glyph horiz-adv-x="550" 
d="M50 0v520h450v-520h-450zM77 18h396v484h-396v-484zM173 416q17 10 32 16q28 11 61 11q50 0 80.5 -17.5t30.5 -46.5q0 -17 -12.5 -35t-47.5 -47q-34 -29 -54 -48t-20 -36q0 -14 13 -48h-17q-19 35 -19 53q0 28 44.5 79.5t44.5 78.5q0 21 -18 33t-50 12q-21 0 -38 -7
q-14 -5 -30 -14v16zM208 121l31 21q6 4 11 4t12 -4l30 -22q5 -4 5 -7q0 -4 -5 -8l-31 -23q-7 -5 -11 -5q-6 0 -11 4l-33 26q-4 3 -4 6q0 4 6 8z" />
    <glyph glyph-name="u103E_102F" unicode="&#x103e;&#x102f;" horiz-adv-x="0" 
d="M-560 -20h150v-240q0 -110 -100 -110h-130v130h30q50 0 50 40v180zM-200 -200q0 -40 50 -40h30v-130h-130q-100 0 -100 110v240h150v-180z" />
    <glyph glyph-name="u1085_1036" unicode="&#x1085;&#x1036;" horiz-adv-x="0" 
d="M-634 715q-44 25 -44 75q0 100 225 100q47 0 81 -7l-9 -89q-28 6 -72 6q-85 0 -85 -25t85 -25v-70q-85 0 -85 -25t85 -25q44 0 72 6l9 -89q-34 -7 -81 -7q-225 0 -225 100q0 50 44 75zM-223 845q141 0 141 -130t-141 -130q-142 0 -142 130t142 130zM-197 715q0 30 -26 30
q-27 0 -27 -30t27 -30q26 0 26 30z" />
    <glyph glyph-name="u1085_102D" unicode="&#x1085;&#x102d;" horiz-adv-x="0" 
d="M-663 715q-41 25 -41 75q0 100 209 100q44 0 76 -7l-9 -89q-26 6 -67 6q-79 0 -79 -25t79 -25v-70q-79 0 -79 -25t79 -25q41 0 67 6l9 -89q-32 -7 -76 -7q-209 0 -209 100q0 50 41 75zM-261 759q-36 -18 -36 -44t36 -44h59q37 18 37 44t-37 44h-59zM-180 890
q125 -26 125 -175t-125 -175h-103q-124 26 -124 175t124 175h103z" />
    <glyph glyph-name="u1085_102E" unicode="&#x1085;&#x102e;" horiz-adv-x="0" 
d="M-663 715q-41 25 -41 75q0 100 209 100q44 0 76 -7l-9 -89q-26 6 -67 6q-79 0 -79 -25t79 -25v-70q-79 0 -79 -25t79 -25q41 0 67 6l9 -89q-32 -7 -76 -7q-209 0 -209 100q0 50 41 75zM-164 722q-3 50 -37 67h-58q-34 -17 -37 -67q31 3 66 3t66 -3zM-291 671
q8 -38 32 -50h58q24 12 32 50q-27 4 -61 4t-61 -4zM-179 890q124 -26 124 -175t-124 -175h-102q-124 26 -124 175t124 175h102z" />
    <glyph glyph-name="u102D_1036" unicode="&#x102d;&#x1036;" horiz-adv-x="0" 
d="M-540 759q-39 -18 -39 -44t39 -44h65q40 18 40 44t-40 44h-65zM-451 890q136 -26 136 -175t-136 -175h-113q-135 26 -135 175t135 175h113zM-175 845q115 0 115 -130t-115 -130q-117 0 -117 130t117 130zM-154 715q0 30 -21 30q-22 0 -22 -30t22 -30q21 0 21 30z" />
    <glyph glyph-name="u100D_1039_100D" unicode="&#x100d;&#x1039;&#x100d;" 
d="M405 -300h-215q-69 0 -109.5 13.5t-40.5 55.5v31l104 20q8 -7 22 -9h204q34 7 34 30t-34 30h-204q-14 -3 -22 -9l-104 20q25 39 106 46h244q117 -10 117 -87t-117 -87h-246q6 -12 45 -20h170q80 0 148 20v-37q0 -23 34 -30h21v-57h-41q-104 9 -116 70zM570 -58h-311
q-101 0 -160 34.5t-59 140.5v78l151 50q12 -16 33 -22h296q50 17 50 76q0 60 -50 77h-296q-21 -7 -33 -22l-151 50q36 98 154 116h356q170 -25 170 -221q0 -195 -170 -221h-359q9 -29 66 -51h248q116 0 215 51v-278q0 -40 50 -40h30v-130h-130q-100 0 -100 110v202z" />
    <glyph glyph-name="u100E_1039_100D" unicode="&#x100e;&#x1039;&#x100d;" horiz-adv-x="950" 
d="M495 363h-53q-16 -4 -24 -10l-99 28q23 43 103 53h93q112 -14 112 -94t-112 -94h-93q-80 10 -103 53l99 27q8 -5 24 -10h53q33 10 33 24t-33 23zM632 170h78q50 20 50 90t-50 90h-70v170h100q170 -30 170 -260t-170 -260h-115v-200q0 -40 50 -40h30v-130h-130
q-100 0 -100 110v260h-265q-170 30 -170 200q0 96 141 150h-141v170h270v-170q-120 -90 -120 -130q0 -30 50 -50h347v28q-39 -18 -112 -18q-123 1 -157 36l18 35q47 -31 139 -32q96 0 140 33h17v-82z" />
    <glyph glyph-name="u100F_100D" unicode="&#x100f;&#x1039;&#x100d;" horiz-adv-x="1290" 
d="M603 108q5 -58 42 -58t42 58q-27 60 -27 152q0 120 46 186q-19 24 -61 24t-61 -24q46 -66 46 -186q0 -92 -27 -152zM1042 0h-62v170h70q50 20 50 90t-50 90h-190q-50 -20 -50 -90t50 -90q-30 -170 -215 -170t-215 170q50 20 50 90t-50 90h-190q-50 -20 -50 -90t50 -90h70
v-170h-100q-170 30 -170 260t170 260h250q51 -9 87 -36q30 36 98 36t98 -36q36 27 87 36h250q170 -30 170 -260q0 -193 -120 -245q-10 -135 -61 -135q-33 0 -33 -33v-73q0 -142 -154 -142l-276 -2l-29 131q49 18 49 44t-49 44h-128q-49 -18 -49 -44t49 -44l-29 -131
q-166 26 -166 175t166 175h186q166 -26 166 -175q0 -29 -6 -53h67q57 0 57 42v53q0 133 135 133q11 0 17 20z" />
    <glyph glyph-name="u103E_1030" unicode="&#x103e;&#x1030;" horiz-adv-x="0" 
d="M-430 -20h100v-350h-100v350zM-130 -200q0 -40 50 -40h30v-130h-130q-100 0 -100 110v240h150v-180zM-630 -20h150v-240q0 -110 -100 -110h-130v130h30q50 0 50 40v180z" />
    <glyph glyph-name="u102B_103A" unicode="&#x102b;&#x103a;" horiz-adv-x="230" 
d="M40 590q0 70 -50 90h-110q-50 -20 -50 -90h-150q0 230 170 260h170q57 -10 95 -43q38 33 95 43h170q170 -30 170 -260h-150q0 70 -50 90h-110q-50 -20 -50 -90v-590h-150v590z" />
    <glyph glyph-name="u103D_1037" unicode="&#x103d;&#x1037;" horiz-adv-x="10" 
d="M-71 -30q100 0 100 -110t-100 -110t-100 110t100 110zM-44 -140q0 30 -27 30t-27 -30t27 -30t27 30zM-442 -151q-45 -18 -45 -44t45 -44h71q45 18 45 44t-45 44h-71zM-344 -20q151 -26 151 -175t-151 -175h-125q-151 26 -151 175t151 175h125z" />
    <glyph glyph-name=".notdef" horiz-adv-x="550" 
d="M50 0v520h450v-520h-450zM77 18h396v484h-396v-484zM173 416q17 10 32 16q28 11 61 11q50 0 80.5 -17.5t30.5 -46.5q0 -17 -12.5 -35t-47.5 -47q-34 -29 -54 -48t-20 -36q0 -14 13 -48h-17q-19 35 -19 53q0 28 44.5 79.5t44.5 78.5q0 21 -18 33t-50 12q-21 0 -38 -7
q-14 -5 -30 -14v16zM208 121l31 21q6 4 11 4t12 -4l30 -22q5 -4 5 -7q0 -4 -5 -8l-31 -23q-7 -5 -11 -5q-6 0 -11 4l-33 26q-4 3 -4 6q0 4 6 8z" />
    <glyph glyph-name=".null" horiz-adv-x="0" 
 />
    <glyph glyph-name="nonmarkingreturn" horiz-adv-x="508" 
 />
    <glyph glyph-name="space" unicode=" " horiz-adv-x="250" 
 />
    <glyph glyph-name="space" unicode="&#xa0;" horiz-adv-x="250" 
 />
    <glyph glyph-name="u1000" unicode="&#x1000;" horiz-adv-x="1290" 
d="M240 350q-50 -20 -50 -90t50 -90h70v-170h-100q-170 30 -170 260t170 260h340q57 -10 95 -43q38 33 95 43h340q170 -30 170 -260t-170 -260h-120v170h90q50 20 50 90t-50 90h-280q-50 -20 -50 -90q0 -230 -170 -260h-100v170h70q50 20 50 90t-50 90h-280z" />
    <glyph glyph-name="u1001" unicode="&#x1001;" 
d="M240 170h261q-66 60 -170 60h-65q-64 0 -64 -35q0 -25 38 -25zM570 260q0 70 -50 90h-296q-21 -8 -33 -26l-151 59q36 116 154 137h356q170 -30 170 -260t-170 -260h-360q-150 30 -150 145q0 125 145 125h146q133 0 213 -85q26 25 26 75z" />
    <glyph glyph-name="u1002" unicode="&#x1002;" 
d="M240 350q-50 -20 -50 -90t50 -90h70v-170h-100q-170 30 -170 260t170 260h340q170 -30 170 -260t-170 -260h-100v170h70q50 20 50 90t-50 90h-280z" />
    <glyph glyph-name="u1003" unicode="&#x1003;" horiz-adv-x="1290" 
d="M190 220q0 -30 50 -50h280q50 20 50 90t-50 90h-70v170h100q170 -30 170 -260q0 -70 50 -90h280q50 20 50 90t-50 90h-90v170h120q170 -30 170 -260t-170 -260h-340q-57 10 -95 43q-38 -33 -95 -43h-340q-170 30 -170 200q0 96 141 150h-141v170h270v-170
q-120 -90 -120 -130z" />
    <glyph glyph-name="u1004" unicode="&#x1004;" 
d="M210 0q-170 30 -170 260t170 260h356q118 -21 154 -137l-151 -59q-12 18 -33 26h-296q-50 -20 -50 -90t50 -90h296q21 8 33 26l151 -59q-36 -116 -154 -137h-356z" />
    <glyph glyph-name="u1005" unicode="&#x1005;" 
d="M288 350h-48q-50 -20 -50 -90t50 -90h48q12 39 12 90t-12 90zM341 170h179q50 20 50 90t-50 90h-179q9 -40 9 -90t-9 -90zM550 520q170 -30 170 -260t-170 -260h-340q-170 30 -170 260t170 260h340z" />
    <glyph glyph-name="u1006" unicode="&#x1006;" horiz-adv-x="1290" 
d="M240 170h261q-66 60 -170 60h-65q-64 0 -64 -35q0 -25 38 -25zM770 350q-50 -20 -50 -90t50 -90h280q50 20 50 90t-50 90h-280zM645 43q-38 -33 -95 -43h-360q-150 30 -150 145q0 125 145 125h146q133 0 213 -85q26 25 26 75q0 70 -50 90h-296q-21 -8 -33 -26l-151 59
q36 116 154 137h356q57 -10 95 -43q38 33 95 43h340q170 -30 170 -260t-170 -260h-340q-57 10 -95 43z" />
    <glyph glyph-name="u1007" unicode="&#x1007;" horiz-adv-x="761" 
d="M520 350h-261q66 -60 170 -60h65q64 0 64 35q0 25 -38 25zM689 286q26 -19 72 -25l-6 -50q-76 10 -114 48q-28 -9 -66 -9h-146q-133 0 -213 85q-26 -25 -26 -75q0 -70 50 -90h296q21 8 33 26l151 -59q-36 -116 -154 -137h-356q-170 30 -170 260t170 260h360
q150 -30 150 -145q0 -58 -31 -89z" />
    <glyph glyph-name="u1008" unicode="&#x1008;" horiz-adv-x="990" 
d="M288 350h-48q-50 -20 -50 -90t50 -90h48q12 39 12 90t-12 90zM341 170h179q50 20 50 90t-50 90h-179q9 -40 9 -90t-9 -90zM350 0h-140q-170 30 -170 260t170 260h340q170 -30 170 -260t-170 -260h-50v-110q0 -70 50 -90h200q50 20 50 90v630h150v-630q0 -230 -170 -260
h-260q-170 30 -170 260v110z" />
    <glyph glyph-name="u1009" unicode="&#x1009;" 
d="M40 137l151 59q12 -18 33 -26h296q50 20 50 90t-50 90h-296q-21 -8 -33 -26l-151 59q36 116 154 137h356q170 -30 170 -260t-170 -260h-356q-2 0 -4 1v-111q0 -70 50 -90h510q50 20 50 90v70h150v-70q0 -230 -170 -260h-570q-170 30 -170 260v247z" />
    <glyph glyph-name="u100A" unicode="&#x100a;" horiz-adv-x="1290" 
d="M40 137l151 59q12 -18 33 -26h296q50 20 50 90t-50 90h-296q-21 -8 -33 -26l-151 59q36 116 154 137h356q170 -30 170 -260q0 -70 50 -90h280q50 20 50 90t-50 90h-90v170h120q170 -30 170 -260t-170 -260h-340q-57 10 -95 43q-38 -33 -95 -43h-356q-2 0 -4 1v-111
q0 -70 50 -90h810q50 20 50 90v70h150v-70q0 -230 -170 -260h-870q-170 30 -170 260v247z" />
    <glyph glyph-name="u100B" unicode="&#x100b;" 
d="M569 0h-359q-170 30 -170 260t170 260h356q118 -21 154 -137l-151 -59q-12 18 -33 26h-296q-50 -20 -50 -90t50 -90h296q21 8 33 26l151 -59v-92q0 -74 -59 -114.5t-160 -40.5h-311v-60h362q94 7 168 64v-54q0 -40 50 -40h30v-170h-60q-139 25 -164 150h-401l-135 53v167
q149 -60 215 -60h248q57 25 66 60z" />
    <glyph glyph-name="u100C" unicode="&#x100c;" 
d="M520 -240q50 20 50 90v151q-2 -1 -4 -1h-356q-170 30 -170 260t170 260h356q118 -21 154 -137l-151 -59q-12 18 -33 26h-296q-50 -20 -50 -90t50 -90h296q21 8 33 26l151 -59v-287q0 -190 -170 -220h-340q-170 23 -170 175q0 155 170 155h189v-109h-159q-50 -16 -50 -46
t50 -45h280z" />
    <glyph glyph-name="u100D" unicode="&#x100d;" 
d="M572 -160h-313q-101 0 -160 40.5t-59 164.5v92l151 59q12 -18 33 -26h296q50 20 50 90t-50 90h-296q-21 -8 -33 -26l-151 59q36 116 154 137h356q170 -30 170 -260t-170 -260h-359q9 -35 66 -60h248q116 0 215 60v-110q0 -70 50 -90h30v-170h-60q-151 27 -168 210z" />
    <glyph glyph-name="u100E" unicode="&#x100e;" 
d="M520 170q50 20 50 90t-50 90h-70v170h100q170 -30 170 -260t-170 -260h-340q-170 30 -170 200q0 96 141 150h-141v170h270v-170q-120 -90 -120 -130q0 -30 50 -50h280z" />
    <glyph glyph-name="u100F" unicode="&#x100f;" horiz-adv-x="1290" 
d="M645 0q-185 0 -215 170q50 20 50 90t-50 90h-190q-50 -20 -50 -90t50 -90h70v-170h-100q-170 30 -170 260t170 260h250q51 -9 87 -36q30 36 98 36t98 -36q36 27 87 36h250q170 -30 170 -260t-170 -260h-100v170h70q50 20 50 90t-50 90h-190q-50 -20 -50 -90t50 -90
q-30 -170 -215 -170zM603 108q5 -58 42 -58t42 58q-27 60 -27 152q0 120 46 186q-19 24 -61 24t-61 -24q46 -66 46 -186q0 -92 -27 -152z" />
    <glyph glyph-name="u1010" unicode="&#x1010;" horiz-adv-x="1290" 
d="M240 350q-50 -20 -50 -90t50 -90h280q50 20 50 90t-50 90h-280zM720 260q0 -230 -170 -260h-340q-170 30 -170 260t170 260h340q57 -10 95 -43q38 33 95 43h340q170 -30 170 -260t-170 -260h-120v170h90q50 20 50 90t-50 90h-280q-50 -20 -50 -90z" />
    <glyph glyph-name="u1011" unicode="&#x1011;" horiz-adv-x="1290" 
d="M770 350q-50 -20 -50 -90t50 -90h280q50 20 50 90t-50 90h-280zM240 350q-50 -20 -50 -90t50 -90h280q50 20 50 90t-50 90h-280zM645 477q38 33 95 43h340q170 -30 170 -260t-170 -260h-340q-57 10 -95 43q-38 -33 -95 -43h-340q-170 30 -170 260t170 260h340
q57 -10 95 -43z" />
    <glyph glyph-name="u1012" unicode="&#x1012;" 
d="M224 350q-21 -8 -33 -26l-151 59q36 116 154 137h356q170 0 170 -120q0 -92 -159 -140q159 -48 159 -140q0 -120 -170 -120h-356q-118 21 -154 137l151 59q12 -18 33 -26h296q50 0 50 20t-120 50v40q120 30 120 50t-50 20h-296z" />
    <glyph glyph-name="u1013" unicode="&#x1013;" 
d="M569 242q1 8 1 18q0 70 -50 90h-280q-50 -20 -50 -90q0 -10 1 -18q76 28 189 28t189 -28zM211 190q11 -13 29 -20h280q18 7 29 20q-64 30 -169 30t-169 -30zM550 520q170 -30 170 -260t-170 -260h-340q-170 30 -170 260t170 260h340z" />
    <glyph glyph-name="u1014" unicode="&#x1014;" 
d="M324 170q-35 50 -103 50q-19 0 -19 -25t38 -25h84zM352 0h-162q-150 30 -150 145q0 125 141 125q140 0 200 -100h139q22 9 35 28l-308 102q-108 36 -108 73v5q30 119 161 142h176q118 -21 154 -137l-151 -59q-12 18 -33 26h-116q-25 -10 -38 -23l321 -103
q107 -35 107 -71q-27 -131 -170 -153h-48v-370h-150v370z" />
    <glyph glyph-name="u1015" unicode="&#x1015;" 
d="M520 170q50 20 50 90t-50 90h-70v170h100q170 -30 170 -260t-170 -260h-340q-170 30 -170 260t170 260h100v-170h-70q-50 -20 -50 -90t50 -90h280z" />
    <glyph glyph-name="u1016" unicode="&#x1016;" 
d="M460 260q0 -51 12 -90h48q50 20 50 90t-50 90h-48q-12 -39 -12 -90zM419 170q-9 40 -9 90v50q0 210 70 210h70q170 -30 170 -260t-170 -260h-340q-170 30 -170 260t170 260h100v-170h-70q-50 -20 -50 -90t50 -90h179z" />
    <glyph glyph-name="u1017" unicode="&#x1017;" 
d="M220 338q-30 -24 -30 -78q0 -70 50 -90h280q50 20 50 90q0 54 -30 78q-52 -35 -160 -35t-160 35zM310 361q28 -8 70 -8t70 8v159h100q170 -30 170 -260t-170 -260h-340q-170 30 -170 260t170 260h100v-159z" />
    <glyph glyph-name="u1018" unicode="&#x1018;" horiz-adv-x="1290" 
d="M720 260q0 -230 -170 -260h-356q-118 21 -154 137l151 59q12 -18 33 -26h296q50 20 50 90t-50 90h-296q-21 -8 -33 -26l-151 59q36 116 154 137h356q57 -10 95 -43q38 33 95 43h340q170 -30 170 -260t-170 -260h-120v170h90q50 20 50 90t-50 90h-280q-50 -20 -50 -90z
" />
    <glyph glyph-name="u1019" unicode="&#x1019;" 
d="M211 190q11 -13 29 -20h280q18 7 29 20q-64 30 -169 30t-169 -30zM569 242q1 8 1 18q0 70 -50 90h-70v170h100q170 -30 170 -260t-170 -260h-340q-170 30 -170 260t170 260h100v-170h-70q-50 -20 -50 -90q0 -10 1 -18q76 28 189 28t189 -28z" />
    <glyph glyph-name="u101A" unicode="&#x101a;" horiz-adv-x="1290" 
d="M520 170q50 20 50 90t-50 90h-70v170h100q170 -30 170 -260q0 -70 50 -90h280q50 20 50 90t-50 90h-90v170h120q170 -30 170 -260t-170 -260h-340q-57 10 -95 43q-38 -33 -95 -43h-340q-170 30 -170 260t170 260h100v-170h-70q-50 -20 -50 -90t50 -90h280z" />
    <glyph glyph-name="u101B" unicode="&#x101b;" 
d="M378 195q0 35 -39 35q-54 0 -80 -60h61q58 0 58 25zM240 350q-50 -20 -50 -90q0 -50 26 -75q40 85 123 85h56q115 0 115 -125q0 -115 -150 -145h-150q-170 30 -170 260t170 260h340q170 -30 170 -260v-370q0 -70 50 -90h30v-170h-60q-151 27 -170 210v420q0 70 -50 90
h-280z" />
    <glyph glyph-name="u101C" unicode="&#x101c;" horiz-adv-x="1290" 
d="M720 260q0 -70 50 -90h280q50 20 50 90t-50 90h-190v170h220q170 -30 170 -260t-170 -260h-340q-170 30 -170 260q0 70 -50 90h-280q-50 -20 -50 -90t50 -90h190v-170h-220q-170 30 -170 260t170 260h340q170 -30 170 -260z" />
    <glyph glyph-name="u101D" unicode="&#x101d;" 
d="M240 350q-50 -20 -50 -90t50 -90h280q50 20 50 90t-50 90h-280zM550 520q170 -30 170 -260t-170 -260h-340q-170 30 -170 260t170 260h340z" />
    <glyph glyph-name="u101E" unicode="&#x101e;" horiz-adv-x="1290" 
d="M770 170h280q50 20 50 90t-50 90h-90v170h120q170 -30 170 -260t-170 -260h-340q-57 10 -95 43q-38 -33 -95 -43h-356q-118 21 -154 137l151 59q12 -18 33 -26h296q50 20 50 90t-50 90h-296q-21 -8 -33 -26l-151 59q36 116 154 137h356q170 -30 170 -260q0 -70 50 -90z
" />
    <glyph glyph-name="u101F" unicode="&#x101f;" horiz-adv-x="1290" 
d="M720 260q0 -230 -170 -260h-340q-170 30 -170 260t170 260h100v-170h-70q-50 -20 -50 -90t50 -90h280q50 20 50 90t-50 90h-70v170h100q57 -10 95 -43q38 33 95 43h340q170 -30 170 -260t-170 -260h-120v170h90q50 20 50 90t-50 90h-280q-50 -20 -50 -90z" />
    <glyph glyph-name="u1020" unicode="&#x1020;" 
d="M520 -200q50 20 50 60h150q0 -200 -170 -230h-340q-167 30 -170 253v117q149 -60 215 -60h248q57 25 66 60h-359q-170 30 -170 260t170 260h356q118 -21 154 -137l-151 -59q-12 18 -33 26h-296q-50 -20 -50 -90t50 -90h296q21 8 33 26l151 -59v-92q0 -74 -59 -114.5
t-160 -40.5h-311q0 -70 50 -90h280z" />
    <glyph glyph-name="u1021" unicode="&#x1021;" horiz-adv-x="1290" 
d="M970 170h61q-26 60 -80 60q-39 0 -39 -35q0 -25 58 -25zM1250 260q0 -230 -170 -260h-150q-150 30 -150 145q0 125 115 125h56q83 0 123 -85q26 25 26 75q0 70 -50 90h-310q-27 -7 -50 -22q-40 -41 -129 -68q159 -48 159 -140q0 -120 -170 -120h-356q-118 21 -154 137
l151 59q12 -18 33 -26h296q50 0 50 20t-120 50v40q120 30 120 50t-50 20h-296q-21 -8 -33 -26l-151 59q36 116 154 137h356q77 0 120 -25q30 18 70 25h340q170 -30 170 -260z" />
    <glyph glyph-name="u1022" unicode="&#x1022;" horiz-adv-x="1290" 
d="M310 170v-170h-270v170h141q-141 54 -141 150q0 170 170 200h340q57 -10 95 -43q38 33 95 43h340q170 -30 170 -260t-170 -260h-120v170h90q50 20 50 90t-50 90h-280q-50 -20 -50 -90q0 -230 -170 -260h-100v170h70q50 20 50 90t-50 90h-280q-50 -20 -50 -50
q0 -40 120 -130z" />
    <glyph glyph-name="u1023" unicode="&#x1023;" horiz-adv-x="1290" 
d="M240 350q-50 -20 -50 -90t50 -90h70v-170h-100q-170 30 -170 260t170 260h340q57 -10 95 -43q38 33 95 43h340q170 -30 170 -260t-170 -260h-120v170h90q50 20 50 90t-50 90h-280q-50 -20 -50 -90q0 -230 -170 -260h-100v170h70q50 20 50 90t-50 90h-280zM1146 -241h74
v-129h-360v129h90q50 16 50 46t-50 46h-180q-50 -16 -50 -46q0 -152 -170 -175h-80v129h50q50 16 50 46t-50 46h-190q-50 -16 -50 -46t50 -46h50v-129h-80q-170 23 -170 175t170 175h250q57 -8 95 -33q38 25 95 33h240q170 -23 170 -175q0 -25 -4 -46z" />
    <glyph glyph-name="u1024" unicode="&#x1024;" horiz-adv-x="1520" 
d="M210 -370q-170 23 -170 175q0 155 170 155h790v-109h-760q-50 -16 -50 -46t50 -45h810q50 20 50 90v410q0 70 -50 90h-280q-50 -20 -50 -90q0 -230 -170 -260h-100v170h70q50 20 50 90t-50 90h-280q-50 -20 -50 -90t50 -90h70v-170h-100q-170 30 -170 260t170 260h340
q57 -10 95 -43q38 33 95 43h340q170 -30 170 -260v-410q0 -190 -170 -220h-870zM1120 670q360 0 360 -410v-630h-150v630q0 280 -210 280h-130q-170 26 -170 175t170 175h140q123 -19 157 -103l-146 -51q-12 13 -41 23h-80q-50 -18 -50 -44t50 -45h100z" />
    <glyph glyph-name="u1025" unicode="&#x1025;" 
d="M520 -240q50 15 50 45t-50 46h-159v109h189q170 0 170 -155q0 -152 -170 -175h-340q-170 30 -170 220v287l151 59q12 -18 33 -26h296q50 20 50 90t-50 90h-296q-21 -8 -33 -26l-151 59q36 116 154 137h356q170 -30 170 -260t-170 -260h-356q-2 0 -4 1v-151q0 -70 50 -90
h280z" />
    <glyph glyph-name="u1026" unicode="&#x1026;" 
d="M520 -240q50 15 50 45t-50 46h-159v109h189q170 0 170 -155q0 -152 -170 -175h-340q-170 30 -170 220v287l151 59q12 -18 33 -26h296q50 20 50 90t-50 90h-296q-21 -8 -33 -26l-151 59q36 116 154 137h356q170 -30 170 -260t-170 -260h-356q-2 0 -4 1v-151q0 -70 50 -90
h280zM470 722q-3 50 -50 67h-80q-47 -17 -50 -67q42 3 90 3t90 -3zM296 671q11 -38 44 -50h80q33 12 44 50q-37 4 -84 4t-84 -4zM450 890q170 -26 170 -175t-170 -175h-140q-170 26 -170 175t170 175h140z" />
    <glyph glyph-name="u1027" unicode="&#x1027;" 
d="M520 359h-261q66 -38 170 -38h65q64 0 64 15q0 23 -38 23zM558 184q0 15 -64 15h-65q-104 0 -170 -38h261q38 0 38 23zM190 260q0 -61 26 -85q80 61 213 61h146q145 0 145 -99q0 -109 -150 -137h-360q-170 28 -170 260t170 260h360q150 -28 150 -137q0 -99 -145 -99h-146
q-133 0 -213 61q-26 -24 -26 -85z" />
    <glyph glyph-name="u1028" unicode="&#x1028;" 
d="M427 152v-23q0 -29 77 -29q66 0 66 60v100q0 70 -50 90h-280q-50 -20 -50 -90v-370q0 -70 50 -90h280q50 20 50 90v70h150v-70q0 -230 -170 -260h-340q-170 30 -170 260v370q0 230 170 260h340q170 -30 170 -260v-100q0 -160 -216 -160q-177 0 -177 129v23l40 19
q63 28 63 59q0 40 -49 40q-51 0 -51 -48h-50q0 98 101 98q99 0 99 -90q0 -45 -53 -78z" />
    <glyph glyph-name="u1029" unicode="&#x1029;" horiz-adv-x="1520" 
d="M1090 0h-120q-57 10 -95 43q-38 -33 -95 -43h-356q-118 21 -154 137l151 59q12 -18 33 -26h296q50 20 50 90t-50 90h-296q-21 -8 -33 -26l-151 59q36 116 154 137h356q170 -30 170 -260q0 -70 50 -90h280q50 20 50 90t-50 90h-90v170h120q170 -30 170 -260t-170 -260h-70
v-110q0 -230 -170 -260h-860q-170 30 -170 260v740q0 230 170 260h830v-170h-800q-50 -20 -50 -90v-740q0 -70 50 -90h800q50 20 50 90v110z" />
    <glyph glyph-name="u102A" unicode="&#x102a;" horiz-adv-x="2810" 
d="M558 195q0 35 -64 35h-65q-104 0 -170 -60h261q38 0 38 25zM216 185q80 85 213 85h146q145 0 145 -125q0 -115 -150 -145h-360q-170 30 -170 260t170 260h356q118 -21 154 -137l-151 -59q-12 18 -33 26h-296q-50 -20 -50 -90q0 -50 26 -75zM2240 260q0 -230 -170 -260
h-70v-110q0 -230 -170 -260h-860q-170 30 -170 260v740q0 230 170 260h1130v-170h-1100q-50 -20 -50 -90v-740q0 -70 50 -90h800q50 20 50 90v110h-120q-57 10 -95 43q-38 -33 -95 -43h-356q-118 21 -154 137l151 59q12 -18 33 -26h296q50 20 50 90t-50 90h-296
q-21 -8 -33 -26l-151 59q36 116 154 137h356q170 -30 170 -260q0 -70 50 -90h280q50 20 50 90t-50 90h-90v170h120q57 -10 95 -43q38 33 95 43h340q170 -30 170 -260t-170 -260h-120v170h90q50 20 50 90t-50 90h-280q-50 -20 -50 -90zM2390 759q-50 -18 -50 -44t50 -44h80
v-131h-110q-170 26 -170 175t170 175h140q170 -26 170 -175h-150q0 26 -50 44h-80z" />
    <glyph glyph-name="u102B" unicode="&#x102b;" horiz-adv-x="230" 
d="M-120 680q-50 -20 -50 -90h-150q0 230 170 260h170q170 -30 170 -260v-590h-150v590q0 70 -50 90h-110z" />
    <glyph glyph-name="u102C" unicode="&#x102c;" horiz-adv-x="530" 
d="M10 350q-50 -20 -50 -90h-150q0 230 170 260h340q170 -30 170 -260t-170 -260h-120v170h90q50 20 50 90t-50 90h-280z" />
    <glyph glyph-name="u102D" unicode="&#x102d;" horiz-adv-x="0" 
d="M-420 759q-50 -18 -50 -44t50 -44h80q50 18 50 44t-50 44h-80zM-310 890q170 -26 170 -175t-170 -175h-140q-170 26 -170 175t170 175h140z" />
    <glyph glyph-name="u102E" unicode="&#x102e;" horiz-adv-x="0" 
d="M-290 722q-3 50 -50 67h-80q-47 -17 -50 -67q42 3 90 3t90 -3zM-464 671q11 -38 44 -50h80q33 12 44 50q-37 4 -84 4t-84 -4zM-310 890q170 -26 170 -175t-170 -175h-140q-170 26 -170 175t170 175h140z" />
    <glyph glyph-name="u102F" unicode="&#x102f;" horiz-adv-x="0" 
d="M-305 -200q0 -40 50 -40h30v-130h-130q-100 0 -100 110v240h150v-180z" />
    <glyph glyph-name="u1030" unicode="&#x1030;" horiz-adv-x="0" 
d="M-550 -20h150v-350h-150v350zM-360 -20h150v-180q0 -40 50 -40h30v-130h-130q-100 0 -100 110v240z" />
    <glyph glyph-name="u1031" unicode="&#x1031;" 
d="M558 195q0 35 -64 35h-65q-104 0 -170 -60h261q38 0 38 25zM216 185q80 85 213 85h146q145 0 145 -125q0 -115 -150 -145h-360q-170 30 -170 260t170 260h356q118 -21 154 -137l-151 -59q-12 18 -33 26h-296q-50 -20 -50 -90q0 -50 26 -75z" />
    <glyph glyph-name="u1032" unicode="&#x1032;" horiz-adv-x="0" 
d="M-200 633l-106 -106l-255 255l106 106z" />
    <glyph glyph-name="u1033" unicode="&#x1033;" horiz-adv-x="0" 
d="M-380 800q-85 0 -85 -85t85 -85t85 85t-85 85zM-380 780q65 0 65 -65t-65 -65t-65 65t65 65zM-365 715q0 15 -15 15t-15 -15t15 -15t15 15zM-310 890q170 -26 170 -175t-170 -175h-140q-170 26 -170 175t170 175h140z" />
    <glyph glyph-name="u1034" unicode="&#x1034;" horiz-adv-x="0" 
d="M-306 888l106 -106l-255 -255l-106 106z" />
    <glyph glyph-name="u1035" unicode="&#x1035;" horiz-adv-x="0" 
d="M-439 662q12 -14 33 -21h80q36 6 36 20t-41 14q-53 0 -108 -13zM-456 714q68 11 155 11q84 0 115.5 -26.5t31.5 -49.5q-21 -94 -142 -109h-140q-170 26 -170 175t170 175h140q101 -15 142 -74l-146 -69q-11 6 -26 12h-80q-50 -18 -50 -44v-1z" />
    <glyph glyph-name="u1036" unicode="&#x1036;" horiz-adv-x="0" 
d="M-380 800q160 0 160 -130t-160 -130t-160 130t160 130zM-350 670q0 30 -30 30t-30 -30t30 -30t30 30z" />
    <glyph glyph-name="u1037" unicode="&#x1037;" horiz-adv-x="0" 
d="M-380 -20q160 0 160 -140t-160 -140t-160 140t160 140zM-350 -160q0 30 -30 30t-30 -30t30 -30t30 30z" />
    <glyph glyph-name="u1038" unicode="&#x1038;" horiz-adv-x="400" 
d="M200 520q160 0 160 -110t-160 -110t-160 110t160 110zM230 410q0 30 -30 30t-30 -30t30 -30t30 30zM200 220q160 0 160 -110t-160 -110t-160 110t160 110zM230 110q0 30 -30 30t-30 -30t30 -30t30 30z" />
    <glyph glyph-name="u1039" unicode="&#x1039;" horiz-adv-x="0" 
d="M-325 -160h-90v50h90v90h50v-90h90v-50h-90v-90h-50v90z" />
    <glyph glyph-name="u103A" unicode="&#x103a;" horiz-adv-x="0" 
d="M-420 759q-50 -18 -50 -44t50 -44h80v-131h-110q-170 26 -170 175t170 175h140q170 -26 170 -175h-150q0 26 -50 44h-80z" />
    <glyph glyph-name="u103B" unicode="&#x103b;" horiz-adv-x="230" 
d="M-100 -110q0 -70 50 -90h40q50 20 50 90v630h150v-630q0 -230 -170 -260h-100q-170 30 -170 260v90h150v-90z" />
    <glyph glyph-name="u103C" unicode="&#x103c;" horiz-adv-x="230" 
d="M780 890q170 -30 170 -260v-90h-150v90q0 70 -50 90h-510q-50 -20 -50 -90v-740q0 -70 50 -90h510q50 20 50 90v210h150v-210q0 -230 -170 -260h-570q-170 30 -170 260v740q0 230 170 260h570z" />
    <glyph glyph-name="u103D" unicode="&#x103d;" horiz-adv-x="0" 
d="M-420 -151q-50 -18 -50 -44t50 -44h80q50 18 50 44t-50 44h-80zM-310 -20q170 -26 170 -175t-170 -175h-140q-170 26 -170 175t170 175h140z" />
    <glyph glyph-name="u103E" unicode="&#x103e;" horiz-adv-x="0" 
d="M-455 -20h150v-240q0 -110 -100 -110h-130v130h30q50 0 50 40v180z" />
    <glyph glyph-name="u103F" unicode="&#x103f;" horiz-adv-x="1820" 
d="M1175 43q-38 -33 -95 -43h-340q-57 10 -95 43q-38 -33 -95 -43h-356q-118 21 -154 137l151 59q12 -18 33 -26h296q50 20 50 90t-50 90h-296q-21 -8 -33 -26l-151 59q36 116 154 137h356q170 -30 170 -260q0 -70 50 -90h280q50 20 50 90t-50 90h-90v170h120
q170 -30 170 -260q0 -70 50 -90h280q50 20 50 90t-50 90h-90v170h120q170 -30 170 -260t-170 -260h-340q-57 10 -95 43z" />
    <glyph glyph-name="u1040" unicode="&#x1040;" 
d="M240 350q-50 -20 -50 -90t50 -90h280q50 20 50 90t-50 90h-280zM550 520q170 -30 170 -260t-170 -260h-340q-170 30 -170 260t170 260h340z" />
    <glyph glyph-name="u1041" unicode="&#x1041;" 
d="M194 0q-118 21 -154 137l151 59q12 -18 33 -26h296q50 20 50 90t-50 90h-296q-21 -8 -33 -26l-151 59q36 116 154 137h356q170 -30 170 -260t-170 -260h-356z" />
    <glyph glyph-name="u1042" unicode="&#x1042;" 
d="M520 -130q50 20 50 90v560h150v-560q0 -230 -170 -260h-340q-170 30 -170 260h150q0 -70 50 -90h280z" />
    <glyph glyph-name="u1043" unicode="&#x1043;" 
d="M215 0h-21q-118 21 -154 137l151 59q12 -18 33 -26h296q50 20 50 90t-50 90h-296q-21 -8 -33 -26l-151 59q36 116 154 137h356q170 -30 170 -260t-170 -260h-153l164 -164l-106 -106l-255 255z" />
    <glyph glyph-name="u1044" unicode="&#x1044;" 
d="M560 -15l-255 -255l-106 106l164 164h-153q-170 30 -170 260t170 260h356q118 -21 154 -137l-151 -59q-12 18 -33 26h-296q-50 -20 -50 -90t50 -90h296q21 8 33 26l151 -59q-36 -116 -154 -137h-21z" />
    <glyph glyph-name="u1045" unicode="&#x1045;" 
d="M378 195q0 35 -39 35q-54 0 -80 -60h61q58 0 58 25zM570 260q0 70 -50 90h-280q-50 -20 -50 -90q0 -50 26 -75q40 85 123 85h56q115 0 115 -125q0 -115 -150 -145h-150q-170 30 -170 260t170 260h340q170 -30 170 -260v-300q0 -230 -170 -260h-340q-170 30 -170 260h150
q0 -70 50 -90h280q50 20 50 90v300z" />
    <glyph glyph-name="u1046" unicode="&#x1046;" 
d="M570 279q-192 43 -192 130q0 97 164 97q178 0 178 -115h-150q0 25 -31 25t-31 -37q0 -61 212 -75v-44q0 -230 -170 -260h-340q-170 30 -170 260v300q0 230 170 260h340q170 -30 170 -260h-150q0 70 -50 90h-280q-50 -20 -50 -90v-300q0 -70 50 -90h280q50 20 50 90v19z
" />
    <glyph glyph-name="u1047" unicode="&#x1047;" 
d="M570 260q0 70 -50 90h-280q-50 -20 -50 -60t50 -60l-30 -170q-170 30 -170 230t170 230h340q170 -30 170 -260q0 -216 -177 -291l-210 -89q9 -45 47 -60h20q50 0 50 60h150q0 -200 -170 -230h-80q-170 30 -170 260q0 69 76 101l229 97q85 36 85 152z" />
    <glyph glyph-name="u1048" unicode="&#x1048;" 
d="M300 260q0 51 -12 90h-48q-50 -20 -50 -90t50 -90h48q12 39 12 90zM341 350q9 -40 9 -90v-50q0 -210 -70 -210h-70q-170 30 -170 260t170 260h340q170 -30 170 -260t-170 -260h-100v170h70q50 20 50 90t-50 90h-179z" />
    <glyph glyph-name="u1049" unicode="&#x1049;" 
d="M570 260q0 70 -50 90h-280q-50 -20 -50 -90v-300q0 -70 50 -90h280q50 20 50 90h150q0 -230 -170 -260h-340q-170 30 -170 260v300q0 230 170 260h340q170 -30 170 -260v-44q-212 -14 -212 -75q0 -37 31 -37t31 25h150q0 -115 -178 -115q-164 0 -164 97q0 87 192 130v19z
" />
    <glyph glyph-name="u104A" unicode="&#x104a;" horiz-adv-x="230" 
d="M190 520v-520h-150v520h150z" />
    <glyph glyph-name="u104B" unicode="&#x104b;" horiz-adv-x="430" 
d="M390 520v-520h-150v520h150zM190 520v-520h-150v520h150z" />
    <glyph glyph-name="u104C" unicode="&#x104c;" 
d="M570 -160h-311q-101 0 -160 40.5t-59 164.5v92l151 59q12 -18 33 -26h296q50 20 50 90t-50 90h-296q-21 -8 -33 -26l-151 59q36 116 154 137h356q170 -30 170 -260t-170 -260h-359q9 -35 66 -60h248q116 0 215 60v-150q0 -190 -170 -220h-340q-170 23 -170 175h150
q0 -30 50 -45h280q46 19 50 80zM340 759q-50 -18 -50 -44t50 -44h80v-131h-110q-170 26 -170 175t170 175h140q170 -26 170 -175h-150q0 26 -50 44h-80z" />
    <glyph glyph-name="u104D" unicode="&#x104d;" horiz-adv-x="990" 
d="M378 195q0 35 -39 35q-54 0 -80 -60h61q58 0 58 25zM240 350q-50 -20 -50 -90q0 -50 26 -75q40 85 123 85h56q115 0 115 -125q0 -115 -150 -145h-150q-170 30 -170 260t170 260h340q170 -30 170 -260v-460h-150v460q0 70 -50 90h-280zM800 260q0 280 -170 280h-90
q-170 26 -170 175t170 175h140q123 -19 157 -103l-146 -51q-12 13 -41 23h-80q-50 -18 -50 -44t50 -45h60q320 0 320 -410v-410q0 -190 -170 -220h-570q-170 23 -170 175q0 155 170 155h290v-109h-260q-50 -16 -50 -46t50 -45h510q50 20 50 90v410z" />
    <glyph glyph-name="u104E" unicode="&#x104e;" 
d="M720 -370h-150v371q-2 -1 -4 -1h-356q-170 30 -170 260t170 260h356q118 -21 154 -137l-151 -59q-12 18 -33 26h-296q-50 -20 -50 -90t50 -90h296q21 8 33 26l151 -59v-507z" />
    <glyph glyph-name="u104F" unicode="&#x104f;" horiz-adv-x="1220" 
d="M520 359h-261q66 -38 170 -38h65q64 0 64 15q0 23 -38 23zM558 184q0 15 -64 15h-65q-104 0 -170 -38h261q38 0 38 23zM627 504q24 11 53 16h100q170 -30 170 -260v-260h-150v260q0 70 -50 90h-35q-22 -66 -140 -66h-146q-133 0 -213 61q-26 -24 -26 -85t26 -85
q80 61 213 61h146q145 0 145 -99q0 -109 -150 -137h-360q-170 28 -170 260t170 260h360q32 -6 57 -16zM1030 2v258q0 280 -170 280h-90q-170 26 -170 175t170 175h140q123 -19 157 -103l-146 -51q-12 13 -41 23h-80q-50 -18 -50 -44t50 -45h60q320 0 320 -410v-258h-150z
" />
    <glyph glyph-name="u1050" unicode="&#x1050;" 
d="M380 310q50 0 50 -50t-50 -50t-50 50t50 50zM240 350q-50 -20 -50 -90t50 -90h70v-170h-100q-170 30 -170 260t170 260h340q170 -30 170 -260t-170 -260h-100v170h70q50 20 50 90t-50 90h-280z" />
    <glyph glyph-name="u1051" unicode="&#x1051;" 
d="M330 260q0 50 50 50t50 -50t-50 -50t-50 50zM520 170q50 20 50 90t-50 90h-70v170h100q170 -30 170 -260t-170 -260h-340q-170 30 -170 260t170 260h100v-170h-70q-50 -20 -50 -90t50 -90h280z" />
    <glyph glyph-name="u1052" unicode="&#x1052;" 
d="M520 170q50 20 50 50q0 40 -120 130v170h270v-170h-141q141 -54 141 -150q0 -170 -170 -200h-340q-170 30 -170 260t170 260h100v-170h-70q-50 -20 -50 -90t50 -90h280z" />
    <glyph glyph-name="u1053" unicode="&#x1053;" 
d="M210 0q-170 30 -170 200q0 96 141 150h-141v170h270v-170q-120 -90 -120 -130q0 -30 50 -50h280q50 20 50 50q0 40 -120 130v170h270v-170h-141q141 -54 141 -150q0 -170 -170 -200h-340z" />
    <glyph glyph-name="u1054" unicode="&#x1054;" 
d="M520 350h-261q66 -60 170 -60h65q64 0 64 35q0 25 -38 25zM190 260q0 -70 50 -90h296q21 8 33 26l151 -59q-36 -116 -154 -137h-356q-170 30 -170 260t170 260h360q150 -30 150 -145q0 -125 -145 -125h-146q-133 0 -213 85q-26 -25 -26 -75z" />
    <glyph glyph-name="u1055" unicode="&#x1055;" 
d="M520 350h-261q66 -60 170 -60h65q64 0 64 35q0 25 -38 25zM720 200q0 -200 -157 -200q-120 0 -183 129q-63 -129 -183 -129q-157 0 -157 260q0 230 170 260h360q150 -30 150 -145q0 -125 -145 -125h-146q-133 0 -213 85q-26 -25 -26 -75q0 -140 78 -140q47 0 86 90h52
q39 -90 86 -90q66 0 66 80h162z" />
    <glyph glyph-name="u1056" unicode="&#x1056;" horiz-adv-x="530" 
d="M290 170q50 20 50 50q0 40 -120 130v170h270v-170h-141q141 -54 141 -150q0 -170 -170 -200h-340q-170 30 -170 260h150q0 -70 50 -90h280z" />
    <glyph glyph-name="u1057" unicode="&#x1057;" horiz-adv-x="530" 
d="M220 350v170h270v-170h-141q141 -54 141 -150q0 -200 -157 -200q-120 0 -183 129q-63 -129 -183 -129q-157 0 -157 260h150q0 -140 78 -140q47 0 86 90h52q39 -90 86 -90q66 0 66 80q0 60 -108 150z" />
    <glyph glyph-name="u1058" unicode="&#x1058;" horiz-adv-x="0" 
d="M-331 -155q41 0 41 14t-36 20h-80q-21 -7 -33 -21q55 -13 108 -13zM-456 -195q0 -26 50 -44h80q15 6 26 12l146 -69q-41 -59 -142 -74h-140q-170 26 -170 175t170 175h140q121 -15 142 -109q0 -23 -31.5 -49.5t-115.5 -26.5q-87 0 -155 11v-1z" />
    <glyph glyph-name="u1059" unicode="&#x1059;" horiz-adv-x="0" 
d="M-331 -155q41 0 41 14t-36 20h-80q-21 -7 -33 -21q55 -13 108 -13zM-456 -194q-5 1 -8 1q-12 0 -12 -10q0 -90 22 -90q21 0 57 58h34q36 -58 57 -58q24 0 24 51h128q0 -128 -104 -128q-80 0 -122 83q-42 -83 -122 -83q-104 0 -104 172q0 152 170 178h140
q121 -15 142 -109q0 -23 -31.5 -49.5t-115.5 -26.5q-87 0 -155 11z" />
    <glyph glyph-name="u105A" unicode="&#x105a;" 
d="M425 -125q0 35 -45 35t-45 -35h-120q0 105 165 105t165 -105q0 -63 -70 -95t-70 -51q0 -29 25 -29h33v-70h-33q-145 0 -145 99q0 50 70 79t70 67zM210 0q-170 30 -170 260t170 260h356q118 -21 154 -137l-151 -59q-12 18 -33 26h-296q-50 -20 -50 -90t50 -90h296
q21 8 33 26l151 -59q-36 -116 -154 -137h-356z" />
    <glyph glyph-name="u105B" unicode="&#x105b;" horiz-adv-x="990" 
d="M520 350h-261q66 -60 170 -60h65q64 0 64 35q0 25 -38 25zM350 0h-140q-170 30 -170 260t170 260h360q150 -30 150 -145q0 -58 -31 -89q23 -17 111 -24v258h150v-630q0 -230 -170 -260h-260q-170 30 -170 260v110zM800 212q-123 11 -159 47q-28 -9 -66 -9h-146
q-133 0 -213 85q-26 -25 -26 -75q0 -70 50 -90h296q21 8 33 26l151 -59q-36 -116 -154 -137h-66v-110q0 -70 50 -90h200q50 20 50 90v322z" />
    <glyph glyph-name="u105C" unicode="&#x105c;" 
d="M380 335q100 0 100 -75t-100 -75t-100 75t100 75zM405 260q0 19 -25 19t-25 -19t25 -19t25 19zM240 350q-50 -20 -50 -90t50 -90h280q50 20 50 90t-50 90h-280zM550 520q170 -30 170 -260t-170 -260h-340q-170 30 -170 260t170 260h340z" />
    <glyph glyph-name="u105D" unicode="&#x105d;" 
d="M211 190q11 -13 29 -20h280q18 7 29 20q-64 30 -169 30t-169 -30zM547 0h-337q-170 30 -170 260t170 260h100v-170h-70q-50 -20 -50 -90q0 -10 1 -18q76 28 189 28t189 -28q1 8 1 18q0 70 -50 90h-70v170h100q170 -30 170 -260q0 -134 -58 -200q58 -43 58 -148v-62
q0 -190 -170 -220h-340q-170 23 -170 175q0 155 170 155h239v-109h-209q-50 -16 -50 -46t50 -45h280q50 20 50 90v62q0 56 -23 88z" />
    <glyph glyph-name="u105E" unicode="&#x105e;" horiz-adv-x="0" 
d="M-190 -149h-330q-50 -16 -50 -46t50 -45h280q50 20 50 90v1zM-195 -40q-6 23 -18 40l115 60q44 -32 54 -100h94v-109h-90v-1q0 -190 -170 -220h-340q-170 23 -170 175q0 155 170 155h355z" />
    <glyph glyph-name="u105F" unicode="&#x105f;" horiz-adv-x="0" 
d="M-350 -131q-85 0 -85 -62t55 -62t55 67h150q0 -167 -205 -167t-205 162q0 144 223 158v35l152 -1v-131z" />
    <glyph glyph-name="u1060" unicode="&#x1060;" horiz-adv-x="0" 
d="M-332 -200h126v-100h-327l-21 41l175 213l119 -61z" />
    <glyph glyph-name="u1061" unicode="&#x1061;" 
d="M378 195q0 35 -39 35q-54 0 -80 -60h61q58 0 58 25zM345 0h-135q-170 30 -170 260t170 260h340q170 -30 170 -260v-370q0 -70 50 -90h30v-170h-60q-151 27 -170 210v420q0 70 -50 90h-280q-50 -20 -50 -90q0 -50 26 -75q40 85 123 85h56q115 0 115 -125q0 -36 -15 -64
v-341q0 -110 -100 -110h-130v130h30q50 0 50 40v200z" />
    <glyph glyph-name="u1062" unicode="&#x1062;" horiz-adv-x="230" 
d="M190 0h-150v390h-80v130h230v-520z" />
    <glyph glyph-name="u1063" unicode="&#x1063;" 
d="M40 137l151 59q12 -18 33 -26h296q50 20 50 90t-50 90h-296q-21 -8 -33 -26l-151 59q36 116 154 137h356q170 -30 170 -260t-170 -260h-356q-2 0 -4 1v-371h-150v507z" />
    <glyph glyph-name="u1064" unicode="&#x1064;" horiz-adv-x="230" 
d="M190 130h80v-130h-230v390h-80v130h230v-390z" />
    <glyph glyph-name="u1065" unicode="&#x1065;" 
d="M194 0q-118 21 -154 137l151 59q12 -18 33 -26h296q50 20 50 90t-50 90h-296q-21 -8 -33 -26l-151 59q36 116 154 137h356q170 -30 170 -260t-170 -260h-356z" />
    <glyph glyph-name="u1066" unicode="&#x1066;" 
d="M445 0h-235q-170 30 -170 260t170 260h100v-170h-70q-50 -20 -50 -90t50 -90h280q50 20 50 90t-50 90h-70v170h100q170 -30 170 -260q0 -197 -125 -247v-273q0 -110 -100 -110h-130v130h30q50 0 50 40v200z" />
    <glyph glyph-name="u1067" unicode="&#x1067;" horiz-adv-x="270" 
d="M105 100q0 25 -25 25t-25 -25t25 -25t25 25zM80 200v320h150v-420q0 -100 -150 -100q-100 0 -100 100t100 100z" />
    <glyph glyph-name="u1068" unicode="&#x1068;" horiz-adv-x="230" 
d="M190 0h-230v130h80v390h150v-520zM120 740q150 0 150 -100t-150 -100t-150 100t150 100zM145 640q0 25 -25 25t-25 -25t25 -25t25 25z" />
    <glyph glyph-name="u1069" unicode="&#x1069;" horiz-adv-x="392" 
d="M190 173q0 -43 67 -43h95v-130h-95q-217 0 -217 143q0 79 81 122.5t81 80.5q0 44 -67 44h-95v130h95q217 0 217 -144q0 -79 -81 -122.5t-81 -80.5z" />
    <glyph glyph-name="u106A" unicode="&#x106a;" horiz-adv-x="230" 
d="M-15 130q55 0 55 73v317h150v-317q0 -203 -205 -203t-205 203h150q0 -73 55 -73z" />
    <glyph glyph-name="u106B" unicode="&#x106b;" horiz-adv-x="230" 
d="M-70 317h-150q0 203 205 203t205 -203v-317h-150v317q0 73 -55 73t-55 -73z" />
    <glyph glyph-name="u106C" unicode="&#x106c;" horiz-adv-x="230" 
d="M300 223h150q0 -223 -205 -223t-205 223v297h150v-297q0 -73 55 -73t55 73z" />
    <glyph glyph-name="u106D" unicode="&#x106d;" horiz-adv-x="392" 
d="M40 376q0 144 217 144h95v-130h-95q-67 0 -67 -44q0 -37 81 -80.5t81 -122.5q0 -143 -217 -143h-95v130h95q67 0 67 43q0 37 -81 80.5t-81 122.5z" />
    <glyph glyph-name="u106E" unicode="&#x106e;" horiz-adv-x="1630" 
d="M890 520q57 -10 95 -43q38 33 95 43h340q170 -30 170 -260t-170 -260h-120v170h90q50 20 50 90t-50 90h-280q-50 -20 -50 -90q0 -230 -170 -260h-100v170h70q50 20 50 90t-50 90h-148q8 -40 8 -90q0 -230 -170 -260h-100v170h70q50 20 50 90t-50 90h-280q-50 -20 -50 -90
t50 -90h70v-170h-100q-170 30 -170 260t170 260h680z" />
    <glyph glyph-name="u106F" unicode="&#x106f;" horiz-adv-x="1290" 
d="M865 170h185q50 20 50 90t-50 90h-280q-50 -20 -50 -90q0 -230 -170 -260h-340q-170 30 -170 260t170 260h100v-170h-70q-50 -20 -50 -90t50 -90h280q50 20 50 90t-50 90h-70v170h100q57 -10 95 -43q38 33 95 43h340q170 -30 170 -260t-170 -260h-65v-260
q0 -110 -100 -110h-130v130h30q50 0 50 40v370z" />
    <glyph glyph-name="u1070" unicode="&#x1070;" horiz-adv-x="1290" 
d="M865 0h-125q-57 10 -95 43q-38 -33 -95 -43h-340q-170 30 -170 200q0 96 141 150h-141v170h270v-170q-120 -90 -120 -130q0 -30 50 -50h280q50 20 50 90t-50 90h-70v170h100q170 -30 170 -260q0 -70 50 -90h280q50 20 50 90t-50 90h-90v170h120q170 -30 170 -260
t-170 -260h-65v-260q0 -110 -100 -110h-130v130h30q50 0 50 40v200z" />
    <glyph glyph-name="u1071" unicode="&#x1071;" horiz-adv-x="0" 
d="M-560 800q160 0 160 -130t-160 -130t-160 130t160 130zM-530 670q0 30 -30 30t-30 -30t30 -30t30 30zM-200 800q160 0 160 -130t-160 -130t-160 130t160 130zM-170 670q0 30 -30 30t-30 -30t30 -30t30 30z" />
    <glyph glyph-name="u1072" unicode="&#x1072;" horiz-adv-x="0" 
d="M-460 715q0 -26 50 -44h80q20 7 32 16l147 -61q-38 -69 -149 -86h-140q-170 26 -170 175t170 175h140q111 -17 149 -86l-147 -61q-12 9 -32 16h-80q-50 -18 -50 -44z" />
    <glyph glyph-name="u1073" unicode="&#x1073;" horiz-adv-x="0" 
d="M-300 849l264 -234l-86 -95l-178 148l-179 -148l-85 95z" />
    <glyph glyph-name="u1074" unicode="&#x1074;" horiz-adv-x="0" 
d="M-420 759q-50 -18 -50 -44t50 -44h80q50 18 50 44t-50 44l30 131q170 -26 170 -175t-170 -175h-140q-170 26 -170 175t170 175z" />
    <glyph glyph-name="u1075" unicode="&#x1075;" 
d="M240 350q-50 -20 -50 -50q0 -40 120 -130v-170h-270v170h141q-141 54 -141 150q0 170 170 200h340q170 -30 170 -260t-170 -260h-100v170h70q50 20 50 90t-50 90h-280z" />
    <glyph glyph-name="u1076" unicode="&#x1076;" 
d="M240 170h261q-66 60 -170 60h-65q-64 0 -64 -35q0 -25 38 -25zM72 352q-72 18 -72 119v49h50v-49q0 -28 8 -45q42 77 136 94h356q170 -30 170 -260t-170 -260h-360q-150 30 -150 145q0 125 145 125h146q133 0 213 -85q26 25 26 75q0 70 -50 90h-296q-21 -8 -33 -26z" />
    <glyph glyph-name="u1077" unicode="&#x1077;" 
d="M472 170h48q50 20 50 90t-50 90h-48q-12 -39 -12 -90t12 -90zM240 350q-50 -20 -50 -50q0 -40 120 -130v-170h-270v170h141q-141 54 -141 150q0 170 170 200h340q170 -30 170 -260t-170 -260h-70q-70 0 -70 210v50q0 50 9 90h-179z" />
    <glyph glyph-name="u1078" unicode="&#x1078;" horiz-adv-x="1290" 
d="M770 350q-50 -20 -50 -90t50 -90h280q50 20 50 90t-50 90h-280zM520 350h-280q-50 -20 -50 -90t50 -90h90v-170h-120q-170 30 -170 260t170 260h340q57 -10 95 -43q38 33 95 43h340q170 -30 170 -260t-170 -260h-340q-170 30 -170 260q0 70 -50 90z" />
    <glyph glyph-name="u1079" unicode="&#x1079;" horiz-adv-x="1290" 
d="M770 350q-50 -20 -50 -90t50 -90h280q50 20 50 90t-50 90h-280zM378 195q0 35 -39 35q-54 0 -80 -60h61q58 0 58 25zM550 520q57 -10 95 -43q38 33 95 43h340q170 -30 170 -260t-170 -260h-340q-170 30 -170 260q0 70 -50 90h-280q-50 -20 -50 -90q0 -50 26 -75
q40 85 123 85h56q115 0 115 -125q0 -115 -150 -145h-150q-170 30 -170 260t170 260h340z" />
    <glyph glyph-name="u107A" unicode="&#x107a;" horiz-adv-x="1290" 
d="M570 260q0 70 -50 90h-280q-50 -20 -50 -90t50 -90h190v-170h-220q-170 30 -170 260t170 260h340q170 -30 170 -260q0 -70 50 -90h280q50 20 50 90t-50 90h-190v170h220q170 -30 170 -260t-170 -260h-340l-20 4v-204q0 -40 50 -40h30v-130h-130q-100 0 -100 110v520z" />
    <glyph glyph-name="u107B" unicode="&#x107b;" horiz-adv-x="1290" 
d="M240 350q-50 -20 -50 -90t50 -90h280q50 20 50 90t-50 90h-280zM970 170h61q-26 60 -80 60q-39 0 -39 -35q0 -25 58 -25zM1080 520q170 -30 170 -260t-170 -260h-150q-150 30 -150 145q0 125 115 125h56q83 0 123 -85q26 25 26 75q0 70 -50 90h-280q-50 -20 -50 -90
q0 -230 -170 -260h-340q-170 30 -170 260t170 260h340q57 -10 95 -43q38 33 95 43h340z" />
    <glyph glyph-name="u107C" unicode="&#x107c;" horiz-adv-x="1290" 
d="M1088 195q0 35 -64 35h-65q-104 0 -170 -60h261q38 0 38 25zM240 170h261q-66 60 -170 60h-65q-64 0 -64 -35q0 -25 38 -25zM720 260q0 -50 26 -75q80 85 213 85h146q145 0 145 -125q0 -115 -150 -145h-360q-57 10 -95 43q-38 -33 -95 -43h-360q-150 30 -150 145
q0 125 145 125h146q133 0 213 -85q26 25 26 75q0 70 -50 90h-296q-21 -8 -33 -26l-151 59q36 116 154 137h356q57 -10 95 -43q38 33 95 43h356q118 -21 154 -137l-151 -59q-12 18 -33 26h-296q-50 -20 -50 -90z" />
    <glyph glyph-name="u107D" unicode="&#x107d;" horiz-adv-x="1290" 
d="M1088 195q0 35 -64 35h-65q-104 0 -170 -60h261q38 0 38 25zM645 43q-38 -33 -95 -43h-340q-170 30 -170 200q0 96 141 150h-141v170h270v-170q-120 -90 -120 -130q0 -30 50 -50h280q50 20 50 90q0 230 170 260h356q118 -21 154 -137l-151 -59q-12 18 -33 26h-296
q-50 -20 -50 -90q0 -50 26 -75q80 85 213 85h146q145 0 145 -125q0 -115 -150 -145h-360q-57 10 -95 43z" />
    <glyph glyph-name="u107E" unicode="&#x107e;" horiz-adv-x="1290" 
d="M1088 195q0 35 -64 35h-65q-104 0 -170 -60h261q38 0 38 25zM880 0h-140q-57 10 -95 43q-38 -33 -95 -43h-340q-170 30 -170 200q0 96 141 150h-141v170h270v-170q-120 -90 -120 -130q0 -30 50 -50h280q50 20 50 90q0 230 170 260h356q118 -21 154 -137l-151 -59
q-12 18 -33 26h-296q-50 -20 -50 -90q0 -50 26 -75q80 85 213 85h146q145 0 145 -125q0 -115 -150 -145h-70v-260q0 -110 -100 -110h-130v130h30q50 0 50 40v200z" />
    <glyph glyph-name="u107F" unicode="&#x107f;" 
d="M288 350h-48q-50 -20 -50 -90t50 -90h48q12 39 12 90t-12 90zM520 170q50 20 50 90t-50 90h-70v170h100q170 -30 170 -260t-170 -260h-340q-170 30 -170 260t170 260h70q70 0 70 -210v-50q0 -50 -9 -90h179z" />
    <glyph glyph-name="u1080" unicode="&#x1080;" horiz-adv-x="1290" 
d="M240 170h261q-66 60 -170 60h-65q-64 0 -64 -35q0 -25 38 -25zM645 43q-38 -33 -95 -43h-360q-150 30 -150 145q0 125 145 125h146q133 0 213 -85q26 25 26 75q0 70 -50 90h-296q-21 -8 -33 -26l-151 59q36 116 154 137h356q170 -30 170 -260q0 -70 50 -90h280
q50 20 50 90t-50 90h-90v170h120q170 -30 170 -260t-170 -260h-340q-57 10 -95 43z" />
    <glyph glyph-name="u1081" unicode="&#x1081;" 
d="M160 15q-120 52 -120 245q0 230 170 260h340q170 -30 170 -260t-170 -260h-100v170h70q50 20 50 90t-50 90h-280q-50 -20 -50 -90t50 -90h70v-430q0 -110 -100 -110h-130v130h30q50 0 50 40v215z" />
    <glyph glyph-name="u1082" unicode="&#x1082;" horiz-adv-x="0" 
d="M-340 -151h-80q-50 -18 -50 -44t50 -44h80q50 18 50 44h150q0 -149 -170 -175h-140q-170 26 -170 175t170 175h140q101 -15 142 -74l-146 -69q-11 7 -26 12z" />
    <glyph glyph-name="u1083" unicode="&#x1083;" horiz-adv-x="230" 
d="M40 390h-80v130h230v-760h80v-130h-230v760z" />
    <glyph glyph-name="u1084" unicode="&#x1084;" 
d="M240 350q-50 0 -50 -20t120 -50v-40q-120 -30 -120 -50t50 -20h296q21 8 33 26l151 -59q-36 -116 -154 -137h-356q-170 0 -170 120q0 92 159 140q-159 48 -159 140q0 120 170 120h356q118 -21 154 -137l-151 -59q-12 18 -33 26h-296z" />
    <glyph glyph-name="u1085" unicode="&#x1085;" horiz-adv-x="0" 
d="M-489 715q-44 25 -44 75q0 100 225 100q47 0 81 -7l-9 -89q-28 6 -72 6q-85 0 -85 -25t85 -25v-70q-85 0 -85 -25t85 -25q44 0 72 6l9 -89q-34 -7 -81 -7q-225 0 -225 100q0 50 44 75z" />
    <glyph glyph-name="u1086" unicode="&#x1086;" horiz-adv-x="0" 
d="M-370 760q0 25 -25 25t-25 -25t25 -25t25 25zM-245 728q0 -175 -151 -217l-86 68q48 21 71 82q-104 7 -104 99q0 120 120 120q150 0 150 -120v-32z" />
    <glyph glyph-name="u1087" unicode="&#x1087;" horiz-adv-x="380" 
d="M185 100q0 25 -25 25t-25 -25t25 -25t25 25zM340 68q0 -175 -181 -217l-86 68q48 21 71 82q-104 7 -104 99q0 120 140 120q160 0 160 -120v-32z" />
    <glyph glyph-name="u1088" unicode="&#x1088;" horiz-adv-x="380" 
d="M190 520q150 0 150 -100t-150 -100t-150 100t150 100zM215 420q0 25 -25 25t-25 -25t25 -25t25 25zM185 100q0 25 -25 25t-25 -25t25 -25t25 25zM340 68q0 -175 -181 -217l-86 68q48 21 71 82q-104 7 -104 99q0 120 140 120q160 0 160 -120v-32z" />
    <glyph glyph-name="u1089" unicode="&#x1089;" horiz-adv-x="380" 
d="M190 200q150 0 150 -100t-150 -100t-150 100t150 100zM215 100q0 25 -25 25t-25 -25t25 -25t25 25z" />
    <glyph glyph-name="u108A" unicode="&#x108a;" horiz-adv-x="449" 
d="M185 420q0 25 -25 25t-25 -25t25 -25t25 25zM160 281q-120 0 -120 128q0 112 120 112q92 0 99 -84q61 19 82 57l68 -69q-42 -144 -217 -144h-32zM185 140q0 25 -25 25t-25 -25t25 -25t25 25zM160 1q-120 0 -120 128q0 112 120 112q92 0 99 -84q61 19 82 57l68 -69
q-42 -144 -217 -144h-32z" />
    <glyph glyph-name="u108B" unicode="&#x108b;" horiz-adv-x="380" 
d="M190 360q150 0 150 -100t-150 -100t-150 100t150 100zM215 260q0 25 -25 25t-25 -25t25 -25t25 25z" />
    <glyph glyph-name="u108C" unicode="&#x108c;" horiz-adv-x="720" 
d="M530 360q150 0 150 -100t-150 -100t-150 100t150 100zM555 260q0 25 -25 25t-25 -25t25 -25t25 25zM190 360q150 0 150 -100t-150 -100t-150 100t150 100zM215 260q0 25 -25 25t-25 -25t25 -25t25 25z" />
    <glyph glyph-name="u108D" unicode="&#x108d;" horiz-adv-x="0" 
d="M-75 -81v-100h-450v100h450z" />
    <glyph glyph-name="u108E" unicode="&#x108e;" 
d="M380 250q-113 0 -189 28q-1 -8 -1 -18q0 -70 50 -90h280q50 20 50 90q0 10 -1 18q-76 -28 -189 -28zM380 300q105 0 169 30q-11 13 -29 20h-280q-18 -7 -29 -20q64 -30 169 -30zM210 0q-170 30 -170 260t170 260h340q170 -30 170 -260t-170 -260h-340z" />
    <glyph glyph-name="u108F" unicode="&#x108f;" horiz-adv-x="380" 
d="M340 420q0 -100 -150 -100t-150 100t150 100t150 -100zM190 395q25 0 25 25t-25 25t-25 -25t25 -25zM220 75q25 0 25 25t-25 25t-25 -25t25 -25zM40 100q0 120 160 120q140 0 140 -120q0 -92 -104 -99q23 -61 71 -82l-86 -68q-181 42 -181 217v32z" />
    <glyph glyph-name="u1090" unicode="&#x1090;" 
d="M240 350q-50 -20 -50 -90t50 -90h280q50 20 50 90t-50 90h-280zM550 520q170 -30 170 -260t-170 -260h-340q-170 30 -170 260t170 260h340z" />
    <glyph glyph-name="u1091" unicode="&#x1091;" horiz-adv-x="420" 
d="M285 129l69 41l26 -103l-112 -67h-133v391l-69 -41l-26 103l112 67h133v-391z" />
    <glyph glyph-name="u1092" unicode="&#x1092;" 
d="M41 290h-1v270h150v-44l20 4h340q170 -30 170 -260q0 -134 -155 -243.5t-155 -216.5h-150q0 132 155 241.5t155 218.5q0 70 -50 90h-280q-50 -20 -50 -90h-150q0 15 1 30z" />
    <glyph glyph-name="u1093" unicode="&#x1093;" horiz-adv-x="565" 
d="M334 380l-168 -380l-126 70l307 681l126 -70l-75 -163q127 -14 127 -181v-337h-150v337q0 43 -25 43h-16z" />
    <glyph glyph-name="u1094" unicode="&#x1094;" horiz-adv-x="598" 
d="M264 520h199v-391l69 41l26 -103l-112 -67h-133v346l-147 -346l-126 20z" />
    <glyph glyph-name="u1095" unicode="&#x1095;" horiz-adv-x="580" 
d="M390 320h-75q-125 0 -125 -110q0 -60 100 -60t100 110v60zM540 470h50v-150h-50v-60q0 -260 -250 -260t-250 210q0 260 275 260h75v230h150v-230z" />
    <glyph glyph-name="u1096" unicode="&#x1096;" horiz-adv-x="580" 
d="M390 260q0 110 -100 110t-100 -60q0 -110 125 -110h75v60zM540 -180h-150v230h-75q-275 0 -275 260q0 210 250 210t250 -260v-60h50v-150h-50v-230z" />
    <glyph glyph-name="u1097" unicode="&#x1097;" horiz-adv-x="480" 
d="M247 150h193v-150h-400v31l195 339h-195v150h400v-33z" />
    <glyph glyph-name="u1098" unicode="&#x1098;" 
d="M520 350h-280q-50 -20 -50 -90t50 -90h280q50 20 50 90t-50 90zM520 520q50 20 50 210h150q0 -186 -48 -282q48 -66 48 -188q0 -230 -170 -260h-340q-170 30 -170 260q0 122 48 188q-48 96 -48 282h150q0 -190 50 -210h280z" />
    <glyph glyph-name="u1099" unicode="&#x1099;" 
d="M570 470q0 70 -50 90h-280q-50 -20 -50 -90t50 -90h280q50 20 50 90zM240 210q-50 -20 -50 -210h-150q0 186 48 282q-48 66 -48 188q0 230 170 260h340q170 -30 170 -260q0 -122 -48 -188q48 -96 48 -282h-150q0 190 -50 210h-280z" />
    <glyph glyph-name="u109A" unicode="&#x109a;" horiz-adv-x="380" 
d="M190 520q150 0 150 -100t-150 -100t-150 100t150 100zM215 420q0 25 -25 25t-25 -25t25 -25t25 25z" />
    <glyph glyph-name="u109B" unicode="&#x109b;" horiz-adv-x="380" 
d="M185 400q0 25 -25 25t-25 -25t25 -25t25 25zM340 368q0 -175 -181 -217l-86 68q48 21 71 82q-104 7 -104 99q0 120 140 120q160 0 160 -120v-32z" />
    <glyph glyph-name="u109C" unicode="&#x109c;" horiz-adv-x="449" 
d="M160 127q-25 0 -25 -25t25 -25t25 25t-25 25zM192 241q175 0 217 -144l-68 -69q-21 38 -82 57q-7 -84 -99 -84q-120 0 -120 112q0 128 120 128h32zM160 407q-25 0 -25 -25t25 -25t25 25t-25 25zM192 521q175 0 217 -144l-68 -69q-21 38 -82 57q-7 -84 -99 -84
q-120 0 -120 112q0 128 120 128h32z" />
    <glyph glyph-name="u109D" unicode="&#x109d;" horiz-adv-x="0" 
d="M-235 590q-45 0 -45 -43h-150q0 193 195 193t195 -193v-147h-150v147q0 43 -45 43z" />
    <glyph glyph-name="u109E" unicode="&#x109e;" horiz-adv-x="230" 
d="M40 390h-80v130h230v-760h80v-130h-230v760zM115 740q150 0 150 -100t-150 -100t-150 100t150 100zM140 640q0 25 -25 25t-25 -25t25 -25t25 25z" />
    <glyph glyph-name="u109F" unicode="&#x109f;" horiz-adv-x="990" 
d="M240 350q-50 -20 -50 -90t50 -90h260v-170h-290q-170 30 -170 260t170 260h340q170 -30 170 -260v-370q0 -90 40 -90t40 90v370q0 280 -170 280h-90q-170 26 -170 175t170 175h140q123 -19 157 -103l-146 -51q-12 13 -41 23h-80q-50 -18 -50 -44t50 -45h60
q320 0 320 -410v-370q0 -260 -190 -260t-190 260v370q0 70 -50 90h-280z" />
    <glyph glyph-name="uAA60" unicode="&#xaa60;" horiz-adv-x="1290" 
d="M970 170h61q-26 60 -80 60q-39 0 -39 -35q0 -25 58 -25zM570 260q0 70 -50 90h-280q-50 -20 -50 -90t50 -90h70v-170h-100q-170 30 -170 260t170 260h340q57 -10 95 -43q38 33 95 43h340q170 -30 170 -260t-170 -260h-150q-150 30 -150 145q0 125 115 125h56
q83 0 123 -85q26 25 26 75q0 70 -50 90h-280q-50 -20 -50 -90q0 -230 -170 -260h-100v170h70q50 20 50 90z" />
    <glyph glyph-name="uAA61" unicode="&#xaa61;" horiz-adv-x="1290" 
d="M770 350q-50 -20 -50 -90t50 -90h280q50 20 50 90t-50 90h-280zM570 260q0 70 -50 90h-280q-50 -20 -50 -50q0 -40 120 -130v-170h-270v170h141q-141 54 -141 150q0 170 170 200h340q57 -10 95 -43q38 33 95 43h340q170 -30 170 -260t-170 -260h-340q-57 10 -95 43
q-38 -33 -95 -43h-100v170h70q50 20 50 90z" />
    <glyph glyph-name="uAA62" unicode="&#xaa62;" horiz-adv-x="1020" 
d="M311 156l-174 -156h-97v520h150v-344l123 104l137 -20q0 -70 50 -90h280q50 20 50 90t-50 90h-280v170h310q170 -30 170 -260t-170 -260h-340q-127 22 -159 156z" />
    <glyph glyph-name="uAA63" unicode="&#xaa63;" horiz-adv-x="1290" 
d="M472 170h48q50 20 50 90t-50 90h-48q-12 -39 -12 -90t12 -90zM770 350q-50 -20 -50 -90t50 -90h280q50 20 50 90t-50 90h-280zM645 43q-38 -33 -95 -43h-70q-70 0 -70 210v50q0 50 9 90h-179q-50 -20 -50 -50q0 -40 120 -130v-170h-270v170h141q-141 54 -141 150
q0 170 170 200h340q57 -10 95 -43q38 33 95 43h340q170 -30 170 -260t-170 -260h-340q-57 10 -95 43z" />
    <glyph glyph-name="uAA64" unicode="&#xaa64;" horiz-adv-x="1290" 
d="M770 350q-50 -20 -50 -90t50 -90h280q50 20 50 90t-50 90h-280zM645 43q-38 -33 -95 -43h-340q-170 30 -170 260t170 260h100v-170h-70q-50 -20 -50 -90t50 -90h280q50 20 50 90t-50 90h-70v170h100q57 -10 95 -43q38 33 95 43h340q170 -30 170 -260t-170 -260h-340
q-57 10 -95 43z" />
    <glyph glyph-name="uAA65" unicode="&#xaa65;" horiz-adv-x="1290" 
d="M720 -260q0 -110 -100 -110h-130v130h30q50 0 50 40v204l-20 -4h-340q-170 30 -170 260t170 260h220v-170h-190q-50 -20 -50 -90t50 -90h280q50 20 50 90q0 230 170 260h340q170 -30 170 -260t-170 -260h-220v170h190q50 20 50 90t-50 90h-280q-50 -20 -50 -90v-520z" />
    <glyph glyph-name="uAA66" unicode="&#xaa66;" horiz-adv-x="1290" 
d="M380 310q50 0 50 -50t-50 -50t-50 50t50 50zM240 350q-50 -20 -50 -90t50 -90h280q50 20 50 90t-50 90h-280zM720 260q0 -230 -170 -260h-340q-170 30 -170 260t170 260h340q57 -10 95 -43q38 33 95 43h340q170 -30 170 -260t-170 -260h-120v170h90q50 20 50 90t-50 90
h-280q-50 -20 -50 -90z" />
    <glyph glyph-name="uAA67" unicode="&#xaa67;" horiz-adv-x="1290" 
d="M770 350q-50 -20 -50 -90t50 -90h280q50 20 50 90t-50 90h-280zM240 350q-50 -20 -50 -90t50 -90h280q50 20 50 90t-50 90h-280zM645 477q38 33 95 43h340q170 -30 170 -260t-170 -260h-340q-57 10 -95 43q-38 -33 -95 -43h-340q-170 30 -170 260t170 260h340
q57 -10 95 -43zM380 310q50 0 50 -50t-50 -50t-50 50t50 50z" />
    <glyph glyph-name="uAA68" unicode="&#xaa68;" horiz-adv-x="1290" 
d="M240 350q-50 -20 -50 -90t50 -90h280q50 20 50 90t-50 90h-280zM970 170h61q-26 60 -80 60q-39 0 -39 -35q0 -25 58 -25zM1080 520q170 -30 170 -260t-170 -260h-150q-150 30 -150 145q0 125 115 125h56q83 0 123 -85q26 25 26 75q0 70 -50 90h-280q-50 -20 -50 -90
q0 -230 -170 -260h-340q-170 30 -170 260t170 260h340q57 -10 95 -43q38 33 95 43h340zM380 310q50 0 50 -50t-50 -50t-50 50t50 50z" />
    <glyph glyph-name="uAA69" unicode="&#xaa69;" horiz-adv-x="1290" 
d="M380 310q50 0 50 -50t-50 -50t-50 50t50 50zM896 170h154q50 20 50 90t-50 90h-280q-28 -11 -41 -39q138 -16 167 -141zM240 350q-50 -20 -50 -90t50 -90h280q50 20 50 90t-50 90h-280zM720 262v-2q0 -70 50 -90h73q-27 80 -123 92zM645 477q38 33 95 43h340
q170 -30 170 -260t-170 -260h-340q-57 10 -95 43q-38 -33 -95 -43h-340q-170 30 -170 260t170 260h340q57 -10 95 -43z" />
    <glyph glyph-name="uAA6A" unicode="&#xaa6a;" horiz-adv-x="1290" 
d="M896 170h154q50 20 50 90t-50 90h-280q-28 -11 -41 -39q138 -16 167 -141zM240 350q-50 -20 -50 -90t50 -90h280q50 20 50 90t-50 90h-280zM720 262v-2q0 -70 50 -90h73q-27 80 -123 92zM645 477q38 33 95 43h340q170 -30 170 -260t-170 -260h-340q-57 10 -95 43
q-38 -33 -95 -43h-340q-170 30 -170 260t170 260h340q57 -10 95 -43z" />
    <glyph glyph-name="uAA6B" unicode="&#xaa6b;" 
d="M300 260q0 51 -12 90h-48q-50 -20 -50 -90t50 -90h48q12 39 12 90zM121 483q-29 45 -29 107h50q0 -48 24 -82q20 8 44 12h340q170 -30 170 -260t-170 -260h-100v170h70q50 20 50 90t-50 90h-179q9 -40 9 -90v-50q0 -210 -70 -210h-70q-170 30 -170 260q0 159 81 223z" />
    <glyph glyph-name="uAA6C" unicode="&#xaa6c;" horiz-adv-x="1290" 
d="M860 350q-50 -20 -50 -90t50 -90h190q50 20 50 90t-50 90h-70v170h100q170 -30 170 -260t-170 -260h-250q-170 0 -170 260q0 92 27 152q-5 58 -42 58t-42 -58q27 -60 27 -152q0 -260 -170 -260h-250q-170 30 -170 260t170 260h100v-170h-70q-50 -20 -50 -90t50 -90h190
q50 20 50 90t-50 90q30 170 215 170t215 -170z" />
    <glyph glyph-name="uAA6D" unicode="&#xaa6d;" horiz-adv-x="790" 
d="M110 410q0 30 -30 30t-30 -30t30 -30t30 30zM220 -137q0 -233 -195 -233t-195 233h150q0 -83 45 -83t45 83v397q0 21 1 40q-101 4 -101 110q0 110 110 110q49 0 83 -29q33 21 77 29h340q170 -30 170 -260t-170 -260h-200v170h170q50 20 50 90t-50 90h-280
q-50 -20 -50 -90v-397z" />
    <glyph glyph-name="uAA6E" unicode="&#xaa6e;" horiz-adv-x="1290" 
d="M378 195q0 35 -39 35q-54 0 -80 -60h61q58 0 58 25zM550 520q170 -30 170 -260q0 -70 50 -90h280q50 20 50 90t-50 90h-190v170h220q170 -30 170 -260t-170 -260h-340q-170 30 -170 260q0 70 -50 90h-280q-50 -20 -50 -90q0 -50 26 -75q40 85 123 85h56q115 0 115 -125
q0 -115 -150 -145h-150q-170 30 -170 260t170 260h340z" />
    <glyph glyph-name="uAA6F" unicode="&#xaa6f;" horiz-adv-x="990" 
d="M470 350q-50 -20 -50 -90t50 -90h280q50 20 50 90t-50 90h-280zM270 275l-80 69v-344h-150v520h147l113 -102q41 85 140 102h340q170 -30 170 -260t-170 -260h-340q-170 30 -170 260v15z" />
    <glyph glyph-name="uAA70" unicode="&#xaa70;" horiz-adv-x="0" 
d="M-299 510q-76 0 -107 -31l-40 85q44 46 147 46q102 0 146 -46l-40 -85q-31 31 -106 31zM-299 650q-76 0 -107 -31l-40 85q44 46 147 46q102 0 146 -46l-40 -85q-31 31 -106 31z" />
    <glyph glyph-name="uAA71" unicode="&#xaa71;" horiz-adv-x="1290" 
d="M300 260q0 51 -12 90h-48q-50 -20 -50 -90t50 -90h48q12 39 12 90zM570 260q0 70 -50 90h-179q9 -40 9 -90v-50q0 -210 -70 -210h-70q-170 30 -170 260t170 260h340q57 -10 95 -43q38 33 95 43h340q170 -30 170 -260t-170 -260h-120v170h90q50 20 50 90t-50 90h-280
q-50 -20 -50 -90q0 -230 -170 -260h-100v170h70q50 20 50 90z" />
    <glyph glyph-name="uAA72" unicode="&#xaa72;" horiz-adv-x="1290" 
d="M1050 170q50 20 50 90t-50 90h-280q-50 -20 -50 -90t50 -90h280zM45 189q-5 33 -5 71q0 230 170 260h340q57 -10 95 -43q38 33 95 43h340q170 -30 170 -260t-170 -260h-340q-57 10 -95 43q-38 -33 -95 -43h-100v170h70q50 20 50 90t-50 90h-280q-50 -20 -50 -90v-195
q0 -25 -26 -45t-64 -20q-100 0 -100 100q0 67 45 89zM125 100q0 25 -25 25t-25 -25t25 -25t25 25z" />
    <glyph glyph-name="uAA73" unicode="&#xaa73;" horiz-adv-x="780" 
d="M190 314v-314h-150v520h148q197 -350 319 -350h33q50 20 50 90t-50 90h-70v170h100q170 -30 170 -260t-170 -260h-63q-176 0 -317 314z" />
    <glyph glyph-name="uAA74" unicode="&#xaa74;" horiz-adv-x="990" 
d="M410 -270q0 50 -50 50t-50 -50t50 -50t50 50zM570 260q0 70 -50 90h-48q-12 -39 -12 -90v-90h60q50 20 50 90zM460 -181q68 -39 169 -39h70q101 0 101 58v422q0 280 -170 280h-90q-170 26 -170 175t170 175h140q123 -19 157 -103l-146 -51q-12 13 -41 23h-80
q-50 -18 -50 -44t50 -45h60q320 0 320 -410v-422q0 -208 -251 -208h-70q-104 0 -172 66q-16 -66 -97 -66q-100 0 -100 100q0 110 100 110q29 0 50 -9v169h-200q-170 30 -170 260t170 260h100v-170h-70q-50 -20 -50 -90t50 -90h170v140q0 210 70 210h70q170 -30 170 -260
t-170 -260h-90v-181z" />
    <glyph glyph-name="uAA75" unicode="&#xaa75;" horiz-adv-x="1520" 
d="M985 -270q0 25 -25 25t-25 -25t25 -25t25 25zM960 170h90q50 20 50 90t-50 90h-280q-50 -20 -50 -90q0 -230 -170 -260h-100v170h70q50 20 50 90t-50 90h-280q-50 -20 -50 -50q0 -40 120 -130v-170h-270v170h141q-141 54 -141 150q0 170 170 200h340q57 -10 95 -43
q38 33 95 43h340q170 -30 170 -260q0 -209 -140 -253v-198q68 -29 149 -29q71 0 71 58v422q0 280 -210 280h-130q-170 26 -170 175t170 175h140q123 -19 157 -103l-146 -51q-12 13 -41 23h-80q-50 -18 -50 -44t50 -45h100q360 0 360 -410v-422q0 -208 -221 -208
q-84 0 -152 66q-16 -66 -147 -66q-100 0 -100 100t100 100v340z" />
    <glyph glyph-name="uAA76" unicode="&#xaa76;" horiz-adv-x="1020" 
d="M110 410q0 30 -30 30t-30 -30t30 -30t30 30zM485 -270q0 25 -25 25t-25 -25t25 -25t25 25zM460 0h-80v170h170q50 20 50 90t-50 90h-280q-50 -20 -50 -90v-397q0 -233 -195 -233t-195 233h150q0 -83 45 -83t45 83v397q0 21 1 40q-101 4 -101 110q0 110 110 110
q49 0 83 -29q33 21 77 29h340q170 -30 170 -260q0 -209 -140 -253v-198q68 -29 149 -29q71 0 71 58v422q0 280 -210 280h-130q-170 26 -170 175t170 175h140q123 -19 157 -103l-146 -51q-12 13 -41 23h-80q-50 -18 -50 -44t50 -45h100q360 0 360 -410v-422q0 -208 -221 -208
q-84 0 -152 66q-16 -66 -147 -66q-100 0 -100 100t100 100v170z" />
    <glyph glyph-name="uAA77" unicode="&#xaa77;" 
d="M662 59l133 -240q11 -21 31 -21q14 0 32 10l26 14l63 -113l-114 -63q-29 -16 -55 -16q-50 0 -85 64l-170 306h-18v-200q0 -40 50 -40h30v-130h-130q-100 0 -100 110v270l95 160h70q50 20 50 90t-50 90h-280q-50 -20 -50 -50q0 -40 120 -130v-170h-270v170h141
q-141 54 -141 150q0 170 170 200h340q170 -30 170 -260q0 -135 -58 -201zM340 759q-50 -18 -50 -44t50 -44h80v-131h-110q-170 26 -170 175t170 175h140q170 -26 170 -175h-150q0 26 -50 44h-80z" />
    <glyph glyph-name="uAA78" unicode="&#xaa78;" horiz-adv-x="890" 
d="M40 408l140 35q70 -65 70 -200q0 -131 -66 -196l-138 37q54 52 54 159q0 112 -60 165zM687 23l12 -12l-115 -111q-52 60 -164 60q-107 0 -159 -54l-37 138q65 66 196 66q86 0 144 -29l113 348q30 91 147 91q19 0 41 -7q49 -16 65 -53l-47 -126q-7 23 -34 31q-11 4 -20 4
q-36 0 -54 -56zM584 590l35 -140q-65 -70 -199 -70q-131 0 -196 66l37 138q52 -54 159 -54q112 0 164 60z" />
    <glyph glyph-name="uAA79" unicode="&#xaa79;" 
d="M450 170h70q50 20 50 90t-50 90h-280q-50 -20 -50 -50q0 -40 120 -130v-170h-270v170h141q-141 54 -141 150q0 170 170 200h340q170 -30 170 -260t-170 -260h-45v-200q0 -40 50 -40h30v-130h-130q-100 0 -100 110v280z" />
    <glyph glyph-name="uAA7A" unicode="&#xaa7a;" horiz-adv-x="1520" 
d="M800 260q0 70 -50 90h-280q-50 -20 -50 -90t50 -90h190v-170h-220q-170 30 -170 260t170 260h340q170 -30 170 -260q0 -70 50 -90h280q50 20 50 90t-50 90h-190v170h220q170 -30 170 -260t-170 -260h-340l-20 4v-114q0 -230 -170 -260h-570q-170 30 -170 260v650
q0 230 170 260h540q50 20 50 90h150q0 -230 -170 -260h-540q-50 -20 -50 -90v-650q0 -70 50 -90h510q50 20 50 90v370z" />
    <glyph glyph-name="uAA7B" unicode="&#xaa7b;" horiz-adv-x="380" 
d="M220 75q25 0 25 25t-25 25t-25 -25t25 -25zM40 100q0 120 160 120q140 0 140 -120q0 -92 -104 -99q23 -61 71 -82l-86 -68q-181 42 -181 217v32z" />
    <glyph glyph-name="u1039_1000" horiz-adv-x="0" 
d="M-455 -195q0 26 -50 44h-80q-50 -18 -50 -44t50 -44l-30 -131q-170 26 -170 175t170 175h140q57 -9 95 -31q38 22 95 31h140q170 -26 170 -175t-170 -175h-70v131h40q50 18 50 44t-50 44h-80q-50 -18 -50 -44q0 -149 -170 -175l-30 131q50 18 50 44z" />
    <glyph glyph-name="u1039_1001" horiz-adv-x="0" 
d="M-429 -235q-41 0 -41 -14t36 -20h80q21 7 33 21q-55 13 -108 13zM-304 -195q0 26 -50 44h-80q-15 -6 -26 -12l-146 69q41 59 142 74h140q170 -26 170 -175t-170 -175h-140q-121 15 -142 109q0 23 31.5 49.5t115.5 26.5q87 0 155 -11v1z" />
    <glyph glyph-name="u1039_1002" horiz-adv-x="1" 
d="M-420 -151q-50 -18 -50 -44t50 -44l-30 -131q-170 26 -170 175t170 175h140q170 -26 170 -175t-170 -175l-30 131q50 18 50 44t-50 44h-80z" />
    <glyph glyph-name="u1039_1003" horiz-adv-x="0" 
d="M-691 -156v8h-94v127h124q114 0 114 -93q0 -63 -43 -71q-45 -8 -45 -21q0 -25 50 -33h80q50 18 50 44t-50 44l30 131q170 -26 170 -175q0 -26 50 -44h80q50 18 50 44t-50 44h-40v131h70q170 -26 170 -175t-170 -175h-140q-57 9 -95 31q-38 -22 -95 -31h-140
q-170 26 -170 155q0 28 94 59z" />
    <glyph glyph-name="u1039_1004" horiz-adv-x="1" 
d="M-463 -195q0 -26 50 -44h80q24 9 36 19l150 -51q-35 -80 -156 -99h-140q-170 26 -170 175t170 175h140q121 -19 156 -99l-150 -51q-12 10 -36 19h-80q-50 -18 -50 -44z" />
    <glyph glyph-name="u1039_1005" horiz-adv-x="1" 
d="M-446 -151h-24q-50 -18 -50 -44t50 -44h24q6 19 6 44t-6 44zM-394 -239h54q50 18 50 44t-50 44h-54q4 -20 4 -44t-4 -44zM-310 -20q170 -26 170 -175t-170 -175h-140q-170 26 -170 175t170 175h140z" />
    <glyph glyph-name="u1039_1006" horiz-adv-x="0" 
d="M-594 -235q-41 0 -41 -14t36 -20h80q21 7 33 21q-55 13 -108 13zM-269 -151q-50 -18 -50 -44t50 -44h80q50 18 50 44t-50 44h-80zM-394 -339q-38 -22 -95 -31h-140q-121 15 -142 109q0 23 31.5 49.5t115.5 26.5q87 0 155 -11v1q0 26 -50 44h-80q-15 -6 -26 -12l-146 69
q41 59 142 74h140q57 -9 95 -31q38 22 95 31h140q170 -26 170 -175t-170 -175h-140q-57 9 -95 31z" />
    <glyph glyph-name="u1039_1007" horiz-adv-x="1" 
d="M-331 -155q41 0 41 14t-36 20h-80q-21 -7 -33 -21q55 -13 108 -13zM-236 -200q-27 -5 -65 -5q-87 0 -155 11v-1q0 -26 50 -44h80q15 6 26 12l146 -69q-41 -59 -142 -74h-140q-170 26 -170 175t170 175h140q121 -15 142 -109q0 -20 -23 -42q28 -8 74 -12l-6 -50
q-89 8 -127 33z" />
    <glyph glyph-name="u1039_1008" horiz-adv-x="230" 
d="M-446 -151h-24q-50 -18 -50 -44t50 -44h24q6 19 6 44t-6 44zM-394 -239h54q50 18 50 44t-50 44h-54q4 -20 4 -44t-4 -44zM-147 -138q42 -46 97 -62h40q50 20 50 90v630h150v-630q0 -230 -170 -260h-100q-66 12 -106 53q-43 -41 -124 -53h-140q-170 26 -170 175t170 175
h140q134 -21 163 -118z" />
    <glyph glyph-name="u1039_100B" horiz-adv-x="0" 
d="M-208 -327q-59 -23 -169 -23q-186 1 -238 47l27 45q71 -41 211 -42q145 0 212 43h25v-63h109v-50h-177v43zM-463 -142q0 -19 50 -31h80q24 6 36 13l150 -36q-35 -56 -156 -69h-140q-170 18 -170 123q0 104 170 122h140q121 -13 156 -69l-150 -36q-12 7 -36 13h-80
q-50 -12 -50 -30z" />
    <glyph glyph-name="u1039_100C" horiz-adv-x="0" 
d="M-617 -368q-154 0 -154 142v73q0 133 135 133q126 0 126 -133v-63h-48v63q0 33 -34 33q-33 0 -33 -33v-53q0 -42 57 -42h117q-6 24 -6 53q0 149 166 175h136q166 -26 166 -175t-166 -175l-29 131q49 18 49 44t-49 44h-78q-49 -18 -49 -44t49 -44l-29 -131z" />
    <glyph glyph-name="u1039_100F" horiz-adv-x="0" 
d="M-380 -370q-133 0 -154 135q36 16 36 32q0 32 -36 52h-94q-35 -20 -35 -44t35 -44h51v-131h-72q-122 24 -122 175t122 175h136q37 -7 63 -29q21 29 70 29t70 -29q26 22 63 29h136q122 -24 122 -175t-122 -175h-72v131h51q35 20 35 44t-35 44h-94q-36 -20 -36 -52
q0 -16 36 -32q-21 -135 -154 -135zM-410 -284q3 -46 30 -46t30 46q-19 48 -19 81q0 72 33 124q-14 19 -44 19t-44 -19q33 -52 33 -124q0 -33 -19 -81z" />
    <glyph glyph-name="u1039_1010" horiz-adv-x="0" 
d="M-585 -151q-50 -18 -50 -44t50 -44h80q50 18 50 44t-50 44h-80zM-305 -195q0 -149 -170 -175h-140q-170 26 -170 175t170 175h140q57 -9 95 -31q38 22 95 31h140q170 -26 170 -175t-170 -175h-70v131h40q50 18 50 44t-50 44h-80q-50 -18 -50 -44z" />
    <glyph glyph-name="u1039_1011" horiz-adv-x="0" 
d="M-585 -151q-50 -18 -50 -44t50 -44h80q50 18 50 44t-50 44h-80zM-255 -151q-50 -18 -50 -44t50 -44h80q50 18 50 44t-50 44h-80zM-380 -339q-38 -22 -95 -31h-140q-170 26 -170 175t170 175h140q57 -9 95 -31q38 22 95 31h140q170 -26 170 -175t-170 -175h-140
q-57 9 -95 31z" />
    <glyph glyph-name="u1039_1012" horiz-adv-x="0" 
d="M-468 -134q-17 -6 -27 -18l-125 40q30 78 127 92h212q141 0 141 -81q0 -62 -132 -94q132 -32 132 -94q0 -81 -141 -81h-212q-97 14 -127 92l125 40q10 -12 27 -18h162q42 0 42 14q0 13 -99 34v26q99 21 99 34q0 14 -42 14h-162z" />
    <glyph glyph-name="u1039_1013" horiz-adv-x="1" 
d="M-290 -191q-2 43 -50 60h-80q-48 -17 -50 -60q40 6 90 6t90 -6zM-461 -243q13 -26 41 -36h80q28 10 41 36q-34 8 -81 8t-81 -8zM-310 -20q170 -26 170 -175t-170 -175h-140q-170 26 -170 175t170 175h140z" />
    <glyph glyph-name="u1039_1014" horiz-adv-x="0" 
d="M-420 -266q-24 44 -72 44q-14 0 -14 -17q0 -27 27 -27h59zM-514 -370q-106 20 -106 98q0 84 100 84q98 0 141 -78h98q15 6 25 29l-218 69q-76 24 -76 49v3q21 81 114 96h124q83 -14 108 -92l-106 -20q-9 12 -23 18h-82q-18 -7 -27 -16l226 -62q76 -21 76 -75
q-19 -88 -120 -103h-254z" />
    <glyph glyph-name="u1039_1015" horiz-adv-x="1" 
d="M-340 -239q50 18 50 44t-50 44l30 131q170 -26 170 -175t-170 -175h-140q-170 26 -170 175t170 175l30 -131q-50 -18 -50 -44t50 -44h80z" />
    <glyph glyph-name="u1039_1016" horiz-adv-x="1" 
d="M-320 -195q0 -25 6 -44h24q50 18 50 44t-50 44h-24q-6 -19 -6 -44zM-370 -195q0 24 1 62l2 75q1 38 57 38q170 -26 170 -175t-170 -175h-140q-170 26 -170 175t170 175l30 -131q-50 -18 -50 -44t50 -44h54q-4 20 -4 44z" />
    <glyph glyph-name="u1039_1017" horiz-adv-x="1" 
d="M-429 -155q-41 -16 -41 -40q0 -26 50 -44h80q50 18 50 44q0 23 -40 40q-22 -3 -50 -3q-27 0 -49 3zM-421 -105.5q10 -2.5 41 -2.5q32 0 41.5 3t19.5 44l9 41q170 -26 170 -175t-170 -175h-140q-170 26 -170 175t170 175l9 -41q10 -42 20 -44.5z" />
    <glyph glyph-name="u1039_1018" horiz-adv-x="0" 
d="M-462 -195q0 26 -50 44h-80q-24 -9 -36 -19l-150 51q35 80 156 99h140q57 -9 95 -31q38 22 95 31h140q170 -26 170 -175t-170 -175h-70v131h40q50 18 50 44t-50 44h-80q-50 -18 -50 -44q0 -149 -170 -175h-140q-121 19 -156 99l150 51q12 -10 36 -19h80q50 18 50 44z" />
    <glyph glyph-name="u1039_1019" horiz-adv-x="1" 
d="M-458 -248q12 -22 38 -31h80q26 9 38 31q-28 11 -78 11t-78 -11zM-290 -194q0 45 -50 63l30 111q170 -26 170 -175t-170 -175h-140q-170 26 -170 175t170 175l30 -111q-50 -18 -50 -63q39 7 90 7t90 -7z" />
    <glyph glyph-name="u1039_101C" horiz-adv-x="0" 
d="M-455 -195q0 26 -50 44h-80q-50 -18 -50 -44t50 -44h40v-131h-70q-170 26 -170 175t170 175h140q170 -26 170 -175q0 -26 50 -44h80q50 18 50 44t-50 44h-40v131h70q170 -26 170 -175t-170 -175h-140q-170 26 -170 175z" />
    <glyph glyph-name="u1039_101D" horiz-adv-x="1" 
d="M-420 -151q-50 -18 -50 -44t50 -44h80q50 18 50 44t-50 44h-80zM-310 -20q170 -26 170 -175t-170 -175h-140q-170 26 -170 175t170 175h140z" />
    <glyph glyph-name="u1039_101D_103E" horiz-adv-x="1" 
d="M-420 -151q-50 -18 -50 -44t50 -44h80q50 18 50 44t-50 44h-80zM-606 -270l-93 -100l-102 90l77 88l51 -47l53 59q9 135 170 160h140q170 -26 170 -175t-170 -175h-140q-121 19 -156 100z" />
    <glyph glyph-name="u103C_big" horiz-adv-x="230" 
d="M210 -370q-170 30 -170 260v740q0 230 170 260h1100q170 -30 170 -260v-90h-150v90q0 70 -50 90h-1040q-50 -20 -50 -90v-740q0 -70 50 -90h1040q50 20 50 90v210h150v-210q0 -230 -170 -260h-1100z" />
    <glyph glyph-name="u102F_long" horiz-adv-x="230" 
d="M40 520h150v-720q0 -40 50 -40h30v-130h-130q-100 0 -100 110v780z" />
    <glyph glyph-name="u1030_long" horiz-adv-x="460" 
d="M40 520h150v-890h-150v890zM270 520h150v-720q0 -40 50 -40h30v-130h-130q-100 0 -100 110v780z" />
    <glyph glyph-name="u103C_1" horiz-adv-x="230" 
d="M780 890q170 -30 170 -260v-90h-150v90q0 70 -50 90h-510q-50 -20 -50 -90v-740q0 -70 50 -90l-30 -170q-170 30 -170 260v740q0 230 170 260h570z" />
    <glyph glyph-name="u103C_2" horiz-adv-x="230" 
d="M240 720q-50 -20 -50 -90v-740q0 -70 50 -90h510q50 20 50 90v210h150v-210q0 -230 -170 -260h-570q-170 30 -170 260v740q0 230 170 260z" />
    <glyph glyph-name="u103C_3" horiz-adv-x="230" 
d="M240 720q-50 -20 -50 -90v-740q0 -70 50 -90l-30 -170q-170 30 -170 260v740q0 230 170 260z" />
    <glyph glyph-name="u103C_big_1" horiz-adv-x="230" 
d="M210 -370q-170 30 -170 260v740q0 230 170 260h1100q170 -30 170 -260v-90h-150v90q0 70 -50 90h-1040q-50 -20 -50 -90v-740q0 -70 50 -90h520v-170h-550z" />
    <glyph glyph-name="u103C_big_2" horiz-adv-x="230" 
d="M210 -370q-170 30 -170 260v740q0 230 170 260h550v-170h-520q-50 -20 -50 -90v-740q0 -70 50 -90h1040q50 20 50 90v210h150v-210q0 -230 -170 -260h-1100z" />
    <glyph glyph-name="u103C_big_3" horiz-adv-x="230" 
d="M210 -370q-170 30 -170 260v740q0 230 170 260h550v-170h-520q-50 -20 -50 -90v-740q0 -70 50 -90h520v-170h-550z" />
    <glyph glyph-name="u100B_1039_100B" 
d="M570 -87h-395l-135 44v136q149 -49 215 -49h248q57 21 66 49h-359q-170 25 -170 214q0 188 170 213h356q118 -17 154 -112l-151 -49q-12 15 -33 22h-296q-50 -17 -50 -74q0 -58 50 -74h296q21 6 33 21l151 -48v-76q0 -60 -59 -93.5t-160 -33.5h-311v-49h362q94 6 168 53
v-207q0 -40 50 -40h30v-130h-130q-100 0 -100 110v173zM192 -195q0 -14 50 -24h80q24 5 36 10l150 -27q-35 -43 -156 -53h-140q-170 14 -170 94t170 94h140q121 -10 156 -53l-150 -28q-12 6 -36 10h-80q-50 -9 -50 -23zM447 -337q-59 -18 -169 -18q-186 1 -238 36l27 35
q71 -31 211 -32q145 0 212 33h25v-49h29v-38h-97v33z" />
    <glyph glyph-name="u100A_alt" horiz-adv-x="1290" 
d="M40 137l151 59q12 -18 33 -26h296q50 20 50 90t-50 90h-296q-21 -8 -33 -26l-151 59q36 116 154 137h356q170 -30 170 -260q0 -70 50 -90h280q50 20 50 90t-50 90h-90v170h120q170 -30 170 -260t-170 -260h-340q-57 10 -95 43q-38 -33 -95 -43h-356q-2 0 -4 1v-111
q0 -70 50 -90h405v-170h-435q-170 30 -170 260v247z" />
    <glyph glyph-name="u1014_alt" 
d="M324 170q-35 50 -103 50q-19 0 -19 -25t38 -25h84zM190 0q-150 30 -150 145q0 125 141 125q140 0 200 -100h139q22 9 35 28l-308 102q-108 36 -108 73v5q30 119 161 142h176q118 -21 154 -137l-151 -59q-12 18 -33 26h-116q-25 -10 -38 -23l321 -103q107 -35 107 -71
q-27 -131 -170 -153h-360z" />
    <glyph glyph-name="u101B_alt" 
d="M378 195q0 35 -39 35q-54 0 -80 -60h61q58 0 58 25zM240 350q-50 -20 -50 -90q0 -50 26 -75q40 85 123 85h56q115 0 115 -125q0 -115 -150 -145h-150q-170 30 -170 260t170 260h340q170 -30 170 -260v-510h-150v510q0 70 -50 90h-280z" />
    <glyph glyph-name="u1025_alt" 
d="M40 137l151 59q12 -18 33 -26h296q50 20 50 90t-50 90h-296q-21 -8 -33 -26l-151 59q36 116 154 137h356q170 -30 170 -260t-170 -260h-356q-2 0 -4 1v-111q0 -70 50 -90l-30 -170q-170 30 -170 260v247z" />
    <glyph glyph-name="u1037_alt" horiz-adv-x="0" 
d="M-135 -20q135 0 135 -140t-135 -140t-135 140t135 140zM-110 -160q0 30 -25 30t-25 -30t25 -30t25 30z" />
    <glyph glyph-name="u103B_alt" horiz-adv-x="230" 
d="M-50 -200h40q50 20 50 90v630h150v-630q0 -230 -170 -260h-100q-136 24 -163 176l144 64q7 -53 49 -70z" />
    <glyph glyph-name="u103E_alt" horiz-adv-x="0" 
d="M-188 -21l101 -71l-247 -248l-132 132l71 101l61 -61z" />
    <glyph glyph-name="u1037_alt2" horiz-adv-x="0" 
d="M50 -20q100 0 100 -100t-100 -100t-100 100t100 100zM75 -120q0 25 -25 25t-25 -25t25 -25t25 25z" />
    <glyph glyph-name="u100B_1039_100C" 
d="M210 0q-170 30 -170 260t170 260h356q118 -21 154 -137l-151 -59q-12 18 -33 26h-296q-50 -20 -50 -90t50 -90h296q21 8 33 26l151 -59q-36 -116 -154 -137h-356zM570 -110h-311q-101 0 -160 40.5t-59 69.5h61q49 -60 156 -60h248q66 0 215 60v-220q0 -130 -170 -150
h-340q-170 16 -170 119q0 106 170 106h189v-74h-159q-50 -11 -50 -32q0 -20 50 -30h280q50 13 50 61v110z" />
    <glyph glyph-name="u25CC" unicode="&#x25cc;" horiz-adv-x="595" 
d="M479 418q0 -24 -24 -24q-25 0 -25 24q0 25 25 25q24 0 24 -25zM406 466q0 -24 -23 -24q-25 0 -25 24q0 25 25 25q23 0 23 -25zM527 346q0 -25 -25 -25q-24 0 -24 25q0 24 25 24q24 0 24 -24zM545 261q0 -24 -24 -24q-25 0 -25 24t25 24q24 0 24 -24zM321 484
q0 -25 -24 -25t-24 25q0 24 24 24t24 -24zM237 466q0 -24 -25 -24q-24 0 -24 24q0 25 24 25q25 0 25 -25zM527 176q0 -24 -25 -24q-24 0 -24 24q0 25 24 25q25 0 25 -25zM165 418q0 -24 -25 -24q-24 0 -24 23q0 26 24 26q25 0 25 -25zM479 103q0 -24 -24 -24q-25 0 -25 24
q0 25 25 25q24 0 24 -25zM406 55q0 -23 -23 -23q-25 0 -25 23q0 25 25 25q23 0 23 -25zM116 346q0 -25 -23 -25q-25 0 -25 25q0 24 24 24t24 -24zM99 261q0 -24 -24 -24q-25 0 -25 24t25 24q24 0 24 -24zM321 39q0 -25 -24 -25t-24 25q0 24 24 24t24 -24zM116 176
q0 -24 -24 -24t-24 24q0 25 24 25t24 -25zM237 57q0 -25 -25 -25q-24 0 -24 23q0 25 24 25q25 0 25 -23zM165 103q0 -24 -25 -24q-24 0 -24 24q0 25 24 25q25 0 25 -25z" />
    <glyph glyph-name="u103E_short" horiz-adv-x="0" 
d="M-400 -20h150v-180h-236v80h86v100z" />
  </font>
</defs>
</svg>
