<?xml version="1.0" standalone="no"?>
<!DOCTYPE svg PUBLIC "-//W3C//DTD SVG 1.1//EN" "http://www.w3.org/Graphics/SVG/1.1/DTD/svg11.dtd" >
<svg xmlns="http://www.w3.org/2000/svg" xmlns:xlink="http://www.w3.org/1999/xlink" version="1.1">
<metadata>
Created by FontForge 20141024 at Sun Mar 22 11:09:49 2015
 By System Administrator
Copyright 2014 Google Inc. All Rights Reserved.
</metadata>
<defs>
<font id="MyanmarSquareLight" horiz-adv-x="600" >
  <font-face 
    font-family="Myanmar Square Light"
    font-weight="400"
    font-stretch="normal"
    units-per-em="1000"
    panose-1="2 0 5 0 0 0 0 0 0 0"
    ascent="750"
    descent="-250"
    bbox="-651 -370 2230 890"
    underline-thickness="150"
    underline-position="-142"
    unicode-range="U+0020-AA7B"
  />
<missing-glyph horiz-adv-x="550" 
d="M50 0v520h450v-520h-450zM77 18h396v484h-396v-484zM173 416q17 10 32 16q28 11 61 11q50 0 80.5 -17.5t30.5 -46.5q0 -17 -12.5 -35t-47.5 -47q-34 -29 -54 -48t-20 -36q0 -14 13 -48h-17q-19 35 -19 53q0 28 44.5 79.5t44.5 78.5q0 21 -18 33t-50 12q-21 0 -38 -7
q-14 -5 -30 -14v16zM208 121l31 21q6 4 11 4t12 -4l30 -22q5 -4 5 -7q0 -4 -5 -8l-31 -23q-7 -5 -11 -5q-6 0 -11 4l-33 26q-4 3 -4 6q0 4 6 8z" />
    <glyph glyph-name="u103E_102F" unicode="&#x103e;&#x102f;" horiz-adv-x="0" 
d="M-380 -20h50v-350h-136v50h86v300zM-220 -320h86v-50h-136v350h50v-300z" />
    <glyph glyph-name="u1085_1036" unicode="&#x1085;&#x1036;" horiz-adv-x="0" 
d="M-455 715q-44 25 -44 75q0 100 175 100v-50q-125 0 -125 -50t125 -50v-50q-125 0 -125 -50t125 -50v-50q-175 0 -175 100q0 50 44 75zM-194 815q93 0 93 -100t-93 -100t-93 100t93 100zM-151 715q0 50 -43 50t-43 -50t43 -50t43 50z" />
    <glyph glyph-name="u1085_102D" unicode="&#x1085;&#x102d;" horiz-adv-x="0" 
d="M-488 715q-44 25 -44 75q0 100 175 100v-50q-125 0 -125 -50t125 -50v-50q-125 0 -125 -50t125 -50v-50q-175 0 -175 100q0 50 44 75zM-203 840q-85 0 -85 -125t85 -125t85 125t-85 125zM-203 890q135 0 135 -175t-135 -175t-135 175t135 175z" />
    <glyph glyph-name="u1085_102E" unicode="&#x1085;&#x102e;" horiz-adv-x="0" 
d="M-488 715q-44 25 -44 75q0 100 175 100v-50q-125 0 -125 -50t125 -50v-50q-125 0 -125 -50t125 -50v-50q-175 0 -175 100q0 50 44 75zM-118 708v7q0 125 -85 125t-85 -125v-7q34 17 85 17t85 -17zM-280 649q19 -59 77 -59t76 58q-25 27 -76 27q-52 0 -77 -26zM-203 890
q135 0 135 -175t-135 -175t-135 175t135 175z" />
    <glyph glyph-name="u102D_1036" unicode="&#x102d;&#x1036;" horiz-adv-x="0" 
d="M-398 840q-85 0 -85 -125t85 -125t85 125t-85 125zM-398 890q135 0 135 -175t-135 -175t-135 175t135 175zM-159 815q93 0 93 -100t-93 -100t-93 100t93 100zM-116 715q0 50 -43 50t-43 -50t43 -50t43 50z" />
    <glyph glyph-name="u100D_1039_100D" unicode="&#x100d;&#x1039;&#x100d;" 
d="M55 -217l49 10q19 -33 126 -33q125 0 125 54t-125 54q-107 0 -126 -33l-49 10q25 61 175 61q175 0 175 -92t-175 -92q-81 0 -125 18v-38q48 -18 125 -18q107 0 156 33h19v-49h80v-38h-130v33q-44 -18 -125 -18q-137 1 -175 36v102zM560 -320h80v-50h-130v326
q-43 -16 -80 -16h-260q-100 0 -130 81v184h50v-25q0 -80 80 -80h260q80 0 80 80v210q0 80 -80 80h-260q-80 0 -80 -80v-25h-50v25q0 130 130 130h260q130 0 130 -130v-210q0 -130 -130 -130h-260q-49 0 -80 19v-31q16 -48 80 -48h260q76 0 130 50v-360z" />
    <glyph glyph-name="u100E_1039_100D" unicode="&#x100e;&#x1039;&#x100d;" 
d="M459 242q0 -92 -145 -92q-120 0 -145 61l49 10q19 -33 96 -33q95 0 95 54t-95 54q-77 0 -96 -33l-49 10q25 61 145 61q145 0 145 -92zM409 50v41q-44 -18 -95 -18q-107 1 -145 36l20 35q52 -32 125 -32q77 0 126 33h19v-92q51 13 51 77v260q0 80 -80 80h-45v50h45
q130 0 130 -130v-260q0 -115 -101 -128v-286h80v-38h-130v322h-239q-130 0 -130 130v130q0 71 110 103q79 23 79 52q0 30 -19 42.5t-41 12.5t-106 -44l-23 45q95 49 131 49t72 -24.5t36 -80.5q0 -67 -115 -100q-74 -21 -74 -55v-130q0 -80 80 -80h239z" />
    <glyph glyph-name="u100F_100D" unicode="&#x100f;&#x1039;&#x100d;" horiz-adv-x="1070" 
d="M520 130q0 -42 -20 -63q22 -17 45 -17t45 17q-20 21 -20 63v260q0 40 13 68q-19 12 -38 12t-38 -12q13 -28 13 -68v-260zM872 0q-28 -56 -175 -67q13 -26 13 -66v-113q0 -124 -108 -124h-122l-13 49q83 19 83 126q0 125 -145 125t-145 -125q0 -107 83 -126l-13 -49
q-120 25 -120 175q0 175 195 175t195 -175q0 -79 -33 -125h35q58 0 58 74v113q0 63 -49 63v50h75q108 0 133 20h-64v50h145q80 0 80 80v260q0 80 -80 80h-200q-80 0 -80 -80v-260q0 -38 26 -65q-16 -65 -101 -65t-101 65q26 27 26 65v260q0 80 -80 80h-220q-80 0 -80 -80
v-260q0 -80 80 -80h145v-50h-145q-130 0 -130 130v260q0 130 130 130h220q52 0 83 -21q30 21 72 21t72 -21q31 21 83 21h200q130 0 130 -130v-260q0 -130 -130 -130h-28z" />
    <glyph glyph-name="u103E_1030" unicode="&#x103e;&#x1030;" horiz-adv-x="0" 
d="M-325 -20h50v-350h-50v350zM-215 -20h50v-300h86v-50h-136v350zM-385 -370h-136v50h86v300h50v-350z" />
    <glyph glyph-name="u102B_103A" unicode="&#x102b;&#x103a;" horiz-adv-x="130" 
d="M40 667q0 133 -95 133t-95 -133h-50q0 183 145 183q85 0 120 -63q35 63 120 63q145 0 145 -183h-50q0 133 -95 133t-95 -133v-667h-50v667z" />
    <glyph glyph-name="u103D_1037" unicode="&#x103d;&#x1037;" horiz-adv-x="10" 
d="M-66 -30q95 0 95 -100t-95 -100t-95 100t95 100zM-21 -130q0 50 -45 50t-45 -50t45 -50t45 50zM-340 -70q-125 0 -125 -125t125 -125t125 125t-125 125zM-340 -20q175 0 175 -175t-175 -175t-175 175t175 175z" />
    <glyph glyph-name=".notdef" horiz-adv-x="550" 
d="M50 0v520h450v-520h-450zM77 18h396v484h-396v-484zM173 416q17 10 32 16q28 11 61 11q50 0 80.5 -17.5t30.5 -46.5q0 -17 -12.5 -35t-47.5 -47q-34 -29 -54 -48t-20 -36q0 -14 13 -48h-17q-19 35 -19 53q0 28 44.5 79.5t44.5 78.5q0 21 -18 33t-50 12q-21 0 -38 -7
q-14 -5 -30 -14v16zM208 121l31 21q6 4 11 4t12 -4l30 -22q5 -4 5 -7q0 -4 -5 -8l-31 -23q-7 -5 -11 -5q-6 0 -11 4l-33 26q-4 3 -4 6q0 4 6 8z" />
    <glyph glyph-name=".null" horiz-adv-x="0" 
 />
    <glyph glyph-name="nonmarkingreturn" horiz-adv-x="508" 
 />
    <glyph glyph-name="space" unicode=" " horiz-adv-x="250" 
 />
    <glyph glyph-name="space" unicode="&#xa0;" horiz-adv-x="250" 
 />
    <glyph glyph-name="u1000" unicode="&#x1000;" horiz-adv-x="1070" 
d="M535 479q32 41 105 41h260q130 0 130 -130v-260q0 -130 -130 -130h-145v50h145q80 0 80 80v260q0 80 -80 80h-260q-80 0 -80 -80v-260q0 -130 -130 -130h-45v50h45q80 0 80 80v260q0 80 -80 80h-260q-80 0 -80 -80v-260q0 -80 80 -80h45v-50h-45q-130 0 -130 130v260
q0 130 130 130h260q73 0 105 -41z" />
    <glyph glyph-name="u1001" unicode="&#x1001;" 
d="M372 60q-88 90 -225 90q-57 0 -57 -40q0 -60 80 -60h260q80 0 80 80v260q0 80 -80 80h-260q-80 0 -80 -80v-45h-50v45q0 130 130 130h260q130 0 130 -130v-260q0 -130 -130 -130h-260q-130 0 -130 110q0 90 107 90q156 0 273 -119z" />
    <glyph glyph-name="u1002" unicode="&#x1002;" 
d="M170 470q-80 0 -80 -80v-260q0 -80 80 -80h45v-50h-45q-130 0 -130 130v260q0 130 130 130h260q130 0 130 -130v-260q0 -130 -130 -130h-45v50h45q80 0 80 80v260q0 80 -80 80h-260z" />
    <glyph glyph-name="u1003" unicode="&#x1003;" horiz-adv-x="1070" 
d="M40 260q0 71 110 103q79 23 79 52q0 30 -19 42.5t-41 12.5t-106 -44l-23 45q95 49 131 49t72 -24.5t36 -80.5q0 -67 -115 -100q-74 -21 -74 -55v-130q0 -80 80 -80h260q80 0 80 80v260q0 80 -80 80h-45v50h45q130 0 130 -130v-260q0 -80 80 -80h260q80 0 80 80v260
q0 80 -80 80h-145v50h145q130 0 130 -130v-260q0 -130 -130 -130h-260q-73 0 -105 41q-32 -41 -105 -41h-260q-130 0 -130 130v130z" />
    <glyph glyph-name="u1004" unicode="&#x1004;" 
d="M90 130q0 -80 80 -80h260q80 0 80 80v45h50v-45q0 -130 -130 -130h-260q-130 0 -130 130v260q0 130 130 130h260q130 0 130 -130v-45h-50v45q0 80 -80 80h-260q-80 0 -80 -80v-260z" />
    <glyph glyph-name="u1005" unicode="&#x1005;" 
d="M510 390q0 80 -80 80h-260q-80 0 -80 -80v-260q0 -80 80 -80h260q80 0 80 80v260zM560 130q0 -130 -130 -130h-260q-130 0 -130 130v260q0 130 130 130h260q130 0 130 -130v-260zM200 260q0 108 -55 160l45 30q60 -65 60 -190t-60 -190l-45 30q55 52 55 160z" />
    <glyph glyph-name="u1006" unicode="&#x1006;" horiz-adv-x="1070" 
d="M560 390v-260q0 -80 80 -80h260q80 0 80 80v260q0 80 -80 80h-260q-80 0 -80 -80zM535 41q-32 -41 -105 -41h-260q-130 0 -130 110q0 90 107 90q156 0 273 -119l-48 -21q-88 90 -225 90q-57 0 -57 -40q0 -60 80 -60h260q80 0 80 80v260q0 80 -80 80h-260q-80 0 -80 -80
v-45h-50v45q0 130 130 130h260q73 0 105 -41q32 41 105 41h260q130 0 130 -130v-260q0 -130 -130 -130h-260q-73 0 -105 41z" />
    <glyph glyph-name="u1007" unicode="&#x1007;" 
d="M389 392q0 -60 60 -60q61 0 61 60t-61 60q-60 0 -60 -60zM362 470h-192q-80 0 -80 -80v-260q0 -80 80 -80h260q80 0 80 80v45h50v-45q0 -130 -130 -130h-260q-130 0 -130 130v260q0 130 130 130h185q92 0 153 -29q52 -24 52 -99q0 -87 106 -101l-6 -50q-94 12 -130 68
q-27 -27 -81 -27q-110 0 -110 110q0 51 23 78z" />
    <glyph glyph-name="u1008" unicode="&#x1008;" horiz-adv-x="730" 
d="M200 260q0 108 -55 160l45 30q60 -65 60 -190t-60 -190l-45 30q55 52 55 160zM510 390q0 80 -80 80h-260q-80 0 -80 -80v-260q0 -80 80 -80h260q80 0 80 80v260zM325 0v-192q0 -128 109 -128h97q109 0 109 128v712h50v-712q0 -178 -159 -178h-97q-159 0 -159 178v192
h-105q-130 0 -130 130v260q0 130 130 130h260q130 0 130 -130v-260q0 -130 -130 -130h-105z" />
    <glyph glyph-name="u1009" unicode="&#x1009;" 
d="M90 19v-211q0 -128 119 -128h353q118 0 118 128v152h50v-152q0 -178 -168 -178h-353q-169 0 -169 178v367h50v-45q0 -80 80 -80h260q80 0 80 80v260q0 80 -80 80h-260q-80 0 -80 -80v-45h-50v45q0 130 130 130h260q130 0 130 -130v-260q0 -130 -130 -130h-260
q-49 0 -80 19z" />
    <glyph glyph-name="u100A" unicode="&#x100a;" horiz-adv-x="1070" 
d="M510 390q0 80 -80 80h-260q-80 0 -80 -80v-45h-50v45q0 130 130 130h260q130 0 130 -130v-260q0 -80 80 -80h260q80 0 80 80v260q0 80 -80 80h-145v50h145q130 0 130 -130v-260q0 -130 -130 -130h-260q-73 0 -105 41q-32 -41 -105 -41h-260q-49 0 -80 19v-211
q0 -128 119 -128h653q118 0 118 128v152h50v-152q0 -178 -168 -178h-653q-169 0 -169 178v367h50v-45q0 -80 80 -80h260q80 0 80 80v260z" />
    <glyph glyph-name="u100B" unicode="&#x100b;" 
d="M560 -29q-30 -81 -130 -81h-260q-37 0 -80 16v-49q36 -27 80 -27h260q72 0 130 64v-214h80v-50h-130v172q-39 -22 -80 -22h-260q-77 0 -130 53v157q54 -50 130 -50h260q64 0 80 48v31q-31 -19 -80 -19h-260q-130 0 -130 130v260q0 130 130 130h260q130 0 130 -130v-45
h-50v45q0 80 -80 80h-260q-80 0 -80 -80v-260q0 -80 80 -80h260q80 0 80 80v45h50v-204z" />
    <glyph glyph-name="u100C" unicode="&#x100c;" 
d="M560 -192q0 -178 -168 -178h-183q-169 0 -169 134t169 134h123v-50h-123q-119 0 -119 -84t119 -84h183q118 0 118 128v211q-31 -19 -80 -19h-260q-130 0 -130 130v260q0 130 130 130h260q130 0 130 -130v-45h-50v45q0 80 -80 80h-260q-80 0 -80 -80v-260q0 -80 80 -80
h260q80 0 80 80v45h50v-367z" />
    <glyph glyph-name="u100D" unicode="&#x100d;" 
d="M560 -320h80v-50h-130v276q-43 -16 -80 -16h-260q-100 0 -130 81v204h50v-45q0 -80 80 -80h260q80 0 80 80v260q0 80 -80 80h-260q-80 0 -80 -80v-45h-50v45q0 130 130 130h260q130 0 130 -130v-260q0 -130 -130 -130h-260q-49 0 -80 19v-31q16 -48 80 -48h260
q76 0 130 50v-310z" />
    <glyph glyph-name="u100E" unicode="&#x100e;" 
d="M40 260q0 71 110 103q79 23 79 52q0 30 -19 42.5t-41 12.5t-106 -44l-23 45q95 49 131 49t72 -24.5t36 -80.5q0 -67 -115 -100q-74 -21 -74 -55v-130q0 -80 80 -80h260q80 0 80 80v260q0 80 -80 80h-45v50h45q130 0 130 -130v-260q0 -130 -130 -130h-260q-130 0 -130 130
v130z" />
    <glyph glyph-name="u100F" unicode="&#x100f;" horiz-adv-x="1070" 
d="M520 130q0 -42 -20 -63q22 -17 45 -17t45 17q-20 21 -20 63v260q0 40 13 68q-19 12 -38 12t-38 -12q13 -28 13 -68v-260zM90 130q0 -80 80 -80h145v-50h-145q-130 0 -130 130v260q0 130 130 130h220q52 0 83 -21q30 21 72 21t72 -21q31 21 83 21h200q130 0 130 -130v-260
q0 -130 -130 -130h-145v50h145q80 0 80 80v260q0 80 -80 80h-200q-80 0 -80 -80v-260q0 -38 26 -65q-16 -65 -101 -65t-101 65q26 27 26 65v260q0 80 -80 80h-220q-80 0 -80 -80v-260z" />
    <glyph glyph-name="u1010" unicode="&#x1010;" horiz-adv-x="1070" 
d="M560 130q0 -130 -130 -130h-260q-130 0 -130 130v260q0 130 130 130h260q73 0 105 -41q32 41 105 41h260q130 0 130 -130v-260q0 -130 -130 -130h-145v50h145q80 0 80 80v260q0 80 -80 80h-260q-80 0 -80 -80v-260zM510 390q0 80 -80 80h-260q-80 0 -80 -80v-260
q0 -80 80 -80h260q80 0 80 80v260z" />
    <glyph glyph-name="u1011" unicode="&#x1011;" horiz-adv-x="1070" 
d="M510 130v260q0 80 -80 80h-260q-80 0 -80 -80v-260q0 -80 80 -80h260q80 0 80 80zM560 130q0 -80 80 -80h260q80 0 80 80v260q0 80 -80 80h-260q-80 0 -80 -80v-260zM535 479q32 41 105 41h260q130 0 130 -130v-260q0 -130 -130 -130h-260q-73 0 -105 41
q-32 -41 -105 -41h-260q-130 0 -130 130v260q0 130 130 130h260q73 0 105 -41z" />
    <glyph glyph-name="u1012" unicode="&#x1012;" 
d="M560 130q0 -130 -130 -130h-260q-130 0 -130 130v45h50v-45q0 -80 80 -80h260q80 0 80 80v13q0 86 -130 92h-80v50h80q130 6 130 92v13q0 80 -80 80h-260q-80 0 -80 -80v-45h-50v45q0 130 130 130h260q130 0 130 -130v-13q0 -82 -87 -117q87 -34 87 -117v-13z" />
    <glyph glyph-name="u1013" unicode="&#x1013;" 
d="M170 470q-80 0 -80 -80v-260q0 -80 80 -80h260q80 0 80 80v260q0 80 -80 80h-260zM430 520q130 0 130 -130v-260q0 -130 -130 -130h-260q-130 0 -130 130v260q0 130 130 130h260zM300 160q-108 0 -160 -55l-30 45q65 60 190 60t190 -60l-30 -45q-52 55 -160 55z" />
    <glyph glyph-name="u1014" unicode="&#x1014;" 
d="M275 50v30q0 110 -105 110q-80 0 -80 -60q0 -80 80 -80h105zM325 0v-370h-50v370h-105q-130 0 -130 130q0 110 130 110q155 0 155 -160v-30h105q80 0 80 80v30q0 48 -79 69l-135 36q-156 42 -156 125q0 130 150 130q170 0 170 -140h-50q0 90 -120 90q-100 0 -100 -80
q0 -44 119 -76l135 -36q116 -32 116 -118v-30q0 -130 -130 -130h-105z" />
    <glyph glyph-name="u1015" unicode="&#x1015;" 
d="M430 50q80 0 80 80v260q0 80 -80 80h-45v50h45q130 0 130 -130v-260q0 -130 -130 -130h-260q-130 0 -130 130v260q0 130 130 130h45v-50h-45q-80 0 -80 -80v-260q0 -80 80 -80h260z" />
    <glyph glyph-name="u1016" unicode="&#x1016;" 
d="M479 140q-119 117 -119 293q0 87 70 87q130 0 130 -130v-260q0 -130 -130 -130h-260q-130 0 -130 130v260q0 130 130 130h45v-50h-45q-80 0 -80 -80v-260q0 -80 80 -80h260q80 0 80 80v260q0 80 -80 80q-20 0 -20 -37q0 -157 90 -245z" />
    <glyph glyph-name="u1017" unicode="&#x1017;" 
d="M560 130q0 -130 -130 -130h-260q-130 0 -130 130v260q0 130 130 130h45v-28q8 -67 85 -67t85 67v28h45q130 0 130 -130v-260zM90 130q0 -80 80 -80h260q80 0 80 80v260q0 80 -78 80q-17 -95 -132 -95t-132 95q-78 0 -78 -80v-260z" />
    <glyph glyph-name="u1018" unicode="&#x1018;" horiz-adv-x="1070" 
d="M560 130q0 -130 -130 -130h-260q-130 0 -130 130v45h50v-45q0 -80 80 -80h260q80 0 80 80v260q0 80 -80 80h-260q-80 0 -80 -80v-45h-50v45q0 130 130 130h260q73 0 105 -41q32 41 105 41h260q130 0 130 -130v-260q0 -130 -130 -130h-145v50h145q80 0 80 80v260
q0 80 -80 80h-260q-80 0 -80 -80v-260z" />
    <glyph glyph-name="u1019" unicode="&#x1019;" 
d="M430 50q80 0 80 80v260q0 80 -80 80h-45v50h45q130 0 130 -130v-260q0 -130 -130 -130h-260q-130 0 -130 130v260q0 130 130 130h45v-50h-45q-80 0 -80 -80v-260q0 -80 80 -80h260zM300 160q-108 0 -160 -55l-30 45q65 60 190 60t190 -60l-30 -45q-52 55 -160 55z" />
    <glyph glyph-name="u101A" unicode="&#x101a;" horiz-adv-x="1070" 
d="M430 0h-260q-130 0 -130 130v260q0 130 130 130h45v-50h-45q-80 0 -80 -80v-260q0 -80 80 -80h260q80 0 80 80v260q0 80 -80 80h-45v50h45q130 0 130 -130v-260q0 -80 80 -80h260q80 0 80 80v260q0 80 -80 80h-145v50h145q130 0 130 -130v-260q0 -130 -130 -130h-260
q-73 0 -105 41q-32 -41 -105 -41z" />
    <glyph glyph-name="u101B" unicode="&#x101b;" 
d="M510 -370v760q0 80 -80 80h-260q-80 0 -80 -80v-260q0 -80 80 -80h130q28 0 39 3q8 2 8 8q0 3 -1 6q-5 11 -22 29q-18 18 -41 30q-47 24 -118 24q-28 0 -53 -4l-16 49q32 5 69 5q103 0 165 -41q31 -20 52 -51q21 -30 21 -55q0 -26 -21.5 -39.5t-81.5 -13.5h-130
q-130 0 -130 130v260q0 130 130 130h260q130 0 130 -130v-710h80v-50h-130z" />
    <glyph glyph-name="u101C" unicode="&#x101c;" horiz-adv-x="1070" 
d="M510 390q0 80 -80 80h-260q-80 0 -80 -80v-260q0 -80 80 -80h145v-50h-145q-130 0 -130 130v260q0 130 130 130h260q130 0 130 -130v-260q0 -80 80 -80h260q80 0 80 80v260q0 80 -80 80h-145v50h145q130 0 130 -130v-260q0 -130 -130 -130h-260q-130 0 -130 130v260z" />
    <glyph glyph-name="u101D" unicode="&#x101d;" 
d="M170 470q-80 0 -80 -80v-260q0 -80 80 -80h260q80 0 80 80v260q0 80 -80 80h-260zM430 520q130 0 130 -130v-260q0 -130 -130 -130h-260q-130 0 -130 130v260q0 130 130 130h260z" />
    <glyph glyph-name="u101E" unicode="&#x101e;" horiz-adv-x="1070" 
d="M560 130q0 -80 80 -80h260q80 0 80 80v260q0 80 -80 80h-145v50h145q130 0 130 -130v-260q0 -130 -130 -130h-260q-73 0 -105 41q-32 -41 -105 -41h-260q-130 0 -130 130v45h50v-45q0 -80 80 -80h260q80 0 80 80v260q0 80 -80 80h-260q-80 0 -80 -80v-45h-50v45
q0 130 130 130h260q130 0 130 -130v-260z" />
    <glyph glyph-name="u101F" unicode="&#x101f;" horiz-adv-x="1070" 
d="M560 130q0 -130 -130 -130h-260q-130 0 -130 130v260q0 130 130 130h45v-50h-45q-80 0 -80 -80v-260q0 -80 80 -80h260q80 0 80 80v260q0 80 -80 80h-45v50h45q73 0 105 -41q32 41 105 41h260q130 0 130 -130v-260q0 -130 -130 -130h-145v50h145q80 0 80 80v260
q0 80 -80 80h-260q-80 0 -80 -80v-260z" />
    <glyph glyph-name="u1020" unicode="&#x1020;" 
d="M90 -192q0 -128 118 -128h183q119 0 119 84v84h50v-84q0 -134 -169 -134h-183q-168 0 -168 178v182q54 -50 130 -50h260q64 0 80 48v31q-31 -19 -80 -19h-260q-130 0 -130 130v260q0 130 130 130h260q130 0 130 -130v-45h-50v45q0 80 -80 80h-260q-80 0 -80 -80v-260
q0 -80 80 -80h260q80 0 80 80v45h50v-204q-30 -81 -130 -81h-260q-37 0 -80 16v-98z" />
    <glyph glyph-name="u1021" unicode="&#x1021;" horiz-adv-x="1070" 
d="M560 390v-13q0 -82 -87 -117q87 -34 87 -117v-13q0 -130 -130 -130h-260q-130 0 -130 130v45h50v-45q0 -80 80 -80h260q80 0 80 80v13q0 86 -130 92h-80v50h80q130 6 130 92v13q0 80 -80 80h-260q-80 0 -80 -80v-45h-50v45q0 130 130 130h260q73 0 105 -41q32 41 105 41
h260q130 0 130 -130v-260q0 -130 -130 -130h-130q-60 0 -81.5 13.5t-21.5 39.5q0 25 21 55q21 31 52 51q62 41 165 41q37 0 69 -5l-16 -49q-25 4 -53 4q-71 0 -118 -24q-23 -12 -41 -30q-17 -18 -22 -29q-1 -3 -1 -6q0 -6 8 -8q11 -3 39 -3h130q80 0 80 80v260q0 80 -80 80
h-260q-80 0 -80 -80z" />
    <glyph glyph-name="u1022" unicode="&#x1022;" horiz-adv-x="1070" 
d="M40 390q0 130 130 130h260q73 0 105 -41q32 41 105 41h260q130 0 130 -130v-260q0 -130 -130 -130h-145v50h145q80 0 80 80v260q0 80 -80 80h-260q-80 0 -80 -80v-260q0 -130 -130 -130h-45v50h45q80 0 80 80v260q0 80 -80 80h-260q-80 0 -80 -80v-130q0 -34 74 -55
q115 -33 115 -100q0 -56 -36 -80.5t-72 -24.5t-131 49l23 45q84 -44 106 -44t41 12.5t19 42.5q0 29 -79 52q-110 32 -110 103v130z" />
    <glyph glyph-name="u1023" unicode="&#x1023;" horiz-adv-x="1070" 
d="M690 -370v50q125 0 125 125t-125 125t-125 -125q0 -143 -114 -175l-18 48q82 19 82 127q0 125 -125 125t-125 -125q0 -108 82 -127l-18 -48q-114 32 -114 175q0 175 175 175q109 0 150 -68q41 68 150 68q175 0 175 -175q0 -81 -38 -125h88v-50h-225zM535 479
q32 41 105 41h260q130 0 130 -130v-260q0 -130 -130 -130h-145v50h145q80 0 80 80v260q0 80 -80 80h-260q-80 0 -80 -80v-260q0 -130 -130 -130h-45v50h45q80 0 80 80v260q0 80 -80 80h-260q-80 0 -80 -80v-260q0 -80 80 -80h45v-50h-45q-130 0 -130 130v260q0 130 130 130
h260q73 0 105 -41z" />
    <glyph glyph-name="u1024" unicode="&#x1024;" horiz-adv-x="1200" 
d="M1160 390v-760h-50v760q0 150 -127 150q-175 0 -175 175t175 175q144 0 170 -119l-50 -12q-19 81 -120 81q-125 0 -125 -125t125 -125q177 0 177 -200zM1030 -192q0 -178 -168 -178h-653q-169 0 -169 134t169 134h643v-50h-643q-119 0 -119 -84t119 -84h653
q118 0 118 128v582q0 80 -80 80h-260q-80 0 -80 -80v-260q0 -130 -130 -130h-45v50h45q80 0 80 80v260q0 80 -80 80h-260q-80 0 -80 -80v-260q0 -80 80 -80h45v-50h-45q-130 0 -130 130v260q0 130 130 130h260q73 0 105 -41q32 41 105 41h260q130 0 130 -130v-582z" />
    <glyph glyph-name="u1025" unicode="&#x1025;" 
d="M40 175h50v-45q0 -80 80 -80h260q80 0 80 80v260q0 80 -80 80h-260q-80 0 -80 -80v-45h-50v45q0 130 130 130h260q130 0 130 -130v-260q0 -130 -130 -130h-260q-49 0 -80 19v-211q0 -128 118 -128h183q119 0 119 84t-119 84h-123v50h123q169 0 169 -134t-169 -134h-183
q-168 0 -168 178v367z" />
    <glyph glyph-name="u1026" unicode="&#x1026;" 
d="M422 678q3 17 3 37q0 125 -125 125t-125 -125q0 -21 3 -38q37 48 122 48t122 -47zM207 621q31 -31 93 -31t93 31q-20 54 -93 54q-74 0 -93 -54zM300 890q175 0 175 -175t-175 -175t-175 175t175 175zM40 175h50v-45q0 -80 80 -80h260q80 0 80 80v260q0 80 -80 80h-260
q-80 0 -80 -80v-45h-50v45q0 130 130 130h260q130 0 130 -130v-260q0 -130 -130 -130h-260q-49 0 -80 19v-211q0 -128 118 -128h183q119 0 119 84t-119 84h-123v50h123q169 0 169 -134t-169 -134h-183q-168 0 -168 178v367z" />
    <glyph glyph-name="u1027" unicode="&#x1027;" 
d="M40 390q0 130 130 130h260q130 0 130 -110q0 -90 -107 -90q-156 0 -273 119l48 21q88 -90 225 -90q57 0 57 40q0 60 -80 60h-260q-80 0 -80 -80v-260q0 -80 80 -80h260q80 0 80 60q0 40 -57 40q-137 0 -225 -90l-48 21q117 119 273 119q107 0 107 -90q0 -110 -130 -110
h-260q-130 0 -130 130v260z" />
    <glyph glyph-name="u1028" unicode="&#x1028;" 
d="M90 -110q0 -210 210 -210t210 210h50q0 -260 -260 -260t-260 260v500q0 130 130 130h260q130 0 130 -130v-260q0 -130 -156 -130q-157 0 -157 130v102l40 19q63 28 63 59q0 40 -49 40q-51 0 -51 -48h-50q0 98 101 98q99 0 99 -90q0 -57 -86 -95l-17 -8v-77q0 -80 107 -80
q106 0 106 80v260q0 80 -80 80h-260q-80 0 -80 -80v-500z" />
    <glyph glyph-name="u1029" unicode="&#x1029;" horiz-adv-x="1200" 
d="M930 0v-192q0 -178 -168 -178h-553q-169 0 -169 178v904q0 178 169 178h593v-50h-593q-119 0 -119 -128v-904q0 -128 119 -128h553q118 0 118 128v192h-110q-73 0 -105 41q-32 -41 -105 -41h-260q-130 0 -130 130v45h50v-45q0 -80 80 -80h260q80 0 80 80v260q0 80 -80 80
h-260q-80 0 -80 -80v-45h-50v45q0 130 130 130h260q130 0 130 -130v-260q0 -80 80 -80h260q80 0 80 80v260q0 80 -80 80h-145v50h145q130 0 130 -130v-260q0 -130 -130 -130h-100z" />
    <glyph glyph-name="u102A" unicode="&#x102a;" horiz-adv-x="2270" 
d="M1963 840q-125 0 -125 -125t125 -125v-50q-175 0 -175 175t175 175q144 0 170 -119l-50 -12q-19 81 -120 81zM1530 -192q0 -178 -168 -178h-553q-169 0 -169 178v904q0 178 169 178h933v-50h-933q-119 0 -119 -128v-904q0 -128 119 -128h553q118 0 118 128v192h-110
q-73 0 -105 41q-32 -41 -105 -41h-260q-130 0 -130 130v45h50v-45q0 -80 80 -80h260q80 0 80 80v260q0 80 -80 80h-260q-80 0 -80 -80v-45h-50v45q0 130 130 130h260q130 0 130 -130v-260q0 -80 80 -80h260q80 0 80 80v260q0 80 -80 80h-145v50h145q73 0 105 -41
q32 41 105 41h260q130 0 130 -130v-260q0 -130 -130 -130h-145v50h145q80 0 80 80v260q0 80 -80 80h-260q-80 0 -80 -80v-260q0 -130 -130 -130h-100v-192zM180 81q117 119 273 119q107 0 107 -90q0 -110 -130 -110h-260q-130 0 -130 130v260q0 130 130 130h260
q130 0 130 -130v-45h-50v45q0 80 -80 80h-260q-80 0 -80 -80v-260q0 -80 80 -80h260q80 0 80 60q0 40 -57 40q-137 0 -225 -90z" />
    <glyph glyph-name="u102B" unicode="&#x102b;" horiz-adv-x="130" 
d="M-55 800q-95 0 -95 -133h-50q0 183 145 183t145 -183v-667h-50v667q0 133 -95 133z" />
    <glyph glyph-name="u102C" unicode="&#x102c;" horiz-adv-x="470" 
d="M-90 390q0 130 130 130h260q130 0 130 -130v-260q0 -130 -130 -130h-145v50h145q80 0 80 80v260q0 80 -80 80h-260q-80 0 -80 -80h-50z" />
    <glyph glyph-name="u102D" unicode="&#x102d;" horiz-adv-x="0" 
d="M-300 840q-125 0 -125 -125t125 -125t125 125t-125 125zM-300 890q175 0 175 -175t-175 -175t-175 175t175 175z" />
    <glyph glyph-name="u102E" unicode="&#x102e;" horiz-adv-x="0" 
d="M-178 678q3 17 3 37q0 125 -125 125t-125 -125q0 -21 3 -38q37 48 122 48t122 -47zM-393 621q31 -31 93 -31t93 31q-20 54 -93 54q-74 0 -93 -54zM-300 890q175 0 175 -175t-175 -175t-175 175t175 175z" />
    <glyph glyph-name="u102F" unicode="&#x102f;" horiz-adv-x="0" 
d="M-275 -320h86v-50h-136v350h50v-300z" />
    <glyph glyph-name="u1030" unicode="&#x1030;" horiz-adv-x="0" 
d="M-380 -20h50v-350h-50v350zM-270 -20h50v-300h86v-50h-136v350z" />
    <glyph glyph-name="u1031" unicode="&#x1031;" 
d="M180 81q117 119 273 119q107 0 107 -90q0 -110 -130 -110h-260q-130 0 -130 130v260q0 130 130 130h260q130 0 130 -130v-45h-50v45q0 80 -80 80h-260q-80 0 -80 -80v-260q0 -80 80 -80h260q80 0 80 60q0 40 -57 40q-137 0 -225 -90z" />
    <glyph glyph-name="u1032" unicode="&#x1032;" horiz-adv-x="0" 
d="M-469 849l35 36l304 -304l-35 -36z" />
    <glyph glyph-name="u1033" unicode="&#x1033;" horiz-adv-x="0" 
d="M-300 840q-125 0 -125 -125t125 -125t125 125t-125 125zM-300 890q175 0 175 -175t-175 -175t-175 175t175 175zM-300 790q75 0 75 -75t-75 -75t-75 75t75 75zM-275 715q0 25 -25 25t-25 -25t25 -25t25 25z" />
    <glyph glyph-name="u1034" unicode="&#x1034;" horiz-adv-x="0" 
d="M-434 545l-35 36l304 304l35 -36z" />
    <glyph glyph-name="u1035" unicode="&#x1035;" horiz-adv-x="0" 
d="M-294 540q-175 0 -175 175t175 175q129 0 163 -95l-49 -17q-26 62 -114 62q-125 0 -125 -125q0 -21 3 -38q37 48 122 48t122 -47q31 -40 31 -63q0 -5 -2 -9q-9 -22 -49 -44t-102 -22zM-387 621q31 -31 93 -31t93 31q-20 54 -93 54q-74 0 -93 -54z" />
    <glyph glyph-name="u1036" unicode="&#x1036;" horiz-adv-x="0" 
d="M-300 740q100 0 100 -100t-100 -100t-100 100t100 100zM-250 640q0 50 -50 50t-50 -50t50 -50t50 50z" />
    <glyph glyph-name="u1037" unicode="&#x1037;" horiz-adv-x="0" 
d="M-300 -50q100 0 100 -100t-100 -100t-100 100t100 100zM-250 -150q0 50 -50 50t-50 -50t50 -50t50 50z" />
    <glyph glyph-name="u1038" unicode="&#x1038;" horiz-adv-x="280" 
d="M140 220q100 0 100 -100t-100 -100t-100 100t100 100zM190 120q0 50 -50 50t-50 -50t50 -50t50 50zM140 500q100 0 100 -100t-100 -100t-100 100t100 100zM190 400q0 50 -50 50t-50 -50t50 -50t50 50z" />
    <glyph glyph-name="u1039" unicode="&#x1039;" horiz-adv-x="0" 
d="M-325 -160h-90v50h90v90h50v-90h90v-50h-90v-90h-50v90z" />
    <glyph glyph-name="u103A" unicode="&#x103a;" horiz-adv-x="0" 
d="M-297 840q-125 0 -125 -125t125 -125v-50q-175 0 -175 175t175 175q144 0 170 -119l-50 -12q-19 81 -120 81z" />
    <glyph glyph-name="u103B" unicode="&#x103b;" horiz-adv-x="130" 
d="M40 -370l-235 122v228h50v-197l185 -96v833h50v-859z" />
    <glyph glyph-name="u103C" unicode="&#x103c;" horiz-adv-x="130" 
d="M522 -320q118 0 118 128v292h50v-292q0 -178 -168 -178h-313q-169 0 -169 178v904q0 178 169 178h313q168 0 168 -178v-112h-50v112q0 128 -118 128h-313q-119 0 -119 -128v-904q0 -128 119 -128h313z" />
    <glyph glyph-name="u103D" unicode="&#x103d;" horiz-adv-x="0" 
d="M-300 -70q-125 0 -125 -125t125 -125t125 125t-125 125zM-300 -20q175 0 175 -175t-175 -175t-175 175t175 175z" />
    <glyph glyph-name="u103E" unicode="&#x103e;" horiz-adv-x="0" 
d="M-325 -20h50v-350h-136v50h86v300z" />
    <glyph glyph-name="u103F" unicode="&#x103f;" horiz-adv-x="1540" 
d="M1005 41q-32 -41 -105 -41h-260q-73 0 -105 41q-32 -41 -105 -41h-260q-130 0 -130 130v45h50v-45q0 -80 80 -80h260q80 0 80 80v260q0 80 -80 80h-260q-80 0 -80 -80v-45h-50v45q0 130 130 130h260q130 0 130 -130v-260q0 -80 80 -80h260q80 0 80 80v260q0 80 -80 80
h-145v50h145q130 0 130 -130v-260q0 -80 80 -80h260q80 0 80 80v260q0 80 -80 80h-145v50h145q130 0 130 -130v-260q0 -130 -130 -130h-260q-73 0 -105 41z" />
    <glyph glyph-name="u1040" unicode="&#x1040;" 
d="M170 470q-80 0 -80 -80v-260q0 -80 80 -80h260q80 0 80 80v260q0 80 -80 80h-260zM430 520q130 0 130 -130v-260q0 -130 -130 -130h-260q-130 0 -130 130v260q0 130 130 130h260z" />
    <glyph glyph-name="u1041" unicode="&#x1041;" 
d="M510 390q0 80 -80 80h-260q-80 0 -80 -80v-45h-50v45q0 130 130 130h260q130 0 130 -130v-260q0 -130 -130 -130h-260q-130 0 -130 130v45h50v-45q0 -80 80 -80h260q80 0 80 80v260z" />
    <glyph glyph-name="u1042" unicode="&#x1042;" 
d="M510 -40v560h50v-560q0 -260 -260 -260t-260 260h50q0 -210 210 -210t210 210z" />
    <glyph glyph-name="u1043" unicode="&#x1043;" 
d="M230 0l239 -239l-35 -36l-275 275q-119 6 -119 130v45h50v-45q0 -80 80 -80h260q80 0 80 80v260q0 80 -80 80h-260q-80 0 -80 -80v-45h-50v45q0 130 130 130h260q130 0 130 -130v-260q0 -130 -130 -130h-200z" />
    <glyph glyph-name="u1044" unicode="&#x1044;" 
d="M170 0q-130 0 -130 130v260q0 130 130 130h260q130 0 130 -130v-45h-50v45q0 80 -80 80h-260q-80 0 -80 -80v-260q0 -80 80 -80h260q80 0 80 80v45h50v-45q0 -124 -119 -130l-275 -275l-35 36l239 239h-200z" />
    <glyph glyph-name="u1045" unicode="&#x1045;" 
d="M140 310q-50 0 -50 -50t50 -50t50 50t-50 50zM560 -40q0 -260 -260 -260t-260 260h50q0 -210 210 -210t210 210v430q0 80 -80 80h-260q-80 0 -80 -80v-39q21 9 50 9q100 0 100 -100t-100 -100t-100 100q0 13 2 24h-2v106q0 130 130 130h260q130 0 130 -130v-430z" />
    <glyph glyph-name="u1046" unicode="&#x1046;" 
d="M510 560q0 210 -210 210t-210 -210v-430q0 -80 80 -80h260q80 0 80 80v177l-37 13q-113 33 -113 100q0 90 99 90q101 0 101 -98h-50q0 48 -51 48q-49 0 -49 -40q0 -31 90 -59l60 -19v-212q0 -130 -130 -130h-260q-130 0 -130 130v430q0 260 260 260t260 -260h-50z" />
    <glyph glyph-name="u1047" unicode="&#x1047;" 
d="M90 290q0 -149 135 -182l-15 -48q-170 40 -170 230v100q0 130 130 130h260q130 0 130 -130v-130q0 -134 -149 -239q-161 -114 -161 -221q0 -50 60 -50t60 50v50h50v-50q0 -100 -110 -100t-110 100q0 132 183 261q127 90 127 199v130q0 80 -80 80h-260q-80 0 -80 -80v-100
z" />
    <glyph glyph-name="u1048" unicode="&#x1048;" 
d="M121 380q119 -117 119 -293q0 -87 -70 -87q-130 0 -130 130v260q0 130 130 130h260q130 0 130 -130v-260q0 -130 -130 -130h-45v50h45q80 0 80 80v260q0 80 -80 80h-260q-80 0 -80 -80v-260q0 -80 80 -80q20 0 20 37q0 157 -90 245z" />
    <glyph glyph-name="u1049" unicode="&#x1049;" 
d="M560 -40q0 -260 -260 -260t-260 260v430q0 130 130 130h260q130 0 130 -130v-212l-60 -19q-90 -28 -90 -59q0 -40 49 -40q51 0 51 48h50q0 -98 -101 -98q-99 0 -99 90q0 67 113 100l37 13v177q0 80 -80 80h-260q-80 0 -80 -80v-430q0 -210 210 -210t210 210h50z" />
    <glyph glyph-name="u104A" unicode="&#x104a;" horiz-adv-x="130" 
d="M90 520v-520h-50v520h50z" />
    <glyph glyph-name="u104B" unicode="&#x104b;" horiz-adv-x="240" 
d="M200 520v-520h-50v520h50zM90 520v-520h-50v520h50z" />
    <glyph glyph-name="u104C" unicode="&#x104c;" 
d="M303 840q-125 0 -125 -125t125 -125v-50q-175 0 -175 175t175 175q144 0 170 -119l-50 -12q-19 81 -120 81zM560 -192q0 -178 -168 -178h-183q-169 0 -169 134v54h50v-54q0 -84 119 -84h183q118 0 118 128v98q-43 -16 -80 -16h-260q-100 0 -130 81v204h50v-45
q0 -80 80 -80h260q80 0 80 80v260q0 80 -80 80h-260q-80 0 -80 -80v-45h-50v45q0 130 130 130h260q130 0 130 -130v-260q0 -130 -130 -130h-260q-49 0 -80 19v-31q16 -48 80 -48h260q76 0 130 50v-182z" />
    <glyph glyph-name="u104D" unicode="&#x104d;" horiz-adv-x="730" 
d="M640 390q0 150 -127 150q-175 0 -175 175t175 175q144 0 170 -119l-50 -12q-19 81 -120 81q-125 0 -125 -125t125 -125q177 0 177 -200v-582q0 -178 -168 -178h-313q-169 0 -169 134t169 134h233v-50h-233q-119 0 -119 -84t119 -84h313q118 0 118 128v582zM510 390
q0 80 -80 80h-260q-80 0 -80 -80v-260q0 -80 80 -80h130q28 0 39 3q8 2 8 8q0 3 -1 6q-5 11 -22 29q-18 18 -41 30q-47 24 -118 24q-28 0 -53 -4l-16 49q32 5 69 5q103 0 165 -41q31 -20 52 -51q21 -30 21 -55q0 -26 -21.5 -39.5t-81.5 -13.5h-130q-130 0 -130 130v260
q0 130 130 130h260q130 0 130 -130v-644h-50v644z" />
    <glyph glyph-name="u104E" unicode="&#x104e;" 
d="M560 -370h-50v389q-31 -19 -80 -19h-260q-130 0 -130 130v260q0 130 130 130h260q130 0 130 -130v-45h-50v45q0 80 -80 80h-260q-80 0 -80 -80v-260q0 -80 80 -80h260q80 0 80 80v45h50v-545z" />
    <glyph glyph-name="u104F" unicode="&#x104f;" horiz-adv-x="860" 
d="M770 390q0 150 -127 150q-175 0 -175 175t175 175q144 0 170 -119l-50 -12q-19 81 -120 81q-125 0 -125 -125t125 -125q177 0 177 -200v-390h-50v390zM522 497q24 23 68 23q100 0 100 -130v-390h-50v390q0 80 -50 80q-24 0 -36 -17q6 -19 6 -43q0 -90 -107 -90
q-156 0 -273 119l48 21q88 -90 225 -90q57 0 57 40q0 60 -80 60h-260q-80 0 -80 -80v-260q0 -80 80 -80h260q80 0 80 60q0 40 -57 40q-137 0 -225 -90l-48 21q117 119 273 119q107 0 107 -90q0 -110 -130 -110h-260q-130 0 -130 130v260q0 130 130 130h260q60 0 92 -23z" />
    <glyph glyph-name="u1050" unicode="&#x1050;" 
d="M300 295q35 0 35 -35t-35 -35t-35 35t35 35zM170 470q-80 0 -80 -80v-260q0 -80 80 -80h45v-50h-45q-130 0 -130 130v260q0 130 130 130h260q130 0 130 -130v-260q0 -130 -130 -130h-45v50h45q80 0 80 80v260q0 80 -80 80h-260z" />
    <glyph glyph-name="u1051" unicode="&#x1051;" 
d="M265 260q0 35 35 35t35 -35t-35 -35t-35 35zM430 50q80 0 80 80v260q0 80 -80 80h-45v50h45q130 0 130 -130v-260q0 -130 -130 -130h-260q-130 0 -130 130v260q0 130 130 130h45v-50h-45q-80 0 -80 -80v-260q0 -80 80 -80h260z" />
    <glyph glyph-name="u1052" unicode="&#x1052;" 
d="M560 130q0 -130 -130 -130h-260q-130 0 -130 130v260q0 130 130 130h45v-50h-45q-80 0 -80 -80v-260q0 -80 80 -80h260q80 0 80 80v130q0 34 -74 55q-115 33 -115 100q0 56 36 80.5t72 24.5t131 -49l-23 -45q-84 44 -106 44t-41 -12.5t-19 -42.5q0 -29 79 -52
q110 -32 110 -103v-130z" />
    <glyph glyph-name="u1053" unicode="&#x1053;" 
d="M430 50q80 0 80 80v130q0 34 -74 55q-115 33 -115 100q0 56 36 80.5t72 24.5t131 -49l-23 -45q-84 44 -106 44t-41 -12.5t-19 -42.5q0 -29 79 -52q110 -32 110 -103v-130q0 -130 -130 -130h-260q-130 0 -130 130v130q0 71 110 103q79 23 79 52q0 30 -19 42.5t-41 12.5
t-106 -44l-23 45q95 49 131 49t72 -24.5t36 -80.5q0 -67 -115 -100q-74 -21 -74 -55v-130q0 -80 80 -80h260z" />
    <glyph glyph-name="u1054" unicode="&#x1054;" 
d="M228 460q88 -90 225 -90q57 0 57 40q0 60 -80 60h-260q-80 0 -80 -80v-260q0 -80 80 -80h260q80 0 80 80v45h50v-45q0 -130 -130 -130h-260q-130 0 -130 130v260q0 130 130 130h260q130 0 130 -110q0 -90 -107 -90q-156 0 -273 119z" />
    <glyph glyph-name="u1055" unicode="&#x1055;" 
d="M170 0q-130 0 -130 130v260q0 130 130 130h260q130 0 130 -110q0 -90 -107 -90q-156 0 -273 119l48 21q88 -90 225 -90q57 0 57 40q0 60 -80 60h-260q-80 0 -80 -80v-260q0 -80 80 -80h13q86 0 92 125h50q6 -125 92 -125h13q80 0 80 80v45h50v-45q0 -130 -130 -130h-13
q-82 0 -117 87q-34 -87 -117 -87h-13z" />
    <glyph glyph-name="u1056" unicode="&#x1056;" horiz-adv-x="470" 
d="M430 130q0 -130 -130 -130h-260q-130 0 -130 130v45h50v-45q0 -80 80 -80h260q80 0 80 80v130q0 34 -74 55q-115 33 -115 100q0 56 36 80.5t72 24.5t131 -49l-23 -45q-84 44 -106 44t-41 -12.5t-19 -42.5q0 -29 79 -52q110 -32 110 -103v-130z" />
    <glyph glyph-name="u1057" unicode="&#x1057;" horiz-adv-x="470" 
d="M380 130v130q0 34 -74 55q-115 33 -115 100q0 56 36 80.5t72 24.5t131 -49l-23 -45q-84 44 -106 44t-41 -12.5t-19 -42.5q0 -29 79 -52q110 -32 110 -103v-130q0 -130 -130 -130h-13q-83 0 -117 87q-35 -87 -117 -87h-13q-130 0 -130 130v45h50v-45q0 -80 80 -80h13
q86 0 92 125h50q6 -125 92 -125h13q80 0 80 80z" />
    <glyph glyph-name="u1058" unicode="&#x1058;" horiz-adv-x="0" 
d="M-143 -86q2 -4 2 -9q0 -23 -31 -63q-37 -47 -122 -47t-122 48q-3 -17 -3 -38q0 -125 125 -125q88 0 114 62l49 -17q-34 -95 -163 -95q-175 0 -175 175t175 175q62 0 102 -22t49 -44zM-294 -155q73 0 93 54q-31 31 -93 31t-93 -31q19 -54 93 -54z" />
    <glyph glyph-name="u1059" unicode="&#x1059;" horiz-adv-x="0" 
d="M-294 -155q73 0 93 54q-31 31 -93 31t-93 -31q19 -54 93 -54zM-294 -339q-25 -31 -75 -31q-100 0 -100 175t175 175q62 0 102 -22t49 -44q2 -4 2 -9q0 -23 -31 -63q-37 -47 -122 -47t-122 48q-3 -17 -3 -38q0 -125 50 -125t50 75h50q0 -75 50 -75t50 75h50
q0 -125 -100 -125q-50 0 -75 31z" />
    <glyph glyph-name="u105A" unicode="&#x105a;" 
d="M365 -125q0 55 -65 55t-65 -55h-50q0 105 115 105t115 -105q0 -63 -65 -95t-65 -51q0 -49 65 -49h33v-50h-33q-115 0 -115 99q0 50 65 79t65 67zM90 130q0 -80 80 -80h260q80 0 80 80v45h50v-45q0 -130 -130 -130h-260q-130 0 -130 130v260q0 130 130 130h260
q130 0 130 -130v-45h-50v45q0 80 -80 80h-260q-80 0 -80 -80v-260z" />
    <glyph glyph-name="u105B" unicode="&#x105b;" horiz-adv-x="730" 
d="M389 392q0 -60 60 -60q61 0 61 60t-61 60q-60 0 -60 -60zM640 296v224h50v-712q0 -178 -159 -178h-97q-159 0 -159 178v192h-105q-130 0 -130 130v260q0 130 130 130h185q92 0 153 -29q52 -24 52 -99q0 -76 80 -96zM325 0v-192q0 -128 109 -128h97q109 0 109 128v436
q-78 15 -110 65q-27 -27 -81 -27q-110 0 -110 110q0 51 23 78h-192q-80 0 -80 -80v-260q0 -80 80 -80h260q80 0 80 80v45h50v-45q0 -130 -130 -130h-105z" />
    <glyph glyph-name="u105C" unicode="&#x105c;" 
d="M300 360q100 0 100 -100t-100 -100t-100 100t100 100zM350 260q0 50 -50 50t-50 -50t50 -50t50 50zM170 470q-80 0 -80 -80v-260q0 -80 80 -80h260q80 0 80 80v260q0 80 -80 80h-260zM430 520q130 0 130 -130v-260q0 -130 -130 -130h-260q-130 0 -130 130v260
q0 130 130 130h260z" />
    <glyph glyph-name="u105D" unicode="&#x105d;" 
d="M528 33q32 -44 32 -121v-104q0 -178 -168 -178h-183q-169 0 -169 134t169 134h123v-50h-123q-119 0 -119 -84t119 -84h183q118 0 118 128v104q0 63 -28 95q-23 -7 -52 -7h-260q-130 0 -130 130v260q0 130 130 130h45v-50h-45q-80 0 -80 -80v-260q0 -80 80 -80h260
q80 0 80 80v260q0 80 -80 80h-45v50h45q130 0 130 -130v-260q0 -64 -32 -97zM300 160q-108 0 -160 -55l-30 45q65 60 190 60t190 -60l-30 -45q-52 55 -160 55z" />
    <glyph glyph-name="u105E" unicode="&#x105e;" horiz-adv-x="0" 
d="M-90 -152h-301q-119 0 -119 -84t119 -84h183q118 0 118 128v40zM-40 -102h80v-50h-80v-40q0 -178 -168 -178h-183q-169 0 -169 134t169 134h301v14q0 76 -41 106l37 39q54 -44 54 -145v-14z" />
    <glyph glyph-name="u105F" unicode="&#x105f;" horiz-adv-x="0" 
d="M-270 -101q-135 0 -135 -92q0 -112 105 -112t105 117h50q0 -167 -155 -167t-155 162q0 124 173 138v55l52 -1v-101z" />
    <glyph glyph-name="u1060" unicode="&#x1060;" horiz-adv-x="0" 
d="M-377 -250h226v-50h-277l-21 41l175 213l39 -31z" />
    <glyph glyph-name="u1061" unicode="&#x1061;" 
d="M403 -370h-136v50h86v324q-21 -4 -53 -4h-130q-130 0 -130 130v260q0 130 130 130h260q130 0 130 -130v-710h80v-50h-130v760q0 80 -80 80h-260q-80 0 -80 -80v-260q0 -80 80 -80h130q28 0 39 3q8 2 8 8q0 3 -1 6q-5 11 -22 29q-18 18 -41 30q-47 24 -118 24
q-28 0 -53 -4l-16 49q32 5 69 5q103 0 165 -41q31 -20 52 -51q21 -30 21 -55v-423z" />
    <glyph glyph-name="u1062" unicode="&#x1062;" horiz-adv-x="130" 
d="M90 0h-50v470h-80v50h130v-520z" />
    <glyph glyph-name="u1063" unicode="&#x1063;" 
d="M40 175h50v-45q0 -80 80 -80h260q80 0 80 80v260q0 80 -80 80h-260q-80 0 -80 -80v-45h-50v45q0 130 130 130h260q130 0 130 -130v-260q0 -130 -130 -130h-260q-49 0 -80 19v-389h-50v545z" />
    <glyph glyph-name="u1064" unicode="&#x1064;" horiz-adv-x="130" 
d="M90 50h80v-50h-130v470h-80v50h130v-470z" />
    <glyph glyph-name="u1065" unicode="&#x1065;" 
d="M510 390q0 80 -80 80h-260q-80 0 -80 -80v-45h-50v45q0 130 130 130h260q130 0 130 -130v-260q0 -130 -130 -130h-260q-130 0 -130 130v45h50v-45q0 -80 80 -80h260q80 0 80 80v260z" />
    <glyph glyph-name="u1066" unicode="&#x1066;" 
d="M411 0v-370h-136v50h86v320h-191q-130 0 -130 130v260q0 130 130 130h45v-50h-45q-80 0 -80 -80v-260q0 -80 80 -80h260q80 0 80 80v260q0 80 -80 80h-45v50h45q130 0 130 -130v-260q0 -130 -130 -130h-19z" />
    <glyph glyph-name="u1067" unicode="&#x1067;" horiz-adv-x="220" 
d="M130 100q0 50 -50 50t-50 -50t50 -50t50 50zM180 100q0 -100 -100 -100t-100 100t100 100q29 0 50 -9v329h50v-420z" />
    <glyph glyph-name="u1068" unicode="&#x1068;" horiz-adv-x="130" 
d="M90 0h-130v50h80v470h50v-520zM65 740q100 0 100 -100t-100 -100t-100 100t100 100zM115 640q0 50 -50 50t-50 -50t50 -50t50 50z" />
    <glyph glyph-name="u1069" unicode="&#x1069;" horiz-adv-x="292" 
d="M90 133q0 -83 117 -83h45v-50h-45q-167 0 -167 133q0 89 81 137.5t81 115.5q0 84 -117 84h-45v50h45q167 0 167 -134q0 -89 -81 -137.5t-81 -115.5z" />
    <glyph glyph-name="u106A" unicode="&#x106a;" horiz-adv-x="130" 
d="M-15 50q55 0 55 73v397h50v-397q0 -123 -105 -123t-105 123h50q0 -73 55 -73z" />
    <glyph glyph-name="u106B" unicode="&#x106b;" horiz-adv-x="130" 
d="M-70 397h-50q0 123 105 123t105 -123v-397h-50v397q0 73 -55 73t-55 -73z" />
    <glyph glyph-name="u106C" unicode="&#x106c;" horiz-adv-x="130" 
d="M40 520h50v-397q0 -73 55 -73t55 73h50q0 -123 -105 -123t-105 123v397z" />
    <glyph glyph-name="u106D" unicode="&#x106d;" horiz-adv-x="292" 
d="M40 386q0 134 167 134h45v-50h-45q-117 0 -117 -84q0 -67 81 -115.5t81 -137.5q0 -133 -167 -133h-45v50h45q117 0 117 83q0 67 -81 115.5t-81 137.5z" />
    <glyph glyph-name="u106E" unicode="&#x106e;" horiz-adv-x="1250" 
d="M170 470q-80 0 -80 -80v-260q0 -80 80 -80h45v-50h-45q-130 0 -130 130v260q0 130 130 130h440q73 0 105 -41q32 41 105 41h260q130 0 130 -130v-260q0 -130 -130 -130h-145v50h145q80 0 80 80v260q0 80 -80 80h-260q-80 0 -80 -80v-260q0 -130 -130 -130v50q80 0 80 80
v260q0 80 -80 80h-69q19 -31 19 -80v-260q0 -130 -130 -130h-45v50h45q80 0 80 80v260q0 80 -80 80h-260z" />
    <glyph glyph-name="u106F" unicode="&#x106f;" horiz-adv-x="1070" 
d="M825 0v-370h-136v50h86v320h-20v50h145q80 0 80 80v260q0 80 -80 80h-260q-80 0 -80 -80v-260q0 -130 -130 -130h-260q-130 0 -130 130v260q0 130 130 130h45v-50h-45q-80 0 -80 -80v-260q0 -80 80 -80h260q80 0 80 80v260q0 80 -80 80h-45v50h45q73 0 105 -41
q32 41 105 41h260q130 0 130 -130v-260q0 -130 -130 -130h-75z" />
    <glyph glyph-name="u1070" unicode="&#x1070;" horiz-adv-x="1070" 
d="M815 0v-370h-136v50h86v320h-125q-73 0 -105 41q-32 -41 -105 -41h-260q-130 0 -130 130v130q0 71 110 103q79 23 79 52q0 30 -19 42.5t-41 12.5t-106 -44l-23 45q95 49 131 49t72 -24.5t36 -80.5q0 -67 -115 -100q-74 -21 -74 -55v-130q0 -80 80 -80h260q80 0 80 80v260
q0 80 -80 80h-45v50h45q130 0 130 -130v-260q0 -80 80 -80h260q80 0 80 80v260q0 80 -80 80h-145v50h145q130 0 130 -130v-260q0 -130 -130 -130h-85z" />
    <glyph glyph-name="u1071" unicode="&#x1071;" horiz-adv-x="0" 
d="M-193 825q93 0 93 -100t-93 -100t-93 100t93 100zM-150 725q0 50 -43 50t-43 -50t43 -50t43 50zM-407 825q93 0 93 -100t-93 -100t-93 100t93 100zM-364 725q0 50 -43 50t-43 -50t43 -50t43 50z" />
    <glyph glyph-name="u1072" unicode="&#x1072;" horiz-adv-x="0" 
d="M-420 715q0 -125 125 -125q93 0 117 70l48 -19q-32 -101 -165 -101q-175 0 -175 175t175 175q133 0 165 -101l-48 -19q-24 70 -117 70q-125 0 -125 -125z" />
    <glyph glyph-name="u1073" unicode="&#x1073;" horiz-adv-x="0" 
d="M-300 849l264 -264l-36 -35l-228 228l-229 -228l-35 35z" />
    <glyph glyph-name="u1074" unicode="&#x1074;" horiz-adv-x="0" 
d="M-300 595q125 0 125 125q0 93 -70 117l19 48q101 -32 101 -165q0 -175 -175 -175t-175 175q0 133 101 165l19 -48q-70 -24 -70 -117q0 -125 125 -125z" />
    <glyph glyph-name="u1075" unicode="&#x1075;" 
d="M40 390q0 130 130 130h260q130 0 130 -130v-260q0 -130 -130 -130h-45v50h45q80 0 80 80v260q0 80 -80 80h-260q-80 0 -80 -80v-130q0 -34 74 -55q115 -33 115 -100q0 -56 -36 -80.5t-72 -24.5t-131 49l23 45q84 -44 106 -44t41 12.5t19 42.5q0 29 -79 52
q-110 32 -110 103v130z" />
    <glyph glyph-name="u1076" unicode="&#x1076;" 
d="M40 353q-70 18 -70 118v49h50v-49q0 -45 21 -62q9 111 129 111h260q130 0 130 -130v-260q0 -130 -130 -130h-260q-130 0 -130 110q0 90 107 90q156 0 273 -119l-48 -21q-88 90 -225 90q-57 0 -57 -40q0 -60 80 -60h260q80 0 80 80v260q0 80 -80 80h-260q-80 0 -80 -80
v-45h-50v8z" />
    <glyph glyph-name="u1077" unicode="&#x1077;" 
d="M170 470q-80 0 -80 -80v-130q0 -34 74 -55q115 -33 115 -100q0 -56 -36 -80.5t-72 -24.5t-131 49l23 45q84 -44 106 -44t41 12.5t19 42.5q0 29 -79 52q-110 32 -110 103v130q0 130 130 130h260q130 0 130 -130v-260q0 -130 -130 -130q-70 0 -70 87q0 176 119 293l21 -48
q-90 -88 -90 -245q0 -37 20 -37q80 0 80 80v260q0 80 -80 80h-260z" />
    <glyph glyph-name="u1078" unicode="&#x1078;" horiz-adv-x="1070" 
d="M510 390q0 80 -80 80h-260q-80 0 -80 -80v-260q0 -80 80 -80h145v-50h-145q-130 0 -130 130v260q0 130 130 130h260q73 0 105 -41q32 41 105 41h260q130 0 130 -130v-260q0 -130 -130 -130h-260q-130 0 -130 130v260zM560 130q0 -80 80 -80h260q80 0 80 80v260
q0 80 -80 80h-260q-80 0 -80 -80v-260z" />
    <glyph glyph-name="u1079" unicode="&#x1079;" horiz-adv-x="1070" 
d="M560 130q0 -80 80 -80h260q80 0 80 80v260q0 80 -80 80h-260q-80 0 -80 -80v-260zM430 520q73 0 105 -41q32 41 105 41h260q130 0 130 -130v-260q0 -130 -130 -130h-260q-130 0 -130 130v260q0 80 -80 80h-260q-80 0 -80 -80v-260q0 -80 80 -80h130q28 0 39 3q8 2 8 8
q0 3 -1 6q-5 11 -22 29q-18 18 -41 30q-47 24 -118 24q-28 0 -53 -4l-16 49q32 5 69 5q103 0 165 -41q31 -20 52 -51q21 -30 21 -55q0 -26 -21.5 -39.5t-81.5 -13.5h-130q-130 0 -130 130v260q0 130 130 130h260z" />
    <glyph glyph-name="u107A" unicode="&#x107a;" horiz-adv-x="1070" 
d="M560 19v-339h86v-50h-136v760q0 80 -80 80h-260q-80 0 -80 -80v-260q0 -80 80 -80h145v-50h-145q-130 0 -130 130v260q0 130 130 130h260q130 0 130 -130v-260q0 -80 80 -80h260q80 0 80 80v260q0 80 -80 80h-145v50h145q130 0 130 -130v-260q0 -130 -130 -130h-260
q-49 0 -80 19z" />
    <glyph glyph-name="u107B" unicode="&#x107b;" horiz-adv-x="1070" 
d="M510 390q0 80 -80 80h-260q-80 0 -80 -80v-260q0 -80 80 -80h260q80 0 80 80v260zM900 520q130 0 130 -130v-260q0 -130 -130 -130h-130q-60 0 -81.5 13.5t-21.5 39.5q0 25 21 55q21 31 52 51q62 41 165 41q37 0 69 -5l-16 -49q-25 4 -53 4q-71 0 -118 -24
q-23 -12 -41 -30q-17 -18 -22 -29q-1 -3 -1 -6q0 -6 8 -8q11 -3 39 -3h130q80 0 80 80v260q0 80 -80 80h-260q-80 0 -80 -80v-260q0 -130 -130 -130h-260q-130 0 -130 130v260q0 130 130 130h260q73 0 105 -41q32 41 105 41h260z" />
    <glyph glyph-name="u107C" unicode="&#x107c;" horiz-adv-x="1070" 
d="M560 130q0 -80 80 -80h260q80 0 80 60q0 40 -57 40q-137 0 -225 -90l-48 21q117 119 273 119q107 0 107 -90q0 -110 -130 -110h-260q-73 0 -105 41q-32 -41 -105 -41h-260q-130 0 -130 110q0 90 107 90q156 0 273 -119l-48 -21q-88 90 -225 90q-57 0 -57 -40
q0 -60 80 -60h260q80 0 80 80v260q0 80 -80 80h-260q-80 0 -80 -80v-45h-50v45q0 130 130 130h260q73 0 105 -41q32 41 105 41h260q130 0 130 -130v-45h-50v45q0 80 -80 80h-260q-80 0 -80 -80v-260z" />
    <glyph glyph-name="u107D" unicode="&#x107d;" horiz-adv-x="1070" 
d="M535 41q-32 -41 -105 -41h-260q-130 0 -130 130v130q0 71 110 103q79 23 79 52q0 30 -19 42.5t-41 12.5t-106 -44l-23 45q95 49 131 49t72 -24.5t36 -80.5q0 -67 -115 -100q-74 -21 -74 -55v-130q0 -80 80 -80h260q80 0 80 80v260q0 130 130 130h260q130 0 130 -130v-45
h-50v45q0 80 -80 80h-260q-80 0 -80 -80v-260q0 -80 80 -80h260q80 0 80 60q0 40 -57 40q-137 0 -225 -90l-48 21q117 119 273 119q107 0 107 -90q0 -110 -130 -110h-260q-73 0 -105 41z" />
    <glyph glyph-name="u107E" unicode="&#x107e;" horiz-adv-x="1070" 
d="M795 0v-370h-136v50h86v320h-105q-73 0 -105 41q-32 -41 -105 -41h-260q-130 0 -130 130v130q0 71 110 103q79 23 79 52q0 30 -19 42.5t-41 12.5t-106 -44l-23 45q95 49 131 49t72 -24.5t36 -80.5q0 -67 -115 -100q-74 -21 -74 -55v-130q0 -80 80 -80h260q80 0 80 80v260
q0 130 130 130h260q130 0 130 -130v-45h-50v45q0 80 -80 80h-260q-80 0 -80 -80v-260q0 -80 80 -80h260q80 0 80 60q0 40 -57 40q-137 0 -225 -90l-48 21q117 119 273 119q107 0 107 -90q0 -110 -130 -110h-105z" />
    <glyph glyph-name="u107F" unicode="&#x107f;" 
d="M100 188q90 88 90 245q0 37 -20 37q-80 0 -80 -80v-260q0 -80 80 -80h260q80 0 80 80v260q0 80 -80 80h-45v50h45q130 0 130 -130v-260q0 -130 -130 -130h-260q-130 0 -130 130v260q0 130 130 130q70 0 70 -87q0 -176 -119 -293z" />
    <glyph glyph-name="u1080" unicode="&#x1080;" horiz-adv-x="1070" 
d="M535 41q-32 -41 -105 -41h-260q-130 0 -130 110q0 90 107 90q156 0 273 -119l-48 -21q-88 90 -225 90q-57 0 -57 -40q0 -60 80 -60h260q80 0 80 80v260q0 80 -80 80h-260q-80 0 -80 -80v-45h-50v45q0 130 130 130h260q130 0 130 -130v-260q0 -80 80 -80h260q80 0 80 80
v260q0 80 -80 80h-145v50h145q130 0 130 -130v-260q0 -130 -130 -130h-260q-73 0 -105 41z" />
    <glyph glyph-name="u1081" unicode="&#x1081;" 
d="M251 50v-420h-136v50h86v320h-31q-130 0 -130 130v260q0 130 130 130h260q130 0 130 -130v-260q0 -130 -130 -130h-45v50h45q80 0 80 80v260q0 80 -80 80h-260q-80 0 -80 -80v-260q0 -80 80 -80h81z" />
    <glyph glyph-name="u1082" unicode="&#x1082;" horiz-adv-x="0" 
d="M-300 -70q-125 0 -125 -125t125 -125t125 125h50q0 -175 -175 -175t-175 175t175 175q81 0 125 -38l-34 -41q-31 29 -91 29z" />
    <glyph glyph-name="u1083" unicode="&#x1083;" horiz-adv-x="130" 
d="M40 470h-80v50h130v-840h80v-50h-130v840z" />
    <glyph glyph-name="u1084" unicode="&#x1084;" 
d="M40 143q0 83 87 117q-87 35 -87 117v13q0 130 130 130h260q130 0 130 -130v-45h-50v45q0 80 -80 80h-260q-80 0 -80 -80v-13q0 -86 130 -92h80v-50h-80q-130 -6 -130 -92v-13q0 -80 80 -80h260q80 0 80 80v45h50v-45q0 -130 -130 -130h-260q-130 0 -130 130v13z" />
    <glyph glyph-name="u1085" unicode="&#x1085;" horiz-adv-x="0" 
d="M-384 715q-44 25 -44 75q0 100 175 100q47 0 81 -7l-9 -49q-28 6 -72 6q-125 0 -125 -50t125 -50v-50q-125 0 -125 -50t125 -50q44 0 72 6l9 -49q-34 -7 -81 -7q-175 0 -175 100q0 50 44 75z" />
    <glyph glyph-name="u1086" unicode="&#x1086;" horiz-adv-x="0" 
d="M-250 760q0 50 -50 50t-50 -50t50 -50t50 50zM-200 728q0 -175 -151 -217l-16 48q87 25 109 107q-18 -6 -42 -6q-100 0 -100 100t100 100t100 -100v-32z" />
    <glyph glyph-name="u1087" unicode="&#x1087;" horiz-adv-x="280" 
d="M190 100q0 50 -50 50t-50 -50t50 -50t50 50zM240 68q0 -175 -151 -217l-16 48q87 25 109 107q-18 -6 -42 -6q-100 0 -100 100t100 100t100 -100v-32z" />
    <glyph glyph-name="u1088" unicode="&#x1088;" horiz-adv-x="280" 
d="M140 520q100 0 100 -100t-100 -100t-100 100t100 100zM190 420q0 50 -50 50t-50 -50t50 -50t50 50zM190 100q0 50 -50 50t-50 -50t50 -50t50 50zM240 68q0 -175 -151 -217l-16 48q87 25 109 107q-18 -6 -42 -6q-100 0 -100 100t100 100t100 -100v-32z" />
    <glyph glyph-name="u1089" unicode="&#x1089;" horiz-adv-x="280" 
d="M140 200q100 0 100 -100t-100 -100t-100 100t100 100zM190 100q0 50 -50 50t-50 -50t50 -50t50 50z" />
    <glyph glyph-name="u108A" unicode="&#x108a;" horiz-adv-x="430" 
d="M191 420q0 50 -50 50t-50 -50t50 -50t50 50zM141 320q-100 0 -100 100t100 100t100 -100q0 -25 -6 -43q82 22 107 110l48 -16q-42 -151 -217 -151h-32zM190 100q0 50 -50 50t-50 -50t50 -50t50 50zM140 0q-100 0 -100 100t100 100t100 -100q0 -25 -6 -43q82 22 107 110
l48 -16q-42 -151 -217 -151h-32z" />
    <glyph glyph-name="u108B" unicode="&#x108b;" horiz-adv-x="280" 
d="M140 360q100 0 100 -100t-100 -100t-100 100t100 100zM190 260q0 50 -50 50t-50 -50t50 -50t50 50z" />
    <glyph glyph-name="u108C" unicode="&#x108c;" horiz-adv-x="520" 
d="M380 360q100 0 100 -100t-100 -100t-100 100t100 100zM430 260q0 50 -50 50t-50 -50t50 -50t50 50zM140 360q100 0 100 -100t-100 -100t-100 100t100 100zM190 260q0 50 -50 50t-50 -50t50 -50t50 50z" />
    <glyph glyph-name="u108D" unicode="&#x108d;" horiz-adv-x="0" 
d="M-75 -106v-50h-450v50h450z" />
    <glyph glyph-name="u108E" unicode="&#x108e;" 
d="M430 50q80 0 80 80v260q0 80 -80 80h-260q-80 0 -80 -80v-260q0 -80 80 -80h260zM170 0q-130 0 -130 130v260q0 130 130 130h260q130 0 130 -130v-260q0 -130 -130 -130h-260zM460 415l30 -45q-65 -60 -190 -60t-190 60l30 45q52 -55 160 -55t160 55z" />
    <glyph glyph-name="u108F" unicode="&#x108f;" horiz-adv-x="280" 
d="M240 420q0 -100 -100 -100t-100 100t100 100t100 -100zM140 370q50 0 50 50t-50 50t-50 -50t50 -50zM140 50q50 0 50 50t-50 50t-50 -50t50 -50zM40 100q0 100 100 100t100 -100t-100 -100q-24 0 -42 6q22 -82 109 -107l-16 -48q-151 42 -151 217v32z" />
    <glyph glyph-name="u1090" unicode="&#x1090;" 
d="M170 470q-80 0 -80 -80v-260q0 -80 80 -80h260q80 0 80 80v260q0 80 -80 80h-260zM430 520q130 0 130 -130v-260q0 -130 -130 -130h-260q-130 0 -130 130v260q0 130 130 130h260z" />
    <glyph glyph-name="u1091" unicode="&#x1091;" horiz-adv-x="320" 
d="M185 69l69 41l26 -43l-112 -67h-33v451l-69 -41l-26 43l112 67h33v-451z" />
    <glyph glyph-name="u1092" unicode="&#x1092;" 
d="M90 447q64 73 210 73q260 0 260 -260q0 -134 -149 -239q-161 -114 -161 -221h-50q0 132 183 261q127 90 127 199q0 210 -210 210t-210 -180h-50v270h50v-113z" />
    <glyph glyph-name="u1093" unicode="&#x1093;" horiz-adv-x="535" 
d="M319 520h21q155 0 155 -173v-347h-50v347q0 123 -105 123h-44l-210 -470l-46 20l327 731l46 -20z" />
    <glyph glyph-name="u1094" unicode="&#x1094;" horiz-adv-x="448" 
d="M264 520h49v-451l69 41l26 -43l-112 -67h-33v396l-177 -396l-46 20z" />
    <glyph glyph-name="u1095" unicode="&#x1095;" horiz-adv-x="480" 
d="M390 370h-125q-175 0 -175 -160t150 -160t150 210v110zM440 420h50v-50h-50v-110q0 -260 -200 -260t-200 210t225 210h125v280h50v-280z" />
    <glyph glyph-name="u1096" unicode="&#x1096;" horiz-adv-x="480" 
d="M390 260q0 210 -150 210t-150 -160t175 -160h125v110zM440 -180h-50v280h-125q-225 0 -225 210t200 210t200 -260v-110h50v-50h-50v-280z" />
    <glyph glyph-name="u1097" unicode="&#x1097;" horiz-adv-x="480" 
d="M440 487l-324 -437h324v-50h-400v31l326 439h-326v50h400v-33z" />
    <glyph glyph-name="u1098" unicode="&#x1098;" 
d="M300 470q-210 0 -210 -210t210 -210t210 210t-210 210zM300 520q210 0 210 210h50q0 -179 -124 -235q124 -56 124 -235q0 -260 -260 -260t-260 260q0 179 124 235q-124 56 -124 235h50q0 -210 210 -210z" />
    <glyph glyph-name="u1099" unicode="&#x1099;" 
d="M510 470q0 210 -210 210t-210 -210t210 -210t210 210zM90 0h-50q0 179 124 235q-124 56 -124 235q0 260 260 260t260 -260q0 -179 -124 -235q124 -56 124 -235h-50q0 210 -210 210t-210 -210z" />
    <glyph glyph-name="u109A" unicode="&#x109a;" horiz-adv-x="280" 
d="M140 520q100 0 100 -100t-100 -100t-100 100t100 100zM190 420q0 50 -50 50t-50 -50t50 -50t50 50z" />
    <glyph glyph-name="u109B" unicode="&#x109b;" horiz-adv-x="280" 
d="M190 420q0 50 -50 50t-50 -50t50 -50t50 50zM240 388q0 -175 -151 -217l-16 48q87 25 109 107q-18 -6 -42 -6q-100 0 -100 100t100 100t100 -100v-32z" />
    <glyph glyph-name="u109C" unicode="&#x109c;" horiz-adv-x="430" 
d="M141 150q-50 0 -50 -50t50 -50t50 50t-50 50zM173 200q175 0 217 -151l-48 -16q-25 88 -107 110q6 -18 6 -43q0 -100 -100 -100t-100 100t100 100h32zM140 470q-50 0 -50 -50t50 -50t50 50t-50 50zM172 520q175 0 217 -151l-48 -16q-25 88 -107 110q6 -18 6 -43
q0 -100 -100 -100t-100 100t100 100h32z" />
    <glyph glyph-name="u109D" unicode="&#x109d;" horiz-adv-x="0" 
d="M-185 690q-95 0 -95 -93h-50q0 143 145 143t145 -183v-157h-50v157q0 133 -95 133z" />
    <glyph glyph-name="u109E" unicode="&#x109e;" horiz-adv-x="130" 
d="M40 470h-80v50h130v-840h80v-50h-130v840zM65 740q100 0 100 -100t-100 -100t-100 100t100 100zM115 640q0 50 -50 50t-50 -50t50 -50t50 50z" />
    <glyph glyph-name="u109F" unicode="&#x109f;" horiz-adv-x="730" 
d="M560 -262q0 -58 40 -58t40 58v652q0 150 -127 150q-175 0 -175 175t175 175q144 0 170 -119l-50 -12q-19 81 -120 81q-125 0 -125 -125t125 -125q177 0 177 -200v-652q0 -108 -90 -108t-90 108v652q0 80 -80 80h-260q-80 0 -80 -80v-260q0 -80 80 -80h130q28 0 39 3
q8 2 8 8q0 3 -1 6q-5 11 -22 29q-18 18 -41 30q-47 24 -118 24q-28 0 -53 -4l-16 49q32 5 69 5q103 0 165 -41q31 -20 52 -51q21 -30 21 -55q0 -26 -21.5 -39.5t-81.5 -13.5h-130q-130 0 -130 130v260q0 130 130 130h260q130 0 130 -130v-652z" />
    <glyph glyph-name="uAA60" unicode="&#xaa60;" horiz-adv-x="1070" 
d="M640 470q-80 0 -80 -80v-260q0 -130 -130 -130h-45v50h45q80 0 80 80v260q0 80 -80 80h-260q-80 0 -80 -80v-260q0 -80 80 -80h45v-50h-45q-130 0 -130 130v260q0 130 130 130h260q73 0 105 -41q32 41 105 41h260q130 0 130 -130v-260q0 -130 -130 -130h-130
q-60 0 -81.5 13.5t-21.5 39.5q0 25 21 55q21 31 52 51q62 41 165 41q37 0 69 -5l-16 -49q-25 4 -53 4q-71 0 -118 -24q-23 -12 -41 -30q-17 -18 -22 -29q-1 -3 -1 -6q0 -6 8 -8q11 -3 39 -3h130q80 0 80 80v260q0 80 -80 80h-260z" />
    <glyph glyph-name="uAA61" unicode="&#xaa61;" horiz-adv-x="1070" 
d="M560 390v-260q0 -80 80 -80h260q80 0 80 80v260q0 80 -80 80h-260q-80 0 -80 -80zM510 390q0 80 -80 80h-260q-80 0 -80 -80v-130q0 -34 74 -55q115 -33 115 -100q0 -56 -36 -80.5t-72 -24.5t-131 49l23 45q84 -44 106 -44t41 12.5t19 42.5q0 29 -79 52q-110 32 -110 103
v130q0 130 130 130h260q73 0 105 -41q32 41 105 41h260q130 0 130 -130v-260q0 -130 -130 -130h-260q-73 0 -105 41q-32 -41 -105 -41h-45v50h45q80 0 80 80v260z" />
    <glyph glyph-name="uAA62" unicode="&#xaa62;" horiz-adv-x="740" 
d="M40 520h50v-444l173 184h49q0 -210 198 -210h60q80 0 80 80v260q0 80 -80 80h-145v50h145q130 0 130 -130v-260q0 -130 -130 -130h-60q-213 0 -243 192l-180 -192h-47v520z" />
    <glyph glyph-name="uAA63" unicode="&#xaa63;" horiz-adv-x="1070" 
d="M560 390v-260q0 -80 80 -80h260q80 0 80 80v260q0 80 -80 80h-260q-80 0 -80 -80zM510 390q0 80 -80 80h-260q-80 0 -80 -80v-130q0 -34 74 -55q115 -33 115 -100q0 -56 -36 -80.5t-72 -24.5t-131 49l23 45q84 -44 106 -44t41 12.5t19 42.5q0 29 -79 52q-110 32 -110 103
v130q0 130 130 130h260q73 0 105 -41q32 41 105 41h260q130 0 130 -130v-260q0 -130 -130 -130h-260q-73 0 -105 41q-32 -41 -105 -41q-70 0 -70 87q0 176 119 293l21 -48q-90 -88 -90 -245q0 -37 20 -37q80 0 80 80v260z" />
    <glyph glyph-name="uAA64" unicode="&#xaa64;" horiz-adv-x="1070" 
d="M560 390v-260q0 -80 80 -80h260q80 0 80 80v260q0 80 -80 80h-260q-80 0 -80 -80zM535 41q-32 -41 -105 -41h-260q-130 0 -130 130v260q0 130 130 130h45v-50h-45q-80 0 -80 -80v-260q0 -80 80 -80h260q80 0 80 80v260q0 80 -80 80h-45v50h45q73 0 105 -41q32 41 105 41
h260q130 0 130 -130v-260q0 -130 -130 -130h-260q-73 0 -105 41z" />
    <glyph glyph-name="uAA65" unicode="&#xaa65;" horiz-adv-x="1070" 
d="M560 -370h-136v50h86v339q-31 -19 -80 -19h-260q-130 0 -130 130v260q0 130 130 130h145v-50h-145q-80 0 -80 -80v-260q0 -80 80 -80h260q80 0 80 80v260q0 130 130 130h260q130 0 130 -130v-260q0 -130 -130 -130h-145v50h145q80 0 80 80v260q0 80 -80 80h-260
q-80 0 -80 -80v-760z" />
    <glyph glyph-name="uAA66" unicode="&#xaa66;" horiz-adv-x="1070" 
d="M300 295q35 0 35 -35t-35 -35t-35 35t35 35zM560 130q0 -130 -130 -130h-260q-130 0 -130 130v260q0 130 130 130h260q73 0 105 -41q32 41 105 41h260q130 0 130 -130v-260q0 -130 -130 -130h-145v50h145q80 0 80 80v260q0 80 -80 80h-260q-80 0 -80 -80v-260zM510 390
q0 80 -80 80h-260q-80 0 -80 -80v-260q0 -80 80 -80h260q80 0 80 80v260z" />
    <glyph glyph-name="uAA67" unicode="&#xaa67;" horiz-adv-x="1070" 
d="M300 295q35 0 35 -35t-35 -35t-35 35t35 35zM510 130v260q0 80 -80 80h-260q-80 0 -80 -80v-260q0 -80 80 -80h260q80 0 80 80zM560 130q0 -80 80 -80h260q80 0 80 80v260q0 80 -80 80h-260q-80 0 -80 -80v-260zM535 479q32 41 105 41h260q130 0 130 -130v-260
q0 -130 -130 -130h-260q-73 0 -105 41q-32 -41 -105 -41h-260q-130 0 -130 130v260q0 130 130 130h260q73 0 105 -41z" />
    <glyph glyph-name="uAA68" unicode="&#xaa68;" horiz-adv-x="1020" 
d="M300 295q35 0 35 -35t-35 -35t-35 35t35 35zM510 390q0 80 -80 80h-260q-80 0 -80 -80v-260q0 -80 80 -80h260q80 0 80 80v260zM900 520q130 0 130 -130v-260q0 -130 -130 -130h-130q-60 0 -81.5 13.5t-21.5 39.5q0 25 21 55q21 31 52 51q62 41 165 41q37 0 69 -5
l-16 -49q-25 4 -53 4q-71 0 -118 -24q-23 -12 -41 -30q-17 -18 -22 -29q-1 -3 -1 -6q0 -6 8 -8q11 -3 39 -3h130q80 0 80 80v260q0 80 -80 80h-260q-80 0 -80 -80v-260q0 -130 -130 -130h-260q-130 0 -130 130v260q0 130 130 130h260q73 0 105 -41q32 41 105 41h260z" />
    <glyph glyph-name="uAA69" unicode="&#xaa69;" horiz-adv-x="1070" 
d="M300 295q35 0 35 -35t-35 -35t-35 35t35 35zM510 130v260q0 80 -80 80h-260q-80 0 -80 -80v-260q0 -80 80 -80h260q80 0 80 80zM763 50h137q80 0 80 80v260q0 80 -80 80h-260q-80 0 -80 -80v-136q196 -8 203 -204zM560 204v-74q0 -80 80 -80h73q-7 146 -153 154zM535 479
q32 41 105 41h260q130 0 130 -130v-260q0 -130 -130 -130h-260q-73 0 -105 41q-32 -41 -105 -41h-260q-130 0 -130 130v260q0 130 130 130h260q73 0 105 -41z" />
    <glyph glyph-name="uAA6A" unicode="&#xaa6a;" horiz-adv-x="1070" 
d="M510 130v260q0 80 -80 80h-260q-80 0 -80 -80v-260q0 -80 80 -80h260q80 0 80 80zM763 50h137q80 0 80 80v260q0 80 -80 80h-260q-80 0 -80 -80v-136q196 -8 203 -204zM560 204v-74q0 -80 80 -80h73q-7 146 -153 154zM535 479q32 41 105 41h260q130 0 130 -130v-260
q0 -130 -130 -130h-260q-73 0 -105 41q-32 -41 -105 -41h-260q-130 0 -130 130v260q0 130 130 130h260q73 0 105 -41z" />
    <glyph glyph-name="uAA6B" unicode="&#xaa6b;" 
d="M90 337v-207q0 -80 80 -80q20 0 20 37q0 157 -99 250h-1zM54 462q29 58 116 58h260q130 0 130 -130v-260q0 -130 -130 -130h-45v50h45q80 0 80 80v260q0 80 -80 80h-260q-74 0 -80 -68q21 -27 51 -55q99 -94 99 -260q0 -87 -70 -87q-130 0 -130 130v263q-48 64 -48 127
h50q0 -28 12 -58z" />
    <glyph glyph-name="uAA6C" unicode="&#xaa6c;" horiz-adv-x="1070" 
d="M520 130q0 -130 -130 -130h-220q-130 0 -130 130v260q0 130 130 130h145v-50h-145q-80 0 -80 -80v-260q0 -80 80 -80h220q80 0 80 80v260q0 38 -26 65q16 65 101 65t101 -65q-26 -27 -26 -65v-260q0 -80 80 -80h200q80 0 80 80v260q0 80 -80 80h-145v50h145
q130 0 130 -130v-260q0 -130 -130 -130h-200q-130 0 -130 130v260q0 42 20 63q-22 17 -45 17t-45 -17q20 -21 20 -63v-260z" />
    <glyph glyph-name="uAA6D" unicode="&#xaa6d;" horiz-adv-x="680" 
d="M148 420q0 50 -50 50t-50 -50t50 -50t50 50zM124 322q-12 -2 -26 -2q-100 0 -100 100t100 100q76 0 94 -58q65 58 188 58h130q130 0 130 -130v-260q0 -130 -130 -130h-145v50h145q80 0 80 80v260q0 80 -80 80h-130q-210 0 -210 -210v-447q0 -183 -145 -183t-145 183h50
q0 -133 95 -133t95 133v447q0 33 4 62z" />
    <glyph glyph-name="uAA6E" unicode="&#xaa6e;" horiz-adv-x="1070" 
d="M430 520q130 0 130 -130v-260q0 -80 80 -80h260q80 0 80 80v260q0 80 -80 80h-145v50h145q130 0 130 -130v-260q0 -130 -130 -130h-260q-130 0 -130 130v260q0 80 -80 80h-260q-80 0 -80 -80v-260q0 -80 80 -80h130q28 0 39 3q8 2 8 8q0 3 -1 6q-5 11 -22 29
q-18 18 -41 30q-47 24 -118 24q-28 0 -53 -4l-16 49q32 5 69 5q103 0 165 -41q31 -20 52 -51q21 -30 21 -55q0 -26 -21.5 -39.5t-81.5 -13.5h-130q-130 0 -130 130v260q0 130 130 130h260z" />
    <glyph glyph-name="uAA6F" unicode="&#xaa6f;" horiz-adv-x="730" 
d="M300 470q-80 0 -80 -80v-260q0 -80 80 -80h260q80 0 80 80v260q0 80 -80 80h-260zM170 359l-80 85v-444h-50v520h47l86 -92q17 92 127 92h260q130 0 130 -130v-260q0 -130 -130 -130h-260q-130 0 -130 130v229z" />
    <glyph glyph-name="uAA70" unicode="&#xaa70;" horiz-adv-x="0" 
d="M-299 590q-76 0 -107 -31l-40 35q44 46 147 46q102 0 146 -46l-40 -35q-31 31 -106 31zM-299 700q-76 0 -107 -31l-40 35q44 46 147 46q102 0 146 -46l-40 -35q-31 31 -106 31z" />
    <glyph glyph-name="uAA71" unicode="&#xaa71;" horiz-adv-x="1070" 
d="M510 390q0 80 -80 80h-260q-80 0 -80 -80v-260q0 -80 80 -80q20 0 20 37q0 157 -90 245l21 48q119 -117 119 -293q0 -87 -70 -87q-130 0 -130 130v260q0 130 130 130h260q73 0 105 -41q32 41 105 41h260q130 0 130 -130v-260q0 -130 -130 -130h-145v50h145q80 0 80 80
v260q0 80 -80 80h-260q-80 0 -80 -80v-260q0 -130 -130 -130h-45v50h45q80 0 80 80v260z" />
    <glyph glyph-name="uAA72" unicode="&#xaa72;" horiz-adv-x="1070" 
d="M110 100q0 50 -50 50t-50 -50t50 -50t50 50zM560 390v-260q0 -80 80 -80h260q80 0 80 80v260q0 80 -80 80h-260q-80 0 -80 -80zM49 200q-9 26 -9 60v130q0 130 130 130h260q73 0 105 -41q32 41 105 41h260q130 0 130 -130v-260q0 -130 -130 -130h-260q-73 0 -105 41
q-32 -41 -105 -41h-45v50h45q80 0 80 80v260q0 80 -80 80h-260q-80 0 -80 -80v-130q0 -51 34 -76q36 -24 36 -84q0 -100 -100 -100t-100 100q0 94 89 100z" />
    <glyph glyph-name="uAA73" unicode="&#xaa73;" horiz-adv-x="690" 
d="M90 364v-364h-50v520h48q147 -470 319 -470h113q80 0 80 80v260q0 80 -80 80h-145v50h145q130 0 130 -130v-260q0 -130 -130 -130h-113q-176 0 -317 364z" />
    <glyph glyph-name="uAA74" unicode="&#xaa74;" horiz-adv-x="730" 
d="M410 50h20q80 0 80 80v260q0 80 -80 80q-20 0 -20 -37v-383zM360 -270q0 50 -50 50t-50 -50t50 -50t50 50zM360 0h-190q-130 0 -130 130v260q0 130 130 130h45v-50h-45q-80 0 -80 -80v-260q0 -80 80 -80h190v383q0 87 70 87q130 0 130 -130v-260q0 -130 -130 -130h-20
v-231q68 -89 149 -89t81 58v652q0 150 -127 150q-175 0 -175 175t175 175q144 0 170 -119l-50 -12q-19 81 -120 81q-125 0 -125 -125t125 -125q177 0 177 -200v-652q0 -108 -131 -108q-84 0 -152 66q-16 -66 -97 -66q-100 0 -100 100t100 100q29 0 50 -9v179z" />
    <glyph glyph-name="uAA75" unicode="&#xaa75;" horiz-adv-x="1200" 
d="M830 -270q0 50 -50 50t-50 -50t50 -50t50 50zM880 0v-231q68 -89 149 -89t81 58v652q0 150 -127 150q-175 0 -175 175t175 175q144 0 170 -119l-50 -12q-19 81 -120 81q-125 0 -125 -125t125 -125q177 0 177 -200v-652q0 -108 -131 -108q-84 0 -152 66q-16 -66 -97 -66
q-100 0 -100 100t100 100q29 0 50 -9v179h-75v50h145q80 0 80 80v260q0 80 -80 80h-260q-80 0 -80 -80v-260q0 -130 -130 -130h-45v50h45q80 0 80 80v260q0 80 -80 80h-260q-80 0 -80 -80v-130q0 -34 74 -55q115 -33 115 -100q0 -56 -36 -80.5t-72 -24.5t-131 49l23 45
q84 -44 106 -44t41 12.5t19 42.5q0 29 -79 52q-110 32 -110 103v130q0 130 130 130h260q73 0 105 -41q32 41 105 41h260q130 0 130 -130v-260q0 -130 -130 -130h-20z" />
    <glyph glyph-name="uAA76" unicode="&#xaa76;" horiz-adv-x="810" 
d="M440 -270q0 50 -50 50t-50 -50t50 -50t50 50zM490 0v-231q68 -89 149 -89t81 58v652q0 150 -127 150q-175 0 -175 175t175 175q144 0 170 -119l-50 -12q-19 81 -120 81q-125 0 -125 -125t125 -125q177 0 177 -200v-652q0 -108 -131 -108q-84 0 -152 66q-16 -66 -97 -66
q-100 0 -100 100t100 100q29 0 50 -9v179h-75v50h145q80 0 80 80v260q0 80 -80 80h-130q-210 0 -210 -210v-452q0 -178 -118 -178h-83q-119 0 -119 109t119 109h83v-50h-83q-69 0 -69 -59t69 -59h83q68 0 68 128v529q0 133 -95 133t-95 -133h-50q0 183 145 183
q106 0 134 -97q62 97 221 97h130q130 0 130 -130v-260q0 -130 -130 -130h-20z" />
    <glyph glyph-name="uAA77" unicode="&#xaa77;" 
d="M303 840q-125 0 -125 -125t125 -125v-50q-175 0 -175 175t175 175q144 0 170 -119l-50 -12q-19 81 -120 81zM433 -7l109 -299l81 29l17 -46l-128 -47l-122 337q-24 -13 -51 -23v-264h86v-50h-136v350q221 71 221 280v130q0 80 -80 80h-260q-80 0 -80 -80v-130
q0 -34 74 -55q115 -33 115 -100q0 -56 -36 -80.5t-72 -24.5t-131 49l23 45q84 -44 106 -44t41 12.5t19 42.5q0 29 -79 52q-110 32 -110 103v130q0 130 130 130h260q130 0 130 -130v-130q0 -176 -127 -267z" />
    <glyph glyph-name="uAA78" unicode="&#xaa78;" horiz-adv-x="740" 
d="M40 408l40 35q70 -65 70 -200q0 -131 -66 -196l-38 37q54 52 54 159q0 112 -60 165zM507 53l12 -12l-35 -41q-52 60 -164 60q-107 0 -159 -54l-37 38q65 66 196 66q86 0 144 -29l113 348q30 91 97 91q19 0 41 -7q49 -16 65 -53l-47 -26q-7 23 -34 31q-11 4 -20 4
q-36 0 -54 -56zM484 490l35 -40q-65 -70 -199 -70q-131 0 -196 66l37 38q52 -54 159 -54q112 0 164 60z" />
    <glyph glyph-name="uAA79" unicode="&#xaa79;" 
d="M289 -20q221 101 221 280v130q0 80 -80 80h-260q-80 0 -80 -80v-130q0 -34 74 -55q115 -33 115 -100q0 -56 -36 -80.5t-72 -24.5t-131 49l23 45q84 -44 106 -44t41 12.5t19 42.5q0 29 -79 52q-110 32 -110 103v130q0 130 130 130h260q130 0 130 -130v-130
q0 -204 -221 -312v-268h86v-50h-136v350z" />
    <glyph glyph-name="uAA7A" unicode="&#xaa7a;" horiz-adv-x="1200" 
d="M522 800q118 0 118 90h50q0 -140 -168 -140h-313q-119 0 -119 -128v-814q0 -128 119 -128h313q118 0 118 128v582q0 80 -80 80h-260q-80 0 -80 -80v-260q0 -80 80 -80h145v-50h-145q-130 0 -130 130v260q0 130 130 130h260q130 0 130 -130v-260q0 -80 80 -80h260
q80 0 80 80v260q0 80 -80 80h-145v50h145q130 0 130 -130v-260q0 -130 -130 -130h-260q-49 0 -80 19v-211q0 -178 -168 -178h-313q-169 0 -169 178v814q0 178 169 178h313z" />
    <glyph glyph-name="uAA7B" unicode="&#xaa7b;" horiz-adv-x="280" 
d="M140 50q50 0 50 50t-50 50t-50 -50t50 -50zM40 100q0 100 100 100t100 -100t-100 -100q-24 0 -42 6q22 -82 109 -107l-16 -48q-151 42 -151 217v32z" />
    <glyph glyph-name="u1039_1000" horiz-adv-x="0" 
d="M-150 -320q125 0 125 125t-125 125t-125 -125q0 -150 -120 -175l-13 49q83 19 83 126q0 125 -125 125t-125 -125q0 -107 83 -126l-13 -49q-120 25 -120 175q0 175 175 175q109 0 150 -68q41 68 150 68q175 0 175 -175t-175 -175q-27 0 -50 4l9 50q19 -4 41 -4z" />
    <glyph glyph-name="u1039_1001" horiz-adv-x="0" 
d="M-234 -308q-26 64 -115 64q-40 0 -67 -13q26 -63 115 -63q40 0 67 12zM-470 -229q43 35 121 35q116 0 155 -77q18 29 18 76q0 125 -125 125q-105 0 -122 -89l-50 10q22 129 172 129q175 0 175 -175t-175 -175q-150 0 -172 129z" />
    <glyph glyph-name="u1039_1002" horiz-adv-x="1" 
d="M-125 -195q0 -150 -120 -175l-13 49q83 19 83 126q0 125 -125 125t-125 -125q0 -107 83 -126l-13 -49q-120 25 -120 175q0 175 175 175t175 -175z" />
    <glyph glyph-name="u1039_1003" horiz-adv-x="0" 
d="M-575 -195q0 -125 125 -125t125 125q0 107 -83 126l13 49q120 -25 120 -175q0 -125 125 -125t125 125t-125 125q-22 0 -41 -4l-9 50q23 4 50 4q175 0 175 -175t-175 -175q-109 0 -150 68q-41 -68 -150 -68q-175 0 -175 175q0 56 70 78q39 13 39 30t-30 17q-22 0 -56 -24
l-23 45q45 29 81 29t57 -14.5t21 -52.5q0 -55 -75 -78q-34 -11 -34 -30z" />
    <glyph glyph-name="u1039_1004" horiz-adv-x="1" 
d="M-300 -20q150 0 175 -120l-49 -13q-19 83 -126 83q-125 0 -125 -125t125 -125q107 0 126 83l49 -13q-25 -120 -175 -120q-175 0 -175 175t175 175z" />
    <glyph glyph-name="u1039_1005" horiz-adv-x="1" 
d="M-365 -308q26 -12 65 -12q125 0 125 125t-125 125q-39 0 -65 -12q63 -22 63 -113t-63 -113zM-411 -125q-14 -28 -14 -70t14 -70q59 1 59 70t-59 70zM-300 -20q175 0 175 -175t-175 -175t-175 175t175 175z" />
    <glyph glyph-name="u1039_1006" horiz-adv-x="0" 
d="M-384 -308q-26 64 -115 64q-40 0 -67 -13q26 -63 115 -63q40 0 67 12zM-151 -70q-125 0 -125 -125t125 -125t125 125t-125 125zM-301 -302q-41 -68 -150 -68q-150 0 -172 129l3 12q43 35 121 35q116 0 155 -77q18 29 18 76q0 125 -125 125q-105 0 -122 -89l-50 10
q22 129 172 129q109 0 150 -68q41 68 150 68q175 0 175 -175t-175 -175q-109 0 -150 68z" />
    <glyph glyph-name="u1039_1007" horiz-adv-x="1" 
d="M-192 -116q0 25 -25 25t-25 -25t25 -25t25 25zM-163 -167q-17 -19 -54 -19q-70 0 -70 70q0 28 11 45q-11 1 -24 1q-125 0 -125 -125t125 -125q107 0 126 83l49 -13q-25 -120 -175 -120q-175 0 -175 175t175 175q82 0 127 -37q23 -21 26 -52q25 -36 90 -44l-6 -50
q-63 8 -100 36z" />
    <glyph glyph-name="u1039_1008" horiz-adv-x="130" 
d="M-365 -308q26 -12 65 -12q125 0 125 125t-125 125q-39 0 -65 -12q63 -22 63 -113t-63 -113zM-411 -125q-14 -28 -14 -70t14 -70q59 1 59 70t-59 70zM-127 -227l167 -86v833h50v-859l-50 -31l-178 92q-35 -92 -162 -92q-175 0 -175 175t175 175t175 -175q0 -17 -2 -32z
" />
    <glyph glyph-name="u1039_100B" horiz-adv-x="0" 
d="M-300 -10q150 0 175 -80l-49 -13q-19 43 -126 43q-125 0 -125 -70t125 -70q107 0 126 43l49 -13q-25 -80 -175 -80q-175 0 -175 120t175 120zM-175 -327q-44 -23 -125 -23q-137 1 -175 47l20 45q52 -41 155 -42q107 0 156 43h19v-63h80v-50h-130v43z" />
    <glyph glyph-name="u1039_100C" horiz-adv-x="0" 
d="M-492 -368q-108 0 -108 122v113q0 113 99 113t99 -113v-103h-50v103q0 63 -49 63t-49 -63v-113q0 -72 58 -72h175q-33 44 -33 123q0 175 175 175t175 -175q0 -150 -120 -175l-13 49q83 19 83 126q0 125 -125 125t-125 -125q0 -107 83 -126l-13 -49z" />
    <glyph glyph-name="u1039_100F" horiz-adv-x="0" 
d="M-258 -76q-12 6 -42 6t-42 -6q29 -43 29 -119q0 -70 -24 -113q13 -12 37 -12t37 12q-24 43 -24 113q0 76 29 119zM-575 -195q0 -125 125 -125v-50q-175 0 -175 175t156 175q54 0 89 -21q24 21 80 21t80 -21q35 21 89 21q156 0 156 -175t-175 -175v50q125 0 125 125
t-106 125t-106 -125q0 -45 12 -75q9 -19 22 -32q-6 -30 -26 -46q-25 -22 -71 -22t-71 22q-20 16 -26 46q13 13 22 32q12 30 12 75q0 125 -106 125t-106 -125z" />
    <glyph glyph-name="u1039_1010" horiz-adv-x="0" 
d="M-150 -320q125 0 125 125t-125 125t-125 -125q0 -175 -175 -175t-175 175t175 175q109 0 150 -68q41 68 150 68q175 0 175 -175t-175 -175q-27 0 -50 4l9 50q19 -4 41 -4zM-450 -320q125 0 125 125t-125 125t-125 -125t125 -125z" />
    <glyph glyph-name="u1039_1011" horiz-adv-x="0" 
d="M-150 -70q-125 0 -125 -125t125 -125t125 125t-125 125zM-450 -70q-125 0 -125 -125t125 -125t125 125t-125 125zM-300 -88q41 68 150 68q175 0 175 -175t-175 -175q-109 0 -150 68q-41 -68 -150 -68q-175 0 -175 175t175 175q109 0 150 -68z" />
    <glyph glyph-name="u1039_1012" horiz-adv-x="0" 
d="M-169 -195q44 -25 44 -75q0 -100 -175 -100t-175 100h50q0 -50 125 -50t125 50t-125 50v50q125 0 125 50t-125 50t-125 -50h-50q0 100 175 100t175 -100q0 -50 -44 -75z" />
    <glyph glyph-name="u1039_1013" horiz-adv-x="1" 
d="M-187 -260q12 26 12 65q0 125 -125 125t-125 -125q0 -39 12 -65q22 63 113 63t113 -63zM-370 -306q28 -14 70 -14t70 14q-1 59 -70 59t-70 -59zM-475 -195q0 175 175 175t175 -175t-175 -175t-175 175z" />
    <glyph glyph-name="u1039_1014" horiz-adv-x="0" 
d="M-333 -320v20q0 49 -68 49q-24 0 -24 -18q0 -47 92 -51zM-283 -320q108 4 108 58q0 32 -116.5 65.5t-116.5 89.5q0 87 101 87q115 0 115 -94h-50q0 44 -65 44q-41 0 -41 -37q0 -20 111.5 -53.5t111.5 -101.5q0 -108 -175 -108t-175 101q0 67 74 67q118 0 118 -98v-20z
" />
    <glyph glyph-name="u1039_1015" horiz-adv-x="1" 
d="M-300 -370q-175 0 -175 175q0 150 120 175l13 -49q-83 -19 -83 -126q0 -125 125 -125t125 125q0 107 -83 126l13 49q120 -25 120 -175q0 -175 -175 -175z" />
    <glyph glyph-name="u1039_1016" horiz-adv-x="1" 
d="M-174 -193q0 89 -63 115q-13 -27 -13 -67q0 -89 64 -115q12 27 12 67zM-253 -21q129 -22 129 -172q0 -175 -175 -175t-175 175q0 150 129 172l10 -50q-89 -17 -89 -122q0 -125 125 -125q47 0 76 18q-77 39 -77 155q0 78 35 121z" />
    <glyph glyph-name="u1039_1017" horiz-adv-x="1" 
d="M-389 -92q-36 -33 -36 -103q0 -125 125 -125t125 125q0 69 -36 101q-22 -44 -89 -44q-68 0 -89 46zM-250 -38l5 18q120 -25 120 -175q0 -175 -175 -175t-175 175q0 150 120 175l5 -18q0 -50 50 -50t50 50z" />
    <glyph glyph-name="u1039_1018" horiz-adv-x="0" 
d="M-450 -70q-107 0 -126 -83l-49 13q25 120 175 120q109 0 150 -68q41 68 150 68q175 0 175 -175t-175 -175q-27 0 -50 4l9 50q19 -4 41 -4q125 0 125 125t-125 125t-125 -125q0 -175 -175 -175q-150 0 -175 120l49 13q19 -83 126 -83q125 0 125 125t-125 125z" />
    <glyph glyph-name="u1039_1019" horiz-adv-x="1" 
d="M-370 -306q28 -14 70 -14t70 14q-1 59 -70 59t-70 -59zM-175 -195q0 107 -83 126l13 49q120 -25 120 -175q0 -175 -175 -175t-175 175q0 150 120 175l13 -49q-83 -19 -83 -126q0 -39 12 -65q22 63 113 63t113 -63q12 26 12 65z" />
    <glyph glyph-name="u1039_101C" horiz-adv-x="0" 
d="M-25 -195q0 125 -125 125q-22 0 -41 -4l-9 50q23 4 50 4q175 0 175 -175t-175 -175t-175 175q0 125 -125 125t-125 -125t125 -125q22 0 41 4l9 -50q-23 -4 -50 -4q-175 0 -175 175t175 175t175 -175q0 -125 125 -125t125 125z" />
    <glyph glyph-name="u1039_101D" horiz-adv-x="1" 
d="M-300 -70q-125 0 -125 -125t125 -125t125 125t-125 125zM-300 -20q175 0 175 -175t-175 -175t-175 175t175 175z" />
    <glyph glyph-name="u1039_101D_103E" horiz-adv-x="1" 
d="M-300 -70q-125 0 -125 -125t125 -125t125 125t-125 125zM-464 -273l-85 -97l-102 90l33 38l65 -57l78 89v15q0 175 175 175t175 -175t-175 -175q-130 0 -164 97z" />
    <glyph glyph-name="u103C_big" horiz-adv-x="130" 
d="M992 -320q118 0 118 128v292h50v-292q0 -178 -168 -178h-783q-169 0 -169 178v904q0 178 169 178h783q168 0 168 -178v-112h-50v112q0 128 -118 128h-783q-119 0 -119 -128v-904q0 -128 119 -128h783z" />
    <glyph glyph-name="u102F_long" horiz-adv-x="130" 
d="M40 520h50v-840h86v-50h-136v890z" />
    <glyph glyph-name="u1030_long" horiz-adv-x="240" 
d="M40 520h50v-890h-50v890zM150 520h50v-840h86v-50h-136v890z" />
    <glyph glyph-name="u103C_1" horiz-adv-x="130" 
d="M209 -370q-169 0 -169 178v904q0 178 169 178h313q168 0 168 -178v-112h-50v112q0 128 -118 128h-313q-119 0 -119 -128v-904q0 -128 119 -128v-50z" />
    <glyph glyph-name="u103C_2" horiz-adv-x="130" 
d="M522 -320q118 0 118 128v292h50v-292q0 -178 -168 -178h-313q-169 0 -169 178v904q0 178 169 178v-50q-119 0 -119 -128v-904q0 -128 119 -128h313z" />
    <glyph glyph-name="u103C_3" horiz-adv-x="130" 
d="M209 -370q-169 0 -169 178v904q0 178 169 178v-50q-119 0 -119 -128v-904q0 -128 119 -128v-50z" />
    <glyph glyph-name="u103C_big_1" horiz-adv-x="130" 
d="M942 890q168 0 168 -178v-112h-50v112q0 128 -118 128h-733q-119 0 -119 -128v-904q0 -128 119 -128h567v-50h-567q-169 0 -169 178v904q0 178 169 178h733z" />
    <glyph glyph-name="u103C_big_2" horiz-adv-x="130" 
d="M576 840h-367q-119 0 -119 -128v-904q0 -128 119 -128h733q118 0 118 128v292h50v-292q0 -178 -168 -178h-733q-169 0 -169 178v904q0 178 169 178h367v-50z" />
    <glyph glyph-name="u103C_big_3" horiz-adv-x="130" 
d="M576 840h-367q-119 0 -119 -128v-904q0 -128 119 -128h367v-50h-367q-169 0 -169 178v904q0 178 169 178h367v-50z" />
    <glyph glyph-name="u100B_1039_100B" 
d="M230 -94q150 0 175 -61l-49 -10q-19 33 -126 33q-125 0 -125 -54t125 -54q107 0 126 33l49 -10q-25 -61 -175 -61q-175 0 -175 92t175 92zM355 -337q-44 -18 -125 -18q-137 1 -175 36l20 35q52 -32 155 -32q107 0 156 33h19v-49h80v-38h-130v33zM560 -320h80v-50h-130
v284v25v17q-39 -20 -80 -20h-260q-77 0 -130 48v141q54 -45 130 -45h260q64 0 80 43v28q-31 -17 -80 -17h-260q-130 0 -130 116v153q0 117 130 117h260q130 0 130 -117v-13h-50v13q0 72 -80 72h-260q-80 0 -80 -72v-153q0 -71 80 -71h260q80 0 80 71v14h50v-156
q-30 -73 -130 -73h-260q-37 0 -80 14v-44q36 -24 80 -24h260q72 0 130 57v-358z" />
    <glyph glyph-name="u100A_alt" horiz-adv-x="1070" 
d="M510 390q0 80 -80 80h-260q-80 0 -80 -80v-45h-50v45q0 130 130 130h260q130 0 130 -130v-260q0 -80 80 -80h260q80 0 80 80v260q0 80 -80 80h-145v50h145q130 0 130 -130v-260q0 -130 -130 -130h-260q-73 0 -105 41q-32 -41 -105 -41h-260q-49 0 -80 19v-211
q0 -128 119 -128h327v-50h-327q-169 0 -169 178v367h50v-45q0 -80 80 -80h260q80 0 80 80v260z" />
    <glyph glyph-name="u1014_alt" 
d="M393 114l62 -62q55 12 55 78v30q0 48 -79 69l-135 36q-156 42 -156 125q0 130 150 130q170 0 170 -140h-50q0 90 -120 90q-100 0 -100 -80q0 -44 119 -76l135 -36q116 -32 116 -118v-30q0 -91 -64 -118l57 -56l-36 -36l-81 80h-266q-130 0 -130 130q0 110 120 110
q105 0 233 -126zM160 190q-70 0 -70 -60q0 -80 80 -80h215l-28 28q-113 112 -197 112z" />
    <glyph glyph-name="u101B_alt" 
d="M510 -320v710q0 80 -80 80h-260q-80 0 -80 -80v-260q0 -80 80 -80h130q28 0 39 3q8 2 8 8q0 3 -1 6q-5 11 -22 29q-18 18 -41 30q-47 24 -118 24q-28 0 -53 -4l-16 49q32 5 69 5q103 0 165 -41q31 -20 52 -51q21 -30 21 -55q0 -26 -21.5 -39.5t-81.5 -13.5h-130
q-130 0 -130 130v260q0 130 130 130h260q130 0 130 -130v-710h-50z" />
    <glyph glyph-name="u1025_alt" 
d="M90 19v-211q0 -128 119 -128v-50q-169 0 -169 178v367h50v-45q0 -80 80 -80h260q80 0 80 80v260q0 80 -80 80h-260q-80 0 -80 -80v-45h-50v45q0 130 130 130h260q130 0 130 -130v-260q0 -130 -130 -130h-260q-49 0 -80 19z" />
    <glyph glyph-name="u1037_alt" horiz-adv-x="0" 
d="M-100 -20q100 0 100 -100t-100 -100t-100 100t100 100zM-50 -120q0 50 -50 50t-50 -50t50 -50t50 50z" />
    <glyph glyph-name="u103B_alt" horiz-adv-x="130" 
d="M40 -370l-215 172l30 41l185 -146v823h50v-859z" />
    <glyph glyph-name="u103E_alt" horiz-adv-x="0" 
d="M-178 -24l36 -36l-248 -247l-96 96l35 35l61 -60z" />
    <glyph glyph-name="u1037_alt2" horiz-adv-x="0" 
d="M50 -20q100 0 100 -100t-100 -100t-100 100t100 100zM100 -120q0 50 -50 50t-50 -50t50 -50t50 50z" />
    <glyph glyph-name="u100B_1039_100C" 
d="M90 130q0 -80 80 -80h260q80 0 80 80v45h50v-45q0 -130 -130 -130h-260q-130 0 -130 130v260q0 130 130 130h260q130 0 130 -130v-45h-50v45q0 80 -80 80h-260q-80 0 -80 -80v-260zM560 -222q0 -148 -168 -148h-183q-169 0 -169 104t139 104h153v-50h-153q-89 0 -89 -54
t119 -54h183q118 0 118 98v128q-43 -16 -80 -16h-260q-80 0 -130 41v57q66 -48 130 -48h260q76 0 130 50v-212z" />
    <glyph glyph-name="u25CC" unicode="&#x25cc;" horiz-adv-x="595" 
d="M479 418q0 -24 -24 -24q-25 0 -25 24q0 25 25 25q24 0 24 -25zM406 466q0 -24 -23 -24q-25 0 -25 24q0 25 25 25q23 0 23 -25zM527 346q0 -25 -25 -25q-24 0 -24 25q0 24 25 24q24 0 24 -24zM545 261q0 -24 -24 -24q-25 0 -25 24t25 24q24 0 24 -24zM321 484
q0 -25 -24 -25t-24 25q0 24 24 24t24 -24zM237 466q0 -24 -25 -24q-24 0 -24 24q0 25 24 25q25 0 25 -25zM527 176q0 -24 -25 -24q-24 0 -24 24q0 25 24 25q25 0 25 -25zM165 418q0 -24 -25 -24q-24 0 -24 23q0 26 24 26q25 0 25 -25zM479 103q0 -24 -24 -24q-25 0 -25 24
q0 25 25 25q24 0 24 -25zM406 55q0 -23 -23 -23q-25 0 -25 23q0 25 25 25q23 0 23 -25zM116 346q0 -25 -23 -25q-25 0 -25 25q0 24 24 24t24 -24zM99 261q0 -24 -24 -24q-25 0 -25 24t25 24q24 0 24 -24zM321 39q0 -25 -24 -25t-24 25q0 24 24 24t24 -24zM116 176
q0 -24 -24 -24t-24 24q0 25 24 25t24 -25zM237 57q0 -25 -25 -25q-24 0 -24 23q0 25 24 25q25 0 25 -23zM165 103q0 -24 -25 -24q-24 0 -24 24q0 25 24 25q25 0 25 -25z" />
    <glyph glyph-name="u103E_short" horiz-adv-x="0" 
d="M-325 -20h50v-270h-136v50h86v220z" />
  </font>
</defs>
</svg>
